<svg width="12506" height="3053" viewBox="0 0 12506 3053" fill="none" xmlns="http://www.w3.org/2000/svg">
<path d="M5330.53 2458.35C5320.69 2458.35 5312.22 2461.9 5305.11 2468.74C5298.27 2475.57 5294.72 2484.05 5294.72 2494.16C5294.72 2504.28 5298.27 2512.48 5305.11 2519.59C5311.94 2526.42 5320.42 2529.98 5330.53 2529.98C5340.1 2529.98 5348.3 2526.42 5354.86 2519.59C5361.43 2512.75 5364.98 2504.28 5364.98 2494.16C5364.98 2484.05 5361.7 2475.84 5354.86 2468.74C5348.3 2461.9 5340.1 2458.35 5330.53 2458.35Z" fill="black"/>
<path d="M9667.85 2458.35C9658.01 2458.35 9649.54 2461.9 9642.43 2468.74C9635.59 2475.57 9632.04 2484.05 9632.04 2494.16C9632.04 2504.28 9635.59 2512.48 9642.43 2519.59C9649.26 2526.42 9657.74 2529.98 9667.85 2529.98C9677.42 2529.98 9685.62 2526.42 9692.46 2519.59C9699.02 2512.75 9702.57 2504.28 9702.57 2494.16C9702.57 2484.05 9699.29 2475.84 9692.46 2468.74C9685.62 2461.9 9677.42 2458.35 9667.85 2458.35Z" fill="black"/>
<path d="M4265.96 2827.15L4118.6 2497.99H4062.28V2896.32H4114.5V2598.87L4247.37 2896.32H4284.27L4416.59 2599.42V2896.32H4469.08V2497.99H4413.31L4265.96 2827.15Z" fill="black"/>
<path d="M4773.37 2595.32C4750.41 2582.19 4723.89 2575.63 4693.82 2575.63C4663.2 2575.63 4635.86 2582.19 4612.35 2595.59C4588.83 2608.71 4570.52 2627.85 4557.39 2652.18C4544.27 2676.79 4537.98 2705.22 4537.98 2738.03C4537.98 2770.83 4544.55 2799.26 4558.21 2824.14C4571.61 2848.75 4590.2 2867.89 4613.71 2881.28C4637.22 2894.68 4664.02 2901.51 4694.09 2901.51C4731.82 2901.51 4763.26 2891.94 4788.41 2873.08C4813.83 2853.94 4830.51 2829.34 4838.98 2798.99H4782.67C4776.38 2816.76 4765.99 2830.7 4750.68 2841.37C4735.37 2852.03 4716.51 2857.22 4694.09 2857.22C4666.48 2857.22 4642.97 2848.47 4623.56 2830.98C4604.14 2813.48 4593.48 2789.42 4591.57 2758.26H4843.63C4844.73 2747.05 4845.27 2736.66 4845.27 2726.54C4845.27 2697.84 4838.99 2671.86 4826.68 2649.17C4814.11 2626.21 4796.34 2608.44 4773.37 2595.32ZM4592.11 2715.61C4594.85 2685.81 4605.51 2662.3 4624.1 2645.35C4642.69 2628.4 4665.38 2619.92 4691.63 2619.92C4709.95 2619.92 4726.9 2623.75 4741.93 2631.13C4756.97 2638.51 4769 2649.45 4778.02 2663.94C4786.77 2678.43 4791.14 2695.65 4791.14 2715.33H4592.11V2715.61Z" fill="black"/>
<path d="M5161.86 2637.42C5150.65 2619.1 5134.52 2604.06 5113.47 2592.85C5092.42 2581.64 5069.45 2575.9 5044.85 2575.9C5016.42 2575.9 4990.99 2582.74 4968.03 2596.13C4945.06 2609.53 4927.29 2628.39 4914.17 2652.73C4901.05 2677.06 4894.48 2705.49 4894.48 2737.48C4894.48 2769.46 4901.05 2797.62 4914.17 2822.77C4927.29 2847.93 4945.06 2867.06 4968.03 2881.01C4990.72 2894.95 5016.14 2901.78 5044.3 2901.78C5071.64 2901.78 5095.43 2895.77 5115.66 2883.74C5135.89 2871.71 5151.2 2856.13 5161.59 2837.54V2896.86H5214.62V2470.92H5161.59V2637.42H5161.86ZM5147.64 2800.36C5138.07 2818.13 5125.23 2831.8 5108.82 2841.09C5092.42 2850.39 5074.65 2855.31 5054.96 2855.31C5035.28 2855.31 5017.51 2850.66 5001.38 2841.09C4985.25 2831.8 4972.4 2818.13 4962.83 2800.36C4953.26 2782.58 4948.34 2761.53 4948.34 2737.48C4948.34 2713.69 4953.26 2692.91 4962.83 2675.42C4972.4 2657.92 4985.25 2644.25 5001.38 2635.23C5017.51 2625.93 5035.28 2621.29 5054.96 2621.29C5074.65 2621.29 5092.42 2625.93 5108.82 2635.5C5125.23 2644.8 5138.07 2658.47 5147.64 2675.96C5157.21 2693.73 5162.13 2714.24 5162.13 2738.02C5161.86 2761.81 5157.21 2782.58 5147.64 2800.36Z" fill="black"/>
<path d="M5355.96 2580.82H5303.47V2896.04H5355.96V2580.82Z" fill="black"/>
<path d="M5579.05 2620.19C5602.02 2620.19 5621.43 2625.66 5637.01 2636.87C5652.59 2648.08 5662.98 2663.11 5668.45 2682.25H5724.77C5716.84 2648.9 5700.16 2622.93 5675.01 2604.06C5649.86 2585.2 5617.87 2575.9 5579.05 2575.9C5548.98 2575.9 5522.46 2582.74 5499.22 2596.13C5475.98 2609.53 5457.94 2628.39 5444.82 2652.72C5431.69 2677.06 5425.41 2705.49 5425.41 2738.3C5425.41 2771.38 5431.97 2800.08 5444.82 2824.69C5457.94 2849.29 5475.98 2868.15 5499.22 2881.55C5522.46 2894.95 5548.98 2901.78 5579.05 2901.78C5617.05 2901.78 5648.76 2892.21 5673.92 2872.8C5699.34 2853.39 5716.02 2827.69 5724.49 2795.43H5668.18C5662.43 2815.39 5651.77 2830.7 5636.46 2841.36C5621.15 2852.02 5602.02 2857.49 5579.05 2857.49C5548.98 2857.49 5524.92 2847.1 5506.6 2826.33C5488.29 2805.55 5478.99 2776.3 5478.99 2738.3C5478.99 2700.57 5488.29 2671.59 5506.6 2651.08C5524.92 2630.31 5549.25 2620.19 5579.05 2620.19Z" fill="black"/>
<path d="M6041.9 2638.51C6032.06 2620.46 6016.75 2605.43 5996.51 2593.67C5976.28 2581.92 5952.23 2575.9 5924.61 2575.9C5896.73 2575.9 5871.3 2582.74 5848.34 2596.13C5825.65 2609.53 5807.6 2628.39 5794.48 2652.72C5781.36 2677.06 5774.8 2705.49 5774.8 2737.48C5774.8 2769.46 5781.36 2797.62 5794.48 2822.77C5807.6 2847.92 5825.37 2867.06 5848.06 2881C5870.76 2894.95 5895.91 2901.78 5924.07 2901.78C5951.41 2901.78 5975.19 2895.77 5995.69 2883.74C6016.2 2871.71 6031.78 2856.4 6041.9 2838.08V2896.86H6094.94V2581.64H6041.9V2638.51ZM6027.41 2800.35C6017.84 2818.12 6004.72 2831.79 5988.59 2841.09C5972.18 2850.39 5954.41 2855.31 5934.73 2855.31C5915.32 2855.31 5897.28 2850.66 5881.15 2841.09C5865.02 2831.79 5852.17 2818.12 5842.6 2800.35C5833.03 2782.58 5828.11 2761.53 5828.11 2737.48C5828.11 2713.69 5833.03 2692.91 5842.6 2675.42C5852.17 2657.65 5865.02 2644.25 5881.15 2635.23C5897.28 2625.93 5915.05 2621.28 5934.73 2621.28C5954.41 2621.28 5972.18 2625.93 5988.59 2635.5C6004.99 2644.8 6017.84 2658.47 6027.41 2675.96C6036.98 2693.73 6041.9 2714.24 6041.9 2738.02C6041.9 2761.81 6036.98 2782.58 6027.41 2800.35Z" fill="black"/>
<path d="M6235.72 2470.38H6183.23V2896.31H6235.72V2470.38Z" fill="black"/>
<path d="M6583.75 2555.67C6605.9 2542.55 6631.05 2535.99 6659.21 2535.99C6688.46 2535.99 6713.34 2542.55 6734.39 2555.67C6755.44 2568.79 6771.3 2587.39 6782.5 2611.44H6845.11C6830.07 2572.62 6806.29 2542.82 6773.76 2521.77C6741.22 2500.72 6702.95 2490.06 6659.21 2490.06C6622.03 2490.06 6588.13 2498.81 6557.51 2516.58C6526.89 2534.35 6502.83 2558.68 6485.33 2589.85C6467.56 2621.01 6458.81 2656.28 6458.81 2695.37C6458.81 2734.47 6467.56 2769.74 6485.33 2800.63C6502.83 2831.79 6527.16 2855.85 6557.51 2873.35C6587.85 2890.85 6621.75 2899.59 6659.21 2899.59C6702.95 2899.59 6741.22 2889.21 6773.76 2868.16C6806.29 2847.1 6830.07 2817.58 6845.11 2779.3H6782.5C6771.3 2803.36 6755.44 2821.95 6734.39 2834.8C6713.61 2847.65 6688.46 2854.21 6659.21 2854.21C6631.32 2854.21 6606.17 2847.65 6583.75 2834.53C6561.61 2821.41 6544.11 2803.09 6531.26 2779.03C6518.69 2754.97 6512.12 2727.09 6512.12 2695.37C6512.12 2663.11 6518.41 2634.95 6531.26 2611.17C6544.11 2587.38 6561.61 2568.52 6583.75 2555.67Z" fill="black"/>
<path d="M7143.93 2595.59C7119.59 2582.47 7092.8 2575.63 7062.73 2575.63C7032.93 2575.63 7005.87 2582.19 6981.53 2595.59C6957.2 2608.71 6938.34 2627.85 6924.39 2652.46C6910.45 2677.33 6903.34 2705.77 6903.34 2738.03C6903.34 2770.56 6910.18 2799.26 6923.85 2824.14C6937.52 2848.75 6956.38 2867.89 6980.17 2881.28C7003.95 2894.68 7030.74 2901.51 7060.54 2901.51C7090.62 2901.51 7117.68 2894.68 7142.29 2881.28C7166.89 2867.89 7186.3 2848.75 7200.79 2824.14C7215.28 2799.26 7222.39 2770.83 7222.39 2738.03C7222.39 2705.49 7215.28 2676.79 7201.34 2652.18C7187.12 2627.85 7167.98 2608.71 7143.93 2595.59ZM7153.22 2802.55C7143.11 2820.32 7129.71 2833.44 7113.31 2842.19C7096.9 2850.94 7079.13 2855.31 7060.27 2855.31C7041.4 2855.31 7024.18 2850.93 7008.6 2842.46C6992.74 2833.71 6980.17 2820.59 6970.87 2803.09C6961.58 2785.32 6956.65 2763.72 6956.65 2738.03C6956.65 2712.6 6961.58 2691.28 6971.14 2673.51C6980.71 2655.74 6993.56 2642.61 7009.42 2634.14C7025.28 2625.39 7042.77 2621.29 7062.18 2621.29C7081.05 2621.29 7098.54 2625.66 7114.67 2634.14C7130.8 2642.89 7143.93 2656.01 7153.77 2673.51C7163.61 2691.28 7168.8 2712.6 7168.8 2738.03C7168.53 2763.45 7163.34 2784.77 7153.22 2802.55Z" fill="black"/>
<path d="M7343.5 2470.38H7291.01V2896.31H7343.5V2470.38Z" fill="black"/>
<path d="M7485.12 2470.38H7432.62V2896.31H7485.12V2470.38Z" fill="black"/>
<path d="M7789.94 2595.32C7766.98 2582.19 7740.46 2575.63 7710.39 2575.63C7679.77 2575.63 7652.7 2582.19 7628.92 2595.59C7605.41 2608.71 7587.09 2627.85 7573.97 2652.18C7560.84 2676.79 7554.55 2705.22 7554.55 2738.03C7554.55 2770.83 7561.12 2799.26 7574.79 2824.14C7588.18 2848.75 7606.77 2867.89 7630.28 2881.28C7653.79 2894.68 7680.59 2901.51 7710.66 2901.51C7748.39 2901.51 7779.83 2891.94 7804.98 2873.08C7830.4 2853.94 7847.08 2829.34 7855.56 2798.99H7799.24C7793.22 2816.76 7782.56 2830.7 7767.25 2841.37C7751.94 2852.03 7733.08 2857.22 7710.66 2857.22C7683.05 2857.22 7659.54 2848.47 7640.13 2830.98C7620.71 2813.48 7610.05 2789.42 7608.14 2758.26H7860.2C7861.3 2747.05 7861.84 2736.66 7861.84 2726.54C7861.84 2697.84 7855.56 2671.86 7843.25 2649.17C7830.68 2626.21 7813.18 2608.44 7789.94 2595.32ZM7608.69 2715.61C7611.42 2685.81 7622.08 2662.3 7640.67 2645.35C7659.26 2628.4 7681.68 2619.92 7708.2 2619.92C7726.52 2619.92 7743.47 2623.75 7758.5 2631.13C7773.54 2638.51 7785.57 2649.45 7794.59 2663.94C7803.34 2678.43 7807.71 2695.65 7807.71 2715.33H7608.69V2715.61Z" fill="black"/>
<path d="M8178.43 2638.51C8168.59 2620.46 8153.28 2605.43 8132.77 2593.67C8112.27 2581.92 8088.48 2575.9 8061.15 2575.9C8033.26 2575.9 8007.83 2582.74 7984.87 2596.13C7962.18 2609.53 7944.13 2628.39 7931.01 2652.72C7917.89 2677.06 7911.33 2705.49 7911.33 2737.48C7911.33 2769.46 7917.89 2797.62 7931.01 2822.77C7944.13 2847.92 7961.91 2867.06 7984.87 2881C8007.56 2894.95 8033.26 2901.78 8061.15 2901.78C8088.48 2901.78 8112.27 2895.77 8132.5 2883.46C8152.73 2871.16 8168.31 2855.85 8178.43 2837.54V2903.7C8178.43 2936.23 8169.41 2961.65 8151.09 2979.7C8132.77 2997.74 8109.26 3006.76 8080.56 3006.76C8055.13 3006.76 8033.53 3001.02 8015.49 2989.27C7997.45 2977.51 7985.69 2962.2 7979.95 2943.06H7928.28C7933.2 2976.69 7949.6 3003.48 7977.21 3023.17C8004.83 3042.85 8039.27 3052.42 8080.83 3052.42C8111.18 3052.42 8137.69 3046.13 8160.39 3033.28C8183.35 3020.71 8200.85 3003.21 8213.15 2980.52C8225.45 2958.1 8231.47 2932.4 8231.47 2903.7V2581.37H8178.43V2638.51ZM8164.21 2800.35C8154.64 2818.12 8141.52 2831.79 8125.39 2841.09C8108.99 2850.39 8091.22 2855.31 8071.53 2855.31C8052.12 2855.31 8034.08 2850.66 8017.95 2841.09C8001.82 2831.79 7988.97 2818.12 7979.4 2800.35C7969.83 2782.58 7964.91 2761.53 7964.91 2737.48C7964.91 2713.69 7969.83 2692.91 7979.4 2675.42C7988.97 2657.65 8001.82 2644.25 8017.95 2635.23C8034.08 2625.93 8051.85 2621.28 8071.53 2621.28C8091.22 2621.28 8108.99 2625.93 8125.39 2635.5C8141.8 2644.8 8154.64 2658.47 8164.21 2675.96C8173.78 2693.73 8178.7 2714.24 8178.7 2738.02C8178.43 2761.81 8173.78 2782.58 8164.21 2800.35Z" fill="black"/>
<path d="M8535.75 2595.32C8512.78 2582.19 8486.26 2575.63 8456.19 2575.63C8425.57 2575.63 8398.23 2582.19 8374.72 2595.59C8351.21 2608.71 8332.89 2627.85 8319.77 2652.18C8306.65 2676.79 8300.36 2705.22 8300.36 2738.03C8300.36 2770.83 8306.92 2799.26 8320.59 2824.14C8333.99 2848.75 8352.58 2867.89 8376.09 2881.28C8399.6 2894.68 8426.39 2901.51 8456.46 2901.51C8494.19 2901.51 8525.63 2891.94 8550.78 2873.08C8576.21 2853.94 8592.89 2829.34 8601.36 2798.99H8545.04C8538.75 2816.76 8528.37 2830.7 8513.06 2841.37C8497.75 2852.03 8478.88 2857.22 8456.46 2857.22C8428.85 2857.22 8405.34 2848.47 8385.93 2830.98C8366.52 2813.48 8355.86 2789.42 8353.94 2758.26H8606.01C8607.1 2747.05 8607.65 2736.66 8607.65 2726.54C8607.65 2697.84 8601.36 2671.86 8589.06 2649.17C8576.48 2626.21 8558.98 2608.44 8535.75 2595.32ZM8354.49 2715.61C8357.22 2685.81 8367.89 2662.3 8386.48 2645.35C8405.07 2628.4 8427.76 2619.92 8454 2619.92C8472.32 2619.92 8489.27 2623.75 8504.31 2631.13C8519.34 2638.51 8531.37 2649.45 8540.39 2663.94C8549.14 2678.43 8553.52 2695.65 8553.52 2715.33H8354.49V2715.61Z" fill="black"/>
<path d="M8882.95 2495.25H8830.46V2896.31H8882.95V2495.25Z" fill="black"/>
<path d="M9125.72 2575.08C9104.13 2575.08 9084.44 2579.46 9066.67 2588.2C9048.9 2596.95 9034.68 2609.53 9024.29 2625.66V2580.82H8971.8V2896.04H9024.29V2721.62C9024.29 2688.54 9032.5 2663.39 9048.9 2646.16C9065.3 2628.94 9087.18 2620.19 9114.79 2620.19C9142.13 2620.19 9163.45 2628.67 9179.31 2645.34C9195.16 2662.02 9202.82 2686.08 9202.82 2717.52V2895.77H9254.76V2709.86C9254.76 2666.12 9242.73 2632.77 9219.22 2609.53C9195.16 2586.84 9164 2575.08 9125.72 2575.08Z" fill="black"/>
<path d="M9514.75 2737.2C9500.54 2731.19 9482.22 2725.18 9459.53 2719.16C9441.49 2714.24 9427.54 2709.59 9417.16 2705.49C9407.04 2701.39 9398.56 2696.2 9391.73 2689.36C9384.9 2682.8 9381.61 2674.05 9381.61 2663.66C9381.61 2650.54 9387.08 2640.15 9398.29 2631.95C9409.5 2624.02 9424.26 2619.92 9443.13 2619.92C9463.36 2619.92 9479.76 2624.84 9491.79 2634.96C9503.82 2645.07 9510.38 2658.2 9511.75 2674.6H9563.97C9562.33 2643.98 9550.84 2619.65 9529.52 2602.15C9507.92 2584.38 9479.76 2575.63 9445.04 2575.63C9422.35 2575.63 9402.12 2579.46 9384.62 2587.39C9367.13 2595.32 9353.46 2605.98 9343.89 2619.37C9334.32 2632.77 9329.4 2647.53 9329.4 2663.66C9329.4 2683.89 9334.59 2700.3 9345.25 2712.87C9355.92 2725.45 9368.49 2734.74 9383.25 2741.03C9398.02 2747.32 9417.15 2753.61 9440.39 2759.62C9466.09 2766.18 9484.96 2772.75 9497.26 2779.58C9509.56 2786.42 9515.57 2796.53 9515.57 2810.47C9515.57 2823.87 9509.83 2835.08 9498.35 2843.83C9486.87 2852.58 9471.01 2856.95 9451.06 2856.95C9429.46 2856.95 9412.23 2852.03 9398.84 2841.91C9385.72 2832.07 9378.33 2819.22 9376.69 2803.37H9322.56C9323.66 2822.5 9329.94 2839.45 9340.88 2854.22C9351.82 2868.98 9367.13 2880.46 9386.26 2888.66C9405.4 2896.86 9427 2900.97 9451.33 2900.97C9474.02 2900.97 9493.98 2897.14 9511.47 2889.21C9528.97 2881.28 9542.37 2870.62 9551.94 2856.68C9561.5 2843.01 9566.43 2827.42 9566.43 2810.2C9566.15 2791.06 9560.68 2775.48 9550.57 2763.45C9541 2751.97 9528.97 2743.22 9514.75 2737.2Z" fill="black"/>
<path d="M9693.28 2580.82H9640.79V2896.04H9693.28V2580.82Z" fill="black"/>
<path d="M10029.8 2637.42C10018.6 2619.1 10002.5 2604.06 9981.43 2592.85C9960.38 2581.64 9937.41 2575.9 9912.81 2575.9C9884.38 2575.9 9858.95 2582.74 9835.99 2596.13C9813.02 2609.53 9795.25 2628.39 9782.13 2652.73C9769.01 2677.06 9762.45 2705.49 9762.45 2737.48C9762.45 2769.46 9769.01 2797.62 9782.13 2822.77C9795.25 2847.65 9813.02 2867.06 9835.99 2881.01C9858.95 2894.95 9884.38 2901.78 9912.26 2901.78C9939.6 2901.78 9963.39 2895.77 9983.62 2883.74C10003.8 2871.71 10019.2 2856.13 10029.5 2837.54V2896.86H10082.6V2470.92H10029.5V2637.42H10029.8ZM10015.3 2800.36C10005.8 2818.13 9992.64 2831.8 9976.51 2841.09C9960.11 2850.39 9942.34 2855.31 9922.65 2855.31C9902.97 2855.31 9885.2 2850.66 9869.07 2841.09C9852.94 2831.8 9840.09 2818.13 9830.52 2800.36C9820.95 2782.58 9816.03 2761.53 9816.03 2737.48C9816.03 2713.69 9820.95 2692.91 9830.52 2675.42C9840.09 2657.65 9852.94 2644.25 9869.07 2635.23C9885.2 2625.93 9902.97 2621.29 9922.65 2621.29C9942.34 2621.29 9960.11 2625.93 9976.51 2635.5C9992.91 2644.8 10005.8 2658.47 10015.3 2675.96C10024.9 2693.73 10029.8 2714.24 10029.8 2738.02C10029.8 2761.81 10024.9 2782.58 10015.3 2800.36Z" fill="black"/>
<path d="M10387.1 2595.32C10364.2 2582.19 10337.7 2575.63 10307.6 2575.63C10277 2575.63 10249.6 2582.19 10226.1 2595.59C10202.6 2608.71 10184.3 2627.85 10171.2 2652.18C10158 2676.79 10151.5 2705.22 10151.5 2738.03C10151.5 2770.83 10158 2799.26 10171.7 2824.14C10185.1 2848.75 10203.7 2867.89 10227.2 2881.28C10250.7 2894.68 10277.5 2901.51 10307.6 2901.51C10345.3 2901.51 10376.7 2891.94 10401.9 2873.08C10427.3 2853.94 10444 2829.34 10452.5 2798.99H10396.2C10389.9 2816.76 10379.5 2830.7 10364.2 2841.37C10349.1 2852.03 10330 2857.22 10307.6 2857.22C10280 2857.22 10256.5 2848.47 10237 2830.98C10217.6 2813.48 10207 2789.42 10205.1 2758.26H10457.1C10458.2 2747.05 10458.8 2736.66 10458.8 2726.54C10458.8 2697.84 10452.5 2671.86 10440.2 2649.17C10427.9 2626.21 10410.1 2608.44 10387.1 2595.32ZM10205.9 2715.61C10208.6 2685.81 10219.3 2662.3 10237.9 2645.35C10256.5 2628.4 10279.1 2619.92 10305.4 2619.92C10323.7 2619.92 10340.7 2623.75 10355.7 2631.13C10370.7 2638.51 10382.8 2649.45 10391.8 2663.94C10400.5 2678.43 10404.9 2695.65 10404.9 2715.33H10205.9V2715.61Z" fill="black"/>
<path d="M10978.8 2846.29L10902.2 2580.82H10848.6L10770.4 2845.74L10698 2580.82H10644.4L10743.4 2896.32H10797.5L10873.5 2645.89L10949.5 2896.32H11003.4L11101.8 2580.82H11050.1L10978.8 2846.29Z" fill="black"/>
<path d="M11401.1 2638.51C11391.3 2620.46 11376 2605.43 11355.8 2593.67C11335.5 2581.92 11311.5 2575.9 11283.9 2575.9C11256 2575.9 11230.5 2582.74 11207.6 2596.13C11184.6 2609.53 11166.8 2628.39 11153.7 2652.72C11140.6 2677.06 11134 2705.49 11134 2737.48C11134 2769.46 11140.6 2797.62 11153.7 2822.77C11166.8 2847.92 11184.6 2867.06 11207.3 2881C11230 2894.95 11255.1 2901.78 11283.3 2901.78C11310.6 2901.78 11334.4 2895.77 11354.9 2883.74C11375.4 2871.71 11391 2856.4 11401.1 2838.08V2896.86H11454.2V2581.64H11401.1V2638.51ZM11386.7 2800.35C11377.1 2818.12 11364 2831.79 11347.8 2841.09C11331.4 2850.39 11313.7 2855.31 11294 2855.31C11274.6 2855.31 11256.5 2850.66 11240.4 2841.09C11224.3 2831.79 11211.4 2818.12 11201.8 2800.35C11192.3 2782.58 11187.3 2761.53 11187.3 2737.48C11187.3 2713.69 11192 2692.91 11201.8 2675.42C11211.7 2657.92 11224.3 2644.25 11240.4 2635.23C11256.5 2625.93 11274.3 2621.28 11294 2621.28C11313.7 2621.28 11331.4 2625.93 11347.8 2635.5C11364.2 2644.8 11377.1 2658.47 11386.7 2675.96C11396.2 2693.73 11401.1 2714.24 11401.1 2738.02C11401.1 2761.81 11396.2 2782.58 11386.7 2800.35Z" fill="black"/>
<path d="M11662.5 2836.44L11563.3 2580.82H11505.3L11632.4 2892.76L11570.4 3044.77H11624.5L11814.2 2580.82H11760.1L11662.5 2836.44Z" fill="black"/>
<path d="M4163.17 2225.42C4197.62 2225.42 4232.61 2220.23 4268.42 2209.84V1602.64H4544C4730.72 1602.64 4878.9 1556.44 4988.8 1463.76C5098.71 1371.08 5153.38 1242.04 5153.38 1076.09C5153.38 923.816 5103.08 805.166 5002.2 719.868C4901.32 634.844 4755.33 592.195 4564.23 592.195H4060.1V1417.01V1604.28V2209.84C4091.54 2220.23 4125.99 2225.42 4163.17 2225.42ZM4268.7 784.661H4564.5C4813.84 784.661 4938.5 883.901 4938.5 1082.66C4938.5 1191.74 4903.51 1273.75 4833.25 1329.25C4762.98 1384.48 4659.92 1412.09 4524.04 1412.09H4268.7V784.661Z" fill="#62BA46"/>
<path d="M12464.1 1845.14C12373.3 1836.11 12282.5 1827.37 12191.5 1818.62C12180.3 1817.52 12167.7 1813.97 12160.1 1825.45C12152.1 1837.48 12160.1 1847.87 12166.1 1858.26C12180.8 1882.86 12195.9 1907.47 12211.2 1932.89C12208.2 1934.81 12206.3 1935.9 12204.6 1936.99C12154.9 1966.79 12105.4 1996.59 12055.9 2026.94C12055.4 2027.21 12055.1 2027.49 12054.8 2027.76C12048 2031.31 12041.1 2034.87 12034.3 2037.33C12014.9 2044.71 11996.8 2048.54 11980.4 2048.54C11922.2 2048.54 11880.7 2026.67 11856.1 1982.38C11831.4 1938.36 11819.1 1876.85 11819.1 1797.57V1141.16C11787.7 1130.77 11754.1 1125.58 11718.3 1125.58C11698.9 1125.58 11680.3 1126.94 11662.2 1129.95C11644.4 1132.96 11628.6 1136.51 11615.2 1141.16V1233.02C11580.7 1198.57 11538.1 1171.51 11487.5 1151.28C11436.7 1131.04 11385.3 1120.93 11333.1 1120.93C11234.4 1120.93 11146.6 1146.35 11069.8 1197.2C10992.7 1248.05 10932 1317.5 10887.2 1405.53C10842.3 1493.56 10819.9 1594.44 10819.9 1707.89C10819.9 1728.95 10820.7 1749.72 10822.1 1770.5C10789.3 1855.53 10748.6 1923.33 10699.9 1973.36C10651.2 2023.39 10601.7 2048.26 10550.9 2048.26C10550.3 2048.26 10550.1 2048.26 10549.8 2048.26C10549.5 2048.26 10549.3 2048.26 10549 2048.26C10498.1 2048.26 10462 2028.85 10440.2 1990.03C10418.6 1951.21 10407.6 1888.33 10407.6 1801.67V1608.93C10407.6 1476.06 10374.3 1369.99 10307.9 1290.7C10241.4 1211.42 10152 1172.05 10040.2 1172.05C10023.8 1172.05 10007.9 1172.87 9993.18 1174.24C10057.4 1054.77 10108.8 930.104 10147.6 799.971C10186.5 670.111 10205.9 552.007 10205.9 445.932C10205.9 314.432 10175 207.536 10112.9 125.52C10050.9 43.5031 9964.75 1.67473 9854.3 0.034399C9733.19 -1.33255 9641.06 38.0356 9577.63 118.959C9514.2 199.608 9482.49 314.705 9482.49 463.975V1662.79C9407.85 1801.67 9340.33 1900.63 9279.64 1959.69C9219.49 2018.19 9156.88 2047.72 9091.82 2047.99C9044.52 2047.72 9009.8 2029.95 8988.48 1994.41C8966.88 1958.59 8955.94 1899.54 8955.94 1817.52V327.555C8923.14 317.166 8889.51 311.971 8855.06 311.971C8814.6 311.971 8780.43 317.166 8751.99 327.555V1232.74C8717.55 1198.3 8674.9 1171.23 8624.32 1151C8573.75 1130.77 8522.07 1120.66 8469.86 1120.66C8371.44 1120.66 8283.41 1146.08 8206.58 1196.93C8129.76 1247.78 8068.8 1317.22 8023.96 1405.25C7979.12 1493.28 7956.71 1594.17 7956.71 1707.62C7956.71 1728.67 7957.53 1749.45 7958.89 1770.23C7926.09 1855.25 7885.35 1923.05 7836.69 1973.08C7788.3 2023.11 7738.54 2047.99 7687.69 2047.99C7629.46 2047.99 7587.91 2026.12 7563.3 1981.83C7538.7 1937.82 7526.39 1876.3 7526.39 1797.02V1140.61C7494.95 1130.22 7461.33 1125.03 7425.51 1125.03C7406.1 1125.03 7387.51 1126.4 7369.47 1129.4C7351.42 1132.41 7335.84 1135.97 7322.44 1140.61V1232.47C7288 1198.03 7245.35 1170.96 7194.77 1150.73C7144.19 1130.5 7092.52 1120.38 7040.31 1120.38C6941.61 1120.38 6853.86 1145.81 6777.03 1196.66C6700.21 1247.51 6639.25 1316.95 6594.41 1404.98C6549.57 1493.01 6527.16 1593.89 6527.16 1707.35C6527.16 1728.4 6527.98 1749.18 6529.34 1769.95C6496.54 1854.98 6455.8 1922.78 6407.41 1972.81C6358.75 2022.84 6309.27 2047.72 6258.41 2047.72C6210.57 2047.72 6175.85 2029.67 6154.25 1993.86C6132.66 1958.05 6121.72 1898.99 6121.72 1816.98V1140.34C6090.28 1129.95 6056.65 1124.76 6020.84 1124.76C6001.43 1124.76 5982.84 1126.12 5964.8 1129.13C5946.75 1132.14 5931.17 1135.69 5917.77 1140.34V1232.2C5883.33 1197.75 5840.68 1170.69 5790.1 1150.46C5739.52 1130.22 5687.85 1120.11 5635.64 1120.11C5536.94 1120.11 5449.18 1145.53 5372.36 1196.38C5295.54 1247.23 5234.57 1316.68 5189.74 1404.71C5144.9 1492.74 5122.48 1593.62 5122.48 1707.07C5122.48 1811.78 5142.17 1904.19 5181.81 1984.84C5221.45 2065.49 5276.68 2128.09 5347.76 2172.93C5418.56 2217.77 5501.13 2240.18 5595.45 2240.18C5670.08 2240.18 5738.16 2224.87 5799.39 2194.25C5860.63 2163.63 5912.85 2120.71 5956.32 2065.49C6005.53 2181.95 6101.22 2240.18 6243.11 2240.18C6394.02 2240.18 6515.67 2168.56 6608.35 2025.03C6650.18 2092.28 6704.31 2144.77 6770.75 2183.04C6837.18 2221.05 6913.73 2240.18 7000.39 2240.18C7079.67 2240.18 7151.58 2222.69 7216.64 2187.42C7281.71 2152.43 7335.84 2104.04 7379.04 2042.8C7428.25 2174.3 7526.12 2239.91 7672.66 2239.91C7823.57 2239.91 7945.22 2168.28 8037.9 2024.75C8079.73 2092.01 8133.86 2144.5 8200.3 2182.77C8266.73 2220.77 8343.28 2239.91 8429.94 2239.91C8504.58 2239.91 8572.65 2224.6 8633.89 2193.98C8695.13 2163.36 8747.35 2120.44 8790.82 2065.21C8840.03 2181.68 8935.71 2239.91 9077.6 2239.91C9159.62 2239.91 9232.61 2223.78 9296.04 2191.79C9359.46 2159.81 9421.8 2104.04 9483.04 2024.75V2208.47C9518.85 2218.86 9553.84 2224.05 9588.29 2224.05C9604.69 2224.05 9621.92 2222.69 9639.69 2219.68C9657.73 2216.67 9674.14 2213.12 9688.9 2208.47V1820.8C9690.27 1731.13 9705.3 1652.12 9733.73 1583.23C9762.17 1514.61 9800.17 1460.48 9848.01 1420.84C9895.85 1381.2 9949.71 1361.51 10009.3 1361.51C10070.5 1361.51 10117.8 1382.84 10151.5 1425.48C10185.1 1468.13 10201.8 1527.46 10201.8 1603.73V1841.31C10201.8 1968.43 10230.5 2066.58 10288.2 2136.02C10345.6 2205.46 10428.1 2240.18 10535.6 2240.18C10535.6 2240.18 10535.6 2240.18 10535.9 2240.18C10686.5 2240.18 10808.2 2168.28 10900.8 2025.03C10942.7 2092.28 10996.8 2144.77 11063.2 2183.04C11129.7 2221.05 11206.2 2240.18 11292.9 2240.18C11372.2 2240.18 11444.1 2222.69 11509.1 2187.42C11574.2 2152.43 11628.3 2104.04 11671.5 2042.8C11720.7 2174.3 11818.6 2239.91 11965.1 2239.91H11967.3C12010.5 2239.91 12051 2231.71 12088.4 2215.3C12108.7 2206.28 12127 2195.62 12143.4 2183.59C12146.1 2182.5 12148.6 2181.95 12151.3 2180.58C12202.4 2149.96 12253.3 2119.07 12305.8 2087.36C12308 2091.19 12310.4 2095.01 12312.9 2099.11C12327.1 2122.63 12341 2146.68 12356.1 2169.92C12367.6 2187.97 12383.4 2186.6 12393.3 2167.46C12394.4 2165.55 12394.9 2163.36 12395.7 2161.45C12430.7 2075.33 12466 1989.21 12500.7 1903.09C12514.4 1870.01 12501 1848.69 12464.1 1845.14ZM5917.77 1698.87C5917.77 1803.58 5889.07 1887.78 5831.38 1952.03C5773.97 2016.28 5697.97 2048.26 5603.92 2048.26C5518.9 2048.26 5451.92 2018.19 5403.53 1957.5C5354.86 1897.08 5330.53 1813.7 5330.53 1707.62C5330.53 1631.35 5344.75 1563.82 5373.18 1504.77C5401.61 1445.72 5440.44 1399.24 5489.65 1364.79C5538.86 1330.35 5595.72 1313.39 5659.97 1313.39C5709.18 1313.39 5757.02 1325.7 5803.5 1350.3C5849.7 1374.91 5887.97 1407.44 5917.77 1447.9V1698.87ZM7322.44 1698.87C7322.44 1803.58 7293.74 1887.78 7236.33 1952.03C7178.64 2016.28 7102.91 2048.26 7008.87 2048.26C6923.84 2048.26 6856.86 2018.19 6808.47 1957.5C6759.81 1897.08 6735.48 1813.7 6735.48 1707.62C6735.48 1631.35 6749.69 1563.82 6778.13 1504.77C6806.56 1445.72 6845.38 1399.24 6894.59 1364.79C6943.8 1330.35 7000.67 1313.39 7064.91 1313.39C7114.12 1313.39 7161.97 1325.7 7208.44 1350.3C7254.64 1374.91 7292.92 1407.44 7322.72 1447.9V1698.87H7322.44ZM8751.99 1698.87C8751.99 1803.58 8723.29 1887.78 8665.6 1952.03C8608.19 2016.28 8532.19 2048.26 8438.14 2048.26C8353.12 2048.26 8286.14 2018.19 8237.75 1957.5C8189.09 1897.08 8165.03 1813.7 8165.03 1707.62C8165.03 1631.35 8179.24 1563.82 8207.68 1504.77C8236.11 1445.72 8274.93 1399.24 8324.14 1364.79C8373.35 1330.35 8430.22 1313.39 8494.46 1313.39C8543.67 1313.39 8591.52 1325.7 8637.99 1350.3C8684.19 1374.91 8722.2 1407.44 8752.27 1447.9V1698.87H8751.99ZM9855.67 1015.67C9807 1120.11 9749.32 1224 9682.06 1327.06V462.335C9682.06 278.618 9736.47 186.759 9845.55 186.759C9897.77 186.759 9937.68 208.904 9965.29 252.919C9992.91 296.935 10006.8 360.908 10006.8 444.565C10006.8 525.215 9993.73 614.613 9967.75 712.213C9941.51 809.813 9904.06 910.966 9855.67 1015.67ZM11615.5 1698.87C11615.5 1803.58 11586.8 1887.78 11529.1 1952.03C11471.7 2016.28 11395.7 2048.26 11301.6 2048.26C11216.6 2048.26 11149.6 2018.19 11101 1957.5C11052.3 1896.81 11028.2 1813.7 11028.2 1707.62C11028.2 1631.35 11042.4 1563.82 11070.9 1504.77C11099.3 1445.72 11138.1 1399.24 11187.3 1364.79C11236.6 1330.35 11293.4 1313.39 11357.7 1313.39C11406.9 1313.39 11454.7 1325.7 11500.9 1350.3C11547.1 1374.91 11585.4 1407.44 11615.2 1447.9V1698.87H11615.5Z" fill="#62BA46"/>
<path opacity="0.5" d="M3827.44 1417.01C3777.41 1417.01 3727.38 1417.01 3677.62 1417.01V1604.28C3727.66 1604.28 3777.68 1604.28 3827.44 1604.28C3876.38 1604.28 3925.32 1604.28 3974.25 1604.28H4062.28V1417.01C3984.09 1417.01 3905.63 1417.01 3827.44 1417.01Z" fill="#62BA46"/>
<path d="M3623.77 1417.01C3590.69 1417.01 3557.06 1415.37 3524.53 1409.35C3452.08 1395.68 3409.71 1350.85 3397.68 1278.95C3393.85 1255.44 3392.48 1231.38 3391.94 1207.59C3390.57 1147.72 3392.21 1087.85 3389.48 1027.98C3385.37 941.312 3375.26 855.741 3333.43 777.005C3285.04 685.694 3182.52 637.85 3099.41 645.778C2976.11 657.807 2870.86 762.243 2850.08 885.541C2837.78 958.262 2838.32 1031.26 2838.32 1104.25C2838.6 1477.97 2838.32 1851.7 2838.32 2225.42H2838.6C2838.6 2240.73 2838.6 2256.04 2838.6 2271.35C2838.6 2298.69 2838.6 2326.3 2835.86 2353.64C2831.76 2394.92 2823.83 2435.38 2798.96 2469.56C2772.44 2506.46 2725.96 2512.48 2694.52 2479.95C2678.12 2463.27 2662.53 2441.12 2657.07 2418.43C2647.5 2379.06 2642.03 2337.51 2641.48 2296.77L2645.04 2225.42C2645.58 2140.94 2646.13 2056.47 2646.4 1971.71C2646.95 1878.76 2650.23 1785.26 2631.64 1693.13C2606.22 1566.01 2540.33 1472.78 2410.2 1436.69C2388.33 1430.68 2365.36 1426.58 2342.4 1423.57V1423.3C2325.99 1423.3 2309.59 1423.3 2293.19 1423.3C2108.37 1423.57 1976.05 1537.03 1947.35 1721.02C1941.06 1762.3 1940.24 1804.95 1939.15 1846.78C1937.51 1914.58 1939.42 1982.65 1936.41 2050.45C1935.05 2079.7 1928.48 2110.05 1918.1 2137.39C1905.79 2169.92 1879.55 2189.06 1842.09 2188.51C1804.37 2187.97 1777.57 2170.74 1761.44 2136.57C1742.58 2096.11 1743.13 2052.09 1739.3 2008.9C1737.39 1988.67 1738.48 1968.16 1738.48 1947.66C1738.21 1495.47 1738.21 1043.29 1737.93 590.828H1737.11C1736.84 517.833 1736.57 444.838 1736.57 371.569C1736.57 284.085 1716.34 201.521 1670.13 127.16C1630.76 64.0068 1571.71 25.4593 1497.62 16.4374C1346.99 -1.60625 1259.78 79.5904 1213.85 176.37C1177.49 252.919 1167.37 334.662 1176.67 418.866C1178.31 433.629 1178.85 448.665 1178.85 463.428C1178.85 505.804 1178.85 548.452 1178.85 590.828H1178.31C1178.31 777.279 1178.31 964.004 1178.03 1150.45C1178.03 1189.82 1175.85 1229.19 1171.74 1268.29C1161.9 1358.23 1120.07 1405.53 1030.68 1414.55C959.048 1421.93 886.053 1418.65 813.605 1419.2C802.396 1419.2 791.461 1419.2 780.252 1419.2C520.259 1419.47 259.993 1416.46 0 1415.92V1617.68C271.202 1617.4 542.403 1616.86 813.605 1616.58C879.492 1615.49 945.652 1613.85 1011.54 1611.11C1047.9 1609.75 1084.81 1603.46 1119.8 1593.89C1252.67 1556.98 1319.92 1461.57 1345.89 1331.98C1364.76 1237.94 1361.2 1142.53 1360.93 1047.66C1360.11 895.383 1359.29 743.105 1358.47 591.101H1355.19C1355.19 533.415 1355.46 475.731 1356.28 418.046C1356.83 377.584 1362.3 336.576 1372.14 297.481C1377.61 275.337 1393.46 253.192 1410.14 236.515C1442.13 204.529 1489.42 210.27 1516.49 246.904C1541.64 280.804 1549.84 320.993 1553.94 361.728C1556.68 388.793 1556.68 415.859 1556.68 443.198C1556.68 492.408 1556.68 541.618 1556.68 590.828C1556.68 1038.37 1556.68 1485.9 1556.68 1933.44C1556.68 2008.08 1556.13 2082.44 1568.71 2156.8C1590.03 2282.83 1697.47 2389.45 1823.23 2401.76C1907.98 2409.96 2012.69 2361.29 2062.17 2267.8C2104.82 2187.42 2115.21 2100.21 2119.31 2011.63C2122.04 1950.66 2120.4 1889.42 2121.77 1828.19C2122.32 1803.85 2123.68 1779.25 2127.51 1755.19C2139.81 1681.65 2183.01 1635.99 2257.1 1622.05C2284.71 1616.86 2313.42 1615.22 2341.58 1614.67V1615.22C2415.39 1629.16 2451.2 1674.27 2460.23 1755.19C2464.33 1793.47 2466.51 1832.29 2466.51 1870.56C2466.79 1954.22 2466.79 2037.87 2466.79 2121.53C2466.79 2164.45 2466.79 2207.38 2466.79 2250.03C2466.79 2265.06 2466.24 2280.1 2464.6 2295.13C2455.58 2380.16 2465.42 2462.45 2501.23 2539.82C2546.34 2637.42 2632.19 2719.43 2779.82 2701.12C2852.54 2692.09 2910.5 2653.27 2949.32 2589.57C2994.98 2514.66 3014.66 2431.28 3014.66 2342.7C3014.66 2303.34 3014.93 2263.97 3014.93 2224.87H3015.21C3015.21 2190.97 3015.21 2157.07 3015.21 2122.9C3015.21 2122.35 3015.21 2122.08 3015.21 2121.53C3015.21 1777.61 3015.48 1433.69 3015.48 1089.76C3015.48 1069.81 3014.39 1049.85 3016.3 1029.89C3020.13 987.788 3019.58 944.593 3037.9 904.951C3053.48 871.598 3079.73 854.648 3116.91 854.101C3153.54 853.555 3178.97 872.145 3191.27 904.131C3201.38 930.923 3207.95 960.449 3209.04 989.155C3212.05 1055.59 3210.13 1122.3 3211.77 1188.73C3212.87 1229.74 3213.41 1271.29 3219.7 1312.03C3247.59 1492.19 3377.17 1603.19 3558.16 1603.46C3596.7 1603.46 3634.98 1603.46 3673.53 1603.46V1416.19C3657.67 1417.01 3640.72 1417.01 3623.77 1417.01Z" fill="#62BA46"/>
</svg>
