<svg width="16" height="16" viewBox="0 0 16 16" fill="none" xmlns="http://www.w3.org/2000/svg">
<path d="M1.00741 1.00098L4.0473 4.04603L1.00273 1.00596C1.00272 1.00595 1.00271 1.00594 1.0027 1.00593C1.00207 1.00529 1.00171 1.00441 1.00171 1.00347C1.00171 1.00252 1.00209 1.00162 1.00273 1.00098C1.00337 1.00034 1.00421 1 1.00507 1C1.00592 1 1.00675 1.00033 1.00738 1.00095C1.00739 1.00096 1.0074 1.00097 1.00741 1.00098ZM11.953 4.04578L14.9926 1.00098C14.9926 1.00097 14.9926 1.00096 14.9926 1.00095C14.9933 1.00033 14.9941 1 14.9949 1C14.9958 1 14.9966 1.00034 14.9973 1.00098C14.9979 1.00162 14.9983 1.00252 14.9983 1.00347C14.9983 1.0044 14.9979 1.00527 14.9973 1.00591C14.9973 1.00593 14.9973 1.00595 14.9973 1.00596L11.953 4.04578ZM1.00217 14.9929L4.04686 11.9527L1.00685 14.9979L1.00509 14.9996L1.00023 14.9948L1.00217 14.9929ZM14.9932 14.9979L11.9534 11.953L14.9978 14.9929L14.9998 14.9948L14.9949 14.9997L14.9932 14.9979ZM15.0006 14.9948L15.0006 14.9948L15.9232 14.6105L15.0006 14.9948L15.0006 14.9948Z" stroke="black" stroke-opacity="0.6" stroke-width="2"/>
</svg>
