<svg width="9811" height="9811" viewBox="0 0 9811 9811" fill="none" xmlns="http://www.w3.org/2000/svg">
<g clip-path="url(#clip0_1503_14880)">
<path d="M9811 11.1055H0V9822.11H9811V11.1055Z" fill="#F9F5EB"/>
<g opacity="0.3">
<path d="M6821.31 6678.91H6820.9V6968.33H6917.37H6918.8V6678.91H6917.37H6821.31Z" fill="#D5D4D4"/>
<path d="M5590.78 4910V4852.29L5502.95 4853.58L5469.57 4904.89L5445.25 4891.4L5440.14 4883.29L5416.5 4733.54L5414.79 4733.81L5414.66 4733.06L5350.41 4742.53L5366.83 4849.7L5370.44 4852.49L5370.71 4854.2C5369.83 4857.2 5367.99 4863.05 5366.49 4867.07L5329.29 4928.26L5304.35 4913.88L5200.93 4853.99L5030.53 4754.93L4949.59 4706.42L4880.02 4665.4L4880.91 4663.84L4877.84 4662.2L4890.72 4640.54L4893.31 4633.18L4808.35 4584.8L4791.79 4611.78L4791.66 4611.72L4790.77 4613.15L4737.63 4582.83L4710.85 4627.05L4667.93 4698.92L4721.28 4729.31L4722.78 4731.36L4721.28 4734.15L4723.39 4735.31L4688.16 4795.67L4771.69 4842.89L4803.38 4788.59L4808.62 4780.96L4811.55 4782.66L4811.76 4782.39L4922.74 4846.5L5044.7 4919.33L5216.39 5019.76L5289.84 5061.18L5289.16 5062.27L5294.68 5065.54L5295.42 5064.32L5317.98 5076.99L5317.02 5078.49L5319.75 5079.44L5292.97 5126.18L5289.7 5125.09L5220.41 5068.06L5218.5 5215.36H5220.41V5216.32L5321.59 5217.55L5320.77 5228.79L5378.07 5229.4V5220L5376.77 5183.82L5408.32 5131.49L5410.7 5132.86L5380.66 5185.66L5381.95 5227.29L5525.57 5228.17L5586.69 5166.31L5585.94 4914.49H5535.05L5485.72 5001.16L5483.74 5000L5483.2 4998.77L5533 4910.27L5590.78 4910Z" fill="#D5D4D4"/>
<path d="M4736.06 4528.39L4785.8 4490.17L4806.37 4517.83L4884.93 4458.01L4865.71 4432.87L4866.53 4432.26L4865.78 4431.24L4867.76 4429.74L4867.01 4428.78L5047.97 4292.25L5284.79 4113.2L5337.12 4182.96L5335.69 4184.12L5409.48 4279.44H5457.37H5460.92V4299.06H5589.62V4170.36H5464.53C5466.03 4169.4 5467.39 4168.79 5467.39 4168.79H5577.97H5589.75L5590.03 4156.12L5589.62 4112.17L5491.92 4110.27L5428.48 4025.99L5478.08 3985.92L5460.23 3961.26L5469.3 3948.59L5431.96 3899.47L5428.35 3901.78L5409.34 3912.27L5382.02 3877.73L5369.35 3886.59L5337.87 3908.32L5307.75 3867.58L5307.21 3820.98C5308.23 3820.98 5309.19 3820.98 5310.28 3820.91C5308.84 3820.91 5307.89 3819.89 5307.14 3818.12V3817.5L5306.8 3783.37C5308.1 3765.93 5309.66 3747.87 5306.39 3742.22V3740.45L5304.08 3740.51C5304.01 3740.51 5303.87 3740.45 5303.8 3740.45C5280.71 3740.45 5222.32 3740.45 5199.22 3740.45L5199.15 3743.31H5198.33L5195.27 3819.96L5149.01 3820.77L5146.9 3909.89L5178.03 3945.73L5176.12 3947.7L5166.18 3954.99L5131.57 3983.61L5169.17 4030.76L4853.32 4271.53L4787.16 4323.45L4786.34 4322.43L4783.89 4324.27L4739.19 4265.74L4713.99 4284.55L4713.1 4283.39L4708.06 4287.27L4708.88 4288.29L4662.82 4322.7L4704.86 4377.68L4701.93 4379.86L4704.24 4382.93L4653.96 4422.11L4736.06 4528.39Z" fill="#D5D4D4"/>
<path d="M6601.38 4324L6551.37 4285.64L6551.57 4285.36L6546.53 4281.48L6546.33 4281.75L6526.77 4266.76L6481.33 4324.06L6478.67 4322.02L6353.72 4226.77L6097.54 4030.89L6133.24 3983.27C6133.24 3983.27 6132.83 3982.93 6132.15 3982.45L6132.56 3981.84L6090.25 3950.09C6089.36 3948.18 6088.82 3946.54 6088.82 3946.54L6116.75 3907.03V3820.84L6116.14 3820.77V3819.41H6095.7L6068.31 3817.57V3741.67L6022.53 3742.35H5959.16V3743.31H5956.98V3807.15L5956.58 3818.18H5956.98V3868.67L5925.3 3909.89L5883.2 3878.62L5883.13 3878.69L5881.22 3877.32L5869.84 3893.88L5854.04 3911.93L5837.21 3901.85L5833.39 3899.47L5794.83 3950.09L5806.07 3960.58L5785.63 3985.86L5838.03 4026.12L5770.3 4112.11L5672.6 4111.63L5671.85 4170.09L5797.56 4168.72L5837.41 4120.08L5873.32 4149.58L5875.43 4146.72L5903.23 4168.86L5911.88 4161.16L5933.41 4175.47L5982.19 4111.56L6130.79 4225.75L6395.69 4430.28L6396.23 4430.69L6377.36 4455.69L6456.87 4518.04L6476.76 4492.89H6476.83L6478.06 4491.33L6529.16 4526.89L6605.94 4424.9L6606.83 4425.58L6610.71 4420.47L6558.86 4381.16L6601.38 4324Z" fill="#D5D4D4"/>
<path d="M2693.6 4780.55V5101.58V5107.99H3247.65V4780.55H3241.25H2693.6Z" fill="#D5D4D4"/>
<path d="M5583.48 6703.57H5384.67V6796.5H5583.48V6703.57Z" fill="#D5D4D4"/>
<path d="M3836.78 2921.57C3837.26 2921.57 3837.74 2921.57 3838.21 2921.57C3838.21 2921.7 3838.21 2921.77 3838.21 2921.91C3839.17 2921.91 3840.12 2921.91 3841.08 2921.91C3841.08 2921.77 3841.08 2921.7 3841.08 2921.57C3841.55 2921.57 3842.03 2921.57 3842.51 2921.57C3842.51 2921.7 3842.51 2921.77 3842.51 2921.91C3843.46 2921.91 3844.35 2921.91 3845.37 2921.91C3845.37 2921.77 3845.37 2921.7 3845.37 2921.57C3845.85 2921.57 3846.32 2921.57 3846.8 2921.57C3846.8 2921.64 3846.8 2921.77 3846.8 2921.84C3847.75 2921.84 3848.71 2921.84 3849.66 2921.84C3849.66 2921.7 3849.66 2921.64 3849.66 2921.57C3850.21 2921.57 3850.82 2921.57 3851.43 2921.57C3851.43 2921.09 3851.43 2920.61 3851.43 2920.14C3851.43 2920 3851.43 2919.8 3851.43 2919.66C3851.43 2919.39 3851.43 2919.18 3851.43 2918.91C3851.43 2918.84 3851.3 2918.71 3851.16 2918.71C3850.27 2918.71 3849.39 2918.71 3848.57 2918.71C3848.57 2918.84 3848.57 2918.91 3848.57 2919.05C3848.09 2919.05 3847.62 2919.05 3847.14 2919.05C3847.14 2918.91 3847 2918.78 3846.87 2918.78C3845.98 2918.78 3845.16 2918.78 3844.28 2918.78C3844.28 2918.91 3844.28 2918.98 3844.28 2919.12C3843.8 2919.12 3843.32 2919.12 3842.85 2919.12C3842.85 2918.98 3842.71 2918.84 3842.57 2918.78C3841.69 2918.78 3840.87 2918.78 3839.99 2918.78C3839.99 2918.91 3839.99 2918.98 3839.99 2919.12C3839.51 2919.12 3839.03 2919.12 3838.56 2919.12C3838.56 2919.05 3838.35 2918.84 3838.28 2918.84C3837.4 2918.84 3836.58 2918.84 3835.69 2918.84C3835.69 2918.98 3835.69 2919.05 3835.69 2919.18C3835.08 2919.18 3834.54 2919.18 3833.92 2919.18C3833.92 2920.21 3833.92 2921.16 3833.92 2922.05C3834.88 2922.05 3835.76 2922.05 3836.78 2922.05C3836.78 2921.84 3836.78 2921.7 3836.78 2921.57Z" fill="#D5D4D4"/>
<path d="M3832.49 2920.48C3832.49 2920.41 3832.49 2920.27 3832.49 2920.21C3832.49 2919.93 3832.49 2919.59 3832.49 2919.32C3832.49 2919.25 3832.29 2919.05 3832.22 2919.05C3831.34 2919.05 3830.52 2919.05 3829.63 2919.05C3829.63 2920.07 3829.63 2921.02 3829.63 2921.91C3830.59 2921.91 3831.54 2921.91 3832.49 2921.91C3832.49 2921.43 3832.49 2920.95 3832.49 2920.48Z" fill="#D5D4D4"/>
<path d="M3858.99 2917.34V2914.48C3858.38 2914.48 3857.77 2914.48 3857.09 2914.48C3857.09 2915.43 3857.09 2916.39 3857.09 2917.34C3857.77 2917.34 3858.38 2917.34 3858.99 2917.34Z" fill="#D5D4D4"/>
<path d="M3858.99 2921.7V2918.77C3858.38 2918.77 3857.77 2918.77 3857.09 2918.77C3857.09 2919.73 3857.09 2920.68 3857.09 2921.7C3857.63 2921.7 3858.18 2921.7 3858.72 2921.7C3858.93 2921.63 3858.93 2921.63 3858.99 2921.7Z" fill="#D5D4D4"/>
<path d="M3859 2910.05C3858.93 2910.05 3858.86 2910.12 3858.79 2910.12C3858.25 2910.12 3857.7 2910.12 3857.16 2910.12C3857.16 2911.14 3857.16 2912.03 3857.16 2913.05C3857.84 2913.05 3858.45 2913.05 3859.06 2913.05V2910.05H3859Z" fill="#D5D4D4"/>
<path d="M3852.87 2913.05C3853.75 2913.05 3854.64 2913.05 3855.46 2913.05C3855.52 2913.05 3855.73 2912.85 3855.73 2912.78C3855.73 2911.96 3855.73 2911.14 3855.73 2910.26C3854.77 2910.26 3853.82 2910.26 3852.87 2910.26C3852.87 2910.73 3852.87 2911.21 3852.87 2911.69C3852.87 2912.03 3852.87 2912.57 3852.87 2913.05Z" fill="#D5D4D4"/>
<path d="M3851.16 2917.28C3851.23 2917.28 3851.43 2917.07 3851.43 2916.93C3851.43 2916.59 3851.43 2916.19 3851.43 2915.84C3851.43 2915.5 3851.43 2915.1 3851.43 2914.75C3851.43 2914.62 3851.23 2914.41 3851.16 2914.41C3851.09 2914.41 3851.02 2914.41 3850.95 2914.41C3850.14 2914.41 3849.39 2914.41 3848.57 2914.41C3848.57 2915.44 3848.57 2916.32 3848.57 2917.28C3849.39 2917.28 3850.14 2917.28 3850.95 2917.28C3851.02 2917.28 3851.09 2917.28 3851.16 2917.28Z" fill="#D5D4D4"/>
<path d="M3855.73 2919.05C3855.73 2918.91 3855.59 2918.77 3855.46 2918.77C3854.57 2918.77 3853.75 2918.77 3852.87 2918.77C3852.87 2919.25 3852.87 2919.73 3852.87 2920.2C3852.87 2920.68 3852.87 2921.16 3852.87 2921.64C3853.82 2921.64 3854.77 2921.64 3855.73 2921.64C3855.73 2920.68 3855.73 2919.86 3855.73 2919.05Z" fill="#D5D4D4"/>
<path d="M3855.45 2917.28C3855.52 2917.28 3855.66 2917.07 3855.66 2916.93C3855.66 2916.59 3855.66 2916.19 3855.66 2915.84C3855.66 2915.5 3855.66 2915.1 3855.66 2914.75C3855.66 2914.62 3855.52 2914.41 3855.45 2914.41C3855.25 2914.41 3854.98 2914.41 3854.77 2914.41C3854.09 2914.41 3853.48 2914.41 3852.8 2914.41C3852.8 2915.44 3852.8 2916.32 3852.8 2917.28C3853.48 2917.28 3854.16 2917.28 3854.77 2917.28C3855.05 2917.28 3855.25 2917.28 3855.45 2917.28Z" fill="#D5D4D4"/>
<path d="M3851.43 2912.78C3851.43 2912.51 3851.43 2912.3 3851.43 2912.03C3851.43 2911.89 3851.43 2911.69 3851.43 2911.55C3851.43 2911.07 3851.43 2910.6 3851.43 2910.12C3850.41 2910.12 3849.52 2910.12 3848.57 2910.12C3848.57 2911.07 3848.57 2912.03 3848.57 2912.98C3849.46 2912.98 3850.27 2912.98 3851.16 2912.98C3851.23 2912.98 3851.43 2912.85 3851.43 2912.78Z" fill="#D5D4D4"/>
<path d="M7671.66 7274.52H7633.44V7314.1H7671.66V7274.52Z" fill="#D5D4D4"/>
<path d="M8069.76 7106.03H8025.34V7174.91H8069.76V7106.03Z" fill="#D5D4D4"/>
<path d="M7663.28 7224.51C7663.42 7224.3 7663.42 7223.96 7663.28 7223.76C7663.22 7223.62 7663.08 7223.62 7663.01 7223.76C7662.94 7223.89 7662.94 7224.03 7662.88 7224.1C7662.94 7224.24 7662.94 7224.37 7663.01 7224.44C7663.08 7224.64 7663.22 7224.64 7663.28 7224.51Z" fill="#D5D4D4"/>
<path d="M7449.76 2730.73H7192.56V2604.82H7016.5L7027.81 2590.51H7022.57H7019.64H6960.23H6955.93H6952.05L6940.74 2604.82L6940.67 2614.02H6115.25V2613.81H6067.77V1894.82V1889.64H6061.36L6016.67 1889.71H6010.26V1896.11L6010.13 2614.02H5503.22V1889.57L5444.84 1889.5V2409.83L5445.38 3298.54V3602.95H5445.59V3605V3608.2H5473.25V3626.39L5081.62 3625.64L4768.01 3626.46L4685.3 3612.56H4346.48V3839.92H4171.72L4170.36 3339.69L4170.22 3299.43H4246.12L4244.96 2691.62H3924.2H3922.5H3888.23H3885.02H3881.82L3882.09 3258.75H3924.06L3925.43 3864.1V3867.1H3925.63L3928.22 3907.3V3926.72L3927.13 4014.61H3927.26H3928.83V4314.39H4171.52V4014.61V4010.18L4186.85 4011.41H4329.72L4349.68 4011L4349.82 4014.61L4354.32 4014.47V4283.32H4690.34V4011.41H4692.25V4005H4687.82V4002.62H4690.34V3814.3V3729.75V3727.23H4690.75L4690.34 3681.51H4789.41H4797.45H5476.86V3699.57H5480.2V3764.97H5589.82V3888.84H5590.3V4242.3H5590.02V4300.83H5437V4665H5443.41H5586.75H5589.82L5590.02 4466.39V4709.28H5469.09V4768.01H5587.57V4771.96H5522.78V4837.16H5586.75V4841.8H5590.77V5167.88L5589 5168.29L5527.68 5230.76H5379.02H5378.95H4736.54V4929.42H4702.2L4699.61 4925.05L3815.39 4927.03L3581.63 4921.72V4778.3L4277.8 4776.8C4280.19 4776.8 4282.57 4776.25 4284.75 4775.23C4285.64 4774.82 4286.46 4774.28 4287.34 4773.67H4291.98V4769.03C4293.88 4766.31 4295.25 4763.1 4295.25 4759.7C4295.25 4757.18 4294.56 4753.98 4291.98 4750.84V4749.75H4290.95C4289.32 4748.05 4287.14 4746.41 4284.14 4744.98C4282.1 4744.03 4279.71 4743.48 4277.26 4743.48H3912.75V4721.68L3935.85 4667.86L3985.72 4666.9V4412.5H3932.51L3895.11 4316.09L3899.81 4174.45H3811.92V4247.41H3732.27V4188.34L3626.8 4185.89V4438.8L3734.45 4443.43L3738.27 4522.6L3792.5 4523.35L3788.68 4598.7H3862.61V4665.47L3902.67 4666.22L3882.16 4719.57L3882.64 4743.62H3578.5V4750.02H3581.77V4772.03H3581.7V4759.49H3577.88V4650.14H3580.81C3580.88 4653.75 3581.02 4656.75 3581.15 4658.93C3580.27 4658.39 3579.32 4657.91 3578.43 4657.3V4664.79C3594.24 4674.26 3612.7 4679.78 3632.46 4679.78C3690.78 4679.78 3738.27 4632.29 3738.27 4573.97C3738.27 4515.65 3690.78 4468.16 3632.46 4468.16C3613.86 4468.16 3596.83 4474.16 3581.63 4482.74V4474.84L3580.88 3727.57H3578.16L3578.29 3690.3H3578.5V3642.61V3551.31V3547.7H2688.22V3781.46H3525.42L3525.49 3934.42L2915.57 3934.83V4160.14H3525.42V4388.79H3453.2V4535.75H3525.42V4627.66H3517.72V4737.49H3467.31V4676.78H3404.08V4687.55H3374.85L2674.59 4402.07V3869.49H2431.63V5042.38H2337.41V5279.95H2431.63V5681.66H2674.59V5286.84H2802.88V5221.57L3302.97 5422.01L3304.06 5419.28L3345.21 5435.77L3344.19 5438.57L3386.91 5455.67L3408.99 5455.73L3412.12 5779.43V5818.67H3412.53V5882.24H3578.57H3581.77H3603.77V5900.5H3597.85V5971.08H3299.29L3298.75 5783.93H3336.02V5671.51H3219.03V5783.93H3249.76L3249.49 6018.23L3415.66 6018.16V6062.72H3466.76V6224.81H3601.93V6354.6H3686.42V6516.69H3953.5V6496.72H4009.64V6454.48H4053.92V6537.47H4112.58V6533.45L4127.3 6533.51V6537.47H4261.32V6402.63H4267.31V6532.7H4324V6529.29H4324.2V6402.63H4441.66L4442.14 6203.14V6200.48V6200.01L4442 5952.21H4462.71V5811.66L4514.7 5811.72V5816.02H4521.1V5811.66H4560.76V5815.68H4567.16V5623.61H4633.38V5619.05H4675.22V5623.61H4776.05V5369.34H5031.96H5169.31V5364.91V5316.34H5316.54L5317.29 5409.61L5223.2 5464.8L5253.18 5516.24L4807.05 5777.25L4770.19 5714.3L4681.69 5765.94L4718.55 5828.89L4661.73 5861.94L4732.52 5983.42L4787.09 5951.94L4804.74 5981.92L4895.49 5928.77L4877.84 5898.8L5326.22 5637.78L5372.34 5716.13L5461.39 5663.95L5490.69 5714.98H5586.14V5718.18H5522.03V5787.4H5586.01V5792.44L5484.63 5792.31V5843.47H5586.41L5586.28 5893.01H5479.45V6006.65H5099.27V6099.85H5586.21V6393.77H5465.89L5467.66 6391.46L5468 6391.05L5541.72 6294.17L5451.38 6225.01L5279.34 6450.87L4866.6 6136.71L4887.31 6109.05L4803.92 6045.28L4782.39 6072.94L4732.45 6034.52L4647.15 6147.14L4699.2 6187.34L4655.19 6244.7L4736.67 6306.97L4781.23 6248.59L5160.93 6537.33L5121.75 6587.88L5168.56 6622.63L5141.51 6656.08V6750.85L5189.75 6750.45V6830.3H5307.69L5305.92 6699.55L5337.6 6660.44L5380.25 6694.92L5407.91 6658.81L5427.33 6674.27L5471.82 6616.64L5459.14 6607.91L5479.65 6580.25L5428.69 6542.23L5490.69 6460.54L5579.6 6460.61L5586.14 6460.75V6733.69L5597.52 6733.62V6732.19H5660.27V6733.55L5674.71 6733.48V6460.07H5770.57L5832.92 6542.23L5781.41 6580.66L5801.44 6606.55L5788.77 6615.95L5832.98 6674.07L5852.54 6659.63L5881.29 6695.26L5924.21 6661.74L5953.17 6700.3L5953.1 6744.04V6744.45L5952.9 6830.37H6071.24V6750.51H6119.41V6655.33L6093.11 6622.63L6138.76 6587.41L6099.99 6539.44L6480.31 6248.79L6525.07 6307.04L6606.21 6244.77L6560.56 6186.11L6614.66 6147.34L6529.36 6034.65L6478.94 6072.4L6458.09 6044.05L6374.7 6109.05L6394.66 6136.03L6255.67 6241.5L6135.15 6333.55L5982.47 6451.01L5935.25 6389.01L5935.05 6388.8L5933.34 6386.55L5889.53 6329.66L5804.16 6394.66H5746.25L5746.18 6357.46L5674.85 6358.07V6348.88H5838.43V6344.52V6241.64V6239.52H5674.85V6217.52H5918.35V6148.23H6090.18V6211.39H6280.95V6148.23V6141.96V5904.18H6073.08L6074.03 5973.81H6033.7V5973.74L6021.37 5973.81V5900.84H5880.54V5939.27H5674.37L5674.65 5840.41H5757.9V5779.5H5674.78L5674.92 5715.25H5764.58L5753.88 5734.26L5847.97 5789.44L5896.48 5705.85L5896.41 5705.78L5936.27 5637.31L6384.65 5899.07L6367 5929.05L6457.82 5982.19L6475.47 5952.21L6530.04 5983.69L6600.83 5862.21L6544.01 5829.17L6580.87 5766.21L6493.18 5714.57L6456.32 5777.59L6008.9 5519.85L6039.08 5469.43L5946.08 5414.51V5316.61H6382.88V5348.36L6708.62 5527.07H6826.82V5669.19H6826.89V6169.76H6746.16L6745.75 6224.54H6849.1L6849.85 6439.63H6939.92V6440.04L6907.36 6440.17L6907.49 6522.27L6939.58 6522.54L6939.72 7006.49H7192.56V7000.08H7211.84V6994.43V6927.52H7379.85V6924.66V6760.12V6460.54H7211.77H7206.12V6675.16H7204.55H7192.49V3310.8H7204.55H7296.93V3305.15H7294.41V3235.25H7444.85H7450.5V2730.73H7449.76ZM3931.76 3840.6V3840.12H3988.86L3931.76 3840.6ZM4068.84 3927.67H4027.08V3927.47L4068.84 3926.79V3927.67ZM3517.72 5406.34L3390.25 5403.89L3243.29 5344.95L3241.99 5348.09L3222.03 5340.05L3165.48 5317.43L3167.25 5314.43L2802.88 5168.15V5127.2L2670.23 5124.89V5005.25L2671.39 4459.3L2674.59 4459.03L3363.06 4741.58L3404.08 4741.85V4807.8V4827.9H3517.79V5406.34H3517.72ZM3574.14 4969.27L3574.07 4974.38L3574 4969.27H3574.14ZM3525.42 3940.34V3940.75L3465.81 3940.41L3525.42 3940.34ZM3528.22 4636.86H3524.13V4633.59H3528.22V4636.86ZM3529.1 4068.77H2921.98V4068.7H3529.1V4068.77ZM3573.93 5411.99H3575.23V5412.06L3573.93 5411.99ZM4493.92 5758.38L4400.03 5758.31L4400.24 5804.57H4377L4377.21 6024.57L4373.39 6024.7L4373.46 6060.06L4373.39 6126.15L4305.26 6126.77L4260.29 6150.07L3993.08 6150V6340.22L3977.68 6340.43L3953.43 6340.36L3953.36 6304.52H3789.5V6257.37H3689.55L3689.69 6295.39L3668.3 6295.66L3654.67 6288.31V6224.26H3685.4V6181.27H3694.59V6178.41L3695.21 5900.09H3694.59V5900.02H3627.01V5881.7H3670.82V5704.01H3581.7V5623.61H4218.87L4515.04 5622.93L4515.11 5734.87L4493.92 5758.38ZM4684.42 5561.34H4683.46L4684.42 5560.39V5561.34ZM4690.21 5555.28H4689.66L4690.21 5554.73V5555.28ZM5586.96 5651.07H5536.75L5485.99 5561.68L5533.13 5534.84L5510.11 5494.91L5532.39 5482.65L5497.03 5420.31L5484.01 5427.19L5467.8 5397.89L5411.45 5430.46L5381.4 5377.66L5379.97 5316.47H5522.85L5587.03 5380.65V5651.07H5586.96ZM5590.98 5976.06H5588.19V5975.99H5590.98V5976.06ZM5711.16 5974.56H5757.63L5711.16 5974.7V5974.56ZM6451.21 3004.55H6451.35V3195.93H6451.21V3004.55ZM6016.67 1894.14L6061.36 1893.25V1894.82H6016.67V1894.14ZM5536.13 3254.12H5879.11V3046.45H5536.13V2946.91H6298.19V3273.33H5536.13V3254.12ZM5529.66 3318.71L5529.73 3398.22H5529.66V3318.71ZM5672.6 4491.53H5671.24V4353.09L5672.6 4353.02V4491.53ZM5853.22 5431.14L5796.94 5398.64L5779.77 5429.3L5765.06 5421.33L5730.24 5481.83L5752.52 5494.91L5729.49 5534.9L5777.32 5562.36L5725.88 5651.14H5674.85V5380.65L5737.53 5316.47L5885.17 5316.54L5885.24 5376.02L5853.22 5431.14ZM5736.44 5060.84L5723.36 5068.54L5758.79 5130.95L5781.07 5117.87L5804.1 5158.54L5852.74 5130.61L5885.17 5188.73L5884.83 5227.02H5728.4L5674.85 5169.1V4906.25H5727.38L5778.89 4998.43L5720.36 5031.68L5736.44 5060.84ZM6942.51 4871.78V4143.92H6831.93V4872.32H6886.51L6829.82 4873.48V5014.65L6710.39 5012.74L6653.91 5044.01L6649.75 5046.26L6649.14 5045.17L6651.04 5044.08L6556.82 4881.04L6140.87 5108.33L6138.01 5109.9L6205.46 5227.08H5945.06L5945.13 5147.64L6040.79 5091.64L6012.38 5043.26L6455.37 4785.32L6492.23 4848.27L6580.73 4797.44L6543.87 4733.67L6600.69 4700.63L6529.91 4579.15L6475.33 4610.63L6457.69 4580.65L6366.93 4633.79L6384.58 4663.77L5936.2 4924.78L5890.08 4845.68L5800.96 4897.94L5770.64 4845.54H5674.71V4671.26H5815.54H5818.34V4346.48H5693.93V4304.58H5799.8V4246.8H5671.31V4242.17H5670.42V4237.94H5745.77V4177.65H5670.42V3872.82H5674.85V3686.28H5630.5H5627.7H5589.96V3690.84H5531.5V3628.91H5527.82V3602.95H5529.66V3476.5H5540.36V3599.28H5605.35V3600.37H5608.83V3604.11H6377.29V3605.88H6380.83V3783.84H6445.56V3786.16H6613.98V3555.26V3552.06V3548.86H6603.42V3481.82H6451.28V3552.06H6451.21V3478.61H6603.42V3276.53H6606.14V3242.6L6831.93 3243.15L6830.84 3288.39L6831.93 3643.7L6831.87 3809.12H6830.84V3815.53H6831.87L6831.8 3968.07L6834.05 4138.27L6943.4 4139.77V4168.93L6944.22 4871.71H6942.51V4871.78Z" fill="#D5D4D4"/>
</g>
<path d="M4653.07 1912.53H4008.82C3960.78 1912.53 3921.81 1873.56 3921.81 1825.53V763.624C3921.81 715.591 3960.78 676.619 4008.82 676.619H4653.07C4701.11 676.619 4740.08 715.591 4740.08 763.624V1825.46C4740.08 1873.56 4701.11 1912.53 4653.07 1912.53Z" stroke="#D5D4D4" stroke-miterlimit="10"/>
<path d="M6854.89 1905.24H5019.49C4945.09 1905.24 4884.79 1844.95 4884.79 1770.55V811.316C4884.79 736.916 4945.09 676.619 5019.49 676.619H6854.89C6929.29 676.619 6989.59 736.916 6989.59 811.316V1770.55C6989.59 1844.95 6929.29 1905.24 6854.89 1905.24Z" stroke="#D5D4D4" stroke-miterlimit="10"/>
<path d="M6045.34 2740.54C6045.29 2740.54 6045.25 2740.53 6045.21 2740.52C6045.18 2740.5 6045.15 2740.48 6045.13 2740.45C6045.11 2740.42 6045.1 2740.39 6045.1 2740.35C6045.1 2740.32 6045.11 2740.29 6045.12 2740.27C6045.13 2740.25 6045.15 2740.22 6045.17 2740.21C6045.19 2740.19 6045.21 2740.18 6045.24 2740.18L6045.24 2740.17C6045.2 2740.16 6045.18 2740.15 6045.16 2740.12C6045.14 2740.09 6045.13 2740.06 6045.13 2740.02C6045.13 2739.99 6045.14 2739.95 6045.16 2739.93C6045.17 2739.9 6045.2 2739.88 6045.23 2739.86C6045.26 2739.85 6045.3 2739.84 6045.34 2739.84C6045.38 2739.84 6045.41 2739.85 6045.44 2739.86C6045.47 2739.88 6045.5 2739.9 6045.52 2739.93C6045.53 2739.96 6045.54 2739.99 6045.54 2740.02C6045.54 2740.06 6045.53 2740.09 6045.51 2740.12C6045.49 2740.15 6045.47 2740.16 6045.44 2740.17L6045.44 2740.18C6045.46 2740.18 6045.48 2740.19 6045.5 2740.21C6045.52 2740.23 6045.54 2740.25 6045.55 2740.27C6045.56 2740.29 6045.57 2740.32 6045.57 2740.35C6045.57 2740.39 6045.56 2740.42 6045.54 2740.45C6045.52 2740.48 6045.49 2740.5 6045.46 2740.52C6045.42 2740.53 6045.38 2740.54 6045.34 2740.54ZM6045.34 2740.47C6045.37 2740.47 6045.39 2740.46 6045.42 2740.45C6045.44 2740.44 6045.46 2740.43 6045.47 2740.41C6045.48 2740.39 6045.49 2740.37 6045.49 2740.35C6045.49 2740.32 6045.48 2740.3 6045.47 2740.28C6045.45 2740.26 6045.44 2740.24 6045.41 2740.23C6045.39 2740.22 6045.36 2740.21 6045.34 2740.21C6045.31 2740.21 6045.28 2740.22 6045.26 2740.23C6045.23 2740.24 6045.22 2740.26 6045.2 2740.28C6045.19 2740.3 6045.18 2740.32 6045.18 2740.35C6045.18 2740.37 6045.19 2740.39 6045.2 2740.41C6045.21 2740.43 6045.23 2740.44 6045.25 2740.45C6045.28 2740.46 6045.3 2740.47 6045.34 2740.47ZM6045.34 2740.14C6045.36 2740.14 6045.38 2740.14 6045.4 2740.13C6045.42 2740.12 6045.43 2740.11 6045.45 2740.09C6045.46 2740.07 6045.46 2740.05 6045.46 2740.03C6045.46 2740 6045.46 2739.98 6045.45 2739.97C6045.44 2739.95 6045.42 2739.94 6045.4 2739.93C6045.38 2739.92 6045.36 2739.91 6045.34 2739.91C6045.31 2739.91 6045.29 2739.92 6045.27 2739.93C6045.25 2739.94 6045.23 2739.95 6045.22 2739.97C6045.21 2739.98 6045.21 2740 6045.21 2740.03C6045.21 2740.05 6045.21 2740.07 6045.22 2740.09C6045.24 2740.11 6045.25 2740.12 6045.27 2740.13C6045.29 2740.14 6045.31 2740.14 6045.34 2740.14ZM6046.01 2739.85L6046.19 2740.13L6046.19 2740.13L6046.37 2739.85L6046.47 2739.85L6046.25 2740.19L6046.47 2740.53L6046.37 2740.53L6046.19 2740.25L6046.19 2740.25L6046.01 2740.53L6045.91 2740.53L6046.13 2740.19L6045.91 2739.85L6046.01 2739.85ZM6046.57 2740.53L6046.57 2739.85L6046.8 2739.85C6046.86 2739.85 6046.9 2739.86 6046.94 2739.88C6046.97 2739.9 6047 2739.92 6047.01 2739.95C6047.03 2739.98 6047.04 2740.02 6047.04 2740.06C6047.04 2740.1 6047.03 2740.14 6047.01 2740.17C6047 2740.2 6046.97 2740.22 6046.94 2740.24C6046.9 2740.26 6046.86 2740.27 6046.81 2740.27L6046.62 2740.27L6046.62 2740.19L6046.8 2740.19C6046.84 2740.19 6046.87 2740.19 6046.89 2740.18C6046.91 2740.17 6046.93 2740.15 6046.94 2740.13C6046.95 2740.11 6046.96 2740.09 6046.96 2740.06C6046.96 2740.03 6046.95 2740.01 6046.94 2739.99C6046.93 2739.97 6046.91 2739.95 6046.89 2739.94C6046.87 2739.93 6046.84 2739.92 6046.8 2739.92L6046.66 2739.92L6046.66 2740.53L6046.57 2740.53ZM6046.89 2740.23L6047.06 2740.53L6046.97 2740.53L6046.8 2740.23L6046.89 2740.23ZM6047.31 2740.55C6047.28 2740.55 6047.25 2740.54 6047.23 2740.53C6047.2 2740.51 6047.18 2740.5 6047.16 2740.47C6047.15 2740.45 6047.14 2740.42 6047.14 2740.39C6047.14 2740.36 6047.14 2740.34 6047.16 2740.32C6047.17 2740.3 6047.18 2740.28 6047.2 2740.27C6047.22 2740.26 6047.24 2740.26 6047.27 2740.25C6047.29 2740.25 6047.31 2740.24 6047.34 2740.24C6047.37 2740.23 6047.39 2740.23 6047.41 2740.23C6047.43 2740.23 6047.45 2740.22 6047.46 2740.22C6047.47 2740.21 6047.47 2740.2 6047.47 2740.19L6047.47 2740.19C6047.47 2740.16 6047.46 2740.13 6047.44 2740.11C6047.43 2740.09 6047.4 2740.08 6047.36 2740.08C6047.32 2740.08 6047.3 2740.09 6047.27 2740.11C6047.25 2740.13 6047.24 2740.14 6047.23 2740.16L6047.15 2740.13C6047.17 2740.1 6047.19 2740.08 6047.21 2740.06C6047.23 2740.04 6047.25 2740.03 6047.28 2740.03C6047.31 2740.02 6047.33 2740.02 6047.36 2740.02C6047.38 2740.02 6047.39 2740.02 6047.42 2740.02C6047.44 2740.02 6047.46 2740.03 6047.48 2740.04C6047.5 2740.06 6047.52 2740.08 6047.53 2740.1C6047.54 2740.12 6047.55 2740.16 6047.55 2740.2L6047.55 2740.53L6047.47 2740.53L6047.47 2740.46L6047.47 2740.46C6047.46 2740.48 6047.45 2740.49 6047.44 2740.5C6047.43 2740.51 6047.41 2740.52 6047.39 2740.53C6047.37 2740.54 6047.34 2740.55 6047.31 2740.55ZM6047.33 2740.48C6047.36 2740.48 6047.38 2740.47 6047.4 2740.46C6047.43 2740.44 6047.44 2740.43 6047.45 2740.41C6047.46 2740.39 6047.47 2740.37 6047.47 2740.35L6047.47 2740.28C6047.47 2740.28 6047.46 2740.28 6047.45 2740.29C6047.44 2740.29 6047.42 2740.29 6047.41 2740.3C6047.39 2740.3 6047.38 2740.3 6047.37 2740.3C6047.35 2740.3 6047.34 2740.3 6047.33 2740.31C6047.31 2740.31 6047.29 2740.31 6047.28 2740.32C6047.26 2740.32 6047.24 2740.33 6047.23 2740.34C6047.22 2740.36 6047.22 2740.37 6047.22 2740.39C6047.22 2740.42 6047.23 2740.44 6047.25 2740.45C6047.27 2740.47 6047.29 2740.48 6047.33 2740.48ZM6047.72 2740.73C6047.71 2740.73 6047.7 2740.73 6047.69 2740.72C6047.68 2740.72 6047.67 2740.72 6047.67 2740.72L6047.69 2740.65C6047.71 2740.65 6047.72 2740.65 6047.74 2740.65C6047.75 2740.65 6047.77 2740.65 6047.78 2740.63C6047.79 2740.62 6047.8 2740.6 6047.81 2740.58L6047.82 2740.54L6047.63 2740.02L6047.72 2740.02L6047.86 2740.43L6047.87 2740.43L6048.01 2740.02L6048.09 2740.02L6047.87 2740.61C6047.86 2740.64 6047.85 2740.66 6047.84 2740.67C6047.82 2740.69 6047.81 2740.71 6047.79 2740.71C6047.77 2740.72 6047.75 2740.73 6047.72 2740.73Z" fill="#676767"/>
<path d="M6045.12 2746.61L6045.12 2745.93L6045.35 2745.93C6045.41 2745.93 6045.45 2745.94 6045.48 2745.96C6045.52 2745.98 6045.54 2746 6045.56 2746.03C6045.58 2746.06 6045.58 2746.1 6045.58 2746.14C6045.58 2746.18 6045.58 2746.22 6045.56 2746.25C6045.54 2746.28 6045.52 2746.3 6045.48 2746.32C6045.45 2746.34 6045.41 2746.35 6045.35 2746.35L6045.17 2746.35L6045.17 2746.27L6045.35 2746.27C6045.39 2746.27 6045.42 2746.27 6045.44 2746.26C6045.46 2746.25 6045.48 2746.23 6045.49 2746.21C6045.5 2746.19 6045.5 2746.17 6045.5 2746.14C6045.5 2746.11 6045.5 2746.09 6045.49 2746.07C6045.48 2746.05 6045.46 2746.03 6045.44 2746.02C6045.42 2746.01 6045.39 2746 6045.35 2746L6045.2 2746L6045.2 2746.61L6045.12 2746.61ZM6045.44 2746.31L6045.61 2746.61L6045.51 2746.61L6045.35 2746.31L6045.44 2746.31ZM6045.92 2746.62C6045.87 2746.62 6045.83 2746.61 6045.79 2746.59C6045.76 2746.57 6045.73 2746.54 6045.71 2746.5C6045.69 2746.46 6045.68 2746.41 6045.68 2746.36C6045.68 2746.31 6045.69 2746.26 6045.71 2746.22C6045.73 2746.18 6045.76 2746.15 6045.79 2746.13C6045.83 2746.11 6045.87 2746.1 6045.91 2746.1C6045.94 2746.1 6045.97 2746.1 6045.99 2746.11C6046.02 2746.12 6046.04 2746.13 6046.06 2746.15C6046.08 2746.17 6046.1 2746.2 6046.11 2746.23C6046.13 2746.26 6046.13 2746.3 6046.13 2746.35L6046.13 2746.39L6045.74 2746.38L6045.74 2746.32L6046.05 2746.32C6046.05 2746.29 6046.05 2746.26 6046.03 2746.24C6046.02 2746.22 6046.01 2746.2 6045.99 2746.19C6045.97 2746.17 6045.94 2746.17 6045.91 2746.17C6045.88 2746.17 6045.85 2746.17 6045.83 2746.19C6045.81 2746.2 6045.79 2746.22 6045.78 2746.25C6045.77 2746.27 6045.76 2746.3 6045.76 2746.33L6045.76 2746.37C6045.76 2746.41 6045.77 2746.45 6045.78 2746.47C6045.79 2746.5 6045.81 2746.52 6045.84 2746.53C6045.86 2746.55 6045.89 2746.55 6045.92 2746.55C6045.94 2746.55 6045.96 2746.55 6045.98 2746.55C6045.99 2746.54 6046.01 2746.53 6046.02 2746.52C6046.03 2746.51 6046.04 2746.49 6046.05 2746.47L6046.12 2746.5C6046.12 2746.52 6046.1 2746.54 6046.08 2746.56C6046.06 2746.58 6046.04 2746.6 6046.01 2746.61C6045.99 2746.62 6045.95 2746.62 6045.92 2746.62ZM6046.61 2746.22L6046.54 2746.24C6046.54 2746.23 6046.53 2746.21 6046.52 2746.2C6046.52 2746.19 6046.5 2746.18 6046.49 2746.18C6046.47 2746.17 6046.46 2746.16 6046.43 2746.16C6046.4 2746.16 6046.38 2746.17 6046.35 2746.19C6046.33 2746.2 6046.32 2746.22 6046.32 2746.24C6046.32 2746.26 6046.33 2746.28 6046.34 2746.29C6046.36 2746.3 6046.38 2746.31 6046.41 2746.31L6046.49 2746.33C6046.53 2746.34 6046.57 2746.36 6046.59 2746.38C6046.61 2746.41 6046.62 2746.44 6046.62 2746.47C6046.62 2746.5 6046.61 2746.53 6046.6 2746.55C6046.58 2746.57 6046.56 2746.59 6046.53 2746.61C6046.5 2746.62 6046.46 2746.63 6046.42 2746.63C6046.37 2746.63 6046.33 2746.61 6046.29 2746.59C6046.26 2746.57 6046.24 2746.54 6046.23 2746.49L6046.3 2746.47C6046.31 2746.5 6046.32 2746.52 6046.34 2746.54C6046.36 2746.55 6046.39 2746.56 6046.42 2746.56C6046.46 2746.56 6046.49 2746.55 6046.51 2746.53C6046.53 2746.52 6046.54 2746.5 6046.54 2746.48C6046.54 2746.46 6046.54 2746.44 6046.52 2746.43C6046.51 2746.42 6046.49 2746.41 6046.47 2746.4L6046.38 2746.38C6046.33 2746.37 6046.3 2746.36 6046.28 2746.33C6046.26 2746.31 6046.24 2746.28 6046.24 2746.24C6046.25 2746.22 6046.25 2746.19 6046.27 2746.17C6046.29 2746.15 6046.31 2746.13 6046.34 2746.12C6046.36 2746.1 6046.4 2746.1 6046.43 2746.1C6046.48 2746.1 6046.52 2746.11 6046.55 2746.13C6046.58 2746.15 6046.6 2746.18 6046.61 2746.22ZM6046.74 2746.62L6046.74 2746.1L6046.82 2746.1L6046.82 2746.62L6046.74 2746.62ZM6046.78 2746.02C6046.77 2746.02 6046.75 2746.01 6046.74 2746C6046.73 2745.99 6046.73 2745.98 6046.73 2745.96C6046.73 2745.95 6046.73 2745.94 6046.74 2745.93C6046.75 2745.92 6046.77 2745.91 6046.78 2745.91C6046.8 2745.91 6046.81 2745.92 6046.82 2745.93C6046.83 2745.94 6046.84 2745.95 6046.84 2745.96C6046.84 2745.98 6046.83 2745.99 6046.82 2746C6046.81 2746.01 6046.8 2746.02 6046.78 2746.02ZM6047.33 2746.22L6047.26 2746.24C6047.25 2746.23 6047.25 2746.22 6047.24 2746.2C6047.23 2746.19 6047.22 2746.18 6047.2 2746.18C6047.19 2746.17 6047.17 2746.16 6047.15 2746.16C6047.11 2746.16 6047.09 2746.17 6047.07 2746.19C6047.05 2746.2 6047.04 2746.22 6047.04 2746.24C6047.04 2746.26 6047.04 2746.28 6047.06 2746.29C6047.07 2746.3 6047.09 2746.31 6047.12 2746.32L6047.2 2746.33C6047.25 2746.35 6047.28 2746.36 6047.3 2746.39C6047.33 2746.41 6047.34 2746.44 6047.34 2746.47C6047.34 2746.5 6047.33 2746.53 6047.31 2746.55C6047.29 2746.57 6047.27 2746.59 6047.24 2746.61C6047.21 2746.62 6047.18 2746.63 6047.14 2746.63C6047.08 2746.63 6047.04 2746.61 6047.01 2746.59C6046.97 2746.57 6046.95 2746.54 6046.94 2746.49L6047.02 2746.47C6047.02 2746.5 6047.04 2746.52 6047.06 2746.54C6047.08 2746.55 6047.1 2746.56 6047.14 2746.56C6047.17 2746.56 6047.2 2746.55 6047.22 2746.53C6047.24 2746.52 6047.26 2746.5 6047.26 2746.48C6047.26 2746.46 6047.25 2746.44 6047.24 2746.43C6047.22 2746.42 6047.21 2746.41 6047.18 2746.4L6047.09 2746.38C6047.05 2746.37 6047.01 2746.36 6046.99 2746.33C6046.97 2746.31 6046.96 2746.28 6046.96 2746.24C6046.96 2746.22 6046.97 2746.19 6046.98 2746.17C6047 2746.15 6047.02 2746.13 6047.05 2746.12C6047.08 2746.1 6047.11 2746.1 6047.15 2746.1C6047.2 2746.1 6047.24 2746.11 6047.27 2746.13C6047.29 2746.15 6047.32 2746.18 6047.33 2746.22ZM6047.68 2746.1L6047.68 2746.17L6047.41 2746.17L6047.41 2746.1L6047.68 2746.1ZM6047.49 2745.98L6047.57 2745.98L6047.57 2746.47C6047.57 2746.49 6047.57 2746.51 6047.58 2746.52C6047.58 2746.53 6047.59 2746.54 6047.6 2746.54C6047.61 2746.55 6047.62 2746.55 6047.64 2746.55C6047.64 2746.55 6047.65 2746.55 6047.66 2746.55C6047.66 2746.54 6047.67 2746.54 6047.67 2746.54L6047.69 2746.61C6047.68 2746.62 6047.67 2746.62 6047.66 2746.62C6047.65 2746.62 6047.64 2746.62 6047.63 2746.62C6047.61 2746.62 6047.58 2746.62 6047.56 2746.61C6047.54 2746.6 6047.52 2746.58 6047.51 2746.56C6047.5 2746.55 6047.49 2746.52 6047.49 2746.49L6047.49 2745.98ZM6047.8 2746.62L6047.8 2746.1L6047.87 2746.1L6047.87 2746.18L6047.88 2746.18C6047.89 2746.16 6047.9 2746.14 6047.93 2746.12C6047.95 2746.1 6047.98 2746.1 6048.01 2746.1C6048.02 2746.1 6048.02 2746.1 6048.03 2746.1C6048.04 2746.1 6048.05 2746.1 6048.05 2746.1L6048.05 2746.18C6048.05 2746.18 6048.04 2746.18 6048.03 2746.17C6048.02 2746.17 6048.01 2746.17 6048 2746.17C6047.98 2746.17 6047.96 2746.18 6047.94 2746.19C6047.92 2746.2 6047.9 2746.21 6047.89 2746.23C6047.88 2746.25 6047.87 2746.27 6047.87 2746.29L6047.87 2746.62L6047.8 2746.62ZM6048.3 2746.63C6048.26 2746.63 6048.23 2746.62 6048.21 2746.61C6048.18 2746.6 6048.16 2746.58 6048.14 2746.56C6048.13 2746.53 6048.12 2746.5 6048.12 2746.47C6048.12 2746.44 6048.13 2746.42 6048.14 2746.4C6048.15 2746.38 6048.17 2746.37 6048.19 2746.36C6048.2 2746.35 6048.23 2746.34 6048.25 2746.33C6048.27 2746.33 6048.3 2746.32 6048.32 2746.32C6048.35 2746.32 6048.38 2746.31 6048.4 2746.31C6048.42 2746.31 6048.43 2746.31 6048.44 2746.3C6048.45 2746.3 6048.45 2746.29 6048.45 2746.27L6048.45 2746.27C6048.45 2746.24 6048.44 2746.21 6048.43 2746.19C6048.41 2746.18 6048.38 2746.17 6048.34 2746.17C6048.31 2746.17 6048.28 2746.18 6048.26 2746.19C6048.23 2746.21 6048.22 2746.23 6048.21 2746.24L6048.14 2746.22C6048.15 2746.19 6048.17 2746.16 6048.19 2746.15C6048.21 2746.13 6048.24 2746.12 6048.26 2746.11C6048.29 2746.1 6048.32 2746.1 6048.34 2746.1C6048.36 2746.1 6048.38 2746.1 6048.4 2746.1C6048.42 2746.11 6048.44 2746.12 6048.46 2746.13C6048.48 2746.14 6048.5 2746.16 6048.51 2746.18C6048.52 2746.21 6048.53 2746.24 6048.53 2746.28L6048.53 2746.62L6048.45 2746.62L6048.45 2746.55L6048.45 2746.55C6048.44 2746.56 6048.43 2746.57 6048.42 2746.58C6048.41 2746.6 6048.39 2746.61 6048.37 2746.62C6048.35 2746.62 6048.33 2746.63 6048.3 2746.63ZM6048.31 2746.56C6048.34 2746.56 6048.37 2746.55 6048.39 2746.54C6048.41 2746.53 6048.42 2746.51 6048.44 2746.49C6048.45 2746.47 6048.45 2746.45 6048.45 2746.43L6048.45 2746.36C6048.45 2746.36 6048.44 2746.37 6048.43 2746.37C6048.42 2746.37 6048.41 2746.38 6048.39 2746.38C6048.38 2746.38 6048.36 2746.38 6048.35 2746.38C6048.34 2746.39 6048.32 2746.39 6048.32 2746.39C6048.3 2746.39 6048.28 2746.4 6048.26 2746.4C6048.24 2746.41 6048.23 2746.42 6048.22 2746.43C6048.21 2746.44 6048.2 2746.46 6048.2 2746.48C6048.2 2746.5 6048.21 2746.52 6048.23 2746.54C6048.25 2746.55 6048.28 2746.56 6048.31 2746.56ZM6048.9 2746.11L6048.9 2746.17L6048.63 2746.17L6048.63 2746.11L6048.9 2746.11ZM6048.71 2745.98L6048.79 2745.98L6048.79 2746.47C6048.79 2746.49 6048.79 2746.51 6048.8 2746.52C6048.8 2746.53 6048.81 2746.54 6048.82 2746.54C6048.83 2746.55 6048.84 2746.55 6048.86 2746.55C6048.86 2746.55 6048.87 2746.55 6048.88 2746.55C6048.88 2746.55 6048.89 2746.54 6048.89 2746.54L6048.91 2746.61C6048.9 2746.62 6048.89 2746.62 6048.88 2746.62C6048.87 2746.62 6048.86 2746.62 6048.85 2746.62C6048.83 2746.62 6048.8 2746.62 6048.78 2746.61C6048.76 2746.6 6048.74 2746.59 6048.73 2746.57C6048.72 2746.55 6048.71 2746.52 6048.71 2746.49L6048.71 2745.98ZM6049.02 2746.62L6049.02 2746.11L6049.09 2746.11L6049.09 2746.62L6049.02 2746.62ZM6049.06 2746.02C6049.04 2746.02 6049.03 2746.02 6049.02 2746C6049.01 2745.99 6049 2745.98 6049 2745.97C6049 2745.95 6049.01 2745.94 6049.02 2745.93C6049.03 2745.92 6049.04 2745.91 6049.06 2745.91C6049.07 2745.91 6049.08 2745.92 6049.1 2745.93C6049.11 2745.94 6049.11 2745.95 6049.11 2745.97C6049.11 2745.98 6049.11 2745.99 6049.1 2746C6049.08 2746.02 6049.07 2746.02 6049.06 2746.02ZM6049.45 2746.63C6049.4 2746.63 6049.36 2746.62 6049.32 2746.6C6049.29 2746.57 6049.26 2746.54 6049.24 2746.5C6049.22 2746.46 6049.21 2746.42 6049.21 2746.36C6049.21 2746.31 6049.22 2746.26 6049.24 2746.22C6049.26 2746.19 6049.29 2746.15 6049.32 2746.13C6049.36 2746.11 6049.4 2746.1 6049.45 2746.1C6049.49 2746.1 6049.53 2746.11 6049.57 2746.13C6049.6 2746.15 6049.63 2746.19 6049.65 2746.23C6049.67 2746.27 6049.68 2746.31 6049.68 2746.37C6049.68 2746.42 6049.67 2746.46 6049.65 2746.5C6049.63 2746.54 6049.6 2746.57 6049.57 2746.6C6049.53 2746.62 6049.49 2746.63 6049.45 2746.63ZM6049.45 2746.56C6049.48 2746.56 6049.51 2746.55 6049.53 2746.53C6049.56 2746.51 6049.57 2746.49 6049.58 2746.46C6049.59 2746.43 6049.6 2746.4 6049.6 2746.36C6049.6 2746.33 6049.59 2746.3 6049.58 2746.27C6049.57 2746.24 6049.56 2746.22 6049.53 2746.2C6049.51 2746.18 6049.48 2746.17 6049.45 2746.17C6049.41 2746.17 6049.38 2746.18 6049.36 2746.2C6049.34 2746.22 6049.32 2746.24 6049.31 2746.27C6049.3 2746.3 6049.29 2746.33 6049.29 2746.36C6049.29 2746.4 6049.3 2746.43 6049.31 2746.46C6049.32 2746.49 6049.34 2746.51 6049.36 2746.53C6049.38 2746.55 6049.41 2746.56 6049.45 2746.56ZM6049.88 2746.31L6049.88 2746.62L6049.8 2746.62L6049.8 2746.11L6049.87 2746.11L6049.87 2746.19L6049.88 2746.19C6049.89 2746.16 6049.91 2746.14 6049.94 2746.12C6049.96 2746.11 6049.99 2746.1 6050.03 2746.1C6050.07 2746.1 6050.1 2746.11 6050.12 2746.12C6050.15 2746.14 6050.17 2746.16 6050.18 2746.19C6050.2 2746.21 6050.2 2746.25 6050.2 2746.29L6050.2 2746.62L6050.12 2746.62L6050.12 2746.3C6050.13 2746.26 6050.11 2746.23 6050.09 2746.2C6050.07 2746.18 6050.04 2746.17 6050.01 2746.17C6049.98 2746.17 6049.96 2746.18 6049.94 2746.19C6049.92 2746.2 6049.91 2746.21 6049.89 2746.23C6049.88 2746.26 6049.88 2746.28 6049.88 2746.31Z" fill="#676767"/>
<g opacity="0.4">
<path d="M6045.76 8297.24C5958.21 8297.24 5887.01 8226.05 5887.01 8138.5C5887.01 8050.95 5958.21 7979.75 6045.76 7979.75C6133.3 7979.75 6204.5 8050.95 6204.5 8138.5C6204.5 8225.98 6133.3 8297.24 6045.76 8297.24ZM6045.76 7984.25C5960.73 7984.25 5891.5 8053.4 5891.5 8138.5C5891.5 8223.53 5960.66 8292.75 6045.76 8292.75C6130.78 8292.75 6200.01 8223.59 6200.01 8138.5C6199.94 8053.4 6130.78 7984.25 6045.76 7984.25Z" fill="#D2D2D2"/>
<path d="M6476.96 9813.38L6464.9 9811.07L6462.65 9803.1L6474.71 9805.41L6483.78 9797.17L6486.02 9805.14L6476.96 9813.38ZM6473.28 9800.17L6461.22 9797.85L6458.98 9789.88L6471.03 9792.2L6480.1 9783.95L6482.34 9791.92L6473.28 9800.17ZM6469.54 9786.95L6457.48 9784.63L6455.23 9776.66L6467.29 9778.98L6476.35 9770.73L6478.6 9778.71L6469.54 9786.95ZM6469.74 9782.66L6467.08 9783.41L6464.83 9775.16L6467.49 9774.48L6469.74 9782.66ZM6463.95 9761.33L6461.29 9762.01L6460.47 9759.02L6454.34 9735.65L6457 9734.96L6463.13 9758.33L6463.95 9761.33ZM6453.59 9721.75L6450.94 9722.43L6444.74 9698.11L6444.19 9696.06L6446.85 9695.38L6447.39 9697.42L6453.59 9721.75ZM6443.51 9682.16L6440.85 9682.84L6435.67 9662.2L6434.24 9656.41L6436.9 9655.73L6438.33 9661.52L6443.51 9682.16ZM6433.63 9642.51L6430.97 9643.19L6426 9623.09L6424.43 9616.76L6427.09 9616.14L6428.66 9622.48L6433.63 9642.51ZM6423.89 9602.79L6421.23 9603.4L6415.78 9580.99L6414.83 9576.9L6417.48 9576.29L6418.44 9580.37L6423.89 9602.79ZM6414.28 9563.07L6411.62 9563.68L6405.22 9537.18L6407.88 9536.56L6414.28 9563.07ZM6404.67 9523.28L6402.02 9523.89L6395.68 9497.39L6398.34 9496.78L6404.67 9523.28ZM6395.2 9483.56L6392.55 9484.17L6386.28 9457.67L6388.94 9457.06L6395.2 9483.56ZM6385.8 9443.77L6383.14 9444.38L6382.33 9440.84L6376.88 9417.81L6379.53 9417.2L6384.98 9440.23L6385.8 9443.77ZM6376.4 9403.98L6373.74 9404.59L6370.47 9390.56L6367.54 9378.09L6370.2 9377.48L6373.13 9389.94L6376.4 9403.98ZM6367.07 9364.19L6364.41 9364.8L6358.34 9338.98L6358.14 9338.23L6360.8 9337.62L6361 9338.37L6367.07 9364.19ZM6357.73 9324.33L6355.07 9324.95L6348.87 9298.38L6351.53 9297.76L6357.73 9324.33ZM6348.47 9284.54L6345.81 9285.16L6339.68 9258.59L6342.33 9257.97L6348.47 9284.54ZM6339.27 9244.69L6336.61 9245.3L6333.82 9233.31L6330.48 9218.73L6333.14 9218.12L6336.47 9232.7L6339.27 9244.69ZM6330 9204.9L6327.34 9205.51L6321.42 9179.96L6321.21 9178.94L6323.87 9178.33L6324.07 9179.35L6330 9204.9ZM6320.87 9165.04L6318.21 9165.65L6312.08 9139.08L6314.74 9138.47L6320.87 9165.04ZM6311.67 9125.18L6309.02 9125.8L6302.95 9099.23L6305.61 9098.61L6311.67 9125.18ZM6302.54 9085.4L6299.89 9086.01L6297.03 9073.68L6293.76 9059.44L6296.41 9058.82L6299.68 9073.06L6302.54 9085.4ZM6293.41 9045.54L6290.76 9046.15L6285.1 9021.35L6284.69 9019.58L6287.35 9018.97L6287.76 9020.74L6293.41 9045.54ZM6284.28 9005.68L6281.63 9006.29L6275.56 8979.72L6278.22 8979.11L6284.28 9005.68ZM6275.16 8965.82L6272.5 8966.44L6266.43 8939.87L6269.09 8939.25L6275.16 8965.82ZM6266.09 8925.97L6263.44 8926.58L6261.94 8920.11L6257.37 8899.94L6260.03 8899.33L6264.59 8919.49L6266.09 8925.97ZM6257.03 8886.11L6254.37 8886.72L6250.97 8871.87L6248.31 8860.15L6250.97 8859.54L6253.63 8871.26L6257.03 8886.11ZM6247.97 8846.18L6245.31 8846.8L6240.48 8825.54L6239.25 8820.23L6241.91 8819.61L6243.13 8824.93L6247.97 8846.18ZM6238.98 8806.33L6236.32 8806.94L6230.6 8781.6L6230.32 8780.37L6232.98 8779.76L6233.25 8780.98L6238.98 8806.33ZM6229.92 8766.47L6227.26 8767.08L6221.26 8740.51L6223.92 8739.9L6229.92 8766.47ZM6220.92 8726.61L6218.27 8727.23L6212.54 8701.95L6212.27 8700.59L6214.93 8699.97L6215.2 8701.34L6220.92 8726.61ZM6211.93 8686.69L6209.27 8687.3L6204.71 8666.86L6203.34 8660.66L6206 8660.05L6207.36 8666.25L6211.93 8686.69ZM6203 8646.83L6200.35 8647.44L6197.62 8635.45L6194.35 8620.8L6197.01 8620.19L6200.28 8634.84L6203 8646.83ZM6194.01 8606.9L6191.35 8607.52L6186.24 8584.69L6185.36 8580.88L6188.01 8580.26L6188.83 8584.08L6194.01 8606.9ZM6185.08 8567.05L6182.43 8567.66L6182.09 8566.16L6179.02 8552.47L6177.11 8544.02L6176.5 8541.16L6179.16 8540.54L6179.77 8543.41L6181.68 8551.85L6184.74 8565.55L6185.08 8567.05ZM6170.91 8509.95L6182.84 8512.95L6184.61 8520.99L6172.68 8517.99L6163.15 8525.76L6161.38 8517.72L6170.91 8509.95ZM6173.91 8523.37L6185.83 8526.37L6187.61 8534.41L6175.68 8531.41L6166.14 8539.18L6164.37 8531.14L6173.91 8523.37ZM6176.91 8536.8L6188.83 8539.79L6190.6 8547.83L6178.68 8544.84L6169.14 8552.6L6167.37 8544.56L6176.91 8536.8Z" fill="#CED1D2"/>
<path d="M7690.26 5791.42H7680.24L7680.17 5788.76C7675.88 5578.51 7670.84 5347.13 7665.19 5101.04L7665.12 5098.25H7675.13L7675.2 5100.9C7680.92 5347.81 7685.97 5579.26 7690.19 5788.7L7690.26 5791.42Z" fill="#D5D4D4"/>
<path d="M7637.18 5016.56C7637.25 5016.42 7637.25 5016.28 7637.32 5016.22C7637.38 5016.08 7637.52 5016.08 7637.59 5016.22C7637.73 5016.42 7637.73 5016.76 7637.59 5016.96C7637.52 5017.1 7637.38 5017.1 7637.32 5016.96C7637.25 5016.83 7637.25 5016.69 7637.18 5016.56Z" fill="white"/>
<path d="M-14.6484 5115.96V5106.63L191.383 5078.56C194.994 5078.15 558.205 5036.11 880.333 5001.7C1237.07 4998.91 1266.57 4653.14 1297.78 4287.13C1316.99 4062.03 1336.82 3829.29 1435.13 3668.02C1510.96 3543.61 1591.97 3427.65 1748.13 3375.46C2029.92 3293.77 2292.44 3272.92 2524.02 3254.6C2819.57 3231.16 3074.79 3210.99 3245.74 3066.55C3431.12 2909.98 3509.89 2620.29 3501.03 2127.35C3494.28 1748.27 3423.22 1353.37 3354.54 971.493C3331.79 845.041 3216.65 187.431 3187.42 7.83524L3186.87 4.70117H3197.02L3197.36 7.01766C3226.8 187.499 3341.74 843.882 3364.36 969.79C3433.1 1352.08 3504.23 1747.38 3510.98 2127.28C3529.85 3185.03 3129.98 3216.71 2524.77 3264.68C2293.59 3283.01 2031.63 3303.72 1751.06 3385.14C1598.24 3436.17 1518.39 3550.56 1443.58 3673.33C1346.49 3832.56 1326.8 4064.14 1307.66 4288.09C1276.04 4658.79 1246.13 5008.99 880.81 5011.79C559.908 5046.12 196.016 5088.23 192.473 5088.64L-14.6484 5115.96Z" fill="#D2D2D2"/>
<path d="M4653.07 1916.14H4008.82C3960.78 1916.14 3921.81 1877.17 3921.81 1829.14V767.233C3921.81 719.2 3960.78 680.229 4008.82 680.229H4653.07C4701.11 680.229 4740.08 719.2 4740.08 767.233V1829.07C4740.08 1877.17 4701.11 1916.14 4653.07 1916.14Z" stroke="#D5D4D4" stroke-miterlimit="10"/>
<path d="M6854.89 1908.78H5019.49C4945.09 1908.78 4884.79 1848.49 4884.79 1774.09V814.925C4884.79 740.525 4945.09 680.229 5019.49 680.229H6854.89C6929.29 680.229 6989.59 740.525 6989.59 814.925V1774.16C6989.59 1848.49 6929.29 1908.78 6854.89 1908.78Z" stroke="#D5D4D4" stroke-miterlimit="10"/>
<path d="M7706.81 7016.64H7189.76V7023.04H7706.81V7016.64Z" fill="#D5D4D4"/>
<path d="M5451.65 2023.31C5419.22 2023.65 5386.72 2023.93 5354.49 2024.27C4837.44 2029.17 4251.57 2034.76 3690.91 2064.87C3686.49 1992.72 3681.1 1919.69 3675.99 1849.1L3675.38 1840.99C3657.39 1595.45 3548.93 962.364 3547.77 955.959L3381.46 6.88117L3381.05 4.63281H3370.9L3537.96 957.662C3539.05 963.999 3647.38 1595.45 3665.43 1841.74L3666.05 1849.85C3671.02 1917.57 3676.61 1994.29 3681.17 2068.14L3681.58 2075.37L3688.8 2074.96C4249.8 2044.78 4836.76 2039.19 5354.56 2034.22C5386.72 2033.94 5419.22 2033.6 5451.58 2033.26V2023.31H5451.65Z" fill="#D2D2D2"/>
<path d="M5497.3 2032.92C5668.85 2031.22 5843.2 2029.31 6016.94 2026.45V2016.36C5843.48 2019.22 5669.13 2021.2 5497.3 2022.9V2032.92Z" fill="#D2D2D2"/>
<path d="M7617.36 2189.35L7546.77 2.72528L7546.71 0L7536.69 0.34066L7607.34 2189.62L7607.41 2191.06C7521.36 2192.62 7408.47 2199.78 7308.65 2206.18C6965.81 2228.05 6539.17 2255.3 6290.76 2147.86C6202.8 2093.97 6136.17 2018 6135.49 2017.25L6133.99 2015.48L6131.67 2015.55C6108.44 2015.96 6085.14 2016.36 6061.91 2016.77V2026.79C6084.46 2026.38 6107.08 2026.04 6129.56 2025.56C6140.05 2037.15 6204.37 2106.57 6286.2 2156.65C6409.86 2210.13 6589.52 2236.16 6835.54 2236.16C6835.61 2236.16 6835.61 2236.16 6835.68 2236.16C6995.25 2236.16 7162.17 2225.53 7309.4 2216.13C7409.96 2209.72 7523.95 2202.43 7610.48 2201L7617.77 2200.87L7617.36 2189.35Z" fill="#D3D3D3"/>
<path d="M1140.74 5610.46C1463.2 5775 1727.28 5994.66 1982.71 6207.23C2431.7 6580.73 2855.75 6933.58 3535.5 6945.91C3830.31 6951.3 4324.68 7118.7 4802.9 7280.58C5217.34 7420.93 5608.76 7553.45 5804.84 7553.45C5832.78 7553.45 5856.49 7550.72 5875.36 7545.27L5893.55 7540.03L5889.6 7534.3C5865 7498.33 5843.41 7465.63 5822.56 7434.01C5692.15 7236.23 5620.34 7127.28 5371.12 7108C5297.87 7102.55 5221.43 7090.63 5137.49 7071.48C5015.67 7043.68 4893.1 7004.03 4774.55 6965.74C4596.8 6908.24 4412.98 6848.83 4222.07 6825.39C4159.05 6817.69 4095.55 6810.81 4033.69 6804.2C3656.37 6763.66 3299.9 6725.37 2993.17 6482.41C2923.68 6418.23 2859.09 6358.14 2796.61 6300.02L2796.21 6299.62C2346.53 5881.15 2075.16 5628.52 1568.81 5346.65C1408.49 5257.4 1228.97 5209.37 1020.07 5199.83C833.665 5191.31 640.102 5213.52 452.943 5234.99L453.284 5237.71L452.398 5235.05C377.521 5243.64 300.055 5252.5 223.679 5259.38L-12.1254 5281.93L-14.5781 5282.2V5292.56L224.633 5269.32C301.418 5262.44 379.02 5253.52 454.102 5244.86C842.726 5200.24 1209.82 5158.13 1564.04 5355.31C2069.31 5636.62 2340.4 5888.92 2789.53 6306.91C2852.01 6365.09 2916.66 6425.25 2986.77 6489.98C3296.09 6734.98 3653.92 6773.4 4033 6814.22C4094.46 6820.82 4157.96 6827.64 4220.98 6835.4C4411 6858.71 4594.28 6918.05 4771.62 6975.35C4890.38 7013.77 5013.22 7053.5 5135.45 7081.36C5219.93 7100.64 5296.85 7112.63 5370.57 7118.15C5614.89 7137.09 5685.82 7244.61 5814.45 7439.73C5834.21 7469.71 5854.65 7500.71 5877.68 7534.44L5872.77 7535.87C5718.38 7580.15 5275.39 7430.2 4806.03 7271.24C4327.27 7109.09 3832.15 6941.49 3535.85 6936.1C2859.64 6923.84 2436.88 6572.07 1989.25 6199.73C1733.42 5986.89 1468.86 5766.82 1145.37 5601.81C787.199 5419.08 158.818 5429.77 132.178 5430.32L-14.5781 5435.91V5445.38L132.382 5440.34C138.787 5439.93 783.792 5428.34 1140.74 5610.46Z" fill="#D2D2D2"/>
<path d="M6106.46 9540.59C6068.72 9342.8 6021.71 9096.7 6018.37 9075.79C5998.68 8952.61 5978.31 8825.27 5936.68 8709.31L5935.72 8706.72L5933.07 8706.1C5756.47 8666.66 5629.33 8585.85 5555.07 8466.01C5441.49 8282.6 5492.52 8069.96 5493.07 8067.78L5494.16 8063.42L5489.94 8061.92C5416.63 8035.07 5343.32 8008.23 5270.01 7981.38L5268.71 7980.91C4836.55 7822.64 4389.74 7659.05 3946.95 7506.03C3725.86 7429.65 3504.43 7416.5 3269.92 7402.6C2962.31 7384.34 2644.2 7365.4 2325.48 7191.53C2059.56 7046.48 1853.73 6855.57 1654.65 6670.87C1267.94 6312.08 902.68 5973.2 156.976 6011.83L-14.6484 6020.96V6030.22L157.453 6021.77C171.352 6021.02 185.387 6020.41 199.354 6020C202.556 6019.8 523.253 6001.06 826.985 6108.78C1162.13 6227.6 1398.07 6446.51 1647.91 6678.23C1847.4 6863.27 2053.63 7054.65 2320.64 7200.32C2641.34 7375.28 2960.61 7394.22 3269.31 7412.55C3503.07 7426.45 3723.89 7439.53 3943.61 7515.5C4386.68 7668.59 4833.89 7832.31 5266.46 7990.79C5338.41 8017.15 5410.36 8043.45 5482.3 8069.82C5475.63 8101.64 5440 8299.22 5546.49 8471.25C5621.84 8592.94 5750.2 8675.04 5928.16 8715.3C5968.77 8829.56 5988.93 8955.47 6008.49 9077.42C6011.83 9098.48 6058.97 9345.32 6096.86 9543.65C6123.56 9683.66 6146.66 9804.6 6149.25 9819.18L6149.73 9821.9L6159.54 9820.06L6159.06 9817.4C6156.54 9802.69 6133.31 9681.21 6106.46 9540.59ZM399.389 6018.44C496.069 6024.77 585.594 6038.26 669.26 6057.88C570.946 6035.54 477.06 6024.09 399.389 6018.44Z" fill="#D2D2D2"/>
<path d="M2342.99 6897.61L2344.35 6895.3L2332.63 6888.41L2331.2 6890.73L2342.99 6897.61Z" fill="#CED1D2"/>
<path d="M2402.74 6930.52L2404.03 6928.13L2391.97 6921.8L2390.68 6924.18L2402.74 6930.52Z" fill="#CED1D2"/>
<path d="M2296.05 6869.88L2307.02 6876.56L2319.48 6883.85L2320.85 6881.53L2308.38 6874.24L2297.48 6867.56L2296.05 6869.88Z" fill="#CED1D2"/>
<path d="M2378.69 6917.64L2380.05 6915.25L2356.21 6901.97L2354.84 6904.35L2378.69 6917.64Z" fill="#CED1D2"/>
<path d="M2261.23 6848.35L2262.73 6846.1L2239.77 6831.39L2238.34 6833.64L2261.23 6848.35Z" fill="#CED1D2"/>
<path d="M2170.28 6788.12L2171.91 6785.94L2160.67 6778.18L2159.1 6780.36L2170.28 6788.12Z" fill="#CED1D2"/>
<path d="M2125.72 6756.71L2141.05 6767.82L2147.93 6772.59L2149.5 6770.34L2142.62 6765.57L2127.35 6754.53L2125.72 6756.71Z" fill="#CED1D2"/>
<path d="M2114.68 6748.74L2116.31 6746.56L2105.21 6738.59L2103.64 6740.77L2114.68 6748.74Z" fill="#CED1D2"/>
<path d="M2414.73 6936.92L2426.32 6942.99L2439.06 6949.39L2440.28 6946.94L2427.54 6940.53L2416.03 6934.54L2414.73 6936.92Z" fill="#CED1D2"/>
<path d="M2181.52 6795.96L2183.49 6797.32L2204.14 6811.15L2205.7 6808.9L2185.06 6795.07L2183.08 6793.71L2181.52 6795.96Z" fill="#CED1D2"/>
<path d="M2284.46 6862.73L2285.89 6860.41L2274.24 6853.32L2272.81 6855.57L2284.46 6862.73Z" fill="#CED1D2"/>
<path d="M2215.45 6818.71L2225.26 6825.25L2226.82 6826.28L2228.32 6824.03L2226.76 6823.01L2217.01 6816.46L2215.45 6818.71Z" fill="#CED1D2"/>
<path d="M2537.78 6995.72L2543.64 6998.31L2562.92 7006.28L2564.01 7003.83L2544.73 6995.79L2538.94 6993.2L2537.78 6995.72Z" fill="#CED1D2"/>
<path d="M2781.76 7082.38L2782.51 7079.79L2769.5 7075.91L2768.68 7078.57L2781.76 7082.38Z" fill="#CED1D2"/>
<path d="M2729.5 7066.71L2741.22 7070.46L2755.59 7074.69L2756.41 7072.1L2742.04 7067.8L2730.39 7064.12L2729.5 7066.71Z" fill="#CED1D2"/>
<path d="M2716.49 7062.62L2717.38 7060.03L2704.36 7055.88L2703.55 7058.47L2716.49 7062.62Z" fill="#CED1D2"/>
<path d="M2821.21 7093.29L2821.95 7090.63L2795.66 7083.41L2794.91 7086.06L2821.21 7093.29Z" fill="#CED1D2"/>
<path d="M2463.45 6961.52L2464.67 6959.13L2452.48 6953L2451.25 6955.45L2463.45 6961.52Z" fill="#CED1D2"/>
<path d="M2690.6 7054.11L2691.48 7051.59L2665.66 7042.8L2664.77 7045.32L2690.6 7054.11Z" fill="#CED1D2"/>
<path d="M2847.57 7100.1L2848.32 7097.44L2835.1 7094.04L2834.42 7096.69L2847.57 7100.1Z" fill="#CED1D2"/>
<path d="M2864.67 7104.46L2886.2 7109.7L2887.29 7109.91L2887.9 7107.25L2886.81 7107.05L2865.29 7101.8L2864.67 7104.46Z" fill="#CED1D2"/>
<path d="M1394.59 6124.04L1396.37 6121.93L1386.15 6112.93L1384.38 6115.05L1394.59 6124.04Z" fill="#CED1D2"/>
<path d="M2651.9 7040.75L2652.86 7038.23L2640.05 7033.53L2639.09 7036.05L2651.9 7040.75Z" fill="#CED1D2"/>
<path d="M2092.61 6732.73L2094.24 6730.55L2072.44 6714.27L2070.8 6716.45L2092.61 6732.73Z" fill="#CED1D2"/>
<path d="M2500.44 6979.03L2501.6 6976.58L2476.94 6964.93L2475.78 6967.38L2500.44 6979.03Z" fill="#CED1D2"/>
<path d="M2575.52 7011.52L2582.75 7014.59L2588.13 7016.63L2589.15 7014.11L2583.77 7012L2576.55 7009L2575.52 7011.52Z" fill="#CED1D2"/>
<path d="M2600.87 7021.61L2621.99 7029.86L2626.28 7031.42L2627.3 7028.9L2622.94 7027.27L2601.89 7019.09L2600.87 7021.61Z" fill="#CED1D2"/>
<path d="M2861.47 7100.85L2860.79 7103.5L2864.67 7104.46L2865.29 7101.8L2861.47 7100.85Z" fill="#CED1D2"/>
<path d="M1543.74 6263.71L1545.58 6261.73L1535.7 6252.33L1533.79 6254.31L1543.74 6263.71Z" fill="#CED1D2"/>
<path d="M1484.26 6207.5L1484.8 6208.04L1494.21 6216.9L1496.04 6214.93L1486.71 6206.07L1486.17 6205.52L1484.26 6207.5Z" fill="#CED1D2"/>
<path d="M1573.57 6291.58L1575.48 6289.6L1555.52 6271L1553.68 6272.98L1573.57 6291.58Z" fill="#CED1D2"/>
<path d="M1523.9 6244.97L1525.74 6243L1505.99 6224.26L1504.08 6226.24L1523.9 6244.97Z" fill="#CED1D2"/>
<path d="M1653.63 6365.64L1658.06 6369.66L1673.87 6383.97L1675.71 6381.92L1659.9 6367.61L1655.54 6363.59L1653.63 6365.64Z" fill="#CED1D2"/>
<path d="M1643.62 6356.37L1645.46 6354.39L1635.44 6345.13L1633.6 6347.17L1643.62 6356.37Z" fill="#CED1D2"/>
<path d="M1623.58 6337.9L1625.42 6335.93L1605.32 6317.46L1603.48 6319.51L1623.58 6337.9Z" fill="#CED1D2"/>
<path d="M1593.54 6310.18L1595.38 6308.2L1585.43 6298.93L1583.59 6300.91L1593.54 6310.18Z" fill="#CED1D2"/>
<path d="M1474.44 6198.1L1476.35 6196.12L1456.66 6177.32L1454.75 6179.23L1474.44 6198.1Z" fill="#CED1D2"/>
<path d="M1425.25 6147.27L1423.34 6149.25L1425.18 6151.02L1427.09 6149.04L1425.25 6147.27Z" fill="#CED1D2"/>
<path d="M1444.87 6169.82L1446.78 6167.85L1436.9 6158.45L1435.06 6160.42L1444.87 6169.82Z" fill="#CED1D2"/>
<path d="M1425.25 6147.27L1406.59 6130.92L1404.88 6133.03L1423.35 6149.25L1425.25 6147.27Z" fill="#CED1D2"/>
<path d="M2005.81 6666.71L2007.51 6664.6L1996.81 6656.15L1995.11 6658.26L2005.81 6666.71Z" fill="#CED1D2"/>
<path d="M1910.28 6589.79L1914.85 6593.61L1931.33 6607.03L1933.11 6604.92L1916.62 6591.5L1911.98 6587.68L1910.28 6589.79Z" fill="#CED1D2"/>
<path d="M1899.79 6581.07L1901.56 6578.96L1891.07 6570.23L1889.37 6572.28L1899.79 6581.07Z" fill="#CED1D2"/>
<path d="M1858.02 6545.98L1866.27 6553.07L1878.87 6563.56L1880.64 6561.52L1868.04 6550.96L1859.79 6543.94L1858.02 6545.98Z" fill="#CED1D2"/>
<path d="M1952.53 6624.26L1954.23 6622.15L1943.67 6613.57L1941.9 6615.68L1952.53 6624.26Z" fill="#CED1D2"/>
<path d="M2038.17 6691.72L2039.87 6689.6L2018.27 6672.98L2016.57 6675.09L2038.17 6691.72Z" fill="#CED1D2"/>
<path d="M1963.09 6632.85L1984.41 6649.82L1986.11 6647.7L1964.79 6630.74L1963.09 6632.85Z" fill="#CED1D2"/>
<path d="M2049 6700.03L2053.56 6703.57L2059.83 6708.27L2061.47 6706.09L2055.2 6701.46L2050.64 6697.91L2049 6700.03Z" fill="#CED1D2"/>
<path d="M1755.01 6456.73L1765.09 6465.72L1775.52 6474.71L1777.29 6472.67L1766.93 6463.68L1756.85 6454.68L1755.01 6456.73Z" fill="#CED1D2"/>
<path d="M1694.03 6402.22L1695.87 6400.18L1685.78 6391.05L1683.95 6393.09L1694.03 6402.22Z" fill="#CED1D2"/>
<path d="M1744.86 6447.67L1746.63 6445.62L1736.48 6436.56L1734.64 6438.61L1744.86 6447.67Z" fill="#CED1D2"/>
<path d="M1847.67 6537.12L1849.44 6535.08L1839.08 6526.22L1837.31 6528.27L1847.67 6537.12Z" fill="#CED1D2"/>
<path d="M1704.19 6411.35L1712.36 6418.78L1724.49 6429.54L1726.33 6427.5L1714.2 6416.73L1706.03 6409.38L1704.19 6411.35Z" fill="#CED1D2"/>
<path d="M1806.31 6501.63L1816.4 6510.42L1826.96 6519.41L1828.73 6517.36L1818.17 6508.37L1808.08 6499.58L1806.31 6501.63Z" fill="#CED1D2"/>
<path d="M1796.02 6492.63L1797.79 6490.59L1787.57 6481.66L1785.73 6483.71L1796.02 6492.63Z" fill="#CED1D2"/>
<path d="M2525.31 6990.2L2526.47 6987.68L2514 6982.16L2512.84 6984.68L2525.31 6990.2Z" fill="#CED1D2"/>
<path d="M3923.65 7269.47L3924.27 7266.82L3910.91 7263.82L3910.37 7266.48L3923.65 7269.47Z" fill="#CED1D2"/>
<path d="M2900.58 7112.97L2907.6 7114.61L2913.93 7115.97L2914.48 7113.31L2908.14 7111.95L2901.19 7110.32L2900.58 7112.97Z" fill="#CED1D2"/>
<path d="M4135.27 7321.87L4147.73 7325.2L4161.56 7329.02L4162.25 7326.36L4148.42 7322.55L4135.95 7319.28L4135.27 7321.87Z" fill="#CED1D2"/>
<path d="M4187.8 7336.24L4188.55 7333.65L4175.4 7330.04L4174.65 7332.63L4187.8 7336.24Z" fill="#CED1D2"/>
<path d="M4331.76 7377.94L4348.25 7382.91L4357.85 7385.84L4358.6 7383.26L4349 7380.26L4332.51 7375.35L4331.76 7377.94Z" fill="#CED1D2"/>
<path d="M4266.42 7358.59L4281.55 7362.95L4292.58 7366.29L4293.33 7363.63L4282.36 7360.36L4267.17 7356L4266.42 7358.59Z" fill="#CED1D2"/>
<path d="M4318.68 7374.06L4319.49 7371.47L4306.41 7367.59L4305.66 7370.17L4318.68 7374.06Z" fill="#CED1D2"/>
<path d="M4056.1 7301.29L4056.78 7298.64L4043.57 7295.3L4042.95 7297.95L4056.1 7301.29Z" fill="#CED1D2"/>
<path d="M3990.01 7284.94L3990.63 7282.28L3977.34 7279.15L3976.73 7281.81L3990.01 7284.94Z" fill="#CED1D2"/>
<path d="M4003.23 7288.14L4013.04 7290.46L4029.73 7294.61L4030.34 7291.96L4013.65 7287.8L4003.84 7285.48L4003.23 7288.14Z" fill="#CED1D2"/>
<path d="M4122.05 7318.39L4122.73 7315.74L4109.58 7312.26L4108.9 7314.92L4122.05 7318.39Z" fill="#CED1D2"/>
<path d="M3936.94 7272.47L3945.32 7274.31L3963.51 7278.67L3964.12 7276.02L3945.93 7271.66L3937.55 7269.82L3936.94 7272.47Z" fill="#CED1D2"/>
<path d="M4383.88 7393.88L4384.63 7391.29L4371.62 7387.27L4370.87 7389.86L4383.88 7393.88Z" fill="#CED1D2"/>
<path d="M4069.32 7304.63L4080.49 7307.42L4095.76 7311.44L4096.37 7308.79L4081.18 7304.77L4070 7301.97L4069.32 7304.63Z" fill="#CED1D2"/>
<path d="M4253.34 7354.84L4254.09 7352.25L4241.01 7348.44L4240.26 7351.09L4253.34 7354.84Z" fill="#CED1D2"/>
<path d="M4707.37 7500.64L4708.25 7498.06L4695.38 7493.56L4694.49 7496.15L4707.37 7500.64Z" fill="#CED1D2"/>
<path d="M4720.18 7505.14L4744.98 7513.73L4745.93 7514.07L4746.82 7511.55L4745.87 7511.21L4721.07 7502.55L4720.18 7505.14Z" fill="#CED1D2"/>
<path d="M4655.8 7482.86L4679.17 7490.83L4681.62 7491.65L4682.5 7489.13L4680.05 7488.24L4656.68 7480.27L4655.8 7482.86Z" fill="#CED1D2"/>
<path d="M4835.8 7546.02L4836.75 7543.5L4823.88 7538.87L4822.99 7541.46L4835.8 7546.02Z" fill="#CED1D2"/>
<path d="M4642.92 7478.44L4643.8 7475.85L4630.92 7471.42L4630.04 7474.01L4642.92 7478.44Z" fill="#CED1D2"/>
<path d="M4784.5 7527.76L4810.19 7536.82L4811.07 7534.23L4785.39 7525.17L4784.5 7527.76Z" fill="#CED1D2"/>
<path d="M4771.62 7523.2L4772.51 7520.61L4759.7 7516.04L4758.81 7518.63L4771.62 7523.2Z" fill="#CED1D2"/>
<path d="M4578.4 7456.63L4579.22 7454.04L4566.34 7449.68L4565.45 7452.27L4578.4 7456.63Z" fill="#CED1D2"/>
<path d="M4461.83 7418.41L4481.04 7424.54L4487.79 7426.79L4488.67 7424.13L4481.86 7421.95L4462.65 7415.82L4461.83 7418.41Z" fill="#CED1D2"/>
<path d="M4513.74 7435.24L4514.56 7432.65L4501.61 7428.43L4500.73 7431.01L4513.74 7435.24Z" fill="#CED1D2"/>
<path d="M4448.88 7414.32L4449.7 7411.73L4436.68 7407.58L4435.87 7410.17L4448.88 7414.32Z" fill="#CED1D2"/>
<path d="M4526.69 7439.46L4547.19 7446.21L4552.58 7447.98L4553.4 7445.39L4548.08 7443.62L4527.51 7436.88L4526.69 7439.46Z" fill="#CED1D2"/>
<path d="M4396.9 7397.9L4414.68 7403.42L4422.92 7406.01L4423.74 7403.42L4415.5 7400.83L4397.72 7395.31L4396.9 7397.9Z" fill="#CED1D2"/>
<path d="M4591.34 7460.92L4613.21 7468.28L4617.17 7469.65L4617.98 7467.06L4614.1 7465.69L4592.16 7458.34L4591.34 7460.92Z" fill="#CED1D2"/>
<path d="M4200.95 7339.92L4214.71 7343.74L4227.18 7347.28L4227.93 7344.69L4215.46 7341.08L4201.63 7337.27L4200.95 7339.92Z" fill="#CED1D2"/>
<path d="M3128.89 7152.63L3137.07 7153.65L3155.94 7156.03L3156.28 7153.31L3137.41 7150.99L3129.23 7149.9L3128.89 7152.63Z" fill="#CED1D2"/>
<path d="M3169.5 7157.6L3178.15 7158.69L3183.06 7159.24L3183.33 7156.51L3178.49 7155.97L3169.84 7154.95L3169.5 7157.6Z" fill="#CED1D2"/>
<path d="M3237.22 7165.23L3239.81 7165.57L3250.78 7166.73L3251.05 7164L3240.08 7162.85L3237.49 7162.57L3237.22 7165.23Z" fill="#CED1D2"/>
<path d="M3196.89 7158.08L3196.55 7160.8L3198.73 7161.01L3219.23 7163.32L3223.66 7163.8L3223.94 7161.08L3219.51 7160.6L3199 7158.35L3196.89 7158.08Z" fill="#CED1D2"/>
<path d="M3264.34 7168.16L3280.96 7169.87L3291.45 7170.96L3291.73 7168.23L3281.23 7167.14L3264.61 7165.44L3264.34 7168.16Z" fill="#CED1D2"/>
<path d="M3332.12 7175.11L3343.03 7176.27L3359.24 7177.91L3359.51 7175.25L3343.3 7173.55L3332.4 7172.39L3332.12 7175.11Z" fill="#CED1D2"/>
<path d="M3305.55 7169.78L3305.27 7172.49L3318.83 7173.88L3319.11 7171.17L3305.55 7169.78Z" fill="#CED1D2"/>
<path d="M2927.83 7116.25L2927.22 7118.9L2928.85 7119.24L2950.04 7123.6L2953.93 7124.42L2954.47 7121.7L2950.59 7120.95L2929.4 7116.59L2927.83 7116.25Z" fill="#CED1D2"/>
<path d="M2994.12 7132.05L3013 7135.32L3020.97 7136.69L3021.45 7134.03L3013.41 7132.67L2994.6 7129.33L2994.12 7132.05Z" fill="#CED1D2"/>
<path d="M2967.35 7127.01L2971.1 7127.76L2980.71 7129.53L2981.25 7126.87L2971.64 7125.1L2967.83 7124.35L2967.35 7127.01Z" fill="#CED1D2"/>
<path d="M3372.73 7179.33L3384.73 7180.63L3386.29 7180.77L3386.63 7178.04L3385 7177.9L3373.07 7176.61L3372.73 7179.33Z" fill="#CED1D2"/>
<path d="M3115.4 7150.86L3115.74 7148.13L3102.25 7146.29L3101.84 7149.02L3115.4 7150.86Z" fill="#CED1D2"/>
<path d="M3047.88 7141.04L3048.36 7138.39L3034.87 7136.21L3034.46 7138.93L3047.88 7141.04Z" fill="#CED1D2"/>
<path d="M3061.38 7143.16L3075.27 7145.2L3088.36 7147.11L3088.76 7144.38L3075.61 7142.55L3061.78 7140.43L3061.38 7143.16Z" fill="#CED1D2"/>
<path d="M3589.05 7206.25L3589.46 7203.52L3575.97 7201.61L3575.56 7204.27L3589.05 7206.25Z" fill="#CED1D2"/>
<path d="M3736.9 7230.91L3740.78 7231.59L3763.61 7236.02L3764.15 7233.37L3741.26 7228.94L3737.38 7228.19L3736.9 7230.91Z" fill="#CED1D2"/>
<path d="M3723.48 7228.53L3723.95 7225.8L3710.53 7223.42L3710.05 7226.14L3723.48 7228.53Z" fill="#CED1D2"/>
<path d="M3656.37 7216.81L3656.78 7214.15L3643.35 7211.97L3642.95 7214.69L3656.37 7216.81Z" fill="#CED1D2"/>
<path d="M3669.79 7218.99L3672.04 7219.4L3696.63 7223.76L3697.11 7221.03L3672.51 7216.67L3670.2 7216.33L3669.79 7218.99Z" fill="#CED1D2"/>
<path d="M3857.15 7254.89L3857.7 7252.17L3844.34 7249.38L3843.8 7252.1L3857.15 7254.89Z" fill="#CED1D2"/>
<path d="M3803.8 7243.79L3809.26 7244.88L3830.44 7249.31L3830.99 7246.65L3809.73 7242.15L3804.28 7241.13L3803.8 7243.79Z" fill="#CED1D2"/>
<path d="M3790.39 7241.2L3790.93 7238.54L3777.51 7235.95L3777.03 7238.61L3790.39 7241.2Z" fill="#CED1D2"/>
<path d="M3508.12 7194.87L3512.07 7195.41L3521.61 7196.64L3522.02 7193.98L3512.41 7192.69L3508.46 7192.21L3508.12 7194.87Z" fill="#CED1D2"/>
<path d="M3467.85 7187.17L3467.58 7189.9L3469.15 7190.03L3490.54 7192.69L3494.63 7193.17L3494.97 7190.44L3490.88 7189.97L3469.49 7187.38L3467.85 7187.17Z" fill="#CED1D2"/>
<path d="M3602.55 7208.16L3603.02 7208.23L3629.46 7212.52L3629.87 7209.79L3603.43 7205.57L3602.96 7205.5L3602.55 7208.16Z" fill="#CED1D2"/>
<path d="M3440.52 7186.7L3447.88 7187.58L3454.01 7188.26L3454.35 7185.61L3448.22 7184.86L3440.8 7184.04L3440.52 7186.7Z" fill="#CED1D2"/>
<path d="M3400.12 7179.54L3399.85 7182.2L3405.71 7182.88L3426.76 7185.19H3426.97L3427.24 7182.47H3427.04L3405.98 7180.15L3400.12 7179.54Z" fill="#CED1D2"/>
<path d="M3535.16 7198.48L3562.08 7202.36L3562.49 7199.64L3535.5 7195.75L3535.16 7198.48Z" fill="#CED1D2"/>
<path d="M3870.44 7257.69L3877.39 7259.12L3897.08 7263.55L3897.62 7260.82L3878 7256.46L3870.98 7254.96L3870.44 7257.69Z" fill="#CED1D2"/>
<path d="M1050.26 5907.24L1051.28 5904.72L1038.74 5899.34L1037.72 5901.86L1050.26 5907.24Z" fill="#CED1D2"/>
<path d="M4938.34 7583.09L4939.29 7580.5L4913.67 7571.23L4912.72 7573.75L4938.34 7583.09Z" fill="#CED1D2"/>
<path d="M5002.32 7606.52L5003.27 7603.93L4977.65 7594.6L4976.77 7597.12L5002.32 7606.52Z" fill="#CED1D2"/>
<path d="M5027.93 7615.92L5028.82 7613.33L5016.08 7608.63L5015.12 7611.22L5027.93 7615.92Z" fill="#CED1D2"/>
<path d="M4963.96 7592.42L4964.91 7589.9L4952.1 7585.2L4951.15 7587.79L4963.96 7592.42Z" fill="#CED1D2"/>
<path d="M136.607 5710.89L136.539 5713.61L153.845 5714.09L163.792 5714.43L163.86 5711.77L153.913 5711.36L136.607 5710.89Z" fill="#CED1D2"/>
<path d="M5144.17 7655.53L5143.22 7658.08L5155.99 7662.83L5156.94 7660.27L5144.17 7655.53Z" fill="#CED1D2"/>
<path d="M5080.13 7632.42L5079.18 7634.98L5091.96 7639.71L5092.9 7637.15L5080.13 7632.42Z" fill="#CED1D2"/>
<path d="M5169.2 7665.77L5168.25 7668.32L5193.8 7677.81L5194.75 7675.25L5169.2 7665.77Z" fill="#CED1D2"/>
<path d="M5105.55 7641.65L5104.6 7644.21L5130.16 7653.66L5131.11 7651.1L5105.55 7641.65Z" fill="#CED1D2"/>
<path d="M4899.91 7569.12L4900.86 7566.6L4888.06 7561.9L4887.1 7564.49L4899.91 7569.12Z" fill="#CED1D2"/>
<path d="M1.56826 5702.51L-8.99219 5713.95L2.38585 5724.51L13.3551 5724.04L1.97706 5713.54L12.5375 5702.1L1.56826 5702.51Z" fill="#CED1D2"/>
<path d="M5207.87 7679.82L5206.92 7682.38L5219.7 7687.12L5220.64 7684.56L5207.87 7679.82Z" fill="#CED1D2"/>
<path d="M68.4744 5712.86L79.7843 5712.8L95.659 5712.86V5710.14L79.7843 5710.07L68.4062 5710.14L68.4744 5712.86Z" fill="#CED1D2"/>
<path d="M122.908 5713.27L122.976 5710.55L109.349 5710.27L109.281 5713L122.908 5713.27Z" fill="#CED1D2"/>
<path d="M35.3607 5723.22L23.9146 5712.66L34.475 5701.28L23.5058 5701.69L12.9453 5713.07L24.3915 5723.63L35.3607 5723.22Z" fill="#CED1D2"/>
<path d="M47.3526 5713.2L51.168 5713.07L54.8472 5713L54.779 5710.27L51.0999 5710.34L47.1483 5710.48L45.9219 5711.77L47.3526 5713.2Z" fill="#CED1D2"/>
<path d="M57.2982 5722.33L47.351 5713.2L43.74 5713.27L41.2191 5713.34L41.151 5710.61L43.6718 5710.55L47.1466 5710.48L56.4806 5700.39L45.4433 5700.8L34.8828 5712.25L46.329 5722.81L57.2982 5722.33Z" fill="#CED1D2"/>
<path d="M41.1484 5710.62L41.2166 5713.34L43.7375 5713.27L47.3484 5713.21L45.9177 5711.77L47.144 5710.48L43.6693 5710.55L41.1484 5710.62Z" fill="#CED1D2"/>
<path d="M5066.29 7630.1L5067.17 7627.51L5041.63 7618.11L5040.67 7620.63L5066.29 7630.1Z" fill="#CED1D2"/>
<path d="M5526.45 7800.02L5530.54 7801.52L5539.26 7804.65L5540.22 7802.13L5531.49 7798.99L5527.41 7797.5L5526.45 7800.02Z" fill="#CED1D2"/>
<path d="M5709.39 7863.93L5702.71 7849.89L5692.36 7846.21L5699.04 7860.25L5685 7866.92L5695.36 7870.6L5709.39 7863.93Z" fill="#CED1D2"/>
<path d="M5577.76 7818.55L5578.71 7815.96L5553.03 7806.76L5552.14 7809.28L5577.76 7818.55Z" fill="#CED1D2"/>
<path d="M5233.62 7688.77L5232.67 7691.32L5258.22 7700.81L5259.17 7698.26L5233.62 7688.77Z" fill="#CED1D2"/>
<path d="M5590.57 7823.18L5596.02 7825.16L5603.45 7827.75L5604.33 7825.16L5596.97 7822.57L5591.52 7820.59L5590.57 7823.18Z" fill="#CED1D2"/>
<path d="M1374.15 6106.12L1375.79 6103.94L1354.39 6087.11L1352.76 6089.29L1374.15 6106.12Z" fill="#CED1D2"/>
<path d="M5656.73 7843.83L5655.7 7843.48L5654.75 7846.01L5655.84 7846.41L5657.61 7845.6L5656.73 7843.83Z" fill="#CED1D2"/>
<path d="M5662.51 7845.87L5656.72 7843.83L5657.61 7845.6L5655.84 7846.42L5661.56 7848.46L5662.51 7845.87Z" fill="#CED1D2"/>
<path d="M5653.93 7855.95L5667.96 7849.28L5661.22 7835.24L5650.86 7831.56L5656.72 7843.83L5662.51 7845.87L5661.56 7848.46L5655.83 7846.42L5643.57 7852.27L5653.93 7855.95Z" fill="#CED1D2"/>
<path d="M5688.68 7856.57L5682 7842.53L5671.65 7838.92L5678.32 7852.89L5664.29 7859.63L5674.65 7863.31L5688.68 7856.57Z" fill="#CED1D2"/>
<path d="M5334.94 7727.04L5333.99 7729.59L5346.77 7734.32L5347.72 7731.77L5334.94 7727.04Z" fill="#CED1D2"/>
<path d="M5297.31 7712.98L5296.36 7715.54L5321.91 7725.02L5322.86 7722.46L5297.31 7712.98Z" fill="#CED1D2"/>
<path d="M5271.75 7703.51L5270.8 7706.07L5283.57 7710.81L5284.52 7708.25L5271.75 7703.51Z" fill="#CED1D2"/>
<path d="M5361.25 7736.32L5360.3 7738.88L5385.87 7748.33L5386.81 7745.77L5361.25 7736.32Z" fill="#CED1D2"/>
<path d="M5513.65 7795.38L5514.6 7792.79L5488.99 7783.46L5488.03 7786.05L5513.65 7795.38Z" fill="#CED1D2"/>
<path d="M5462.48 7776.72L5465.13 7777.67L5475.29 7781.42L5476.17 7778.83L5466.02 7775.15L5463.36 7774.13L5462.48 7776.72Z" fill="#CED1D2"/>
<path d="M5398.5 7753.21L5399.73 7753.69L5411.31 7757.91L5412.19 7755.39L5400.61 7751.1L5399.45 7750.69L5398.5 7753.21Z" fill="#CED1D2"/>
<path d="M5425.22 7760.23L5424.27 7762.79L5449.85 7772.21L5450.79 7769.65L5425.22 7760.23Z" fill="#CED1D2"/>
<path d="M5641.94 7841.44L5642.82 7838.92L5617.14 7829.79L5616.25 7832.31L5641.94 7841.44Z" fill="#CED1D2"/>
<path d="M1025.18 5896.41L1026.21 5893.89L1001.2 5883.12L1000.18 5885.65L1025.18 5896.41Z" fill="#CED1D2"/>
<path d="M4874.3 7559.85L4875.25 7557.26L4849.57 7548.07L4848.68 7550.66L4874.3 7559.85Z" fill="#CED1D2"/>
<path d="M1087.11 5924.75L1088.27 5922.23L1063.61 5910.58L1062.52 5913.03L1087.11 5924.75Z" fill="#CED1D2"/>
<path d="M1099.45 5930.55L1107.62 5934.5L1111.64 5936.54L1112.8 5934.16L1108.85 5932.05L1100.54 5928.09L1099.45 5930.55Z" fill="#CED1D2"/>
<path d="M962.226 5870.59L963.18 5868L937.766 5858.12L936.812 5860.64L962.226 5870.59Z" fill="#CED1D2"/>
<path d="M987.571 5880.47L988.525 5877.95L975.852 5872.97L974.898 5875.49L987.571 5880.47Z" fill="#CED1D2"/>
<path d="M872.633 5838.09L878.22 5839.86L898.319 5846.95L899.204 5844.43L879.105 5837.27L873.45 5835.43L872.633 5838.09Z" fill="#CED1D2"/>
<path d="M807.703 5817.58L820.648 5821.4L833.73 5825.55L834.479 5822.96L821.398 5818.74L808.384 5814.99L807.703 5817.58Z" fill="#CED1D2"/>
<path d="M1123.7 5942.88L1147.82 5955.55L1149.05 5953.1L1124.93 5940.43L1123.7 5942.88Z" fill="#CED1D2"/>
<path d="M859.685 5833.87L860.435 5831.28L847.489 5827.12L846.672 5829.71L859.685 5833.87Z" fill="#CED1D2"/>
<path d="M177.344 5714.98L185.86 5715.32L190.97 5715.59L191.106 5712.86L185.996 5712.59L177.48 5712.25L177.344 5714.98Z" fill="#CED1D2"/>
<path d="M1320.53 6064.22L1322.03 6061.97L1299.82 6046.16L1298.32 6048.41L1320.53 6064.22Z" fill="#CED1D2"/>
<path d="M1342.06 6080.84L1343.63 6078.66L1332.93 6070.21L1331.3 6072.4L1342.06 6080.84Z" fill="#CED1D2"/>
<path d="M1159.88 5961.89L1163.55 5963.79L1171.73 5968.5L1173.02 5966.11L1164.92 5961.41L1161.1 5959.43L1159.88 5961.89Z" fill="#CED1D2"/>
<path d="M1287.15 6040.58L1288.72 6038.33L1277.61 6030.43L1276.05 6032.67L1287.15 6040.58Z" fill="#CED1D2"/>
<path d="M1207.1 5989L1208.39 5986.62L1184.82 5972.92L1183.52 5975.31L1207.1 5989Z" fill="#CED1D2"/>
<path d="M1264.73 6025.18L1266.16 6022.86L1243.2 6008.15L1241.77 6010.46L1264.73 6025.18Z" fill="#CED1D2"/>
<path d="M1230.33 6003.17L1231.76 6000.79L1220.24 5993.5L1218.81 5995.82L1230.33 6003.17Z" fill="#CED1D2"/>
<path d="M924.004 5856.08L924.89 5853.49L912.081 5848.92L911.195 5851.51L924.004 5856.08Z" fill="#CED1D2"/>
<path d="M529.25 5752.86L529.659 5750.13L516.237 5747.88L515.828 5750.61L529.25 5752.86Z" fill="#CED1D2"/>
<path d="M435.019 5738.21L435.36 5735.48L408.38 5732.01L408.039 5734.67L435.019 5738.21Z" fill="#CED1D2"/>
<path d="M475.492 5744.07L490.072 5746.25L502.404 5748.29L502.813 5745.63L490.549 5743.59L475.833 5741.41L475.492 5744.07Z" fill="#CED1D2"/>
<path d="M794.626 5813.84L795.307 5811.18L782.226 5807.36L781.477 5810.02L794.626 5813.84Z" fill="#CED1D2"/>
<path d="M340.391 5726.9L344.887 5727.31L367.439 5729.83L367.712 5727.1L345.16 5724.58L340.595 5724.17L340.391 5726.9Z" fill="#CED1D2"/>
<path d="M380.992 5731.4L391.212 5732.49L394.482 5732.96L394.823 5730.24L391.553 5729.83L381.265 5728.67L380.992 5731.4Z" fill="#CED1D2"/>
<path d="M204.602 5716.34L221.226 5717.22L231.786 5717.91L231.922 5715.18L221.43 5714.5L204.738 5713.61L204.602 5716.34Z" fill="#CED1D2"/>
<path d="M258.97 5719.68L259.106 5717.02L245.548 5716.07L245.344 5718.79L258.97 5719.68Z" fill="#CED1D2"/>
<path d="M299.716 5723.01L299.92 5720.29L272.736 5718.11L272.531 5720.77L299.716 5723.01Z" fill="#CED1D2"/>
<path d="M326.832 5725.61L327.036 5722.88L313.478 5721.59L313.273 5724.24L326.832 5725.61Z" fill="#CED1D2"/>
<path d="M462.006 5742.09L462.346 5739.43L448.924 5737.39L448.516 5740.12L462.006 5742.09Z" fill="#CED1D2"/>
<path d="M702.574 5788.97L703.187 5786.31L676.615 5780.04L676.07 5782.7L702.574 5788.97Z" fill="#CED1D2"/>
<path d="M649.57 5776.5L650.729 5776.7L662.788 5779.56L663.401 5776.91L651.342 5774.05L650.047 5773.77L649.57 5776.5Z" fill="#CED1D2"/>
<path d="M569.448 5760.15L569.925 5757.49L543.149 5752.38L542.672 5755.1L569.448 5760.15Z" fill="#CED1D2"/>
<path d="M742.094 5799.19L763.351 5804.77L768.393 5806.21L769.142 5803.62L764.1 5802.12L742.775 5796.53L742.094 5799.19Z" fill="#CED1D2"/>
<path d="M582.867 5762.67L595.88 5765.12L596.221 5765.19L596.766 5762.53L596.357 5762.46L583.344 5760.01L582.867 5762.67Z" fill="#CED1D2"/>
<path d="M728.944 5795.71L729.625 5793.12L716.408 5789.65L715.727 5792.31L728.944 5795.71Z" fill="#CED1D2"/>
<path d="M636.216 5773.64L636.761 5770.98L610.053 5765.32L609.508 5768.05L636.216 5773.64Z" fill="#CED1D2"/>
<path d="M8479.7 7625.19L8458.44 7627.92C8035.55 7682.29 7598.21 7738.56 7169.39 7801.86C6899.86 7841.65 6718.22 7937.37 6614.11 8094.69C6531.6 8219.3 6498.7 8383.23 6513.62 8595.8C6527.45 8793.45 6580.86 9010.45 6629.78 9198.29L6781.65 9819.24L6782.13 9821.29H6793.16L6639.46 9195.77C6529.01 8771.65 6444.6 8368.71 6622.49 8100.14C6724.96 7945.34 6904.35 7850.98 7170.89 7811.67C7600.32 7748.31 8037.73 7692.1 8460.69 7637.66L8484.81 7634.59C8914.11 7579.34 9357.99 7522.24 9799.01 7456.43L9801.32 7456.09V7446L9798.19 7446.48C9355.88 7512.5 8910.43 7569.8 8479.7 7625.19Z" fill="#D2D2D2"/>
<path d="M7412.34 7581.25L7439.19 7576.48L7438.71 7573.82L7411.87 7578.52L7412.34 7581.25Z" fill="#CED1D2"/>
<path d="M7491.04 7567.55L7506.37 7564.96L7505.89 7562.3L7490.56 7564.89L7491.04 7567.55Z" fill="#CED1D2"/>
<path d="M7479.05 7566.87L7479.52 7569.53L7491.04 7567.55L7490.56 7564.89L7479.05 7566.87Z" fill="#CED1D2"/>
<path d="M7385.02 7583.36L7385.57 7586.02L7393.68 7584.52L7398.92 7583.56L7398.45 7580.91L7393.2 7581.86L7385.02 7583.36Z" fill="#CED1D2"/>
<path d="M7519.31 7560.05L7519.79 7562.71L7520.88 7562.58L7533.21 7560.53L7532.8 7557.88L7520.47 7559.85L7519.31 7560.05Z" fill="#CED1D2"/>
<path d="M7318.53 7598.35L7331.95 7595.83L7331.41 7593.17L7318.05 7595.62L7318.53 7598.35Z" fill="#CED1D2"/>
<path d="M7251.08 7608.43L7251.62 7611.15L7253.26 7610.81L7264.98 7608.57L7264.5 7605.84L7252.78 7608.16L7251.08 7608.43Z" fill="#CED1D2"/>
<path d="M7211.56 7619.13L7238.27 7613.81L7237.72 7611.09L7211.02 7616.4L7211.56 7619.13Z" fill="#CED1D2"/>
<path d="M7277.85 7603.32L7278.4 7605.98L7299.31 7601.89L7305.17 7600.87L7304.63 7598.14L7298.84 7599.23L7277.85 7603.32Z" fill="#CED1D2"/>
<path d="M7344.83 7590.65L7345.3 7593.3L7346.12 7593.17L7372.15 7588.47L7371.67 7585.74L7345.65 7590.51L7344.83 7590.65Z" fill="#CED1D2"/>
<path d="M7731.2 7530.28L7735.29 7529.74L7734.88 7527.01L7730.79 7527.62L7721.39 7528.92L7721.8 7531.64L7731.2 7530.28Z" fill="#CED1D2"/>
<path d="M7546.23 7555.63L7546.7 7558.35L7550.79 7557.67L7573.62 7553.99L7573.14 7551.34L7550.38 7554.95L7546.23 7555.63Z" fill="#CED1D2"/>
<path d="M7791.57 7521.84L7802.75 7520.27L7802.4 7517.54L7791.23 7519.11L7788.91 7519.45L7789.26 7522.11L7791.57 7521.84Z" fill="#CED1D2"/>
<path d="M7821.82 7517.68L7843.28 7514.75L7842.87 7512.02L7821.41 7514.95L7815.89 7515.7L7816.23 7518.43L7821.82 7517.68Z" fill="#CED1D2"/>
<path d="M7184.86 7624.58L7198.21 7621.79L7197.6 7619.13L7184.31 7621.92L7184.86 7624.58Z" fill="#CED1D2"/>
<path d="M7761.39 7525.99L7775.76 7524.01L7775.42 7521.29L7760.98 7523.33L7748.38 7525.1L7748.78 7527.83L7761.39 7525.99Z" fill="#CED1D2"/>
<path d="M7587.03 7551.88L7600.52 7549.77L7600.11 7547.11L7586.62 7549.22L7587.03 7551.88Z" fill="#CED1D2"/>
<path d="M7613.54 7545L7613.95 7547.66L7640.86 7543.57H7640.93L7640.52 7540.84L7640.45 7540.91L7613.54 7545Z" fill="#CED1D2"/>
<path d="M7654.42 7541.53L7667.84 7539.55L7667.43 7536.82L7654.01 7538.87L7654.42 7541.53Z" fill="#CED1D2"/>
<path d="M7700.68 7531.92L7680.92 7534.85L7681.33 7537.5L7701.02 7534.64L7708.31 7533.62L7707.9 7530.89L7700.68 7531.92Z" fill="#CED1D2"/>
<path d="M7452.61 7574.16L7466.03 7571.84L7465.62 7569.19L7452.13 7571.5L7452.61 7574.16Z" fill="#CED1D2"/>
<path d="M7144.25 7630.23L7144.8 7632.89L7163.4 7628.94L7171.5 7627.3L7170.96 7624.64L7162.85 7626.28L7144.25 7630.23Z" fill="#CED1D2"/>
<path d="M6682.66 7750.15L6683.54 7752.74L6685.18 7752.19L6709.5 7744.49L6708.68 7741.9L6684.36 7749.6L6682.66 7750.15Z" fill="#CED1D2"/>
<path d="M6747.72 7729.84L6748.54 7732.43L6757.67 7729.64L6774.63 7724.66L6773.88 7722.07L6756.85 7727.05L6747.72 7729.84Z" fill="#CED1D2"/>
<path d="M6786.96 7718.26L6787.71 7720.85L6794.93 7718.74L6800.79 7717.1L6800.04 7714.45L6794.18 7716.08L6786.96 7718.26Z" fill="#CED1D2"/>
<path d="M6813.2 7710.76L6813.94 7713.35L6832.95 7707.97L6840.18 7706.06L6839.43 7703.41L6832.27 7705.38L6813.2 7710.76Z" fill="#CED1D2"/>
<path d="M6657.65 7761.25L6670.6 7757.03L6669.71 7754.44L6656.77 7758.66L6657.65 7761.25Z" fill="#CED1D2"/>
<path d="M6554.98 7797.84L6580.53 7788.23L6579.57 7785.71L6554.02 7795.25L6554.98 7797.84Z" fill="#CED1D2"/>
<path d="M6529.63 7807.65L6542.3 7802.67L6541.28 7800.15L6528.61 7805.13L6529.63 7807.65Z" fill="#CED1D2"/>
<path d="M6618.95 7774.47L6644.77 7765.61L6643.82 7763.02L6618.06 7771.88L6618.95 7774.47Z" fill="#CED1D2"/>
<path d="M6593.33 7783.67L6606.14 7779.03L6605.18 7776.45L6592.38 7781.08L6593.33 7783.67Z" fill="#CED1D2"/>
<path d="M6722.44 7740.4L6735.53 7736.38L6734.71 7733.79L6721.7 7737.74L6722.44 7740.4Z" fill="#CED1D2"/>
<path d="M7078.23 7647.26L7104.87 7641.47L7104.26 7638.82L7077.62 7644.61L7078.23 7647.26Z" fill="#CED1D2"/>
<path d="M7051.66 7653.33L7064.95 7650.26L7064.33 7647.61L7051.05 7650.67L7051.66 7653.33Z" fill="#CED1D2"/>
<path d="M7117.61 7635.89L7118.15 7638.55L7119.52 7638.27L7131.51 7635.68L7130.89 7633.03L7118.97 7635.62L7117.61 7635.89Z" fill="#CED1D2"/>
<path d="M7011.19 7659.87L7011.87 7662.53L7034.01 7657.28L7038.37 7656.33L7037.76 7653.67L7033.4 7654.63L7011.19 7659.87Z" fill="#CED1D2"/>
<path d="M6879.63 7695.44L6905.99 7688.56L6905.31 7685.9L6878.95 7692.78L6879.63 7695.44Z" fill="#CED1D2"/>
<path d="M6919.2 7685.15L6932.42 7681.81L6931.74 7679.15L6918.52 7682.49L6919.2 7685.15Z" fill="#CED1D2"/>
<path d="M6853.33 7702.45L6866.48 7698.91L6865.73 7696.25L6852.58 7699.87L6853.33 7702.45Z" fill="#CED1D2"/>
<path d="M6984.68 7666.14L6985.29 7668.79L6992.31 7667.09L6998.58 7665.59L6997.9 7663L6991.7 7664.43L6984.68 7666.14Z" fill="#CED1D2"/>
<path d="M6944.96 7675.88L6945.64 7678.47L6951.43 7677.04L6972.08 7672L6971.4 7669.34L6950.75 7674.38L6944.96 7675.88Z" fill="#CED1D2"/>
<path d="M8613.71 7410.61L8600.21 7412.49L8600.59 7415.19L8614.08 7413.31L8613.71 7410.61Z" fill="#CED1D2"/>
<path d="M9125.71 7339.56L9098.7 7343.18L9099.06 7345.88L9126.07 7342.26L9125.71 7339.56Z" fill="#CED1D2"/>
<path d="M9084.89 7345.57L9071.38 7347.39L9071.75 7350.09L9085.25 7348.27L9084.89 7345.57Z" fill="#CED1D2"/>
<path d="M9153.56 7336.04L9140.05 7337.83L9140.41 7340.53L9153.92 7338.74L9153.56 7336.04Z" fill="#CED1D2"/>
<path d="M9057.97 7349.29L9030.96 7352.96L9031.33 7355.66L9058.33 7351.99L9057.97 7349.29Z" fill="#CED1D2"/>
<path d="M9018.01 7354.39L9004.51 7356.23L9004.88 7358.93L9018.38 7357.09L9018.01 7354.39Z" fill="#CED1D2"/>
<path d="M9261.51 7324.8L9261.17 7322.14L9256.61 7322.69L9234.12 7325.62L9234.47 7328.34L9256.95 7325.41L9261.51 7324.8Z" fill="#CED1D2"/>
<path d="M9220.98 7330.11L9220.64 7327.39L9217.23 7327.86L9207.08 7329.16L9207.42 7331.88L9217.57 7330.52L9220.98 7330.11Z" fill="#CED1D2"/>
<path d="M9193.93 7333.65L9193.59 7331L9177.78 7333.04L9166.54 7334.54L9166.95 7337.26L9178.12 7335.76L9193.93 7333.65Z" fill="#CED1D2"/>
<path d="M8950.83 7366.49L8950.49 7363.77L8940.68 7365.13L8937 7365.61L8937.34 7368.33L8941.09 7367.79L8950.83 7366.49Z" fill="#CED1D2"/>
<path d="M8855.82 7376.34L8828.83 7380.08L8829.2 7382.78L8856.2 7379.04L8855.82 7376.34Z" fill="#CED1D2"/>
<path d="M8788.88 7388.84L8788.47 7386.18L8781.39 7387.14L8761.49 7389.93L8761.83 7392.59L8781.73 7389.86L8788.88 7388.84Z" fill="#CED1D2"/>
<path d="M8815.46 7382.68L8801.96 7384.56L8802.34 7387.26L8815.83 7385.38L8815.46 7382.68Z" fill="#CED1D2"/>
<path d="M8748.35 7394.49L8748.01 7391.77L8741.26 7392.72L8734.52 7393.68L8734.86 7396.4L8741.67 7395.45L8748.35 7394.49Z" fill="#CED1D2"/>
<path d="M8991.37 7360.91L8990.96 7358.18L8980.34 7359.68L8963.98 7361.93L8964.32 7364.58L8980.68 7362.34L8991.37 7360.91Z" fill="#CED1D2"/>
<path d="M9287.61 7318.8L9274.09 7320.55L9274.44 7323.25L9287.96 7321.5L9287.61 7318.8Z" fill="#CED1D2"/>
<path d="M8883.27 7372.95L8869.77 7374.81L8870.15 7377.51L8883.64 7375.65L8883.27 7372.95Z" fill="#CED1D2"/>
<path d="M8923.86 7370.17L8923.45 7367.45L8900.97 7370.58L8896.47 7371.2L8896.88 7373.92L8901.37 7373.24L8923.86 7370.17Z" fill="#CED1D2"/>
<path d="M9694.36 7272.27L9694.09 7269.61L9692.73 7269.75L9680.53 7271.11L9680.87 7273.83L9693 7272.47L9694.36 7272.27Z" fill="#CED1D2"/>
<path d="M8721.36 7398.24L8721.02 7395.52L8701.06 7398.31L8693.98 7399.34L8694.38 7401.99L8701.47 7401.04L8721.36 7398.24Z" fill="#CED1D2"/>
<path d="M9733.12 7268.04L9727.06 7268.66L9718.61 7279.29L9729.51 7278.13L9739.25 7266L9727.13 7256.26L9716.16 7257.42L9726.79 7266L9732.85 7265.32L9733.12 7268.04Z" fill="#CED1D2"/>
<path d="M9626.15 7277.24L9612.61 7278.79L9612.92 7281.5L9626.46 7279.95L9626.15 7277.24Z" fill="#CED1D2"/>
<path d="M9667.31 7275.33L9666.97 7272.61L9652.73 7274.24L9639.92 7275.67L9640.19 7278.4L9653 7276.97L9667.31 7275.33Z" fill="#CED1D2"/>
<path d="M9727.06 7268.65L9733.12 7268.04L9732.85 7265.32L9726.79 7266L9728.29 7267.16L9727.06 7268.65Z" fill="#CED1D2"/>
<path d="M9328.76 7313.42L9301.71 7316.89L9302.05 7319.55L9329.1 7316.14L9328.76 7313.42Z" fill="#CED1D2"/>
<path d="M9773.18 7273.36L9782.93 7261.23L9770.8 7251.49L9759.9 7252.65L9772.03 7262.39L9762.28 7274.52L9773.18 7273.36Z" fill="#CED1D2"/>
<path d="M9707.91 7270.77L9727.06 7268.66L9728.28 7267.16L9726.79 7266L9707.64 7268.11L9707.91 7270.77Z" fill="#CED1D2"/>
<path d="M9738.03 7255.03L9750.16 7264.77L9740.42 7276.9L9751.32 7275.74L9761.06 7263.61L9748.93 7253.87L9738.03 7255.03Z" fill="#CED1D2"/>
<path d="M9599.58 7283.1L9599.31 7280.38L9573.01 7283.44L9572.2 7283.51L9572.54 7286.24L9573.29 7286.17L9599.58 7283.1Z" fill="#CED1D2"/>
<path d="M9423.74 7304.22L9423.39 7301.5L9414.47 7302.59L9409.84 7303.2L9410.18 7305.92L9414.81 7305.31L9423.74 7304.22Z" fill="#CED1D2"/>
<path d="M9396.69 7307.56L9396.35 7304.9L9374.95 7307.56L9369.3 7308.24L9369.64 7310.97L9375.29 7310.28L9396.69 7307.56Z" fill="#CED1D2"/>
<path d="M6252.95 7927.36L6243.48 7932.81L6239.39 7947.86L6254.38 7951.88L6263.92 7946.43L6248.93 7942.34L6252.95 7927.36Z" fill="#CED1D2"/>
<path d="M9464.28 7299.25L9463.94 7296.52L9453.99 7297.75L9436.89 7299.86L9437.23 7302.52L9454.33 7300.41L9464.28 7299.25Z" fill="#CED1D2"/>
<path d="M9559.05 7285.14L9545.52 7286.75L9545.84 7289.45L9559.37 7287.85L9559.05 7285.14Z" fill="#CED1D2"/>
<path d="M9491.76 7293.08L9478.23 7294.73L9478.56 7297.43L9492.09 7295.78L9491.76 7293.08Z" fill="#CED1D2"/>
<path d="M9532.31 7288.16L9505.25 7291.41L9505.58 7294.12L9532.63 7290.87L9532.31 7288.16Z" fill="#CED1D2"/>
<path d="M9356.35 7309.76L9342.84 7311.48L9343.18 7314.18L9356.7 7312.47L9356.35 7309.76Z" fill="#CED1D2"/>
<path d="M7869.92 7508.41L7856.43 7510.25L7856.77 7512.91L7870.26 7511.14L7869.92 7508.41Z" fill="#CED1D2"/>
<path d="M6428.05 7847.37L6429.21 7849.89L6454.07 7838.78L6452.92 7836.33L6428.05 7847.37Z" fill="#CED1D2"/>
<path d="M7910.63 7502.84L7883.61 7506.41L7883.97 7509.11L7910.98 7505.54L7910.63 7502.84Z" fill="#CED1D2"/>
<path d="M6465.52 7830.95L6466.61 7833.47L6479.14 7828.09L6478.05 7825.57L6465.52 7830.95Z" fill="#CED1D2"/>
<path d="M6516.89 7812.55L6515.87 7810.03L6515.59 7810.17L6490.66 7820.32L6491.68 7822.84L6516.55 7812.69L6516.89 7812.55Z" fill="#CED1D2"/>
<path d="M8005.44 7493.49L8005.03 7490.77L8003.19 7491.04L7991.54 7492.54L7991.88 7495.26L8003.53 7493.76L8005.44 7493.49Z" fill="#CED1D2"/>
<path d="M7978.39 7496.97L7978.05 7494.24L7972.87 7494.92L7951 7497.79L7951.34 7500.44L7973.21 7497.65L7978.39 7496.97Z" fill="#CED1D2"/>
<path d="M7937.62 7499.92L7924.11 7501.68L7924.46 7504.39L7937.97 7502.62L7937.62 7499.92Z" fill="#CED1D2"/>
<path d="M6272.02 7916.39L6262.48 7921.9L6258.46 7936.89L6273.45 7940.91L6282.99 7935.46L6268 7931.38L6272.02 7916.39Z" fill="#CED1D2"/>
<path d="M6283.6 7923.95L6288.99 7920.95L6287.01 7920.41L6287.49 7918.64L6282.24 7921.63L6283.6 7923.95Z" fill="#CED1D2"/>
<path d="M6288.99 7920.95L6295.46 7917.27L6294.17 7914.96L6287.49 7918.64L6287.02 7920.41L6288.99 7920.95Z" fill="#CED1D2"/>
<path d="M8045.97 7488.31L8045.63 7485.66L8033.51 7487.16L8018.59 7489.06L8018.93 7491.79L8033.85 7489.88L8045.97 7488.31Z" fill="#CED1D2"/>
<path d="M6283.61 7923.95L6282.25 7921.63L6287.49 7918.64L6291.03 7905.42L6281.56 7910.94L6277.48 7925.92L6292.53 7929.95L6302 7924.49L6288.99 7920.95L6283.61 7923.95Z" fill="#CED1D2"/>
<path d="M6366.45 7876.6L6367.68 7879.05L6392.14 7867.06L6390.91 7864.68L6366.45 7876.6Z" fill="#CED1D2"/>
<path d="M6308.95 7906.58L6306.02 7908.28L6307.39 7910.6L6310.25 7908.96L6331.37 7897.72L6330.01 7895.34L6308.95 7906.58Z" fill="#CED1D2"/>
<path d="M6403.31 7858.82L6404.47 7861.27L6416.8 7855.55L6415.64 7853.09L6403.31 7858.82Z" fill="#CED1D2"/>
<path d="M6342.13 7889L6343.36 7891.38L6355.56 7885.18L6354.26 7882.8L6342.13 7889Z" fill="#CED1D2"/>
<path d="M8518.88 7426.45L8518.54 7423.73L8498.03 7426.59L8491.55 7427.47L8491.9 7430.2L8498.37 7429.31L8518.88 7426.45Z" fill="#CED1D2"/>
<path d="M8451.43 7435.78L8451.02 7433.06L8426.83 7436.4L8424.04 7436.81L8424.38 7439.46L8427.17 7439.12L8451.43 7435.78Z" fill="#CED1D2"/>
<path d="M8383.9 7444.92L8383.5 7442.26L8366.53 7444.51L8356.52 7445.8L8356.86 7448.53L8366.87 7447.23L8383.9 7444.92Z" fill="#CED1D2"/>
<path d="M8410.54 7438.58L8397.05 7440.42L8397.4 7443.14L8410.89 7441.3L8410.54 7438.58Z" fill="#CED1D2"/>
<path d="M8073.02 7484.91L8072.68 7482.18L8063.83 7483.34L8059.12 7483.88L8059.47 7486.61L8064.17 7486L8073.02 7484.91Z" fill="#CED1D2"/>
<path d="M8478.5 7429.49L8465 7431.36L8465.37 7434.06L8478.87 7432.19L8478.5 7429.49Z" fill="#CED1D2"/>
<path d="M8545.93 7422.7L8545.52 7419.98L8538.91 7420.93L8532.03 7421.88L8532.44 7424.54L8539.32 7423.59L8545.93 7422.7Z" fill="#CED1D2"/>
<path d="M8680.31 7400.84L8666.81 7402.72L8667.19 7405.42L8680.68 7403.54L8680.31 7400.84Z" fill="#CED1D2"/>
<path d="M8653.38 7404.52L8626.39 7408.28L8626.77 7410.98L8653.76 7407.22L8653.38 7404.52Z" fill="#CED1D2"/>
<path d="M8586.4 7417.05L8586.06 7414.32L8579.72 7415.21L8559.01 7418.14L8559.42 7420.79L8580.06 7417.93L8586.4 7417.05Z" fill="#CED1D2"/>
<path d="M8140.38 7473.82L8126.86 7475.53L8127.2 7478.23L8140.72 7476.52L8140.38 7473.82Z" fill="#CED1D2"/>
<path d="M8208.1 7464.57L8194.59 7466.29L8194.93 7469L8208.45 7467.28L8208.1 7464.57Z" fill="#CED1D2"/>
<path d="M8181.15 7471.21L8180.81 7468.49L8154.71 7471.83L8153.76 7471.89L8154.1 7474.62L8155.05 7474.48L8181.15 7471.21Z" fill="#CED1D2"/>
<path d="M8343.37 7450.3L8343.03 7447.57L8336.28 7448.46L8329.47 7449.34L8329.81 7452.07L8336.69 7451.18L8343.37 7450.3Z" fill="#CED1D2"/>
<path d="M8113.56 7479.73L8113.22 7477.07L8094.14 7479.46L8086.17 7480.48L8086.51 7483.2L8094.48 7482.18L8113.56 7479.73Z" fill="#CED1D2"/>
<path d="M8274.81 7456.26L8261.3 7458L8261.64 7460.7L8275.16 7458.96L8274.81 7456.26Z" fill="#CED1D2"/>
<path d="M8316.32 7453.84L8315.98 7451.11L8306.1 7452.41L8288.93 7454.66L8289.27 7457.38L8306.44 7455.13L8316.32 7453.84Z" fill="#CED1D2"/>
<path d="M8248.73 7462.56L8248.39 7459.9L8245.6 7460.24L8221.34 7463.31L8221.68 7466.03L8245.94 7462.97L8248.73 7462.56Z" fill="#CED1D2"/>
<path d="M8022.67 7298.97L7859.7 7.22137L7859.63 4.49609L7849.62 4.70049L8012.79 7304.77L8012.93 7310.35L9798.87 7075.5L9801.26 7075.23V7065.08L8022.67 7298.97Z" fill="#D2D2D2"/>
<path d="M7700.41 7257.28H7706.88L7706.95 7254.62C7710.76 7040.21 7705.99 6609.41 7691.96 5898.93L7691.89 5896.27H7685.08C7697.07 6500.19 7704.02 7009.35 7700.41 7257.28Z" fill="#D2D2D2"/>
<path d="M7681.94 5898.93C7695.98 6609.55 7700.75 7040.28 7696.93 7254.42L7696.86 7257.21H7700.41C7704.02 7009.28 7697 6500.13 7685.08 5896.14H7681.88L7681.94 5898.93Z" fill="#D2D2D2"/>
<path d="M7666.62 7296.52H7639.3V7326.98H7666.62V7296.52Z" fill="#DBDADA"/>
<path d="M7633.84 7330.93H7672.07V7291.34H7633.84V7330.93ZM7638.75 7296.18H7666.82V7325.34H7666.62V7325.48H7639.29V7325.34H7638.75V7296.18Z" fill="#D2D2D2"/>
<path d="M7639.29 7296.8H7666.62V7325.34H7666.82V7296.18H7638.75V7325.34H7639.29V7296.8Z" fill="#D2D2D2"/>
<path d="M8068.19 7124.76H8027.38V7189.28H8068.19V7124.76Z" fill="#DBDADA"/>
<path d="M8070.09 7122.79H8025.67V7191.67H8070.09V7122.79ZM8068.19 7186.83H8065.6V7187.1H8030.31V7186.83H8028.74V7124.49H8068.25V7186.83H8068.19Z" fill="#D5D4D4"/>
<path d="M8028.67 7186.83H8030.24V7127.35H8065.6V7186.83H8068.19V7124.56H8028.67V7186.83Z" fill="#D5D4D4"/>
<path d="M7663.68 7241.27C7663.82 7241.06 7663.82 7240.72 7663.68 7240.52C7663.61 7240.38 7663.48 7240.38 7663.41 7240.52C7663.34 7240.65 7663.34 7240.79 7663.27 7240.86C7663.34 7240.99 7663.34 7241.13 7663.41 7241.2C7663.48 7241.4 7663.61 7241.4 7663.68 7241.27Z" fill="white"/>
<path d="M2004.04 5434.34C2214.29 5582.25 2452.55 5750 2657.97 5944.1C2723.44 6005.97 2781.28 6070.22 2837.29 6132.28C2970.96 6280.61 3097.14 6420.75 3306.04 6508.37C3526.65 6600.9 3769.13 6623.18 4003.78 6644.77C4269.49 6669.23 4544.27 6694.51 4795.95 6820.35C4919.61 6882.14 5081.08 6902.58 5237.37 6922.34C5356.81 6937.47 5480.26 6953.07 5585.73 6987C5846.06 7070.87 5970.54 7339.04 6066.74 7583.77L6068.17 7587.45L6072.06 7586.9C6074.31 7586.56 6082.69 7585.54 6096.45 7583.84L6103.94 7582.88C6679.79 7512.57 7232 7432.51 7700.89 7351.37L7704.91 7350.69L7705.04 7346.67C7705.66 7331.27 7706.2 7304.49 7706.61 7283.03L7706.82 7272.4H7700.21C7699.73 7300.13 7699.12 7324.39 7698.37 7344.56C7230.1 7425.56 6678.64 7505.48 6103.6 7575.73C6088.07 7577.64 6077.78 7578.86 6073.35 7579.47C6025.8 7458.61 5971.22 7331.75 5894.91 7222.46C5807.77 7097.71 5707.55 7018.41 5588.53 6980.05C5482.38 6945.85 5358.51 6930.18 5238.74 6915.05C5083.12 6895.36 4922.26 6875.06 4799.69 6813.74C4546.79 6687.29 4271.33 6661.94 4004.93 6637.41C3770.9 6615.88 3528.96 6593.61 3309.38 6501.56C3102.05 6414.62 2976.35 6275.09 2843.22 6127.31C2787.14 6065.11 2729.23 6000.79 2663.48 5938.72C2457.66 5744.27 2219.13 5576.4 2008.74 5428.34C1800.8 5282 1621.13 5155.61 1535.08 5045.99C1450.74 4938.61 1482.55 4638.29 1524.8 4358.61C1532.7 4306.42 1539.38 4255.66 1545.78 4206.53C1596.95 3816.62 1633.94 3534.82 2148.95 3501.3C2227.92 3496.19 2312.26 3492.51 2393.82 3488.97C2588.4 3480.52 2789.66 3471.73 2959.99 3442.3C3262.84 3389.91 3491.22 3217.12 3602.96 2955.77C3694.32 2742.11 3707.06 2485.11 3696.09 2207.41C4288.5 2183.42 4927.1 2160.6 5545.13 2156.17C5774.32 2154.54 5937.63 2156.1 6016.73 2160.53V2153.38C5938.45 2148.75 5780.52 2147.25 5544.58 2148.88C4920.9 2153.31 4287.21 2176.13 3695.34 2200.12L3688.05 2200.39L3688.32 2207.61C3697.8 2446.96 3694.18 2722.62 3595.8 2952.84C3485.02 3211.88 3258.62 3383.16 2958.29 3435.08C2788.37 3464.44 2587.38 3473.23 2392.52 3481.68C2311.11 3485.22 2226.89 3488.9 2148.07 3494.01C1908.11 3509.61 1755.15 3580.4 1666.85 3716.73C1585.91 3841.69 1563.77 4010.31 1538.15 4205.58C1531.74 4254.43 1525.14 4304.92 1517.16 4357.52C1474.65 4638.76 1442.83 4941 1528.88 5050.49C1615.62 5160.93 1795.62 5287.65 2004.04 5434.34Z" fill="#D2D2D2"/>
<path d="M6069.67 2166.94C6075.53 2170.41 6083.09 2177.97 6092.7 2187.51C6116.41 2211.09 6156.06 2250.47 6225.63 2284.46C6381.85 2360.84 6582.09 2383.39 6792.42 2383.39C6952.18 2383.39 7117.81 2370.38 7274.45 2358.05C7387.82 2349.12 7501.12 2340.6 7596.03 2338.15C7607.48 2741.08 7639.64 3889.86 7665.46 4993.32H7672.27L7672.2 4990.53C7646.72 3899.94 7615.18 2772.15 7602.84 2337.88L7602.64 2330.66L7595.42 2330.86C7501.53 2333.31 7389.59 2341.69 7273.43 2350.82C6911.58 2379.23 6501.42 2411.46 6228.35 2277.92C6159.88 2244.4 6120.77 2205.57 6097.4 2182.33C6087.04 2172.05 6079.62 2164.69 6073.01 2160.67C6071.17 2159.58 6067.35 2158.56 6061.84 2157.6V2164.69C6065.65 2165.44 6068.38 2166.19 6069.67 2166.94Z" fill="#D2D2D2"/>
<path d="M7696.59 7284.87C7696.25 7304.02 7695.77 7327.59 7695.23 7342.24C7227.64 7423.11 6677.06 7502.89 6102.78 7573L6098.9 7573.48C6087.45 7574.91 6079.28 7575.86 6074.57 7576.48C6027.22 7456.22 5972.85 7330.11 5896.61 7220.89C5809.13 7095.6 5708.43 7016.02 5588.79 6977.46C5482.37 6943.19 5358.37 6927.52 5238.53 6912.33C5083.19 6892.7 4922.53 6872.4 4800.44 6811.35C4547.06 6684.7 4271.33 6659.28 4004.73 6634.76C3770.9 6613.23 3529.16 6591.02 3309.92 6499.11C3103.14 6412.37 2977.64 6273.04 2844.57 6125.33C2788.57 6063.13 2730.59 5998.88 2664.91 5936.74C2459.02 5742.16 2220.42 5574.28 2009.82 5426.1C1802.02 5279.88 1622.56 5153.57 1536.71 5044.28C1452.98 4937.73 1484.8 4638.08 1526.97 4358.95C1534.87 4306.82 1541.48 4256.07 1547.96 4206.81C1598.99 3818.11 1635.85 3537.34 2148.61 3503.96C2227.23 3498.85 2311.24 3495.17 2392.45 3491.63L2393.54 3491.56C2588.19 3483.11 2789.46 3474.32 2959.92 3444.89C3263.72 3392.36 3492.78 3218.96 3604.93 2956.72C3703.79 2725.55 3707.81 2449.68 3698.4 2209.93C4259.47 2187.24 4857.94 2165.64 5449.6 2159.71C5450.42 2159.71 5451.17 2159.71 5451.98 2159.71V2159.58L5508.06 2159.17H5510.31V2159.24C5521.75 2159.17 5533.2 2159.03 5544.58 2158.96C5770.77 2157.33 5935.65 2158.96 6015.16 2163.26C6015.37 2163.26 6015.57 2163.26 6015.78 2163.26C6016.05 2163.26 6016.32 2163.26 6016.59 2163.32V2160.6C5937.49 2156.17 5774.18 2154.54 5544.98 2156.24C4927.03 2160.67 4288.43 2183.42 3695.95 2207.47C3706.92 2485.18 3694.18 2742.17 3602.82 2955.84C3491.01 3217.19 3262.7 3389.97 2959.85 3442.37C2789.52 3471.8 2588.26 3480.59 2393.68 3489.04C2312.12 3492.58 2227.78 3496.26 2148.81 3501.37C1633.8 3534.89 1596.81 3816.68 1545.64 4206.6C1539.17 4255.72 1532.49 4306.55 1524.65 4358.67C1482.41 4638.35 1450.6 4938.75 1534.94 5046.06C1621.06 5155.68 1800.66 5282.06 2008.6 5428.41C2219.06 5576.53 2457.52 5744.34 2663.34 5938.79C2729.02 6000.86 2787 6065.17 2843.08 6127.38C2976.21 6275.09 3101.91 6414.69 3309.23 6501.63C3528.82 6593.74 3770.83 6615.95 4004.79 6637.48C4271.19 6662.01 4546.65 6687.35 4799.55 6813.81C4922.05 6875.06 5082.98 6895.43 5238.6 6915.12C5358.37 6930.24 5482.24 6945.91 5588.38 6980.12C5707.41 7018.48 5807.63 7097.71 5894.77 7222.53C5971.08 7331.81 6025.66 7458.61 6073.21 7579.54C6077.64 7579 6087.93 7577.7 6103.46 7575.79C6678.56 7505.62 7229.96 7425.7 7698.23 7344.62C7698.98 7324.39 7699.59 7300.2 7700.07 7272.47H7696.66L7696.59 7284.87Z" fill="#D2D2D2"/>
<path d="M7274.45 2358.12C7117.81 2370.45 6952.18 2383.46 6792.42 2383.46C6582.09 2383.46 6381.85 2360.91 6225.63 2284.53C6156.13 2250.54 6116.41 2211.16 6092.7 2187.58C6083.09 2178.04 6075.53 2170.55 6069.67 2167.01C6068.38 2166.26 6065.65 2165.51 6061.84 2164.76V2167.48C6064.77 2168.1 6066.81 2168.64 6067.83 2169.32C6069.33 2170.21 6071.03 2171.5 6072.87 2173C6073.08 2173.14 6073.21 2173.27 6073.35 2173.41C6078.05 2177.29 6083.64 2182.88 6090.32 2189.49C6114.16 2213.13 6154.02 2252.78 6223.92 2286.99C6362.37 2354.71 6542.85 2386.19 6791.94 2386.19C6951.78 2386.19 7115.63 2373.31 7274.18 2360.84C7389.11 2351.85 7499.96 2343.54 7592.9 2341.02C7605.3 2778.01 7636.77 3904.85 7662.19 4990.73L7662.26 4993.39H7665.46C7639.64 3889.93 7607.48 2741.15 7596.03 2338.22C7501.12 2340.67 7387.82 2349.19 7274.45 2358.12Z" fill="#D2D2D2"/>
</g>
<path d="M4162.25 3989.54H3925.77V4370.12H4162.25V3989.54Z" fill="#FCE9D0"/>
<path d="M4229.43 3993.08H4166.13V4073.06H4229.43V3993.08Z" fill="white"/>
<path d="M4452.69 3907.37H4253.41V4073.06H4452.69V3907.37Z" fill="white"/>
<path d="M4452.69 3906.82H4021.01V3993.01H4452.69V3906.82Z" fill="white"/>
<path d="M4409.5 3678.1H4349.27V3909.75H4409.5V3678.1Z" fill="white"/>
<path d="M4685.64 3678.1H4375.91V3790.32H4685.64V3678.1Z" fill="white"/>
<path d="M4450.72 3875.28H4390.49V3961.46H4450.72V3875.28Z" fill="white"/>
<path opacity="0.8" d="M4022.72 3912.68H3925.77V3993.08H4022.72V3912.68Z" fill="#DBDADA"/>
<path opacity="0.8" d="M4022.72 3319.73H3925.77V3909.62H4022.72V3319.73Z" fill="#DBDADA"/>
<path d="M4066.39 3315.57H4023.05V3909.62H4066.39V3315.57Z" fill="white"/>
<path opacity="0.8" d="M4233.59 3086.58H3925.77V3315.64H4233.59V3086.58Z" fill="#DBDADA"/>
<path opacity="0.8" d="M4250.28 3993.08H4231.54V4073.06H4250.28V3993.08Z" fill="#DBDADA"/>
<path d="M4459.85 3792.9V3787.45H4409.5V3874.8H4452.56V4347.22H4689.05V3792.9H4459.85Z" fill="#FCE9D0"/>
<path d="M4640.94 3738.67H4624.93V3738.54H4406.7V3743.85H4640.94V3738.67Z" fill="#D5D4D4"/>
<path d="M4347.23 4033.14H4285.91V4038.45H4351.72V4033.21H4347.23V4033.14Z" fill="#D5D4D4"/>
<path d="M4347.7 3676.06V3792.91H4347.77V3904.85H4332.24V3904.78H4069.79V3319.8H4238.97V3082.9H3920.31V3314.69V3319.8V3907.44V3994.92V4375.64H4167.77V4075.38H4449.29V4349.13H4689.04V3792.91V3787.46V3676.06H4347.7ZM3925.76 3320.07H3948.45V3319.73H4019.1H4019.17H4021.01V3359.52H4020.94V3907.37H3925.76V3320.07ZM4227.72 4069.93H4167.77V3995.26H4227.72V4069.93ZM4248.3 4069.93H4233.11V3995.26H4248.3V4069.93ZM4683.66 3787.46H4478.93H4449.29H4405.96V3787.59V3792.91V3876.84H4449.29V3941.57H4454.74V3876.84V3874.12V3871.39H4411.41V3792.91H4449.29H4454.74H4454.94H4471.16H4473.48H4478.93H4683.59V4343.55H4454.74V3982.72H4449.29V4070H4431.03V4069.93H4253.82V3995.26H4351.79V3990.01H4338.78V3989.94H4253.75H4248.3H4233.11H4227.66H4162.25V3990.01H4160.68V3989.94H4065.71V3995.26H4162.18V4069.93V4075.24V4370.05H3925.76V3994.85H4026.53V3989.6H4019.65V3989.53H3925.76V3912.68H4020.6L4020.74 3969.03H4020.94H4026.26V3314.62H4025.58V3314.28H4022.71H4019.17H3925.83V3088.28H4233.65V3314.28H4069.32H4064.68V3319.73V3341.26V3355.43H4064.62V3904.71H4064.55V3910.02H4064.62H4069.93H4347.84H4352.06H4353.22V3792.84V3787.52V3772.33V3771.1V3681.24H4683.8V3787.46H4683.66Z" fill="#D5D4D4"/>
</g>
<defs>
<clipPath id="clip0_1503_14880">
<rect width="9811" height="9811" fill="white"/>
</clipPath>
</defs>
</svg>
