<svg width="9811" height="9811" viewBox="0 0 9811 9811" fill="none" xmlns="http://www.w3.org/2000/svg">
<g clip-path="url(#clip0_1503_25700)">
<path d="M9813.86 14.7852H19.8906V9795.67H9813.86V14.7852Z" fill="#F9F5EB"/>
<g opacity="0.3">
<path d="M6842.9 6671.34H6842.49V6960.5H6938.83H6940.26V6671.34H6938.83H6842.9Z" fill="#D5D4D4"/>
<path d="M5613.67 4904.34V4846.71L5525.98 4848L5492.66 4899.23L5468.41 4885.74L5463.3 4877.64L5439.72 4728.09L5438.02 4728.36L5437.89 4727.61L5373.7 4737.08L5390.12 4844.12L5393.74 4846.91L5394.01 4848.61C5393.12 4851.61 5391.28 4857.47 5389.78 4861.49L5352.65 4922.6L5327.78 4908.23L5224.5 4848.41L5054.3 4749.41L4973.43 4700.9L4903.94 4659.96L4904.82 4658.39L4901.76 4656.75L4914.56 4635.16L4917.15 4627.8L4832.26 4579.49L4815.7 4606.4L4815.57 4606.34L4814.68 4607.77L4761.61 4577.52L4734.83 4621.67L4691.98 4693.48L4745.32 4723.86L4746.82 4725.91L4745.32 4728.7L4747.44 4729.86L4712.28 4790.16L4795.74 4837.37L4827.42 4783.14L4832.67 4775.51L4835.6 4777.21L4835.8 4776.94L4946.65 4840.98L5068.54 4913.75L5240.03 5014.11L5313.41 5055.46L5312.73 5056.55L5318.18 5059.82L5318.93 5058.6L5341.41 5071.27L5340.46 5072.77L5343.18 5073.72L5316.47 5120.39L5313.2 5119.3L5243.98 5062.34L5242.07 5209.44H5243.98V5210.33L5345.02 5211.55L5344.2 5222.79L5401.43 5223.34V5213.94L5400.14 5177.76L5431.62 5125.43L5434 5126.8L5404.02 5179.53L5405.32 5221.09L5548.8 5221.98L5609.85 5160.18L5609.1 4908.64H5558.27L5509.02 4995.23L5507.04 4994.07L5506.49 4992.85L5556.23 4904.48L5613.67 4904.34Z" fill="#D5D4D4"/>
<path d="M4759.84 4523.14L4809.51 4484.99L4830.01 4512.58L4908.5 4452.83L4889.29 4427.69L4890.11 4427.08L4889.36 4426.06L4891.33 4424.56L4890.58 4423.6L5071.34 4287.27L5307.96 4108.36L5360.22 4178.06L5358.79 4179.21L5432.51 4274.39H5480.4H5483.95V4294.02H5612.51V4165.45H5487.56C5489.06 4164.5 5490.42 4163.88 5490.42 4163.88H5600.86H5612.65L5612.92 4151.21L5612.51 4107.27L5514.95 4105.36L5451.58 4021.15L5501.11 3981.09L5483.26 3956.49L5492.33 3943.82L5455.06 3894.76L5451.45 3897.08L5432.51 3907.57L5405.18 3873.1L5392.51 3881.95L5361.04 3903.62L5330.92 3862.95L5330.38 3816.41C5331.4 3816.41 5332.35 3816.41 5333.44 3816.34C5332.01 3816.34 5331.06 3815.32 5330.31 3813.55V3812.94L5329.97 3778.87C5331.26 3761.43 5332.83 3743.37 5329.56 3737.79V3736.02L5327.24 3736.08C5327.17 3736.08 5327.04 3736.02 5326.97 3736.02C5303.94 3736.02 5245.55 3736.02 5222.52 3736.02L5222.46 3738.88H5221.64L5218.57 3815.39L5172.31 3816.14L5170.2 3905.12L5201.27 3940.89L5199.36 3942.86L5189.41 3950.15L5154.8 3978.77L5192.41 4025.85L4876.89 4266.42L4810.8 4318.34L4809.98 4317.32L4807.53 4319.16L4762.91 4260.7L4737.7 4279.5L4736.81 4278.35L4731.77 4282.23L4732.59 4283.25L4686.53 4317.59L4728.57 4372.5L4725.64 4374.68L4727.95 4377.75L4677.67 4416.93L4759.84 4523.14Z" fill="#D5D4D4"/>
<path d="M6623.18 4318.95L6573.24 4280.6L6573.44 4280.32L6568.4 4276.44L6568.19 4276.71L6548.64 4261.72L6503.27 4318.95L6500.61 4316.91L6375.79 4221.8L6119.89 4026.12L6155.59 3978.57C6155.59 3978.57 6155.18 3978.23 6154.5 3977.75L6154.91 3977.14L6112.6 3945.39C6111.71 3943.48 6111.17 3941.84 6111.17 3941.84L6139.1 3902.4V3816.28L6138.49 3816.21V3814.85H6118.05L6090.66 3813.01V3737.18L6044.94 3737.86H5981.65V3738.81L5979.47 3738.88V3802.65L5979.06 3813.69H5979.47V3864.11L5947.85 3905.33L5905.82 3874.12L5905.75 3874.19L5903.84 3872.83L5892.46 3889.31L5876.66 3907.37L5859.83 3897.29L5856.01 3894.9L5817.45 3945.46L5828.62 3955.95L5808.18 3981.22L5860.51 4021.42L5792.85 4107.34L5695.29 4106.86L5694.54 4165.25L5820.11 4163.89L5859.9 4115.31L5895.8 4144.81L5897.91 4141.95L5925.71 4164.09L5934.36 4156.39L5955.89 4170.7L6004.61 4106.86L6153.07 4220.91L6417.69 4425.17L6418.24 4425.58L6399.43 4450.59L6478.87 4512.86L6498.77 4487.72H6498.84L6500.06 4486.15L6551.09 4521.65L6627.81 4419.79L6628.7 4420.47L6632.58 4415.36L6580.73 4376.12L6623.18 4318.95Z" fill="#D5D4D4"/>
<path d="M2719.49 4775.03V5095.8V5102.13H3273V4775.03H3266.59H2719.49Z" fill="#D5D4D4"/>
<path d="M5606.38 6696.08H5407.77V6788.94H5606.38V6696.08Z" fill="#D5D4D4"/>
<path d="M3861.52 2918.03C3862 2918.03 3862.47 2918.03 3862.95 2918.03C3862.95 2918.16 3862.95 2918.23 3862.95 2918.37C3863.9 2918.37 3864.86 2918.37 3865.81 2918.37C3865.81 2918.23 3865.81 2918.16 3865.81 2918.03C3866.29 2918.03 3866.76 2918.03 3867.24 2918.03C3867.24 2918.16 3867.24 2918.23 3867.24 2918.37C3868.19 2918.37 3869.08 2918.37 3870.1 2918.37C3870.1 2918.23 3870.1 2918.16 3870.1 2918.03C3870.58 2918.03 3871.06 2918.03 3871.53 2918.03C3871.53 2918.09 3871.53 2918.23 3871.53 2918.3C3872.49 2918.3 3873.44 2918.3 3874.39 2918.3C3874.39 2918.16 3874.39 2918.09 3874.39 2918.03C3874.94 2918.03 3875.55 2918.03 3876.17 2918.03C3876.17 2917.55 3876.17 2917.07 3876.17 2916.59C3876.17 2916.46 3876.17 2916.25 3876.17 2916.12C3876.17 2915.85 3876.17 2915.64 3876.17 2915.37C3876.17 2915.3 3876.03 2915.16 3875.89 2915.16C3875.01 2915.16 3874.19 2915.16 3873.3 2915.16C3873.3 2915.3 3873.3 2915.37 3873.3 2915.5C3872.83 2915.5 3872.35 2915.5 3871.87 2915.5C3871.87 2915.37 3871.74 2915.23 3871.6 2915.23C3870.72 2915.23 3869.9 2915.23 3869.01 2915.23C3869.01 2915.37 3869.01 2915.44 3869.01 2915.57C3868.54 2915.57 3868.06 2915.57 3867.58 2915.57C3867.58 2915.44 3867.45 2915.3 3867.31 2915.3C3866.42 2915.3 3865.61 2915.3 3864.72 2915.3C3864.72 2915.44 3864.72 2915.5 3864.72 2915.64C3864.24 2915.64 3863.77 2915.64 3863.29 2915.64C3863.29 2915.57 3863.08 2915.37 3863.02 2915.37C3862.13 2915.37 3861.31 2915.37 3860.43 2915.37C3860.43 2915.5 3860.43 2915.57 3860.43 2915.71C3859.81 2915.71 3859.27 2915.71 3858.66 2915.71C3858.66 2916.73 3858.66 2917.68 3858.66 2918.57C3859.61 2918.57 3860.5 2918.57 3861.52 2918.57C3861.52 2918.23 3861.52 2918.16 3861.52 2918.03Z" fill="#D5D4D4"/>
<path d="M3857.23 2916.93C3857.23 2916.87 3857.23 2916.73 3857.23 2916.66C3857.23 2916.39 3857.23 2916.05 3857.23 2915.78C3857.23 2915.71 3857.02 2915.5 3856.96 2915.5C3856.07 2915.5 3855.25 2915.5 3854.37 2915.5C3854.37 2916.53 3854.37 2917.41 3854.37 2918.37C3855.32 2918.37 3856.28 2918.37 3857.23 2918.37C3857.23 2917.89 3857.23 2917.41 3857.23 2916.93Z" fill="#D5D4D4"/>
<path d="M3883.73 2913.73V2910.87C3883.12 2910.87 3882.5 2910.87 3881.82 2910.87C3881.82 2911.82 3881.82 2912.78 3881.82 2913.73C3882.5 2913.73 3883.12 2913.73 3883.73 2913.73Z" fill="#D5D4D4"/>
<path d="M3883.73 2918.09V2915.16C3883.12 2915.16 3882.5 2915.16 3881.82 2915.16C3881.82 2916.12 3881.82 2917.07 3881.82 2918.09C3882.37 2918.09 3882.91 2918.09 3883.46 2918.09C3883.59 2918.09 3883.59 2918.09 3883.73 2918.09Z" fill="#D5D4D4"/>
<path d="M3883.73 2906.51C3883.66 2906.51 3883.59 2906.58 3883.53 2906.58C3882.98 2906.58 3882.44 2906.58 3881.89 2906.58C3881.89 2907.6 3881.89 2908.49 3881.89 2909.51C3882.57 2909.51 3883.18 2909.51 3883.8 2909.51V2906.51H3883.73Z" fill="#D5D4D4"/>
<path d="M3877.53 2909.44C3878.42 2909.44 3879.3 2909.44 3880.12 2909.44C3880.19 2909.44 3880.39 2909.24 3880.39 2909.17C3880.39 2908.35 3880.39 2907.53 3880.39 2906.65C3879.44 2906.65 3878.49 2906.65 3877.53 2906.65C3877.53 2907.13 3877.53 2907.6 3877.53 2908.08C3877.53 2908.49 3877.53 2908.96 3877.53 2909.44Z" fill="#D5D4D4"/>
<path d="M3875.82 2913.73C3875.89 2913.73 3876.1 2913.53 3876.1 2913.39C3876.1 2913.05 3876.1 2912.64 3876.1 2912.3C3876.1 2911.96 3876.1 2911.55 3876.1 2911.21C3876.1 2911.08 3875.89 2910.87 3875.82 2910.87C3875.76 2910.87 3875.69 2910.87 3875.62 2910.87C3874.8 2910.87 3874.05 2910.87 3873.23 2910.87C3873.23 2911.89 3873.23 2912.78 3873.23 2913.73C3874.05 2913.73 3874.8 2913.73 3875.62 2913.73C3875.69 2913.73 3875.76 2913.73 3875.82 2913.73Z" fill="#D5D4D4"/>
<path d="M3880.39 2915.5C3880.39 2915.37 3880.26 2915.23 3880.12 2915.23C3879.23 2915.23 3878.42 2915.23 3877.53 2915.23C3877.53 2915.71 3877.53 2916.18 3877.53 2916.66C3877.53 2917.14 3877.53 2917.61 3877.53 2918.09C3878.49 2918.09 3879.44 2918.09 3880.39 2918.09C3880.39 2917.14 3880.39 2916.32 3880.39 2915.5Z" fill="#D5D4D4"/>
<path d="M3880.19 2913.73C3880.26 2913.73 3880.39 2913.53 3880.39 2913.39C3880.39 2913.05 3880.39 2912.64 3880.39 2912.3C3880.39 2911.96 3880.39 2911.55 3880.39 2911.21C3880.39 2911.08 3880.26 2910.87 3880.19 2910.87C3879.98 2910.87 3879.71 2910.87 3879.51 2910.87C3878.83 2910.87 3878.21 2910.87 3877.53 2910.87C3877.53 2911.89 3877.53 2912.78 3877.53 2913.73C3878.21 2913.73 3878.89 2913.73 3879.51 2913.73C3879.78 2913.73 3879.98 2913.73 3880.19 2913.73Z" fill="#D5D4D4"/>
<path d="M3876.1 2909.24C3876.1 2908.96 3876.1 2908.76 3876.1 2908.49C3876.1 2908.35 3876.1 2908.15 3876.1 2908.01C3876.1 2907.53 3876.1 2907.06 3876.1 2906.58C3875.07 2906.58 3874.19 2906.58 3873.23 2906.58C3873.23 2907.53 3873.23 2908.49 3873.23 2909.44C3874.12 2909.44 3874.94 2909.44 3875.82 2909.44C3875.96 2909.44 3876.1 2909.3 3876.1 2909.24Z" fill="#D5D4D4"/>
<path d="M7692.44 7266.41H7654.22V7305.93H7692.44V7266.41Z" fill="#D5D4D4"/>
<path d="M8089.99 7098.05H8045.64V7166.87H8089.99V7098.05Z" fill="#D5D4D4"/>
<path d="M7684 7216.47C7684.13 7216.26 7684.13 7215.92 7684 7215.72C7683.93 7215.58 7683.79 7215.58 7683.72 7215.72C7683.65 7215.86 7683.65 7215.99 7683.59 7216.06C7683.65 7216.2 7683.65 7216.33 7683.72 7216.4C7683.79 7216.54 7683.93 7216.54 7684 7216.47Z" fill="#D5D4D4"/>
<path d="M7470.67 2727.32H7213.75V2601.55H7037.9L7049.21 2587.31H7043.96H7041.03H6981.69H6977.4H6973.51L6962.2 2601.55L6962.13 2610.75H6137.6V2610.55H6090.18V1892.3V1887.12H6083.78L6039.15 1887.19H6032.75V1893.59L6032.61 2610.75H5526.25V1887.05L5467.86 1886.98V2406.76L5468.41 3294.52V3598.66H5468.61V3600.71V3603.91H5496.21V3622.03L5104.99 3621.28L4791.72 3622.1L4709.08 3608.27H4370.67V3835.35H4196.05L4194.68 3335.67L4194.55 3295.41H4270.38L4269.22 2688.22H3948.8H3947.09H3912.82H3909.62H3906.42L3906.69 3254.73H3948.66L3950.02 3859.47V3862.4H3950.23L3952.81 3902.53V3921.95L3951.72 4009.77H3951.86H3953.36V4309.28H4195.84V4009.77V4005.34L4211.17 4006.57H4353.91L4373.87 4006.16L4374.01 4009.77L4378.5 4009.64V4278.21H4714.19V4006.57H4716.1V4000.16H4711.67V3997.78H4714.19V3809.67V3725.25V3722.73H4714.6L4714.19 3677.08H4813.19H4821.22H5499.96V3695.14H5503.29V3760.48H5612.85V3884.2H5613.33V4237.26H5613.05V4295.79H5460.17V4659.55H5466.57H5609.78H5612.85L5613.05 4461.15V4703.76H5492.26V4762.43H5610.6V4766.38H5545.94V4831.51H5609.85V4836.14H5613.87V5161.88L5612.1 5162.29L5550.85 5224.7H5402.32H5402.25H4760.52V4923.69H4726.18L4723.59 4919.33L3840.26 4921.31L3606.77 4915.99V4772.71L4302.2 4771.21C4304.58 4771.21 4306.96 4770.67 4309.14 4769.65C4310.03 4769.24 4310.85 4768.69 4311.73 4768.08H4316.37V4763.45C4318.27 4760.72 4319.64 4757.52 4319.64 4754.11C4319.64 4751.59 4318.96 4748.39 4316.37 4745.26V4744.17H4315.34C4313.71 4742.46 4311.53 4740.9 4308.53 4739.4C4306.49 4738.44 4304.17 4737.9 4301.65 4737.9H3937.49V4716.1L3960.58 4662.34L4010.39 4661.39V4407.25H3957.18L3919.84 4310.91L3924.54 4169.4H3836.72V4242.31H3757.21V4183.3L3651.81 4180.85V4433.48L3759.39 4438.12L3763.2 4517.22L3817.37 4517.97L3813.55 4593.19H3887.41V4659.89L3927.4 4660.64L3906.96 4713.92L3907.44 4737.97H3603.64V4744.37H3606.91V4766.38H3606.84V4753.84H3603.09V4644.56H3606.02C3606.09 4648.17 3606.23 4651.17 3606.36 4653.35C3605.48 4652.8 3604.52 4652.32 3603.64 4651.71V4659.21C3619.45 4668.68 3637.84 4674.19 3657.6 4674.19C3715.85 4674.19 3763.27 4626.77 3763.27 4568.52C3763.27 4510.27 3715.85 4462.85 3657.6 4462.85C3639 4462.85 3621.97 4468.84 3606.84 4477.43V4469.53L3606.09 3723H3603.37L3603.5 3685.8H3603.71V3638.18V3547.02V3543.41H2714.11V3776.9H3550.43L3550.5 3929.72L2941.26 3930.13V4155.17H3550.5V4383.54H3478.34V4530.37H3550.5V4622.21H3542.8V4731.9H3492.38V4671.26H3429.22V4682.03H3400.06L2700.55 4396.56V3864.51H2457.86V5036.18H2363.77V5273.55H2457.86V5674.85H2700.55V5280.43H2828.71V5215.23L3328.25 5415.47L3329.34 5412.74L3370.42 5429.23L3369.4 5432.03L3412.05 5449.13L3434.13 5449.19L3437.26 5772.55V5811.73H3437.67V5875.22H3603.5H3606.7H3628.71V5893.48H3622.78V5964H3324.57L3324.03 5777.05H3361.23V5664.76H3244.31V5777.05H3274.97L3274.7 6011.15L3440.74 6011.08V6055.57H3491.77V6217.45H3626.8V6347.11H3711.22V6508.99H3978.02V6489.02H4034.16V6446.85H4078.38V6529.7H4136.98V6525.68L4151.69 6525.75V6529.7H4285.5V6395.07H4291.5V6525H4348.12V6521.59H4348.32V6395.07H4465.64L4466.12 6195.85V6193.2V6192.72L4465.98 5945.13H4486.7V5804.71L4538.61 5804.78V5809.07H4545.02V5805.25H4584.67V5809.27H4591.07V5617.41H4657.23V5612.85H4699.06V5617.41H4799.76V5363.42H5055.39H5192.61V5358.99V5310.48H5339.71L5340.46 5403.68L5246.44 5458.87L5276.35 5510.24L4830.7 5770.98L4793.84 5708.1L4705.47 5759.67L4742.33 5822.56L4685.57 5855.53L4756.29 5976.88L4810.8 5945.4L4828.45 5975.31L4919.13 5922.24L4901.48 5892.33L5349.38 5631.58L5395.44 5709.87L5484.42 5657.68L5513.65 5708.64H5609.03V5711.84H5544.99V5780.93H5608.9V5785.97L5507.65 5785.77V5836.87H5609.37L5609.24 5886.33H5502.48V5999.91H5122.64V6092.97H5609.1V6386.55H5488.92L5490.69 6384.24L5491.03 6383.83L5564.68 6287.08L5474.41 6218L5302.51 6443.58L4890.17 6129.77L4910.89 6102.17L4827.56 6038.47L4806.1 6066.06L4756.16 6027.7L4670.99 6140.19L4722.98 6180.32L4679.03 6237.62L4760.45 6299.82L4804.94 6241.5L5184.23 6529.97L5145.06 6580.46L5191.79 6615.14L5164.81 6648.52V6743.23L5212.98 6742.82V6822.6H5330.85L5329.08 6691.99L5360.76 6652.95L5403.34 6687.36L5431.01 6651.25L5450.42 6666.71L5494.91 6609.14L5482.24 6600.42L5502.75 6572.83L5451.85 6534.81L5513.79 6453.19L5602.56 6453.26L5609.1 6453.39V6726.06L5620.48 6725.99V6724.56H5683.16V6725.92L5697.61 6725.85V6452.71H5793.33L5855.6 6534.81L5804.16 6573.17L5824.13 6599.06L5811.45 6608.46L5855.6 6666.51L5875.09 6652.06L5903.84 6687.63L5946.7 6654.11L5975.65 6692.67L5975.58 6736.34V6736.75L5975.38 6822.53H6093.59V6742.75H6141.76V6647.7L6115.46 6615L6161.04 6579.85L6122.27 6531.95L6502.18 6241.57L6546.87 6299.75L6627.95 6237.55L6582.37 6178.96L6636.4 6140.26L6551.16 6027.7L6500.81 6065.38L6479.97 6037.04L6396.64 6101.97L6416.53 6128.95L6277.68 6234.28L6157.22 6326.19L6004.74 6443.51L5957.6 6381.58L5957.39 6381.38L5955.69 6379.13L5911.88 6322.31L5826.58 6387.24H5768.67L5768.6 6350.1L5697.33 6350.72V6341.52H5860.78V6337.16V6234.42V6232.3H5697.33V6210.3H5940.56V6141.08H6112.19V6204.17H6302.75V6141.08V6134.81V5897.3H6095.09L6096.04 5966.86H6055.71V5966.79L6043.38 5966.86V5893.96H5902.96V5932.32H5696.99L5697.27 5833.6H5780.45V5772.75H5697.4L5697.54 5708.57H5787.06L5776.37 5727.51L5870.39 5782.63L5918.9 5699.17L5918.83 5699.1L5958.69 5630.7L6406.59 5892.19L6388.94 5922.1L6479.62 5975.17L6497.27 5945.26L6551.78 5976.74L6622.5 5855.4L6565.74 5822.42L6602.53 5759.54L6514.92 5707.96L6478.06 5770.91L6031.11 5513.44L6061.23 5463.03L5968.29 5408.18V5310.41H6404.61V5342.09L6730.01 5520.67H6848.08V5662.58H6848.15V6162.61H6767.55L6767.14 6217.31H6870.36L6871.11 6432.13H6961.11V6432.54L6928.61 6432.68L6928.75 6514.71L6960.84 6514.98L6960.98 6998.38H7213.54V6991.98H7232.82V6986.32V6919.48H7400.63V6916.62V6752.29V6453.05H7232.75H7227.1V6667.46H7225.53H7213.47V3306.85H7225.53H7317.78V3301.2H7315.26V3231.36H7465.56H7471.22V2727.32H7470.67ZM3956.36 3836.1V3835.63H4013.38L3956.36 3836.1ZM4093.37 3923.11H4051.67V3922.9L4093.37 3922.22V3923.11ZM3542.8 5400.21L3415.46 5397.82L3268.7 5338.96L3267.41 5342.09L3247.44 5334.05L3190.96 5311.43L3192.73 5308.43L2828.77 5162.29V5121.41L2696.26 5119.1V4999.59L2697.42 4454.2L2700.62 4453.92L3388.34 4736.19L3429.36 4736.47V4802.35V4822.45H3542.93V5400.21H3542.8ZM3599.14 4963.55L3599.07 4968.66L3599.01 4963.55H3599.14ZM3550.5 3935.71V3936.12L3490.95 3935.78L3550.5 3935.71ZM3553.29 4631.54H3549.2V4628.27H3553.29V4631.54ZM3554.11 4064H2947.6V4063.94H3554.11V4064ZM3598.94 5405.86H3600.23V5405.93L3598.94 5405.86ZM4517.97 5751.84L4424.22 5751.77L4424.42 5798.03H4401.26L4401.46 6017.76L4397.65 6017.89L4397.72 6053.25L4397.65 6119.27L4329.58 6119.89L4284.62 6143.12L4017.68 6143.05V6333.07L4002.28 6333.28L3978.02 6333.21L3977.96 6297.44H3814.37V6250.36H3714.56L3714.69 6288.31L3693.3 6288.58L3679.67 6281.22V6217.25H3710.33V6174.26H3719.53V6171.39L3720.14 5893.35H3719.53V5893.28H3652.01V5875.02H3695.75V5697.54H3606.77V5617.21H4243.33L4539.16 5616.53L4539.23 5728.33L4517.97 5751.84ZM4708.26 5555H4707.31L4708.26 5554.05V5555ZM4713.99 5548.94H4713.44L4713.99 5548.4V5548.94ZM5609.85 5644.6H5559.64L5508.88 5555.34L5555.96 5528.57L5532.93 5488.71L5555.14 5476.45L5519.78 5414.17L5506.77 5421.06L5490.62 5391.83L5434.34 5424.33L5404.37 5371.52L5402.94 5310.41H5545.67L5609.78 5374.52V5644.6H5609.85ZM5613.87 5969.31H5611.15V5969.25H5613.87V5969.31ZM5733.92 5967.82H5780.32L5733.92 5967.95V5967.82ZM6473.15 3000.87H6473.29V3192.05H6473.15V3000.87ZM6039.15 1891.69L6083.78 1890.8V1892.37H6039.15V1891.69ZM5559.09 3250.17H5901.66V3042.77H5559.09V2943.37H6320.33V3269.45H5559.09V3250.17ZM5552.62 3314.69L5552.69 3394.13H5552.62V3314.69ZM5695.43 4486.29H5694.06V4347.98L5695.43 4347.91V4486.29ZM5875.84 5424.94L5819.56 5392.51L5802.39 5423.1L5787.68 5415.13L5752.93 5475.56L5775.14 5488.58L5752.11 5528.5L5799.87 5555.89L5748.5 5644.6H5697.54V5374.39L5760.15 5310.27L5907.66 5310.34L5907.72 5369.75L5875.84 5424.94ZM5759.13 5055.05L5746.05 5062.75L5781.41 5125.09L5803.62 5112.08L5826.65 5152.69L5875.23 5124.82L5907.66 5182.87L5907.32 5221.09H5751.02L5697.54 5163.25V4900.66H5750L5801.44 4992.71L5742.91 5025.89L5759.13 5055.05ZM6963.97 4866.19V4139.09H6853.53V4866.74H6908.04L6851.42 4867.89V5008.86L6732.12 5006.95L6675.71 5038.15L6671.55 5040.4L6670.94 5039.31L6672.85 5038.22L6578.76 4875.39L6163.22 5102.47L6160.36 5104.04L6227.74 5221.09H5967.61L5967.68 5141.72L6063.2 5085.78L6034.79 5037.47L6477.38 4779.8L6514.17 4842.68L6602.53 4791.93L6565.67 4728.22L6622.43 4695.25L6551.71 4573.9L6497.2 4605.38L6479.56 4575.47L6388.87 4628.55L6406.52 4658.46L5958.69 4919.13L5912.63 4840.1L5823.65 4892.28L5793.33 4839.96H5697.54V4665.88H5838.23H5841.02V4341.37H5716.75V4299.47H5822.49V4241.76H5694.06V4237.13H5693.18V4232.97H5768.4V4172.74H5693.18V3868.19H5697.61V3681.85H5653.32H5650.53H5612.85V3686.42H5554.46V3624.62H5550.78V3598.73H5552.62V3472.41H5563.32V3595.05H5628.25V3596.14H5631.72V3599.89H6399.37V3601.66H6402.91V3779.42H6467.57V3781.73H6635.78V3551.11V3547.9V3544.7H6625.22V3477.73H6473.22V3547.9H6473.15V3474.53H6625.15V3272.65H6627.88V3238.79L6853.4 3239.34L6852.37 3284.51L6853.46 3639.47L6853.4 3804.69H6852.37V3811.1H6853.4L6853.33 3963.51L6855.58 4133.57L6964.79 4135.07V4164.16L6965.61 4866.19H6963.97Z" fill="#D5D4D4"/>
</g>
<path d="M4676.85 1910.01H4033.48C3985.45 1910.01 3946.48 1871.04 3946.48 1823V762.462C3946.48 714.429 3985.45 675.457 4033.48 675.457H4676.85C4724.88 675.457 4763.86 714.429 4763.86 762.462V1823C4763.86 1871.04 4724.88 1910.01 4676.85 1910.01Z" stroke="#D5D4D4" stroke-miterlimit="10"/>
<path d="M6876.35 1902.72H5043.13C4968.73 1902.72 4908.43 1842.42 4908.43 1768.02V810.088C4908.43 735.687 4968.73 675.391 5043.13 675.391H6876.35C6950.75 675.391 7011.05 735.687 7011.05 810.088V1768.02C7010.98 1842.42 6950.68 1902.72 6876.35 1902.72Z" stroke="#D5D4D4" stroke-miterlimit="10"/>
<path d="M6067.76 2737.2C6067.71 2737.2 6067.67 2737.19 6067.64 2737.17C6067.6 2737.16 6067.57 2737.13 6067.55 2737.11C6067.53 2737.08 6067.52 2737.04 6067.52 2737.01C6067.52 2736.98 6067.53 2736.95 6067.54 2736.93C6067.55 2736.9 6067.57 2736.88 6067.59 2736.87C6067.61 2736.85 6067.63 2736.84 6067.66 2736.83L6067.66 2736.83C6067.62 2736.82 6067.6 2736.8 6067.58 2736.78C6067.56 2736.75 6067.55 2736.71 6067.55 2736.68C6067.55 2736.64 6067.56 2736.61 6067.58 2736.59C6067.59 2736.56 6067.62 2736.54 6067.65 2736.52C6067.68 2736.51 6067.72 2736.5 6067.76 2736.5C6067.8 2736.5 6067.83 2736.51 6067.86 2736.52C6067.89 2736.54 6067.92 2736.56 6067.94 2736.59C6067.95 2736.61 6067.96 2736.64 6067.96 2736.68C6067.96 2736.72 6067.95 2736.75 6067.93 2736.78C6067.91 2736.8 6067.89 2736.82 6067.86 2736.83L6067.86 2736.83C6067.88 2736.84 6067.9 2736.85 6067.92 2736.87C6067.94 2736.88 6067.96 2736.9 6067.97 2736.93C6067.98 2736.95 6067.99 2736.98 6067.99 2737.01C6067.99 2737.04 6067.98 2737.08 6067.96 2737.11C6067.94 2737.13 6067.91 2737.16 6067.88 2737.17C6067.84 2737.19 6067.8 2737.2 6067.76 2737.2ZM6067.76 2737.12C6067.79 2737.12 6067.81 2737.12 6067.84 2737.11C6067.86 2737.1 6067.88 2737.09 6067.89 2737.07C6067.9 2737.05 6067.91 2737.03 6067.91 2737C6067.91 2736.98 6067.9 2736.95 6067.89 2736.94C6067.87 2736.92 6067.86 2736.9 6067.83 2736.89C6067.81 2736.88 6067.79 2736.87 6067.76 2736.87C6067.73 2736.87 6067.7 2736.88 6067.68 2736.89C6067.66 2736.9 6067.64 2736.92 6067.62 2736.93C6067.61 2736.95 6067.61 2736.98 6067.61 2737C6067.61 2737.03 6067.61 2737.05 6067.62 2737.07C6067.64 2737.08 6067.65 2737.1 6067.68 2737.11C6067.7 2737.12 6067.72 2737.12 6067.76 2737.12ZM6067.76 2736.8C6067.78 2736.8 6067.8 2736.8 6067.82 2736.79C6067.84 2736.78 6067.86 2736.76 6067.87 2736.75C6067.88 2736.73 6067.88 2736.71 6067.88 2736.68C6067.88 2736.66 6067.88 2736.64 6067.87 2736.62C6067.86 2736.61 6067.84 2736.59 6067.82 2736.58C6067.8 2736.57 6067.78 2736.57 6067.76 2736.57C6067.73 2736.57 6067.71 2736.57 6067.69 2736.58C6067.67 2736.59 6067.66 2736.61 6067.65 2736.62C6067.64 2736.64 6067.63 2736.66 6067.63 2736.68C6067.63 2736.71 6067.64 2736.73 6067.65 2736.75C6067.66 2736.76 6067.67 2736.78 6067.69 2736.79C6067.71 2736.8 6067.73 2736.8 6067.76 2736.8ZM6068.43 2736.51L6068.6 2736.79L6068.61 2736.79L6068.79 2736.51L6068.88 2736.51L6068.67 2736.85L6068.88 2737.19L6068.79 2737.19L6068.61 2736.91L6068.6 2736.91L6068.43 2737.19L6068.33 2737.19L6068.55 2736.85L6068.33 2736.51L6068.43 2736.51ZM6068.99 2737.19L6068.99 2736.51L6069.22 2736.51C6069.27 2736.51 6069.32 2736.52 6069.35 2736.54C6069.38 2736.55 6069.41 2736.58 6069.43 2736.61C6069.44 2736.64 6069.45 2736.68 6069.45 2736.72C6069.45 2736.76 6069.44 2736.79 6069.43 2736.82C6069.41 2736.86 6069.38 2736.88 6069.35 2736.9C6069.32 2736.92 6069.27 2736.92 6069.22 2736.92L6069.03 2736.92L6069.03 2736.85L6069.22 2736.85C6069.25 2736.85 6069.28 2736.84 6069.31 2736.83C6069.33 2736.82 6069.34 2736.81 6069.35 2736.79C6069.36 2736.77 6069.37 2736.75 6069.37 2736.72C6069.37 2736.69 6069.36 2736.67 6069.35 2736.65C6069.34 2736.63 6069.33 2736.61 6069.31 2736.6C6069.28 2736.59 6069.25 2736.58 6069.22 2736.58L6069.07 2736.58L6069.07 2737.19L6068.99 2737.19ZM6069.31 2736.88L6069.48 2737.19L6069.38 2737.19L6069.22 2736.88L6069.31 2736.88ZM6069.73 2737.2C6069.69 2737.2 6069.67 2737.2 6069.64 2737.18C6069.61 2737.17 6069.59 2737.15 6069.58 2737.13C6069.56 2737.11 6069.55 2737.08 6069.55 2737.05C6069.55 2737.02 6069.56 2736.99 6069.57 2736.97C6069.58 2736.96 6069.6 2736.94 6069.62 2736.93C6069.64 2736.92 6069.66 2736.91 6069.68 2736.91C6069.7 2736.9 6069.73 2736.9 6069.75 2736.9C6069.78 2736.89 6069.81 2736.89 6069.83 2736.89C6069.85 2736.88 6069.86 2736.88 6069.87 2736.88C6069.88 2736.87 6069.88 2736.86 6069.88 2736.85L6069.88 2736.85C6069.88 2736.81 6069.87 2736.79 6069.86 2736.77C6069.84 2736.75 6069.81 2736.74 6069.78 2736.74C6069.74 2736.74 6069.71 2736.75 6069.69 2736.77C6069.67 2736.78 6069.65 2736.8 6069.64 2736.82L6069.57 2736.79C6069.58 2736.76 6069.6 2736.74 6069.62 2736.72C6069.64 2736.7 6069.67 2736.69 6069.69 2736.68C6069.72 2736.68 6069.75 2736.67 6069.77 2736.67C6069.79 2736.67 6069.81 2736.68 6069.83 2736.68C6069.85 2736.68 6069.87 2736.69 6069.89 2736.7C6069.91 2736.71 6069.93 2736.73 6069.94 2736.76C6069.95 2736.78 6069.96 2736.81 6069.96 2736.85L6069.96 2737.19L6069.88 2737.19L6069.88 2737.12L6069.88 2737.12C6069.87 2737.13 6069.86 2737.14 6069.85 2737.16C6069.84 2737.17 6069.82 2737.18 6069.8 2737.19C6069.78 2737.2 6069.76 2737.2 6069.73 2737.2ZM6069.74 2737.13C6069.77 2737.13 6069.8 2737.13 6069.82 2737.11C6069.84 2737.1 6069.85 2737.09 6069.87 2737.07C6069.88 2737.05 6069.88 2737.03 6069.88 2737.01L6069.88 2736.93C6069.88 2736.94 6069.87 2736.94 6069.86 2736.94C6069.85 2736.95 6069.84 2736.95 6069.82 2736.95C6069.81 2736.96 6069.79 2736.96 6069.78 2736.96C6069.77 2736.96 6069.76 2736.96 6069.75 2736.96C6069.73 2736.97 6069.71 2736.97 6069.69 2736.98C6069.67 2736.98 6069.66 2736.99 6069.65 2737C6069.64 2737.01 6069.63 2737.03 6069.63 2737.05C6069.63 2737.08 6069.64 2737.1 6069.66 2737.11C6069.68 2737.12 6069.71 2737.13 6069.74 2737.13ZM6070.14 2737.38C6070.12 2737.38 6070.11 2737.38 6070.1 2737.38C6070.09 2737.38 6070.08 2737.37 6070.08 2737.37L6070.1 2737.3C6070.12 2737.31 6070.13 2737.31 6070.15 2737.31C6070.16 2737.31 6070.18 2737.3 6070.19 2737.29C6070.2 2737.28 6070.21 2737.26 6070.22 2737.23L6070.23 2737.19L6070.05 2736.68L6070.13 2736.68L6070.27 2737.09L6070.28 2737.09L6070.42 2736.68L6070.5 2736.68L6070.29 2737.26C6070.28 2737.29 6070.26 2737.31 6070.25 2737.33C6070.24 2737.35 6070.22 2737.36 6070.2 2737.37C6070.18 2737.38 6070.16 2737.38 6070.14 2737.38Z" fill="#676767"/>
<path d="M6067.54 2743.26L6067.54 2742.58L6067.77 2742.58C6067.83 2742.58 6067.87 2742.59 6067.9 2742.61C6067.94 2742.63 6067.96 2742.65 6067.98 2742.68C6068 2742.71 6068 2742.75 6068 2742.79C6068 2742.83 6068 2742.87 6067.98 2742.9C6067.96 2742.93 6067.94 2742.95 6067.9 2742.97C6067.87 2742.99 6067.83 2743 6067.77 2743L6067.59 2743L6067.59 2742.92L6067.77 2742.92C6067.81 2742.92 6067.84 2742.92 6067.86 2742.91C6067.88 2742.9 6067.9 2742.88 6067.91 2742.86C6067.92 2742.84 6067.92 2742.82 6067.92 2742.79C6067.92 2742.76 6067.92 2742.74 6067.91 2742.72C6067.9 2742.7 6067.88 2742.68 6067.86 2742.67C6067.84 2742.66 6067.81 2742.66 6067.77 2742.66L6067.63 2742.65L6067.62 2743.26L6067.54 2743.26ZM6067.86 2742.96L6068.03 2743.26L6067.93 2743.26L6067.77 2742.96L6067.86 2742.96ZM6068.34 2743.27C6068.29 2743.27 6068.25 2743.26 6068.21 2743.24C6068.18 2743.22 6068.15 2743.19 6068.13 2743.15C6068.11 2743.11 6068.1 2743.06 6068.1 2743.01C6068.1 2742.96 6068.11 2742.91 6068.13 2742.87C6068.15 2742.83 6068.18 2742.8 6068.21 2742.78C6068.24 2742.76 6068.28 2742.75 6068.33 2742.75C6068.36 2742.75 6068.38 2742.75 6068.41 2742.76C6068.44 2742.77 6068.46 2742.78 6068.48 2742.8C6068.5 2742.82 6068.52 2742.85 6068.53 2742.88C6068.54 2742.91 6068.55 2742.95 6068.55 2743L6068.55 2743.03L6068.16 2743.03L6068.16 2742.97L6068.47 2742.97C6068.47 2742.94 6068.46 2742.91 6068.45 2742.89C6068.44 2742.87 6068.43 2742.85 6068.4 2742.84C6068.38 2742.82 6068.36 2742.82 6068.33 2742.82C6068.3 2742.82 6068.27 2742.82 6068.25 2742.84C6068.23 2742.85 6068.21 2742.87 6068.2 2742.9C6068.19 2742.92 6068.18 2742.95 6068.18 2742.98L6068.18 2743.02C6068.18 2743.06 6068.19 2743.09 6068.2 2743.12C6068.21 2743.15 6068.23 2743.17 6068.25 2743.18C6068.28 2743.2 6068.31 2743.2 6068.34 2743.2C6068.36 2743.2 6068.38 2743.2 6068.39 2743.19C6068.41 2743.19 6068.43 2743.18 6068.44 2743.17C6068.45 2743.16 6068.46 2743.14 6068.47 2743.12L6068.54 2743.14C6068.53 2743.17 6068.52 2743.19 6068.5 2743.21C6068.48 2743.23 6068.46 2743.25 6068.43 2743.26C6068.4 2743.27 6068.37 2743.27 6068.34 2743.27ZM6069.03 2742.87L6068.96 2742.89C6068.96 2742.88 6068.95 2742.86 6068.94 2742.85C6068.93 2742.84 6068.92 2742.83 6068.91 2742.83C6068.89 2742.82 6068.87 2742.81 6068.85 2742.81C6068.82 2742.81 6068.79 2742.82 6068.77 2742.84C6068.75 2742.85 6068.74 2742.87 6068.74 2742.89C6068.74 2742.91 6068.75 2742.92 6068.76 2742.94C6068.78 2742.95 6068.8 2742.96 6068.83 2742.96L6068.9 2742.98C6068.95 2742.99 6068.98 2743.01 6069.01 2743.03C6069.03 2743.06 6069.04 2743.09 6069.04 2743.12C6069.04 2743.15 6069.03 2743.18 6069.01 2743.2C6069 2743.22 6068.97 2743.24 6068.94 2743.25C6068.91 2743.27 6068.88 2743.27 6068.84 2743.27C6068.79 2743.27 6068.74 2743.26 6068.71 2743.24C6068.68 2743.22 6068.66 2743.18 6068.65 2743.14L6068.72 2743.12C6068.73 2743.15 6068.74 2743.17 6068.76 2743.18C6068.78 2743.2 6068.81 2743.2 6068.84 2743.2C6068.88 2743.2 6068.9 2743.2 6068.93 2743.18C6068.95 2743.17 6068.96 2743.15 6068.96 2743.13C6068.96 2743.11 6068.95 2743.09 6068.94 2743.08C6068.93 2743.07 6068.91 2743.06 6068.88 2743.05L6068.8 2743.03C6068.75 2743.02 6068.72 2743.01 6068.69 2742.98C6068.67 2742.96 6068.66 2742.93 6068.66 2742.89C6068.66 2742.87 6068.67 2742.84 6068.69 2742.82C6068.7 2742.8 6068.73 2742.78 6068.75 2742.77C6068.78 2742.75 6068.81 2742.75 6068.85 2742.75C6068.9 2742.75 6068.94 2742.76 6068.97 2742.78C6069 2742.8 6069.02 2742.83 6069.03 2742.87ZM6069.16 2743.26L6069.16 2742.75L6069.24 2742.75L6069.24 2743.26L6069.16 2743.26ZM6069.2 2742.67C6069.18 2742.67 6069.17 2742.66 6069.16 2742.65C6069.15 2742.64 6069.14 2742.63 6069.14 2742.62C6069.14 2742.6 6069.15 2742.59 6069.16 2742.58C6069.17 2742.57 6069.18 2742.56 6069.2 2742.56C6069.21 2742.56 6069.23 2742.57 6069.24 2742.58C6069.25 2742.59 6069.25 2742.6 6069.25 2742.62C6069.25 2742.63 6069.25 2742.64 6069.24 2742.65C6069.23 2742.66 6069.21 2742.67 6069.2 2742.67ZM6069.74 2742.87L6069.67 2742.89C6069.67 2742.88 6069.66 2742.87 6069.65 2742.85C6069.64 2742.84 6069.63 2742.83 6069.62 2742.83C6069.6 2742.82 6069.58 2742.82 6069.56 2742.82C6069.53 2742.82 6069.5 2742.82 6069.48 2742.84C6069.46 2742.85 6069.45 2742.87 6069.45 2742.89C6069.45 2742.91 6069.46 2742.93 6069.47 2742.94C6069.49 2742.95 6069.51 2742.96 6069.54 2742.97L6069.61 2742.98C6069.66 2742.99 6069.69 2743.01 6069.72 2743.03C6069.74 2743.06 6069.75 2743.09 6069.75 2743.12C6069.75 2743.15 6069.74 2743.18 6069.72 2743.2C6069.71 2743.22 6069.68 2743.24 6069.65 2743.25C6069.62 2743.27 6069.59 2743.27 6069.55 2743.27C6069.5 2743.27 6069.46 2743.26 6069.42 2743.24C6069.39 2743.22 6069.37 2743.19 6069.36 2743.14L6069.43 2743.12C6069.44 2743.15 6069.45 2743.17 6069.47 2743.18C6069.49 2743.2 6069.52 2743.21 6069.55 2743.21C6069.59 2743.21 6069.61 2743.2 6069.64 2743.18C6069.66 2743.17 6069.67 2743.15 6069.67 2743.13C6069.67 2743.11 6069.66 2743.09 6069.65 2743.08C6069.64 2743.07 6069.62 2743.06 6069.59 2743.05L6069.51 2743.03C6069.46 2743.02 6069.43 2743.01 6069.41 2742.98C6069.38 2742.96 6069.37 2742.93 6069.37 2742.89C6069.37 2742.87 6069.38 2742.84 6069.4 2742.82C6069.41 2742.8 6069.44 2742.78 6069.46 2742.77C6069.49 2742.75 6069.52 2742.75 6069.56 2742.75C6069.61 2742.75 6069.65 2742.76 6069.68 2742.78C6069.71 2742.8 6069.73 2742.83 6069.74 2742.87ZM6070.09 2742.75L6070.09 2742.82L6069.83 2742.82L6069.83 2742.75L6070.09 2742.75ZM6069.9 2742.63L6069.98 2742.63L6069.98 2743.12C6069.98 2743.14 6069.98 2743.16 6069.99 2743.17C6070 2743.18 6070.01 2743.19 6070.02 2743.19C6070.03 2743.19 6070.04 2743.2 6070.05 2743.2C6070.06 2743.2 6070.06 2743.2 6070.07 2743.19C6070.07 2743.19 6070.08 2743.19 6070.08 2743.19L6070.1 2743.26C6070.09 2743.26 6070.09 2743.27 6070.08 2743.27C6070.07 2743.27 6070.05 2743.27 6070.04 2743.27C6070.02 2743.27 6070 2743.27 6069.98 2743.26C6069.95 2743.25 6069.94 2743.23 6069.92 2743.21C6069.91 2743.19 6069.9 2743.17 6069.9 2743.14L6069.9 2742.63ZM6070.21 2743.26L6070.21 2742.75L6070.28 2742.75L6070.28 2742.83L6070.29 2742.83C6070.3 2742.81 6070.31 2742.79 6070.34 2742.77C6070.36 2742.75 6070.39 2742.75 6070.42 2742.75C6070.43 2742.75 6070.43 2742.75 6070.44 2742.75C6070.45 2742.75 6070.46 2742.75 6070.46 2742.75L6070.46 2742.83C6070.46 2742.83 6070.45 2742.83 6070.44 2742.83C6070.44 2742.82 6070.43 2742.82 6070.41 2742.82C6070.39 2742.82 6070.37 2742.83 6070.35 2742.84C6070.33 2742.85 6070.31 2742.86 6070.3 2742.88C6070.29 2742.9 6070.29 2742.92 6070.29 2742.94L6070.29 2743.26L6070.21 2743.26ZM6070.71 2743.28C6070.67 2743.28 6070.64 2743.27 6070.62 2743.26C6070.59 2743.25 6070.57 2743.23 6070.55 2743.21C6070.54 2743.18 6070.53 2743.15 6070.53 2743.12C6070.53 2743.09 6070.54 2743.07 6070.55 2743.05C6070.56 2743.03 6070.58 2743.02 6070.59 2743.01C6070.61 2743 6070.64 2742.99 6070.66 2742.98C6070.68 2742.98 6070.71 2742.97 6070.73 2742.97C6070.76 2742.97 6070.79 2742.96 6070.8 2742.96C6070.82 2742.96 6070.84 2742.96 6070.85 2742.95C6070.86 2742.95 6070.86 2742.94 6070.86 2742.92L6070.86 2742.92C6070.86 2742.89 6070.85 2742.86 6070.83 2742.85C6070.82 2742.83 6070.79 2742.82 6070.75 2742.82C6070.72 2742.82 6070.69 2742.83 6070.67 2742.84C6070.64 2742.86 6070.63 2742.88 6070.62 2742.89L6070.55 2742.87C6070.56 2742.84 6070.58 2742.81 6070.6 2742.8C6070.62 2742.78 6070.65 2742.77 6070.67 2742.76C6070.7 2742.75 6070.73 2742.75 6070.75 2742.75C6070.77 2742.75 6070.79 2742.75 6070.81 2742.75C6070.83 2742.76 6070.85 2742.77 6070.87 2742.78C6070.89 2742.79 6070.91 2742.81 6070.92 2742.83C6070.93 2742.86 6070.94 2742.89 6070.94 2742.93L6070.94 2743.27L6070.86 2743.27L6070.86 2743.2L6070.86 2743.2C6070.85 2743.21 6070.84 2743.22 6070.83 2743.23C6070.82 2743.24 6070.8 2743.26 6070.78 2743.26C6070.76 2743.27 6070.73 2743.28 6070.71 2743.28ZM6070.72 2743.21C6070.75 2743.21 6070.77 2743.2 6070.8 2743.19C6070.82 2743.18 6070.83 2743.16 6070.84 2743.14C6070.86 2743.12 6070.86 2743.1 6070.86 2743.08L6070.86 2743.01C6070.86 2743.01 6070.85 2743.02 6070.84 2743.02C6070.83 2743.02 6070.82 2743.03 6070.8 2743.03C6070.79 2743.03 6070.77 2743.03 6070.76 2743.03C6070.74 2743.04 6070.73 2743.04 6070.73 2743.04C6070.71 2743.04 6070.69 2743.05 6070.67 2743.05C6070.65 2743.06 6070.64 2743.07 6070.63 2743.08C6070.62 2743.09 6070.61 2743.1 6070.61 2743.12C6070.61 2743.15 6070.62 2743.17 6070.64 2743.19C6070.66 2743.2 6070.69 2743.21 6070.72 2743.21ZM6071.3 2742.76L6071.3 2742.82L6071.04 2742.82L6071.04 2742.76L6071.3 2742.76ZM6071.12 2742.63L6071.2 2742.63L6071.2 2743.12C6071.2 2743.14 6071.2 2743.16 6071.2 2743.17C6071.21 2743.18 6071.22 2743.19 6071.23 2743.19C6071.24 2743.2 6071.25 2743.2 6071.26 2743.2C6071.27 2743.2 6071.28 2743.2 6071.28 2743.2C6071.29 2743.19 6071.29 2743.19 6071.3 2743.19L6071.31 2743.26C6071.31 2743.27 6071.3 2743.27 6071.29 2743.27C6071.28 2743.27 6071.27 2743.27 6071.25 2743.27C6071.23 2743.27 6071.21 2743.27 6071.19 2743.26C6071.17 2743.25 6071.15 2743.23 6071.14 2743.21C6071.12 2743.2 6071.12 2743.17 6071.12 2743.14L6071.12 2742.63ZM6071.42 2743.27L6071.42 2742.76L6071.5 2742.76L6071.5 2743.27L6071.42 2743.27ZM6071.46 2742.67C6071.45 2742.67 6071.43 2742.67 6071.42 2742.66C6071.41 2742.64 6071.41 2742.63 6071.41 2742.62C6071.41 2742.6 6071.41 2742.59 6071.42 2742.58C6071.43 2742.57 6071.45 2742.56 6071.46 2742.56C6071.48 2742.56 6071.49 2742.57 6071.5 2742.58C6071.51 2742.59 6071.52 2742.6 6071.52 2742.62C6071.52 2742.63 6071.51 2742.65 6071.5 2742.66C6071.49 2742.67 6071.48 2742.67 6071.46 2742.67ZM6071.85 2743.28C6071.8 2743.28 6071.76 2743.27 6071.73 2743.24C6071.7 2743.22 6071.67 2743.19 6071.65 2743.15C6071.63 2743.11 6071.62 2743.07 6071.62 2743.01C6071.62 2742.96 6071.63 2742.91 6071.65 2742.87C6071.67 2742.84 6071.7 2742.8 6071.73 2742.78C6071.76 2742.76 6071.81 2742.75 6071.85 2742.75C6071.9 2742.75 6071.94 2742.76 6071.97 2742.78C6072.01 2742.8 6072.03 2742.84 6072.05 2742.88C6072.07 2742.91 6072.08 2742.96 6072.08 2743.01C6072.08 2743.07 6072.07 2743.11 6072.05 2743.15C6072.03 2743.19 6072.01 2743.22 6071.97 2743.24C6071.94 2743.27 6071.9 2743.28 6071.85 2743.28ZM6071.85 2743.21C6071.89 2743.21 6071.91 2743.2 6071.94 2743.18C6071.96 2743.16 6071.98 2743.14 6071.99 2743.11C6072 2743.08 6072 2743.05 6072 2743.01C6072 2742.98 6072 2742.95 6071.99 2742.92C6071.98 2742.89 6071.96 2742.87 6071.94 2742.85C6071.92 2742.83 6071.89 2742.82 6071.85 2742.82C6071.82 2742.82 6071.79 2742.83 6071.76 2742.85C6071.74 2742.87 6071.73 2742.89 6071.71 2742.92C6071.7 2742.95 6071.7 2742.98 6071.7 2743.01C6071.7 2743.05 6071.7 2743.08 6071.71 2743.11C6071.73 2743.14 6071.74 2743.16 6071.76 2743.18C6071.79 2743.2 6071.82 2743.21 6071.85 2743.21ZM6072.28 2742.96L6072.28 2743.27L6072.2 2743.27L6072.2 2742.76L6072.28 2742.76L6072.28 2742.84L6072.28 2742.84C6072.3 2742.81 6072.31 2742.79 6072.34 2742.77C6072.36 2742.76 6072.39 2742.75 6072.43 2742.75C6072.47 2742.75 6072.5 2742.76 6072.52 2742.77C6072.55 2742.79 6072.57 2742.81 6072.58 2742.84C6072.6 2742.86 6072.61 2742.9 6072.61 2742.94L6072.61 2743.27L6072.53 2743.27L6072.53 2742.95C6072.53 2742.91 6072.52 2742.88 6072.5 2742.85C6072.48 2742.83 6072.45 2742.82 6072.41 2742.82C6072.39 2742.82 6072.36 2742.83 6072.34 2742.84C6072.32 2742.85 6072.31 2742.86 6072.3 2742.88C6072.29 2742.91 6072.28 2742.93 6072.28 2742.96Z" fill="#676767"/>
<g opacity="0.4">
<path d="M6068.17 8288.05C5980.69 8288.05 5909.56 8216.92 5909.56 8129.43C5909.56 8041.95 5980.69 7970.82 6068.17 7970.82C6155.66 7970.82 6226.78 8041.95 6226.78 8129.43C6226.78 8216.85 6155.59 8288.05 6068.17 8288.05ZM6068.17 7975.39C5983.21 7975.39 5914.13 8044.47 5914.13 8129.43C5914.13 8214.4 5983.21 8283.48 6068.17 8283.48C6153.13 8283.48 6222.22 8214.4 6222.22 8129.43C6222.22 8044.47 6153.13 7975.39 6068.17 7975.39Z" fill="#D2D2D2"/>
<path d="M6498.9 9802.62L6486.84 9800.3L6484.6 9792.33L6496.65 9794.65L6505.72 9786.4L6507.96 9794.38L6498.9 9802.62ZM6495.22 9789.4L6483.16 9787.09L6480.92 9779.11L6492.98 9781.43L6502.04 9773.19L6504.29 9781.16L6495.22 9789.4ZM6491.54 9776.19L6479.49 9773.87L6477.24 9765.9L6489.3 9768.21L6498.36 9759.97L6500.61 9767.94L6491.54 9776.19ZM6491.75 9771.89L6489.16 9772.64L6486.91 9764.4L6489.57 9763.72L6491.75 9771.89ZM6485.89 9750.57L6483.23 9751.25L6482.42 9748.32L6476.28 9724.95L6478.94 9724.27L6485.07 9747.64L6485.89 9750.57ZM6475.53 9711.05L6472.88 9711.73L6466.68 9687.41L6466.13 9685.37L6468.79 9684.68L6469.33 9686.73L6475.53 9711.05ZM6465.52 9671.53L6462.86 9672.22L6457.68 9651.57L6456.25 9645.78L6458.91 9645.1L6460.34 9650.89L6465.52 9671.53ZM6455.64 9631.88L6452.98 9632.56L6448.01 9612.46L6446.44 9606.13L6449.1 9605.51L6450.67 9611.85L6455.64 9631.88ZM6445.9 9592.23L6443.24 9592.84L6437.79 9570.43L6436.83 9566.34L6439.49 9565.73L6440.45 9569.81L6445.9 9592.23ZM6436.29 9552.51L6433.63 9553.12L6427.23 9526.62L6429.89 9526L6436.29 9552.51ZM6426.75 9512.85L6424.09 9513.47L6417.76 9486.96L6420.41 9486.35L6426.75 9512.85ZM6417.28 9473.13L6414.62 9473.75L6408.36 9447.24L6411.01 9446.63L6417.28 9473.13ZM6407.81 9433.34L6405.15 9433.96L6404.34 9430.42L6398.95 9407.45L6401.61 9406.84L6406.99 9429.8L6407.81 9433.34ZM6398.48 9393.62L6395.82 9394.24L6392.55 9380.2L6389.62 9367.73L6392.28 9367.12L6395.21 9379.59L6398.48 9393.62ZM6389.14 9353.84L6386.49 9354.45L6380.42 9328.69L6380.22 9327.94L6382.87 9327.33L6383.08 9328.08L6389.14 9353.84ZM6379.81 9314.11L6377.15 9314.73L6370.95 9288.22L6373.61 9287.61L6379.81 9314.11ZM6370.54 9274.32L6367.89 9274.94L6361.75 9248.44L6364.41 9247.82L6370.54 9274.32ZM6361.34 9234.54L6358.69 9235.15L6355.89 9223.23L6352.56 9208.65L6355.21 9208.03L6358.55 9222.61L6361.34 9234.54ZM6352.15 9194.75L6349.49 9195.36L6343.56 9169.88L6343.36 9168.86L6346.01 9168.24L6346.22 9169.27L6352.15 9194.75ZM6342.95 9154.96L6340.29 9155.57L6334.16 9129.07L6336.82 9128.45L6342.95 9154.96ZM6333.82 9115.17L6331.16 9115.78L6325.1 9089.21L6327.76 9088.6L6333.82 9115.17ZM6324.69 9075.31L6322.03 9075.92L6319.17 9063.59L6315.9 9049.42L6318.56 9048.81L6321.83 9062.98L6324.69 9075.31ZM6315.56 9035.52L6312.9 9036.14L6307.25 9011.34L6306.84 9009.56L6309.5 9008.95L6309.9 9010.72L6315.56 9035.52ZM6306.43 8995.73L6303.77 8996.35L6297.71 8969.78L6300.37 8969.16L6306.43 8995.73ZM6297.37 8955.88L6294.71 8956.49L6288.65 8929.92L6291.31 8929.3L6297.37 8955.88ZM6288.31 8916.09L6285.65 8916.7L6284.15 8910.3L6279.59 8890.2L6282.24 8889.58L6286.81 8909.68L6288.31 8916.09ZM6279.25 8876.23L6276.59 8876.84L6273.25 8861.99L6270.59 8850.27L6273.25 8849.66L6275.91 8861.38L6279.25 8876.23ZM6270.18 8836.44L6267.53 8837.05L6262.69 8815.8L6261.46 8810.48L6264.12 8809.87L6265.35 8815.18L6270.18 8836.44ZM6261.19 8796.58L6258.53 8797.2L6252.81 8771.85L6252.54 8770.63L6255.19 8770.01L6255.47 8771.24L6261.19 8796.58ZM6252.2 8756.79L6249.54 8757.41L6243.54 8730.84L6246.2 8730.22L6252.2 8756.79ZM6243.2 8716.94L6240.55 8717.55L6234.82 8692.34L6234.55 8690.98L6237.21 8690.37L6237.48 8691.73L6243.2 8716.94ZM6234.21 8677.08L6231.55 8677.69L6226.99 8657.32L6225.63 8651.19L6228.28 8650.58L6229.65 8656.71L6234.21 8677.08ZM6225.22 8637.22L6222.56 8637.84L6219.9 8625.85L6216.63 8611.27L6219.29 8610.65L6222.56 8625.23L6225.22 8637.22ZM6216.29 8597.43L6213.63 8598.05L6208.52 8575.29L6207.71 8571.48L6210.36 8570.86L6211.18 8574.68L6216.29 8597.43ZM6207.37 8557.58L6204.71 8558.19L6204.37 8556.69L6201.3 8543L6199.39 8534.55L6198.78 8531.69L6201.44 8531.07L6202.05 8533.94L6203.96 8542.38L6207.03 8556.08L6207.37 8557.58ZM6193.19 8500.55L6205.12 8503.55L6206.89 8511.59L6194.97 8508.59L6185.43 8516.36L6183.66 8508.32L6193.19 8500.55ZM6196.19 8513.9L6208.12 8516.9L6209.89 8524.94L6197.96 8521.94L6188.43 8529.71L6186.65 8521.67L6196.19 8513.9ZM6199.19 8527.33L6211.11 8530.32L6212.89 8538.36L6200.96 8535.37L6191.42 8543.13L6189.65 8535.09L6199.19 8527.33Z" fill="#CED1D2"/>
<path d="M7710.9 5784.81H7700.88L7700.82 5782.15C7696.52 5572.17 7691.48 5341 7685.83 5095.11L7685.76 5092.32H7695.77L7695.84 5094.97C7701.5 5341.68 7706.54 5572.78 7710.83 5782.02L7710.9 5784.81Z" fill="#D5D4D4"/>
<path d="M7657.89 5010.83C7657.96 5010.7 7657.96 5010.56 7658.03 5010.49C7658.1 5010.36 7658.23 5010.36 7658.3 5010.49C7658.44 5010.7 7658.44 5011.04 7658.3 5011.24C7658.23 5011.38 7658.1 5011.38 7658.03 5011.24C7657.96 5011.11 7657.96 5010.97 7657.89 5010.83Z" fill="white"/>
<path d="M14.1016 5110.1V5100.84L219.928 5072.77C223.471 5072.36 586.41 5030.39 908.197 4995.98C1264.53 4993.19 1294.03 4647.83 1325.23 4282.16C1344.45 4057.26 1364.27 3824.79 1462.45 3663.73C1538.21 3539.46 1619.09 3423.63 1775.11 3371.51C2056.63 3289.89 2318.8 3269.11 2550.18 3250.78C2845.39 3227.41 3100.34 3207.18 3271.15 3062.94C3456.33 2906.51 3535.02 2617.15 3526.17 2124.76C3519.42 1746.09 3448.43 1351.6 3379.82 970.065C3357.13 843.748 3242.12 186.888 3212.83 7.36018L3212.42 4.08984H3222.5L3222.84 6.40633C3252.28 186.683 3367.08 842.453 3389.7 968.225C3458.38 1350.1 3529.37 1745 3536.18 2124.49C3555.05 3181.15 3155.6 3212.76 2550.99 3260.73C2320.1 3279.06 2058.4 3299.77 1778.11 3381.05C1625.42 3432.01 1545.71 3546.34 1470.97 3668.98C1374.02 3828.06 1354.26 4059.37 1335.18 4283.05C1303.57 4653.41 1273.72 5003.2 908.742 5006C588.249 5040.2 224.697 5082.24 221.155 5082.65L14.1016 5110.1Z" fill="#D2D2D2"/>
<path d="M4676.85 1913.62H4033.48C3985.45 1913.62 3946.48 1874.65 3946.48 1826.62V766.075C3946.48 718.042 3985.45 679.07 4033.48 679.07H4676.85C4724.88 679.07 4763.86 718.042 4763.86 766.075V1826.62C4763.86 1874.65 4724.88 1913.62 4676.85 1913.62Z" stroke="#D5D4D4" stroke-miterlimit="10"/>
<path d="M6876.35 1906.33H5043.13C4968.73 1906.33 4908.43 1846.04 4908.43 1771.64V813.701C4908.43 739.301 4968.73 679.004 5043.13 679.004H6876.35C6950.75 679.004 7011.05 739.301 7011.05 813.701V1771.64C7010.98 1846.04 6950.68 1906.33 6876.35 1906.33Z" stroke="#D5D4D4" stroke-miterlimit="10"/>
<path d="M7727.45 7008.73H7210.95V7015.14H7727.45V7008.73Z" fill="#D5D4D4"/>
<path d="M5474.67 2020.73C5442.31 2021.07 5409.81 2021.34 5377.65 2021.68C4861.14 2026.59 4275.89 2032.17 3715.84 2062.22C3711.42 1990.14 3706.1 1917.17 3700.92 1846.65L3700.31 1838.54C3682.39 1593.27 3573.93 960.799 3572.84 954.462L3406.66 6.3382L3406.25 4.08984H3396.1L3563.03 956.098C3564.12 962.434 3672.38 1593.27 3690.36 1839.22L3690.98 1847.33C3695.95 1914.99 3701.54 1991.63 3706.03 2065.42L3706.44 2072.64L3713.66 2072.24C4274.12 2042.05 4860.39 2036.47 5377.72 2031.56C5409.81 2031.29 5442.31 2030.95 5474.67 2030.61V2020.73Z" fill="#D2D2D2"/>
<path d="M5520.25 2030.27C5691.67 2028.56 5865.82 2026.66 6039.35 2023.79V2013.71C5866.09 2016.57 5691.87 2018.55 5520.25 2020.25V2030.27Z" fill="#D2D2D2"/>
<path d="M7638.07 2186.56L7567.55 2.24872L7567.48 -0.476562L7557.47 -0.135903L7628.05 2186.83L7628.12 2188.26C7542.14 2189.83 7429.38 2196.98 7329.7 2203.39C6987.27 2225.26 6561.04 2252.44 6312.83 2145.13C6225.01 2091.31 6158.38 2015.41 6157.76 2014.66L6156.27 2012.89L6153.95 2012.96C6130.78 2013.37 6107.48 2013.78 6084.25 2014.19V2024.2C6106.8 2023.79 6129.35 2023.45 6151.84 2022.97C6162.33 2034.56 6226.51 2103.91 6308.27 2153.92C6431.79 2207.34 6611.32 2233.37 6857 2233.37C6857.07 2233.37 6857.07 2233.37 6857.14 2233.37C7016.57 2233.37 7183.29 2222.74 7330.32 2213.33C7430.81 2206.93 7544.66 2199.64 7631.12 2198.21L7638.41 2198.07L7638.07 2186.56Z" fill="#D3D3D3"/>
<path d="M1168.26 5604.06C1490.39 5768.39 1754.19 5987.91 2009.42 6200.14C2457.93 6573.3 2881.57 6925.75 3560.58 6938.08C3855.11 6943.46 4348.93 7110.66 4826.6 7272.4C5240.57 7412.62 5631.58 7545 5827.53 7545C5855.4 7545 5879.11 7542.27 5897.98 7536.82L5916.17 7531.58L5912.29 7525.85C5887.69 7489.95 5866.16 7457.25 5845.31 7425.63C5715.04 7228.05 5643.3 7119.24 5394.35 7099.96C5321.17 7094.51 5244.8 7082.59 5160.93 7063.44C5039.24 7035.71 4916.74 6996.06 4798.33 6957.77C4620.78 6900.34 4437.16 6840.92 4246.46 6817.56C4183.51 6809.86 4120.08 6803.04 4058.28 6796.37C3681.31 6755.83 3325.32 6717.61 3018.86 6474.92C2949.43 6410.81 2884.91 6350.78 2822.57 6292.73L2822.16 6292.33C2372.97 5874.27 2101.87 5621.91 1596.06 5340.32C1435.88 5251.13 1256.56 5203.17 1047.87 5193.63C861.665 5185.11 668.307 5207.33 481.353 5228.72L481.693 5231.44L480.808 5228.79C405.999 5237.37 328.669 5246.23 252.293 5253.11L16.6928 5275.66L14.24 5275.93V5286.29L253.179 5263.13C329.895 5256.24 407.429 5247.32 482.375 5238.73C870.59 5194.18 1237.28 5152.14 1591.15 5349.11C2095.94 5630.08 2366.7 5882.1 2815.35 6299.68C2877.76 6357.8 2942.35 6417.89 3012.39 6482.55C3321.36 6727.28 3678.78 6765.71 4057.53 6806.45C4118.92 6813.06 4182.35 6819.87 4245.3 6827.57C4435.12 6850.87 4618.26 6910.08 4795.33 6967.38C4914.02 7005.74 5036.65 7045.46 5158.75 7073.25C5243.16 7092.47 5319.95 7104.53 5393.6 7109.98C5637.65 7128.92 5708.5 7236.29 5837 7431.22C5856.76 7461.2 5877.13 7492.13 5900.16 7525.85L5895.25 7527.29C5741 7571.5 5298.49 7421.68 4829.67 7262.93C4351.38 7100.98 3856.81 6933.52 3560.78 6928.13C2885.25 6915.87 2462.97 6564.51 2015.82 6192.51C1760.26 5979.94 1495.97 5760.08 1172.82 5595.2C814.995 5412.67 187.295 5423.37 160.724 5423.92L14.1719 5429.5V5438.97L160.996 5433.93C167.401 5433.73 811.656 5422.15 1168.26 5604.06Z" fill="#D2D2D2"/>
<path d="M6128.81 9530.09C6091.06 9332.51 6044.12 9086.69 6040.78 9065.77C6021.09 8942.73 6000.72 8815.52 5959.16 8699.7L5958.21 8697.11L5955.55 8696.5C5779.15 8657.12 5652.09 8576.38 5577.96 8456.6C5464.45 8273.4 5515.48 8060.96 5516.03 8058.85L5517.12 8054.49L5512.89 8052.99C5439.65 8026.22 5366.41 7999.37 5293.17 7972.53L5291.87 7972.05C4860.19 7813.98 4413.79 7650.47 3971.48 7497.72C3750.59 7421.41 3529.37 7408.26 3295.2 7394.36C2987.92 7376.1 2670.16 7357.23 2351.71 7183.56C2086.06 7038.64 1880.44 6847.94 1681.63 6663.44C1295.32 6305.07 930.476 5966.52 185.522 6005.08L14.1016 6014.21V6023.48L186.067 6015.03C199.966 6014.28 214.001 6013.67 227.9 6013.26C231.102 6013.05 551.458 5994.32 854.918 6101.9C1189.72 6220.58 1425.39 6439.22 1674.95 6670.73C1874.24 6855.57 2080.27 7046.75 2347.01 7192.28C2667.36 7367.04 2986.29 7385.98 3294.65 7404.31C3528.14 7418.21 3748.75 7431.29 3968.28 7507.12C4410.93 7660.01 4857.6 7823.59 5289.76 7981.86C5361.64 8008.16 5433.52 8034.46 5505.4 8060.76C5498.72 8092.51 5463.09 8289.95 5569.51 8461.78C5644.8 8583.33 5773.02 8665.36 5950.78 8705.56C5991.39 8819.68 6011.48 8945.45 6030.97 9067.27C6034.31 9088.32 6081.46 9334.89 6119.27 9533.02C6145.98 9672.9 6169.07 9793.69 6171.59 9808.21L6172.07 9810.93L6181.88 9809.09L6181.41 9806.43C6178.82 9791.92 6155.65 9670.58 6128.81 9530.09ZM427.731 6011.62C524.274 6017.96 613.731 6031.45 697.329 6051C599.082 6028.72 505.333 6017.28 427.731 6011.62Z" fill="#D2D2D2"/>
<path d="M2369.29 6889.91L2370.65 6887.6L2358.93 6880.71L2357.5 6883.03L2369.29 6889.91Z" fill="#CED1D2"/>
<path d="M2428.91 6922.75L2430.27 6920.37L2418.21 6914.03L2416.91 6916.42L2428.91 6922.75Z" fill="#CED1D2"/>
<path d="M2322.41 6862.18L2333.32 6868.86L2345.78 6876.15L2347.15 6873.83L2334.75 6866.54L2323.84 6859.87L2322.41 6862.18Z" fill="#CED1D2"/>
<path d="M2404.92 6909.88L2406.28 6907.49L2382.5 6894.27L2381.14 6896.66L2404.92 6909.88Z" fill="#CED1D2"/>
<path d="M2287.6 6840.65L2289.09 6838.4L2266.2 6823.69L2264.7 6826L2287.6 6840.65Z" fill="#CED1D2"/>
<path d="M2196.78 6780.56L2198.34 6778.31L2187.17 6770.54L2185.6 6772.79L2196.78 6780.56Z" fill="#CED1D2"/>
<path d="M2152.22 6749.15L2167.55 6760.19L2174.43 6765.02L2176 6762.77L2169.12 6758.01L2153.85 6746.97L2152.22 6749.15Z" fill="#CED1D2"/>
<path d="M2141.19 6741.18L2142.82 6739L2131.78 6731.03L2130.15 6733.21L2141.19 6741.18Z" fill="#CED1D2"/>
<path d="M2440.96 6929.15L2452.48 6935.22L2465.22 6941.55L2466.44 6939.17L2453.7 6932.77L2442.26 6926.77L2440.96 6929.15Z" fill="#CED1D2"/>
<path d="M2207.95 6788.33L2210 6789.69L2230.57 6803.52L2232.14 6801.27L2211.5 6787.44L2209.52 6786.08L2207.95 6788.33Z" fill="#CED1D2"/>
<path d="M2310.76 6855.03L2312.26 6852.71L2300.61 6845.62L2299.18 6847.94L2310.76 6855.03Z" fill="#CED1D2"/>
<path d="M2241.88 6811.08L2251.69 6817.63L2253.26 6818.65L2254.76 6816.33L2253.19 6815.38L2243.45 6808.84L2241.88 6811.08Z" fill="#CED1D2"/>
<path d="M2563.88 6987.88L2569.73 6990.47L2588.95 6998.44L2590.04 6995.99L2570.82 6987.95L2564.97 6985.36L2563.88 6987.88Z" fill="#CED1D2"/>
<path d="M2807.58 7074.48L2808.4 7071.89L2795.32 7068.01L2794.5 7070.6L2807.58 7074.48Z" fill="#CED1D2"/>
<path d="M2755.39 7058.81L2767.11 7062.49L2781.49 7066.78L2782.23 7064.19L2767.93 7059.9L2756.21 7056.22L2755.39 7058.81Z" fill="#CED1D2"/>
<path d="M2742.45 7054.72L2743.27 7052.13L2730.32 7047.98L2729.44 7050.57L2742.45 7054.72Z" fill="#CED1D2"/>
<path d="M2846.97 7085.31L2847.71 7082.73L2821.48 7075.5L2820.73 7078.09L2846.97 7085.31Z" fill="#CED1D2"/>
<path d="M2489.61 6953.75L2490.84 6951.3L2478.64 6945.23L2477.41 6947.69L2489.61 6953.75Z" fill="#CED1D2"/>
<path d="M2716.49 7046.2L2717.44 7043.68L2691.62 7034.89L2690.73 7037.48L2716.49 7046.2Z" fill="#CED1D2"/>
<path d="M2873.33 7092.13L2874.08 7089.54L2860.86 7086.13L2860.18 7088.79L2873.33 7092.13Z" fill="#CED1D2"/>
<path d="M2890.43 7096.56L2911.89 7101.73L2913.05 7102.01L2913.66 7099.35L2912.5 7099.08L2891.04 7093.9L2890.43 7096.56Z" fill="#CED1D2"/>
<path d="M1421.92 6117.09L1423.62 6114.98L1413.4 6106.05L1411.7 6108.1L1421.92 6117.09Z" fill="#CED1D2"/>
<path d="M2677.86 7032.85L2678.88 7030.33L2666.07 7025.7L2665.12 7028.22L2677.86 7032.85Z" fill="#CED1D2"/>
<path d="M2119.18 6725.17L2120.81 6722.99L2099.01 6706.7L2097.38 6708.88L2119.18 6725.17Z" fill="#CED1D2"/>
<path d="M2526.54 6971.19L2527.7 6968.74L2503.1 6957.16L2501.88 6959.61L2526.54 6971.19Z" fill="#CED1D2"/>
<path d="M2601.55 7003.69L2608.77 7006.69L2614.15 7008.8L2615.17 7006.28L2609.79 7004.17L2602.64 7001.17L2601.55 7003.69Z" fill="#CED1D2"/>
<path d="M2626.9 7013.77L2647.95 7021.95L2652.31 7023.59L2653.27 7021L2648.91 7019.43L2627.92 7011.25L2626.9 7013.77Z" fill="#CED1D2"/>
<path d="M2887.23 7092.88L2886.55 7095.53L2890.43 7096.55L2891.04 7093.9L2887.23 7092.88Z" fill="#CED1D2"/>
<path d="M1570.85 6256.63L1572.69 6254.65L1562.81 6245.32L1560.91 6247.29L1570.85 6256.63Z" fill="#CED1D2"/>
<path d="M1511.44 6200.55L1511.98 6201.03L1521.38 6209.89L1523.22 6207.91L1513.89 6199.06L1513.35 6198.58L1511.44 6200.55Z" fill="#CED1D2"/>
<path d="M1600.69 6284.49L1602.53 6282.52L1582.64 6263.98L1580.8 6265.96L1600.69 6284.49Z" fill="#CED1D2"/>
<path d="M1551.02 6237.96L1552.93 6235.98L1533.11 6217.25L1531.27 6219.22L1551.02 6237.96Z" fill="#CED1D2"/>
<path d="M1680.68 6358.41L1685.04 6362.43L1700.85 6376.74L1702.69 6374.77L1686.88 6360.46L1682.52 6356.44L1680.68 6358.41Z" fill="#CED1D2"/>
<path d="M1670.66 6349.22L1672.5 6347.24L1662.49 6338.04L1660.65 6340.02L1670.66 6349.22Z" fill="#CED1D2"/>
<path d="M1650.63 6330.82L1652.47 6328.78L1632.44 6310.38L1630.6 6312.36L1650.63 6330.82Z" fill="#CED1D2"/>
<path d="M1620.59 6303.09L1622.5 6301.12L1612.48 6291.78L1610.64 6293.83L1620.59 6303.09Z" fill="#CED1D2"/>
<path d="M1501.63 6191.08L1503.54 6189.17L1483.85 6170.3L1481.94 6172.28L1501.63 6191.08Z" fill="#CED1D2"/>
<path d="M1452.5 6140.32L1450.59 6142.3L1452.43 6144.07L1454.34 6142.1L1452.5 6140.32Z" fill="#CED1D2"/>
<path d="M1472.12 6162.87L1474.03 6160.9L1464.15 6151.5L1462.31 6153.47L1472.12 6162.87Z" fill="#CED1D2"/>
<path d="M1452.5 6140.32L1433.9 6123.97L1432.13 6126.08L1450.6 6142.3L1452.5 6140.32Z" fill="#CED1D2"/>
<path d="M2032.45 6659.22L2034.15 6657.1L2023.45 6648.66L2021.75 6650.77L2032.45 6659.22Z" fill="#CED1D2"/>
<path d="M1936.99 6582.36L1941.63 6586.18L1958.11 6599.6L1959.82 6597.56L1943.33 6584.13L1938.76 6580.25L1936.99 6582.36Z" fill="#CED1D2"/>
<path d="M1926.57 6573.64L1928.34 6571.53L1917.85 6562.81L1916.08 6564.92L1926.57 6573.64Z" fill="#CED1D2"/>
<path d="M1884.8 6538.62L1893.12 6545.71L1905.65 6556.2L1907.42 6554.09L1894.82 6543.6L1886.58 6536.58L1884.8 6538.62Z" fill="#CED1D2"/>
<path d="M1979.16 6616.84L1980.93 6614.73L1970.37 6606.14L1968.6 6608.25L1979.16 6616.84Z" fill="#CED1D2"/>
<path d="M2064.81 6684.22L2066.44 6682.04L2044.91 6665.48L2043.21 6667.6L2064.81 6684.22Z" fill="#CED1D2"/>
<path d="M1989.8 6625.42L2011.12 6642.32L2012.83 6640.21L1991.5 6623.31L1989.8 6625.42Z" fill="#CED1D2"/>
<path d="M2075.57 6692.53L2080.2 6696.07L2086.47 6700.78L2088.11 6698.6L2081.84 6693.89L2077.27 6690.35L2075.57 6692.53Z" fill="#CED1D2"/>
<path d="M1781.92 6449.44L1792.01 6458.43L1802.36 6467.49L1804.2 6465.45L1793.84 6456.39L1783.76 6447.46L1781.92 6449.44Z" fill="#CED1D2"/>
<path d="M1721.01 6395L1722.85 6393.02L1712.77 6383.89L1710.93 6385.87L1721.01 6395Z" fill="#CED1D2"/>
<path d="M1771.77 6440.45L1773.61 6438.4L1763.39 6429.34L1761.62 6431.38L1771.77 6440.45Z" fill="#CED1D2"/>
<path d="M1874.44 6529.76L1876.28 6527.72L1865.93 6518.86L1864.16 6520.98L1874.44 6529.76Z" fill="#CED1D2"/>
<path d="M1731.09 6404.13L1739.34 6411.56L1751.4 6422.32L1753.24 6420.28L1741.11 6409.51L1732.93 6402.16L1731.09 6404.13Z" fill="#CED1D2"/>
<path d="M1833.16 6494.34L1843.24 6503.13L1853.8 6512.12L1855.57 6510.08L1845.01 6501.08L1834.93 6492.29L1833.16 6494.34Z" fill="#CED1D2"/>
<path d="M1822.87 6485.34L1824.71 6483.3L1814.42 6474.38L1812.65 6476.42L1822.87 6485.34Z" fill="#CED1D2"/>
<path d="M2551.41 6982.37L2552.56 6979.85L2540.1 6974.33L2538.94 6976.85L2551.41 6982.37Z" fill="#CED1D2"/>
<path d="M3948.32 7261.37L3948.86 7258.71L3935.58 7255.71L3935.03 7258.37L3948.32 7261.37Z" fill="#CED1D2"/>
<path d="M2926.27 7105L2933.28 7106.64L2939.62 7108L2940.16 7105.34L2933.9 7103.98L2926.95 7102.41L2926.27 7105Z" fill="#CED1D2"/>
<path d="M4159.66 7313.69L4172.12 7317.03L4185.89 7320.84L4186.64 7318.19L4172.81 7314.37L4160.34 7311.1L4159.66 7313.69Z" fill="#CED1D2"/>
<path d="M4212.19 7328.07L4212.87 7325.48L4199.72 7321.8L4199.04 7324.46L4212.19 7328.07Z" fill="#CED1D2"/>
<path d="M4355.95 7369.77L4372.43 7374.67L4382.04 7377.6L4382.79 7375.01L4373.18 7372.08L4356.69 7367.11L4355.95 7369.77Z" fill="#CED1D2"/>
<path d="M4290.68 7350.42L4305.8 7354.78L4316.84 7358.05L4317.59 7355.46L4306.62 7352.12L4291.43 7347.76L4290.68 7350.42Z" fill="#CED1D2"/>
<path d="M4342.93 7365.81L4343.68 7363.22L4330.67 7359.34L4329.85 7361.93L4342.93 7365.81Z" fill="#CED1D2"/>
<path d="M4080.62 7293.11L4081.24 7290.46L4068.09 7287.19L4067.41 7289.78L4080.62 7293.11Z" fill="#CED1D2"/>
<path d="M4014.54 7276.83L4015.15 7274.17L4001.93 7271.04L4001.32 7273.7L4014.54 7276.83Z" fill="#CED1D2"/>
<path d="M4027.83 7279.97L4037.57 7282.28L4054.2 7286.51L4054.88 7283.85L4038.18 7279.62L4028.44 7277.31L4027.83 7279.97Z" fill="#CED1D2"/>
<path d="M4146.51 7310.22L4147.19 7307.63L4133.97 7304.09L4133.36 7306.74L4146.51 7310.22Z" fill="#CED1D2"/>
<path d="M3961.6 7264.3L3969.91 7266.21L3988.1 7270.5L3988.72 7267.84L3970.53 7263.55L3962.15 7261.64L3961.6 7264.3Z" fill="#CED1D2"/>
<path d="M4408 7385.64L4408.81 7383.05L4395.8 7379.03L4394.98 7381.62L4408 7385.64Z" fill="#CED1D2"/>
<path d="M4093.84 7296.45L4104.95 7299.25L4120.14 7303.27L4120.82 7300.61L4105.63 7296.59L4094.46 7293.8L4093.84 7296.45Z" fill="#CED1D2"/>
<path d="M4277.6 7346.67L4278.35 7344.01L4265.27 7340.26L4264.52 7342.85L4277.6 7346.67Z" fill="#CED1D2"/>
<path d="M4731.15 7492.27L4732.04 7489.75L4719.16 7485.25L4718.27 7487.84L4731.15 7492.27Z" fill="#CED1D2"/>
<path d="M4744.03 7496.76L4768.76 7505.41L4769.72 7505.75L4770.6 7503.17L4769.65 7502.82L4744.92 7494.17L4744.03 7496.76Z" fill="#CED1D2"/>
<path d="M4679.71 7474.48L4703.01 7482.45L4705.47 7483.34L4706.35 7480.75L4703.9 7479.93L4680.53 7471.96L4679.71 7474.48Z" fill="#CED1D2"/>
<path d="M4859.51 7537.64L4860.4 7535.05L4847.59 7530.49L4846.7 7533.01L4859.51 7537.64Z" fill="#CED1D2"/>
<path d="M4666.83 7470.12L4667.65 7467.53L4654.77 7463.11L4653.95 7465.69L4666.83 7470.12Z" fill="#CED1D2"/>
<path d="M4808.21 7519.38L4833.9 7528.44L4834.78 7525.85L4809.1 7516.79L4808.21 7519.38Z" fill="#CED1D2"/>
<path d="M4795.4 7514.82L4796.29 7512.23L4783.48 7507.73L4782.52 7510.25L4795.4 7514.82Z" fill="#CED1D2"/>
<path d="M4602.31 7448.32L4603.2 7445.73L4590.26 7441.37L4589.44 7443.96L4602.31 7448.32Z" fill="#CED1D2"/>
<path d="M4485.95 7410.17L4505.09 7416.23L4511.84 7418.48L4512.65 7415.89L4505.91 7413.64L4486.76 7407.58L4485.95 7410.17Z" fill="#CED1D2"/>
<path d="M4537.73 7426.93L4538.54 7424.34L4525.6 7420.11L4524.78 7422.7L4537.73 7426.93Z" fill="#CED1D2"/>
<path d="M4472.93 7406.01L4473.75 7403.42L4460.8 7399.34L4459.98 7401.92L4472.93 7406.01Z" fill="#CED1D2"/>
<path d="M4550.67 7431.15L4571.18 7437.9L4576.49 7439.67L4577.38 7437.08L4572 7435.31L4551.49 7428.56L4550.67 7431.15Z" fill="#CED1D2"/>
<path d="M4421.02 7389.66L4438.8 7395.18L4447.04 7397.77L4447.86 7395.18L4439.62 7392.59L4421.83 7387.07L4421.02 7389.66Z" fill="#CED1D2"/>
<path d="M4615.26 7452.61L4637.13 7459.97L4641.01 7461.27L4641.9 7458.74L4638.01 7457.38L4616.08 7450.02L4615.26 7452.61Z" fill="#CED1D2"/>
<path d="M4225.27 7331.75L4239.04 7335.56L4251.5 7339.11L4252.19 7336.45L4239.79 7332.91L4226.02 7329.09L4225.27 7331.75Z" fill="#CED1D2"/>
<path d="M3154.38 7144.59L3162.55 7145.68L3181.42 7147.99L3181.76 7145.34L3162.89 7142.95L3154.72 7141.93L3154.38 7144.59Z" fill="#CED1D2"/>
<path d="M3194.91 7149.63L3203.57 7150.65L3208.4 7151.2L3208.74 7148.54L3203.91 7148L3195.25 7146.91L3194.91 7149.63Z" fill="#CED1D2"/>
<path d="M3262.56 7157.26L3265.15 7157.53L3276.12 7158.69L3276.39 7155.97L3265.42 7154.81L3262.84 7154.54L3262.56 7157.26Z" fill="#CED1D2"/>
<path d="M3222.3 7150.11L3221.96 7152.76L3224.07 7153.04L3244.58 7155.28L3249.01 7155.76L3249.35 7153.1L3244.92 7152.63L3224.41 7150.31L3222.3 7150.11Z" fill="#CED1D2"/>
<path d="M3289.62 7160.12L3306.24 7161.83L3316.73 7162.92L3317.01 7160.19L3306.58 7159.17L3289.96 7157.4L3289.62 7160.12Z" fill="#CED1D2"/>
<path d="M3357.34 7167.14L3368.31 7168.23L3384.45 7169.93L3384.73 7167.21L3368.58 7165.5L3357.61 7164.41L3357.34 7167.14Z" fill="#CED1D2"/>
<path d="M3330.8 7161.76L3330.52 7164.47L3344.08 7165.86L3344.36 7163.15L3330.8 7161.76Z" fill="#CED1D2"/>
<path d="M2953.52 7108.27L2952.91 7110.93L2954.54 7111.27L2975.66 7115.63L2979.61 7116.45L2980.16 7113.72L2976.21 7112.97L2955.09 7108.61L2953.52 7108.27Z" fill="#CED1D2"/>
<path d="M3019.74 7124.01L3038.55 7127.35L3046.59 7128.71L3047.06 7125.99L3039.02 7124.69L3020.22 7121.36L3019.74 7124.01Z" fill="#CED1D2"/>
<path d="M2992.97 7119.04L2996.72 7119.79L3006.32 7121.56L3006.87 7118.9L2997.26 7117.13L2993.51 7116.38L2992.97 7119.04Z" fill="#CED1D2"/>
<path d="M3397.95 7171.3L3409.94 7172.59L3411.5 7172.73L3411.78 7170.07L3410.21 7169.87L3398.29 7168.64L3397.95 7171.3Z" fill="#CED1D2"/>
<path d="M3140.88 7142.82L3141.22 7140.16L3127.73 7138.32L3127.39 7140.98L3140.88 7142.82Z" fill="#CED1D2"/>
<path d="M3073.43 7133.07L3073.91 7130.42L3060.48 7128.23L3060.01 7130.96L3073.43 7133.07Z" fill="#CED1D2"/>
<path d="M3086.92 7135.19L3100.75 7137.23L3113.9 7139.14L3114.24 7136.41L3101.16 7134.57L3087.33 7132.46L3086.92 7135.19Z" fill="#CED1D2"/>
<path d="M3614.06 7198.21L3614.4 7195.48L3600.98 7193.51L3600.57 7196.23L3614.06 7198.21Z" fill="#CED1D2"/>
<path d="M3761.7 7222.81L3765.59 7223.49L3788.41 7227.92L3788.96 7225.26L3766.06 7220.83L3762.18 7220.15L3761.7 7222.81Z" fill="#CED1D2"/>
<path d="M3748.34 7220.42L3748.75 7217.76L3735.33 7215.38L3734.92 7218.04L3748.34 7220.42Z" fill="#CED1D2"/>
<path d="M3681.3 7208.77L3681.71 7206.11L3668.22 7203.93L3667.81 7206.59L3681.3 7208.77Z" fill="#CED1D2"/>
<path d="M3694.73 7210.95L3696.91 7211.29L3721.5 7215.65L3721.98 7212.99L3697.38 7208.63L3695.14 7208.22L3694.73 7210.95Z" fill="#CED1D2"/>
<path d="M3881.82 7246.79L3882.36 7244.13L3869.08 7241.34L3868.53 7243.99L3881.82 7246.79Z" fill="#CED1D2"/>
<path d="M3828.54 7235.68L3833.99 7236.77L3855.18 7241.2L3855.72 7238.54L3834.53 7234.11L3829.02 7233.02L3828.54 7235.68Z" fill="#CED1D2"/>
<path d="M3815.18 7233.09L3815.66 7230.43L3802.31 7227.84L3801.83 7230.5L3815.18 7233.09Z" fill="#CED1D2"/>
<path d="M3533.19 7186.83L3537.14 7187.37L3546.68 7188.6L3547.02 7185.94L3537.48 7184.65L3533.53 7184.17L3533.19 7186.83Z" fill="#CED1D2"/>
<path d="M3492.99 7179.13L3492.65 7181.86L3494.28 7181.99L3515.61 7184.65L3519.7 7185.13L3520.04 7182.47L3515.95 7181.93L3494.62 7179.34L3492.99 7179.13Z" fill="#CED1D2"/>
<path d="M3627.55 7200.12L3627.96 7200.18L3654.39 7204.48L3654.8 7201.75L3628.36 7197.53L3627.89 7197.39L3627.55 7200.12Z" fill="#CED1D2"/>
<path d="M3465.6 7178.72L3473.03 7179.54L3479.16 7180.22L3479.5 7177.56L3473.37 7176.81L3465.94 7176L3465.6 7178.72Z" fill="#CED1D2"/>
<path d="M3425.34 7171.5L3425.06 7174.23L3430.85 7174.84L3451.91 7177.16H3452.11L3452.38 7174.43H3452.18L3431.13 7172.11L3425.34 7171.5Z" fill="#CED1D2"/>
<path d="M3560.16 7190.44L3587.14 7194.32L3587.49 7191.6L3560.51 7187.71L3560.16 7190.44Z" fill="#CED1D2"/>
<path d="M3895.17 7249.58L3902.05 7251.01L3921.74 7255.37L3922.29 7252.71L3902.67 7248.35L3895.72 7246.86L3895.17 7249.58Z" fill="#CED1D2"/>
<path d="M1077.85 5900.57L1078.87 5898.05L1066.4 5892.66L1065.38 5895.18L1077.85 5900.57Z" fill="#CED1D2"/>
<path d="M4961.91 7574.64L4962.87 7572.05L4937.25 7562.78L4936.3 7565.37L4961.91 7574.64Z" fill="#CED1D2"/>
<path d="M5025.82 7598.01L5026.78 7595.48L5001.23 7586.08L5000.27 7588.67L5025.82 7598.01Z" fill="#CED1D2"/>
<path d="M5051.37 7607.41L5052.33 7604.89L5039.52 7600.19L5038.63 7602.71L5051.37 7607.41Z" fill="#CED1D2"/>
<path d="M4987.46 7583.97L4988.41 7581.45L4975.6 7576.75L4974.72 7579.34L4987.46 7583.97Z" fill="#CED1D2"/>
<path d="M165.217 5704.41L165.148 5707.14L182.386 5707.55L192.333 5707.96L192.401 5705.23L182.522 5704.89L165.217 5704.41Z" fill="#CED1D2"/>
<path d="M5167.5 7647.04L5166.55 7649.6L5179.33 7654.34L5180.28 7651.79L5167.5 7647.04Z" fill="#CED1D2"/>
<path d="M5103.54 7623.89L5102.59 7626.45L5115.37 7631.18L5116.32 7628.62L5103.54 7623.89Z" fill="#CED1D2"/>
<path d="M5192.55 7657.18L5191.6 7659.74L5217.15 7669.22L5218.1 7666.66L5192.55 7657.18Z" fill="#CED1D2"/>
<path d="M5128.92 7633.14L5127.98 7635.7L5153.54 7645.15L5154.48 7642.6L5128.92 7633.14Z" fill="#CED1D2"/>
<path d="M4923.56 7560.67L4924.44 7558.15L4911.64 7553.52L4910.75 7556.04L4923.56 7560.67Z" fill="#CED1D2"/>
<path d="M30.3183 5696.03L19.7578 5707.48L31.1358 5717.97L42.1051 5717.56L30.7271 5707L41.2875 5695.62L30.3183 5696.03Z" fill="#CED1D2"/>
<path d="M5231.13 7671.23L5230.18 7673.79L5242.95 7678.53L5243.9 7675.98L5231.13 7671.23Z" fill="#CED1D2"/>
<path d="M97.1541 5706.39L108.464 5706.32L124.339 5706.39V5703.67L108.464 5703.6L97.0859 5703.67L97.1541 5706.39Z" fill="#CED1D2"/>
<path d="M151.527 5706.73L151.595 5704.01L137.969 5703.8V5706.53L151.527 5706.73Z" fill="#CED1D2"/>
<path d="M64.0426 5716.75L52.6646 5706.19L63.225 5694.81L52.2558 5695.22L41.6953 5706.6L53.0733 5717.16L64.0426 5716.75Z" fill="#CED1D2"/>
<path d="M76.1005 5706.66L79.8477 5706.59L83.5268 5706.53L83.4587 5703.8L79.7796 5703.87L75.8279 5703.94L74.6016 5705.3L76.1005 5706.66Z" fill="#CED1D2"/>
<path d="M85.9801 5715.86L76.101 5706.66L72.4218 5706.8L69.9691 5706.87L69.8328 5704.14L72.3537 5704.07L75.8284 5703.94L85.1625 5693.92L74.1933 5694.33L63.6328 5705.78L75.0108 5716.27L85.9801 5715.86Z" fill="#CED1D2"/>
<path d="M69.8359 5704.14L69.9722 5706.87L72.425 5706.8L76.1041 5706.66L74.6052 5705.3L75.8315 5703.94L72.3568 5704.07L69.8359 5704.14Z" fill="#CED1D2"/>
<path d="M5089.73 7621.58L5090.61 7618.99L5065.07 7609.59L5064.18 7612.18L5089.73 7621.58Z" fill="#CED1D2"/>
<path d="M5549.41 7791.36L5553.5 7792.86L5562.22 7796L5563.18 7793.48L5554.39 7790.28L5550.37 7788.84L5549.41 7791.36Z" fill="#CED1D2"/>
<path d="M5732.14 7855.14L5725.47 7841.17L5715.11 7837.49L5721.79 7851.52L5707.82 7858.2L5718.18 7861.88L5732.14 7855.14Z" fill="#CED1D2"/>
<path d="M5600.65 7809.83L5601.6 7807.31L5575.98 7798.04L5575.03 7800.63L5600.65 7809.83Z" fill="#CED1D2"/>
<path d="M5256.85 7680.21L5255.9 7682.76L5281.45 7692.25L5282.4 7689.69L5256.85 7680.21Z" fill="#CED1D2"/>
<path d="M5613.46 7814.46L5618.91 7816.44L5626.27 7819.03L5627.22 7816.5L5619.8 7813.85L5614.41 7811.87L5613.46 7814.46Z" fill="#CED1D2"/>
<path d="M1401.47 6099.24L1403.11 6097.06L1381.71 6080.23L1380.08 6082.41L1401.47 6099.24Z" fill="#CED1D2"/>
<path d="M5679.55 7835.11L5678.52 7834.77L5677.57 7837.29L5678.66 7837.7L5680.43 7836.88L5679.55 7835.11Z" fill="#CED1D2"/>
<path d="M5685.27 7837.15L5679.55 7835.11L5680.44 7836.88L5678.66 7837.69L5684.39 7839.74L5685.27 7837.15Z" fill="#CED1D2"/>
<path d="M5676.75 7847.23L5690.72 7840.55L5684.04 7826.52L5673.69 7822.84L5679.55 7835.1L5685.27 7837.15L5684.39 7839.74L5678.66 7837.69L5666.4 7843.55L5676.75 7847.23Z" fill="#CED1D2"/>
<path d="M5711.43 7847.85L5704.76 7833.81L5694.4 7830.2L5701.08 7844.17L5687.11 7850.91L5697.47 7854.52L5711.43 7847.85Z" fill="#CED1D2"/>
<path d="M5358.04 7718.4L5357.09 7720.96L5369.87 7725.69L5370.82 7723.13L5358.04 7718.4Z" fill="#CED1D2"/>
<path d="M5320.49 7704.4L5319.54 7706.96L5345.09 7716.44L5346.04 7713.89L5320.49 7704.4Z" fill="#CED1D2"/>
<path d="M5294.93 7694.97L5293.98 7697.53L5306.76 7702.27L5307.71 7699.71L5294.93 7694.97Z" fill="#CED1D2"/>
<path d="M5384.41 7727.67L5383.46 7730.22L5409.02 7739.67L5409.97 7737.11L5384.41 7727.67Z" fill="#CED1D2"/>
<path d="M5536.6 7786.73L5537.56 7784.14L5512.01 7774.81L5511.05 7777.4L5536.6 7786.73Z" fill="#CED1D2"/>
<path d="M5485.44 7768.06L5488.09 7769.02L5498.25 7772.76L5499.2 7770.18L5489.05 7766.5L5486.39 7765.54L5485.44 7768.06Z" fill="#CED1D2"/>
<path d="M5421.6 7744.63L5422.76 7745.04L5434.34 7749.33L5435.3 7746.74L5423.71 7742.52L5422.49 7742.04L5421.6 7744.63Z" fill="#CED1D2"/>
<path d="M5448.31 7751.62L5447.37 7754.18L5472.94 7763.6L5473.88 7761.04L5448.31 7751.62Z" fill="#CED1D2"/>
<path d="M5664.76 7832.72L5665.65 7830.2L5640.03 7821.07L5639.08 7823.59L5664.76 7832.72Z" fill="#CED1D2"/>
<path d="M1052.84 5889.74L1053.86 5887.21L1028.86 5876.45L1027.84 5878.97L1052.84 5889.74Z" fill="#CED1D2"/>
<path d="M4897.94 7551.41L4898.82 7548.89L4873.21 7539.69L4872.32 7542.21L4897.94 7551.41Z" fill="#CED1D2"/>
<path d="M1114.71 5918.01L1115.86 5915.55L1091.27 5903.84L1090.11 5906.36L1114.71 5918.01Z" fill="#CED1D2"/>
<path d="M1127.04 5923.87L1135.21 5927.75L1139.17 5929.86L1140.39 5927.41L1136.44 5925.3L1128.13 5921.41L1127.04 5923.87Z" fill="#CED1D2"/>
<path d="M989.954 5863.91L990.908 5861.39L965.563 5851.45L964.609 5854.03L989.954 5863.91Z" fill="#CED1D2"/>
<path d="M1015.31 5873.86L1016.26 5871.27L1003.59 5866.3L1002.63 5868.89L1015.31 5873.86Z" fill="#CED1D2"/>
<path d="M900.5 5831.41L906.087 5833.25L926.118 5840.34L927.003 5837.75L906.973 5830.66L901.249 5828.82L900.5 5831.41Z" fill="#CED1D2"/>
<path d="M835.57 5811.04L848.515 5814.79L861.597 5818.95L862.346 5816.36L849.333 5812.13L836.32 5808.39L835.57 5811.04Z" fill="#CED1D2"/>
<path d="M1151.23 5936.13L1175.35 5948.8L1176.57 5946.35L1152.45 5933.75L1151.23 5936.13Z" fill="#CED1D2"/>
<path d="M887.484 5827.26L888.302 5824.67L875.357 5820.51L874.539 5823.1L887.484 5827.26Z" fill="#CED1D2"/>
<path d="M205.961 5708.5L214.409 5708.84L219.519 5709.12L219.655 5706.39L214.546 5706.12L206.029 5705.78L205.961 5708.5Z" fill="#CED1D2"/>
<path d="M1347.92 6057.34L1349.42 6055.09L1327.21 6039.35L1325.71 6041.6L1347.92 6057.34Z" fill="#CED1D2"/>
<path d="M1369.38 6073.96L1371.02 6071.78L1360.32 6063.34L1358.69 6065.52L1369.38 6073.96Z" fill="#CED1D2"/>
<path d="M1187.41 5955.14L1191.09 5957.05L1199.26 5961.75L1200.56 5959.36L1192.45 5954.66L1188.63 5952.69L1187.41 5955.14Z" fill="#CED1D2"/>
<path d="M1314.54 6033.7L1316.1 6031.45L1305 6023.61L1303.43 6025.86L1314.54 6033.7Z" fill="#CED1D2"/>
<path d="M1234.62 5982.19L1235.91 5979.81L1212.34 5966.18L1211.05 5968.56L1234.62 5982.19Z" fill="#CED1D2"/>
<path d="M1292.19 6018.37L1293.62 6016.05L1270.66 6001.34L1269.23 6003.72L1292.19 6018.37Z" fill="#CED1D2"/>
<path d="M1257.78 5996.36L1259.21 5994.05L1247.7 5986.69L1246.34 5989L1257.78 5996.36Z" fill="#CED1D2"/>
<path d="M951.801 5849.47L952.687 5846.88L939.878 5842.31L938.992 5844.9L951.801 5849.47Z" fill="#CED1D2"/>
<path d="M557.453 5746.32L557.862 5743.59L544.44 5741.34L544.031 5744.07L557.453 5746.32Z" fill="#CED1D2"/>
<path d="M463.369 5731.67L463.641 5729.01L436.661 5725.47L436.32 5728.19L463.369 5731.67Z" fill="#CED1D2"/>
<path d="M503.703 5737.6L518.352 5739.78L530.615 5741.82L531.024 5739.1L518.76 5737.05L504.112 5734.87L503.703 5737.6Z" fill="#CED1D2"/>
<path d="M822.488 5807.22L823.237 5804.57L810.156 5800.82L809.406 5803.41L822.488 5807.22Z" fill="#CED1D2"/>
<path d="M368.797 5720.36L373.294 5720.83L395.845 5723.36L396.118 5720.63L373.566 5718.11L369.001 5717.63L368.797 5720.36Z" fill="#CED1D2"/>
<path d="M409.336 5724.85L419.556 5726.01L422.826 5726.42L423.167 5723.76L419.896 5723.29L409.608 5722.13L409.336 5724.85Z" fill="#CED1D2"/>
<path d="M233.148 5709.87L249.773 5710.68L260.265 5711.43L260.469 5708.71L249.909 5708.03L233.217 5707.14L233.148 5709.87Z" fill="#CED1D2"/>
<path d="M287.449 5713.2L287.585 5710.48L274.027 5709.59L273.891 5712.32L287.449 5713.2Z" fill="#CED1D2"/>
<path d="M328.124 5716.48L328.329 5713.75L301.212 5711.57L301.008 5714.3L328.124 5716.48Z" fill="#CED1D2"/>
<path d="M355.238 5719.06L355.442 5716.34L341.884 5715.04L341.68 5717.77L355.238 5719.06Z" fill="#CED1D2"/>
<path d="M490.279 5735.62L490.62 5732.89L477.198 5730.92L476.789 5733.57L490.279 5735.62Z" fill="#CED1D2"/>
<path d="M730.582 5782.36L731.195 5779.7L704.691 5773.5L704.078 5776.16L730.582 5782.36Z" fill="#CED1D2"/>
<path d="M677.641 5769.96L678.799 5770.16L690.858 5773.03L691.403 5770.37L679.412 5767.51L678.118 5767.23L677.641 5769.96Z" fill="#CED1D2"/>
<path d="M597.583 5753.61L598.06 5750.95L571.352 5745.91L570.875 5748.56L597.583 5753.61Z" fill="#CED1D2"/>
<path d="M770.094 5792.65L791.283 5798.16L796.325 5799.66L797.074 5797.01L792.032 5795.58L770.775 5789.99L770.094 5792.65Z" fill="#CED1D2"/>
<path d="M611.008 5756.13L623.953 5758.58L624.362 5758.65L624.839 5755.99L624.498 5755.92L611.485 5753.47L611.008 5756.13Z" fill="#CED1D2"/>
<path d="M756.944 5789.17L757.557 5786.52L744.408 5783.11L743.727 5785.7L756.944 5789.17Z" fill="#CED1D2"/>
<path d="M664.288 5767.1L664.833 5764.44L638.194 5758.79L637.648 5761.51L664.288 5767.1Z" fill="#CED1D2"/>
<path d="M8499.53 7616.74L8478.34 7619.47C8055.85 7673.84 7618.99 7729.98 7190.64 7793.2C6921.45 7832.92 6739.95 7928.58 6635.91 8085.69C6553.47 8210.17 6520.63 8373.96 6535.49 8586.33C6549.32 8783.77 6602.6 9000.57 6651.51 9188.2L6803.18 9808.55L6803.65 9810.59H6814.69L6661.19 9185.75C6550.88 8762.11 6466.54 8359.58 6644.22 8091.28C6746.56 7936.69 6925.81 7842.39 7192.07 7803.15C7621.1 7739.86 8057.96 7683.65 8480.52 7629.35L8504.57 7626.28C8933.39 7571.09 9376.86 7514.07 9817.4 7448.32L9819.72 7447.98V7437.89L9816.58 7438.37C9374.82 7504.12 8929.85 7561.35 8499.53 7616.74Z" fill="#D2D2D2"/>
<path d="M7433.33 7572.8L7460.17 7568.03L7459.7 7565.37L7432.85 7570.07L7433.33 7572.8Z" fill="#CED1D2"/>
<path d="M7511.89 7559.1L7527.22 7556.58L7526.81 7553.86L7511.41 7556.44L7511.89 7559.1Z" fill="#CED1D2"/>
<path d="M7499.9 7558.42L7500.37 7561.08L7511.89 7559.1L7511.41 7556.45L7499.9 7558.42Z" fill="#CED1D2"/>
<path d="M7406.08 7574.91L7406.55 7577.57L7414.66 7576.07L7419.91 7575.11L7419.43 7572.46L7414.19 7573.41L7406.08 7574.91Z" fill="#CED1D2"/>
<path d="M7540.23 7551.61L7540.64 7554.33L7541.73 7554.13L7554.06 7552.09L7553.65 7549.43L7541.32 7551.47L7540.23 7551.61Z" fill="#CED1D2"/>
<path d="M7339.58 7589.9L7353 7587.38L7352.46 7584.72L7339.1 7587.17L7339.58 7589.9Z" fill="#CED1D2"/>
<path d="M7272.2 7599.98L7272.75 7602.64L7274.45 7602.3L7286.1 7600.05L7285.62 7597.39L7273.91 7599.64L7272.2 7599.98Z" fill="#CED1D2"/>
<path d="M7232.68 7610.61L7259.39 7605.3L7258.84 7602.64L7232.2 7607.96L7232.68 7610.61Z" fill="#CED1D2"/>
<path d="M7298.98 7594.81L7299.52 7597.46L7320.44 7593.44L7326.23 7592.35L7325.75 7589.7L7319.96 7590.79L7298.98 7594.81Z" fill="#CED1D2"/>
<path d="M7365.88 7582.2L7366.36 7584.86L7367.18 7584.72L7393.14 7580.02L7392.66 7577.29L7366.7 7582.06L7365.88 7582.2Z" fill="#CED1D2"/>
<path d="M7751.85 7521.9L7755.94 7521.29L7755.53 7518.63L7751.44 7519.18L7742.04 7520.54L7742.45 7523.27L7751.85 7521.9Z" fill="#CED1D2"/>
<path d="M7567.08 7547.25L7567.55 7549.9L7571.64 7549.22L7594.4 7545.61L7593.99 7542.89L7571.23 7546.57L7567.08 7547.25Z" fill="#CED1D2"/>
<path d="M7812.14 7513.46L7823.32 7511.89L7822.97 7509.16L7811.8 7510.73L7809.48 7511.07L7809.83 7513.73L7812.14 7513.46Z" fill="#CED1D2"/>
<path d="M7842.33 7509.3L7863.79 7506.37L7863.45 7503.71L7841.99 7506.57L7836.47 7507.32L7836.81 7510.05L7842.33 7509.3Z" fill="#CED1D2"/>
<path d="M7206.05 7616.06L7219.4 7613.34L7218.85 7610.68L7205.5 7613.4L7206.05 7616.06Z" fill="#CED1D2"/>
<path d="M7781.96 7517.61L7796.34 7515.64L7796 7512.91L7781.62 7514.95L7769.02 7516.73L7769.42 7519.38L7781.96 7517.61Z" fill="#CED1D2"/>
<path d="M7607.82 7543.5L7621.31 7541.39L7620.9 7538.66L7607.41 7540.78L7607.82 7543.5Z" fill="#CED1D2"/>
<path d="M7634.32 7536.62L7634.73 7539.27L7661.57 7535.19H7661.64L7661.23 7532.46H7661.16L7634.32 7536.62Z" fill="#CED1D2"/>
<path d="M7675.13 7533.15L7688.55 7531.1L7688.14 7528.45L7674.72 7530.42L7675.13 7533.15Z" fill="#CED1D2"/>
<path d="M7721.32 7523.54L7701.63 7526.47L7702.04 7529.12L7721.73 7526.26L7728.95 7525.17L7728.61 7522.52L7721.32 7523.54Z" fill="#CED1D2"/>
<path d="M7473.53 7565.71L7486.95 7563.4L7486.54 7560.74L7473.12 7563.06L7473.53 7565.71Z" fill="#CED1D2"/>
<path d="M7165.51 7621.72L7166.05 7624.37L7184.59 7620.49L7192.69 7618.79L7192.15 7616.13L7184.04 7617.76L7165.51 7621.72Z" fill="#CED1D2"/>
<path d="M6704.39 7741.49L6705.28 7744.08L6706.91 7743.54L6731.23 7735.84L6730.35 7733.25L6706.09 7740.95L6704.39 7741.49Z" fill="#CED1D2"/>
<path d="M6769.38 7721.26L6770.2 7723.85L6779.33 7721.05L6796.3 7716.08L6795.55 7713.49L6778.51 7718.47L6769.38 7721.26Z" fill="#CED1D2"/>
<path d="M6808.56 7709.61L6809.38 7712.26L6816.6 7710.15L6822.46 7708.52L6821.64 7705.86L6815.85 7707.49L6808.56 7709.61Z" fill="#CED1D2"/>
<path d="M6834.79 7702.18L6835.54 7704.77L6854.55 7699.38L6861.77 7697.48L6861.02 7694.82L6853.87 7696.8L6834.79 7702.18Z" fill="#CED1D2"/>
<path d="M6679.38 7752.67L6692.33 7748.37L6691.44 7745.79L6678.56 7750.08L6679.38 7752.67Z" fill="#CED1D2"/>
<path d="M6576.84 7789.11L6602.39 7779.58L6601.37 7777.05L6575.89 7786.59L6576.84 7789.11Z" fill="#CED1D2"/>
<path d="M6551.5 7798.93L6564.17 7794.02L6563.15 7791.43L6550.48 7796.41L6551.5 7798.93Z" fill="#CED1D2"/>
<path d="M6640.75 7765.82L6666.51 7756.96L6665.62 7754.44L6639.87 7763.29L6640.75 7765.82Z" fill="#CED1D2"/>
<path d="M6615.14 7775.01L6627.94 7770.38L6627.06 7767.79L6614.25 7772.42L6615.14 7775.01Z" fill="#CED1D2"/>
<path d="M6744.18 7731.75L6757.19 7727.8L6756.37 7725.21L6743.36 7729.16L6744.18 7731.75Z" fill="#CED1D2"/>
<path d="M7099.55 7638.82L7126.12 7632.96L7125.58 7630.3L7098.94 7636.09L7099.55 7638.82Z" fill="#CED1D2"/>
<path d="M7072.98 7644.81L7086.27 7641.75L7085.65 7639.16L7072.37 7642.15L7072.98 7644.81Z" fill="#CED1D2"/>
<path d="M7138.87 7627.37L7139.48 7630.03L7140.77 7629.76L7152.77 7627.24L7152.15 7624.58L7140.23 7627.1L7138.87 7627.37Z" fill="#CED1D2"/>
<path d="M7032.58 7651.35L7033.19 7654.01L7055.4 7648.76L7059.76 7647.81L7059.15 7645.15L7054.79 7646.11L7032.58 7651.35Z" fill="#CED1D2"/>
<path d="M6901.15 7686.85L6927.52 7679.97L6926.77 7677.31L6900.47 7684.19L6901.15 7686.85Z" fill="#CED1D2"/>
<path d="M6940.67 7676.63L6953.88 7673.29L6953.2 7670.63L6939.98 7673.97L6940.67 7676.63Z" fill="#CED1D2"/>
<path d="M6874.85 7693.93L6888 7690.32L6887.32 7687.73L6874.17 7691.28L6874.85 7693.93Z" fill="#CED1D2"/>
<path d="M7006.08 7657.62L7006.76 7660.28L7013.78 7658.57L7019.98 7657.08L7019.36 7654.42L7013.1 7655.92L7006.08 7657.62Z" fill="#CED1D2"/>
<path d="M6966.42 7667.3L6967.1 7669.95L6972.89 7668.45L6993.54 7663.48L6992.86 7660.82L6972.21 7665.87L6966.42 7667.3Z" fill="#CED1D2"/>
<path d="M8633.47 7402.36L8619.97 7404.24L8620.34 7406.94L8633.84 7405.06L8633.47 7402.36Z" fill="#CED1D2"/>
<path d="M9144.92 7331.31L9117.91 7334.93L9118.27 7337.63L9145.28 7334.01L9144.92 7331.31Z" fill="#CED1D2"/>
<path d="M9104.17 7337.38L9090.66 7339.2L9091.03 7341.9L9104.53 7340.08L9104.17 7337.38Z" fill="#CED1D2"/>
<path d="M9172.71 7327.86L9159.2 7329.66L9159.56 7332.36L9173.07 7330.56L9172.71 7327.86Z" fill="#CED1D2"/>
<path d="M9077.25 7341.12L9050.25 7344.78L9050.62 7347.48L9077.62 7343.82L9077.25 7341.12Z" fill="#CED1D2"/>
<path d="M9037.35 7346.14L9023.85 7347.98L9024.22 7350.68L9037.72 7348.84L9037.35 7346.14Z" fill="#CED1D2"/>
<path d="M9280.52 7316.62L9280.18 7313.96L9275.69 7314.51L9253.2 7317.44L9253.54 7320.17L9276.03 7317.24L9280.52 7316.62Z" fill="#CED1D2"/>
<path d="M9240.05 7321.94L9239.71 7319.21L9236.31 7319.69L9226.16 7320.98L9226.56 7323.71L9236.65 7322.34L9240.05 7321.94Z" fill="#CED1D2"/>
<path d="M9213.08 7325.48L9212.67 7322.75L9196.93 7324.87L9185.69 7326.36L9186.03 7329.09L9197.27 7327.59L9213.08 7325.48Z" fill="#CED1D2"/>
<path d="M8970.18 7358.25L8969.84 7355.52L8960.03 7356.89L8956.35 7357.36L8956.69 7360.09L8960.44 7359.61L8970.18 7358.25Z" fill="#CED1D2"/>
<path d="M8875.31 7368.16L8848.32 7371.9L8848.69 7374.6L8875.69 7370.86L8875.31 7368.16Z" fill="#CED1D2"/>
<path d="M8808.37 7380.6L8808.03 7377.94L8800.87 7378.9L8781.05 7381.69L8781.39 7384.35L8801.28 7381.62L8808.37 7380.6Z" fill="#CED1D2"/>
<path d="M8834.94 7374.44L8821.45 7376.32L8821.82 7379.02L8835.32 7377.14L8834.94 7374.44Z" fill="#CED1D2"/>
<path d="M8767.97 7386.25L8767.56 7383.53L8760.88 7384.48L8754.07 7385.44L8754.48 7388.09L8761.22 7387.21L8767.97 7386.25Z" fill="#CED1D2"/>
<path d="M9010.66 7352.73L9010.32 7350.01L8999.69 7351.44L8983.34 7353.69L8983.68 7356.41L9000.03 7354.16L9010.66 7352.73Z" fill="#CED1D2"/>
<path d="M9306.61 7310.62L9293.1 7312.37L9293.45 7315.07L9306.96 7313.33L9306.61 7310.62Z" fill="#CED1D2"/>
<path d="M8902.69 7364.7L8889.2 7366.57L8889.57 7369.27L8903.07 7367.4L8902.69 7364.7Z" fill="#CED1D2"/>
<path d="M8943.2 7361.93L8942.86 7359.27L8920.38 7362.34L8915.88 7362.95L8916.29 7365.68L8920.79 7365.06L8943.2 7361.93Z" fill="#CED1D2"/>
<path d="M9712.96 7264.16L9712.68 7261.43L9711.32 7261.64L9699.12 7263L9699.4 7265.66L9711.59 7264.29L9712.96 7264.16Z" fill="#CED1D2"/>
<path d="M8740.99 7390L8740.58 7387.27L8720.69 7390.07L8713.6 7391.09L8714.01 7393.75L8721.1 7392.79L8740.99 7390Z" fill="#CED1D2"/>
<path d="M9751.65 7259.87L9745.66 7260.55L9737.14 7271.18L9748.04 7269.95L9757.79 7257.89L9745.66 7248.15L9734.76 7249.31L9745.39 7257.89L9751.38 7257.21L9751.65 7259.87Z" fill="#CED1D2"/>
<path d="M9644.82 7269.13L9631.28 7270.68L9631.59 7273.39L9645.13 7271.84L9644.82 7269.13Z" fill="#CED1D2"/>
<path d="M9685.91 7267.23L9685.57 7264.5L9671.33 7266.14L9658.52 7267.57L9658.86 7270.29L9671.67 7268.79L9685.91 7267.23Z" fill="#CED1D2"/>
<path d="M9745.66 7260.55L9751.66 7259.87L9751.39 7257.21L9745.39 7257.89L9746.82 7259.05L9745.66 7260.55Z" fill="#CED1D2"/>
<path d="M9347.7 7305.24L9320.66 7308.72L9321.06 7311.44L9348.05 7307.97L9347.7 7305.24Z" fill="#CED1D2"/>
<path d="M9791.72 7265.18L9801.4 7253.12L9789.34 7243.38L9778.37 7244.54L9790.49 7254.28L9780.75 7266.41L9791.72 7265.18Z" fill="#CED1D2"/>
<path d="M9726.51 7262.66L9745.66 7260.55L9746.82 7259.05L9745.38 7257.89L9726.17 7260L9726.51 7262.66Z" fill="#CED1D2"/>
<path d="M9756.56 7246.92L9768.69 7256.67L9758.95 7268.79L9769.85 7267.57L9779.59 7255.51L9767.46 7245.77L9756.56 7246.92Z" fill="#CED1D2"/>
<path d="M9618.26 7274.92L9617.99 7272.27L9591.69 7275.33L9590.94 7275.4L9591.21 7278.12L9592.03 7277.99L9618.26 7274.92Z" fill="#CED1D2"/>
<path d="M9442.61 7296.04L9442.27 7293.39L9433.34 7294.48L9428.71 7295.02L9429.05 7297.75L9433.68 7297.13L9442.61 7296.04Z" fill="#CED1D2"/>
<path d="M9415.56 7299.45L9415.22 7296.73L9393.9 7299.38L9388.24 7300.13L9388.58 7302.79L9394.24 7302.11L9415.56 7299.45Z" fill="#CED1D2"/>
<path d="M6275.16 7918.57L6265.62 7924.02L6261.6 7939.01L6276.59 7943.03L6286.13 7937.58L6271.14 7933.56L6275.16 7918.57Z" fill="#CED1D2"/>
<path d="M9483.08 7291.07L9482.81 7288.35L9472.79 7289.57L9455.76 7291.69L9456.1 7294.41L9473.13 7292.3L9483.08 7291.07Z" fill="#CED1D2"/>
<path d="M9577.79 7277.04L9564.26 7278.64L9564.58 7281.34L9578.11 7279.74L9577.79 7277.04Z" fill="#CED1D2"/>
<path d="M9510.57 7284.96L9497.04 7286.61L9497.37 7289.32L9510.9 7287.67L9510.57 7284.96Z" fill="#CED1D2"/>
<path d="M9551.11 7279.98L9524.05 7283.23L9524.37 7285.94L9551.43 7282.69L9551.11 7279.98Z" fill="#CED1D2"/>
<path d="M9375.29 7301.58L9361.77 7303.3L9362.12 7306L9375.63 7304.29L9375.29 7301.58Z" fill="#CED1D2"/>
<path d="M7890.43 7500.03L7876.94 7501.87L7877.28 7504.53L7890.77 7502.76L7890.43 7500.03Z" fill="#CED1D2"/>
<path d="M6450.05 7838.65L6451.21 7841.17L6476.08 7830.06L6474.92 7827.61L6450.05 7838.65Z" fill="#CED1D2"/>
<path d="M7931.14 7494.53L7904.12 7498.09L7904.48 7500.79L7931.5 7497.23L7931.14 7494.53Z" fill="#CED1D2"/>
<path d="M6487.45 7822.23L6488.54 7824.75L6501.08 7819.37L6499.99 7816.91L6487.45 7822.23Z" fill="#CED1D2"/>
<path d="M6538.82 7803.9L6537.8 7801.38L6537.46 7801.52L6512.59 7811.67L6513.62 7814.19L6538.48 7804.04L6538.82 7803.9Z" fill="#CED1D2"/>
<path d="M8025.74 7485.18L8025.4 7482.45L8023.49 7482.66L8011.91 7484.16L8012.25 7486.88L8023.83 7485.38L8025.74 7485.18Z" fill="#CED1D2"/>
<path d="M7998.76 7488.66L7998.42 7485.93L7993.24 7486.61L7971.37 7489.4L7971.78 7492.13L7993.58 7489.27L7998.76 7488.66Z" fill="#CED1D2"/>
<path d="M7958.07 7491.6L7944.56 7493.37L7944.92 7496.07L7958.43 7494.3L7958.07 7491.6Z" fill="#CED1D2"/>
<path d="M6294.17 7907.6L6284.7 7913.05L6280.61 7928.04L6295.6 7932.12L6305.14 7926.61L6290.15 7922.59L6294.17 7907.6Z" fill="#CED1D2"/>
<path d="M6305.75 7915.16L6311.13 7912.16L6309.15 7911.62L6309.63 7909.85L6304.38 7912.78L6305.75 7915.16Z" fill="#CED1D2"/>
<path d="M6311.13 7912.16L6317.6 7908.48L6316.31 7906.17L6309.63 7909.85L6309.16 7911.62L6311.13 7912.16Z" fill="#CED1D2"/>
<path d="M8066.28 7480L8065.94 7477.28L8053.81 7478.84L8038.89 7480.75L8039.23 7483.41L8054.15 7481.5L8066.28 7480Z" fill="#CED1D2"/>
<path d="M6305.75 7915.16L6304.39 7912.78L6309.63 7909.85L6313.25 7896.63L6303.71 7902.15L6299.69 7917.14L6314.68 7921.16L6324.15 7915.71L6311.13 7912.16L6305.75 7915.16Z" fill="#CED1D2"/>
<path d="M6388.53 7867.81L6389.69 7870.26L6414.22 7858.34L6412.99 7855.89L6388.53 7867.81Z" fill="#CED1D2"/>
<path d="M6331.09 7897.79L6328.16 7899.49L6329.53 7901.81L6332.39 7900.17L6353.44 7888.93L6352.15 7886.55L6331.09 7897.79Z" fill="#CED1D2"/>
<path d="M6425.32 7850.09L6426.48 7852.55L6438.81 7846.82L6437.65 7844.37L6425.32 7850.09Z" fill="#CED1D2"/>
<path d="M6364.2 7880.21L6365.5 7882.59L6377.63 7876.39L6376.33 7874.01L6364.2 7880.21Z" fill="#CED1D2"/>
<path d="M8538.7 7418.14L8538.36 7415.48L8517.86 7418.27L8511.38 7419.16L8511.72 7421.88L8518.2 7421L8538.7 7418.14Z" fill="#CED1D2"/>
<path d="M8471.32 7427.47L8470.91 7424.82L8446.72 7428.09L8443.93 7428.5L8444.34 7431.15L8447.06 7430.81L8471.32 7427.47Z" fill="#CED1D2"/>
<path d="M8403.81 7436.6L8403.47 7433.95L8386.5 7436.19L8376.48 7437.49L8376.83 7440.21L8386.84 7438.92L8403.81 7436.6Z" fill="#CED1D2"/>
<path d="M8430.44 7430.33L8416.95 7432.1L8417.36 7434.83L8430.85 7432.99L8430.44 7430.33Z" fill="#CED1D2"/>
<path d="M8093.26 7476.53L8092.92 7473.87L8084.06 7474.96L8079.43 7475.57L8079.77 7478.3L8084.4 7477.69L8093.26 7476.53Z" fill="#CED1D2"/>
<path d="M8498.39 7421.17L8484.89 7423.04L8485.26 7425.74L8498.76 7423.87L8498.39 7421.17Z" fill="#CED1D2"/>
<path d="M8565.68 7414.39L8565.34 7411.73L8558.73 7412.62L8551.85 7413.57L8552.19 7416.3L8559.07 7415.35L8565.68 7414.39Z" fill="#CED1D2"/>
<path d="M8699.93 7392.6L8686.44 7394.48L8686.81 7397.18L8700.31 7395.3L8699.93 7392.6Z" fill="#CED1D2"/>
<path d="M8673.08 7396.27L8646.09 7400.03L8646.46 7402.73L8673.45 7398.97L8673.08 7396.27Z" fill="#CED1D2"/>
<path d="M8606.15 7408.8L8605.75 7406.08L8599.41 7406.96L8578.77 7409.82L8579.17 7412.55L8599.82 7409.69L8606.15 7408.8Z" fill="#CED1D2"/>
<path d="M8160.62 7465.5L8147.1 7467.21L8147.44 7469.91L8160.96 7468.2L8160.62 7465.5Z" fill="#CED1D2"/>
<path d="M8228.28 7456.26L8214.76 7457.98L8215.1 7460.68L8228.62 7458.96L8228.28 7456.26Z" fill="#CED1D2"/>
<path d="M8201.31 7462.83L8200.97 7460.18L8174.95 7463.45L8173.99 7463.58L8174.33 7466.31L8175.29 7466.17L8201.31 7462.83Z" fill="#CED1D2"/>
<path d="M8363.33 7441.99L8362.99 7439.33L8356.31 7440.21L8349.5 7441.1L8349.84 7443.76L8356.65 7442.87L8363.33 7441.99Z" fill="#CED1D2"/>
<path d="M8133.79 7471.42L8133.45 7468.69L8114.38 7471.14L8106.41 7472.17L8106.75 7474.82L8114.72 7473.8L8133.79 7471.42Z" fill="#CED1D2"/>
<path d="M8294.91 7447.95L8281.4 7449.68L8281.75 7452.39L8295.26 7450.65L8294.91 7447.95Z" fill="#CED1D2"/>
<path d="M8336.35 7445.53L8336.01 7442.8L8326.13 7444.09L8309.03 7446.34L8309.37 7449.07L8326.47 7446.82L8336.35 7445.53Z" fill="#CED1D2"/>
<path d="M8268.84 7454.25L8268.5 7451.52L8265.7 7451.93L8241.52 7455L8241.86 7457.72L8266.04 7454.59L8268.84 7454.25Z" fill="#CED1D2"/>
<path d="M8043.04 7290.8L7880.21 6.74481L7880.14 4.01953L7870.12 4.22393L8033.17 7296.59L8033.3 7302.18L9817.34 7067.6L9819.72 7067.26V7057.18L8043.04 7290.8Z" fill="#D2D2D2"/>
<path d="M7721.12 7249.17H7727.59L7727.66 7246.52C7731.47 7032.31 7726.71 6601.99 7712.67 5892.19L7712.6 5889.53H7705.79C7717.71 6492.84 7724.73 7001.44 7721.12 7249.17Z" fill="#D2D2D2"/>
<path d="M7702.65 5892.26C7716.69 6602.12 7721.46 7032.44 7717.64 7246.38L7717.57 7249.17H7721.12C7724.73 7001.51 7717.71 6492.91 7705.79 5889.53H7702.59L7702.65 5892.26Z" fill="#D2D2D2"/>
<path d="M7687.4 7288.41H7660.08V7318.8H7687.4V7288.41Z" fill="#DBDADA"/>
<path d="M7654.62 7322.76H7692.85V7283.24H7654.62V7322.76ZM7659.46 7288.01H7687.53V7317.17H7687.33V7317.3H7660.01V7317.17H7659.46V7288.01Z" fill="#D2D2D2"/>
<path d="M7660.07 7288.62H7687.33V7317.16H7687.53V7288H7659.46V7317.16H7660.07V7288.62Z" fill="#D2D2D2"/>
<path d="M8088.49 7116.79H8047.68V7181.24H8088.49V7116.79Z" fill="#DBDADA"/>
<path d="M8090.39 7114.81H8046.04V7183.63H8090.39V7114.81ZM8088.49 7178.86H8085.9V7179.13H8050.6V7178.86H8049.04V7116.58H8088.49V7178.86Z" fill="#D5D4D4"/>
<path d="M8049.04 7178.86H8050.54V7119.38H8085.83V7178.86H8088.49V7116.59H8049.04V7178.86Z" fill="#D5D4D4"/>
<path d="M7684.4 7233.23C7684.54 7233.02 7684.54 7232.68 7684.4 7232.48C7684.33 7232.34 7684.2 7232.34 7684.13 7232.48C7684.06 7232.61 7684.06 7232.75 7683.99 7232.82C7684.06 7232.95 7684.06 7233.09 7684.13 7233.16C7684.2 7233.29 7684.33 7233.29 7684.4 7233.23Z" fill="white"/>
<path d="M2030.67 5428.14C2240.65 5575.92 2478.71 5743.46 2683.92 5937.36C2749.33 5999.16 2807.1 6063.34 2863.04 6125.34C2996.51 6273.52 3122.62 6413.53 3331.31 6501.02C3551.72 6593.4 3793.93 6615.75 4028.3 6637.28C4293.74 6661.67 4568.25 6686.95 4819.58 6812.65C4943.11 6874.38 5104.44 6894.82 5260.53 6914.58C5379.83 6929.63 5503.15 6945.24 5608.55 6979.17C5868.61 7062.97 5992.95 7330.79 6089.02 7575.32L6090.45 7579L6094.33 7578.45C6096.58 7578.11 6104.96 7577.09 6118.72 7575.39L6126.22 7574.43C6701.46 7504.19 7253.12 7424.27 7721.53 7343.19L7725.48 7342.51L7725.62 7338.49C7726.23 7323.1 7726.77 7296.39 7727.18 7274.93L7727.39 7264.3H7720.78C7720.3 7291.96 7719.69 7316.21 7718.94 7336.38C7251.14 7417.32 6700.3 7497.17 6125.81 7567.28C6110.28 7569.19 6099.99 7570.41 6095.63 7571.03C6048.14 7450.3 5993.63 7323.57 5917.33 7214.42C5830.25 7089.81 5730.17 7010.57 5611.21 6972.28C5505.2 6938.15 5381.47 6922.48 5261.83 6907.35C5106.42 6887.73 4945.7 6867.36 4823.26 6806.18C4570.63 6679.86 4295.45 6654.52 4029.32 6630.06C3795.56 6608.53 3553.83 6586.32 3334.44 6494.34C3127.32 6407.47 3001.76 6268.07 2868.76 6120.5C2812.76 6058.36 2754.91 5994.11 2689.23 5932.11C2483.61 5737.87 2245.35 5570.2 2035.17 5422.28C1827.43 5276.07 1647.97 5149.82 1561.99 5040.33C1477.71 4933.09 1509.53 4633.04 1551.7 4353.63C1559.61 4301.51 1566.22 4250.75 1572.69 4201.7C1623.86 3812.19 1660.78 3530.73 2175.25 3497.21C2254.14 3492.1 2338.36 3488.42 2419.84 3484.88C2614.22 3476.43 2815.28 3467.71 2985.4 3438.28C3287.91 3385.95 3516.02 3213.31 3627.68 2952.23C3718.98 2738.77 3731.72 2482.05 3720.75 2204.68C4312.55 2180.7 4950.47 2157.94 5567.81 2153.52C5796.8 2151.88 5959.91 2153.45 6038.94 2157.88V2150.72C5960.73 2146.09 5803 2144.59 5567.26 2146.23C4944.27 2150.65 4311.25 2173.41 3720 2197.39L3712.78 2197.67L3713.05 2204.89C3722.52 2443.96 3718.91 2719.35 3620.6 2949.3C3509.95 3208.06 3283.75 3379.14 2983.77 3431.06C2814.05 3460.42 2613.27 3469.14 2418.61 3477.59C2337.26 3481.13 2253.19 3484.81 2174.43 3489.92C1934.67 3505.53 1781.92 3576.25 1693.69 3712.37C1612.82 3837.19 1590.74 4005.61 1565.13 4200.68C1558.72 4249.46 1552.11 4299.94 1544.14 4352.47C1501.69 4633.38 1469.95 4935.34 1555.86 5044.69C1642.66 5155.07 1822.46 5281.59 2030.67 5428.14Z" fill="#D2D2D2"/>
<path d="M6092.02 2164.21C6097.88 2167.69 6105.44 2175.25 6114.98 2184.72C6138.69 2208.22 6178.34 2247.6 6247.77 2281.6C6403.79 2357.91 6603.82 2380.46 6814.01 2380.46C6973.64 2380.46 7139.07 2367.45 7295.57 2355.18C7408.8 2346.26 7522.04 2337.74 7616.81 2335.29C7628.26 2737.81 7660.41 3885.36 7686.17 4987.74H7692.98L7692.91 4984.94C7667.43 3895.51 7635.95 2768.95 7623.62 2335.09L7623.42 2327.86L7616.2 2328.07C7522.45 2330.52 7410.57 2338.9 7294.55 2347.96C6933.04 2376.37 6523.36 2408.53 6250.56 2275.13C6182.16 2241.68 6143.05 2202.84 6119.75 2179.61C6109.46 2169.39 6101.96 2161.96 6095.36 2158.01C6093.52 2156.92 6089.77 2155.9 6084.25 2154.95V2162.03C6088.07 2162.64 6090.72 2163.39 6092.02 2164.21Z" fill="#D2D2D2"/>
<path d="M7717.24 7276.7C7716.9 7295.78 7716.42 7319.35 7715.87 7334.07C7248.76 7414.8 6698.8 7494.52 6125.06 7564.56L6121.18 7565.03C6109.73 7566.46 6101.56 7567.42 6096.92 7568.03C6049.64 7447.91 5995.34 7321.87 5919.1 7212.86C5831.69 7087.7 5731.12 7008.19 5611.62 6969.7C5505.27 6935.43 5381.47 6919.82 5261.69 6904.63C5106.49 6885.01 4946.04 6864.7 4824.01 6803.73C4570.9 6677.21 4295.51 6651.86 4029.12 6627.33C3795.56 6605.87 3554.04 6583.66 3335.06 6491.82C3128.48 6405.15 3003.12 6266.03 2870.19 6118.46C2814.26 6056.32 2756.35 5992.14 2690.74 5930.07C2485.04 5735.69 2246.72 5568.02 2036.33 5419.97C1828.73 5273.89 1649.47 5147.71 1563.7 5038.56C1480.1 4932.14 1511.85 4632.77 1553.95 4353.97C1561.86 4301.92 1568.47 4251.23 1574.94 4201.97C1625.9 3813.69 1662.76 3533.19 2174.98 3499.87C2253.53 3494.76 2337.4 3491.08 2418.55 3487.54L2419.64 3487.47C2614.09 3479.02 2815.14 3470.3 2985.41 3440.8C3288.87 3388.34 3517.72 3215.15 3629.73 2953.18C3728.52 2722.28 3732.47 2446.69 3723.07 2207.14C4283.52 2184.45 4881.38 2162.85 5472.43 2156.92C5473.24 2156.92 5473.99 2156.92 5474.81 2156.92V2156.79L5530.88 2156.38H5533.13V2156.45C5544.51 2156.38 5555.96 2156.24 5567.4 2156.17C5793.4 2154.54 5958.07 2156.17 6037.51 2160.47C6037.72 2160.47 6037.92 2160.47 6038.13 2160.47C6038.4 2160.47 6038.67 2160.47 6038.94 2160.53V2157.81C5959.91 2153.38 5796.8 2151.81 5567.81 2153.45C4950.47 2157.88 4312.55 2180.63 3720.75 2204.62C3731.72 2482.05 3718.98 2738.7 3627.69 2952.16C3516.02 3213.24 3287.91 3385.89 2985.41 3438.21C2815.28 3467.65 2614.22 3476.37 2419.84 3484.81C2338.36 3488.36 2254.15 3492.04 2175.25 3497.15C1660.78 3530.67 1623.79 3812.12 1572.69 4201.63C1566.22 4250.69 1559.61 4301.44 1551.71 4353.57C1509.46 4632.97 1477.71 4933.03 1561.99 5040.27C1647.98 5149.76 1827.44 5276 2035.17 5422.22C2245.36 5570.13 2483.61 5737.8 2689.24 5932.05C2754.85 5994.05 2812.76 6058.29 2868.76 6120.43C3001.69 6268 3127.32 6407.4 3334.45 6494.27C3553.83 6586.25 3795.56 6608.53 4029.32 6629.99C4295.45 6654.45 4570.63 6679.79 4823.26 6806.11C4945.63 6867.29 5106.42 6887.6 5261.83 6907.29C5381.47 6922.41 5505.2 6938.08 5611.21 6972.22C5730.1 7010.51 5830.26 7089.74 5917.33 7214.36C5993.57 7323.51 6048.07 7450.23 6095.63 7570.96C6100.06 7570.41 6110.35 7569.12 6125.81 7567.21C6700.3 7497.11 7251.08 7417.25 7718.94 7336.31C7719.69 7316.15 7720.3 7291.89 7720.78 7264.23H7717.37L7717.24 7276.7Z" fill="#D2D2D2"/>
<path d="M7295.5 2355.12C7139.07 2367.38 6973.58 2380.39 6813.95 2380.39C6603.83 2380.39 6403.79 2357.84 6247.7 2281.53C6178.28 2247.6 6138.62 2208.22 6114.91 2184.65C6105.31 2175.11 6097.74 2167.62 6091.95 2164.14C6090.66 2163.39 6087.93 2162.64 6084.12 2161.89V2164.62C6087.05 2165.16 6089.09 2165.78 6090.11 2166.46C6091.61 2167.35 6093.31 2168.64 6095.15 2170.14C6095.36 2170.27 6095.5 2170.41 6095.63 2170.55C6100.26 2174.43 6105.92 2179.95 6112.53 2186.56C6136.31 2210.2 6176.16 2249.78 6246 2283.92C6384.31 2351.57 6564.58 2383.05 6813.4 2383.05C6973.1 2383.05 7136.76 2370.17 7295.16 2357.77C7409.96 2348.78 7520.68 2340.47 7613.54 2337.95C7625.94 2774.47 7657.35 3900.14 7682.77 4984.94L7682.83 4987.6H7686.04C7660.28 3885.29 7628.12 2737.68 7616.68 2335.15C7521.97 2337.67 7408.81 2346.26 7295.5 2355.12Z" fill="#D2D2D2"/>
</g>
<path d="M4186.71 3984.83H3950.43V4365.01H4186.71V3984.83Z" fill="#FCE9D0"/>
<path d="M4253.75 3988.38H4190.52V4068.29H4253.75V3988.38Z" fill="white"/>
<path d="M4476.75 3902.73H4277.66V4068.29H4476.75V3902.73Z" fill="white"/>
<path d="M4476.75 3902.26H4045.54V3988.38H4476.75V3902.26Z" fill="white"/>
<path d="M4433.62 3673.81H4373.46V3905.26H4433.62V3673.81Z" fill="white"/>
<path d="M4709.49 3673.81H4400.03V3785.89H4709.49V3673.81Z" fill="white"/>
<path d="M4474.77 3870.71H4414.61V3956.83H4474.77V3870.71Z" fill="white"/>
<path opacity="0.8" d="M4047.31 3908.12H3950.43V3988.38H4047.31V3908.12Z" fill="#DBDADA"/>
<path opacity="0.8" d="M4047.31 3315.78H3950.43V3905.05H4047.31V3315.78Z" fill="#DBDADA"/>
<path d="M4090.85 3311.62H4047.59V3905.05H4090.85V3311.62Z" fill="white"/>
<path opacity="0.8" d="M4257.91 3082.84H3950.43V3311.62H4257.91V3082.84Z" fill="#DBDADA"/>
<path opacity="0.8" d="M4274.6 3988.38H4255.86V4068.29H4274.6V3988.38Z" fill="#DBDADA"/>
<path d="M4483.97 3788.41V3783.03H4433.62V3870.24H4476.61V4342.19H4712.89V3788.41H4483.97Z" fill="#FCE9D0"/>
<path d="M4664.86 3734.25H4648.78V3734.11H4430.83V3739.49H4664.86V3734.25Z" fill="#D5D4D4"/>
<path d="M4371.41 4028.37H4310.16V4033.75H4375.91V4028.51H4371.41V4028.37Z" fill="#D5D4D4"/>
<path d="M4371.89 3671.7V3788.48H4371.96V3900.28H4356.49V3900.21H4094.32V3315.84H4263.36V3079.22H3944.98V3310.73V3315.84V3902.87V3990.28V4370.6H4192.16V4070.61H4473.41V4344.09H4712.96V3788.54V3783.09V3671.77H4371.89V3671.7ZM3950.43 3316.12H3973.12V3315.78H4043.7H4043.77H4045.61V3355.5H4045.54V3902.8H3950.5V3316.12H3950.43ZM4252.05 4065.16H4192.16V3990.56H4252.05V4065.16ZM4272.62 4065.16H4257.5V3990.56H4272.62V4065.16ZM4707.51 3783.03H4502.98H4473.34H4430.08V3783.16V3788.48V3872.35H4473.34V3937H4478.79V3872.35V3869.62V3866.9H4435.53V3788.48H4473.34H4478.79H4478.99H4495.14H4497.46H4502.91H4707.37V4338.57H4478.72V3978.16H4473.27V4065.36H4455.01V4065.3H4277.94V3990.69H4375.84V3985.45H4362.9V3985.38H4278.01H4272.55H4257.43H4251.98H4186.64V3985.45H4185.07V3985.38H4090.23V3990.69H4186.64V4065.3V4070.61V4365.14H3950.36V3990.28H4050.99V3985.04H4044.11V3984.97H3950.29V3908.18H4044.99L4045.13 3964.46H4045.33H4050.65V3310.8H4049.97V3310.46H4047.11H4043.56H3950.29V3084.74H4257.77V3310.46H4093.57H4088.94V3315.91V3337.44V3351.61H4088.87V3900.35H4088.8V3905.66H4088.87H4094.19H4371.82H4376.05H4377.21V3788.61V3783.3V3768.17V3766.95V3677.22H4707.44V3783.03H4707.51Z" fill="#D5D4D4"/>
</g>
<defs>
<clipPath id="clip0_1503_25700">
<rect width="9811" height="9811" fill="white"/>
</clipPath>
</defs>
</svg>
