<svg width="4955" height="4956" viewBox="0 0 4955 4956" fill="none" xmlns="http://www.w3.org/2000/svg">
<path d="M4955 0H0V4955H4955V0Z" fill="#F9F5EC"/>
<path d="M3059.52 4186.67C3015.31 4186.67 2979.33 4150.69 2979.33 4106.48C2979.33 4062.27 3015.31 4026.29 3059.52 4026.29C3103.73 4026.29 3139.7 4062.27 3139.7 4106.48C3139.7 4150.69 3103.73 4186.67 3059.52 4186.67ZM3059.52 4028.58C3016.57 4028.58 2981.64 4063.51 2981.64 4106.46C2981.64 4149.4 3016.57 4184.33 3059.52 4184.33C3102.46 4184.33 3137.39 4149.4 3137.39 4106.46C3137.39 4063.54 3102.46 4028.58 3059.52 4028.58Z" fill="#D3D3D3"/>
<path d="M4278.64 3849.95C4064.92 3877.45 3843.93 3905.86 3627.2 3937.85C3491.49 3957.86 3400.07 4006.03 3347.71 4085.12C3306.2 4147.8 3289.68 4230.3 3297.2 4337.36C3304.19 4437.04 3331.11 4546.57 3355.8 4641.43L3432.5 4955.03H3435.22L3358.03 4640.85C3302.18 4426.36 3259.51 4222.54 3349.64 4086.42C3401.61 4007.91 3492.51 3960.06 3627.53 3940.13C3844.23 3908.17 4065.22 3879.74 4278.95 3852.26C4502.75 3823.47 4727.98 3794.59 4954.81 3760.73V3758.42C4727.95 3792.23 4502.42 3821.16 4278.64 3849.95Z" fill="#D3D3D3"/>
<path d="M3277.29 4952.36L3271.2 4951.17L3270.08 4947.15L3276.16 4948.34L3280.76 4944.15L3281.88 4948.17L3277.29 4952.36ZM3275.42 4945.7L3269.33 4944.51L3268.2 4940.49L3274.29 4941.68L3278.88 4937.49L3280.01 4941.51L3275.42 4945.7ZM3273.54 4939.01L3267.46 4937.82L3266.33 4933.8L3272.42 4934.99L3277.01 4930.8L3278.14 4934.82L3273.54 4939.01ZM3273.65 4936.83L3272.33 4937.22L3271.2 4933.06L3272.53 4932.7L3273.65 4936.83ZM3270.71 4926.07L3269.39 4926.43L3268.97 4924.94L3265.86 4913.13L3267.19 4912.77L3270.3 4924.58L3270.71 4926.07ZM3265.48 4906.08L3264.16 4906.41L3261.02 4894.11L3260.74 4893.06L3262.09 4892.73L3262.34 4893.78L3265.48 4906.08ZM3260.39 4886.1L3259.04 4886.43L3256.42 4876L3255.71 4873.05L3257.05 4872.72L3257.77 4875.64L3260.39 4886.1ZM3255.4 4866.06L3254.05 4866.39L3251.55 4856.23L3250.78 4853.01L3252.13 4852.68L3252.9 4855.9L3255.4 4866.06ZM3250.5 4845.99L3249.15 4846.32L3246.4 4835.01L3245.91 4832.94L3247.26 4832.61L3247.75 4834.65L3250.5 4845.99ZM3245.63 4825.92L3244.28 4826.25L3241.06 4812.87L3242.41 4812.54L3245.63 4825.92ZM3240.81 4805.85L3239.46 4806.18L3236.27 4792.81L3237.62 4792.48L3240.81 4805.85ZM3236 4785.79L3234.65 4786.12L3231.48 4772.71L3232.83 4772.38L3236 4785.79ZM3231.23 4765.69L3229.88 4766.02L3229.47 4764.26L3226.75 4752.64L3228.1 4752.34L3230.82 4763.96L3231.23 4765.69ZM3226.5 4745.6L3225.15 4745.9L3223.47 4738.82L3221.98 4732.52L3223.33 4732.22L3224.82 4738.52L3226.5 4745.6ZM3221.79 4725.5L3220.44 4725.8L3217.39 4712.78L3217.3 4712.4L3218.65 4712.09L3218.74 4712.45L3221.79 4725.5ZM3217.08 4705.38L3215.74 4705.68L3212.63 4692.28L3213.97 4691.97L3217.08 4705.38ZM3212.4 4685.28L3211.06 4685.59L3207.95 4672.18L3209.29 4671.88L3212.4 4685.28ZM3207.75 4665.16L3206.4 4665.46L3205 4659.41L3203.29 4652.03L3204.64 4651.73L3206.35 4659.1L3207.75 4665.16ZM3203.1 4645.06L3201.75 4645.37L3198.78 4632.48L3198.67 4631.96L3200.02 4631.66L3200.13 4632.18L3203.1 4645.06ZM3198.45 4624.94L3197.1 4625.24L3194.02 4611.84L3195.37 4611.54L3198.45 4624.94ZM3193.82 4604.82L3192.47 4605.12L3189.39 4591.72L3190.74 4591.41L3193.82 4604.82ZM3189.2 4584.7L3187.85 4585L3186.42 4578.75L3184.77 4571.57L3186.12 4571.26L3187.77 4578.45L3189.2 4584.7ZM3184.57 4564.57L3183.23 4564.88L3180.36 4552.35L3180.17 4551.47L3181.52 4551.17L3181.71 4552.05L3184.57 4564.57ZM3179.98 4544.45L3178.63 4544.75L3175.57 4531.32L3176.92 4531.02L3179.98 4544.45ZM3175.38 4524.3L3174.03 4524.6L3170.98 4511.17L3172.32 4510.87L3175.38 4524.3ZM3170.81 4504.18L3169.46 4504.48L3168.72 4501.23L3166.41 4491.07L3167.75 4490.77L3170.07 4500.93L3170.81 4504.18ZM3166.24 4484.05L3164.89 4484.36L3163.19 4476.87L3161.84 4470.95L3163.19 4470.65L3164.53 4476.57L3166.24 4484.05ZM3161.67 4463.9L3160.32 4464.21L3157.9 4453.47L3157.29 4450.77L3158.64 4450.47L3159.25 4453.17L3161.67 4463.9ZM3157.1 4443.78L3155.75 4444.08L3152.86 4431.28L3152.72 4430.65L3154.07 4430.35L3154.21 4430.98L3157.1 4443.78ZM3152.53 4423.63L3151.18 4423.93L3148.16 4410.5L3149.5 4410.2L3152.53 4423.63ZM3147.99 4403.48L3146.64 4403.78L3143.78 4391.04L3143.61 4390.35L3144.96 4390.05L3145.13 4390.74L3147.99 4403.48ZM3143.45 4383.36L3142.1 4383.66L3139.79 4373.34L3139.1 4370.23L3140.45 4369.92L3141.14 4373.04L3143.45 4383.36ZM3138.93 4363.21L3137.58 4363.51L3136.24 4357.45L3134.58 4350.08L3135.93 4349.77L3137.58 4357.15L3138.93 4363.21ZM3134.39 4343.06L3133.04 4343.36L3130.45 4331.85L3130.01 4329.93L3131.36 4329.62L3131.8 4331.55L3134.39 4343.06ZM3129.88 4322.91L3128.53 4323.21L3128.36 4322.44L3126.82 4315.5L3125.86 4311.24L3125.53 4309.78L3126.88 4309.47L3127.21 4310.93L3128.17 4315.2L3129.71 4322.11L3129.88 4322.91ZM3122.75 4294.11L3128.78 4295.6L3129.68 4299.67L3123.66 4298.16L3118.84 4302.1L3117.93 4298.02L3122.75 4294.11ZM3124.23 4300.86L3130.26 4302.34L3131.17 4306.42L3125.14 4304.9L3120.32 4308.81L3119.42 4304.74L3124.23 4300.86ZM3125.75 4307.63L3131.78 4309.12L3132.68 4313.19L3126.66 4311.68L3121.84 4315.58L3120.93 4311.51L3125.75 4307.63Z" fill="#CFD1D2"/>
<path d="M4935.26 3659.13L4940.77 3658.52L4946.88 3663.45L4941.95 3669.56L4936.45 3670.17L4941.38 3664.06L4935.26 3659.13ZM4924.23 3660.34L4929.73 3659.73L4935.84 3664.66L4930.92 3670.77L4925.41 3671.38L4930.34 3665.27L4924.23 3660.34ZM4913.19 3661.55L4918.69 3660.95L4924.8 3665.87L4919.88 3671.98L4914.37 3672.59L4919.27 3666.48L4913.19 3661.55ZM4921.61 3665.52L4921.75 3666.89L4909 3668.3L4908.84 3666.92L4921.61 3665.52ZM4902.04 3667.66L4902.2 3669.04L4901.52 3669.12L4895.35 3669.81L4895.18 3668.43L4901.35 3667.75L4902.04 3667.66ZM4888.36 3669.2L4888.52 3670.58L4881.31 3671.38L4874.84 3672.12L4874.68 3670.75L4881.15 3670L4888.36 3669.2ZM4867.82 3671.54L4867.99 3672.92L4861.16 3673.69L4860.99 3672.31L4867.82 3671.54ZM4854.17 3673.11L4854.33 3674.49L4841.04 3676.03L4840.65 3676.09L4840.49 3674.71L4840.87 3674.65L4854.17 3673.11ZM4833.66 3675.51L4833.82 3676.88L4827 3677.68L4826.83 3676.31L4833.66 3675.51ZM4819.98 3677.13L4820.14 3678.51L4806.49 3680.16L4806.32 3678.78L4819.98 3677.13ZM4799.47 3679.61L4799.64 3680.99L4792.81 3681.81L4792.64 3680.44L4799.47 3679.61ZM4785.82 3681.26L4785.98 3682.64L4780.94 3683.24L4772.33 3684.32L4772.16 3682.94L4780.78 3681.87L4785.82 3681.26ZM4765.31 3683.79L4765.47 3685.17L4760.96 3685.72L4758.65 3686.02L4758.48 3684.65L4760.79 3684.34L4765.31 3683.79ZM4751.65 3685.5L4751.82 3686.88L4741.03 3688.23L4738.17 3688.58L4738 3687.21L4740.86 3686.85L4751.65 3685.5ZM4731.17 3688.06L4731.34 3689.44L4724.51 3690.29L4724.35 3688.91L4731.17 3688.06ZM4717.52 3689.79L4717.69 3691.17L4704.03 3692.91L4703.87 3691.53L4717.52 3689.79ZM4697.04 3692.44L4697.2 3693.81L4690.38 3694.69L4690.21 3693.32L4697.04 3692.44ZM4683.39 3694.2L4683.55 3695.58L4681.27 3695.88L4669.9 3697.37L4669.7 3695.99L4681.07 3694.5L4683.39 3694.2ZM4662.91 3696.87L4663.1 3698.25L4661.39 3698.47L4656.27 3699.13L4656.08 3697.75L4661.2 3697.09L4662.91 3696.87ZM4649.25 3698.66L4649.44 3700.04L4641.46 3701.08L4635.79 3701.82L4635.6 3700.45L4641.27 3699.7L4649.25 3698.66ZM4628.8 3701.38L4628.99 3702.76L4622.16 3703.67L4621.97 3702.29L4628.8 3701.38ZM4615.14 3703.2L4615.34 3704.58L4601.68 3706.39L4601.49 3705.02L4615.14 3703.2ZM4594.69 3705.95L4594.88 3707.33L4588.06 3708.24L4587.86 3706.86L4594.69 3705.95ZM4581.04 3707.8L4581.23 3709.17L4567.6 3711.02L4567.41 3709.64L4581.04 3707.8ZM4560.58 3710.58L4560.78 3711.95L4553.95 3712.89L4553.76 3711.51L4560.58 3710.58ZM4546.96 3712.42L4547.15 3713.8L4541.76 3714.54L4533.5 3715.67L4533.3 3714.29L4541.56 3713.17L4546.96 3712.42ZM4526.5 3715.23L4526.7 3716.61L4521.74 3717.3L4519.87 3717.54L4519.68 3716.17L4521.55 3715.92L4526.5 3715.23ZM4512.85 3717.1L4513.04 3718.48L4501.67 3720.05L4499.39 3720.35L4499.2 3718.97L4501.48 3718.67L4512.85 3717.1ZM4492.4 3719.94L4492.59 3721.31L4485.76 3722.25L4485.57 3720.87L4492.4 3719.94ZM4478.77 3721.81L4478.96 3723.19L4465.34 3725.09L4465.15 3723.71L4478.77 3721.81ZM4458.32 3724.65L4458.51 3726.02L4451.68 3726.96L4451.49 3725.58L4458.32 3724.65ZM4444.69 3726.54L4444.88 3727.92L4441.28 3728.42L4431.26 3729.82L4431.07 3728.44L4441.11 3727.04L4444.69 3726.54ZM4424.24 3729.38L4424.43 3730.76L4421.05 3731.22L4417.63 3731.69L4417.44 3730.32L4420.85 3729.85L4424.24 3729.38ZM4410.59 3731.28L4410.78 3732.66L4400.73 3734.06L4397.15 3734.56L4396.96 3733.18L4400.54 3732.68L4410.59 3731.28ZM4390.13 3734.14L4390.32 3735.52L4383.5 3736.48L4383.31 3735.11L4390.13 3734.14ZM4376.51 3736.04L4376.7 3737.42L4363.07 3739.32L4362.88 3737.94L4376.51 3736.04ZM4356.05 3738.88L4356.25 3740.25L4349.42 3741.19L4349.23 3739.81L4356.05 3738.88ZM4342.43 3740.78L4342.62 3742.15L4339.43 3742.59L4328.99 3744.05L4328.8 3742.68L4339.23 3741.22L4342.43 3740.78ZM4321.97 3743.64L4322.17 3745.02L4318.84 3745.48L4315.34 3745.98L4315.15 3744.6L4318.64 3744.11L4321.97 3743.64ZM4308.35 3745.51L4308.54 3746.89L4298.16 3748.32L4294.89 3748.76L4294.69 3747.38L4297.97 3746.94L4308.35 3745.51ZM4287.89 3748.35L4288.09 3749.72L4281.26 3750.66L4281.07 3749.28L4287.89 3748.35ZM4274.27 3750.25L4274.46 3751.62L4262.21 3753.3L4260.81 3753.49L4260.61 3752.12L4262.02 3751.92L4274.27 3750.25ZM4253.81 3753.03L4254.01 3754.4L4247.18 3755.34L4246.99 3753.96L4253.81 3753.03ZM4240.16 3754.87L4240.35 3756.25L4231.77 3757.4L4226.73 3758.06L4226.53 3756.69L4231.57 3756.03L4240.16 3754.87ZM4219.71 3757.57L4219.9 3758.94L4216.51 3759.39L4213.07 3759.83L4212.91 3758.45L4216.35 3758.01L4219.71 3757.57ZM4206.05 3759.36L4206.22 3760.73L4201.24 3761.39L4192.57 3762.52L4192.4 3761.15L4201.07 3760.02L4206.05 3759.36ZM4185.57 3762.03L4185.74 3763.4L4178.91 3764.28L4178.75 3762.91L4185.57 3762.03ZM4171.92 3763.76L4172.08 3765.14L4170.68 3765.33L4158.43 3766.9L4158.27 3765.52L4170.52 3763.95L4171.92 3763.76ZM4151.44 3766.38L4151.6 3767.75L4144.78 3768.63L4144.61 3767.26L4151.44 3766.38ZM4137.79 3768.11L4137.95 3769.49L4124.79 3771.17L4124.3 3771.22L4124.13 3769.85L4124.63 3769.79L4137.79 3768.11ZM4117.3 3770.73L4117.47 3772.1L4110.64 3772.96L4110.48 3771.58L4117.3 3770.73ZM4103.65 3772.43L4103.82 3773.81L4094.18 3775.02L4090.16 3775.52L4090 3774.14L4094.02 3773.64L4103.65 3772.43ZM4083.17 3775.05L4083.34 3776.42L4078.85 3777L4076.51 3777.31L4076.34 3775.93L4078.71 3775.63L4083.17 3775.05ZM4069.52 3776.78L4069.68 3778.16L4063.54 3778.93L4056.03 3779.89L4055.86 3778.52L4063.38 3777.55L4069.52 3776.78ZM4049.04 3779.4L4049.2 3780.77L4048.24 3780.88L4042.37 3781.63L4042.21 3780.25L4048.07 3779.51L4049.04 3779.4ZM4035.38 3781.13L4035.55 3782.51L4032.93 3782.84L4021.89 3784.27L4021.73 3782.89L4032.77 3781.46L4035.38 3781.13ZM4014.9 3783.8L4015.09 3785.18L4008.27 3786.06L4008.07 3784.68L4014.9 3783.8ZM4001.25 3785.59L4001.44 3786.97L3987.79 3788.76L3987.59 3787.38L4001.25 3785.59ZM3980.77 3788.29L3980.96 3789.67L3974.13 3790.57L3973.94 3789.2L3980.77 3788.29ZM3967.14 3790.13L3967.33 3791.51L3956.49 3792.97L3953.68 3793.35L3953.49 3791.98L3956.29 3791.59L3967.14 3790.13ZM3946.69 3792.91L3946.88 3794.29L3941.24 3795.06L3940.08 3795.23L3939.89 3793.88L3941.07 3793.71L3946.69 3792.91ZM3933.03 3794.81L3933.23 3796.16L3925.96 3797.18L3919.6 3798.09L3919.41 3796.74L3925.77 3795.83L3933.03 3794.81ZM3912.58 3797.68L3912.77 3799.02L3910.71 3799.33L3905.97 3800.02L3905.78 3798.67L3910.52 3797.98L3912.58 3797.68ZM3898.95 3799.63L3899.15 3800.98L3895.49 3801.5L3885.55 3802.96L3885.36 3801.61L3895.29 3800.15L3898.95 3799.63ZM3878.53 3802.63L3878.72 3803.98L3871.92 3805L3871.73 3803.65L3878.53 3802.63ZM3864.93 3804.67L3865.12 3806.02H3865.09L3851.52 3808.08L3851.3 3806.73L3864.87 3804.67H3864.93ZM3844.5 3807.81L3844.72 3809.16L3837.92 3810.23L3837.7 3808.88L3844.5 3807.81ZM3830.91 3809.95L3831.13 3811.3L3819.62 3813.15L3817.53 3813.48L3817.31 3812.13L3819.4 3811.8L3830.91 3809.95ZM3810.53 3813.26L3810.76 3814.61L3804.51 3815.62L3803.96 3815.71L3803.74 3814.36L3804.29 3814.28L3810.53 3813.26ZM3796.94 3815.51L3797.16 3816.86L3789.39 3818.16L3789.17 3816.81L3796.94 3815.51ZM3789.2 3816.81L3789.42 3818.16L3783.61 3819.15L3783.36 3817.8L3789.2 3816.81ZM3776.59 3818.96L3776.84 3820.3L3770.07 3821.46L3769.82 3820.11L3776.59 3818.96ZM3763.02 3821.3L3763.27 3822.64L3749.73 3825.04L3749.48 3823.69L3763.02 3821.3ZM3742.68 3824.9L3742.93 3826.25L3740.28 3826.72L3736.15 3827.46L3735.91 3826.11L3740.04 3825.37L3742.68 3824.9ZM3729.14 3827.35L3729.38 3828.7L3716.25 3831.09L3715.84 3831.18L3715.59 3829.83L3716 3829.75L3729.14 3827.35ZM3708.82 3831.07L3709.07 3832.42L3702.3 3833.68L3702.05 3832.33L3708.82 3831.07ZM3695.3 3833.6L3695.55 3834.95L3692.63 3835.5L3682.04 3837.54L3681.76 3836.19L3692.36 3834.15L3695.3 3833.6ZM3675.02 3837.51L3675.29 3838.86L3669.37 3839.99L3668.55 3840.15L3668.27 3838.8L3669.12 3838.64L3675.02 3837.51ZM3661.5 3840.15L3661.77 3841.5L3648.29 3844.17L3648.01 3842.82L3661.5 3840.15ZM3641.27 3844.2L3641.54 3845.55L3634.8 3846.92L3634.52 3845.57L3641.27 3844.2ZM3627.78 3846.98L3628.05 3848.33L3623.95 3849.18L3614.59 3851.16L3614.29 3849.81L3623.68 3847.83L3627.78 3846.98ZM3607.57 3851.22L3607.88 3852.57L3601.82 3853.86L3601.13 3854L3600.83 3852.65L3601.52 3852.51L3607.57 3851.22ZM3594.11 3854.14L3594.41 3855.48L3580.98 3858.43L3580.68 3857.08L3594.11 3854.14ZM3573.93 3858.6L3574.24 3859.94L3567.52 3861.46L3567.22 3860.11L3573.93 3858.6ZM3560.5 3861.65L3560.8 3863L3558.6 3863.5L3547.4 3866.11L3547.07 3864.76L3558.27 3862.12L3560.5 3861.65ZM3540.4 3866.33L3540.74 3867.68L3537.6 3868.42L3534.05 3869.28L3533.72 3867.93L3537.27 3867.07L3540.4 3866.33ZM3527.03 3869.58L3527.36 3870.93L3516.92 3873.46L3514.01 3874.2L3513.68 3872.88L3516.62 3872.14L3527.03 3869.58ZM3506.96 3874.53L3507.29 3875.86L3500.63 3877.53L3500.3 3876.21L3506.96 3874.53ZM3493.61 3877.92L3493.97 3879.24L3480.64 3882.71L3480.28 3881.39L3493.61 3877.92ZM3473.65 3883.18L3474.01 3884.5L3467.37 3886.29L3467.02 3884.97L3473.65 3883.18ZM3460.35 3886.78L3460.71 3888.11L3457.08 3889.1L3447.44 3891.82L3447.06 3890.5L3456.69 3887.77L3460.35 3886.78ZM3440.48 3892.34L3440.86 3893.67L3437.92 3894.49L3434.26 3895.57L3433.87 3894.24L3437.53 3893.17L3440.48 3892.34ZM3427.24 3896.17L3427.62 3897.49L3419.03 3900L3414.44 3901.4L3414.02 3900.08L3418.65 3898.68L3427.24 3896.17ZM3407.47 3902.12L3407.89 3903.44L3401.31 3905.45L3400.89 3904.13L3407.47 3902.12ZM3394.32 3906.19L3394.73 3907.51L3382.45 3911.39L3381.62 3911.67L3381.18 3910.38L3382.04 3910.1L3394.32 3906.19ZM3374.66 3912.52L3375.1 3913.82L3368.58 3915.96L3368.14 3914.67L3374.66 3912.52ZM3361.58 3916.87L3362.05 3918.17L3349.03 3922.65L3348.56 3921.36L3361.58 3916.87ZM3342.07 3923.67L3342.54 3924.96L3336.07 3927.28L3335.6 3925.98L3342.07 3923.67ZM3329.1 3928.32L3329.6 3929.62L3316.71 3934.43L3316.22 3933.14L3329.1 3928.32ZM3309.78 3935.62L3310.3 3936.88L3303.89 3939.39L3303.36 3938.12L3309.78 3935.62ZM3296.95 3940.63L3297.47 3941.89L3297.31 3941.95L3284.73 3947.07L3284.2 3945.8L3296.78 3940.66L3296.95 3940.63ZM3277.84 3948.47L3278.4 3949.74L3272.06 3952.44L3271.51 3951.17L3277.84 3948.47ZM3265.15 3953.87L3265.73 3955.14L3253.15 3960.75L3252.57 3959.48L3265.15 3953.87ZM3246.33 3962.35L3246.93 3963.59L3240.68 3966.5L3240.08 3965.27L3246.33 3962.35ZM3233.86 3968.18L3234.46 3969.42L3222.1 3975.45L3221.5 3974.21L3233.86 3968.18ZM3215.33 3977.35L3215.96 3978.56L3209.82 3981.7L3209.19 3980.49L3215.33 3977.35ZM3203.11 3983.68L3203.77 3984.89L3193.14 3990.59L3191.68 3991.42L3190.99 3990.23L3192.48 3989.41L3203.11 3983.68ZM3184.97 3993.59L3185.65 3994.78L3179.65 3998.13L3178.96 3996.95L3184.97 3993.59ZM3164.18 3999.87L3162.15 4007.44L3169.72 4009.48L3164.9 4012.26L3157.33 4010.22L3159.37 4002.65L3164.18 3999.87ZM3173.79 3994.33L3171.75 4001.9L3179.32 4003.94L3174.51 4006.72L3166.94 4004.69L3168.97 3997.12L3173.79 3994.33ZM3183.42 3988.8L3181.39 3996.37L3188.96 3998.41L3184.14 4001.19L3176.57 3999.15L3178.61 3991.58L3183.42 3988.8Z" fill="#CFD1D2"/>
<path d="M3881.06 2572.44H3878.77C3881.5 2691.17 3884.09 2808.25 3886.34 2919.79H3888.63C3886.37 2808.22 3883.78 2691.14 3881.06 2572.44Z" fill="#D5D5D5"/>
<path d="M3880.84 2572.44H3878.55C3881.28 2691.17 3883.87 2808.25 3886.12 2919.79H3888.41C3886.13 2808.22 3883.56 2691.14 3880.84 2572.44Z" fill="#D3D3D3"/>
<path d="M3971.93 0.0550556L4054.32 3685.42L4054.35 3686.69L4954.78 3568.29V3565.98L4056.58 3684.07L3974.24 0L3971.93 0.0550556Z" fill="#D3D3D3"/>
<path d="M3842.38 1103.51C3842.35 1102.4 3842.32 1101.66 3842.32 1101.36L3806.78 0L3804.5 0.0825833L3840.04 1101.44C3840.04 1101.74 3840.07 1102.46 3840.09 1103.56C3797.45 1104.28 3742.73 1107.72 3688.31 1111.19C3515.49 1122.22 3300.38 1135.93 3174.77 1081.59C3130.62 1054.53 3096.6 1015.94 3096.27 1015.55L3095.91 1015.14H3095.36C2966.97 1017.56 2836.54 1018.8 2710.44 1020.01C2436.04 1022.63 2148.46 1025.55 1868.99 1040.58C1866.76 1004.3 1864.09 967.464 1861.37 930.246L1861.07 926.145C1851.95 801.636 1797.2 482.507 1796.65 479.314L1712.64 0.0275278H1710.3L1794.39 479.727C1794.94 482.92 1849.67 801.967 1858.78 926.337L1859.08 930.439C1861.81 967.629 1864.48 1004.46 1866.71 1040.72C1866.76 1041.49 1866.82 1042.26 1866.85 1043C1867.62 1042.94 1868.36 1042.92 1869.13 1042.89C2148.57 1027.86 2436.09 1024.94 2710.46 1022.33C2836.4 1021.14 2966.64 1019.88 3094.89 1017.48C3098.66 1021.69 3131.56 1057.81 3173.73 1083.66C3245.19 1114.57 3345.2 1123.6 3449.94 1123.6C3530.24 1123.6 3613.35 1118.29 3688.44 1113.5C3742.87 1110.03 3797.56 1106.59 3840.15 1105.87C3840.92 1105.85 3841.69 1105.85 3842.43 1105.82C3842.43 1104.91 3842.41 1104.14 3842.38 1103.51Z" fill="#D3D3D3"/>
<path d="M1778.1 1070.64C1774.69 878.907 1738.79 679.33 1704.08 486.305C1692.08 419.578 1634.24 88.9144 1619.74 0.0546875H1617.42C1631.82 88.3913 1689.82 419.881 1701.82 486.718C1736.51 679.633 1772.41 879.154 1775.82 1070.69C1780.28 1320.09 1740.36 1466.71 1646.38 1546.1C1559.7 1619.32 1430.59 1629.56 1281.12 1641.4C1164.21 1650.65 1031.72 1661.16 889.59 1702.37C811.136 1728.58 770.395 1786.94 732.241 1849.54C682.774 1930.69 672.754 2048.07 663.091 2161.59C647.263 2347.1 632.315 2522.31 451.045 2523.75C288.053 2541.17 104.966 2562.34 103.121 2562.56L0.25 2576.57V2578.5L103.397 2564.82C105.241 2564.6 288.301 2543.43 451.183 2526C634.435 2524.57 649.493 2348.34 665.404 2161.76C675.066 2048.51 685.059 1931.4 734.251 1850.69C772.184 1788.48 812.65 1730.48 890.306 1704.55C1032.16 1663.42 1164.54 1652.93 1281.34 1643.66C1586.18 1619.49 1787.6 1603.55 1778.1 1070.64Z" fill="#D3D3D3"/>
<path d="M2979.55 3802.16C2967.19 3784.13 2956.26 3767.53 2945.69 3751.49C2880.06 3651.97 2843.92 3597.14 2718.72 3587.45C2681.64 3584.69 2642.97 3578.64 2600.52 3568.98C2538.97 3554.94 2477 3534.9 2417.1 3515.52C2327.39 3486.5 2234.62 3456.5 2138.36 3444.69C2106.48 3440.78 2074.33 3437.31 2043.25 3433.98C1852.48 3413.47 1672.26 3394.12 1516.94 3271.1C1481.76 3238.62 1449.09 3208.2 1417.49 3178.77C1190.49 2967.49 1053.46 2839.96 797.864 2697.67C717.097 2652.71 626.641 2628.49 521.347 2623.7C427.312 2619.41 329.616 2630.61 235.141 2641.46C197.235 2645.8 158.035 2650.29 119.359 2653.79L0.246278 2665.18V2667.66L119.552 2656.07C158.256 2652.6 197.483 2648.09 235.389 2643.74C431.882 2621.19 617.502 2599.92 796.763 2699.7C1052.11 2841.86 1189.06 2969.31 1415.92 3180.48C1447.52 3209.9 1480.19 3240.32 1515.46 3272.86C1671.35 3396.35 1851.87 3415.76 2043 3436.29C2074.08 3439.62 2106.2 3443.09 2138.05 3447C2234.13 3458.78 2326.78 3488.76 2416.39 3517.75C2476.34 3537.13 2538.36 3557.19 2600 3571.23C2642.58 3580.92 2681.37 3587.01 2718.53 3589.76C2842.6 3599.37 2878.52 3653.87 2943.76 3752.78C2954.09 3768.44 2964.77 3784.63 2976.74 3802.16L2972.45 3803.4C2894.05 3825.89 2670.06 3750.05 2432.93 3669.76C2191.24 3587.92 1941.31 3503.27 1791.84 3500.54C1449.86 3494.32 1236.16 3316.55 1009.91 3128.34C880.777 3020.9 747.213 2909.8 584 2826.52C401.932 2733.65 76.278 2740 73.0022 2740.06L0.21875 2742.84V2744.88L73.0573 2742.37C76.3331 2742.32 401.409 2735.93 582.954 2828.56C745.946 2911.72 879.401 3022.74 1008.45 3130.1C1235 3318.58 1449.01 3496.61 1791.81 3502.83C1940.93 3505.52 2190.69 3590.12 2432.22 3671.9C2640.71 3742.51 2839.05 3809.68 2937.87 3809.68C2951.64 3809.68 2963.45 3808.39 2973.11 3805.6L2980.46 3803.48L2979.55 3802.16Z" fill="#D3D3D3"/>
<path d="M3044.32 4580.07C3034.39 4517.91 3024.09 4453.64 3003.14 4395.25L3002.92 4394.67L3002.32 4394.54C2912.77 4374.52 2848.24 4333.53 2810.53 4272.64C2753 4179.76 2778.76 4071.58 2779.04 4070.48L2779.29 4069.49L2778.32 4069.13C2741.3 4055.59 2704.27 4042.04 2667.25 4028.47C2448.81 3948.47 2222.92 3865.75 1999.09 3788.43C1887.63 3749.92 1775.87 3743.28 1657.56 3736.26C1502.05 3727.01 1341.26 3717.46 1180 3629.51C1045.56 3556.18 941.559 3459.69 840.972 3366.37C645.883 3185.38 461.612 3014.43 85.5824 3033.89L0.21875 3038.43V3040.36L85.6925 3036.18C90.62 3035.9 97.9424 3035.54 106.834 3035.27C106.834 3035.27 268.89 3025.06 424.367 3080.17C593.883 3140.26 714.427 3252.08 839.403 3368.02C940.1 3461.43 1044.21 3558.02 1178.9 3631.49C1340.6 3719.69 1501.67 3729.27 1657.42 3738.52C1775.57 3745.54 1887.17 3752.17 1998.35 3790.58C2222.15 3867.9 2448.02 3950.62 2666.45 4030.62C2703.14 4044.05 2739.87 4057.51 2776.59 4070.92C2774.11 4082.15 2753.52 4184.91 2808.57 4273.8C2846.54 4335.1 2911.34 4376.39 3001.19 4396.6C3021.92 4454.63 3032.16 4518.58 3042.07 4580.43C3044.93 4598.41 3109.98 4936.97 3113.17 4955L3115.43 4954.59C3112.23 4936.58 3047.19 4598.02 3044.32 4580.07Z" fill="#D3D3D3"/>
<path d="M2881.03 3958.88L2886.26 3960.72L2889.64 3967.8L2882.57 3971.18L2877.34 3969.34L2884.41 3965.95L2881.03 3958.88ZM2870.57 3955.19L2875.8 3957.04L2879.18 3964.11L2872.11 3967.5L2866.88 3965.65L2873.95 3962.27L2870.57 3955.19ZM2860.1 3951.5L2865.34 3953.35L2868.72 3960.42L2861.65 3963.81L2856.42 3961.96L2863.49 3958.58L2860.1 3951.5ZM2865.97 3958.71L2865.5 3960.01L2862.06 3958.77L2862.53 3957.48L2865.97 3958.71ZM2856.03 3955.19L2855.56 3956.48L2842.6 3951.86L2843.07 3950.57L2856.03 3955.19ZM2836.6 3948.25L2836.13 3949.55L2832.41 3948.23L2829.66 3947.24L2830.13 3945.94L2832.88 3946.93L2836.6 3948.25ZM2823.63 3943.63L2823.16 3944.92L2810.22 3940.24L2810.69 3938.95L2823.63 3943.63ZM2804.22 3936.61L2803.76 3937.9L2799.32 3936.31L2797.26 3935.56L2797.73 3934.27L2799.79 3935.01L2804.22 3936.61ZM2791.29 3931.93L2790.82 3933.22L2777.88 3928.52L2778.35 3927.22L2791.29 3931.93ZM2771.88 3924.86L2771.41 3926.15L2766.29 3924.28L2764.94 3923.78L2765.41 3922.49L2766.76 3922.98L2771.88 3924.86ZM2758.94 3920.12L2758.47 3921.41L2745.56 3916.68L2746.03 3915.39L2758.94 3920.12ZM2739.56 3913.02L2739.09 3914.31L2733.26 3912.16L2732.65 3911.94L2733.12 3910.65L2733.73 3910.87L2739.56 3913.02ZM2726.65 3908.26L2726.18 3909.55L2713.27 3904.79L2713.74 3903.49L2726.65 3908.26ZM2707.3 3901.1L2706.83 3902.39L2700.36 3900L2700.83 3898.7L2707.3 3901.1ZM2694.39 3896.31L2693.92 3897.6L2681.01 3892.81L2681.48 3891.52L2694.39 3896.31ZM2675.01 3889.12L2674.54 3890.42L2668.1 3888.02L2668.57 3886.73L2675.01 3889.12ZM2662.13 3884.33L2661.66 3885.63L2648.75 3880.84L2649.21 3879.54L2662.13 3884.33ZM2642.77 3877.15L2642.31 3878.44L2635.86 3876.05L2636.33 3874.75L2642.77 3877.15ZM2629.86 3872.36L2629.39 3873.65L2616.48 3868.86L2616.95 3867.57L2629.86 3872.36ZM2610.51 3865.17L2610.04 3866.47L2603.6 3864.07L2604.07 3862.78L2610.51 3865.17ZM2597.6 3860.39L2597.13 3861.68L2584.22 3856.89L2584.69 3855.6L2597.6 3860.39ZM2578.25 3853.2L2577.78 3854.49L2571.34 3852.1L2571.81 3850.81L2578.25 3853.2ZM2565.34 3848.44L2564.87 3849.73L2551.96 3844.97L2552.43 3843.68L2565.34 3848.44ZM2545.96 3841.28L2545.49 3842.57L2539.02 3840.21L2539.49 3838.91L2545.96 3841.28ZM2533.05 3836.52L2532.58 3837.81L2519.64 3833.08L2520.11 3831.78L2533.05 3836.52ZM2513.64 3829.42L2513.17 3830.71L2506.7 3828.34L2507.17 3827.05L2513.64 3829.42ZM2500.73 3824.71L2500.26 3826L2487.32 3821.3L2487.79 3820L2500.73 3824.71ZM2481.32 3817.66L2480.85 3818.96L2474.39 3816.62L2474.85 3815.32L2481.32 3817.66ZM2468.36 3812.95L2467.89 3814.25L2454.92 3809.6L2455.39 3808.3L2468.36 3812.95ZM2448.92 3805.99L2448.45 3807.28L2441.99 3804.97L2442.45 3803.68L2448.92 3805.99ZM2435.98 3801.34L2435.52 3802.63L2422.55 3798.03L2423.02 3796.74L2435.98 3801.34ZM2416.52 3794.46L2416.05 3795.75L2409.56 3793.47L2410.03 3792.17L2416.52 3794.46ZM2403.53 3789.86L2403.06 3791.15L2402.57 3790.99L2390.07 3786.64L2390.51 3785.34L2403.01 3789.69L2403.53 3789.86ZM2384.04 3783.06L2383.6 3784.35L2377.1 3782.1L2377.54 3780.8L2384.04 3783.06ZM2371.05 3778.55L2370.61 3779.84L2369.37 3779.4L2357.59 3775.38L2358.03 3774.09L2369.81 3778.1L2371.05 3778.55ZM2351.5 3771.86L2351.06 3773.15L2344.54 3770.92L2344.98 3769.63L2351.5 3771.86ZM2338.48 3767.4L2338.04 3768.69L2336.06 3768.03L2324.99 3764.31L2325.43 3763.02L2336.53 3766.74L2338.48 3767.4ZM2318.88 3760.82L2318.44 3762.11L2311.92 3759.94L2312.36 3758.64L2318.88 3760.82ZM2305.83 3756.44L2305.39 3757.73L2302.7 3756.83L2292.32 3753.44L2292.73 3752.12L2303.11 3755.5L2305.83 3756.44ZM2286.21 3750.03L2285.79 3751.35L2279.24 3749.2L2279.65 3747.88L2286.21 3750.03ZM2273.13 3745.73L2272.72 3747.05L2269.3 3745.92L2259.61 3742.84L2260.03 3741.52L2269.72 3744.6L2273.13 3745.73ZM2253.48 3739.46L2253.06 3740.78L2246.51 3738.68L2246.92 3737.36L2253.48 3739.46ZM2240.34 3735.27L2239.93 3736.59L2235.78 3735.27L2226.77 3732.49L2227.19 3731.17L2236.19 3733.95L2240.34 3735.27ZM2220.63 3729.13L2220.22 3730.45L2213.64 3728.42L2214.06 3727.1L2220.63 3729.13ZM2207.48 3725.09L2207.06 3726.41L2202.22 3724.92L2193.91 3722.44L2194.29 3721.12L2202.6 3723.6L2207.48 3725.09ZM2187.71 3719.11L2187.33 3720.43L2180.72 3718.45L2181.1 3717.13L2187.71 3719.11ZM2174.5 3715.18L2174.11 3716.5L2168.55 3714.85L2160.9 3712.64L2161.28 3711.32L2168.94 3713.52L2174.5 3715.18ZM2154.68 3709.4L2154.29 3710.72L2147.69 3708.82L2148.07 3707.5L2154.68 3709.4ZM2141.46 3705.6L2141.08 3706.92L2134.8 3705.1L2127.84 3703.17L2128.2 3701.85L2135.19 3703.78L2141.46 3705.6ZM2121.56 3700.04L2121.2 3701.36L2114.57 3699.51L2114.93 3698.19L2121.56 3700.04ZM2108.29 3696.35L2107.94 3697.67L2100.94 3695.74L2094.64 3694.09L2094.97 3692.77L2101.27 3694.45L2108.29 3696.35ZM2088.34 3691.01L2088.01 3692.33L2081.34 3690.57L2081.67 3689.24L2088.34 3691.01ZM2075.04 3687.48L2074.71 3688.8L2067 3686.77L2061.39 3685.36L2061.72 3684.01L2067.36 3685.45L2075.04 3687.48ZM2055.03 3682.34L2054.7 3683.68L2048.04 3682.01L2048.37 3680.66L2055.03 3682.34ZM2041.68 3678.98L2041.35 3680.33L2032.92 3678.21L2028 3677.02L2028.3 3675.67L2033.25 3676.86L2041.68 3678.98ZM2021.61 3674.1L2021.31 3675.45L2014.62 3673.86L2014.92 3672.51L2021.61 3674.1ZM2008.23 3670.91L2007.93 3672.26L1998.76 3670.09L1994.52 3669.15L1994.82 3667.8L1999.06 3668.76L2008.23 3670.91ZM1988.11 3666.26L1987.8 3667.61L1981.09 3666.09L1981.39 3664.75L1988.11 3666.26ZM1974.67 3663.26L1974.37 3664.61L1964.43 3662.38L1960.94 3661.63L1961.21 3660.29L1964.74 3661.03L1974.67 3663.26ZM1954.47 3658.88L1954.19 3660.23L1947.45 3658.83L1947.72 3657.48L1954.47 3658.88ZM1941.01 3656.07L1940.73 3657.42L1930.02 3655.19L1927.27 3654.67L1927.52 3653.32L1930.3 3653.87L1941.01 3656.07ZM1920.75 3651.97L1920.5 3653.32L1913.76 3652L1914 3650.65L1920.75 3651.97ZM1907.23 3649.36L1906.98 3650.71L1895.42 3648.48L1893.47 3648.12L1893.69 3646.77L1895.67 3647.13L1907.23 3649.36ZM1886.94 3645.56L1886.72 3646.91L1879.95 3645.7L1880.17 3644.35L1886.94 3645.56ZM1873.37 3643.16L1873.15 3644.51L1860.74 3642.31L1859.61 3642.12L1859.83 3640.77L1860.98 3640.96L1873.37 3643.16ZM1853.03 3639.67L1852.81 3641.02L1846.01 3639.92L1846.23 3638.57L1853.03 3639.67ZM1839.43 3637.49L1839.21 3638.84L1825.86 3636.69L1825.64 3636.67L1825.83 3635.29L1826.08 3635.32L1839.43 3637.49ZM1819.03 3634.3L1818.84 3635.68L1812.04 3634.68L1812.23 3633.31L1819.03 3634.3ZM1805.41 3632.35L1805.21 3633.72L1791.59 3631.77L1791.78 3630.39L1805.41 3632.35ZM1784.95 3629.48L1784.79 3630.86L1779.94 3630.23L1777.96 3629.98L1778.13 3628.6L1780.11 3628.85L1784.95 3629.48ZM1771.3 3627.72L1771.13 3629.1L1769.1 3628.85L1758.31 3627.53L1757.51 3627.45L1757.67 3626.07L1758.5 3626.15L1769.32 3627.47L1771.3 3627.72ZM1750.79 3625.24L1750.63 3626.62L1747.54 3626.26L1743.8 3625.85L1743.96 3624.47L1747.71 3624.89L1750.79 3625.24ZM1737.11 3623.67L1736.94 3625.05H1736.83L1726.21 3623.89L1723.26 3623.59L1723.4 3622.21L1726.35 3622.52L1736.97 3623.67H1737.11ZM1716.57 3621.44L1716.44 3622.82L1715.64 3622.74L1709.61 3622.1L1709.75 3620.73L1715.78 3621.36L1716.57 3621.44ZM1702.89 3620.01L1702.75 3621.39L1694.58 3620.54L1689.05 3619.96L1689.18 3618.58L1694.72 3619.16L1702.89 3620.01ZM1682.36 3617.89L1682.22 3619.27L1675.36 3618.55L1675.5 3617.18L1682.36 3617.89ZM1668.65 3616.49L1668.51 3617.87L1663.22 3617.32L1654.83 3616.43L1654.97 3615.06L1663.36 3615.94L1668.65 3616.49ZM1648.11 3614.34L1647.97 3615.72L1642.44 3615.14L1641.15 3615L1641.29 3613.63L1642.58 3613.76L1648.11 3614.34ZM1634.43 3612.88L1634.29 3614.26L1632.06 3614.01L1621.69 3612.86L1620.61 3612.75L1620.78 3611.37L1621.85 3611.51L1632.23 3612.66L1634.43 3612.88ZM1613.92 3610.57L1613.76 3611.95L1611.31 3611.67L1606.93 3611.15L1607.1 3609.77L1611.47 3610.3L1613.92 3610.57ZM1600.27 3608.95L1600.1 3610.32L1590.58 3609.14L1586.45 3608.59L1586.64 3607.21L1590.77 3607.74L1600.27 3608.95ZM1579.79 3606.33L1579.6 3607.71L1572.77 3606.77L1572.96 3605.4L1579.79 3606.33ZM1566.16 3604.46L1565.97 3605.81L1559.33 3604.87L1552.34 3603.83L1552.56 3602.48L1559.56 3603.52L1566.16 3604.46ZM1545.76 3601.4L1545.54 3602.75L1538.74 3601.68L1538.96 3600.33L1545.76 3601.4ZM1532.17 3599.2L1531.94 3600.55L1527.9 3599.86L1518.37 3598.18L1518.62 3596.83L1528.12 3598.51L1532.17 3599.2ZM1511.85 3595.6L1511.6 3596.94L1506.76 3596.04L1504.86 3595.65L1505.13 3594.3L1507.03 3594.69L1511.85 3595.6ZM1498.33 3592.98L1498.06 3594.33L1496.08 3593.94L1485.4 3591.74L1484.57 3591.55L1484.87 3590.2L1485.7 3590.37L1496.38 3592.57L1498.33 3592.98ZM1478.16 3588.74L1477.85 3590.09L1474.66 3589.4L1471.14 3588.6L1471.47 3587.25L1474.99 3588.05L1478.16 3588.74ZM1464.75 3585.71L1464.42 3587.06L1463.84 3586.92L1452.97 3584.28L1453.3 3582.93L1464.14 3585.55L1464.75 3585.71ZM1453.3 3582.96L1452.97 3584.31L1451.01 3583.81L1451.37 3582.49L1453.3 3582.96ZM1444.71 3580.73L1444.35 3582.05L1437.69 3580.35L1438.05 3579.02L1444.71 3580.73ZM1431.41 3577.32L1431.03 3578.64L1417.76 3574.98L1418.14 3573.66L1431.41 3577.32ZM1411.51 3571.81L1411.1 3573.13L1404.49 3571.18L1404.9 3569.86L1411.51 3571.81ZM1398.3 3567.93L1397.88 3569.25L1390.62 3567.1L1384.7 3565.23L1385.14 3563.91L1391.03 3565.78L1398.3 3567.93ZM1378.59 3561.82L1378.15 3563.14L1371.6 3561.05L1372.04 3559.73L1378.59 3561.82ZM1365.51 3557.55L1365.04 3558.85L1352.02 3554.41L1352.49 3553.12L1365.51 3557.55ZM1346.02 3550.81L1345.53 3552.1L1339.06 3549.73L1339.55 3548.44L1346.02 3550.81ZM1333.08 3546.1L1332.59 3547.39L1330.39 3546.6L1319.71 3542.44L1320.23 3541.17L1330.85 3545.33L1333.08 3546.1ZM1313.84 3538.67L1313.32 3539.93L1310.59 3538.86L1306.93 3537.35L1307.48 3536.08L1311.12 3537.59L1313.84 3538.67ZM1301.12 3533.44L1300.57 3534.7L1290.86 3530.66L1287.88 3529.34L1288.46 3528.1L1291.41 3529.39L1301.12 3533.44ZM1282.19 3525.32L1281.61 3526.56L1275.3 3523.78L1275.88 3522.54L1282.19 3525.32ZM1269.63 3519.7L1269.03 3520.94L1256.58 3515.08L1257.19 3513.84L1269.63 3519.7ZM1250.97 3510.86L1250.34 3512.1L1244.17 3509.02L1244.8 3507.78L1250.97 3510.86ZM1238.66 3504.73L1238.03 3505.94L1231.59 3502.72L1225.78 3499.63L1226.44 3498.42L1232.22 3501.48L1238.66 3504.73ZM1220.33 3495.23L1219.67 3496.44L1213.59 3493.22L1214.25 3492.01L1220.33 3495.23ZM1208.22 3488.73L1207.53 3489.92L1195.5 3483.23L1196.19 3482.04L1208.22 3488.73ZM1190.21 3478.66L1189.5 3479.84L1183.55 3476.37L1184.27 3475.19L1190.21 3478.66ZM1178.35 3471.69L1177.63 3472.88L1171.33 3469.19L1165.8 3465.8L1166.54 3464.65L1172.05 3468.03L1178.35 3471.69ZM1160.68 3461.04L1159.93 3462.2L1154.07 3458.59L1154.81 3457.43L1160.68 3461.04ZM1149.01 3453.8L1148.26 3454.96L1136.67 3447.52L1137.42 3446.37L1149.01 3453.8ZM1131.61 3442.65L1130.87 3443.81L1130.09 3443.31L1125.14 3440.01L1125.91 3438.88L1130.84 3442.18L1131.61 3442.65ZM1120.18 3435L1119.41 3436.13L1109.01 3429.16L1107.99 3428.45L1108.79 3427.32L1109.78 3428.01L1120.18 3435ZM1103.12 3423.41L1102.32 3424.54L1096.68 3420.6L1097.47 3419.47L1103.12 3423.41ZM1091.8 3415.56L1091 3416.69L1087.54 3414.27L1079.8 3408.68L1080.63 3407.58L1088.33 3413.14L1091.8 3415.56ZM1075.04 3403.53L1074.21 3404.64L1068.62 3400.62L1069.45 3399.51L1075.04 3403.53ZM1063.92 3395.44L1063.09 3396.54L1052.05 3388.31L1052.88 3387.21L1063.92 3395.44ZM1047.37 3383.11L1046.55 3384.21L1043.38 3381.84L1041.04 3380.05L1041.9 3378.98L1044.21 3380.77L1047.37 3383.11ZM1036.42 3374.77L1035.56 3375.84L1024.66 3367.45L1025.52 3366.37L1036.42 3374.77ZM1020.09 3362.13L1019.24 3363.21L1013.84 3358.94L1014.7 3357.87L1020.09 3362.13ZM1009.3 3353.6L1008.45 3354.67L997.658 3346.11L998.512 3345.04L1009.3 3353.6ZM993.199 3340.72L992.318 3341.79L986.977 3337.44L987.858 3336.37L993.199 3340.72ZM982.518 3332.02L981.637 3333.09L973.324 3326.32L970.984 3324.36L971.865 3323.32L974.177 3325.24L982.518 3332.02ZM966.579 3318.89L965.698 3319.93L960.413 3315.53L961.294 3314.48L966.579 3318.89ZM956.036 3310.05L955.155 3311.1L948.796 3305.78L944.612 3302.2L945.521 3301.16L949.677 3304.71L956.036 3310.05ZM940.263 3296.73L939.354 3297.77L934.124 3293.31L935.032 3292.27L940.263 3296.73ZM929.802 3287.78L928.894 3288.83L923.581 3284.28L918.461 3279.82L919.369 3278.78L924.462 3283.21L929.802 3287.78ZM914.194 3274.26L913.285 3275.31L908.11 3270.8L909.019 3269.75L914.194 3274.26ZM903.843 3265.23L902.935 3266.28L897.705 3261.71L892.612 3257.17L893.521 3256.15L898.613 3260.66L903.843 3265.23ZM888.373 3251.55L887.464 3252.57L882.317 3248L883.225 3246.98L888.373 3251.55ZM878.078 3242.41L877.169 3243.43L871.058 3237.98L866.929 3234.24L867.865 3233.22L871.994 3236.96L878.078 3242.41ZM862.717 3228.62L861.781 3229.64L856.688 3225.02L857.624 3224L862.717 3228.62ZM852.504 3219.37L851.568 3220.39L843.585 3213.15L841.383 3211.11L842.319 3210.1L844.521 3212.11L852.504 3219.37ZM837.254 3205.47L836.318 3206.49L831.253 3201.84L832.189 3200.82L837.254 3205.47ZM827.124 3196.17L826.188 3197.19L816.057 3187.88L816.993 3186.86L827.124 3196.17ZM811.956 3182.16L811.02 3183.15L805.982 3178.44L806.918 3177.45L811.956 3182.16ZM801.908 3172.77L800.972 3173.76L790.897 3164.37L791.833 3163.38L801.908 3172.77ZM786.823 3158.67L785.887 3159.67L780.877 3154.93L781.813 3153.94L786.823 3158.67ZM776.803 3149.23L775.867 3150.22L765.874 3140.75L766.81 3139.76L776.803 3149.23ZM761.8 3135.03L760.864 3136.02L756.129 3131.53L755.854 3131.28L756.818 3130.29L757.065 3130.54L761.8 3135.03ZM751.835 3125.56L750.872 3126.55L740.934 3117.02L741.898 3116.03L751.835 3125.56ZM736.915 3111.27L735.952 3112.26L730.969 3107.5L731.933 3106.51L736.915 3111.27ZM726.977 3101.77L726.014 3102.77L725.078 3101.88L726.042 3100.89L726.977 3101.77ZM726.042 3100.87L725.078 3101.86L715.719 3093.65L716.6 3092.61L726.042 3100.87ZM711.452 3088.07L710.571 3089.11L705.396 3084.57L706.277 3083.52L711.452 3088.07ZM701.046 3078.98L700.221 3080.08L689.402 3071.58L690.228 3070.48L701.046 3078.98ZM684.832 3066.21L684.007 3067.31L678.611 3063.04L679.437 3061.94L684.832 3066.21ZM673.932 3057.79L673.161 3058.91L661.929 3050.96L662.7 3049.83L673.932 3057.79ZM657.084 3045.84L656.314 3046.97L650.698 3042.98L651.469 3041.85L657.084 3045.84ZM645.716 3038.05L645 3039.23L633.411 3031.8L634.126 3030.62L645.716 3038.05ZM628.318 3026.9L627.602 3028.08L621.794 3024.37L622.51 3023.18L628.318 3026.9ZM616.536 3019.74L615.875 3020.95L603.956 3014.07L604.617 3012.86L616.536 3019.74ZM598.671 3009.39L598.01 3010.6L593.908 3008.24L592.036 3007.27L592.642 3006.03L594.541 3007.02L598.671 3009.39ZM586.531 3002.81L585.925 3004.05L573.73 2997.66L574.336 2996.43L586.531 3002.81ZM568.252 2993.23L567.647 2994.47L565.637 2993.43L561.481 2991.44L562.059 2990.18L566.27 2992.16L568.252 2993.23ZM555.837 2987.23L555.259 2988.5L542.817 2982.58L543.395 2981.31L555.837 2987.23ZM537.173 2978.37L536.65 2979.63L530.319 2976.91L530.842 2975.64L537.173 2978.37ZM524.511 2972.92L523.988 2974.18L511.352 2968.73L511.875 2967.47L524.511 2972.92ZM505.489 2964.85L505.021 2966.15L498.607 2963.64L499.075 2962.35L505.489 2964.85ZM492.689 2959.84L492.221 2961.14L479.393 2956.13L479.861 2954.83L492.689 2959.84ZM473.364 2952.52L472.924 2953.81L466.427 2951.5L466.868 2950.21L473.364 2952.52ZM460.371 2947.92L459.931 2949.22L449.773 2945.61L446.937 2944.7L447.35 2943.38L450.213 2944.29L460.371 2947.92ZM440.799 2941.29L440.386 2942.61L433.834 2940.52L434.247 2939.2L440.799 2941.29ZM427.695 2937.08L427.283 2938.4L420.676 2936.28L414.152 2934.38L414.51 2933.06L421.089 2934.96L427.695 2937.08ZM407.903 2931.13L407.545 2932.45L400.938 2930.52L401.296 2929.2L407.903 2931.13ZM394.69 2927.3L394.332 2928.62L391.772 2927.88L381.063 2925.07L381.394 2923.72L392.157 2926.53L394.69 2927.3ZM374.705 2921.99L374.374 2923.34L367.712 2921.61L368.043 2920.26L374.705 2921.99ZM361.381 2918.58L361.078 2919.93L347.672 2916.76L347.975 2915.41L361.381 2918.58ZM341.286 2913.84L340.983 2915.19L334.899 2913.76L334.294 2913.62L334.569 2912.27L335.202 2912.41L341.286 2913.84ZM327.825 2910.84L327.549 2912.19L314.088 2909.36L314.364 2908.01L327.825 2910.84ZM307.619 2906.58L307.344 2907.92L307.179 2907.9L300.6 2906.66L300.847 2905.31L307.454 2906.55L307.619 2906.58ZM294.076 2904.01L293.828 2905.36L280.312 2902.8L280.56 2901.45L294.076 2904.01ZM273.76 2900.3L273.54 2901.65L266.741 2900.52L266.961 2899.17L273.76 2900.3ZM260.189 2898.04L259.969 2899.39L253.775 2898.34L246.398 2897.24L246.59 2895.87L253.995 2896.97L260.189 2898.04ZM239.763 2894.88L239.571 2896.25L232.771 2895.23L232.964 2893.86L239.763 2894.88ZM226.137 2892.92L225.972 2894.3L212.318 2892.54L212.483 2891.16L226.137 2892.92ZM205.656 2890.25L205.491 2891.63L203.812 2891.41L198.664 2890.83L198.802 2889.45L203.977 2890.03L205.656 2890.25ZM191.975 2888.68L191.837 2890.06L180.441 2888.76L178.156 2888.54L178.266 2887.17L180.579 2887.39L191.975 2888.68ZM171.412 2886.53L171.302 2887.91L164.447 2887.25L164.557 2885.87L171.412 2886.53ZM157.703 2885.21L157.593 2886.59L143.884 2885.49L143.994 2884.11L157.703 2885.21ZM137.112 2883.56L137.03 2884.94L130.175 2884.47L130.258 2883.09L137.112 2883.56ZM123.376 2882.65L123.293 2884.03L117.98 2883.67L109.557 2883.23L109.612 2881.86L118.036 2882.3L123.376 2882.65ZM102.758 2881.5L102.703 2882.87L100.142 2882.74L95.8481 2882.57L95.9032 2881.19L100.225 2881.36L102.758 2881.5ZM88.9937 2880.92L88.9387 2882.3L83.9286 2882.1L75.2023 2881.86L75.2298 2880.48L83.9837 2880.73L88.9937 2880.92ZM68.3479 2880.31L68.3203 2881.69L61.4384 2881.58L61.4659 2880.2L68.3479 2880.31ZM54.584 2880.12V2881.5L46.5734 2881.47L40.8476 2881.5L40.8201 2880.12L46.5734 2880.09L54.584 2880.12ZM33.9106 2880.18L33.9382 2881.55L32.0938 2881.58L28.35 2881.66L27.0837 2881.72L27.0287 2880.34L28.3225 2880.29L32.0938 2880.2L33.9106 2880.18ZM12.5766 2876.05L7.23621 2881.8L12.9895 2887.14L7.45643 2887.36L1.70312 2882.02L7.04351 2876.27L12.5766 2876.05ZM23.6703 2875.61L18.3299 2881.36L24.0832 2886.7L18.5501 2886.92L12.7968 2881.58L18.1372 2875.83L23.6703 2875.61ZM34.764 2875.19L29.4236 2880.95L35.1769 2886.29L29.6438 2886.51L23.8905 2881.17L29.2309 2875.41L34.764 2875.19Z" fill="#CFD1D2"/>
<path d="M3893.89 3705.51C3657.37 3746.42 3378.9 3786.77 3088.48 3822.26C3080.63 3823.22 3075.43 3823.85 3073.2 3824.13C3049.2 3763.07 3021.61 3699.04 2983.08 3643.85C2939.06 3580.84 2888.43 3540.79 2828.34 3521.43C2774.72 3504.17 2712.2 3496.25 2651.7 3488.62C2573.1 3478.68 2491.87 3468.42 2429.99 3437.47C2302.26 3373.61 2163.16 3360.81 2028.6 3348.45C1910.43 3337.58 1788.23 3326.35 1677.32 3279.82C1572.61 3235.92 1509.13 3165.45 1441.91 3090.82C1413.61 3059.41 1384.34 3026.93 1351.15 2995.57C1247.2 2897.38 1126.74 2812.59 1020.48 2737.8C915.464 2663.89 824.732 2600.05 781.266 2544.69C738.681 2490.46 754.729 2338.79 776.063 2197.54C780.055 2171.2 783.413 2145.54 786.661 2120.74C812.51 1923.81 831.201 1781.51 1091.28 1764.58C1131.14 1762 1173.76 1760.12 1214.94 1758.34C1313.21 1754.07 1414.85 1749.64 1500.87 1734.77C1653.81 1708.32 1769.13 1621.05 1825.59 1489.06C1871.75 1381.15 1878.19 1251.38 1872.63 1111.1C2171.83 1098.99 2494.35 1087.46 2806.43 1085.25C2967.08 1084.1 3063.68 1086.11 3071.38 1090.73C3074.33 1092.49 3078.16 1096.29 3083 1101.11C3094.98 1113 3115.02 1132.9 3150.11 1150.08C3229.01 1188.68 3330.15 1200.04 3436.38 1200.04C3517.09 1200.04 3600.72 1193.47 3679.83 1187.24C3737.09 1182.76 3794.32 1178.44 3842.24 1177.2C3848.03 1380.52 3864.24 1959.89 3877.29 2516.78H3879.57C3866.55 1959.89 3850.34 1380.49 3844.53 1177.14C3844.5 1176.37 3844.47 1175.6 3844.47 1174.86C3843.73 1174.88 3842.93 1174.91 3842.19 1174.91C3794.21 1176.15 3736.95 1180.47 3679.67 1184.99C3496.74 1199.36 3289.4 1215.65 3151.16 1148.02C3116.39 1131.01 3096.52 1111.27 3084.65 1099.49C3079.51 1094.37 3075.79 1090.68 3072.6 1088.78C3062.14 1082.5 2922.1 1082.17 2806.46 1083C2494.35 1085.23 2171.8 1096.73 1872.58 1108.87C1871.81 1108.9 1871.04 1108.93 1870.29 1108.96C1870.32 1109.73 1870.35 1110.47 1870.38 1111.24C1875.91 1251.22 1869.49 1380.68 1823.52 1488.18C1767.39 1619.43 1652.69 1706.23 1500.51 1732.54C1414.63 1747.41 1313.08 1751.81 1214.88 1756.08C1173.67 1757.87 1131.09 1759.71 1091.17 1762.33C970.437 1770.2 893.552 1805.74 849.205 1874.17C808.491 1937.02 797.342 2022.02 784.404 2120.49C781.156 2145.29 777.77 2170.92 773.806 2197.27C752.389 2339.01 736.313 2491.29 779.449 2546.18C823.136 2601.79 913.977 2665.71 1019.16 2739.73C1125.36 2814.47 1245.77 2899.2 1349.58 2997.28C1382.69 3028.58 1411.93 3061.01 1440.2 3092.41C1507.59 3167.23 1571.26 3237.87 1676.44 3282C1787.68 3328.63 1910.07 3339.89 2028.41 3350.79C2162.75 3363.15 2301.63 3375.92 2428.97 3439.59C2491.21 3470.7 2572.64 3481 2651.42 3490.96C2711.79 3498.59 2774.22 3506.49 2827.65 3523.69C2959.73 3566.22 3022.72 3701.99 3071.41 3825.89L3071.74 3826.75L3072.62 3826.61C3073.97 3826.41 3079.53 3825.73 3088.75 3824.6C3379.59 3789.09 3658.47 3748.68 3895.18 3707.69L3896.09 3707.52L3896.12 3706.59C3896.47 3697.86 3896.75 3682.11 3896.97 3670.5H3894.69C3894.49 3681.62 3894.22 3697.01 3893.89 3705.51Z" fill="#D3D3D3"/>
<path d="M3889.51 2975.45H3887.23C3893.39 3287.89 3896.94 3538.92 3894.8 3660.06H3897.08C3899.26 3538.86 3895.7 3287.86 3889.51 2975.45Z" fill="#D3D3D3"/>
<g opacity="0.8">
<path d="M3878.22 3681.1H3864.02V3695.82H3878.22V3681.1Z" fill="#DBDBDB"/>
</g>
<path d="M3880.86 3698.63H3861.54V3678.65H3880.86V3698.63ZM3864.32 3695.88H3878.14V3681.4H3864.32V3695.88Z" fill="#D3D3D3"/>
<path d="M1866.93 1040.71L1867.04 1043H1867.07C1867.04 1042.23 1866.98 1041.49 1866.93 1040.71Z" fill="#1F1A17"/>
<g opacity="0.8">
<path d="M3670.91 3579.35H3642.59V3597.91H3670.91V3579.35Z" fill="#DBDBDB"/>
</g>
<path d="M3671.9 3599.89H3641.12V3578.06H3671.9V3599.89ZM3643.44 3597.77H3669.62V3580.21H3643.44V3597.77Z" fill="#D5D5D5"/>
<path d="M3800.67 1244.2H3660.7V1516.42H3800.67V1244.2Z" fill="#FEEAD1"/>
<g opacity="0.8">
<path d="M3529.74 1243.71H3466.9V1904.65H3529.74V1243.71Z" fill="#DBDBDB"/>
</g>
<g opacity="0.8">
<path d="M3568.53 1245.25H3528.2V1303.36H3568.53V1245.25Z" fill="#DBDBDB"/>
</g>
<g opacity="0.8">
<path d="M3659.65 1245.25H3568.06V1470.64H3659.65V1245.25Z" fill="#DBDBDB"/>
</g>
<path d="M3568.07 1303.36H3528.98V1425.97H3568.07V1303.36Z" fill="#FEEAD1"/>
<g opacity="0.8">
<path d="M3660.7 1492.06H3568.84V1516.04H3660.7V1492.06Z" fill="#DBDBDB"/>
</g>
<path d="M3568.81 1425.97H3528.2V2065.63H3568.81V1425.97Z" fill="white"/>
<path d="M3568.76 2040.8H3539.11V2356.18H3568.76V2040.8Z" fill="white"/>
<path d="M3717.63 1516.78H3529.75V1557.41H3717.63V1516.78Z" fill="white"/>
<path d="M3600.36 2615H3569.83V2630.77H3600.36V2615Z" fill="white"/>
<g opacity="0.8">
<path d="M3540.76 2110.88H3468.45L3468.67 2063.98L3540.76 2064.17V2110.88Z" fill="#DBDBDB"/>
</g>
<g opacity="0.8">
<path d="M3539.11 2173.92H3468.45V2112.43L3539.3 2112.4L3539.11 2173.92Z" fill="#DBDBDB"/>
</g>
<g opacity="0.8">
<path d="M3539.3 2174.69H3468.45V2352.28H3539.3V2174.69Z" fill="#DBDBDB"/>
</g>
<g opacity="0.8">
<path d="M3659.65 2646.24H3624.03V2685.33H3659.65V2646.24Z" fill="#DBDBDB"/>
</g>
<g opacity="0.8">
<path d="M3525.98 2812.38L3496.11 2784.55V2734.89L3498.4 2732.6L3505.25 2725.94L3529.67 2701.38L3522.79 2686.77L3508.53 2656.1L3495.48 2655.72V2655.38L3468.45 2655.61V2862.34L3493.58 2862.23L3508.97 2863L3530.55 2816.89L3525.98 2812.38Z" fill="#DBDBDB"/>
</g>
<g opacity="0.8">
<path d="M3537.4 3158.54H3470.26V3275.81H3537.4V3158.54Z" fill="#DBDBDB"/>
</g>
<g opacity="0.8">
<path d="M3572.8 3573.71H3535.86V3683.85H3572.8V3573.71Z" fill="#DBDBDB"/>
</g>
<g opacity="0.8">
<path d="M3670.11 3441.47H3567.24V3573.71H3670.11V3441.47Z" fill="#DBDBDB"/>
</g>
<path d="M3534.79 2064.17L3468.45 2063.98V1904.67H3534.79V2064.17Z" fill="white"/>
<path d="M3620.97 2807.72L3661.96 2807.61L3662.84 2686.49H3624.69V2645.23L3569.96 2645.39L3569.52 2353.82L3469.18 2353.46L3468.58 2654.56H3510.01L3531.26 2700.56L3496.11 2734.88V2784.54L3532.19 2817.14L3510.2 2864.18L3469.95 2862.64L3469.51 2990.48H3516.23L3569.36 2990.26L3570.13 2880.29L3569.36 2826.52L3580.18 2808.41" fill="white"/>
<path d="M3535.09 3276.58H3467.95V3443.56H3535.09V3276.58Z" fill="white"/>
<path d="M3536.74 3482.24H3517.09V3525.54H3536.74V3482.24Z" fill="#F3ECDA"/>
<path d="M3539.3 2290.75H3466.13V2273.66H3541.53V2276.74H3469.22V2287.7H3539.3V2290.75Z" fill="#D5D5D5"/>
<path d="M3469.82 1982.25H3466.13V1986.54H3469.82V1982.25Z" fill="#D5D5D5"/>
<path d="M3536.63 3278.12H3467.95V3156.06H3536.63V3159.14H3471.03V3275.03H3536.63V3278.12Z" fill="#D5D5D5"/>
<path d="M3536.63 3441.61H3532.41V3444.69H3536.63V3441.61Z" fill="#D5D5D5"/>
<path d="M3659.65 1471.41H3563.16V1491.4H3659.65V1471.41Z" fill="white"/>
<path d="M3569.41 1621.08L3570.38 1622.07V1640.68L3569.41 1641.15V2613.21L3601.37 2613.54L3601.87 2629.84L3567.57 2629.92V2645.94L3602.89 2645.25V2645.94H3660.37L3661 2613.21L3660.5 1558.81H3569.55" fill="#DBDBDB"/>
<path d="M3570.38 1557.27H3567.3V1622.07H3568.84H3570.38V1557.27Z" fill="#D5D5D5"/>
<path d="M3541.53 2354.59H3466.13V2287.7H3539.3V2290.78H3469.22V2351.53H3538.45V2310.24H3541.53V2354.59Z" fill="#D5D5D5"/>
<g opacity="0.8">
<path d="M3468.58 2354.2V2526.69H3515.07L3515.02 2520H3539.3L3539.21 2354.2H3468.58Z" fill="#DBDBDB"/>
</g>
<path d="M3567.84 2987.54V2990.62V3005.92V3086.25H3570.93V2987.54H3567.84Z" fill="#D5D5D5"/>
<g opacity="0.8">
<path d="M3614.17 2807.64H3580.07L3567.84 2828.29L3569.39 2832.36V3401.53L3659.32 3400.67V2832.69V2829.03V2807.64H3614.17Z" fill="#DBDBDB"/>
</g>
<path d="M3620.98 2807.72H3577.87L3579.57 2804.64H3620.98V2807.72Z" fill="#D5D5D5"/>
<path d="M3568.62 3415.15H3537.23V3575.09H3568.62V3415.15Z" fill="white"/>
<path d="M3538.8 3442.27H3517.52V3483.01H3538.8V3442.27Z" fill="white"/>
<path d="M3553.78 3576.02H3535.09L3535.01 3525.51H3538.09L3538.17 3572.94H3553.78V3576.02Z" fill="#D5D5D5"/>
<path d="M3703.26 3399.96H3567.24V3442.24H3703.26V3399.96Z" fill="white"/>
<path d="M3661.97 3401.53H3569.39V3398.44H3658.88V2807.72H3633.37V2804.64H3661.97V3401.53Z" fill="#D5D5D5"/>
<path d="M3672.48 3439.95H3669.4V3443.04H3672.48V3439.95Z" fill="#D5D5D5"/>
<path d="M3764.34 3281.12H3672.48V3534.79H3764.34V3281.12Z" fill="white"/>
<path d="M3764.34 3536.36H3669.4V3441.49H3672.48V3533.3H3761.26V3444.85H3764.34V3536.36Z" fill="#D5D5D5"/>
<path d="M3672.48 3398.44H3669.4V3409.51H3672.48V3398.44Z" fill="#D5D5D5"/>
<g opacity="0.8">
<path d="M4080.91 3624.69H4060.95V3656.19H4080.91V3624.69Z" fill="#DBDBDB"/>
</g>
<path d="M4081.87 3658.61H4059.44V3623.84H4081.87V3658.61ZM4061.75 3656.32H4079.59V3626.12H4061.75V3656.32Z" fill="#D5D5D5"/>
<path d="M3764.34 3345.73H3761.26V3428.23H3764.34V3345.73Z" fill="#D5D5D5"/>
<path d="M3764.34 3281.12H3669.4V3399.98H3672.48V3284.2H3761.26V3329.07H3764.34V3281.12Z" fill="#D5D5D5"/>
<path d="M1866.71 1040.71L1866.82 1043H1866.85C1866.79 1042.23 1866.77 1041.49 1866.71 1040.71Z" fill="#1F1A17"/>
<path d="M3876.43 3653.18C3876.46 3653.13 3876.46 3653.05 3876.48 3652.99C3876.51 3652.94 3876.6 3652.94 3876.62 3652.99C3876.68 3653.07 3876.68 3653.27 3876.62 3653.35C3876.6 3653.4 3876.51 3653.4 3876.48 3653.35C3876.46 3653.32 3876.43 3653.27 3876.43 3653.18Z" fill="white"/>
<path d="M3863.22 2529.86C3863.25 2529.8 3863.25 2529.72 3863.27 2529.66C3863.3 2529.61 3863.36 2529.61 3863.41 2529.66C3863.49 2529.75 3863.49 2529.94 3863.41 2530.05C3863.38 2530.1 3863.3 2530.1 3863.27 2530.05C3863.27 2529.97 3863.25 2529.91 3863.22 2529.86Z" fill="white"/>
<path d="M3600.93 2874.86H3570.41V2890.64H3600.93V2874.86Z" fill="white"/>
<path d="M3670.94 3398.44H3567.84V3401.52H3670.94V3398.44Z" fill="#D5D5D5"/>
<path d="M3518.62 3444.69V3441.66H3515.54V3527.05H3536.63V3523.97H3518.62V3455.84V3444.69Z" fill="#D5D5D5"/>
<path d="M3569.38 2989.43H3536.62L3536.74 3416.09H3568.8L3569.38 2989.43Z" fill="white"/>
<path d="M3537.4 3275.09H3467.95V3444.74H3518.07V3441.66H3471V3278.17L3536.63 3278.12V3441.61H3531.7V3444.74H3537.4V3275.09Z" fill="#D5D5D5"/>
<path d="M3538.11 3527.05H3515.54V3481.46H3538.11V3527.05ZM3518.29 3523.97H3535.33V3484.52H3518.29V3523.97Z" fill="#D5D5D5"/>
<path d="M3569.41 2210.04H3558.79V2244.56H3569.41V2210.04Z" fill="white"/>
<path d="M3569.42 1982.22H3563.09V2002.15H3569.42V1982.22Z" fill="white"/>
<path d="M3570.35 1904.34H3561.35V1919.9H3570.35V1904.34Z" fill="white"/>
<path d="M3569.58 1720.73H3562.7V1732.19H3569.58V1720.73Z" fill="white"/>
<path d="M3570.38 1622.07H3565.56V1641.21H3570.38V1622.07Z" fill="white"/>
<path d="M3567.29 1557.27V1622.07H3570.38V1560.36H3658.88V2644.7H3570.35V2630H3567.27V2647.79H3661.93V1557.27H3567.29Z" fill="#D5D5D5"/>
<path d="M3538.78 3231.93H3535.7V3444.74H3538.78V3231.93Z" fill="#D5D5D5"/>
<path d="M3570.33 3386.77H3567.24V3410.55H3570.33V3386.77Z" fill="#D5D5D5"/>
<path d="M3570.33 3254.88H3567.24V3372.21H3570.33V3254.88Z" fill="#D5D5D5"/>
<path d="M3538.17 3574.26H3535.09V3686.77H3538.17V3574.26Z" fill="#D5D5D5"/>
<path d="M3549.59 3683.69H3535.09V3686.77H3549.59V3683.69Z" fill="#D5D5D5"/>
<path d="M3575.66 3573.66H3572.58V3686.77H3575.66V3573.66Z" fill="#D5D5D5"/>
<path d="M3575.66 3683.69H3561.16V3686.77H3575.66V3683.69Z" fill="#D5D5D5"/>
<path d="M3553.78 3572.94H3535.09V3576.02H3553.78V3572.94Z" fill="#D5D5D5"/>
<path d="M3570.33 3200.54H3567.24V3240.02H3570.33V3200.54Z" fill="#D5D5D5"/>
<path d="M3523.8 3194.27H3520.72V3238.67H3523.8V3194.27Z" fill="#D5D5D5"/>
<path d="M3523.8 3235.62H3468.66V3238.7H3523.8V3235.62Z" fill="#D5D5D5"/>
<path d="M3523.8 3194.27H3468.66V3197.35H3523.8V3194.27Z" fill="#D5D5D5"/>
<path d="M3570.33 3158.51H3567.24V3188.29H3570.33V3158.51Z" fill="#D5D5D5"/>
<path d="M3570.33 3098.66H3567.24V3146.81H3570.33V3098.66Z" fill="#D5D5D5"/>
<path d="M3570.33 2912.85H3567.24V3086.22H3570.33V2912.85Z" fill="#D5D5D5"/>
<path d="M3570.33 2826.5H3567.24V2900.3H3570.33V2826.5Z" fill="#D5D5D5"/>
<path d="M3538.17 2989.43H3535.09V3202.69H3538.17V2989.43Z" fill="#D5D5D5"/>
<path d="M3468.8 2526.69H3465.72V2993.12H3468.8V2526.69Z" fill="#D5D5D5"/>
<path d="M3468.8 1903.79H3465.72V2929.81H3468.8V1903.79Z" fill="#D5D5D5"/>
<path d="M3542.27 2188.79H3539.19V2277.35H3542.27V2188.79Z" fill="#D5D5D5"/>
<path d="M3542.27 2124.54H3539.19V2176.04H3542.27V2124.54Z" fill="#D5D5D5"/>
<path d="M3542.27 2061.22H3539.19V2112.59H3542.27V2061.22Z" fill="#D5D5D5"/>
<path d="M3522.12 1982.25H3519.04V2064.31H3522.12V1982.25Z" fill="#D5D5D5"/>
<path d="M3531.12 1860.85H3528.04V1905.86H3531.12V1860.85Z" fill="#D5D5D5"/>
<path d="M3531.12 1819.28H3528.04V1851.46H3531.12V1819.28Z" fill="#D5D5D5"/>
<path d="M3531.12 1744.96H3528.04V1811.27H3531.12V1744.96Z" fill="#D5D5D5"/>
<path d="M3531.12 1722.3H3528.04V1735.74H3531.12V1722.3Z" fill="#D5D5D5"/>
<path d="M3531.12 1666.34H3528.04V1712.89H3531.12V1666.34Z" fill="#D5D5D5"/>
<path d="M3531.12 1647.21H3528.04V1658.52H3531.12V1647.21Z" fill="#D5D5D5"/>
<path d="M3531.12 1609.96H3528.04V1631.9H3531.12V1609.96Z" fill="#D5D5D5"/>
<path d="M3531.12 1345.42H3528.04V1600.35H3531.12V1345.42Z" fill="#D5D5D5"/>
<path d="M3531.12 1242.33H3528.04V1327.75H3531.12V1242.33Z" fill="#D5D5D5"/>
<path d="M3569.66 1242.33H3566.58V1306.08H3569.66V1242.33Z" fill="#D5D5D5"/>
<path d="M3570.38 1319.13H3567.3V1332.48H3570.38V1319.13Z" fill="#D5D5D5"/>
<path d="M3570.38 1345.01H3567.3V1393.92H3570.38V1345.01Z" fill="#D5D5D5"/>
<path d="M3570.38 1442.81H3567.3V1472.71H3570.38V1442.81Z" fill="#D5D5D5"/>
<path d="M3570.38 1428.53V1405.82H3567.3V1428.53V1431.61H3570.38H3582.57V1428.53H3570.38Z" fill="#D5D5D5"/>
<path d="M3661.03 1469.82H3567.3V1472.9H3661.03V1469.82Z" fill="#D5D5D5"/>
<path d="M3719 1556.37H3567.3V1559.45H3719V1556.37Z" fill="#D5D5D5"/>
<path d="M3800.67 1515.07H3701.93V1518.16H3800.67V1515.07Z" fill="#D5D5D5"/>
<path d="M3681.7 1515.07H3662.57V1242.33H3659.49V1490.52H3570.38H3567.3V1498.31H3570.38V1493.6H3659.49V1515.07H3570.38V1506.35H3567.3V1518.16H3570.38H3659.49H3662.57H3681.7V1515.07Z" fill="#D5D5D5"/>
<path d="M3802.96 1242.33H3799.88V1518.16H3802.96V1242.33Z" fill="#D5D5D5"/>
<path d="M3468.8 1242.33H3465.72V1905.33H3468.8V1242.33Z" fill="#D5D5D5"/>
<path d="M3802.55 1242.33H3466.13V1245.41H3802.55V1242.33Z" fill="#D5D5D5"/>
<path d="M3569.42 1303.03H3554.99V1306.11H3569.42V1303.03Z" fill="#D5D5D5"/>
<path d="M3544.64 1303.03H3530.21V1306.11H3544.64V1303.03Z" fill="#D5D5D5"/>
<path d="M3531.13 1371.71H3466.13V1374.79H3531.13V1371.71Z" fill="#D5D5D5"/>
<path d="M3517.77 2906.6H3514.69V2993.12H3517.77V2906.6Z" fill="#D5D5D5"/>
<path d="M3517.77 2990.07H3465.72V2993.15H3517.77V2990.07Z" fill="#D5D5D5"/>
<path d="M3510.29 2862.06H3465.72V2865.15H3510.29V2862.06Z" fill="#D5D5D5"/>
<path d="M3570.02 2871.78V2874.86H3597.85V2890.64H3570.02V2893.72H3600.94V2890.64V2874.86V2872.25V2871.78H3570.02Z" fill="#D5D5D5"/>
<path d="M3510.29 2654.28H3465.72V2657.37H3510.29V2654.28Z" fill="#D5D5D5"/>
<path d="M3541.53 2351.48H3465.72V2354.56H3541.53V2351.48Z" fill="#D5D5D5"/>
<path d="M3658.77 2647.4V2685.17H3621.96V2688.25H3661.85V2687.29V2685.17V2647.4H3658.77Z" fill="#D5D5D5"/>
<path d="M3570.38 2366.37H3567.3V2570.76H3570.38V2366.37Z" fill="#D5D5D5"/>
<path d="M3570.38 2243.98H3567.3V2354.2H3570.38V2243.98Z" fill="#D5D5D5"/>
<path d="M3570.38 2224.19H3567.3V2231.65H3570.38V2224.19Z" fill="#D5D5D5"/>
<path d="M3570.35 1997.83H3567.27V2211.58H3570.35V1997.83Z" fill="#D5D5D5"/>
<path d="M3570.35 1917.2H3567.27V1985.14H3570.35V1917.2Z" fill="#D5D5D5"/>
<path d="M3570.35 1732.19H3567.27V1904.37H3570.35V1732.19Z" fill="#D5D5D5"/>
<path d="M3570.35 1640.68H3567.27V1722.22H3570.35V1640.68Z" fill="#D5D5D5"/>
<path d="M3661.85 2644.9H3570.38V2631.1H3601.93H3603.41V2612.63H3600.33H3570.38V2595.26H3567.3V2645.94V2647.98H3621.97V2687.29H3625.05V2647.98H3661.85V2644.9ZM3600.33 2615.72V2628.02H3570.38V2615.72H3600.33Z" fill="#D5D5D5"/>
<path d="M3541.53 2274.26H3465.72V2277.34H3541.53V2274.26Z" fill="#D5D5D5"/>
<path d="M3541.53 2172.96H3465.72V2176.04H3541.53V2172.96Z" fill="#D5D5D5"/>
<path d="M3541.53 2109.51H3465.72V2112.59H3541.53V2109.51Z" fill="#D5D5D5"/>
<path d="M3522.12 2061.22H3465.72V2064.31H3522.12V2061.22Z" fill="#D5D5D5"/>
<path d="M3514.33 1903.79H3465.72V1906.88H3514.33V1903.79Z" fill="#D5D5D5"/>
<path d="M3541.52 2061.22H3532.58V2064.31H3541.52V2061.22Z" fill="#D5D5D5"/>
<path d="M3531.13 1903.79H3524.08V1906.88H3531.13V1903.79Z" fill="#D5D5D5"/>
<path d="M3518.9 2517.25H3515.85H3512.76V2520.33V2526.42H3465.72V2529.5H3515.85V2526.42V2520.33H3518.9V2604.73H3521.99V2517.25H3518.9Z" fill="#D5D5D5"/>
<path d="M3567.24 2826.5L3569.97 2827.96L3582.35 2804.64H3578.86L3567.24 2826.5Z" fill="#D5D5D5"/>
<path d="M3672.51 3572.94H3567.08V3576.02H3672.51V3572.94Z" fill="#D5D5D5"/>
<path d="M3895.67 3533.25H3672.06V3536.33H3895.67V3533.25Z" fill="#D3D3D3"/>
<path d="M3672.51 3439.35H3567.08V3442.43H3672.51V3439.35Z" fill="#D5D5D5"/>
<path d="M3672.5 3439.35H3669.42V3575.11H3672.5V3439.35Z" fill="#D5D5D5"/>
<path d="M3570.16 3511.09H3567.08V3575.12H3570.16V3511.09Z" fill="#D5D5D5"/>
<path d="M3570.16 3458.07H3567.08V3495.04H3570.16V3458.07Z" fill="#D5D5D5"/>
<path d="M3542.16 2522.59H3534.02L3534.04 2519.51L3539.08 2519.48V2310.27H3542.16V2522.59Z" fill="#D5D5D5"/>
<path d="M3510.29 2865.15L3507.78 2863.96L3529.67 2818.1L3496.11 2784.54V2767.15H3498.86V2783.42L3533 2817.55L3510.29 2865.15Z" fill="#D5D5D5"/>
<path d="M3510.29 2654.28L3507.78 2655.47L3529.67 2701.33L3496.11 2734.88V2752.28H3498.86V2736.01L3533 2701.88L3510.29 2654.28Z" fill="#D5D5D5"/>
</svg>
