<svg width="9811" height="9811" viewBox="0 0 9811 9811" fill="none" xmlns="http://www.w3.org/2000/svg">
<g clip-path="url(#clip0_1469_138090)">
<rect width="9811" height="9811" fill="white"/>
<path d="M9819.45 -8.5166H-8.51562V9819.45H9819.45V-8.5166Z" fill="#F9F5EA"/>
<path d="M3693.84 2064.06L3694.12 2068.62C3694.12 2068.62 3694.12 2068.62 3694.18 2068.62C3694.05 2067.06 3693.98 2065.56 3693.84 2064.06Z" fill="#1F1A17"/>
<g opacity="0.8">
<path d="M7266.81 7092.06H7210.67V7128.78H7266.81V7092.06Z" fill="#DBDBDB"/>
</g>
<path d="M7268.79 7132.73H7207.88V7089.54H7268.79V7132.73ZM7212.45 7128.51H7264.3V7093.69H7212.45V7128.51Z" fill="#D5D5D5"/>
<path d="M7523.81 2467.06H7246.58V3006.19H7523.81V2467.06Z" fill="#FEEAD1"/>
<path d="M6987.27 2466.1H6862.8V3775.19H6987.27V2466.1Z" fill="#DBDBDB"/>
<path d="M7064.12 2469.17H6984.2V2584.24H7064.12V2469.17Z" fill="#DBDBDB"/>
<g opacity="0.8">
<path d="M7244.47 2469.17H7063.1V2915.57H7244.47V2469.17Z" fill="#DBDBDB"/>
</g>
<path d="M7063.1 2584.24H6985.7V2827.07H7063.1V2584.24Z" fill="#FEEAD1"/>
<path d="M7246.58 2957.95H7064.6V3005.44H7246.58V2957.95Z" fill="#DBDBDB"/>
<path d="M7064.67 2827.07H6984.2V4093.98H7064.67V2827.07Z" fill="white"/>
<path d="M7064.53 4044.79H7005.8V4669.42H7064.53V4044.79Z" fill="white"/>
<path d="M7359.34 3006.94H6987.2V3087.47H7359.34V3006.94Z" fill="white"/>
<path d="M7127.08 5182.12H7066.65V5213.32H7127.08V5182.12Z" fill="white"/>
<g opacity="0.8">
<path d="M7009 4183.64H6865.79L6866.27 4090.71L7009 4091.12V4183.64Z" fill="#DBDBDB"/>
</g>
<g opacity="0.8">
<path d="M7005.8 4308.46H6865.79V4186.71L7006.14 4186.57L7005.8 4308.46Z" fill="#DBDBDB"/>
</g>
<g opacity="0.8">
<path d="M7006.14 4309.96H6865.79V4661.66H7006.14V4309.96Z" fill="#DBDBDB"/>
</g>
<g opacity="0.8">
<path d="M7244.47 5243.98H7173.95V5321.38H7244.47V5243.98Z" fill="#DBDBDB"/>
</g>
<path d="M6979.77 5572.99L6920.64 5517.87V5419.49L6925.13 5414.99L6938.69 5401.77L6987.06 5353.13L6973.44 5324.24L6945.23 5263.47L6919.34 5262.72V5262.03L6865.79 5262.44V5671.92L6915.59 5671.71L6946.05 5673.28L6988.84 5581.91L6979.77 5572.99Z" fill="#DBDBDB"/>
<path d="M7002.4 6258.6H6869.41V6490.86H7002.4V6258.6Z" fill="#DBDBDB"/>
<g opacity="0.8">
<path d="M7072.5 7080.88H6999.33V7298.98H7072.5V7080.88Z" fill="#DBDBDB"/>
</g>
<g opacity="0.8">
<path d="M7265.18 6818.99H7061.47V7080.88H7265.18V6818.99Z" fill="#DBDBDB"/>
</g>
<path d="M6997.22 4091.12L6865.79 4090.71V3775.19H6997.22V4091.12Z" fill="white"/>
<path d="M7167.89 5563.79L7249.1 5563.52L7250.87 5323.69H7175.25V5241.94L7066.85 5242.28L7066.03 4664.79L6867.29 4664.04L6866.06 5260.4H6948.16L6990.2 5351.49L6920.64 5419.49V5517.87L6992.11 5582.39L6948.5 5675.6L6868.79 5672.53L6867.97 5925.71H6960.43L7065.69 5925.3L7067.19 5707.48L7065.69 5600.99L7087.08 5565.15" fill="white"/>
<path d="M7001.04 6899.65H6962.13V6985.36H7001.04V6899.65Z" fill="#F3ECDA"/>
<path d="M7006.14 4539.84H6861.23V4505.97H7010.5V4512.04H6867.29V4533.7H7006.08V4539.84H7006.14Z" fill="#D5D5D5"/>
<path d="M6868.52 3928.83H6861.23V3937.35H6868.52V3928.83Z" fill="#D5D5D5"/>
<path d="M7000.9 6495.43H6864.84V6253.7H7000.9V6259.76H6870.9V6489.3H7000.9V6495.43Z" fill="#D5D5D5"/>
<path d="M7000.9 6819.26H6992.52V6825.32H7000.9V6819.26Z" fill="#D5D5D5"/>
<path d="M7244.54 2917.07H7053.43V2956.65H7244.54V2917.07Z" fill="white"/>
<path d="M7065.83 3213.51L7067.67 3215.49V3252.35L7065.76 3253.23V5178.5L7129.05 5179.19L7130.08 5211.48L7062.15 5211.62V5243.37L7132.12 5241.94V5243.37H7245.97L7247.19 5178.5L7246.24 3090.19H7066.1" fill="#DBDBDB"/>
<path d="M7067.67 3087.13H7061.6V3215.49H7064.6H7067.67V3087.13Z" fill="#D5D5D5"/>
<path d="M7010.57 4666.29H6861.3V4533.77H7006.21V4539.84H6867.43V4660.16H7004.58V4578.4H7010.64V4666.29H7010.57Z" fill="#D5D5D5"/>
<g opacity="0.8">
<path d="M6866.06 4665.54V5007.15H6958.11L6958.04 4993.94H7006.14L7006.01 4665.54H6866.06Z" fill="#DBDBDB"/>
</g>
<path d="M7062.7 5919.92V5926.05V5956.37V6115.39H7068.76V5919.92H7062.7Z" fill="#D5D5D5"/>
<path d="M7154.47 5563.59H7086.88L7062.7 5604.47L7065.69 5612.57V6739.82L7243.86 6738.18V5613.19V5605.96V5563.59H7154.47Z" fill="#DBDBDB"/>
<path d="M7167.89 5563.79H7082.52L7085.86 5557.73H7167.89V5563.79Z" fill="#D5D5D5"/>
<path d="M7064.19 6766.87H7002.05V7083.61H7064.19V6766.87Z" fill="white"/>
<path d="M7005.12 6820.55H6963.02V6901.22H7005.12V6820.55Z" fill="white"/>
<path d="M7330.86 6736.75H7061.47V6820.48H7330.86V6736.75Z" fill="white"/>
<path d="M7249.1 6739.82H7065.76V6733.75H7243.04V5563.79H7192.48V5557.73H7249.1V6739.82Z" fill="#D5D5D5"/>
<path d="M7269.95 6815.92H7263.82V6822.05H7269.95V6815.92Z" fill="#D5D5D5"/>
<path d="M7451.86 6501.35H7269.88V7003.76H7451.86V6501.35Z" fill="white"/>
<path d="M7451.86 7006.89H7263.82V6818.99H7269.88V7000.83H7445.73V6825.66H7451.86V7006.89Z" fill="#D5D5D5"/>
<path d="M7269.95 6733.75H7263.82V6755.69H7269.95V6733.75Z" fill="#D5D5D5"/>
<path d="M7451.87 6629.38H7445.73V6792.76H7451.87V6629.38Z" fill="#D5D5D5"/>
<path d="M7451.86 6501.35H7263.82V6736.82H7269.88V6507.49H7445.73V6596.4H7451.86V6501.35Z" fill="#D5D5D5"/>
<path d="M3693.43 2064.06L3693.7 2068.62C3693.7 2068.62 3693.7 2068.62 3693.77 2068.62C3693.63 2067.06 3693.5 2065.56 3693.43 2064.06Z" fill="#1F1A17"/>
<path d="M7128.17 5696.72H7067.73V5727.92H7128.17V5696.72Z" fill="white"/>
<path d="M7266.89 6733.75H7062.7V6739.88H7266.89V6733.75Z" fill="#D5D5D5"/>
<path d="M7065.69 5923.66H7000.9L7001.03 6768.7H7064.6L7065.69 5923.66Z" fill="white"/>
<path d="M7003.83 6988.43H6959.13V6898.15H7003.83V6988.43ZM6964.58 6982.37H6998.31V6904.22H6964.58V6982.37Z" fill="#D5D5D5"/>
<path d="M7065.83 4380H7044.77V4448.4H7065.83V4380Z" fill="white"/>
<path d="M7065.76 3928.76H7053.23V3968.28H7065.76V3928.76Z" fill="white"/>
<path d="M7067.67 3774.58H7049.82V3805.37H7067.67V3774.58Z" fill="white"/>
<path d="M7066.17 3410.89H7052.54V3433.58H7066.17V3410.89Z" fill="white"/>
<path d="M7067.66 3215.49H7058.12V3253.37H7067.66V3215.49Z" fill="white"/>
<path d="M7061.6 3087.13V3215.42H7067.67V3093.19H7242.97V5240.85H7067.67V5211.75H7061.6V5246.98H7249.1V3087.13H7061.6Z" fill="#D5D5D5"/>
<path d="M7005.12 6403.93H6998.99V6825.39H7005.12V6403.93Z" fill="#D5D5D5"/>
<path d="M7067.6 6710.59H7061.47V6757.67H7067.6V6710.59Z" fill="#D5D5D5"/>
<path d="M7067.6 6449.44H7061.47V6681.84H7067.6V6449.44Z" fill="#D5D5D5"/>
<path d="M7003.96 7081.91H6997.83V7304.77H7003.96V7081.91Z" fill="#D5D5D5"/>
<path d="M7026.58 7298.7H6997.83V7304.84H7026.58V7298.7Z" fill="#D5D5D5"/>
<path d="M7078.23 7080.75H7072.09V7304.77H7078.23V7080.75Z" fill="#D5D5D5"/>
<path d="M7078.23 7298.7H7049.48V7304.83H7078.23V7298.7Z" fill="#D5D5D5"/>
<path d="M7034.82 7079.39H6997.83V7085.52H7034.82V7079.39Z" fill="#D5D5D5"/>
<path d="M7067.6 6341.79H7061.47V6420H7067.6V6341.79Z" fill="#D5D5D5"/>
<path d="M6975.48 6329.39H6969.35V6417.35H6975.48V6329.39Z" fill="#D5D5D5"/>
<path d="M6975.48 6411.22H6866.27V6417.35H6975.48V6411.22Z" fill="#D5D5D5"/>
<path d="M6975.48 6329.39H6866.27V6335.52H6975.48V6329.39Z" fill="#D5D5D5"/>
<path d="M7067.6 6258.53H7061.47V6317.53H7067.6V6258.53Z" fill="#D5D5D5"/>
<path d="M7067.6 6139.98H7061.47V6235.3H7067.6V6139.98Z" fill="#D5D5D5"/>
<path d="M7067.6 5772H7061.47V6115.39H7067.6V5772Z" fill="#D5D5D5"/>
<path d="M7067.6 5600.92H7061.47V5747.07H7067.6V5600.92Z" fill="#D5D5D5"/>
<path d="M7003.96 5923.66H6997.83V6346.08H7003.96V5923.66Z" fill="#D5D5D5"/>
<path d="M6866.54 5007.15H6860.41V5930.95H6866.54V5007.15Z" fill="#D5D5D5"/>
<path d="M6866.54 3773.49H6860.41V5805.59H6866.54V3773.49Z" fill="#D5D5D5"/>
<path d="M7012.07 4337.89H7005.94V4513.26H7012.07V4337.89Z" fill="#D5D5D5"/>
<path d="M7012.07 4210.62H7005.94V4312.62H7012.07V4210.62Z" fill="#D5D5D5"/>
<path d="M7012.07 4085.26H7005.94V4186.98H7012.07V4085.26Z" fill="#D5D5D5"/>
<path d="M6972.15 3928.83H6966.02V4091.39H6972.15V3928.83Z" fill="#D5D5D5"/>
<path d="M6990 3688.39H6983.87V3777.51H6990V3688.39Z" fill="#D5D5D5"/>
<path d="M6990 3606.09H6983.87V3669.79H6990V3606.09Z" fill="#D5D5D5"/>
<path d="M6990 3458.85H6983.87V3590.14H6990V3458.85Z" fill="#D5D5D5"/>
<path d="M6990 3414.02H6983.87V3440.59H6990V3414.02Z" fill="#D5D5D5"/>
<path d="M6990 3303.1H6983.87V3395.29H6990V3303.1Z" fill="#D5D5D5"/>
<path d="M6990 3265.22H6983.87V3287.64H6990V3265.22Z" fill="#D5D5D5"/>
<path d="M6990 3191.5H6983.87V3234.9H6990V3191.5Z" fill="#D5D5D5"/>
<path d="M6990 2667.57H6983.87V3172.5H6990V2667.57Z" fill="#D5D5D5"/>
<path d="M6990 2463.38H6983.87V2632.55H6990V2463.38Z" fill="#D5D5D5"/>
<path d="M7066.3 2463.38H7060.17V2589.63H7066.3V2463.38Z" fill="#D5D5D5"/>
<path d="M7067.73 2615.52H7061.6V2641.95H7067.73V2615.52Z" fill="#D5D5D5"/>
<path d="M7067.73 2666.68H7061.6V2763.57H7067.73V2666.68Z" fill="#D5D5D5"/>
<path d="M7067.73 2860.45H7061.6V2919.66H7067.73V2860.45Z" fill="#D5D5D5"/>
<path d="M7067.67 2832.18V2787.14H7061.6V2832.18V2838.24H7067.67H7091.85V2832.18H7067.67Z" fill="#D5D5D5"/>
<path d="M7247.26 2913.94H7061.6V2920.07H7247.26V2913.94Z" fill="#D5D5D5"/>
<path d="M7362.06 3085.36H7061.6V3091.49H7362.06V3085.36Z" fill="#D5D5D5"/>
<path d="M7523.88 3003.6H7328.27V3009.73H7523.88V3003.6Z" fill="#D5D5D5"/>
<path d="M7288.21 3003.6H7250.26V2463.38H7244.2V2954.88H7067.67H7061.6V2970.35H7067.67V2961.01H7244.2V3003.6H7067.67V2986.29H7061.6V3009.66H7067.67H7244.2H7250.26H7288.21V3003.6Z" fill="#D5D5D5"/>
<path d="M7528.37 2463.38H7522.24V3009.66H7528.37V2463.38Z" fill="#D5D5D5"/>
<path d="M6866.54 2463.38H6860.41V3776.49H6866.54V2463.38Z" fill="#D5D5D5"/>
<path d="M7527.56 2463.38H6861.23V2469.51H7527.56V2463.38Z" fill="#D5D5D5"/>
<path d="M7065.83 2583.56H7037.21V2589.7H7065.83V2583.56Z" fill="#D5D5D5"/>
<path d="M7016.77 2583.56H6988.16V2589.7H7016.77V2583.56Z" fill="#D5D5D5"/>
<path d="M6989.93 2719.62H6861.23V2725.75H6989.93V2719.62Z" fill="#D5D5D5"/>
<path d="M6963.49 5759.6H6957.36V5930.95H6963.49V5759.6Z" fill="#D5D5D5"/>
<path d="M6963.49 5924.89H6860.41V5931.02H6963.49V5924.89Z" fill="#D5D5D5"/>
<path d="M6948.71 5671.37H6860.41V5677.5H6948.71V5671.37Z" fill="#D5D5D5"/>
<path d="M7066.98 5690.65V5696.72H7122.1V5727.99H7066.98V5734.12H7128.17V5727.99V5696.72V5691.54V5690.65H7066.98Z" fill="#D5D5D5"/>
<path d="M6948.71 5259.85H6860.41V5265.99H6948.71V5259.85Z" fill="#D5D5D5"/>
<path d="M7010.57 4660.16H6860.41V4666.29H7010.57V4660.16Z" fill="#D5D5D5"/>
<path d="M7242.77 5246.23V5321.04H7169.87V5327.1H7248.9V5325.26V5321.04V5246.23H7242.77Z" fill="#D5D5D5"/>
<path d="M7067.73 4689.66H7061.6V5094.5H7067.73V4689.66Z" fill="#D5D5D5"/>
<path d="M7067.73 4447.24H7061.6V4665.54H7067.73V4447.24Z" fill="#D5D5D5"/>
<path d="M7067.73 4408.07H7061.6V4422.85H7067.73V4408.07Z" fill="#D5D5D5"/>
<path d="M7067.66 3959.69H7061.53V4383.06H7067.66V3959.69Z" fill="#D5D5D5"/>
<path d="M7067.66 3799.99H7061.53V3934.55H7067.66V3799.99Z" fill="#D5D5D5"/>
<path d="M7067.66 3433.58H7061.53V3774.58H7067.66V3433.58Z" fill="#D5D5D5"/>
<path d="M7067.66 3252.35H7061.53V3413.82H7067.66V3252.35Z" fill="#D5D5D5"/>
<path d="M7248.89 5241.25H7067.73V5213.93H7130.21H7133.14V5177.35H7127.01H7067.66V5142.94H7061.53V5243.37V5247.39H7169.86V5325.26H7175.99V5247.39H7248.89V5241.25ZM7127.01 5183.48V5207.87H7067.66V5183.48H7127.01Z" fill="#D5D5D5"/>
<path d="M7010.57 4507.2H6860.41V4513.33H7010.57V4507.2Z" fill="#D5D5D5"/>
<path d="M7010.57 4306.55H6860.41V4312.68H7010.57V4306.55Z" fill="#D5D5D5"/>
<path d="M7010.57 4180.92H6860.41V4187.05H7010.57V4180.92Z" fill="#D5D5D5"/>
<path d="M6972.14 4085.26H6860.41V4091.39H6972.14V4085.26Z" fill="#D5D5D5"/>
<path d="M6956.68 3773.49H6860.41V3779.62H6956.68V3773.49Z" fill="#D5D5D5"/>
<path d="M7010.5 4085.26H6992.79V4091.39H7010.5V4085.26Z" fill="#D5D5D5"/>
<path d="M6989.93 3773.49H6975.96V3779.62H6989.93V3773.49Z" fill="#D5D5D5"/>
<path d="M6965.74 4988.42H6959.74H6953.61V4994.55V5006.61H6860.41V5012.74H6959.74V5006.61V4994.55H6965.74V5161.74H6971.8V4988.42H6965.74Z" fill="#D5D5D5"/>
<path d="M7061.47 5600.92L7066.85 5603.85L7091.45 5557.66H7084.5L7061.47 5600.92Z" fill="#D5D5D5"/>
<path d="M7269.95 7079.39H7061.12V7085.52H7269.95V7079.39Z" fill="#D5D5D5"/>
<path d="M7711.92 7000.76H7269.06V7006.89H7711.92V7000.76Z" fill="#D3D3D3"/>
<path d="M7269.95 6814.76H7061.12V6820.89H7269.95V6814.76Z" fill="#D5D5D5"/>
<path d="M7269.95 6814.76H7263.82V7083.68H7269.95V6814.76Z" fill="#D5D5D5"/>
<path d="M7067.26 6956.82H7061.12V7083.61H7067.26V6956.82Z" fill="#D5D5D5"/>
<path d="M7067.26 6851.83H7061.12V6925H7067.26V6851.83Z" fill="#D5D5D5"/>
<path d="M7011.8 4999.04H6995.65L6995.72 4992.91H7005.73V4578.53H7011.8V4999.04Z" fill="#D5D5D5"/>
<path d="M3588.57 3682.87V3681.99H3586.26C3587.08 3682.12 3587.89 3682.46 3588.57 3682.87Z" fill="#D5D5D5"/>
<path d="M3981.36 6370.95H3986.67L3981.36 6370.88V6370.95Z" fill="#D5D5D5"/>
<path opacity="0.4" d="M5599.9 6732.39H5401.37V6825.19H5599.9V6732.39Z" fill="#DBDBDB"/>
<path d="M4312.07 4784.77C4311.8 4784.23 4311.39 4783.68 4311.05 4783.13C4311.39 4783.68 4311.73 4784.23 4312.07 4784.77Z" fill="#F90000"/>
<path d="M6948.64 5677.5L6943.74 5675.12L6987.07 5584.37L6920.64 5517.87V5483.39H6926.09V5515.62L6993.68 5583.21L6948.64 5677.5Z" fill="#D5D5D5"/>
<path d="M6948.64 5259.85L6943.74 5262.24L6987.07 5353.06L6920.64 5419.49V5453.96H6926.09V5421.74L6993.68 5354.15L6948.64 5259.85Z" fill="#D5D5D5"/>
<path d="M7003.76 6985.43H6997.7V7040.75H7003.76V6985.43Z" fill="#D5D5D5"/>
<path d="M7003.9 7079.39L7003.83 7036.33H6997.77L6997.83 7085.45H7034.83V7079.39H7003.9Z" fill="#D5D5D5"/>
<path d="M6057.68 8290.98C5970.13 8290.98 5898.93 8219.78 5898.93 8132.23C5898.93 8044.68 5970.13 7973.48 6057.68 7973.48C6145.23 7973.48 6216.42 8044.68 6216.42 8132.23C6216.36 8219.78 6145.16 8290.98 6057.68 8290.98ZM6057.68 7978.05C5972.65 7978.05 5903.49 8047.2 5903.49 8132.23C5903.49 8217.26 5972.65 8286.41 6057.68 8286.41C6142.71 8286.41 6211.86 8217.26 6211.86 8132.23C6211.86 8047.27 6142.71 7978.05 6057.68 7978.05Z" fill="#D2D2D2"/>
<path d="M6488.75 9806.78L6476.69 9804.46L6474.44 9796.49L6486.5 9798.8L6495.56 9790.56L6497.81 9798.53L6488.75 9806.78ZM6485.07 9793.56L6473.01 9791.24L6470.76 9783.27L6482.82 9785.59L6491.88 9777.34L6494.13 9785.31L6485.07 9793.56ZM6481.39 9780.34L6469.33 9778.02L6467.08 9770.05L6479.14 9772.37L6488.2 9764.13L6490.45 9772.1L6481.39 9780.34ZM6481.59 9776.05L6479 9776.8L6476.76 9768.55L6479.41 9767.87L6481.59 9776.05ZM6475.73 9754.72L6473.08 9755.4L6472.26 9752.41L6466.13 9729.04L6468.79 9728.36L6474.92 9751.73L6475.73 9754.72ZM6465.38 9715.21L6462.72 9715.89L6456.52 9691.56L6455.98 9689.52L6458.63 9688.84L6459.18 9690.88L6465.38 9715.21ZM6455.29 9675.55L6452.64 9676.24L6447.46 9655.59L6446.03 9649.8L6448.69 9649.12L6450.12 9654.91L6455.29 9675.55ZM6445.48 9635.9L6442.83 9636.58L6437.85 9616.48L6436.29 9610.15L6438.94 9609.53L6440.51 9615.87L6445.48 9635.9ZM6435.74 9596.25L6433.08 9596.86L6427.63 9574.45L6426.68 9570.36L6429.34 9569.74L6430.29 9573.83L6435.74 9596.25ZM6426.07 9556.53L6423.41 9557.14L6417 9530.64L6419.66 9530.02L6426.07 9556.53ZM6416.53 9516.74L6413.87 9517.35L6407.53 9490.85L6410.19 9490.24L6416.53 9516.74ZM6407.06 9477.02L6404.4 9477.63L6398.13 9451.13L6400.79 9450.51L6407.06 9477.02ZM6397.59 9437.23L6394.93 9437.84L6394.11 9434.3L6388.66 9411.27L6391.32 9410.66L6396.77 9433.69L6397.59 9437.23ZM6388.25 9397.44L6385.6 9398.05L6382.33 9384.02L6379.4 9371.55L6382.05 9370.94L6384.98 9383.4L6388.25 9397.44ZM6378.92 9357.65L6376.26 9358.26L6370.2 9332.44L6369.99 9331.69L6372.65 9331.08L6372.86 9331.83L6378.92 9357.65ZM6369.58 9317.86L6366.93 9318.47L6360.73 9291.97L6363.38 9291.36L6369.58 9317.86ZM6360.32 9278.07L6357.66 9278.69L6351.53 9252.11L6354.19 9251.5L6360.32 9278.07ZM6351.12 9238.22L6348.46 9238.83L6345.67 9226.84L6342.33 9212.26L6344.99 9211.64L6348.33 9226.22L6351.12 9238.22ZM6341.86 9198.43L6339.2 9199.04L6333.27 9173.49L6333.07 9172.47L6335.72 9171.85L6335.93 9172.88L6341.86 9198.43ZM6332.66 9158.57L6330 9159.18L6323.87 9132.61L6326.53 9132L6332.66 9158.57ZM6323.53 9118.78L6320.87 9119.39L6314.81 9092.82L6317.46 9092.21L6323.53 9118.78ZM6314.4 9078.92L6311.74 9079.54L6308.88 9067.2L6305.61 9052.96L6308.27 9052.35L6311.54 9066.59L6314.4 9078.92ZM6305.27 9039.07L6302.61 9039.68L6296.96 9014.88L6296.55 9013.11L6299.2 9012.49L6299.61 9014.27L6305.27 9039.07ZM6296.14 8999.28L6293.48 8999.89L6287.42 8973.32L6290.07 8972.7L6296.14 8999.28ZM6287.08 8959.42L6284.42 8960.03L6278.36 8933.46L6281.01 8932.85L6287.08 8959.42ZM6277.95 8919.56L6275.29 8920.18L6273.79 8913.7L6269.23 8893.6L6271.88 8892.99L6276.45 8913.09L6277.95 8919.56ZM6268.89 8879.71L6266.23 8880.32L6262.89 8865.46L6260.23 8853.75L6262.89 8853.13L6265.55 8864.85L6268.89 8879.71ZM6259.89 8839.85L6257.24 8840.46L6252.4 8819.2L6251.17 8813.89L6253.83 8813.28L6255.06 8818.59L6259.89 8839.85ZM6250.83 8799.99L6248.17 8800.6L6242.45 8775.26L6242.18 8774.03L6244.84 8773.42L6245.11 8774.65L6250.83 8799.99ZM6241.84 8760.13L6239.18 8760.75L6233.18 8734.17L6235.84 8733.56L6241.84 8760.13ZM6232.84 8720.21L6230.19 8720.82L6224.46 8695.54L6224.19 8694.18L6226.85 8693.57L6227.12 8694.93L6232.84 8720.21ZM6223.85 8680.35L6221.19 8680.96L6216.63 8660.52L6215.27 8654.32L6217.92 8653.71L6219.29 8659.84L6223.85 8680.35ZM6214.86 8640.49L6212.2 8641.11L6209.54 8629.12L6206.27 8614.47L6208.93 8613.85L6212.2 8628.5L6214.86 8640.49ZM6205.93 8600.64L6203.27 8601.25L6198.16 8578.43L6197.28 8574.61L6199.94 8574L6200.75 8577.81L6205.93 8600.64ZM6196.94 8560.71L6194.28 8561.32L6193.94 8559.83L6190.87 8546.13L6188.97 8537.68L6188.35 8534.82L6191.01 8534.21L6191.62 8537.07L6193.53 8545.52L6196.6 8559.21L6196.94 8560.71ZM6182.84 8503.68L6194.76 8506.68L6196.53 8514.72L6184.61 8511.72L6175.07 8519.49L6173.3 8511.45L6182.84 8503.68ZM6185.83 8517.11L6197.76 8520.1L6199.53 8528.14L6187.6 8525.15L6178.07 8532.91L6176.29 8524.87L6185.83 8517.11ZM6188.76 8530.46L6200.69 8533.46L6202.46 8541.5L6190.53 8538.5L6181 8546.27L6179.22 8538.23L6188.76 8530.46Z" fill="#CED1D2"/>
<path d="M7701.77 5785.76H7691.76L7691.69 5783.11C7687.4 5572.92 7682.36 5341.61 7676.7 5095.52L7676.63 5092.73H7686.65L7686.72 5095.38C7692.37 5342.29 7697.48 5573.6 7701.71 5782.97L7701.77 5785.76Z" fill="#D5D4D3"/>
<path d="M7648.7 5011.17C7648.76 5011.04 7648.76 5010.9 7648.83 5010.83C7648.9 5010.7 7649.04 5010.7 7649.1 5010.83C7649.24 5011.04 7649.24 5011.38 7649.1 5011.58C7649.04 5011.72 7648.9 5011.72 7648.83 5011.58C7648.76 5011.45 7648.76 5011.31 7648.7 5011.17Z" fill="white"/>
<path d="M-1.22656 5110.51V5101.17L204.804 5073.1C208.347 5072.7 571.559 5030.66 893.618 4996.25C1250.29 4993.46 1279.79 4647.76 1310.99 4281.82C1330.21 4056.78 1350.03 3824.04 1448.28 3662.91C1524.11 3538.57 1605.05 3422.61 1761.21 3370.42C2042.94 3288.73 2305.38 3267.95 2536.89 3249.55C2832.31 3226.12 3087.54 3205.95 3258.41 3061.51C3443.73 2904.94 3522.49 2615.38 3513.63 2122.51C3506.89 1743.5 3435.89 1348.74 3367.22 966.928C3344.46 840.544 3229.39 183.07 3200.09 3.47465L3199.54 0.340576H3209.7L3210.04 2.65706C3239.47 183.07 3354.34 839.317 3377.03 965.225C3445.77 1347.45 3516.83 1742.61 3523.65 2122.38C3542.52 3179.85 3142.79 3211.54 2537.64 3259.5C2306.54 3277.83 2044.64 3298.54 1764.14 3379.89C1611.39 3430.92 1531.54 3545.31 1456.8 3668.02C1359.78 3827.18 1340.02 4058.69 1320.94 4282.57C1289.33 4653.21 1259.49 5003.27 894.163 5006.13C573.33 5040.54 209.506 5082.64 205.963 5083.05L-1.22656 5110.51Z" fill="#D2D2D2"/>
<path d="M4665.34 1911.44H4021.29C3973.25 1911.44 3934.28 1872.47 3934.28 1824.44V762.873C3934.28 714.84 3973.25 675.869 4021.29 675.869H4665.34C4713.37 675.869 4752.34 714.84 4752.34 762.873V1824.44C4752.34 1872.54 4713.37 1911.44 4665.34 1911.44Z" stroke="#D5D4D3" stroke-miterlimit="10"/>
<path opacity="0.4" d="M6751.27 6976.85V6979.23H6847.74V6689.88H6751.67L6751.27 6976.85ZM6753.99 6694.51V6974.46H6753.58L6753.99 6694.51Z" fill="#DBDBDB"/>
<path d="M6866.61 1904.15H5031.68C4957.28 1904.15 4896.98 1843.85 4896.98 1769.45V810.566C4896.98 736.166 4957.28 675.869 5031.68 675.869H6866.61C6941.01 675.869 7001.31 736.166 7001.31 810.566V1769.45C7001.31 1843.85 6941.01 1904.15 6866.61 1904.15Z" stroke="#D5D4D3" stroke-miterlimit="10"/>
<path d="M5515.42 2018.2C5482.99 2018.55 5398.84 2019.29 5366.62 2019.57C4849.7 2024.47 4263.97 2030.06 3703.45 2060.17C3699.02 1988.02 3693.64 1915.05 3688.53 1844.4L3687.91 1836.29C3669.93 1590.81 3561.46 957.867 3560.37 951.463L3394.06 2.65705L3393.65 0.408691H3383.5L3550.56 953.234C3551.65 959.57 3659.98 1590.88 3677.97 1837.11L3678.58 1845.22C3683.55 1912.87 3689.14 1989.59 3693.7 2063.51L3694.11 2070.73L3701.34 2070.33C4262.2 2040.14 4849.02 2034.56 5366.68 2029.65C5398.84 2029.38 5482.99 2028.56 5515.35 2028.29V2018.2H5515.42Z" fill="#D2D2D2"/>
<path d="M5509.35 2028.22C5680.91 2026.52 5902.88 2024.61 6076.55 2021.75V2011.66C5903.15 2014.53 5681.11 2016.5 5509.35 2018.2V2028.22Z" fill="#D2D2D2"/>
<path d="M7628.87 2184.58L7558.28 -1.43073L7558.22 -4.15601L7548.2 -3.81535L7618.85 2184.92L7618.92 2186.35C7532.87 2187.92 7419.98 2195.07 7320.23 2201.48C6977.53 2223.35 6550.95 2250.6 6302.54 2143.16C6214.65 2089.27 6148.02 2013.37 6147.34 2012.62L6145.84 2010.85L6143.53 2010.91C6120.29 2011.32 6097.06 2011.73 6073.76 2012.14V2022.16C6096.31 2021.75 6118.86 2021.41 6141.41 2020.93C6151.91 2032.51 6216.15 2101.94 6297.98 2152.02C6421.57 2205.5 6601.24 2231.53 6847.19 2231.53C6847.26 2231.53 6847.26 2231.53 6847.33 2231.53C7006.89 2231.53 7173.68 2220.9 7320.91 2211.49C7421.48 2205.09 7535.46 2197.8 7621.92 2196.37L7629.21 2196.23L7628.87 2184.58Z" fill="#D2D2D2"/>
<path d="M1153.81 5604.87C1476.21 5769.35 1740.22 5989 1995.58 6201.51C2444.44 6574.94 2868.42 6927.66 3547.97 6939.99C3842.71 6945.37 4336.94 7112.7 4815.02 7274.58C5229.33 7414.87 5620.68 7547.38 5816.76 7547.38C5844.7 7547.38 5868.41 7544.66 5887.28 7539.21L5905.47 7533.96L5901.59 7528.24C5876.99 7492.27 5855.39 7459.63 5834.54 7427.95C5704.14 7230.23 5632.33 7121.29 5383.17 7102.01C5309.93 7096.56 5233.48 7084.63 5149.55 7065.49C5027.73 7037.76 4905.16 6998.1 4786.68 6959.75C4608.99 6902.24 4425.24 6842.83 4234.33 6819.39C4171.38 6811.7 4107.88 6804.81 4046.01 6798.21C3668.77 6757.67 3312.44 6719.38 3005.77 6476.49C2936.28 6412.31 2871.69 6352.21 2809.28 6294.1L2808.87 6293.69C2359.34 5875.29 2088.04 5622.79 1581.75 5340.93C1421.43 5251.68 1241.97 5203.71 1033.15 5194.18C846.81 5185.66 653.315 5207.87 466.156 5229.33L466.497 5232.06L465.611 5229.4C390.734 5237.98 313.336 5246.84 236.961 5253.72L1.15588 5276.27L-1.29688 5276.55V5286.9L237.846 5263.67C314.563 5256.79 392.165 5247.86 467.247 5239.28C855.803 5194.72 1222.76 5152.61 1576.91 5349.72C2082.11 5630.97 2353.07 5883.19 2802.06 6301.05C2864.54 6359.23 2929.13 6419.32 2999.3 6484.05C3308.55 6728.98 3666.25 6767.41 4045.26 6808.15C4106.72 6814.76 4170.22 6821.57 4233.17 6829.27C4423.12 6852.57 4606.4 6911.85 4783.68 6969.22C4902.43 7007.64 5025.21 7047.36 5147.37 7075.16C5231.85 7094.37 5308.7 7106.43 5382.42 7111.95C5626.67 7130.89 5697.53 7238.34 5826.23 7433.47C5845.99 7463.45 5866.43 7494.45 5889.46 7528.17L5884.55 7529.6C5730.17 7573.89 5287.31 7423.93 4818.08 7265.05C4339.46 7102.96 3844.48 6935.36 3548.17 6929.97C2872.1 6917.71 2449.48 6566.08 2001.99 6193.81C1746.22 5981.03 1481.73 5761.03 1158.31 5596.02C800.207 5413.36 171.963 5424.05 145.391 5424.6L-1.22874 5430.12V5439.59L145.732 5434.54C152.204 5434.41 797.005 5422.83 1153.81 5604.87Z" fill="#D2D2D2"/>
<path d="M6118.39 9534.04C6080.64 9336.32 6033.63 9090.3 6030.29 9069.38C6010.6 8946.27 5990.23 8818.93 5948.6 8702.97L5947.65 8700.38L5944.99 8699.77C5768.46 8660.32 5641.32 8579.58 5567.06 8459.67C5453.49 8276.33 5504.52 8063.69 5505.06 8061.58L5506.15 8057.21L5501.93 8055.72C5428.62 8028.87 5355.31 8002.1 5282.07 7975.25L5280.77 7974.78C4848.75 7816.57 4402 7652.99 3959.35 7500.03C3738.33 7423.66 3516.9 7410.51 3282.53 7396.61C2974.98 7378.35 2657.01 7359.48 2338.29 7185.6C2072.44 7040.55 1866.68 6849.71 1667.67 6665.08C1281.02 6306.43 915.898 5967.61 170.33 6006.17L-1.22656 6015.3V6024.57L170.875 6016.12C184.774 6015.37 198.809 6014.76 212.776 6014.35C215.978 6014.14 536.607 5995.41 840.271 6103.05C1175.34 6221.81 1411.22 6440.65 1660.99 6672.37C1860.41 6857.41 2066.65 7048.73 2333.59 7194.32C2654.22 7369.22 2973.35 7388.16 3281.98 7406.49C3515.68 7420.39 3736.42 7433.47 3956.15 7509.37C4399.14 7662.39 4846.23 7826.11 5278.66 7984.52C5350.61 8010.89 5422.49 8037.18 5494.43 8063.48C5487.76 8095.23 5452.12 8292.82 5558.61 8464.85C5633.9 8586.46 5762.33 8668.56 5940.15 8708.83C5980.76 8823.09 6000.93 8948.93 6020.41 9070.81C6023.75 9091.87 6070.9 9338.64 6108.78 9536.9C6135.49 9676.85 6158.58 9797.78 6161.17 9812.36L6161.65 9815.09L6171.46 9813.25L6170.98 9810.59C6168.39 9796.08 6145.23 9674.6 6118.39 9534.04ZM412.743 6012.78C509.354 6019.12 598.88 6032.61 682.546 6052.23C584.231 6029.88 490.345 6018.43 412.743 6012.78Z" fill="#D2D2D2"/>
<path d="M2355.8 6891.75L2357.23 6889.43L2345.44 6882.55L2344.08 6884.87L2355.8 6891.75Z" fill="#CED1D2"/>
<path d="M2415.55 6924.66L2416.85 6922.27L2404.79 6915.87L2403.49 6918.25L2415.55 6924.66Z" fill="#CED1D2"/>
<path d="M2308.92 6863.95L2319.82 6870.7L2332.29 6877.99L2333.72 6875.67L2321.25 6868.38L2310.35 6861.64L2308.92 6863.95Z" fill="#CED1D2"/>
<path d="M2391.5 6911.71L2392.86 6909.33L2369.08 6896.11L2367.72 6898.5L2391.5 6911.71Z" fill="#CED1D2"/>
<path d="M2274.11 6842.49L2275.61 6840.17L2252.65 6825.46L2251.15 6827.77L2274.11 6842.49Z" fill="#CED1D2"/>
<path d="M2183.22 6782.26L2184.79 6780.08L2173.54 6772.32L2171.98 6774.5L2183.22 6782.26Z" fill="#CED1D2"/>
<path d="M2138.59 6750.92L2153.92 6761.96L2160.8 6766.73L2162.37 6764.48L2155.49 6759.71L2140.23 6748.67L2138.59 6750.92Z" fill="#CED1D2"/>
<path d="M2127.55 6742.95L2129.19 6740.7L2118.15 6732.73L2116.52 6734.98L2127.55 6742.95Z" fill="#CED1D2"/>
<path d="M2427.61 6930.99L2439.12 6937.06L2451.86 6943.46L2453.09 6941.01L2440.35 6934.67L2428.9 6928.61L2427.61 6930.99Z" fill="#CED1D2"/>
<path d="M2194.39 6790.1L2196.37 6791.46L2217.01 6805.29L2218.58 6803.04L2197.93 6789.21L2195.96 6787.85L2194.39 6790.1Z" fill="#CED1D2"/>
<path d="M2297.27 6856.87L2298.7 6854.55L2287.12 6847.4L2285.69 6849.71L2297.27 6856.87Z" fill="#CED1D2"/>
<path d="M2228.32 6812.85L2238.13 6819.39L2239.7 6820.42L2241.2 6818.1L2239.63 6817.15L2229.89 6810.61L2228.32 6812.85Z" fill="#CED1D2"/>
<path d="M2550.59 6989.79L2556.45 6992.38L2575.66 7000.42L2576.75 6997.9L2557.54 6989.86L2551.68 6987.27L2550.59 6989.79Z" fill="#CED1D2"/>
<path d="M2794.5 7076.46L2795.25 7073.87L2782.17 7069.98L2781.42 7072.57L2794.5 7076.46Z" fill="#CED1D2"/>
<path d="M2742.24 7060.79L2753.96 7064.47L2768.34 7068.76L2769.15 7066.17L2754.78 7061.88L2743.13 7058.2L2742.24 7060.79Z" fill="#CED1D2"/>
<path d="M2729.29 7056.7L2730.11 7054.11L2717.1 7049.95L2716.28 7052.54L2729.29 7056.7Z" fill="#CED1D2"/>
<path d="M2833.88 7087.36L2834.63 7084.7L2808.4 7077.48L2807.65 7080.07L2833.88 7087.36Z" fill="#CED1D2"/>
<path d="M2476.26 6955.66L2477.48 6953.21L2465.29 6947.14L2464.06 6949.53L2476.26 6955.66Z" fill="#CED1D2"/>
<path d="M2703.34 7048.18L2704.22 7045.66L2678.47 7036.87L2677.52 7039.39L2703.34 7048.18Z" fill="#CED1D2"/>
<path d="M2860.31 7094.17L2860.99 7091.51L2847.78 7088.11L2847.09 7090.76L2860.31 7094.17Z" fill="#CED1D2"/>
<path d="M2877.35 7098.53L2898.88 7103.71L2900.04 7103.98L2900.65 7101.32L2899.49 7101.05L2878.03 7095.87L2877.35 7098.53Z" fill="#CED1D2"/>
<path d="M1407.67 6118.32L1409.44 6116.2L1399.16 6107.21L1397.45 6109.32L1407.67 6118.32Z" fill="#CED1D2"/>
<path d="M2664.71 7034.83L2665.66 7032.31L2652.85 7027.61L2651.9 7030.19L2664.71 7034.83Z" fill="#CED1D2"/>
<path d="M2105.55 6726.87L2107.19 6724.69L2085.31 6708.41L2083.68 6710.59L2105.55 6726.87Z" fill="#CED1D2"/>
<path d="M2513.18 6973.1L2514.41 6970.65L2489.74 6959.06L2488.59 6961.52L2513.18 6973.1Z" fill="#CED1D2"/>
<path d="M2588.27 7005.6L2595.56 7008.66L2600.94 7010.78L2601.96 7008.19L2596.58 7006.14L2589.36 7003.15L2588.27 7005.6Z" fill="#CED1D2"/>
<path d="M2613.61 7015.68L2634.73 7023.93L2639.09 7025.49L2640.04 7022.97L2635.68 7021.34L2614.63 7013.16L2613.61 7015.68Z" fill="#CED1D2"/>
<path d="M2874.21 7094.92L2873.53 7097.51L2877.35 7098.53L2878.03 7095.87L2874.21 7094.92Z" fill="#CED1D2"/>
<path d="M1556.75 6257.99L1558.59 6256.01L1548.71 6246.61L1546.87 6248.59L1556.75 6257.99Z" fill="#CED1D2"/>
<path d="M1497.34 6201.78L1497.88 6202.32L1507.22 6211.18L1509.12 6209.21L1499.72 6200.35L1499.24 6199.87L1497.34 6201.78Z" fill="#CED1D2"/>
<path d="M1586.66 6285.85L1588.5 6283.88L1568.53 6265.28L1566.7 6267.25L1586.66 6285.85Z" fill="#CED1D2"/>
<path d="M1536.92 6239.25L1538.83 6237.28L1519 6218.54L1517.16 6220.52L1536.92 6239.25Z" fill="#CED1D2"/>
<path d="M1666.64 6359.85L1671.07 6363.86L1686.88 6378.17L1688.72 6376.13L1672.84 6361.82L1668.55 6357.87L1666.64 6359.85Z" fill="#CED1D2"/>
<path d="M1656.62 6350.65L1658.46 6348.6L1648.45 6339.41L1646.61 6341.38L1656.62 6350.65Z" fill="#CED1D2"/>
<path d="M1636.6 6332.18L1638.44 6330.21L1618.41 6311.74L1616.5 6313.72L1636.6 6332.18Z" fill="#CED1D2"/>
<path d="M1606.55 6304.45L1608.39 6302.48L1598.44 6293.14L1596.6 6295.19L1606.55 6304.45Z" fill="#CED1D2"/>
<path d="M1487.46 6192.38L1489.36 6190.4L1469.67 6171.6L1467.77 6173.57L1487.46 6192.38Z" fill="#CED1D2"/>
<path d="M1438.34 6141.55L1436.43 6143.53L1438.27 6145.3L1440.18 6143.32L1438.34 6141.55Z" fill="#CED1D2"/>
<path d="M1457.96 6164.1L1459.87 6162.19L1449.99 6152.72L1448.08 6154.7L1457.96 6164.1Z" fill="#CED1D2"/>
<path d="M1438.33 6141.55H1438.26L1419.66 6125.2L1417.96 6127.31L1436.42 6143.53L1438.33 6141.55Z" fill="#CED1D2"/>
<path d="M2018.68 6660.92L2020.45 6658.81L2009.76 6650.29L2008.05 6652.47L2018.68 6660.92Z" fill="#CED1D2"/>
<path d="M1923.23 6583.93L1927.79 6587.81L1944.28 6601.24L1946.05 6599.12L1929.56 6585.7L1924.93 6581.89L1923.23 6583.93Z" fill="#CED1D2"/>
<path d="M1912.74 6575.21L1914.51 6573.17L1904.08 6564.38L1902.31 6566.49L1912.74 6575.21Z" fill="#CED1D2"/>
<path d="M1870.97 6540.19L1879.28 6547.28L1891.82 6557.77L1893.59 6555.66L1880.98 6545.16L1872.74 6538.15L1870.97 6540.19Z" fill="#CED1D2"/>
<path d="M1965.4 6618.41L1967.18 6616.36L1956.62 6607.71L1954.84 6609.82L1965.4 6618.41Z" fill="#CED1D2"/>
<path d="M2051.11 6685.92L2052.75 6683.74L2031.15 6667.12L2029.52 6669.3L2051.11 6685.92Z" fill="#CED1D2"/>
<path d="M1976.03 6627.06L1997.36 6643.95L1999.06 6641.84L1977.73 6624.95L1976.03 6627.06Z" fill="#CED1D2"/>
<path d="M2061.88 6694.24L2066.51 6697.78L2072.78 6702.41L2074.41 6700.23L2068.14 6695.6L2063.58 6692.06L2061.88 6694.24Z" fill="#CED1D2"/>
<path d="M1768.02 6450.94L1778.11 6459.93L1788.46 6468.99L1790.23 6466.95L1779.88 6457.89L1769.79 6448.89L1768.02 6450.94Z" fill="#CED1D2"/>
<path d="M1707.04 6396.43L1708.88 6394.46L1698.8 6385.33L1696.96 6387.3L1707.04 6396.43Z" fill="#CED1D2"/>
<path d="M1757.81 6441.88L1759.65 6439.83L1749.5 6430.84L1747.66 6432.81L1757.81 6441.88Z" fill="#CED1D2"/>
<path d="M1860.61 6531.33L1862.39 6529.29L1852.03 6520.43L1850.26 6522.48L1860.61 6531.33Z" fill="#CED1D2"/>
<path d="M1717.13 6405.63L1725.38 6412.99L1737.44 6423.75L1739.28 6421.78L1727.15 6411.01L1718.97 6403.58L1717.13 6405.63Z" fill="#CED1D2"/>
<path d="M1819.26 6495.84L1829.41 6504.63L1839.9 6513.62L1841.67 6511.57L1831.18 6502.58L1821.1 6493.79L1819.26 6495.84Z" fill="#CED1D2"/>
<path d="M1808.97 6486.84L1810.81 6484.8L1800.52 6475.87L1798.75 6477.92L1808.97 6486.84Z" fill="#CED1D2"/>
<path d="M2538.12 6984.27L2539.21 6981.75L2526.81 6976.23L2525.65 6978.76L2538.12 6984.27Z" fill="#CED1D2"/>
<path d="M3936.12 7263.48L3936.67 7260.82L3923.38 7257.82L3922.84 7260.48L3936.12 7263.48Z" fill="#CED1D2"/>
<path d="M2913.32 7107.05L2920.27 7108.68L2926.61 7110.05L2927.22 7107.39L2920.88 7105.96L2913.93 7104.39L2913.32 7107.05Z" fill="#CED1D2"/>
<path d="M4147.67 7315.87L4160.07 7319.21L4173.9 7323.03L4174.65 7320.37L4160.82 7316.55L4148.28 7313.28L4147.67 7315.87Z" fill="#CED1D2"/>
<path d="M4200.2 7330.25L4200.88 7327.66L4187.73 7323.98L4187.05 7326.64L4200.2 7330.25Z" fill="#CED1D2"/>
<path d="M4344.09 7371.94L4360.58 7376.85L4370.19 7379.85L4370.94 7377.26L4361.33 7374.26L4344.84 7369.36L4344.09 7371.94Z" fill="#CED1D2"/>
<path d="M4278.82 7352.59L4293.95 7356.96L4304.91 7360.29L4305.73 7357.64L4294.69 7354.37L4279.57 7350.01L4278.82 7352.59Z" fill="#CED1D2"/>
<path d="M4331.08 7368.06L4331.83 7365.47L4318.75 7361.52L4318 7364.18L4331.08 7368.06Z" fill="#CED1D2"/>
<path d="M4068.57 7295.3L4069.18 7292.64L4055.96 7289.3L4055.35 7291.96L4068.57 7295.3Z" fill="#CED1D2"/>
<path d="M4002.41 7278.94L4003.03 7276.29L3989.81 7273.15L3989.2 7275.81L4002.41 7278.94Z" fill="#CED1D2"/>
<path d="M4015.7 7282.15L4025.44 7284.46L4042.13 7288.62L4042.74 7286.03L4026.12 7281.81L4016.31 7279.49L4015.7 7282.15Z" fill="#CED1D2"/>
<path d="M4134.45 7312.4L4135.14 7309.74L4121.99 7306.27L4121.3 7308.92L4134.45 7312.4Z" fill="#CED1D2"/>
<path d="M3949.41 7266.48L3957.79 7268.32L3975.91 7272.68L3976.52 7270.02L3958.4 7265.66L3949.95 7263.82L3949.41 7266.48Z" fill="#CED1D2"/>
<path d="M4396.22 7387.89L4397.03 7385.3L4383.95 7381.28L4383.2 7383.87L4396.22 7387.89Z" fill="#CED1D2"/>
<path d="M4081.78 7298.63L4092.89 7301.43L4108.15 7305.45L4108.83 7302.79L4093.57 7298.77L4082.39 7295.98L4081.78 7298.63Z" fill="#CED1D2"/>
<path d="M4265.74 7348.85L4266.42 7346.19L4253.34 7342.44L4252.59 7345.1L4265.74 7348.85Z" fill="#CED1D2"/>
<path d="M4719.57 7494.58L4720.45 7492.06L4707.64 7487.56L4706.76 7490.15L4719.57 7494.58Z" fill="#CED1D2"/>
<path d="M4732.45 7499.08L4757.18 7507.73L4758.2 7508.07L4759.09 7505.48L4758.13 7505.14L4733.33 7496.49L4732.45 7499.08Z" fill="#CED1D2"/>
<path d="M4668.06 7476.8L4691.43 7484.77L4693.88 7485.66L4694.77 7483.07L4692.32 7482.25L4668.95 7474.21L4668.06 7476.8Z" fill="#CED1D2"/>
<path d="M4848.06 7539.96L4848.95 7537.44L4836.14 7532.8L4835.19 7535.39L4848.06 7539.96Z" fill="#CED1D2"/>
<path d="M4655.18 7472.44L4656.07 7469.85L4643.19 7465.42L4642.3 7468.01L4655.18 7472.44Z" fill="#CED1D2"/>
<path d="M4796.7 7521.7L4822.38 7530.76L4823.33 7528.24L4797.65 7519.11L4796.7 7521.7Z" fill="#CED1D2"/>
<path d="M4783.88 7517.13L4784.77 7514.61L4771.96 7510.05L4771.01 7512.64L4783.88 7517.13Z" fill="#CED1D2"/>
<path d="M4590.67 7450.57L4591.55 7447.98L4578.61 7443.69L4577.79 7446.28L4590.67 7450.57Z" fill="#CED1D2"/>
<path d="M4474.16 7412.42L4493.3 7418.55L4500.11 7420.73L4500.93 7418.14L4494.19 7415.96L4474.97 7409.83L4474.16 7412.42Z" fill="#CED1D2"/>
<path d="M4526.01 7429.18L4526.82 7426.59L4513.88 7422.36L4513.06 7424.95L4526.01 7429.18Z" fill="#CED1D2"/>
<path d="M4461.21 7408.26L4462.03 7405.67L4449.01 7401.58L4448.2 7404.17L4461.21 7408.26Z" fill="#CED1D2"/>
<path d="M4538.95 7433.47L4559.46 7440.14L4564.84 7441.92L4565.73 7439.33L4560.35 7437.56L4539.77 7430.88L4538.95 7433.47Z" fill="#CED1D2"/>
<path d="M4409.23 7391.91L4427.01 7397.43L4435.25 7400.01L4436.07 7397.43L4427.83 7394.84L4410.04 7389.32L4409.23 7391.91Z" fill="#CED1D2"/>
<path d="M4603.61 7454.93L4625.48 7462.29L4629.43 7463.58L4630.32 7460.99L4626.37 7459.7L4604.43 7452.34L4603.61 7454.93Z" fill="#CED1D2"/>
<path d="M4213.34 7333.93L4227.11 7337.74L4239.51 7341.28L4240.26 7338.7L4227.86 7335.08L4214.03 7331.27L4213.34 7333.93Z" fill="#CED1D2"/>
<path d="M3141.56 7146.63L3149.74 7147.72L3168.61 7150.04L3168.95 7147.38L3150.08 7145L3141.9 7143.97L3141.56 7146.63Z" fill="#CED1D2"/>
<path d="M3182.1 7151.67L3190.82 7152.7L3195.66 7153.24L3196 7150.58L3191.1 7150.04L3182.44 7148.95L3182.1 7151.67Z" fill="#CED1D2"/>
<path d="M3249.83 7159.31L3252.42 7159.58L3263.39 7160.74L3263.66 7158.01L3252.69 7156.85L3250.1 7156.58L3249.83 7159.31Z" fill="#CED1D2"/>
<path d="M3209.49 7152.15L3209.22 7154.81L3211.33 7155.08L3231.84 7157.4L3236.27 7157.87L3236.61 7155.15L3232.18 7154.67L3211.6 7152.35L3209.49 7152.15Z" fill="#CED1D2"/>
<path d="M3276.95 7162.17L3293.57 7163.94L3304.06 7164.96L3304.33 7162.3L3293.84 7161.21L3277.22 7159.44L3276.95 7162.17Z" fill="#CED1D2"/>
<path d="M3344.66 7169.18L3355.63 7170.27L3371.78 7171.98L3372.05 7169.25L3355.91 7167.62L3345 7166.46L3344.66 7169.18Z" fill="#CED1D2"/>
<path d="M3318.11 7163.81L3317.84 7166.52L3331.39 7167.91L3331.67 7165.2L3318.11 7163.81Z" fill="#CED1D2"/>
<path d="M2940.5 7110.25L2939.89 7112.91L2941.53 7113.32L2962.71 7117.68L2966.6 7118.43L2967.14 7115.77L2963.26 7115.02L2942.14 7110.66L2940.5 7110.25Z" fill="#CED1D2"/>
<path d="M3006.8 7126.06L3025.67 7129.4L3033.64 7130.76L3034.12 7128.03L3026.08 7126.74L3007.27 7123.4L3006.8 7126.06Z" fill="#CED1D2"/>
<path d="M2980.02 7121.08L2983.77 7121.83L2993.38 7123.6L2993.92 7120.95L2984.32 7119.11L2980.57 7118.36L2980.02 7121.08Z" fill="#CED1D2"/>
<path d="M3385.34 7173.41L3397.34 7174.63L3398.9 7174.84L3399.17 7172.11L3397.61 7171.91L3385.62 7170.68L3385.34 7173.41Z" fill="#CED1D2"/>
<path d="M3128.01 7144.86L3128.41 7142.2L3114.92 7140.36L3114.52 7143.02L3128.01 7144.86Z" fill="#CED1D2"/>
<path d="M3060.55 7135.12L3061.03 7132.39L3047.54 7130.28L3047.13 7133.01L3060.55 7135.12Z" fill="#CED1D2"/>
<path d="M3074.05 7137.16L3087.88 7139.27L3101.03 7141.18L3101.44 7138.46L3088.29 7136.55L3074.46 7134.51L3074.05 7137.16Z" fill="#CED1D2"/>
<path d="M3601.59 7200.25L3602 7197.6L3588.51 7195.62L3588.1 7198.34L3601.59 7200.25Z" fill="#CED1D2"/>
<path d="M3749.37 7224.92L3753.25 7225.6L3776.14 7230.03L3776.62 7227.37L3753.73 7222.94L3749.84 7222.26L3749.37 7224.92Z" fill="#CED1D2"/>
<path d="M3735.95 7222.53L3736.42 7219.87L3723 7217.49L3722.52 7220.15L3735.95 7222.53Z" fill="#CED1D2"/>
<path d="M3668.9 7210.88L3669.31 7208.15L3655.82 7206.04L3655.41 7208.7L3668.9 7210.88Z" fill="#CED1D2"/>
<path d="M3682.33 7213.06L3684.58 7213.4L3709.17 7217.76L3709.58 7215.1L3684.99 7210.74L3682.74 7210.34L3682.33 7213.06Z" fill="#CED1D2"/>
<path d="M3869.62 7248.9L3870.1 7246.24L3856.81 7243.45L3856.27 7246.1L3869.62 7248.9Z" fill="#CED1D2"/>
<path d="M3816.27 7237.79L3821.72 7238.88L3842.91 7243.31L3843.46 7240.65L3822.27 7236.23L3816.75 7235.14L3816.27 7237.79Z" fill="#CED1D2"/>
<path d="M3802.85 7235.2L3803.4 7232.55L3789.98 7229.96L3789.5 7232.62L3802.85 7235.2Z" fill="#CED1D2"/>
<path d="M3520.65 7188.94L3524.6 7189.42L3534.21 7190.71L3534.55 7187.99L3524.94 7186.69L3520.99 7186.22L3520.65 7188.94Z" fill="#CED1D2"/>
<path d="M3480.45 7181.17L3480.11 7183.9L3481.74 7184.1L3503.07 7186.69L3507.16 7187.24L3507.5 7184.51L3503.41 7183.97L3482.02 7181.38L3480.45 7181.17Z" fill="#CED1D2"/>
<path d="M3615.08 7202.23L3615.56 7202.3L3641.99 7206.52L3642.4 7203.86L3615.96 7199.57L3615.49 7199.5L3615.08 7202.23Z" fill="#CED1D2"/>
<path d="M3453.06 7180.77L3460.49 7181.58L3466.62 7182.33L3466.89 7179.61L3460.76 7178.93L3453.33 7178.04L3453.06 7180.77Z" fill="#CED1D2"/>
<path d="M3412.73 7173.54L3412.45 7176.27L3418.24 7176.88L3439.3 7179.2H3439.5L3439.84 7176.54L3439.64 7176.47L3418.59 7174.16L3412.73 7173.54Z" fill="#CED1D2"/>
<path d="M3547.7 7192.49L3574.61 7196.37L3575.02 7193.71L3548.04 7189.83L3547.7 7192.49Z" fill="#CED1D2"/>
<path d="M3882.91 7251.69L3889.86 7253.12L3909.55 7257.55L3910.09 7254.89L3890.47 7250.47L3883.45 7249.03L3882.91 7251.69Z" fill="#CED1D2"/>
<path d="M1063.4 5901.59L1064.43 5899.07L1051.89 5893.69L1050.87 5896.21L1063.4 5901.59Z" fill="#CED1D2"/>
<path d="M4950.53 7577.02L4951.49 7574.43L4925.87 7565.17L4924.91 7567.76L4950.53 7577.02Z" fill="#CED1D2"/>
<path d="M5014.51 7600.46L5015.46 7597.87L4989.84 7588.54L4988.89 7591.06L5014.51 7600.46Z" fill="#CED1D2"/>
<path d="M5040.06 7609.86L5041.01 7607.27L5028.21 7602.57L5027.32 7605.16L5040.06 7609.86Z" fill="#CED1D2"/>
<path d="M4976.15 7586.36L4977.04 7583.83L4964.3 7579.13L4963.34 7581.72L4976.15 7586.36Z" fill="#CED1D2"/>
<path d="M149.959 5705.3L149.891 5708.03L167.196 5708.5L177.143 5708.84L177.212 5706.12L167.332 5705.78L149.959 5705.3Z" fill="#CED1D2"/>
<path d="M5156.32 7649.46L5155.37 7652.02L5168.14 7656.76L5169.09 7654.21L5156.32 7649.46Z" fill="#CED1D2"/>
<path d="M5092.28 7626.38L5091.34 7628.93L5104.11 7633.67L5105.06 7631.11L5092.28 7626.38Z" fill="#CED1D2"/>
<path d="M5181.37 7659.64L5180.42 7662.19L5205.97 7671.67L5206.92 7669.12L5181.37 7659.64Z" fill="#CED1D2"/>
<path d="M5117.64 7635.58L5116.7 7638.13L5142.26 7647.59L5143.2 7645.03L5117.64 7635.58Z" fill="#CED1D2"/>
<path d="M4912.11 7563.05L4913.06 7560.53L4900.25 7555.9L4899.3 7558.42L4912.11 7563.05Z" fill="#CED1D2"/>
<path d="M14.9901 5696.92L4.42969 5708.37L15.8077 5718.93L26.777 5718.45L15.3989 5707.89L25.9594 5696.51L14.9901 5696.92Z" fill="#CED1D2"/>
<path d="M5219.96 7673.72L5219.01 7676.27L5231.78 7681.02L5232.73 7678.46L5219.96 7673.72Z" fill="#CED1D2"/>
<path d="M81.8281 5707.28L93.2062 5707.21L109.081 5707.28V5704.55L93.2062 5704.48L81.8281 5704.55V5707.28Z" fill="#CED1D2"/>
<path d="M136.33 5707.62V5704.96L122.703 5704.69V5707.41L136.33 5707.62Z" fill="#CED1D2"/>
<path d="M48.7826 5717.63L37.3364 5707.07L47.8969 5695.63L36.9276 5696.1L26.3672 5707.48L37.7452 5718.04L48.7826 5717.63Z" fill="#CED1D2"/>
<path d="M60.7723 5707.55L64.5877 5707.48L68.2669 5707.41L68.1987 5704.69L64.5196 5704.76L60.5679 5704.82L59.2734 5706.19L60.7723 5707.55Z" fill="#CED1D2"/>
<path d="M70.7201 5716.75L60.7728 5707.55L57.1618 5707.69L54.641 5707.75L54.5728 5705.03L57.0937 5704.96L60.5684 5704.82L69.8344 5694.81L58.8651 5695.22L48.3047 5706.66L59.7509 5717.16L70.7201 5716.75Z" fill="#CED1D2"/>
<path d="M54.5703 5705.03L54.6384 5707.75L57.1593 5707.69L60.7703 5707.55L59.2714 5706.19L60.5659 5704.82L57.0912 5704.96L54.5703 5705.03Z" fill="#CED1D2"/>
<path d="M5078.42 7623.96L5079.37 7621.44L5053.82 7611.97L5052.87 7614.56L5078.42 7623.96Z" fill="#CED1D2"/>
<path d="M5538.52 7793.95L5542.6 7795.39L5551.32 7798.59L5552.28 7796L5543.56 7792.86L5539.47 7791.37L5538.52 7793.95Z" fill="#CED1D2"/>
<path d="M5721.38 7857.79L5714.7 7843.76L5704.34 7840.08L5711.02 7854.11L5697.05 7860.79L5707.41 7864.47L5721.38 7857.79Z" fill="#CED1D2"/>
<path d="M5589.82 7812.42L5590.7 7809.9L5565.09 7800.63L5564.13 7803.15L5589.82 7812.42Z" fill="#CED1D2"/>
<path d="M5245.71 7682.66L5244.76 7685.21L5270.31 7694.7L5271.26 7692.15L5245.71 7682.66Z" fill="#CED1D2"/>
<path d="M5602.62 7817.05L5608.08 7819.03L5615.43 7821.62L5616.39 7819.09L5608.96 7816.44L5603.51 7814.46L5602.62 7817.05Z" fill="#CED1D2"/>
<path d="M1387.24 6100.4L1388.87 6098.22L1367.48 6081.39L1365.84 6083.57L1387.24 6100.4Z" fill="#CED1D2"/>
<path d="M5668.78 7837.69L5667.69 7837.35L5666.8 7839.87L5667.9 7840.28L5669.6 7839.47L5668.78 7837.69Z" fill="#CED1D2"/>
<path d="M5674.51 7839.74L5668.78 7837.69L5669.6 7839.47L5667.9 7840.28L5673.62 7842.33L5674.51 7839.74Z" fill="#CED1D2"/>
<path d="M5665.92 7849.82L5679.95 7843.15L5673.28 7829.11L5662.92 7825.43L5668.78 7837.69L5674.5 7839.74L5673.62 7842.33L5667.89 7840.28L5655.56 7846.14L5665.92 7849.82Z" fill="#CED1D2"/>
<path d="M5700.66 7850.44L5693.99 7836.4L5683.63 7832.79L5690.31 7846.82L5676.27 7853.5L5686.63 7857.18L5700.66 7850.44Z" fill="#CED1D2"/>
<path d="M5347.01 7720.9L5346.06 7723.46L5358.84 7728.19L5359.79 7725.63L5347.01 7720.9Z" fill="#CED1D2"/>
<path d="M5309.36 7706.91L5308.41 7709.47L5333.96 7718.95L5334.91 7716.4L5309.36 7706.91Z" fill="#CED1D2"/>
<path d="M5283.8 7697.45L5282.85 7700.01L5295.63 7704.75L5296.57 7702.19L5283.8 7697.45Z" fill="#CED1D2"/>
<path d="M5373.32 7730.17L5372.38 7732.73L5397.94 7742.18L5398.88 7739.62L5373.32 7730.17Z" fill="#CED1D2"/>
<path d="M5525.7 7789.25L5526.66 7786.73L5501.04 7777.4L5500.09 7779.92L5525.7 7789.25Z" fill="#CED1D2"/>
<path d="M5474.54 7770.58L5477.2 7771.61L5487.35 7775.29L5488.23 7772.7L5478.08 7769.02L5475.49 7768.06L5474.54 7770.58Z" fill="#CED1D2"/>
<path d="M5410.56 7747.15L5411.79 7747.56L5423.37 7751.85L5424.33 7749.26L5412.74 7745.04L5411.52 7744.56L5410.56 7747.15Z" fill="#CED1D2"/>
<path d="M5437.32 7754.15L5436.38 7756.71L5461.96 7766.13L5462.9 7763.57L5437.32 7754.15Z" fill="#CED1D2"/>
<path d="M5653.93 7835.31L5654.88 7832.79L5629.2 7823.66L5628.31 7826.18L5653.93 7835.31Z" fill="#CED1D2"/>
<path d="M1038.33 5890.82L1039.42 5888.3L1014.35 5877.47L1013.33 5879.99L1038.33 5890.82Z" fill="#CED1D2"/>
<path d="M4886.49 7553.79L4887.45 7551.2L4861.76 7542L4860.88 7544.59L4886.49 7553.79Z" fill="#CED1D2"/>
<path d="M1100.26 5919.1L1101.42 5916.58L1076.75 5904.93L1075.66 5907.38L1100.26 5919.1Z" fill="#CED1D2"/>
<path d="M1112.59 5924.96L1120.77 5928.84L1124.72 5930.89L1125.95 5928.5L1122 5926.39L1113.68 5922.44L1112.59 5924.96Z" fill="#CED1D2"/>
<path d="M975.376 5864.93L976.33 5862.35L950.985 5852.47L950.031 5854.99L975.376 5864.93Z" fill="#CED1D2"/>
<path d="M1000.79 5874.88L1001.74 5872.29L989.003 5867.32L988.117 5869.91L1000.79 5874.88Z" fill="#CED1D2"/>
<path d="M885.852 5832.43L891.438 5834.21L911.537 5841.36L912.423 5838.77L892.324 5831.62L886.601 5829.85L885.852 5832.43Z" fill="#CED1D2"/>
<path d="M820.922 5812L833.867 5815.74L846.948 5819.97L847.698 5817.31L834.616 5813.15L821.603 5809.34L820.922 5812Z" fill="#CED1D2"/>
<path d="M1136.85 5937.22L1160.97 5949.89L1162.2 5947.44L1138.01 5934.77L1136.85 5937.22Z" fill="#CED1D2"/>
<path d="M872.836 5828.28L873.653 5825.69L860.708 5821.47L859.891 5824.12L872.836 5828.28Z" fill="#CED1D2"/>
<path d="M190.766 5709.39L199.282 5709.73L204.324 5710L204.46 5707.28L199.35 5707L190.834 5706.66L190.766 5709.39Z" fill="#CED1D2"/>
<path d="M1333.62 6058.5L1335.12 6056.25L1312.91 6040.51L1311.41 6042.76L1333.62 6058.5Z" fill="#CED1D2"/>
<path d="M1355.15 6075.12L1356.78 6072.94L1346.02 6064.56L1344.38 6066.74L1355.15 6075.12Z" fill="#CED1D2"/>
<path d="M1173.03 5956.23L1176.71 5958.14L1184.82 5962.84L1186.18 5960.46L1178 5955.75L1174.26 5953.78L1173.03 5956.23Z" fill="#CED1D2"/>
<path d="M1300.3 6034.85L1301.8 6032.61L1290.69 6024.77L1289.12 6027.02L1300.3 6034.85Z" fill="#CED1D2"/>
<path d="M1220.25 5983.35L1221.54 5980.96L1197.97 5967.27L1196.67 5969.65L1220.25 5983.35Z" fill="#CED1D2"/>
<path d="M1277.88 6019.53L1279.24 6017.21L1256.35 6002.49L1254.92 6004.81L1277.88 6019.53Z" fill="#CED1D2"/>
<path d="M1243.41 5997.45L1244.84 5995.13L1233.39 5987.78L1231.96 5990.16L1243.41 5997.45Z" fill="#CED1D2"/>
<path d="M937.223 5850.42L938.109 5847.83L925.232 5843.34L924.414 5845.92L937.223 5850.42Z" fill="#CED1D2"/>
<path d="M542.531 5747.2L542.94 5744.55L529.518 5742.3L529.109 5744.95L542.531 5747.2Z" fill="#CED1D2"/>
<path d="M448.376 5732.62L448.717 5729.9L421.669 5726.35L421.328 5729.08L448.376 5732.62Z" fill="#CED1D2"/>
<path d="M488.781 5738.48L503.43 5740.66L515.693 5742.71L516.102 5740.05L503.838 5737.94L489.19 5735.82L488.781 5738.48Z" fill="#CED1D2"/>
<path d="M807.839 5808.18L808.52 5805.59L795.439 5801.78L794.758 5804.36L807.839 5808.18Z" fill="#CED1D2"/>
<path d="M353.742 5721.24L358.239 5721.72L380.791 5724.24L381.063 5721.52L358.511 5719L353.947 5718.59L353.742 5721.24Z" fill="#CED1D2"/>
<path d="M394.352 5725.74L404.503 5726.9L407.842 5727.38L408.182 5724.65L404.844 5724.24L394.624 5723.08L394.352 5725.74Z" fill="#CED1D2"/>
<path d="M217.953 5710.75L234.577 5711.64L245.138 5712.32L245.274 5709.59L234.782 5708.91L218.089 5708.03L217.953 5710.75Z" fill="#CED1D2"/>
<path d="M272.322 5714.09L272.458 5711.36L258.9 5710.48L258.695 5713.2L272.322 5714.09Z" fill="#CED1D2"/>
<path d="M313.067 5717.36L313.272 5714.7L286.087 5712.46L285.883 5715.18L313.067 5717.36Z" fill="#CED1D2"/>
<path d="M340.181 5719.95L340.385 5717.29L326.827 5715.93L326.555 5718.65L340.181 5719.95Z" fill="#CED1D2"/>
<path d="M475.287 5736.51L475.696 5733.78L462.206 5731.8L461.797 5734.53L475.287 5736.51Z" fill="#CED1D2"/>
<path d="M715.792 5783.31L716.406 5780.65L689.902 5774.39L689.289 5777.11L715.792 5783.31Z" fill="#CED1D2"/>
<path d="M662.789 5770.84L664.015 5771.12L676.007 5773.98L676.62 5771.32L664.561 5768.46L663.334 5768.19L662.789 5770.84Z" fill="#CED1D2"/>
<path d="M582.729 5754.56L583.206 5751.83L556.43 5746.79L555.953 5749.45L582.729 5754.56Z" fill="#CED1D2"/>
<path d="M755.375 5793.6L776.564 5799.12L781.606 5800.62L782.355 5797.96L777.313 5796.53L755.988 5790.94L755.375 5793.6Z" fill="#CED1D2"/>
<path d="M596.086 5757.08L609.099 5759.53L609.508 5759.6L609.985 5756.94L609.644 5756.88L596.631 5754.36L596.086 5757.08Z" fill="#CED1D2"/>
<path d="M742.165 5790.13L742.846 5787.47L729.629 5784.06L729.016 5786.65L742.165 5790.13Z" fill="#CED1D2"/>
<path d="M649.505 5768.05L649.982 5765.39L623.342 5759.74L622.797 5762.4L649.505 5768.05Z" fill="#CED1D2"/>
<path d="M8491.01 7619.13L8469.82 7621.85C8047 7676.22 7609.79 7732.5 7181.04 7795.73C6911.58 7835.45 6730.01 7931.24 6625.9 8088.49C6543.39 8213.1 6510.55 8376.96 6525.41 8589.53C6539.24 8787.11 6592.59 9004.11 6641.5 9191.89L6793.3 9812.7L6793.78 9814.75H6804.82L6651.18 9189.36C6540.8 8765.38 6456.39 8362.52 6634.21 8094.01C6736.68 7939.28 6916.01 7844.92 7182.47 7805.67C7611.84 7742.38 8049.04 7686.1 8471.94 7631.73L8496.06 7628.67C8925.22 7573.48 9369.03 7516.38 9809.98 7450.5L9812.3 7450.16V7440.01L9809.16 7440.49C9366.99 7506.44 8921.68 7563.74 8491.01 7619.13Z" fill="#D2D2D2"/>
<path d="M7423.93 7575.18L7450.77 7570.41L7450.3 7567.76L7423.45 7572.46L7423.93 7575.18Z" fill="#CED1D2"/>
<path d="M7502.56 7561.49L7517.95 7558.97L7517.48 7556.24L7502.15 7558.83L7502.56 7561.49Z" fill="#CED1D2"/>
<path d="M7490.56 7560.81L7491.04 7563.46L7502.55 7561.49L7502.14 7558.83L7490.56 7560.81Z" fill="#CED1D2"/>
<path d="M7396.61 7577.29L7397.15 7579.95L7405.26 7578.45L7410.51 7577.57L7410.03 7574.84L7404.78 7575.8L7396.61 7577.29Z" fill="#CED1D2"/>
<path d="M7530.9 7553.99L7531.38 7556.72L7532.47 7556.51L7544.8 7554.47L7544.32 7551.81L7531.99 7553.79L7530.9 7553.99Z" fill="#CED1D2"/>
<path d="M7330.11 7592.28L7343.53 7589.76L7343.05 7587.11L7329.63 7589.56L7330.11 7592.28Z" fill="#CED1D2"/>
<path d="M7262.73 7602.37L7263.27 7605.09L7264.91 7604.75L7276.63 7602.5L7276.08 7599.78L7264.36 7602.03L7262.73 7602.37Z" fill="#CED1D2"/>
<path d="M7223.15 7613.06L7249.92 7607.75L7249.38 7605.02L7222.6 7610.34L7223.15 7613.06Z" fill="#CED1D2"/>
<path d="M7289.51 7597.26L7289.98 7599.91L7310.97 7595.83L7316.76 7594.8L7316.22 7592.08L7310.42 7593.17L7289.51 7597.26Z" fill="#CED1D2"/>
<path d="M7356.41 7584.58L7356.96 7587.24L7357.78 7587.1L7383.74 7582.4L7383.26 7579.68L7357.23 7584.45L7356.41 7584.58Z" fill="#CED1D2"/>
<path d="M7742.72 7524.22L7746.81 7523.67L7746.4 7520.95L7742.31 7521.56L7732.91 7522.93L7733.32 7525.58L7742.72 7524.22Z" fill="#CED1D2"/>
<path d="M7557.81 7549.56L7558.22 7552.29L7562.38 7551.61L7585.13 7548L7584.72 7545.27L7561.9 7548.88L7557.81 7549.56Z" fill="#CED1D2"/>
<path d="M7803.08 7515.77L7814.26 7514.2L7813.85 7511.55L7802.68 7513.05L7800.36 7513.39L7800.77 7516.11L7803.08 7515.77Z" fill="#CED1D2"/>
<path d="M7833.27 7511.61L7854.73 7508.68L7854.39 7506.03L7832.93 7508.89L7827.41 7509.71L7827.75 7512.36L7833.27 7511.61Z" fill="#CED1D2"/>
<path d="M7196.5 7618.51L7209.79 7615.72L7209.24 7613.06L7195.89 7615.79L7196.5 7618.51Z" fill="#CED1D2"/>
<path d="M7772.9 7520L7787.28 7517.95L7786.87 7515.29L7772.5 7517.27L7759.89 7519.04L7760.3 7521.77L7772.9 7520Z" fill="#CED1D2"/>
<path d="M7598.62 7545.82L7612.04 7543.71L7611.63 7541.05L7598.14 7543.16L7598.62 7545.82Z" fill="#CED1D2"/>
<path d="M7625.12 7538.94L7625.53 7541.66L7652.38 7537.5H7652.45L7652.04 7534.85H7651.97L7625.12 7538.94Z" fill="#CED1D2"/>
<path d="M7665.93 7535.53L7679.42 7533.49L7679.01 7530.76L7665.52 7532.8L7665.93 7535.53Z" fill="#CED1D2"/>
<path d="M7712.2 7525.92L7692.44 7528.78L7692.85 7531.51L7712.54 7528.58L7719.83 7527.56L7719.42 7524.83L7712.2 7525.92Z" fill="#CED1D2"/>
<path d="M7464.2 7568.1L7477.62 7565.78L7477.14 7563.12L7463.72 7565.44L7464.2 7568.1Z" fill="#CED1D2"/>
<path d="M7155.9 7624.17L7156.44 7626.83L7175.04 7622.87L7183.15 7621.24L7182.54 7618.58L7174.43 7620.22L7155.9 7624.17Z" fill="#CED1D2"/>
<path d="M6694.44 7744.01L6695.32 7746.6L6696.96 7746.06L6721.21 7738.36L6720.4 7735.77L6696.14 7743.47L6694.44 7744.01Z" fill="#CED1D2"/>
<path d="M6759.51 7723.71L6760.26 7726.37L6769.39 7723.57L6786.42 7718.6L6785.6 7715.94L6768.64 7720.92L6759.51 7723.71Z" fill="#CED1D2"/>
<path d="M6798.68 7712.13L6799.5 7714.72L6806.72 7712.61L6812.58 7710.97L6811.76 7708.38L6805.97 7710.02L6798.68 7712.13Z" fill="#CED1D2"/>
<path d="M6824.91 7704.63L6825.66 7707.29L6844.74 7701.91L6851.89 7699.93L6851.15 7697.34L6843.99 7699.25L6824.91 7704.63Z" fill="#CED1D2"/>
<path d="M6669.43 7755.19L6682.38 7750.89L6681.49 7748.3L6668.55 7752.6L6669.43 7755.19Z" fill="#CED1D2"/>
<path d="M6566.76 7791.71L6592.31 7782.17L6591.35 7779.58L6565.8 7789.12L6566.76 7791.71Z" fill="#CED1D2"/>
<path d="M6541.41 7801.52L6554.08 7796.54L6553.06 7794.02L6540.39 7798.99L6541.41 7801.52Z" fill="#CED1D2"/>
<path d="M6630.74 7768.4L6656.49 7759.48L6655.61 7756.96L6629.85 7765.81L6630.74 7768.4Z" fill="#CED1D2"/>
<path d="M6605.12 7777.53L6617.93 7772.9L6616.97 7770.38L6604.16 7774.95L6605.12 7777.53Z" fill="#CED1D2"/>
<path d="M6734.23 7734.27L6747.25 7730.32L6746.43 7727.73L6733.41 7731.68L6734.23 7734.27Z" fill="#CED1D2"/>
<path d="M7089.88 7641.2L7116.52 7635.41L7115.91 7632.75L7089.34 7638.54L7089.88 7641.2Z" fill="#CED1D2"/>
<path d="M7063.31 7647.2L7076.59 7644.2L7075.98 7641.54L7062.7 7644.61L7063.31 7647.2Z" fill="#CED1D2"/>
<path d="M7129.26 7629.82L7129.8 7632.48L7131.17 7632.21L7143.16 7629.62L7142.54 7626.96L7130.62 7629.48L7129.26 7629.82Z" fill="#CED1D2"/>
<path d="M7022.91 7653.81L7023.52 7656.46L7045.66 7651.22L7050.02 7650.26L7049.41 7647.61L7045.05 7648.56L7022.91 7653.81Z" fill="#CED1D2"/>
<path d="M6891.35 7689.3L6917.71 7682.42L6917.03 7679.83L6890.66 7686.71L6891.35 7689.3Z" fill="#CED1D2"/>
<path d="M6930.92 7679.08L6944.07 7675.75L6943.46 7673.09L6930.24 7676.43L6930.92 7679.08Z" fill="#CED1D2"/>
<path d="M6865.05 7696.39L6878.2 7692.85L6877.45 7690.19L6864.3 7693.8L6865.05 7696.39Z" fill="#CED1D2"/>
<path d="M6996.34 7660.07L6997.02 7662.73L7004.03 7661.03L7010.24 7659.53L7009.62 7656.87L7003.42 7658.37L6996.34 7660.07Z" fill="#CED1D2"/>
<path d="M6956.61 7669.75L6957.29 7672.41L6963.08 7670.98L6983.79 7665.93L6983.11 7663.28L6962.47 7668.32L6956.61 7669.75Z" fill="#CED1D2"/>
<path d="M8625.02 7404.61L8611.52 7406.49L8611.9 7409.19L8625.4 7407.31L8625.02 7404.61Z" fill="#CED1D2"/>
<path d="M9029.18 7348.39L9015.68 7350.24L9016.05 7352.94L9029.55 7351.1L9029.18 7348.39Z" fill="#CED1D2"/>
<path d="M8962.08 7360.43L8961.67 7357.77L8951.93 7359.07L8948.18 7359.61L8948.59 7362.34L8952.27 7361.79L8962.08 7360.43Z" fill="#CED1D2"/>
<path d="M8867.06 7370.34L8840.07 7374.08L8840.44 7376.78L8867.44 7373.04L8867.06 7370.34Z" fill="#CED1D2"/>
<path d="M8800.12 7382.85L8799.71 7380.12L8792.63 7381.14L8772.73 7383.94L8773.14 7386.59L8792.97 7383.87L8800.12 7382.85Z" fill="#CED1D2"/>
<path d="M8826.7 7376.69L8813.2 7378.56L8813.58 7381.26L8827.07 7379.39L8826.7 7376.69Z" fill="#CED1D2"/>
<path d="M8759.59 7388.5L8759.25 7385.78L8752.5 7386.73L8745.76 7387.68L8746.1 7390.34L8752.91 7389.39L8759.59 7388.5Z" fill="#CED1D2"/>
<path d="M9002.55 7354.91L9002.21 7352.19L8991.51 7353.68L8975.16 7355.93L8975.57 7358.59L8991.92 7356.34L9002.55 7354.91Z" fill="#CED1D2"/>
<path d="M8894.45 7366.96L8880.95 7368.82L8881.33 7371.52L8894.82 7369.66L8894.45 7366.96Z" fill="#CED1D2"/>
<path d="M8935.02 7364.18L8934.68 7361.45L8912.2 7364.59L8907.7 7365.2L8908.04 7367.86L8912.54 7367.24L8935.02 7364.18Z" fill="#CED1D2"/>
<path d="M8732.61 7392.25L8732.27 7389.52L8712.38 7392.32L8705.29 7393.27L8705.63 7396L8712.72 7395.04L8732.61 7392.25Z" fill="#CED1D2"/>
<path d="M6264.8 7921.22L6255.33 7926.68L6251.24 7941.66L6266.3 7945.75L6275.77 7940.23L6260.78 7936.21L6264.8 7921.22Z" fill="#CED1D2"/>
<path d="M9136.89 7333.56L9109.88 7337.18L9110.24 7339.88L9137.25 7336.26L9136.89 7333.56Z" fill="#CED1D2"/>
<path d="M9096.07 7339.57L9082.56 7341.39L9082.93 7344.09L9096.43 7342.27L9096.07 7339.57Z" fill="#CED1D2"/>
<path d="M9164.67 7330.05L9151.16 7331.84L9151.52 7334.54L9165.03 7332.75L9164.67 7330.05Z" fill="#CED1D2"/>
<path d="M9069.15 7343.3L9042.14 7346.96L9042.51 7349.66L9069.51 7346L9069.15 7343.3Z" fill="#CED1D2"/>
<path d="M9272.62 7318.8L9272.28 7316.14L9267.79 7316.69L9245.23 7319.62L9245.58 7322.34L9268.13 7319.41L9272.62 7318.8Z" fill="#CED1D2"/>
<path d="M9232.09 7324.12L9231.75 7321.39L9228.34 7321.87L9218.26 7323.16L9218.6 7325.89L9228.68 7324.53L9232.09 7324.12Z" fill="#CED1D2"/>
<path d="M9205.11 7327.66L9204.7 7325L9188.96 7327.05L9177.72 7328.54L9178.06 7331.27L9189.3 7329.77L9205.11 7327.66Z" fill="#CED1D2"/>
<path d="M9298.72 7312.8L9285.2 7314.55L9285.55 7317.25L9299.07 7315.51L9298.72 7312.8Z" fill="#CED1D2"/>
<path d="M9705.4 7266.34L9705.13 7263.61L9703.77 7263.75L9691.57 7265.11L9691.84 7267.84L9704.04 7266.48L9705.4 7266.34Z" fill="#CED1D2"/>
<path d="M9744.17 7262.05L9738.1 7262.73L9729.59 7273.29L9740.49 7272.13L9750.23 7260L9738.1 7250.26L9727.2 7251.49L9737.83 7260L9743.9 7259.32L9744.17 7262.05Z" fill="#CED1D2"/>
<path d="M9637.19 7271.31L9623.66 7272.86L9623.97 7275.57L9637.5 7274.02L9637.19 7271.31Z" fill="#CED1D2"/>
<path d="M9678.35 7269.34L9678.01 7266.61L9663.77 7268.25L9650.96 7269.75L9651.23 7272.4L9664.04 7270.97L9678.35 7269.34Z" fill="#CED1D2"/>
<path d="M9738.1 7262.73L9744.16 7262.05L9743.89 7259.32L9737.83 7260L9739.33 7261.16L9738.1 7262.73Z" fill="#CED1D2"/>
<path d="M9339.87 7307.42L9312.82 7310.9L9313.16 7313.56L9340.21 7310.15L9339.87 7307.42Z" fill="#CED1D2"/>
<path d="M9784.23 7267.36L9793.9 7255.23L9781.84 7245.49L9770.88 7246.72L9783 7256.39L9773.26 7268.52L9784.23 7267.36Z" fill="#CED1D2"/>
<path d="M9718.96 7264.84L9738.1 7262.73L9739.33 7261.16L9737.83 7260L9718.62 7262.12L9718.96 7264.84Z" fill="#CED1D2"/>
<path d="M9749.07 7249.1L9761.13 7258.78L9751.45 7270.91L9762.36 7269.75L9772.1 7257.62L9759.97 7247.88L9749.07 7249.1Z" fill="#CED1D2"/>
<path d="M9610.63 7277.1L9610.36 7274.38L9584.06 7277.45L9583.24 7277.51L9583.58 7280.24L9584.33 7280.17L9610.63 7277.1Z" fill="#CED1D2"/>
<path d="M9434.78 7298.23L9434.44 7295.5L9425.51 7296.59L9420.95 7297.2L9421.29 7299.93L9425.85 7299.32L9434.78 7298.23Z" fill="#CED1D2"/>
<path d="M9407.8 7301.56L9407.46 7298.91L9386.07 7301.56L9380.41 7302.25L9380.75 7304.97L9386.41 7304.29L9407.8 7301.56Z" fill="#CED1D2"/>
<path d="M9475.39 7293.25L9475.05 7290.53L9465.1 7291.75L9448 7293.87L9448.34 7296.52L9465.44 7294.41L9475.39 7293.25Z" fill="#CED1D2"/>
<path d="M9570.1 7279.22L9556.57 7280.82L9556.89 7283.53L9570.42 7281.92L9570.1 7279.22Z" fill="#CED1D2"/>
<path d="M9502.81 7287.15L9489.28 7288.8L9489.61 7291.51L9503.14 7289.86L9502.81 7287.15Z" fill="#CED1D2"/>
<path d="M9543.35 7282.17L9516.29 7285.42L9516.61 7288.13L9543.67 7284.87L9543.35 7282.17Z" fill="#CED1D2"/>
<path d="M9367.46 7303.77L9353.95 7305.48L9354.29 7308.18L9367.81 7306.47L9367.46 7303.77Z" fill="#CED1D2"/>
<path d="M7881.36 7502.42L7867.88 7504.19L7868.22 7506.91L7881.77 7505.08L7881.36 7502.42Z" fill="#CED1D2"/>
<path d="M6439.9 7841.24L6440.99 7843.76L6465.92 7832.65L6464.77 7830.2L6439.9 7841.24Z" fill="#CED1D2"/>
<path d="M7922.08 7496.85L7895.06 7500.42L7895.42 7503.12L7922.44 7499.55L7922.08 7496.85Z" fill="#CED1D2"/>
<path d="M6477.3 7824.82L6478.39 7827.34L6490.93 7821.96L6489.84 7819.5L6477.3 7824.82Z" fill="#CED1D2"/>
<path d="M6528.68 7806.49L6527.72 7803.97L6527.38 7804.04L6502.45 7814.26L6503.47 7816.78L6528.4 7806.63L6528.68 7806.49Z" fill="#CED1D2"/>
<path d="M8016.82 7487.5L8016.47 7484.77L8014.57 7484.98L8002.98 7486.47L8003.33 7489.2L8014.98 7487.7L8016.82 7487.5Z" fill="#CED1D2"/>
<path d="M7989.83 7490.97L7989.49 7488.25L7984.32 7488.93L7962.45 7491.72L7962.79 7494.45L7984.66 7491.58L7989.83 7490.97Z" fill="#CED1D2"/>
<path d="M7949.07 7493.92L7935.56 7495.69L7935.92 7498.39L7949.43 7496.62L7949.07 7493.92Z" fill="#CED1D2"/>
<path d="M6283.88 7910.25L6274.34 7915.7L6270.32 7930.76L6285.31 7934.78L6294.85 7929.26L6279.86 7925.24L6283.88 7910.25Z" fill="#CED1D2"/>
<path d="M6295.46 7917.82L6300.84 7914.82L6298.86 7914.28L6299.34 7912.5L6294.09 7915.43L6295.46 7917.82Z" fill="#CED1D2"/>
<path d="M6300.84 7914.82L6307.38 7911.14L6306.02 7908.82L6299.34 7912.5L6298.87 7914.27L6300.84 7914.82Z" fill="#CED1D2"/>
<path d="M8057.35 7482.32L8057.01 7479.59L8044.88 7481.16L8030.03 7483.07L8030.37 7485.72L8045.22 7483.82L8057.35 7482.32Z" fill="#CED1D2"/>
<path d="M6295.46 7917.82L6294.1 7915.43L6299.34 7912.5L6302.95 7899.29L6293.42 7904.74L6289.33 7919.79L6304.39 7923.81L6313.86 7918.36L6300.84 7914.82L6295.46 7917.82Z" fill="#CED1D2"/>
<path d="M6378.3 7870.47L6379.46 7872.92L6403.99 7860.93L6402.76 7858.54L6378.3 7870.47Z" fill="#CED1D2"/>
<path d="M6320.8 7900.44L6317.88 7902.15L6319.24 7904.46L6322.1 7902.83L6343.22 7891.59L6341.86 7889.2L6320.8 7900.44Z" fill="#CED1D2"/>
<path d="M6415.1 7852.68L6416.26 7855.14L6428.66 7849.41L6427.43 7846.96L6415.1 7852.68Z" fill="#CED1D2"/>
<path d="M6353.98 7882.87L6355.21 7885.25L6367.34 7879.05L6366.11 7876.67L6353.98 7882.87Z" fill="#CED1D2"/>
<path d="M8530.19 7420.39L8529.85 7417.73L8509.34 7420.59L8502.87 7421.48L8503.21 7424.13L8509.68 7423.25L8530.19 7420.39Z" fill="#CED1D2"/>
<path d="M8462.73 7429.72L8462.39 7427.06L8438.14 7430.4L8435.34 7430.74L8435.75 7433.47L8438.48 7433.06L8462.73 7429.72Z" fill="#CED1D2"/>
<path d="M8395.22 7438.92L8394.88 7436.19L8377.84 7438.51L8367.83 7439.8L8368.24 7442.46L8378.18 7441.17L8395.22 7438.92Z" fill="#CED1D2"/>
<path d="M8421.86 7432.58L8408.37 7434.42L8408.71 7437.08L8422.2 7435.31L8421.86 7432.58Z" fill="#CED1D2"/>
<path d="M8084.4 7478.84L8084.06 7476.19L8075.2 7477.28L8070.57 7477.89L8070.91 7480.55L8075.54 7480L8084.4 7478.84Z" fill="#CED1D2"/>
<path d="M8489.81 7423.49L8476.31 7425.36L8476.69 7428.06L8490.18 7426.19L8489.81 7423.49Z" fill="#CED1D2"/>
<path d="M8557.24 7416.64L8556.83 7413.98L8550.22 7414.87L8543.34 7415.82L8543.68 7418.55L8550.63 7417.59L8557.24 7416.64Z" fill="#CED1D2"/>
<path d="M8691.55 7394.85L8678.05 7396.73L8678.43 7399.43L8691.93 7397.54L8691.55 7394.85Z" fill="#CED1D2"/>
<path d="M8664.62 7398.52L8637.63 7402.29L8638.01 7404.98L8665 7401.22L8664.62 7398.52Z" fill="#CED1D2"/>
<path d="M8597.71 7411.05L8597.3 7408.33L8590.96 7409.21L8570.32 7412.07L8570.73 7414.8L8591.37 7411.94L8597.71 7411.05Z" fill="#CED1D2"/>
<path d="M8151.75 7467.76L8138.23 7469.47L8138.58 7472.17L8152.1 7470.46L8151.75 7467.76Z" fill="#CED1D2"/>
<path d="M8219.49 7458.58L8205.97 7460.3L8206.31 7463L8219.83 7461.28L8219.49 7458.58Z" fill="#CED1D2"/>
<path d="M8192.52 7465.15L8192.18 7462.42L8166.16 7465.76L8165.2 7465.9L8165.54 7468.56L8166.5 7468.49L8192.52 7465.15Z" fill="#CED1D2"/>
<path d="M8354.68 7444.3L8354.34 7441.58L8347.66 7442.46L8340.85 7443.35L8341.19 7446.07L8348.01 7445.19L8354.68 7444.3Z" fill="#CED1D2"/>
<path d="M8124.94 7473.73L8124.6 7471.01L8105.52 7473.46L8097.62 7474.42L8097.96 7477.14L8105.86 7476.12L8124.94 7473.73Z" fill="#CED1D2"/>
<path d="M8286.19 7450.26L8272.68 7452L8273.03 7454.7L8286.54 7452.97L8286.19 7450.26Z" fill="#CED1D2"/>
<path d="M8327.7 7447.84L8327.36 7445.12L8317.48 7446.41L8300.31 7448.59L8300.65 7451.32L8317.82 7449.14L8327.7 7447.84Z" fill="#CED1D2"/>
<path d="M8260.12 7456.57L8259.77 7453.84L8256.98 7454.18L8232.73 7457.31L8233.07 7459.97L8257.32 7456.91L8260.12 7456.57Z" fill="#CED1D2"/>
<path d="M8034.12 7292.98L7871.15 3.06585L7871.08 0.340576L7861.13 0.544972L8024.24 7298.77L8024.38 7304.36L9809.84 7069.57L9812.23 7069.23V7059.15L8034.12 7292.98Z" fill="#D2D2D2"/>
<path d="M7711.92 7251.28H7718.4L7718.46 7248.63C7722.28 7034.21 7717.51 6603.55 7703.48 5893.21L7703.41 5890.55H7696.59C7708.52 6494.41 7715.53 7003.42 7711.92 7251.28Z" fill="#D2D2D2"/>
<path d="M7693.46 5893.35C7707.49 6603.83 7712.26 7034.42 7708.45 7248.56L7708.38 7251.35H7711.92C7715.53 7003.49 7708.52 6494.47 7696.59 5890.62H7693.39L7693.46 5893.35Z" fill="#D2D2D2"/>
<path d="M7678.13 7290.53H7650.8V7320.91H7678.13V7290.53Z" fill="#DAD9D8"/>
<path d="M7645.36 7324.93H7683.58V7285.35H7645.36V7324.93ZM7650.26 7290.19H7678.34V7319.35H7678.13V7319.48H7650.81V7319.35H7650.26V7290.19Z" fill="#D2D2D2"/>
<path d="M7650.81 7290.8H7678.2V7319.35H7678.34V7290.19H7650.27V7319.35H7650.81V7290.8Z" fill="#D2D2D2"/>
<path d="M8079.63 7118.83H8038.82V7183.29H8079.63V7118.83Z" fill="#DAD9D8"/>
<path d="M8081.54 7116.86H8037.19V7185.74H8081.54V7116.86ZM8079.63 7180.9H8077.04V7181.17H8041.75V7180.9H8040.18V7118.56H8079.7V7180.9H8079.63Z" fill="#D5D4D3"/>
<path d="M8040.12 7180.9H8041.68V7121.42H8076.98V7180.9H8079.63V7118.56H8040.12V7180.9Z" fill="#D5D4D3"/>
<path d="M7675.2 7235.34C7675.33 7235.14 7675.33 7234.79 7675.2 7234.59C7675.13 7234.45 7674.99 7234.45 7674.93 7234.59C7674.86 7234.73 7674.86 7234.86 7674.79 7234.93C7674.86 7235.07 7674.86 7235.2 7674.93 7235.27C7674.99 7235.41 7675.13 7235.41 7675.2 7235.34Z" fill="white"/>
<path d="M2016.91 5428.75C2227.09 5576.67 2465.28 5744.34 2670.7 5938.38C2736.18 6000.24 2794.02 6064.42 2849.96 6126.56C2983.56 6274.88 3109.74 6414.96 3318.57 6502.51C3539.11 6594.97 3781.59 6617.32 4016.17 6638.91C4281.82 6663.37 4556.52 6688.65 4808.14 6814.42C4931.73 6876.22 5093.2 6896.66 5249.43 6916.42C5368.79 6931.54 5492.25 6947.14 5597.72 6981.07C5857.98 7064.94 5982.39 7332.97 6078.59 7577.7L6080.02 7581.38L6083.91 7580.84C6086.16 7580.5 6094.54 7579.47 6108.3 7577.77L6115.79 7576.82C6691.51 7506.57 7243.58 7426.52 7712.33 7345.37L7716.28 7344.69L7716.42 7340.67C7717.03 7325.28 7717.58 7298.5 7717.98 7277.04L7718.19 7266.41H7711.58C7711.1 7294.14 7710.49 7318.33 7709.74 7338.56C7241.54 7419.57 6690.28 7499.49 6115.32 7569.66C6099.78 7571.57 6089.49 7572.8 6085.07 7573.41C6037.51 7452.54 5982.94 7325.75 5906.63 7216.54C5819.49 7091.79 5719.26 7012.55 5600.31 6974.19C5494.16 6939.99 5370.36 6924.39 5250.65 6909.19C5095.11 6889.5 4934.25 6869.2 4811.75 6807.95C4558.91 6681.56 4283.52 6656.22 4017.19 6631.69C3783.23 6610.16 3541.36 6587.88 3321.77 6495.84C3114.44 6408.9 2988.81 6269.43 2855.75 6121.72C2799.74 6059.52 2741.76 5995.2 2676.08 5933.13C2470.32 5738.75 2231.86 5570.95 2021.47 5422.89C1813.53 5276.55 1634 5150.23 1547.89 5040.61C1463.54 4933.3 1495.36 4632.97 1537.6 4353.36C1545.5 4301.24 1552.11 4250.41 1558.58 4201.29C1609.75 3811.44 1646.75 3529.78 2161.62 3496.26C2240.52 3491.15 2324.86 3487.47 2406.42 3483.93C2601 3475.48 2802.13 3466.76 2972.46 3437.26C3275.24 3384.86 3503.55 3212.15 3615.28 2950.8C3706.65 2737.13 3719.39 2480.28 3708.42 2202.64C4300.69 2178.66 4939.15 2155.83 5556.97 2151.47C5786.1 2149.84 5949.41 2151.4 6028.52 2155.83V2148.68C5950.23 2144.04 5792.37 2142.55 5556.5 2144.18C4933.02 2148.61 4299.46 2171.43 3707.74 2195.42L3700.45 2195.69L3700.72 2202.91C3710.19 2442.19 3706.58 2717.78 3608.2 2947.93C3497.48 3206.9 3271.08 3378.12 2970.82 3430.1C2800.97 3459.47 2600.05 3468.19 2405.19 3476.71C2323.77 3480.25 2239.63 3483.93 2160.8 3489.04C1920.84 3504.64 1768.02 3575.43 1679.72 3711.69C1598.78 3836.58 1576.64 4005.21 1551.02 4200.4C1544.62 4249.25 1538.01 4299.74 1530.04 4352.34C1487.59 4633.52 1455.77 4935.68 1541.75 5045.17C1628.62 5155.48 1808.56 5282.13 2016.91 5428.75Z" fill="#D2D2D2"/>
<path d="M6081.6 2162.24C6087.45 2165.71 6095.02 2173.27 6104.62 2182.81C6128.33 2206.38 6167.99 2245.77 6237.48 2279.76C6393.64 2356.14 6593.88 2378.69 6804.13 2378.69C6963.9 2378.69 7129.46 2365.68 7286.03 2353.35C7399.4 2344.42 7512.64 2335.9 7607.55 2333.45C7618.99 2736.32 7651.15 3884.82 7676.97 4988.01H7683.79L7683.72 4985.21C7658.24 3894.9 7626.69 2767.38 7614.36 2333.25L7614.16 2326.02L7606.93 2326.23C7513.12 2328.68 7401.17 2337.06 7285.08 2346.19C6923.3 2374.6 6513.28 2406.83 6240.27 2273.29C6171.8 2239.84 6132.69 2200.93 6109.33 2177.7C6098.97 2167.41 6091.54 2160.06 6084.93 2156.1C6083.09 2155.01 6079.28 2153.99 6073.83 2153.04V2160.12C6077.58 2160.74 6080.3 2161.49 6081.6 2162.24Z" fill="#D2D2D2"/>
<path d="M7708.04 7278.88C7707.7 7298.02 7707.22 7321.6 7706.68 7336.24C7239.23 7417.05 6688.79 7496.83 6114.57 7566.94L6110.69 7567.41C6099.24 7568.85 6091.07 7569.8 6086.36 7570.41C6039.01 7450.23 5984.64 7324.12 5908.4 7214.9C5820.92 7089.67 5720.29 7010.03 5600.65 6971.53C5494.23 6937.26 5370.3 6921.59 5250.45 6906.47C5095.11 6886.85 4934.53 6866.54 4812.43 6805.5C4559.12 6678.84 4283.46 6653.49 4016.93 6628.97C3783.16 6607.44 3541.5 6585.22 3322.32 6493.31C3115.54 6406.58 2990.11 6267.32 2857.05 6119.68C2801.04 6057.54 2743.13 5993.23 2677.38 5931.16C2471.49 5736.64 2233.03 5568.83 2022.5 5420.65C1814.76 5274.43 1635.37 5148.19 1549.53 5038.97C1465.86 4932.48 1497.68 4632.84 1539.78 4353.84C1547.69 4301.71 1554.3 4250.96 1560.77 4201.77C1611.8 3813.21 1648.66 3532.44 2161.28 3499.05C2239.91 3493.94 2323.85 3490.26 2405.06 3486.72L2406.15 3486.65C2600.73 3478.2 2801.93 3469.41 2972.39 3439.98C3276.13 3387.45 3505.12 3214.12 3617.26 2951.95C3716.12 2720.85 3720.07 2445.05 3710.67 2205.29C4271.6 2182.61 4869.87 2161.01 5461.46 2155.08C5462.28 2155.08 5463.03 2155.08 5463.84 2155.08V2154.95L5519.92 2154.54H5522.16V2154.6C5533.61 2154.54 5544.99 2154.4 5556.43 2154.33C5782.63 2152.7 5947.38 2154.33 6026.95 2158.62C6027.16 2158.62 6027.36 2158.62 6027.57 2158.62C6027.84 2158.62 6028.11 2158.62 6028.38 2158.69V2155.97C5949.28 2151.54 5786.04 2149.9 5556.84 2151.61C4939.02 2156.03 4300.56 2178.79 3708.29 2202.77C3719.26 2480.41 3706.52 2737.34 3615.15 2950.93C3503.41 3212.22 3275.1 3385 2972.33 3437.39C2802.06 3466.83 2600.87 3475.61 2406.29 3484.06C2324.73 3487.61 2240.45 3491.28 2161.49 3496.39C1646.61 3529.92 1609.62 3811.57 1558.45 4201.42C1551.98 4250.55 1545.37 4301.31 1537.47 4353.49C1495.23 4633.11 1463.41 4933.43 1547.76 5040.74C1633.81 5150.3 1813.4 5276.68 2021.34 5423.03C2231.73 5571.08 2470.19 5738.89 2675.95 5933.27C2741.63 5995.34 2799.61 6059.66 2855.62 6121.86C2988.68 6269.57 3114.38 6409.1 3321.64 6495.97C3541.23 6588.02 3783.1 6610.3 4017.06 6631.83C4283.39 6656.35 4558.78 6681.63 4811.62 6808.08C4934.12 6869.34 5094.98 6889.64 5250.52 6909.33C5370.23 6924.45 5494.09 6940.12 5600.18 6974.33C5719.13 7012.68 5819.36 7091.92 5906.5 7216.67C5982.8 7325.96 6037.38 7452.68 6084.93 7573.55C6089.36 7573 6099.65 7571.71 6115.18 7569.8C6690.15 7499.62 7241.41 7419.71 7709.61 7338.7C7710.36 7318.46 7710.97 7294.27 7711.45 7266.54H7708.04V7278.88Z" fill="#D2D2D2"/>
<path d="M7286.03 2353.35C7129.46 2365.68 6963.83 2378.69 6804.13 2378.69C6593.81 2378.69 6393.64 2356.14 6237.48 2279.76C6167.98 2245.76 6128.33 2206.38 6104.62 2182.81C6095.02 2173.27 6087.45 2165.78 6081.59 2162.24C6080.3 2161.49 6077.57 2160.74 6073.76 2159.99V2162.71C6076.69 2163.33 6078.73 2163.87 6079.75 2164.55C6081.25 2165.44 6082.96 2166.73 6084.8 2168.23C6085 2168.37 6085.14 2168.5 6085.27 2168.64C6089.97 2172.52 6095.56 2178.11 6102.17 2184.72C6126.02 2208.36 6165.8 2247.95 6235.78 2282.15C6374.15 2349.8 6554.63 2381.35 6803.66 2381.35C6963.49 2381.35 7127.21 2368.47 7285.76 2356C7400.63 2347.01 7511.48 2338.7 7604.41 2336.18C7616.81 2773.04 7648.29 3899.67 7673.7 4985.28L7673.77 4987.94H7676.97C7651.15 3884.75 7618.99 2736.25 7607.54 2333.38C7512.64 2335.9 7399.4 2344.42 7286.03 2353.35Z" fill="#D2D2D2"/>
<path opacity="0.4" d="M6847.87 4009.02L6849.98 4165.31L6860.41 4165.45V2639.77H6130.51V2639.57H6082.95V2232.21V2230.91V2166.94C6081.11 2165.44 6080.23 2164.82 6078.59 2164.14C6073.89 2162.17 6056.04 2159.99 6025.93 2158.35C6025.72 2158.35 6025.52 2158.35 6025.31 2158.35V2230.98V2232.27V2639.91H5518V2144.04H5461.86V2155.9C5461.05 2155.9 5460.3 2155.9 5459.48 2155.9V2435.51L5459.89 3108.52C5457.98 3109.61 5456.75 3111.18 5456.28 3113.36C5455.94 3114.86 5456.07 3116.35 5456.69 3117.79C5457.64 3119.9 5458.66 3122.01 5459.68 3124.19C5459.75 3124.33 5459.82 3124.53 5459.89 3124.67L5460.02 3324.91V3629.59H5460.23V3631.64V3634.84H5487.89V3653.03L5095.99 3652.28L4782.11 3653.1L4699.33 3639.2H4360.24V3866.76H4185.34L4183.98 3366.19L4183.84 3325.86H4259.81L4259.61 3202L4259.54 3158.8C4259.54 3158.73 4259.61 3158.66 4259.61 3158.6V3130.32C4259.54 3130.32 4259.54 3130.25 4259.47 3130.25L4258.65 2717.58H3968.41H3937.62H3935.91H3925.9H3911.86H3901.64H3898.44H3895.24L3895.51 3285.12H3937.55L3938.71 3816.96V3928.96H3941.29L3941.64 3934.14V3953.56L3940.55 4041.52H3940.68H3942.25V4080.76H3940.14V4344.23H4191V4041.38H4362.96V4315.07H4708.39V3710.87H5490.68L5490.27 3796.99L5601.74 3796.52L5601.81 4135.88L5508.53 4135.75L5446.06 4053.44L5497.56 4014.2L5476.85 3987.29L5489.18 3978.09L5445.65 3921.88L5425.41 3936.87L5397.75 3899.94L5354.69 3932.24L5324.99 3894.08V3764.36L5208.69 3765.18V3844.34H5159.49V3937.89L5187.43 3972.23L5141.03 4009.63L5178.16 4057.6L4798.19 4346.61L4753.63 4288.16L4672.49 4350.43L4716.3 4408.82L4664.04 4448.06L4749.41 4560.82L4799.42 4522.39L4820.95 4550.06L4904.41 4487.03L4883.63 4459.37L5297.46 4145.76L5423.3 4309.75H5471.67V4325.02H5451.98V4328.01V4692.45V4698.86H5601.87V4734.62L5481.62 4734.56V4799.76L5535.65 4799.49L5535.85 4871.16L5602.01 4872.18V4877.57L5515.28 4878.32L5485.03 4929.75L5459.34 4914.83L5432.91 4757.11L5362.8 4768.96L5382.35 4887.04L5343.79 4953.19L4895.48 4691.5L4895.62 4691.22L4895.14 4690.95L4912.72 4661.18L4821.9 4607.97L4804.19 4637.95L4749.61 4606.4L4678.75 4728.02L4735.64 4761.06L4698.72 4824.9L4787.29 4875.73L4824.15 4812.7L5330.57 5109.28L5305.7 5151.66L5231.85 5088.09V5247.39H5334.12V5255.56H4756.29V5246.23V5241.25V5225.72V5223.61V4950.33H4600.27H4557.21H4555.3H4430.69H4427.48H4343.34H4339.53H4306.35H3654.32L3597.91 4949.04V4805.41L4292.04 4803.92C4294.49 4803.92 4296.81 4803.37 4298.99 4802.35C4299.87 4801.94 4300.69 4801.39 4301.58 4800.78H4306.21V4796.15C4308.12 4793.42 4309.48 4790.22 4309.48 4786.81C4309.48 4784.29 4308.8 4781.09 4306.21 4777.96V4776.87H4305.19C4303.55 4775.16 4301.37 4773.53 4298.31 4772.1C4296.26 4771.14 4293.88 4770.6 4291.42 4770.6H3926.58V4748.8L3949.74 4694.9L3999.62 4693.95V4439.34H3946.34L3908.93 4342.87L3913.63 4201.08H3881.61H3874.05H3870.57H3866.28H3825.74V4274.12H3746.03V4214.98L3640.49 4212.53V4465.64L3748.28 4470.27L3752.09 4549.51L3806.33 4550.26L3802.51 4625.61H3876.5V4692.45L3916.56 4693.2L3896.06 4746.62L3896.53 4770.67H3597.98V4694.97C3612.42 4702.47 3628.84 4706.76 3646.21 4706.76C3704.6 4706.76 3752.09 4659.27 3752.09 4600.88C3752.09 4542.49 3704.6 4495 3646.21 4495C3627.61 4495 3610.51 4501 3595.39 4509.59V4501.68L3594.64 3785.96V3738.94V3714.01V3687.3V3669.25V3573.79H3592.19H3561.94H2700.68V3807.76H3538.57L3538.63 3960.85L2928.24 3961.26V4186.78H3538.57V4415.56H3466.28V4562.66H3538.57V4654.64H3530.87V4764.53H3480.38V4754.31V4743.35V4728.7V4721.75V4703.76H3417.09V4714.53H3387.86L2687.12 4428.85V3895.85H2443.96V5069.63H2349.66V5307.41H2443.96V5709.46H2687.12V5314.36H2815.48V5249.02L3315.98 5449.6L3317.07 5446.88L3358.22 5463.36L3357.2 5466.16L3399.92 5483.26L3422.06 5483.33L3425.2 5807.29V5846.54H3425.6V5910.11H3591.78H3594.98H3616.99V5928.36H3611.06V5999.02H3497.89H3465.94H3462.26H3419.34H3416.61H3336.62H3333.9H3318.77H3312.23L3311.69 5811.72H3348.96V5699.24H3231.84V5811.72H3262.56L3262.29 6046.23L3427.58 6046.16C3427.72 6046.44 3427.85 6046.78 3427.99 6047.05C3428.19 6047.46 3428.4 6047.87 3428.6 6048.28V6090.79H3479.7V6253.01H3615.01V6382.94H3699.56V6545.16H3966.84V6525.2H4023.05V6482.89H4064.61C4065.5 6484.8 4066.45 6486.71 4067.41 6488.61V6565.94H4126.07V6561.92L4140.78 6561.99V6565.94H4268.87H4274.87H4321.13V6559.54H4274.87V6431.04H4329.17H4332.44H4455.42L4455.9 6231.42V6228.69V6228.21L4455.83 6070.35V6054.48L4455.76 5980.21H4476.54V5839.52L4528.52 5839.59V5843.88L4581.05 5844.09V5651.89H4790.15V5397.41H5046.26H5183.75V5392.98V5380.52V5344.41H5331.12L5331.87 5437.75L5237.71 5493L5267.69 5544.51L4821.22 5805.73L4784.29 5742.71L4695.72 5794.35L4732.65 5857.37L4675.76 5890.42L4746.61 6012.03L4801.19 5980.49L4818.9 6010.46L4909.72 5957.25L4892.08 5927.27L5340.86 5666.06L5386.99 5744.48L5476.1 5692.22L5505.4 5743.32H5600.92V5746.52H5536.74V5815.74H5600.72V5820.78L5499.27 5820.58V5871.75H5601.19L5601.06 5921.35H5494.16V6035.13H5113.64V6128.4H5600.99V6422.53H5480.53L5482.3 6420.21L5482.64 6419.8L5556.43 6322.85L5466.02 6253.63L5293.85 6479.69L4880.77 6165.33L4901.55 6137.67L4818.08 6073.83L4796.55 6101.49L4746.55 6062.99L4661.18 6175.68L4713.23 6215.88L4669.22 6273.32L4750.77 6335.66L4795.4 6277.2L5175.37 6566.22L5136.12 6616.77L5182.93 6651.52L5155.88 6684.97V6779.88L5204.19 6779.47V6859.39H5322.26L5320.49 6728.51L5352.24 6689.4L5394.89 6723.87L5422.55 6687.7L5441.97 6703.23L5486.53 6645.59L5473.85 6636.87L5494.43 6609.21L5443.47 6571.12L5505.54 6489.36L5594.52 6489.43L5601.06 6489.57V6762.71L5612.43 6762.64V6761.21H5675.18V6762.57L5689.63 6762.5V6488.89H5785.56L5847.97 6571.12L5796.46 6609.55L5816.49 6635.51L5803.82 6644.91L5848.04 6703.02L5867.59 6688.51L5896.41 6724.15L5939.4 6690.56L5968.36 6729.19L5968.29 6773V6773.61L5968.08 6859.39H6086.56V6779.47H6134.8V6684.22L6108.44 6651.52L6154.08 6616.29L6115.25 6568.33L6495.83 6277.4L6540.66 6335.66L6621.88 6273.32L6576.23 6214.59L6630.39 6175.82L6545.03 6063.06L6494.61 6100.81L6473.76 6072.46L6390.3 6137.53L6410.26 6164.51L6271.13 6270.05L6150.47 6362.16L5997.72 6479.69L5950.44 6417.69L5950.23 6417.48L5948.53 6415.24L5904.65 6358.28L5819.22 6423.34H5761.23L5761.17 6386.14L5689.76 6386.76V6377.49H5853.49V6373.13V6270.18V6268.07H5689.7V6246.06H5933.4V6176.71H6105.37V6239.93H6296.28V6176.71V6170.44V5932.45H6088.2L6089.15 6002.08H6048.75V6002.02L6036.42 6002.08V5929.05H5895.45V5967.47H5689.15L5689.42 5868.54H5772.75V5807.57H5689.56L5689.7 5743.25H5779.43L5768.73 5762.26L5862.89 5817.45L5911.47 5733.78L5911.4 5733.71L5951.32 5665.17L6400.11 5927.14L6382.46 5957.12L6473.35 6010.33L6491.06 5980.35L6545.64 6011.89L6616.5 5890.28L6559.61 5857.23L6596.46 5794.21L6508.71 5742.57L6471.78 5805.66L6024.02 5547.71L6054.2 5497.23L5961.13 5442.31V5344.34H6398.27V5376.09L6724.28 5554.93H6842.56V5697.12H6842.63V6198.03H6761.82L6761.41 6252.88H6860.41V4900.73L6845.76 4901V5042.24L6726.26 5040.33L6711.34 5048.58L6710.31 5049.12L6669.77 5071.54L6665.62 5073.79L6665.01 5072.7L6666.91 5071.61L6572.62 4908.5L6384.37 5011.38L6363.04 5023.03L6338.52 5036.45L6326.8 5042.85L6156.33 5135.99L6153.47 5137.56L6220.99 5254.81H5958.41L5958.14 5191.52L5953.23 5178.85L5954.39 5178.1L5954.66 5178.57L5960.25 5175.44L5959.84 5174.69L6051 5117.19L6025.04 5072.49L6149.11 4995.23L6336.68 4887.1L6472.46 4808.68L6509.39 4869.8L6531.19 4858.08L6543.53 4851.47L6547 4849.63L6592.38 4822.45L6556.4 4759.7L6598.1 4735.17L6610.84 4724.68L6545.16 4611.51L6489.7 4641.62L6473.08 4611.51L6387.78 4662.54L6402.22 4690L6400.38 4691.09L6402.15 4694.15L6352.28 4724.75L6137.12 4847.93L5951.26 4956.05L5904.58 4877.09L5815.81 4928.32L5784.95 4876.27L5689.15 4875.11V4846.16H5686.43V4837.44V4816.66V4799.28V4795.33V4782.04V4758.33V4755V4750.91V4736.53V4698.58H5687.79H5689.83H5707.68H5830.87H5833.66V4373.53H5709.11V4331.56H5815.06V4273.71H5686.36V4269.08H5685.47V4264.85H5760.89V4204.56H5685.47V4195.84H5686.97V4197.2L5812.74 4195.84L5852.6 4147.19L5888.57 4176.76L5890.69 4173.9L5918.55 4196.04L5927.2 4188.34L5948.8 4202.65L5997.58 4138.67L6146.32 4252.93L6411.96 4458.01L6393.09 4483.01L6472.67 4545.42L6492.56 4520.28H6492.63L6493.86 4518.65L6545.03 4554.21L6621.88 4452.15L6622.76 4452.83L6626.65 4447.72L6574.73 4408.41L6617.18 4350.97L6567.1 4312.55L6567.3 4312.27L6562.19 4308.39L6561.99 4308.66L6542.44 4293.61L6496.92 4350.97L6494.27 4348.93L6369.18 4253.61L6114.02 4058.48L6115.32 4056.71L6114.09 4055.83L6148.57 4009.91C6148.57 4009.91 6113.61 3983.74 6110.14 3982.45C6106.66 3981.15 6104.14 3973.18 6104.14 3973.18L6132.15 3933.67V3847.34L6083.64 3844.14V3768.38L5972.17 3770.08V3895.58L5940.49 3936.87L5937.7 3934.76L5898.38 3905.53L5898.32 3905.6L5896.41 3904.23L5885.03 3920.79L5880.06 3926.51C5879.1 3926.58 5878.22 3926.78 5877.33 3927.19C5875.22 3928.28 5873.86 3929.99 5873.31 3932.3C5873.18 3932.98 5873.11 3933.67 5873.18 3934.35L5869.22 3938.91L5852.4 3928.83L5848.58 3926.44L5809.95 3977.13L5821.19 3987.63L5800.75 4012.97L5850.08 4050.85L5853.15 4053.17L5785.35 4139.22L5687.58 4138.74V4141.06H5685.4V3899.53H5689.83V3712.85H5645.48H5642.69H5604.94V3717.41H5546.42V3655.41H5544.64V3597.98V3502.94H5555.34V3625.78H5620.41V3626.87H5623.95V3630.61H6392.82V3632.39H6396.36V3810.48H6461.15V3812.8H6629.71V3581.76V3578.56V3575.36H6619.15V3511.45H6622.01V3505.05H6619.15V3302.76H6621.88V3268.83L6847.87 3269.38L6846.78 3314.62L6847.87 3670.2L6847.8 3835.76H6846.78V3842.16H6847.8L6847.74 3984.63L6847.87 4009.02ZM3530.94 5434.34L3403.32 5431.89L3256.3 5372.88L2815.55 5195.95V5155L2682.83 5152.68V5033.04L2683.99 4486.56L2687.19 4486.28L3376.21 4769.03L3417.29 4769.3V4786.06V4796.76V4816.38V4826.74V4835.32V4855.42H3531.07V5434.34H3530.94ZM3538.63 3967.19V3967.6L3479.02 3967.25L3538.63 3967.19ZM3541.43 4664.24H3537.34V4660.97H3541.43V4664.24ZM3542.25 4095.68H2934.65V4095.62H3542.25V4095.68ZM3587.35 4996.86L3587.28 5001.97L3587.21 4996.86H3587.35ZM4507.88 5786.65L4413.93 5786.58L4414.13 5832.91H4390.9H4387.35V5999.56V6082.27V6088.68V6098.56V6098.69L4387.29 6154.84L4319.15 6155.45L4274.12 6178.75L4006.7 6178.68V6289.87V6369.04L3999.62 6369.18L3995.26 6369.25L3991.3 6369.31L3966.98 6369.25L3966.91 6333.41H3802.99V6286.26H3702.97L3703.11 6324.28L3681.71 6324.55L3668.09 6317.19V6253.15H3698.81V6229.03C3699.83 6226.78 3700.86 6224.47 3701.88 6222.22C3703.17 6219.42 3702.63 6216.22 3700.52 6213.97C3700.04 6213.43 3699.43 6213.02 3698.81 6212.68V6210.16H3708.01V6207.16L3708.62 5928.71H3708.01V5928.64H3640.36V5910.31H3684.16V5732.49H3594.98V5652.02H4232.69L4529.07 5651.34L4529.14 5763.35L4507.88 5786.65ZM4675.96 4999.18H4679.23L4680.73 5000.75C4679.23 5000.2 4677.6 4999.66 4675.96 4999.18ZM4698.51 5589.41H4697.56L4698.51 5588.45V5589.41ZM4704.3 5583.34H4703.76L4704.3 5582.8V5583.34ZM5551.53 5679.21L5500.7 5589.75L5547.91 5562.9L5524.89 5522.98L5547.16 5510.72L5511.74 5448.31L5498.72 5455.19L5482.51 5425.89L5426.09 5458.46L5396.05 5405.59L5394.62 5344.34H5537.63L5599.22 5405.93L5601.4 5679.27H5551.53V5679.21ZM5540.62 5255.63L5396.87 5254.74L5395.57 5213.12L5425.62 5160.31L5473.17 5187.16L5495.45 5147.16L5517.73 5159.43L5553.23 5096.95L5540.21 5090.07L5557.04 5060.98L5500.7 5028.55L5550.09 4941.81H5601.06L5601.81 5193.83L5540.62 5255.63ZM5726.08 6002.97H5772.61L5726.08 6003.11V6002.97ZM5931.02 5336.84C5931.02 5336.77 5931.09 5336.77 5931.09 5336.71H6400.38V5337.87H5959.5H5954.66H5930.54C5930.68 5337.59 5930.88 5337.18 5931.02 5336.84ZM5926.59 5336.71C5926.8 5337.12 5926.93 5337.52 5927.14 5337.87H5905.67H5754.69L5755.85 5336.71H5926.59ZM5689.7 4933.84H5742.29L5793.8 5026.09L5735.21 5059.34L5751.36 5088.57L5738.27 5096.27L5773.7 5158.75L5795.98 5145.66L5819.01 5186.41L5867.73 5158.47L5900.22 5216.59L5899.88 5254.88H5743.32L5689.7 5196.9V4933.84ZM5689.7 5408.52L5752.45 5344.27L5900.22 5344.34L5900.29 5403.82L5867.18 5460.98L5866.91 5460.84L5868 5459L5811.93 5426.64L5794.76 5457.3L5780.04 5449.33L5745.22 5509.83L5767.5 5522.91L5744.41 5562.9L5792.24 5590.36L5740.73 5679.21H5689.63V5408.52H5689.7ZM5544.51 3424.58L5544.44 3345.01H5544.51V3424.58ZM6313.58 3299.63H5550.91V3280.35H5894.16V3072.55H5550.91V2972.94H6313.51V3299.63H6313.58Z" fill="#DBDBDB"/>
<path opacity="0.4" d="M5518.08 2018.95L5461.94 2019.36V2019.91H5518.08V2018.95Z" fill="#DBDBDB"/>
<path d="M6028.59 2148.61L6073.69 2152.9L6079.08 2157.53L6073.69 2162.78L6028.59 2158.49L6017.96 2155.29L6028.59 2148.61Z" fill="#D2D2D2"/>
<path d="M6997.77 6492.36H6870.84V6823.07H6997.77V6492.36Z" fill="white"/>
<path d="M6965.2 6825.32V6819.33H6959.13V6988.43H7000.9V6982.37H6965.2V6847.4V6825.32Z" fill="#D5D5D5"/>
<path d="M7002.39 6489.43H6864.84V6825.46H6964.1V6819.33H6870.83V6495.5L7000.9 6495.43V6819.26H6991.08V6825.46H7002.39V6489.43Z" fill="#D5D5D5"/>
</g>
<defs>
<clipPath id="clip0_1469_138090">
<rect width="9811" height="9811" fill="white"/>
</clipPath>
</defs>
</svg>
