<?xml version="1.0" encoding="utf-8"?>
<!-- Generator: Adobe Illustrator 24.0.1, SVG Export Plug-In . SVG Version: 6.00 Build 0)  -->
<svg version="1.1" id="Layer_1" xmlns="http://www.w3.org/2000/svg" xmlns:xlink="http://www.w3.org/1999/xlink" x="0px" y="0px"
	 viewBox="0 0 360 360" style="enable-background:new 0 0 360 360;" xml:space="preserve">
<style type="text/css">
	.st0{fill:#86D2DB;}
	.st1{fill:#FAC214;}
	.st2{fill:#34419A;}
	.st3{fill:#FFFFFF;}
	.st4{fill:#569ED6;}
	.st5{fill:#BC3C96;}
	.st6{fill:#34BCAD;}
	.st7{fill:#3471B8;}
	.st8{fill:none;stroke:#181818;stroke-miterlimit:10;}
	.st9{fill:#058E80;}
	.st10{fill:#66A042;}
	.st11{fill:#F9F9F9;}
	.st12{fill:#AFB736;}
	.st13{fill:#EF574F;}
	.st14{fill:#BE98C5;}
	.st15{fill:#FAA21B;}
	.st16{fill:#007B69;}
	.st17{fill:#533B97;}
	.st18{fill:#FECF07;}
	.st19{fill:#214184;}
	.st20{fill:#CD6BAA;}
	.st21{fill:#C51E59;}
	.st22{fill:#9C4E9E;}
	.st23{fill:#1B9CD8;}
	.st24{fill:#1F3C72;}
	.st25{fill:#4D4E8C;}
	.st26{fill:#026D60;}
	.st27{fill:#DA312A;}
	.st28{fill:#F36F42;}
	.st29{fill:#898989;}
</style>
<path class="st27" d="M94.82,45.22c-28.87,30.63-38.65,65.76-32.2,104.2c1.95,11.6,6.03,21.03,11.37,29.67
	c6.26,9.59,12.71,19.02,19.47,28.16c43.77,53.45,58.7,59.51,86.32,146.36c0.18,0.57,0.3,0.52,0.47-0.02
	c27.62-86.83,42.55-92.89,86.31-146.34c6.76-9.14,13.2-18.56,19.47-28.16c5.34-8.64,9.42-18.07,11.37-29.67
	c6.45-38.44-3.33-73.56-32.2-104.2C219.59-3.17,140.41-3.17,94.82,45.22"/>
<path class="st3" d="M179.91,207.22c-30.62-0.12-56.59-23.32-60.28-53.54c-1.48-12.1,1.82-22.86,8.35-32.64
	c6.37-9.54,13.5-18.57,20.23-27.87c5.96-8.23,11.99-16.41,17.67-24.83c3.64-5.4,6.12-11.42,7.61-17.82c0.75-3.2,3.28-5.18,6.3-5.21
	c2.98-0.03,5.67,1.85,6.35,4.9c2.13,9.66,6.82,18.11,12.58,25.94c7.91,10.76,16.32,21.15,24.23,31.9c4.26,5.8,8.18,11.89,11.82,18.1
	c6.61,11.27,7.44,23.4,3.8,35.74c-7.24,24.52-23.6,39.27-48.61,44.42c-1.12,0.23-2.26,0.35-3.4,0.45
	C184.35,206.94,182.13,207.07,179.91,207.22z M174.17,140.67c-3.94,0-7.66-0.01-11.38,0c-2.46,0.01-4.28,1.13-5.37,3.32
	c-1.89,3.8,0.91,8.16,5.31,8.22c3.77,0.06,7.54,0.01,11.44,0.01c0,4.06-0.06,7.9,0.02,11.74c0.06,2.98,2.46,5.39,5.36,5.58
	c2.84,0.19,5.47-1.79,6.04-4.63c0.16-0.82,0.12-1.68,0.13-2.52c0.01-3.35,0.01-6.7,0.01-10.17c3.94,0,7.66,0.01,11.38,0
	c2.62-0.01,4.51-1.26,5.52-3.64c1.6-3.77-1.22-7.84-5.46-7.9c-3.77-0.05-7.54-0.01-11.44-0.01c0-3.82,0.01-7.42,0-11.02
	c-0.02-3.68-2.41-6.3-5.75-6.31c-3.34-0.02-5.78,2.61-5.8,6.26C174.16,133.2,174.17,136.8,174.17,140.67z"/>
</svg>
