<?xml version="1.0" encoding="utf-8"?>
<!-- Generator: Adobe Illustrator 24.0.1, SVG Export Plug-In . SVG Version: 6.00 Build 0)  -->
<svg version="1.1" id="Layer_1" xmlns="http://www.w3.org/2000/svg" xmlns:xlink="http://www.w3.org/1999/xlink" x="0px" y="0px"
	 viewBox="0 0 360 360" style="enable-background:new 0 0 360 360;" xml:space="preserve">
<style type="text/css">
	.st0{fill:#86D2DB;}
	.st1{fill:#FAC214;}
	.st2{fill:#34419A;}
	.st3{fill:#FFFFFF;}
	.st4{fill:#569ED6;}
	.st5{fill:#BC3C96;}
	.st6{fill:#34BCAD;}
	.st7{fill:#3471B8;}
	.st8{fill:none;stroke:#181818;stroke-miterlimit:10;}
	.st9{fill:#058E80;}
	.st10{fill:#66A042;}
	.st11{fill:#F9F9F9;}
	.st12{fill:#AFB736;}
	.st13{fill:#EF574F;}
	.st14{fill:#BE98C5;}
	.st15{fill:#FAA21B;}
	.st16{fill:#007B69;}
	.st17{fill:#533B97;}
	.st18{fill:#FECF07;}
	.st19{fill:#214184;}
	.st20{fill:#CD6BAA;}
	.st21{fill:#C51E59;}
	.st22{fill:#9C4E9E;}
	.st23{fill:#1B9CD8;}
	.st24{fill:#1F3C72;}
	.st25{fill:#4D4E8C;}
	.st26{fill:#026D60;}
	.st27{fill:#DA312A;}
	.st28{fill:#F36F42;}
	.st29{fill:#898989;}
</style>
<path class="st15" d="M94.88,45.22c-28.87,30.63-38.65,65.76-32.2,104.2c1.95,11.6,6.03,21.03,11.37,29.67
	c6.26,9.59,12.71,19.02,19.47,28.16c43.77,53.45,58.7,59.51,86.32,146.36c0.18,0.57,0.3,0.52,0.47-0.02
	c27.62-86.83,42.55-92.89,86.31-146.34c6.76-9.14,13.2-18.56,19.47-28.16c5.34-8.64,9.42-18.07,11.37-29.67
	c6.45-38.44-3.33-73.56-32.2-104.2C219.65-3.17,140.48-3.17,94.88,45.22"/>
<g>
	<path class="st3" d="M179.97,45.22c44.61-0.05,80.8,36.17,80.86,80.92c0.06,44.78-36.22,81.15-80.88,81.08
		c-44.66-0.06-80.79-36.3-80.77-81.02C99.19,81.45,135.3,45.26,179.97,45.22z M249.54,126.18c-0.05-38.52-31.04-69.59-69.49-69.65
		c-38.42-0.07-69.63,31.2-69.59,69.73c0.04,38.5,31.05,69.59,69.49,69.66C218.36,195.98,249.58,164.69,249.54,126.18z"/>
	<path class="st3" d="M202.57,151.85c0-4,0.03-8.01-0.04-12.01c-0.01-0.56-0.39-1.42-0.83-1.61c-8.6-3.77-13.24-10.72-15.2-19.54
		c-2.17-9.77-0.6-18.99,5.52-27.11c3.56-4.72,8.2-7.88,14.24-8.57c5.74-0.65,10.7,1.26,14.85,5.08c7.72,7.11,10.32,16.2,9.46,26.4
		c-0.61,7.19-3.19,13.66-8.48,18.7c-2,1.91-4.53,3.3-6.94,4.71c-0.94,0.55-1.34,0.99-1.33,2.09c0.05,7.89,0.04,15.78,0.02,23.67
		c-0.01,2.73-1.59,4.92-3.98,5.63c-2.4,0.72-5.02-0.13-6.29-2.31c-0.59-1.01-0.93-2.31-0.96-3.49
		C202.49,159.62,202.57,155.73,202.57,151.85z M219.5,111.28c-0.07-4.51-1.03-8.75-3.68-12.48c-4.36-6.13-10.83-6.12-15.23-0.02
		c-4.94,6.86-4.88,18.09,0.14,24.91c4.29,5.83,10.66,5.84,14.93,0.01C218.37,120.01,219.38,115.78,219.5,111.28z"/>
	<path class="st3" d="M145.79,139.13c-2.88-1.86-6.04-3.41-8.59-5.66c-5.25-4.61-7.78-10.74-7.92-17.68
		c-0.18-9.01-0.07-18.02-0.04-27.03c0.01-3.42,2.51-5.96,5.7-5.91c3.13,0.05,5.55,2.55,5.56,5.87c0.03,8.66,0.01,17.31,0.01,25.97
		c0,3.87,1.16,7.31,3.87,10.12c4.37,4.52,11.15,4.3,15.25-0.46c2.37-2.75,3.43-5.99,3.43-9.59c0.01-8.71-0.02-17.43,0.02-26.14
		c0.01-3.11,2.13-5.4,5.13-5.73c2.7-0.3,5.35,1.63,5.98,4.41c0.15,0.68,0.15,1.4,0.15,2.1c0.01,8.01-0.17,16.02,0.05,24.02
		c0.3,10.83-5.47,21.62-16.97,25.3c0,1.53,0,3.11,0,4.69c0,6.59,0.01,13.19,0,19.78c-0.01,3.75-2.29,6.34-5.61,6.37
		c-3.28,0.03-5.67-2.6-5.67-6.3c-0.01-7.54,0-15.07,0-22.61c0-0.64,0-1.29,0-1.93C146.03,138.86,145.91,138.99,145.79,139.13z"/>
	<path class="st3" d="M157.43,101.68c0,4.24,0.01,8.47,0,12.71c-0.01,3.6-2.35,6.15-5.61,6.16c-3.26,0.02-5.66-2.54-5.67-6.1
		c-0.02-8.47-0.01-16.94,0-25.42c0.01-3.6,2.34-6.15,5.6-6.18c3.24-0.03,5.65,2.56,5.67,6.12
		C157.45,93.21,157.43,97.45,157.43,101.68z"/>
</g>
</svg>
