<?xml version="1.0" encoding="utf-8"?>
<!-- Generator: Adobe Illustrator 24.0.1, SVG Export Plug-In . SVG Version: 6.00 Build 0)  -->
<svg version="1.1" id="Layer_1" xmlns="http://www.w3.org/2000/svg" xmlns:xlink="http://www.w3.org/1999/xlink" x="0px" y="0px"
	 viewBox="0 0 360 360" style="enable-background:new 0 0 360 360;" xml:space="preserve">
<style type="text/css">
	.st0{fill:#86D2DB;}
	.st1{fill:#FAC214;}
	.st2{fill:#34419A;}
	.st3{fill:#FFFFFF;}
	.st4{fill:#569ED6;}
	.st5{fill:#BC3C96;}
	.st6{fill:#34BCAD;}
	.st7{fill:#3471B8;}
	.st8{fill:none;stroke:#181818;stroke-miterlimit:10;}
	.st9{fill:#058E80;}
	.st10{fill:#66A042;}
	.st11{fill:#F9F9F9;}
	.st12{fill:#AFB736;}
	.st13{fill:#EF574F;}
	.st14{fill:#BE98C5;}
	.st15{fill:#FAA21B;}
	.st16{fill:#007B69;}
	.st17{fill:#533B97;}
	.st18{fill:#FECF07;}
	.st19{fill:#214184;}
	.st20{fill:#CD6BAA;}
	.st21{fill:#C51E59;}
	.st22{fill:#9C4E9E;}
	.st23{fill:#1B9CD8;}
	.st24{fill:#1F3C72;}
	.st25{fill:#4D4E8C;}
	.st26{fill:#026D60;}
	.st27{fill:#DA312A;}
	.st28{fill:#F36F42;}
	.st29{fill:#898989;}
</style>
<path class="st1" d="M94.82,45.22c-28.87,30.63-38.65,65.76-32.2,104.2c1.95,11.6,6.03,21.03,11.37,29.67
	c6.26,9.59,12.71,19.02,19.47,28.16c43.77,53.45,58.7,59.51,86.32,146.36c0.18,0.57,0.3,0.52,0.47-0.02
	c27.62-86.83,42.55-92.89,86.31-146.34c6.76-9.14,13.2-18.56,19.47-28.16c5.34-8.64,9.42-18.07,11.37-29.67
	c6.45-38.44-3.33-73.56-32.2-104.2C219.59-3.17,140.41-3.17,94.82,45.22"/>
<g>
	<path class="st3" d="M107.9,93.49c0.72-1.07,1.28-2.31,2.2-3.17c2.32-2.15,8.67-2.13,10.91,0.09c0.95,0.94,1.69,2.28,2.05,3.57
		c2.49,8.95,4.87,17.94,7.22,26.93c0.3,1.15,0.72,1.57,1.96,1.55c5.4-0.08,10.79-0.04,16.19-0.03c5.23,0.01,8.34,2.42,9.66,7.46
		c0.15,0.59,0.33,1.18,0.48,1.77c1.18,4.66-0.82,7.7-5.75,8.51c0.66,2.67,1.31,5.34,1.98,8c1.24,4.96,2.49,9.93,3.71,14.89
		c0.39,1.6-0.06,2.85-1.24,3.59c-1.16,0.72-2.39,0.73-3.39-0.18c-0.58-0.53-1.02-1.36-1.21-2.13c-1.91-7.46-3.8-14.92-5.57-22.41
		c-0.36-1.55-0.98-1.93-2.5-1.92c-7.46,0.09-14.92,0.04-22.55,0.04c-0.58,2.55-1.16,5.09-1.73,7.64
		c-1.22,5.45-2.42,10.91-3.64,16.36c-0.5,2.26-1.87,3.39-3.63,3.04c-1.87-0.37-2.75-2.02-2.24-4.3c1.71-7.7,3.41-15.4,5.15-23.09
		c0.22-0.99,0.17-1.69-0.66-2.45c-2.27-2.05-2.51-4.92-2.88-7.73c-1.41-10.85-2.85-21.71-4.28-32.56c-0.03-0.22-0.15-0.44-0.23-0.66
		C107.9,95.37,107.9,94.43,107.9,93.49z M113.94,94.97c0.1,0.87,0.18,1.66,0.28,2.45c1.45,10.94,2.93,21.88,4.36,32.83
		c0.39,3,1.23,3.81,4.27,3.81c9.48,0,18.96,0,28.43,0c0.5,0,1,0,1.64,0c-0.24-1-0.41-1.81-0.63-2.62c-0.62-2.37-1.42-2.98-3.88-2.98
		c-6.43,0-12.86,0-19.28,0c-2.32,0-3.21-0.69-3.81-2.92c-1.4-5.21-2.8-10.42-4.19-15.64c-1.33-4.98-2.66-9.96-3.99-14.92
		C116.03,94.97,115.02,94.97,113.94,94.97z"/>
	<path class="st3" d="M176.98,64.76c-1.09,0-2.01,0.03-2.94-0.01c-1.81-0.08-3.07-1.35-3.04-3.02c0.03-1.61,1.28-2.92,2.99-2.94
		c3.99-0.05,7.98-0.05,11.97,0c1.78,0.02,3.07,1.37,3.04,3.03c-0.02,1.62-1.25,2.85-2.99,2.93c-0.93,0.04-1.86,0.01-2.85,0.01
		c-0.06,0.45-0.12,0.76-0.13,1.08c-0.05,2.02-0.04,2.02,1.97,2.41c13.42,2.56,22.64,12.19,24.81,25.92
		c0.03,0.19,0.06,0.37,0.11,0.73c3.02,0,6.05-0.03,9.09,0.01c2.94,0.03,5.48,1.86,5.82,4.72c0.34,2.82,0.34,5.74,0.01,8.56
		c-0.35,2.96-2.93,4.76-6.08,4.76c-9.34,0.01-18.68,0.01-28.02,0.01c-0.51,0-1.02,0-1.67,0c-0.02,0.51-0.06,0.96-0.06,1.41
		c0,11.62,0.01,23.23-0.02,34.85c0,0.89,0.21,1.46,1.01,1.95c1.72,1.05,3.35,2.24,5.05,3.33c2.85,1.83,3.56,4.86,2.68,8.36
		c-0.7,2.8-3.09,4.28-6.49,4.28c-7.56,0-15.11,0-22.67,0c-3.18,0-5.55-1.5-6.28-4.2c-0.85-3.17-0.34-6.41,2.37-8.22
		c1.83-1.23,3.69-2.41,5.48-3.71c0.41-0.3,0.81-0.94,0.82-1.42c0.04-11.99,0.03-23.98,0.03-35.97c0-0.18-0.04-0.35-0.08-0.66
		c-0.55,0-1.05,0-1.56,0c-10.23,0-20.46,0-30.69,0c-4.3,0-6.71-2.42-6.73-6.72c-0.01-1.69-0.03-3.39,0.01-5.08
		c0.08-3.77,2.59-6.24,6.34-6.26c3.8-0.02,7.6-0.01,11.4-0.02c0.09,0,0.18-0.04,0.35-0.07c0.31-1.46,0.52-2.99,0.95-4.46
		c3.65-12.42,11.89-19.78,24.54-22.17c1.2-0.23,1.64-0.56,1.48-1.73C176.92,65.95,176.98,65.44,176.98,64.76z M156.29,94.8
		c15.87,0,31.65,0,47.43,0c-0.89-9.74-9.63-21-23.79-20.96C165.94,73.89,157.18,85.01,156.29,94.8z M138.05,106.85
		c27.07,0,53.98,0,80.93,0c0-2.01,0-3.91,0-5.88c-27.01,0-53.93,0-80.93,0C138.05,102.96,138.05,104.86,138.05,106.85z
		 M192.37,161.07c-0.46-0.79-0.64-1.47-1.09-1.8c-1.54-1.14-3.14-2.23-4.79-3.22c-2.51-1.5-3.52-3.64-3.5-6.57
		c0.07-11.61,0.03-23.22,0.03-34.83c0-0.54,0-1.08,0-1.6c-2.13,0-4.03,0-6.06,0c0,0.65,0,1.2,0,1.75c0,11.66-0.03,23.31,0.02,34.97
		c0.01,2.63-0.93,4.63-3.15,6.04c-1.74,1.11-3.47,2.24-5.13,3.46c-0.44,0.32-0.61,1.01-1.06,1.79
		C176.06,161.07,183.96,161.07,192.37,161.07z"/>
	<path class="st3" d="M237.68,140.05c-0.52,0-0.98,0-1.44,0c-7.23,0-14.45,0.04-21.68-0.03c-1.2-0.01-1.58,0.38-1.84,1.48
		c-1.85,7.66-3.77,15.31-5.67,22.96c-0.4,1.62-1.34,2.54-2.71,2.66c-1.36,0.12-2.47-0.45-2.93-1.71c-0.28-0.78-0.29-1.77-0.09-2.59
		c1.54-6.44,3.16-12.85,4.75-19.27c0.27-1.09,0.53-2.18,0.81-3.35c-0.46-0.12-0.86-0.23-1.25-0.34c-3.23-0.87-5.11-3.83-4.44-7.12
		c0.29-1.42,0.66-2.84,1.12-4.22c1.22-3.72,4.56-6.05,8.73-6.08c5.58-0.03,11.17-0.04,16.75,0.02c1.12,0.01,1.61-0.26,1.91-1.42
		c2.34-8.99,4.78-17.96,7.18-26.93c0.99-3.69,2.95-5.19,6.79-5.2c0.84,0,1.69-0.02,2.53,0.01c3.67,0.13,6.3,3.11,5.85,6.79
		c-0.62,5.13-1.34,10.25-2.02,15.37c-0.9,6.8-1.83,13.59-2.7,20.39c-0.31,2.42-1.13,4.57-3.01,6.17c-0.69,0.58-0.8,1.13-0.61,1.94
		c1.73,7.69,3.45,15.39,5.12,23.09c0.18,0.84,0.23,1.81-0.02,2.61c-0.41,1.28-1.5,1.88-2.86,1.85c-1.38-0.04-2.47-1-2.82-2.53
		c-0.78-3.43-1.52-6.87-2.28-10.31C239.8,149.57,238.75,144.86,237.68,140.05z M207.05,134.05c0.62,0,0.99,0,1.36,0
		c9.66,0,19.33,0,28.99,0c2.71,0,3.65-0.92,4-3.64c1.16-8.94,2.37-17.88,3.55-26.82c0.38-2.86,0.74-5.73,1.11-8.65
		c-1.16,0-2.13,0-3.18,0c-0.13,0.46-0.27,0.89-0.39,1.34c-2.58,9.65-5.16,19.31-7.75,28.96c-0.7,2.63-1.47,3.21-4.14,3.21
		c-6.47,0-12.95,0-19.42,0c-1.68,0-2.75,0.64-3.2,2.01C207.62,131.57,207.39,132.71,207.05,134.05z"/>
</g>
</svg>
