<?xml version="1.0" encoding="utf-8"?>
<!-- Generator: Adobe Illustrator 24.0.1, SVG Export Plug-In . SVG Version: 6.00 Build 0)  -->
<svg version="1.1" id="Layer_1" xmlns="http://www.w3.org/2000/svg" xmlns:xlink="http://www.w3.org/1999/xlink" x="0px" y="0px"
	 viewBox="0 0 360 360" style="enable-background:new 0 0 360 360;" xml:space="preserve">
<style type="text/css">
	.st0{fill:#86D2DB;}
	.st1{fill:#FAC214;}
	.st2{fill:#34419A;}
	.st3{fill:#FFFFFF;}
	.st4{fill:#569ED6;}
	.st5{fill:#BC3C96;}
	.st6{fill:#34BCAD;}
	.st7{fill:#3471B8;}
	.st8{fill:none;stroke:#181818;stroke-miterlimit:10;}
	.st9{fill:#058E80;}
	.st10{fill:#66A042;}
	.st11{fill:#F9F9F9;}
	.st12{fill:#AFB736;}
	.st13{fill:#EF574F;}
	.st14{fill:#BE98C5;}
	.st15{fill:#FAA21B;}
	.st16{fill:#007B69;}
	.st17{fill:#533B97;}
	.st18{fill:#FECF07;}
	.st19{fill:#214184;}
	.st20{fill:#CD6BAA;}
	.st21{fill:#C51E59;}
	.st22{fill:#9C4E9E;}
	.st23{fill:#1B9CD8;}
	.st24{fill:#1F3C72;}
	.st25{fill:#4D4E8C;}
	.st26{fill:#026D60;}
	.st27{fill:#DA312A;}
	.st28{fill:#F36F42;}
	.st29{fill:#898989;}
</style>
<path class="st10" d="M94.82,45.22c-28.87,30.63-38.65,65.76-32.2,104.2c1.95,11.6,6.03,21.03,11.37,29.67
	c6.26,9.59,12.71,19.02,19.47,28.16c43.77,53.45,58.7,59.51,86.32,146.36c0.18,0.57,0.3,0.52,0.47-0.02
	c27.62-86.83,42.55-92.89,86.31-146.34c6.76-9.14,13.2-18.56,19.47-28.16c5.34-8.64,9.42-18.07,11.37-29.67
	c6.45-38.44-3.33-73.56-32.2-104.2C219.59-3.17,140.41-3.17,94.82,45.22"/>
<path class="st11" d="M243.08,177.33c-0.69,0-1.37,0-2.06,0c-1.73-0.78-2.54-2.21-3.11-3.97c-2.62-8.08-5.24-16.15-8.06-24.16
	c-0.78-2.22-1.97-4.41-3.42-6.26c-3.38-4.34-8.3-5.71-13.62-6.42c0,2.58,0.05,5.02-0.02,7.46c-0.03,0.95,0.32,1.29,1.19,1.6
	c6.54,2.35,10.44,6.99,11.08,13.93c0.39,4.26,0.09,8.58,0.21,12.88c0.06,2.38-0.76,4.08-3.04,4.94c-1.97,0-3.95,0-5.92,0
	c-0.33-0.18-0.68-0.34-1-0.54c-1.32-0.81-1.97-2-1.89-3.55c0.08-1.5,0.83-2.6,2.17-3.25c0.56-0.27,1.21-0.36,1.87-0.54
	c0-3.07,0.2-6.17-0.05-9.23c-0.37-4.49-3.94-7.65-8.32-7.72c-4.43-0.06-8.14,3.05-8.56,7.58c-0.29,3.1-0.05,6.25-0.05,9.37
	c2.93,0.66,4.24,2.1,4.02,4.42c-0.17,1.81-1.38,2.75-2.86,3.46c-1.97,0-3.95,0-5.92,0c-2.29-0.85-3.13-2.54-3.07-4.93
	c0.09-3.56,0.02-7.13,0.03-10.7c0.01-7.89,4.03-13.58,11.48-16.21c0.67-0.23,0.96-0.5,0.95-1.24c-0.04-2.88-0.04-5.76,0-8.64
	c0.01-0.76-0.29-1.02-1-1.17c-2.93-0.62-5.86-1.28-8.78-1.97c-0.8-0.19-1.21,0.05-1.63,0.76c-3.3,5.58-6.64,11.13-9.97,16.69
	c-2.09,3.48-5.34,3.48-7.43,0c-3.34-5.56-6.68-11.11-9.98-16.68c-0.41-0.7-0.81-0.95-1.62-0.75c-2.87,0.69-5.75,1.37-8.65,1.94
	c-0.95,0.19-1.13,0.6-1.12,1.46c0.03,5.46,0.04,10.92-0.01,16.37c-0.01,0.98,0.25,1.47,1.19,1.92c4.6,2.22,7.09,5.98,7.05,11.07
	c-0.04,5.2-2.65,8.95-7.4,11.11c-0.96,0.44-2.01,0.66-3.03,0.98c-1.12,0-2.23,0-3.35,0c-0.15-0.07-0.29-0.18-0.45-0.21
	c-5.34-1.14-9.27-5.22-9.86-10.22c-0.67-5.72,1.99-10.48,7.3-12.89c0.77-0.35,0.84-0.81,0.84-1.49c-0.01-4.94-0.01-9.88-0.01-14.83
	c0-0.37-0.04-0.74-0.08-1.26c-1.36,0.31-2.6,0.6-3.85,0.87c-6.66,1.43-11.01,5.44-13.16,11.88c-2.69,8.06-5.39,16.11-8.01,24.19
	c-0.57,1.76-1.38,3.19-3.11,3.97c-0.69,0-1.37,0-2.06,0c-1.29-0.6-2.21-1.57-2.83-2.84c0-0.69,0-1.38,0-2.06
	c0.17-0.38,0.38-0.75,0.51-1.14c2.74-8.21,5.45-16.44,8.22-24.64c3.14-9.29,9.58-14.89,19.1-17.01c6.9-1.53,13.78-3.09,20.69-4.58
	c0.91-0.2,1.17-0.54,1.14-1.44c-0.06-2.36-0.09-4.73,0.01-7.09c0.04-1.13-0.34-1.72-1.29-2.34c-9.28-6.1-14.54-14.69-15.16-25.81
	C147,82.2,147.22,76,147.27,69.82c0.03-3.77,1.28-7.17,3.55-10.15c4.97-6.53,11.39-10.97,19.33-13.07c2.14-0.56,4.34-0.87,6.52-1.29
	c2.23,0,4.46,0,6.69,0c0.24,0.07,0.47,0.19,0.72,0.22c10.01,1.05,18.15,5.56,24.52,13.32c2.61,3.18,4.14,6.83,4.17,10.98
	c0.05,6.36,0.02,12.71-0.07,19.07c-0.02,1.53-0.3,3.08-0.65,4.58c-2.07,9.07-7.08,16.07-14.95,21c-0.61,0.38-0.86,0.8-0.85,1.54
	c0.05,2.58,0.05,5.15,0,7.73c-0.01,0.8,0.23,1.1,1.02,1.27c6.61,1.43,13.19,3.01,19.82,4.36c10.5,2.13,17.3,8.23,20.55,18.48
	c2.46,7.77,5.12,15.47,7.69,23.2C246.42,174.34,245.97,175.61,243.08,177.33z M179.96,111.72c1.78-0.23,3.58-0.36,5.34-0.71
	c11.3-2.25,19.87-12.85,19.76-24.43c0-0.38-0.26-0.99-0.54-1.08c-3.27-1.1-5.57-3.48-7.83-5.9c-0.69-0.74-1.26-0.85-2.22-0.49
	c-9.53,3.55-19.11,3.57-28.66,0.09c-1.16-0.42-1.83-0.31-2.64,0.58c-2.19,2.37-4.47,4.64-7.65,5.72c-0.29,0.1-0.56,0.79-0.56,1.2
	C155.03,100.39,166.25,111.55,179.96,111.72z M204.68,76.86c0.13-0.07,0.27-0.13,0.4-0.2c0-2.13,0.02-4.27-0.01-6.4
	c-0.03-2.45-0.9-4.6-2.43-6.5c-5.12-6.33-11.74-9.93-19.84-10.59c-9.69-0.79-17.88,2.33-24.6,9.52c-3.89,4.17-3.29,9.06-3.2,14.4
	c1.91-1.94,3.55-3.61,5.21-5.26c1.88-1.88,3.13-2.09,5.54-1c9.49,4.3,18.98,4.33,28.47,0.02c2.46-1.12,3.65-0.95,5.55,0.94
	C201.44,73.45,203.05,75.17,204.68,76.86z M179.97,141c0.23-0.29,0.34-0.41,0.43-0.55c2.6-4.33,5.2-8.67,7.8-13.01
	c0.13-0.22,0.31-0.46,0.31-0.69c0.02-2.81,0.01-5.62,0.01-8.55c-5.74,1.5-11.32,1.46-17.02,0.01c0,2.89-0.01,5.63,0.01,8.37
	c0,0.24,0.13,0.5,0.25,0.71C174.46,131.81,177.17,136.32,179.97,141z M151.03,169.59c2.41,0.02,4.43-1.97,4.45-4.38
	c0.03-2.41-1.95-4.41-4.38-4.43c-2.45-0.01-4.42,1.92-4.45,4.36C146.63,167.54,148.62,169.57,151.03,169.59z"/>
</svg>
