<svg width="1346" height="2224" viewBox="0 0 1346 2224" fill="none" xmlns="http://www.w3.org/2000/svg">
<circle cx="672.5" cy="1946.5" r="277.5" fill="#29AB87"/>
<path d="M192.384 204.75C29.5094 377.554 -25.6661 575.746 10.7226 792.612C21.7239 858.055 44.7419 911.256 74.8684 960C110.185 1014.1 146.574 1067.3 184.712 1118.87C431.647 1420.42 515.877 1454.61 671.7 1944.58C672.716 1947.8 673.393 1947.52 674.352 1944.47C830.175 1454.61 914.405 1420.42 1161.28 1118.87C1199.42 1067.3 1235.75 1014.16 1271.13 960C1301.25 911.256 1324.27 858.055 1335.27 792.612C1371.66 575.746 1316.49 377.611 1153.61 204.75C896.295 -68.2501 449.588 -68.2501 192.384 204.75Z" fill="#D01C1C"/>
<path d="M283.617 926.432C283.617 909.338 283.617 893.372 283.617 876.56C333.828 876.56 383.588 876.56 434.419 876.56C434.419 872.216 434.419 868.661 434.419 865.163C434.419 685.984 434.419 506.861 434.419 327.682C434.419 307.541 440.399 299.925 459.863 294.34C544.262 270.024 628.662 245.596 713.061 221.167C728.35 216.71 743.187 227.994 743.582 245.088C743.977 261.167 743.639 277.245 743.639 294.283C799.435 294.283 854.836 294.283 911.365 294.283C911.365 489.316 911.365 683.333 911.365 878.139C962.253 878.139 1012.01 878.139 1062.28 878.139C1062.28 894.895 1062.28 910.861 1062.28 927.729C955.822 927.729 849.533 927.729 742.51 927.729C742.341 931.058 742.059 933.54 742.059 936.023C742.003 949.506 741.777 963.046 742.115 976.53C742.51 995.26 724.175 1005.58 709.281 1001.07C628.436 976.643 547.252 953.061 466.182 929.366C459.806 927.504 452.98 926.545 446.379 926.545C395.491 926.319 344.604 926.432 293.716 926.432C290.613 926.432 287.51 926.432 283.617 926.432ZM693.428 942.793C693.428 720.737 693.428 499.978 693.428 278.712C691.453 279.164 689.93 279.446 688.52 279.84C622.907 299.191 557.351 318.655 491.682 337.837C486.379 339.36 485.871 342.294 485.871 346.864C485.927 522.601 485.984 698.339 485.815 874.077C485.815 879.775 487.563 882.032 493.036 883.612C535.123 895.798 577.04 908.322 619.014 920.734C643.612 928.012 668.153 935.289 693.428 942.793ZM862.847 345.115C822.791 345.115 783.525 345.115 744.09 345.115C744.09 522.376 744.09 699.016 744.09 876.108C783.751 876.108 823.073 876.108 862.847 876.108C862.847 699.016 862.847 522.376 862.847 345.115Z" fill="white"/>
<path d="M613.539 632.332C617.093 622.233 619.181 612.53 623.75 604.123C628.884 594.645 637.967 595.153 644.343 603.954C654.78 618.284 654.61 646.549 644.06 660.709C637.911 668.946 628.715 669.567 623.807 660.653C619.124 652.078 616.98 642.092 613.539 632.332Z" fill="white"/>
</svg>
