<?xml version="1.0" encoding="utf-8"?>
<!-- Generator: Adobe Illustrator 24.0.1, SVG Export Plug-In . SVG Version: 6.00 Build 0)  -->
<svg version="1.1" id="Layer_1" xmlns="http://www.w3.org/2000/svg" xmlns:xlink="http://www.w3.org/1999/xlink" x="0px" y="0px"
	 viewBox="0 0 360 360" style="enable-background:new 0 0 360 360;" xml:space="preserve">
<style type="text/css">
	.st0{fill:#86D2DB;}
	.st1{fill:#FAC214;}
	.st2{fill:#34419A;}
	.st3{fill:#FFFFFF;}
	.st4{fill:#569ED6;}
	.st5{fill:#BC3C96;}
	.st6{fill:#34BCAD;}
	.st7{fill:#3471B8;}
	.st8{fill:none;stroke:#181818;stroke-miterlimit:10;}
	.st9{fill:#058E80;}
	.st10{fill:#66A042;}
	.st11{fill:#F9F9F9;}
	.st12{fill:#AFB736;}
	.st13{fill:#EF574F;}
	.st14{fill:#BE98C5;}
	.st15{fill:#FAA21B;}
	.st16{fill:#007B69;}
	.st17{fill:#533B97;}
	.st18{fill:#FECF07;}
	.st19{fill:#214184;}
	.st20{fill:#CD6BAA;}
	.st21{fill:#C51E59;}
	.st22{fill:#9C4E9E;}
	.st23{fill:#1B9CD8;}
	.st24{fill:#1F3C72;}
	.st25{fill:#4D4E8C;}
	.st26{fill:#026D60;}
	.st27{fill:#DA312A;}
	.st28{fill:#F36F42;}
	.st29{fill:#898989;}
</style>
<path class="st0" d="M94.82,45.22c-28.87,30.63-38.65,65.76-32.2,104.2c1.95,11.6,6.03,21.03,11.37,29.67
	c6.26,9.59,12.71,19.02,19.47,28.16c43.77,53.45,58.7,59.51,86.32,146.36c0.18,0.57,0.3,0.52,0.47-0.02
	c27.62-86.83,42.55-92.89,86.31-146.34c6.76-9.14,13.2-18.56,19.47-28.16c5.34-8.64,9.42-18.07,11.37-29.67
	c6.45-38.44-3.33-73.56-32.2-104.2C219.59-3.17,140.41-3.17,94.82,45.22"/>
<g>
	<path class="st3" d="M176.85,104.02c4.26,0,8.33,0,12.52,0c0.08-1.57,0.1-3.12,0.23-4.66c0.77-8.84,8.36-15.77,17.4-15.93
		c8.91-0.15,16.77,6.71,17.75,15.54c0.12,1.1,0.19,2.21,0.19,3.31c0.01,11.26-0.03,22.51,0.03,33.77c0.03,4.73-1.24,8.9-4.53,12.38
		c-0.08,0.09-0.11,0.22-0.24,0.48c1.75,0,3.39,0.07,5.02-0.02c1.03-0.06,1.66-0.75,1.77-1.8c0.06-0.55,0.04-1.11,0.04-1.66
		c0-20.57,0-41.15,0-61.72c0-3.56,1.47-6.27,4.35-6.9c2.08-0.46,4.41-0.42,6.51,0.01c2.51,0.51,4.14,3.07,4.27,5.68
		c0.02,0.46,0.02,0.92,0.02,1.38c0,23.76-0.07,47.51,0.06,71.27c0.03,5.02-3.37,7.8-7.58,7.61c-3.81-0.17-7.64-0.03-11.46-0.02
		c-0.09,0-0.18,0.04-0.48,0.1c0.24,0.46,0.44,0.89,0.67,1.3c3.52,6.11,7.04,12.21,10.55,18.32c1.23,2.13,0.99,3.02-1.12,4.25
		c-1.07,0.62-2.15,1.24-3.23,1.86c-2.15,1.23-3.04,1.01-4.26-1.1c-4.44-7.7-8.87-15.41-13.31-23.11c-0.23-0.39-0.47-0.77-0.81-1.32
		c-0.33,0.53-0.6,0.93-0.85,1.35c-4.42,7.66-8.83,15.32-13.25,22.99c-1.28,2.23-2.12,2.45-4.33,1.18c-1.04-0.6-2.08-1.19-3.11-1.79
		c-2.23-1.3-2.47-2.13-1.2-4.34c3.49-6.07,6.99-12.13,10.49-18.2c0.25-0.43,0.46-0.87,0.79-1.5c-2.43,0-4.67,0-6.91,0
		c-2.07,0-4.14,0.01-6.22,0c-1.98-0.02-2.77-0.8-2.79-2.76c-0.01-1.24,0-2.49,0-4.13c-0.32,0.59-0.5,0.86-0.62,1.15
		c-1.84,4.32-3.68,8.64-5.48,12.98c-0.26,0.62-0.38,1.33-0.39,2c-0.04,2.86,0,5.72-0.02,8.58c-0.04,4.41-2.69,7.05-7.08,7.05
		c-14.55,0.01-29.1,0.01-43.65,0c-4.35,0-7.05-2.71-7.05-7.1c-0.01-18.64-0.01-37.27,0-55.91c0-4.42,2.65-7.05,7.07-7.06
		c9.16-0.01,18.33,0,27.49,0c0.55,0,1.1,0,1.84,0c-0.15-0.49-0.25-0.86-0.37-1.22c-1.69-4.96,0.87-10.07,5.83-11.78
		c0.65-0.22,1.33-0.78,1.69-1.38c1.7-2.79,3.29-5.65,4.94-8.48c1.93-3.31,5.54-4.41,8.61-2.64c3.05,1.76,3.91,5.45,2.04,8.78
		C178.1,101.84,177.51,102.86,176.85,104.02z M155.14,183.13c-1.65-2.78-2.23-5.53-1.13-8.47c4.59-12.29,9.18-24.57,13.78-36.86
		c0.79-2.1,2.2-3.58,4.33-4.36c0.31-0.11,0.75-0.49,0.75-0.76c0.04-3,0.03-5.99-0.04-8.99c-0.02-0.8-0.47-1.31-1.42-1.34
		c-3.62-0.1-7.25-0.38-10.87-0.4c-11.32-0.05-22.65-0.03-33.97-0.01c-1.89,0-2.61,0.7-2.61,2.59c-0.01,18.68-0.01,37.35,0,56.03
		c0,1.9,0.77,2.61,2.77,2.61c9.21,0.01,18.41,0,27.62,0C154.54,183.18,154.72,183.16,155.14,183.13z M193.88,122.38
		c0,2.77,0.01,5.39,0,8c-0.02,4.63-2.57,7.2-7.16,7.22c-3.91,0.01-7.83,0-11.74,0c-2.06,0-2.53,0.31-3.26,2.27
		c-4.46,11.94-8.93,23.89-13.38,35.84c-0.99,2.65-0.15,5.05,2.25,6.55c2.28,1.43,4.95,1.19,6.76-0.88c0.98-1.12,1.75-2.49,2.34-3.86
		c3.39-7.86,6.7-15.76,10.02-23.65c1.4-3.33,3.75-5.02,7.47-4.96c7.18,0.1,14.36,0.05,21.55,0.02c6.56-0.03,11.69-4.86,11.75-11.43
		c0.13-12.17,0.13-24.35-0.01-36.53c-0.06-5.38-2.72-9.46-7.59-11.77c-4.76-2.26-9.42-1.73-13.68,1.39c-4.1,3-6.38,9.16-5.08,13.43
		c2.97,0.4,4-0.33,4.04-3.22c0.04-2.92,2.41-5,5.35-5.06c2.21-0.04,4.42-0.02,6.63-0.01c4.03,0.01,6.19,2.19,6.21,6.26
		c0.01,4.38,0.01,8.76,0,13.14c-0.01,4.68-2.6,7.25-7.29,7.25C204.09,122.38,199.12,122.38,193.88,122.38z M188.31,158.29
		c0.65,0,1.15,0,1.65,0c14.87,0,29.73,0,44.6,0c2.7,0,3.21-0.51,3.21-3.23c0-23.7,0-47.4,0-71.1c0-0.46,0.11-0.98-0.06-1.37
		c-0.27-0.59-0.63-1.31-1.15-1.58c-2.77-1.4-5.1,0.08-5.1,3.14c0,20.56-0.07,41.13,0.05,61.69c0.03,4.82-3.23,7.64-7.61,7.57
		c-11.32-0.18-22.64-0.06-33.97-0.06c-0.53,0-1.06,0-1.63,0C188.31,155.08,188.31,156.59,188.31,158.29z M186.75,117.95
		c7.55,0,15.1,0.01,22.65,0c1.74,0,2.51-0.69,2.52-2.38c0.04-4.61,0-9.22,0.02-13.83c0-1.19-0.54-1.63-1.7-1.59
		c-1.79,0.05-3.59,0.01-5.39,0.01c-2.2,0-2.2,0-2.38,2.16c-0.26,3.11-2.21,5.45-5.14,6.07c-0.71,0.15-1.46,0.14-2.2,0.14
		c-9.94,0.01-19.89,0.01-29.83,0.01c-0.37,0-0.74-0.01-1.1,0c-2.74,0.1-4.74,2.09-4.73,4.74c0.01,2.66,1.99,4.66,4.76,4.67
		C171.74,117.96,179.25,117.95,186.75,117.95z M177.38,122.45c0,3.59,0,7.1,0,10.7c3.49,0,6.84,0.08,10.18-0.07
		c0.63-0.03,1.72-0.96,1.75-1.53c0.18-3.01,0.08-6.03,0.08-9.1C185.29,122.45,181.32,122.45,177.38,122.45z M206.04,162.9
		c-0.09-0.11-0.18-0.23-0.27-0.34c-0.4,0.26-0.95,0.43-1.17,0.8c-3.77,6.47-7.5,12.97-11.25,19.44c-0.47,0.81-0.11,1.03,0.64,1.16
		c3.96-6.87,7.91-13.72,11.85-20.56C205.92,163.24,205.97,163.07,206.04,162.9z M229.46,183.5c-3.9-6.77-7.71-13.4-11.56-20
		c-0.24-0.42-0.84-0.63-1.27-0.95c-0.08,0.11-0.17,0.22-0.25,0.32c0.07,0.17,0.12,0.34,0.2,0.5c3.95,6.86,7.9,13.72,11.89,20.64
		C228.79,183.85,229.07,183.71,229.46,183.5z M173.95,100.2c0.54-1.32,1.89-2.23,1.05-3.65c-0.26-0.44-1.05-0.85-1.57-0.82
		c-1.6,0.11-1.71,1.65-2.45,2.73C171.99,99.06,172.89,99.58,173.95,100.2z M171.67,104.02c-1.15-0.67-1.99-1.16-2.93-1.71
		c-0.34,0.59-0.64,1.11-0.99,1.71C169.08,104.02,170.2,104.02,171.67,104.02z"/>
	<path class="st3" d="M158.21,77.76c-0.03,11.24-9.12,20.27-20.36,20.23c-11.13-0.04-20.13-9.16-20.1-20.35
		c0.03-11.17,9.08-20.24,20.22-20.25C149.15,57.38,158.24,66.52,158.21,77.76z M122.18,77.73c0.02,8.74,7.09,15.83,15.8,15.83
		c8.71,0,15.79-7.09,15.81-15.82c0.02-8.79-7.17-16-15.88-15.91C129.16,61.91,122.16,68.99,122.18,77.73z"/>
	<path class="st3" d="M182.67,65.99c0.02-7.72,6.28-13.97,13.97-13.95c7.66,0.02,13.97,6.36,13.94,14.02
		c-0.03,7.69-6.33,13.95-14.01,13.94C188.87,79.99,182.65,73.72,182.67,65.99z M196.54,75.57c5.29,0.02,9.63-4.29,9.62-9.56
		c-0.01-5.21-4.3-9.52-9.5-9.54c-5.3-0.03-9.58,4.25-9.57,9.57C187.09,71.3,191.31,75.55,196.54,75.57z"/>
	<path class="st3" d="M140.19,75.54c1.87,0,3.52-0.02,5.16,0c1.52,0.02,2.5,0.87,2.53,2.15c0.03,1.3-1.01,2.25-2.58,2.27
		c-2.3,0.02-4.59,0.01-6.89-0.03c-1.81-0.03-2.62-0.86-2.64-2.63c-0.02-2.62-0.02-5.25,0-7.87c0.01-1.6,0.89-2.62,2.2-2.62
		c1.32,0,2.19,1.01,2.21,2.61C140.2,71.4,140.19,73.37,140.19,75.54z"/>
</g>
</svg>
