<?xml version="1.0" encoding="utf-8"?>
<!-- Generator: Adobe Illustrator 24.0.1, SVG Export Plug-In . SVG Version: 6.00 Build 0)  -->
<svg version="1.1" id="Layer_1" xmlns="http://www.w3.org/2000/svg" xmlns:xlink="http://www.w3.org/1999/xlink" x="0px" y="0px"
	 viewBox="0 0 360 360" style="enable-background:new 0 0 360 360;" xml:space="preserve">
<style type="text/css">
	.st0{fill:#86D2DB;}
	.st1{fill:#FAC214;}
	.st2{fill:#34419A;}
	.st3{fill:#FFFFFF;}
	.st4{fill:#569ED6;}
	.st5{fill:#BC3C96;}
	.st6{fill:#34BCAD;}
	.st7{fill:#3471B8;}
	.st8{fill:none;stroke:#181818;stroke-miterlimit:10;}
	.st9{fill:#058E80;}
	.st10{fill:#66A042;}
	.st11{fill:#F9F9F9;}
	.st12{fill:#AFB736;}
	.st13{fill:#EF574F;}
	.st14{fill:#BE98C5;}
	.st15{fill:#FAA21B;}
	.st16{fill:#007B69;}
	.st17{fill:#533B97;}
	.st18{fill:#FECF07;}
	.st19{fill:#214184;}
	.st20{fill:#CD6BAA;}
	.st21{fill:#C51E59;}
	.st22{fill:#9C4E9E;}
	.st23{fill:#1B9CD8;}
	.st24{fill:#1F3C72;}
	.st25{fill:#4D4E8C;}
	.st26{fill:#026D60;}
	.st27{fill:#DA312A;}
	.st28{fill:#F36F42;}
	.st29{fill:#898989;}
</style>
<path class="st4" d="M94.82,45.22c-28.87,30.63-38.65,65.76-32.2,104.2c1.95,11.6,6.03,21.03,11.37,29.67
	c6.26,9.59,12.71,19.02,19.47,28.16c43.77,53.45,58.7,59.51,86.32,146.36c0.18,0.57,0.3,0.52,0.47-0.02
	c27.62-86.83,42.55-92.89,86.31-146.34c6.76-9.14,13.2-18.56,19.47-28.16c5.34-8.64,9.42-18.07,11.37-29.67
	c6.45-38.44-3.33-73.56-32.2-104.2C219.59-3.17,140.41-3.17,94.82,45.22"/>
<g>
	<path class="st3" d="M110.99,173.14c0-3.03,0-5.86,0-8.84c8.9,0,17.72,0,26.73,0c0-0.77,0-1.4,0-2.02c0-31.76,0-63.51,0-95.27
		c0-3.57,1.06-4.92,4.51-5.91c14.96-4.31,29.92-8.64,44.88-12.97c2.71-0.79,5.34,1.21,5.41,4.24c0.07,2.85,0.01,5.7,0.01,8.72
		c9.89,0,19.71,0,29.73,0c0,34.57,0,68.96,0,103.49c9.02,0,17.84,0,26.75,0c0,2.97,0,5.8,0,8.79c-18.87,0-37.71,0-56.68,0
		c-0.03,0.59-0.08,1.03-0.08,1.47c-0.01,2.39-0.05,4.79,0.01,7.18c0.07,3.32-3.18,5.15-5.82,4.35
		c-14.33-4.33-28.72-8.51-43.09-12.71c-1.13-0.33-2.34-0.5-3.51-0.5c-9.02-0.04-18.04-0.02-27.06-0.02
		C112.23,173.14,111.68,173.14,110.99,173.14z M183.63,176.04c0-39.36,0-78.49,0-117.71c-0.35,0.08-0.62,0.13-0.87,0.2
		c-11.63,3.43-23.25,6.88-34.89,10.28c-0.94,0.27-1.03,0.79-1.03,1.6c0.01,31.15,0.02,62.3-0.01,93.45c0,1.01,0.31,1.41,1.28,1.69
		c7.46,2.16,14.89,4.38,22.33,6.58C174.8,173.42,179.15,174.71,183.63,176.04z M213.66,70.1c-7.1,0-14.06,0-21.05,0
		c0,31.42,0,62.73,0,94.12c7.03,0,14,0,21.05,0C213.66,132.83,213.66,101.52,213.66,70.1z"/>
	<path class="st3" d="M169.47,121.01c0.63-1.79,1-3.51,1.81-5c0.91-1.68,2.52-1.59,3.65-0.03c1.85,2.54,1.82,7.55-0.05,10.06
		c-1.09,1.46-2.72,1.57-3.59-0.01C170.46,124.51,170.08,122.74,169.47,121.01z"/>
</g>
</svg>
