<?xml version="1.0" encoding="utf-8"?>
<!-- Generator: Adobe Illustrator 24.0.1, SVG Export Plug-In . SVG Version: 6.00 Build 0)  -->
<svg version="1.1" id="Layer_1" xmlns="http://www.w3.org/2000/svg" xmlns:xlink="http://www.w3.org/1999/xlink" x="0px" y="0px"
	 viewBox="0 0 360 360" style="enable-background:new 0 0 360 360;" xml:space="preserve">
<style type="text/css">
	.st0{fill:#86D2DB;}
	.st1{fill:#FAC214;}
	.st2{fill:#34419A;}
	.st3{fill:#FFFFFF;}
	.st4{fill:#569ED6;}
	.st5{fill:#BC3C96;}
	.st6{fill:#34BCAD;}
	.st7{fill:#3471B8;}
	.st8{fill:none;stroke:#181818;stroke-miterlimit:10;}
	.st9{fill:#058E80;}
	.st10{fill:#66A042;}
	.st11{fill:#F9F9F9;}
	.st12{fill:#AFB736;}
	.st13{fill:#EF574F;}
	.st14{fill:#BE98C5;}
	.st15{fill:#FAA21B;}
	.st16{fill:#007B69;}
	.st17{fill:#533B97;}
	.st18{fill:#FECF07;}
	.st19{fill:#214184;}
	.st20{fill:#CD6BAA;}
	.st21{fill:#C51E59;}
	.st22{fill:#9C4E9E;}
	.st23{fill:#1B9CD8;}
	.st24{fill:#1F3C72;}
	.st25{fill:#4D4E8C;}
	.st26{fill:#026D60;}
	.st27{fill:#DA312A;}
	.st28{fill:#F36F42;}
	.st29{fill:#898989;}
</style>
<path class="st28" d="M94.82,45.22c-28.87,30.63-38.65,65.76-32.2,104.2c1.95,11.6,6.03,21.03,11.37,29.67
	c6.26,9.59,12.71,19.02,19.47,28.16c43.77,53.45,58.7,59.51,86.32,146.36c0.18,0.57,0.3,0.52,0.47-0.02
	c27.62-86.83,42.55-92.89,86.31-146.34c6.76-9.14,13.2-18.56,19.47-28.16c5.34-8.64,9.42-18.07,11.37-29.67
	c6.45-38.44-3.33-73.56-32.2-104.2C219.59-3.17,140.41-3.17,94.82,45.22"/>
<path class="st3" d="M176.07,45.87c2.35,0,4.71,0,7.06,0c0.33,0.08,0.66,0.19,1,0.23c14.28,1.4,26.01,7.66,35.1,18.73
	c8.32,10.13,11.9,21.91,11.53,34.98c-0.15,5.23-4,9.14-9.24,9.19c-2.53,0.03-5.05,0.04-7.58-0.01c-0.9-0.02-1.37,0.21-1.71,1.13
	c-1.39,3.75-3.41,7.18-6.1,10.14c-1.84,2.02-3.88,3.85-5.88,5.8c0.29,0.08,0.65,0.18,1.01,0.28c19.39,5.3,31.96,17.67,37.9,36.83
	c1.7,5.48,1.82,11.17,1.76,16.85c-40.62,0-81.24,0-121.86,0c0.11-3.14-0.06-6.32,0.36-9.41c2.58-18.64,12.49-32.11,29.16-40.58
	c3.26-1.66,6.84-2.69,10.26-4c0.04,0.09,0.03-0.02-0.03-0.06c-5.71-4.24-9.9-9.63-12.47-16.29c-0.13-0.32-0.76-0.63-1.17-0.63
	c-2.61-0.06-5.23,0.01-7.84-0.04c-4.84-0.1-8.75-3.87-8.88-8.7c-0.08-2.87-0.03-5.77,0.27-8.63c2.29-21.81,18.22-39.67,39.65-44.5
	C170.91,46.59,173.5,46.29,176.07,45.87z M232.78,172.06c-0.02-0.37-0.01-0.63-0.04-0.89c-0.74-6.11-2.7-11.81-5.98-17.01
	c-8.16-12.94-19.85-20.16-35.11-21.31c-4.51-0.34-9.06-0.24-13.59-0.2c-4.13,0.04-8.32-0.1-12.39,0.48
	c-18.08,2.62-30.14,12.86-36.54,29.85c-1.07,2.85-1.47,5.95-2.22,9.07C162.42,172.06,197.53,172.06,232.78,172.06z M154.77,109.01
	c5.33,11.8,19.95,19.26,34.14,13.97c14.06-5.24,21.32-20.74,16.36-34.82c-5.02-14.24-20.4-21.78-34.72-16.86
	c-15.36,5.28-20.14,20.73-18.06,29.86c7.22,0,14.47,0,21.7,0c0,2.68,0,5.22,0,7.84C167.68,109.01,161.28,109.01,154.77,109.01z
	 M137.97,85.34c2.3,0,4.47-0.07,6.63,0.03c1.18,0.06,1.72-0.32,2.17-1.44c7.77-19.13,30.12-27.54,48.49-18.23
	c7.93,4.02,13.53,10.25,16.93,18.49c0.18,0.43,0.57,1.08,0.89,1.09c2.64,0.09,5.28,0.05,8.14,0.05c-2.02-7.08-5.48-13.08-10.43-18.2
	c-7.89-8.15-17.52-12.65-28.83-13.29C160.24,52.61,142.78,67.51,137.97,85.34z M214.61,101.09c2.38,0,4.76,0.05,7.14-0.05
	c0.39-0.02,1.05-0.68,1.07-1.07c0.1-2.2,0.05-4.41,0.05-6.64c-2.96,0-5.63,0-8.26,0C214.61,95.94,214.61,98.45,214.61,101.09z
	 M144.23,101.11c0-2.67,0-5.21,0-7.79c-2.59,0-5.14,0-7.93,0c0,2.27-0.06,4.48,0.06,6.69c0.02,0.39,0.76,1.04,1.19,1.06
	C139.75,101.16,141.96,101.11,144.23,101.11z"/>
</svg>
