<?xml version="1.0" encoding="utf-8"?>
<!-- Generator: Adobe Illustrator 24.0.1, SVG Export Plug-In . SVG Version: 6.00 Build 0)  -->
<svg version="1.1" id="Layer_1" xmlns="http://www.w3.org/2000/svg" xmlns:xlink="http://www.w3.org/1999/xlink" x="0px" y="0px"
	 viewBox="0 0 360 360" style="enable-background:new 0 0 360 360;" xml:space="preserve">
<style type="text/css">
	.st0{fill:#86D2DB;}
	.st1{fill:#FAC214;}
	.st2{fill:#34419A;}
	.st3{fill:#FFFFFF;}
	.st4{fill:#569ED6;}
	.st5{fill:#BC3C96;}
	.st6{fill:#34BCAD;}
	.st7{fill:#3471B8;}
	.st8{fill:none;stroke:#181818;stroke-miterlimit:10;}
	.st9{fill:#058E80;}
	.st10{fill:#66A042;}
	.st11{fill:#F9F9F9;}
	.st12{fill:#AFB736;}
	.st13{fill:#EF574F;}
	.st14{fill:#BE98C5;}
	.st15{fill:#FAA21B;}
	.st16{fill:#007B69;}
	.st17{fill:#533B97;}
	.st18{fill:#FECF07;}
	.st19{fill:#214184;}
	.st20{fill:#CD6BAA;}
	.st21{fill:#C51E59;}
	.st22{fill:#9C4E9E;}
	.st23{fill:#1B9CD8;}
	.st24{fill:#1F3C72;}
	.st25{fill:#4D4E8C;}
	.st26{fill:#026D60;}
	.st27{fill:#DA312A;}
	.st28{fill:#F36F42;}
	.st29{fill:#898989;}
</style>
<g>
	<g>
		<path class="st17" d="M237.61,74.75c-1.19-3.79-4.67-6.43-8.63-6.55c-0.19-0.01-0.38-0.01-0.57-0.01c-32.27,0-64.54,0-96.81,0
			c-4.99,0-8.79,3.22-9.56,8.08c-0.1,0.63-0.09,1.28-0.09,1.92c0,32.05,0,64.1,0,96.15c0,5.16,2.65,8.54,7.66,9.79
			c0.1,0.03,0.18,0.12,0.28,0.18c33.41,0,66.82,0,100.23,0c0.53-0.17,1.07-0.31,1.58-0.5c3.19-1.18,5.23-3.42,6.11-6.71
			c0.07-0.25,0.16-0.48,0.25-0.73c0-33.42,0-66.84,0-100.25C237.9,75.67,237.75,75.21,237.61,74.75z M176.72,177.82
			c-0.44,0.02-0.84,0.05-1.25,0.05c-14.43,0-28.87,0-43.3,0c-2.8,0-3.75-0.94-3.75-3.74c0-31.9,0-63.8,0-95.7
			c0-2.83,0.92-3.76,3.72-3.76c14.43,0,28.87,0,43.3,0c0.4,0,0.81,0,1.28,0C176.72,109.12,176.72,143.41,176.72,177.82z
			 M228.34,177.83c-14.78,0.02-29.55,0.01-44.33,0.01c-0.22,0-0.44-0.05-0.77-0.08c0-34.39,0-68.66,0-103.06
			c0.42-0.02,0.83-0.06,1.23-0.06c14.47,0,28.95,0,43.42,0c2.71,0,3.66,0.96,3.66,3.7c0,32.05,0,64.11,0,96.16
			C231.55,176.76,230.56,177.83,228.34,177.83z"/>
		<path class="st17" d="M210.07,109.4c-1.83-1.83-3.55-1.81-5.4,0.04c-3.05,3.04-6.09,6.09-9.13,9.13
			c-1.79,1.79-2.03,3.72-0.64,5.16c1.43,1.47,3.38,1.24,5.23-0.61c1.27-1.27,2.53-2.54,4.05-4.07c0,0.76,0,1.16,0,1.56
			c0,6.53,0,13.07,0,19.6c0,0.49,0,0.99,0.06,1.47c0.19,1.54,1.45,2.67,2.99,2.73c1.99,0.08,3.37-1.34,3.38-3.54
			c0.01-6.8,0-13.6,0-20.4c0-0.38,0-0.76,0-1.14c1.68,1.37,3.08,2.79,4.48,4.22c0.95,0.96,2.07,1.38,3.4,0.99
			c2.44-0.72,3.08-3.61,1.19-5.53C216.5,115.79,213.28,112.6,210.07,109.4z"/>
		<path class="st17" d="M163.66,127.94c-1.33-0.37-2.44,0.07-3.39,1.03c-1.4,1.42-2.81,2.83-4.22,4.24
			c-0.09-0.05-0.18-0.1-0.26-0.15c0-4.07,0-8.14,0-12.21c0-3.17,0.03-6.35-0.02-9.52c-0.03-2.07-1.55-3.41-3.53-3.23
			c-1.7,0.15-2.86,1.53-2.87,3.47c-0.01,6.8,0,13.6,0,20.4c0,0.39,0,0.78,0,1.17c-0.1,0.04-0.19,0.08-0.29,0.13
			c-1.39-1.42-2.78-2.85-4.18-4.27c-0.94-0.96-2.05-1.42-3.38-1.03c-2.52,0.74-3.14,3.61-1.18,5.59c3.13,3.17,6.3,6.3,9.46,9.45
			c1.94,1.93,3.63,1.94,5.57,0.01c2.54-2.53,5.08-5.07,7.61-7.61c0.75-0.75,1.54-1.46,2.21-2.27
			C166.73,131.3,165.92,128.57,163.66,127.94z"/>
	</g>
</g>
</svg>
