<?xml version="1.0" encoding="utf-8"?>
<!-- Generator: Adobe Illustrator 24.0.1, SVG Export Plug-In . SVG Version: 6.00 Build 0)  -->
<svg version="1.1" id="Layer_1" xmlns="http://www.w3.org/2000/svg" xmlns:xlink="http://www.w3.org/1999/xlink" x="0px" y="0px"
	 viewBox="0 0 360 360" style="enable-background:new 0 0 360 360;" xml:space="preserve">
<style type="text/css">
	.st0{fill:#86D2DB;}
	.st1{fill:#FAC214;}
	.st2{fill:#34419A;}
	.st3{fill:#FFFFFF;}
	.st4{fill:#569ED6;}
	.st5{fill:#BC3C96;}
	.st6{fill:#34BCAD;}
	.st7{fill:#3471B8;}
	.st8{fill:none;stroke:#181818;stroke-miterlimit:10;}
	.st9{fill:#058E80;}
	.st10{fill:#66A042;}
	.st11{fill:#F9F9F9;}
	.st12{fill:#AFB736;}
	.st13{fill:#EF574F;}
	.st14{fill:#BE98C5;}
	.st15{fill:#FAA21B;}
	.st16{fill:#007B69;}
	.st17{fill:#533B97;}
	.st18{fill:#FECF07;}
	.st19{fill:#214184;}
	.st20{fill:#CD6BAA;}
	.st21{fill:#C51E59;}
	.st22{fill:#9C4E9E;}
	.st23{fill:#1B9CD8;}
	.st24{fill:#1F3C72;}
	.st25{fill:#4D4E8C;}
	.st26{fill:#026D60;}
	.st27{fill:#DA312A;}
	.st28{fill:#F36F42;}
	.st29{fill:#898989;}
</style>
<path class="st20" d="M94.82,45.22c-28.87,30.63-38.65,65.76-32.2,104.2c1.95,11.6,6.03,21.03,11.37,29.67
	c6.26,9.59,12.71,19.02,19.47,28.16c43.77,53.45,58.7,59.51,86.32,146.36c0.18,0.57,0.3,0.52,0.47-0.02
	c27.62-86.83,42.55-92.89,86.31-146.34c6.76-9.14,13.2-18.56,19.47-28.16c5.34-8.64,9.42-18.07,11.37-29.67
	c6.45-38.44-3.33-73.56-32.2-104.2C219.59-3.17,140.41-3.17,94.82,45.22"/>
<g>
	<path class="st3" d="M239.77,155.68c-2.28,0-4,0-5.71,0c-35.03,0-70.07,0.08-105.1-0.09c-4.41-0.02-5.81,1.25-5.6,5.63
		c0.3,6.32-4.97,9.56-10.58,6.59c-1.16-0.61-2.04-2.85-2.05-4.35c-0.13-21.3-0.04-42.6-0.13-63.91c-0.02-5.22,3.43-4.68,6.84-4.78
		c3.56-0.11,6.8,0.31,5.94,4.92c-1.38,7.39,2.36,10.89,8.44,14.06c10.88,5.67,21.14,12.55,32.05,18.16
		c4.79,2.47,10.52,4.19,15.87,4.31c21.64,0.48,43.3,0.19,64.96,0.2c7.05,0,8.03,0.94,8.06,7.77c0.03,6.34-0.12,12.68,0.04,19.01
		c0.13,4.96-2.92,5.04-6.6,5.08c-3.81,0.04-6.74-0.36-6.45-5.21C239.88,160.82,239.77,158.56,239.77,155.68z"/>
	<path class="st3" d="M141.2,112.21c-6.92-0.07-11.86-5.16-11.75-12.1c0.11-6.62,5.12-11.51,11.81-11.53
		c6.93-0.02,12.19,5.12,12.14,11.87C153.36,107.27,148.17,112.27,141.2,112.21z"/>
	<path class="st3" d="M175.11,83.95c-0.28,0-0.57-0.01-0.88-0.01c0.31,1.53,1.24,2.84,2.41,4.03c1.28,1.3,2.77,2.44,4.28,3.47
		c1.89,1.3,2.77,2.92,2.54,5.24c-0.19,1.96-0.21,3.94-0.32,5.91c-0.01,0.18-0.14,0.42-0.29,0.5c-2.08,1.18-3.21,3.08-3.8,5.29
		c-0.4,1.5-0.58,3.07-0.74,4.63c-0.17,1.69-0.42,3.33-1.29,4.82c-0.97,1.64-2.4,2.51-4.31,2.35c-1.9-0.16-3.27-1.24-3.89-3.01
		c-0.7-1.99-1.18-4.07-1.8-6.09c-0.11-0.37,0.03-1.15-0.69-0.94c-0.65,0.19-0.16,0.76-0.06,1.12c0.49,1.86,1,3.72,1.56,5.57
		c0.8,2.66,2.95,4.33,5.45,4.18c2.55-0.15,4.17-1.65,5-3.93c0.45-1.22,0.67-2.55,0.78-3.85c0.19-2.24,0.45-4.43,1.48-6.47
		c0.74-1.46,1.74-2.49,2.79-2.9c0.49,0.84,0.95,1.72,1.5,2.52c0.32,0.47,0.74,0.9,1.19,1.24c1.05,0.78,2.37,0.67,3.15-0.19
		c0.77-0.85,0.73-2.19-0.19-3.14c-1.09-1.14-2.45-1.74-4.05-1.74c-0.27,0-0.55,0.04-1.01,0.07c-0.01-0.97-0.07-1.91-0.01-2.85
		c0.07-1.15,0.25-2.29,0.36-3.44c0.21-2.37-0.82-4.1-2.73-5.45c-1.48-1.04-2.91-2.17-4.25-3.38
		C176.23,86.55,175.47,85.35,175.11,83.95z M184.25,103.52c1.48-0.37,3.52,0.37,4.31,1.53c0.4,0.59,0.54,1.22,0.02,1.81
		c-0.51,0.58-1.18,0.61-1.8,0.24C185.42,106.3,184.77,104.96,184.25,103.52z"/>
	<polygon class="st3" points="179.98,80.65 183.42,80.65 183.42,77.33 186.74,77.33 186.74,73.9 183.42,73.9 183.42,70.58 
		179.98,70.58 179.98,73.9 176.66,73.9 176.66,77.33 179.98,77.33 	"/>
	<path class="st3" d="M180.76,89.49l-0.01-0.04c10.1-1.31,10.97-1.34,10.97-10.77c0-1.76,0-3.52,0-5.28c0-7.84,0-7.84-7.09-9.97
		c-0.3-6.78,3.51-11.46,9.33-11.44c5.56,0.01,9.47,4.5,9.52,11.02c0.04,5.46,0.01,10.92,0.01,16.38c0,10.15,0,20.31,0,30.6
		c2.23,0.43,3.91,0.76,6.03,1.17c0-17.33,0.37-34.2-0.17-51.05c-0.25-7.77-6.55-13.18-13.67-13.68c-8.42-0.6-14.51,3.4-16.84,11.21
		c-0.59,1.98-0.81,4.07-1.26,6.45c-6.76-0.87-7.38,3.34-6.91,8.53c0.18,1.92,0.03,3.87,0.03,5.81c0,8.99,0.4,9.02,7.3,11.03
		C178.02,89.45,179.22,89.68,180.76,89.49z M176.66,77.33V73.9h3.32v-3.32h3.44v3.32h3.32v3.44h-3.32v3.32h-3.44v-3.32H176.66z"/>
	<path class="st3" d="M243.53,122.24c-6.43-0.91-12.85-1.85-19.27-2.8c-11.8-1.74-23.6-3.5-35.41-5.24
		c-0.98-0.14-1.78-0.39-2.43-0.74l-2.61-1.25c-6.4-2.32-13.58-5.13-18.87-6.84c-4.27-1.38-7.64,0.55-10,3.98
		c-2.43,3.54-2.85,8.45,0.37,10.65c6.96,4.75,14.6,11.06,22.34,11.63c21.55,1.59,43.28,0.68,64.94,0.4c1.92-0.02,4.85-2.3,5.47-4.15
		C249.11,124.78,246.88,122.71,243.53,122.24z"/>
</g>
</svg>
