<?xml version="1.0" encoding="utf-8"?>
<!-- Generator: Adobe Illustrator 24.0.1, SVG Export Plug-In . SVG Version: 6.00 Build 0)  -->
<svg version="1.1" id="Layer_1" xmlns="http://www.w3.org/2000/svg" xmlns:xlink="http://www.w3.org/1999/xlink" x="0px" y="0px"
	 viewBox="0 0 360 360" style="enable-background:new 0 0 360 360;" xml:space="preserve">
<style type="text/css">
	.st0{fill:#86D2DB;}
	.st1{fill:#FAC214;}
	.st2{fill:#34419A;}
	.st3{fill:#FFFFFF;}
	.st4{fill:#569ED6;}
	.st5{fill:#BC3C96;}
	.st6{fill:#34BCAD;}
	.st7{fill:#3471B8;}
	.st8{fill:none;stroke:#181818;stroke-miterlimit:10;}
	.st9{fill:#058E80;}
	.st10{fill:#66A042;}
	.st11{fill:#F9F9F9;}
	.st12{fill:#AFB736;}
	.st13{fill:#EF574F;}
	.st14{fill:#BE98C5;}
	.st15{fill:#FAA21B;}
	.st16{fill:#007B69;}
	.st17{fill:#533B97;}
	.st18{fill:#FECF07;}
	.st19{fill:#214184;}
	.st20{fill:#CD6BAA;}
	.st21{fill:#C51E59;}
	.st22{fill:#9C4E9E;}
	.st23{fill:#1B9CD8;}
	.st24{fill:#1F3C72;}
	.st25{fill:#4D4E8C;}
	.st26{fill:#026D60;}
	.st27{fill:#DA312A;}
	.st28{fill:#F36F42;}
	.st29{fill:#898989;}
</style>
<path class="st6" d="M94.82,45.22c-28.87,30.63-38.65,65.76-32.2,104.2c1.95,11.6,6.03,21.03,11.37,29.67
	c6.26,9.59,12.71,19.02,19.47,28.16c43.77,53.45,58.7,59.51,86.32,146.36c0.18,0.57,0.3,0.52,0.47-0.02
	c27.62-86.83,42.55-92.89,86.31-146.34c6.76-9.14,13.2-18.56,19.47-28.16c5.34-8.64,9.42-18.07,11.37-29.67
	c6.45-38.44-3.33-73.56-32.2-104.2C219.59-3.17,140.41-3.17,94.82,45.22"/>
<g>
	<path class="st3" d="M133.91,167.4c-19.49-16.44-29.9-46.43-19.8-75.46c9.74-27.98,37.52-47.35,67.2-46.61
		c30.45,0.76,57.08,21,65.56,49.64c8.65,29.23-2.94,57.6-20.78,72.33c-0.24-0.52-0.49-1-0.68-1.5c-2.48-6.6-4.93-13.22-7.45-19.81
		c-0.4-1.04-0.31-1.77,0.36-2.69c20.57-28.32,5.12-67.98-29.14-74.87c-27.22-5.48-53.63,13.98-56.51,41.67
		c-1.27,12.17,1.74,23.22,8.92,33.11c0.71,0.98,0.82,1.75,0.4,2.85c-2.5,6.53-4.93,13.08-7.39,19.63
		C134.42,166.21,134.2,166.71,133.91,167.4z"/>
	<path class="st3" d="M136.61,178.47c1.94-5.19,3.8-10.15,5.66-15.12c4.03-10.77,8.06-21.55,12.1-32.32
		c1.01-2.68,1.71-3.18,4.51-3.18c14.13,0,28.26,0,42.39,0c2.54,0,3.35,0.52,4.21,2.81c5.82,15.52,11.64,31.04,17.45,46.56
		c0.13,0.34,0.21,0.7,0.37,1.26C194.43,178.47,165.68,178.47,136.61,178.47z"/>
	<path class="st3" d="M135.69,185.12c29.56,0,59.02,0,88.62,0c0,3.4,0.1,6.73-0.05,10.04c-0.07,1.55-1.34,2.29-2.81,2.51
		c-0.61,0.09-1.24,0.04-1.86,0.04c-26.39,0-52.79,0-79.18,0c-4.03,0-4.85-0.83-4.85-4.93c0-2.29,0.01-4.58,0.02-6.88
		C135.59,185.72,135.63,185.54,135.69,185.12z"/>
</g>
</svg>
