<?xml version="1.0" encoding="utf-8"?>
<!-- Generator: Adobe Illustrator 24.0.1, SVG Export Plug-In . SVG Version: 6.00 Build 0)  -->
<svg version="1.1" id="Layer_1" xmlns="http://www.w3.org/2000/svg" xmlns:xlink="http://www.w3.org/1999/xlink" x="0px" y="0px"
	 viewBox="0 0 360 360" style="enable-background:new 0 0 360 360;" xml:space="preserve">
<style type="text/css">
	.st0{fill:#86D2DB;}
	.st1{fill:#FAC214;}
	.st2{fill:#34419A;}
	.st3{fill:#FFFFFF;}
	.st4{fill:#569ED6;}
	.st5{fill:#BC3C96;}
	.st6{fill:#34BCAD;}
	.st7{fill:#3471B8;}
	.st8{fill:none;stroke:#181818;stroke-miterlimit:10;}
	.st9{fill:#058E80;}
	.st10{fill:#66A042;}
	.st11{fill:#F9F9F9;}
	.st12{fill:#AFB736;}
	.st13{fill:#EF574F;}
	.st14{fill:#BE98C5;}
	.st15{fill:#FAA21B;}
	.st16{fill:#007B69;}
	.st17{fill:#533B97;}
	.st18{fill:#FECF07;}
	.st19{fill:#214184;}
	.st20{fill:#CD6BAA;}
	.st21{fill:#C51E59;}
	.st22{fill:#9C4E9E;}
	.st23{fill:#1B9CD8;}
	.st24{fill:#1F3C72;}
	.st25{fill:#4D4E8C;}
	.st26{fill:#026D60;}
	.st27{fill:#DA312A;}
	.st28{fill:#F36F42;}
	.st29{fill:#898989;}
</style>
<path class="st12" d="M94.82,45.22c-28.87,30.63-38.65,65.76-32.2,104.2c1.95,11.6,6.03,21.03,11.37,29.67
	c6.26,9.59,12.71,19.02,19.47,28.16c43.77,53.45,58.7,59.51,86.32,146.36c0.18,0.57,0.3,0.52,0.47-0.02
	c27.62-86.83,42.55-92.89,86.31-146.34c6.76-9.14,13.2-18.56,19.47-28.16c5.34-8.64,9.42-18.07,11.37-29.67
	c6.45-38.44-3.33-73.56-32.2-104.2C219.59-3.17,140.41-3.17,94.82,45.22"/>
<g>
	<path class="st3" d="M123.91,182.52c-1.1-0.67-1.42-1.65-1.41-2.93c0.05-6.24,0.01-12.47,0.03-18.71
		c0.03-12.2,6.65-22.1,17.93-26.8c5.3-2.21,10.6-4.39,15.9-6.58c0.36-0.15,0.71-0.31,1.46-0.64c-1.63-0.29-2.87-0.53-4.11-0.74
		c-12.27-2.01-20-13.89-16.77-25.92c2.8-10.44,5.72-20.84,8.52-31.28c0.22-0.82,0.13-1.84-0.14-2.66c-0.76-2.27-1.72-4.48-2.56-6.73
		c-0.54-1.43-0.25-2.29,1.04-3.06c11.66-6.97,24.13-11.14,37.86-10.79c11.37,0.28,21.86,3.68,31.76,9.12
		c0.82,0.45,1.63,0.92,2.43,1.39c1.86,1.09,2.13,1.91,1.25,3.83c-0.68,1.5-1.33,3.01-2.08,4.48c-0.52,1.02-0.64,1.9-0.27,3.09
		c1.35,4.37,2.48,8.82,3.69,13.24c1.75,6.39,3.52,12.78,5.23,19.18c3.27,12.28-4.27,24-16.76,26.14c-1.39,0.24-2.77,0.51-4.52,0.84
		c4.32,1.78,8.3,3.41,12.27,5.07c4.01,1.69,8.16,3.1,11.65,5.85c7.16,5.64,10.91,13.04,11.13,22.12c0.16,6.59,0.02,13.19,0.05,19.78
		c0.01,1.25-0.47,2.14-1.56,2.71C198.58,182.52,161.24,182.52,123.91,182.52z M177.91,178.3c0-5.67-0.1-11.18,0.04-16.69
		c0.08-3.09-0.46-5.93-1.61-8.8c-3.03-7.55-5.88-15.17-8.8-22.75c-0.57-1.47-1.59-2-2.85-1.48c-7.64,3.15-15.3,6.26-22.92,9.47
		c-9.64,4.06-15.21,12.54-15.18,23.02c0.01,5.21,0.06,10.42,0.1,15.63c0,0.52,0.04,1.04,0.07,1.61
		C143.85,178.3,160.79,178.3,177.91,178.3z M182.16,178.24c17.16,0,34.14,0,51.15,0c0.03-0.33,0.07-0.55,0.07-0.77
		c0-5.65,0.02-11.31-0.01-16.96c-0.01-1.24-0.07-2.5-0.29-3.72c-1.63-9.28-6.95-15.56-15.62-19.11c-7.07-2.9-14.13-5.83-21.2-8.75
		c-2.29-0.95-3.03-0.64-3.91,1.64c-3.01,7.79-5.97,15.61-9.06,23.37c-0.82,2.07-1.21,4.13-1.16,6.35c0.09,3.51,0.02,7.03,0.02,10.55
		C182.16,173.28,182.16,175.72,182.16,178.24z M203.56,93.91c-0.23-0.1-0.39-0.19-0.55-0.24c-10.1-3.29-20.21-6.57-30.31-9.87
		c-1.07-0.35-1.81-0.03-2.42,0.84c-3.37,4.8-7.68,8.49-12.94,11.11c-0.37,0.18-0.7,0.76-0.77,1.19c-0.56,3.87,0.75,7.71,0.23,11.59
		c-0.02,0.17,0.06,0.35,0.09,0.52c1.61,8.55,6.67,14.38,14.51,17.74c5.59,2.4,11.36,2.27,17.06,0.13c0.39-0.15,0.72-0.46,1.07-0.72
		c1.14-0.83,2.27-1.67,3.42-2.48c0.17-0.12,0.43-0.09,0.64-0.17c0.59-0.23,1.28-0.35,1.74-0.74c3.96-3.37,6.49-7.62,7.66-12.68
		c0.25-1.08,0.49-2.12-0.1-3.23c-0.22-0.43,0.11-1.17,0.25-1.75c0.08-0.33,0.38-0.63,0.38-0.95
		C203.58,100.75,203.56,97.32,203.56,93.91z M148.41,74.19c-0.14,0.4-0.2,0.55-0.25,0.71c-2.46,8.96-5.02,17.89-7.35,26.89
		c-1.71,6.59,0.94,13.37,6.43,17.32c2.82,2.03,9.01,3.85,11.66,3.39c-0.1-0.16-0.18-0.31-0.29-0.45c-3.05-3.78-4.99-8.07-5.88-12.85
		c-0.07-0.36-0.72-0.81-1.15-0.88c-4.3-0.75-7.08-4.07-6.87-8.32c0.2-4.08,3.4-7.28,7.67-7.4c1.64-0.05,3.03-0.54,4.4-1.3
		c3.88-2.14,7.14-4.98,9.75-8.57c2.24-3.08,4.38-3.78,7.99-2.63c8.64,2.75,17.28,5.51,25.93,8.23c1.98,0.62,4,1.42,6.03,1.54
		c4.89,0.3,8.65,3.48,9.19,8.2c0.54,4.69-2.39,8.87-7.12,10.01c-0.8,0.19-1.09,0.51-1.21,1.26c-0.78,4.61-2.66,8.74-5.56,12.41
		c-0.26,0.32-0.49,0.67-0.84,1.16c1.83-0.31,3.45-0.58,5.06-0.86c10.41-1.81,16.35-11.09,13.6-21.29
		c-2.48-9.19-5.02-18.35-7.54-27.53c-0.1-0.35-0.25-0.68-0.47-1.26c-0.99,2.15-1.86,4.04-2.73,5.92c-1.24,2.68-1.76,2.9-4.52,1.79
		c-9.68-3.89-19.71-5.31-30.09-4.42c-7.14,0.61-14.03,2.31-20.75,4.74c-1.86,0.67-2.66,0.28-3.4-1.57
		C149.55,77.09,149.02,75.74,148.41,74.19z M212.93,59.29c-10.83-6.23-22.27-9.98-34.82-9.55c-11.18,0.38-21.38,4.01-30.99,9.6
		c2.17,5.5,4.28,10.86,6.42,16.3c17.36-6.06,34.63-6.74,51.87-0.01C207.95,70.12,210.41,64.76,212.93,59.29z M180.06,150.89
		c2.59-6.72,5.03-13.05,7.56-19.61c-5.12,1.31-10.02,1.37-15.14-0.04C175.02,137.82,177.47,144.17,180.06,150.89z M207.8,103.9
		c2.28-0.32,3.8-2.42,3.83-4.91c0.02-1.95-2.04-4.74-3.83-4.5C207.8,97.62,207.8,100.75,207.8,103.9z M152.41,104.12
		c0-2.49,0-4.88,0-7.27c-2.04,0.05-3.55,1.55-3.61,3.53C148.74,102.37,150.23,103.97,152.41,104.12z"/>
	<path class="st3" d="M180.25,119.26c-3.18-0.03-5.84-0.82-8.32-2.23c-1.28-0.73-1.65-1.91-0.98-3.01c0.66-1.08,1.76-1.29,3-0.58
		c3.97,2.27,7.95,2.27,11.92,0c1.23-0.7,2.35-0.46,2.98,0.63c0.63,1.08,0.29,2.19-0.93,2.92
		C185.47,118.46,182.81,119.25,180.25,119.26z"/>
	<path class="st3" d="M166.89,103.9c-2.03-0.02-3.72-1.76-3.68-3.8c0.04-1.99,1.7-3.63,3.69-3.64c2.04-0.01,3.76,1.69,3.75,3.72
		C170.65,102.21,168.92,103.92,166.89,103.9z"/>
	<path class="st3" d="M191.52,103.9c-2.02-0.04-3.73-1.83-3.65-3.83c0.07-2,1.74-3.61,3.73-3.61c2.05,0,3.72,1.69,3.7,3.75
		C195.27,102.26,193.55,103.94,191.52,103.9z"/>
	<path class="st3" d="M177.91,62.95c-1.27,0-2.33-0.02-3.4,0.01c-1.55,0.04-2.54-0.72-2.58-2.04c-0.04-1.37,0.93-2.18,2.58-2.16
		c1.07,0.01,2.13,0,3.4,0c0-0.96-0.01-1.87,0-2.78c0.02-1.35,0.89-2.27,2.1-2.25c1.15,0.02,2,0.9,2.05,2.18
		c0.03,0.89,0.01,1.77,0.01,2.87c1,0,1.91-0.01,2.82,0c1.37,0.02,2.25,0.86,2.23,2.1c-0.02,1.2-0.85,2-2.16,2.04
		c-0.88,0.03-1.77,0.01-2.9,0.01c0,1.05,0.02,2,0,2.96c-0.04,1.59-0.88,2.56-2.14,2.51c-1.22-0.05-1.98-0.99-2-2.51
		C177.89,64.95,177.91,64.02,177.91,62.95z"/>
</g>
</svg>
