<?xml version="1.0" encoding="utf-8"?>
<!-- Generator: Adobe Illustrator 24.0.1, SVG Export Plug-In . SVG Version: 6.00 Build 0)  -->
<svg version="1.1" id="Layer_1" xmlns="http://www.w3.org/2000/svg" xmlns:xlink="http://www.w3.org/1999/xlink" x="0px" y="0px"
	 viewBox="0 0 360 360" style="enable-background:new 0 0 360 360;" xml:space="preserve">
<style type="text/css">
	.st0{fill:#86D2DB;}
	.st1{fill:#FAC214;}
	.st2{fill:#34419A;}
	.st3{fill:#FFFFFF;}
	.st4{fill:#569ED6;}
	.st5{fill:#BC3C96;}
	.st6{fill:#34BCAD;}
	.st7{fill:#3471B8;}
	.st8{fill:none;stroke:#181818;stroke-miterlimit:10;}
	.st9{fill:#058E80;}
	.st10{fill:#66A042;}
	.st11{fill:#F9F9F9;}
	.st12{fill:#AFB736;}
	.st13{fill:#EF574F;}
	.st14{fill:#BE98C5;}
	.st15{fill:#FAA21B;}
	.st16{fill:#007B69;}
	.st17{fill:#533B97;}
	.st18{fill:#FECF07;}
	.st19{fill:#214184;}
	.st20{fill:#CD6BAA;}
	.st21{fill:#C51E59;}
	.st22{fill:#9C4E9E;}
	.st23{fill:#1B9CD8;}
	.st24{fill:#1F3C72;}
	.st25{fill:#4D4E8C;}
	.st26{fill:#026D60;}
	.st27{fill:#DA312A;}
	.st28{fill:#F36F42;}
	.st29{fill:#898989;}
</style>
<path class="st22" d="M94.82,45.22c-28.87,30.63-38.65,65.76-32.2,104.2c1.95,11.6,6.03,21.03,11.37,29.67
	c6.26,9.59,12.71,19.02,19.47,28.16c43.77,53.45,58.7,59.51,86.32,146.36c0.18,0.57,0.3,0.52,0.47-0.02
	c27.62-86.83,42.55-92.89,86.31-146.34c6.76-9.14,13.2-18.56,19.47-28.16c5.34-8.64,9.42-18.07,11.37-29.67
	c6.45-38.44-3.33-73.56-32.2-104.2C219.59-3.17,140.41-3.17,94.82,45.22"/>
<g>
	<path class="st3" d="M107.37,122.67c1.11-2.38,2.97-3.16,5.58-3.16c44.81,0.05,89.63,0.04,134.44,0.04c3.92,0,5.41,1.48,5.41,5.38
		c0,5.02,0,10.03,0,15.05c0,3.54-1.58,5.14-5.08,5.14c-11.97,0-23.95,0-35.92,0c-0.56,0-1.13,0-1.82,0
		c-0.02,0.52-0.06,0.97-0.07,1.43c-0.01,3.64,0.01,7.29-0.01,10.93c-0.01,2.94-1.74,4.68-4.68,4.68c-6.39,0.01-12.78,0-19.17,0
		c-0.51,0-1.02,0-1.63,0c0,4.75,0,9.4,0,14.2c0.36,0,0.68,0,0.99,0c7.05,0,14.1-0.02,21.15,0.02c0.87,0,1.3-0.23,1.68-1.06
		c2.61-5.64,8.61-8.54,14.57-7.13c5.74,1.36,9.84,6.6,9.8,12.53c-0.04,6.03-4.28,11.15-10.28,12.42c-0.27,0.06-0.53,0.17-0.79,0.26
		c-1.23,0-2.46,0-3.69,0c-0.11-0.08-0.22-0.2-0.34-0.23c-4.45-0.92-7.55-3.48-9.48-7.57c-0.18-0.38-0.93-0.69-1.42-0.69
		c-17.7-0.03-35.39-0.02-53.09-0.05c-0.9,0-1.29,0.3-1.65,1.1c-1.22,2.72-3.2,4.79-5.91,6.07c-1.18,0.56-2.45,0.92-3.68,1.37
		c-1.23,0-2.46,0-3.69,0c-0.22-0.08-0.43-0.19-0.65-0.24c-6.08-1.28-10.33-6.29-10.42-12.29c-0.09-6,4-11.3,9.79-12.68
		c6-1.43,11.94,1.47,14.62,7.24c0.38,0.83,0.85,0.94,1.62,0.93c7-0.02,14-0.01,21-0.01c0.4,0,0.81-0.05,1.18-0.08
		c0-4.76,0-9.38,0-14.12c-0.58,0-1.09,0-1.6,0c-6.34,0-12.68,0-19.02,0c-3.21,0-4.86-1.68-4.87-4.92c-0.01-2.46,0-4.92,0-7.38
		c0-1.55,0-3.09,0-4.74c-0.72,0-1.28,0-1.84,0c-11.78,0-23.56-0.05-35.34,0.04c-2.64,0.02-4.58-0.71-5.72-3.17
		C107.37,135.55,107.37,129.11,107.37,122.67z M244.21,128.16c-42.81,0-85.52,0-128.21,0c0,2.86,0,5.62,0,8.36
		c42.79,0,85.46,0,128.21,0C244.21,133.73,244.21,131,244.21,128.16z M201.32,145.21c-14.24,0-28.36,0-42.48,0c0,2.83,0,5.55,0,8.34
		c14.18,0,28.3,0,42.48,0C201.32,150.76,201.32,148.03,201.32,145.21z M140.39,184.87c2.3-0.04,4.21-1.99,4.19-4.29
		c-0.02-2.3-1.96-4.22-4.25-4.22c-2.35,0-4.32,2.01-4.26,4.36C136.12,183.01,138.1,184.91,140.39,184.87z M219.84,176.36
		c-2.3,0-4.23,1.93-4.25,4.22c-0.02,2.29,1.89,4.25,4.19,4.29c2.35,0.04,4.34-1.94,4.32-4.3
		C224.08,178.28,222.14,176.36,219.84,176.36z"/>
	<path class="st3" d="M175.77,67.96c0-3.01,0-5.89,0-8.93c-0.56,0-1.06,0-1.57,0c-6.48,0-12.97,0-19.45,0
		c-1.75,0-3.11-0.72-3.96-2.28c-0.77-1.41-0.72-2.83,0.12-4.18c0.89-1.45,2.25-2.07,3.95-2.07c4.78,0.02,9.56,0.01,14.34,0.01
		c12.02,0,24.05-0.01,36.07,0c3.41,0,5.59,3.02,4.28,5.94c-0.8,1.77-2.26,2.58-4.2,2.58c-6.44-0.01-12.87,0-19.31,0
		c-0.51,0-1.02,0-1.6,0c0,3.03,0,5.95,0,8.95c4.66,1.06,8.62,3.33,11.74,6.95c3.37,3.91,5.11,8.47,5.21,13.62
		c0.05,2.73-1.76,4.56-4.51,4.56c-11.17,0.02-22.34,0.01-33.51,0c-2.83,0-4.6-1.84-4.57-4.65c0.1-9.26,6.63-17.7,15.55-20.1
		C174.8,68.24,175.24,68.11,175.77,67.96z M191.95,84.52c-1.25-4.97-6.9-8.71-12.62-8.43c-5.06,0.25-10.5,4.41-11.04,8.43
		C176.17,84.52,184.05,84.52,191.95,84.52z"/>
</g>
</svg>
