<?xml version="1.0" encoding="utf-8"?>
<!-- Generator: Adobe Illustrator 24.0.1, SVG Export Plug-In . SVG Version: 6.00 Build 0)  -->
<svg version="1.1" id="Layer_1" xmlns="http://www.w3.org/2000/svg" xmlns:xlink="http://www.w3.org/1999/xlink" x="0px" y="0px"
	 viewBox="0 0 360 360" style="enable-background:new 0 0 360 360;" xml:space="preserve">
<style type="text/css">
	.st0{fill:#86D2DB;}
	.st1{fill:#FAC214;}
	.st2{fill:#34419A;}
	.st3{fill:#FFFFFF;}
	.st4{fill:#569ED6;}
	.st5{fill:#BC3C96;}
	.st6{fill:#34BCAD;}
	.st7{fill:#3471B8;}
	.st8{fill:none;stroke:#181818;stroke-miterlimit:10;}
	.st9{fill:#058E80;}
	.st10{fill:#66A042;}
	.st11{fill:#F9F9F9;}
	.st12{fill:#AFB736;}
	.st13{fill:#EF574F;}
	.st14{fill:#BE98C5;}
	.st15{fill:#FAA21B;}
	.st16{fill:#007B69;}
	.st17{fill:#533B97;}
	.st18{fill:#FECF07;}
	.st19{fill:#214184;}
	.st20{fill:#CD6BAA;}
	.st21{fill:#C51E59;}
	.st22{fill:#9C4E9E;}
	.st23{fill:#1B9CD8;}
	.st24{fill:#1F3C72;}
	.st25{fill:#4D4E8C;}
	.st26{fill:#026D60;}
	.st27{fill:#DA312A;}
	.st28{fill:#F36F42;}
	.st29{fill:#898989;}
</style>
<path class="st16" d="M94.82,45.22c-28.87,30.63-38.65,65.76-32.2,104.2c1.95,11.6,6.03,21.03,11.37,29.67
	c6.26,9.59,12.71,19.02,19.47,28.16c43.77,53.45,58.7,59.51,86.32,146.36c0.18,0.57,0.3,0.52,0.47-0.02
	c27.62-86.83,42.55-92.89,86.31-146.34c6.76-9.14,13.2-18.56,19.47-28.16c5.34-8.64,9.42-18.07,11.37-29.67
	c6.45-38.44-3.33-73.56-32.2-104.2C219.59-3.17,140.41-3.17,94.82,45.22"/>
<g>
	<path class="st3" d="M238.47,138.97c0,13.7,0,27.41,0,41.11c-0.62,1.16-1.64,1.39-2.88,1.39c-37.06-0.02-74.13-0.02-111.19-0.02
		c-2.27,0-2.86-0.58-2.86-2.82c0-8.9,0-17.81,0-26.71c0-3.73-0.02-7.46,0.01-11.19c0.02-3.67,1.56-6.57,4.7-8.46
		c0.94-0.57,1.17-1.14,1.17-2.15c-0.03-20.89-0.01-41.78-0.03-62.68c0-1.25,0.13-2.37,1.46-2.92c34.1,0,68.21,0,102.31,0
		c1.33,0.55,1.46,1.67,1.46,2.92c-0.01,20.98-0.01,41.96-0.03,62.94c0,0.85,0.16,1.4,1.01,1.78c0.64,0.29,1.19,0.8,1.74,1.27
		C237.06,134.89,237.82,136.9,238.47,138.97z M234.58,177.53c0-0.43,0-0.77,0-1.1c0-11.76,0-23.52,0-35.28c0-4.1-2.42-6.49-6.56-6.5
		c-32,0-64.01,0-96.01,0c-4.2,0-6.57,2.39-6.57,6.6c0,11.68,0,23.37,0,35.05c0,0.4,0,0.8,0,1.23
		C161.87,177.53,198.13,177.53,234.58,177.53z M219,83.99c1.3,0,2.44-0.03,3.57,0.01c1.4,0.05,2.21,0.79,2.22,1.94
		c0.01,1.18-0.79,1.88-2.19,1.95c-0.23,0.01-0.46,0-0.68,0c-7.31,0-14.61,0-21.92,0c-0.29,0-0.59,0.03-0.93,0.04
		c-1.15,5.19-3.92,9.27-8.34,12.34c7.26,2.52,11.37,7.53,12.59,14.85c1.38,0,2.62,0,3.97,0c0-1.85-0.03-3.64,0.01-5.42
		c0.04-1.61,0.73-2.28,2.33-2.29c2.21-0.02,4.41-0.01,6.62-0.01c2.15,0,2.75,0.61,2.75,2.81c0,1.62,0,3.25,0,5
		c1.42,0,2.71-0.05,3.99,0.02c1.04,0.06,1.67,0.68,1.79,1.74c0.11,1.01-0.53,1.83-1.58,2.05c-0.4,0.08-0.83,0.07-1.25,0.07
		c-5.75,0-11.49,0-17.24,0c-0.41,0-0.81,0-1.25,0c0,3.95,0,7.77,0,11.61c1.29,0,2.49,0,3.82,0c0-1.76-0.02-3.46,0-5.16
		c0.02-1.88,0.69-2.54,2.55-2.55c2.13-0.01,4.26,0,6.39,0c2.13,0,2.76,0.64,2.77,2.81c0.01,1.62,0,3.24,0,4.88c3.31,0,6.48,0,9.65,0
		c0-20.77,0-41.46,0-62.16c-12.26,0-24.46,0-36.86,0c5,4.05,7.5,9.14,7.73,15.4c2.6,0,5.12,0,7.77,0c0-1.77-0.02-3.47,0-5.17
		c0.02-1.85,0.72-2.54,2.57-2.55c2.17-0.01,4.34-0.01,6.51,0c1.92,0.01,2.61,0.7,2.63,2.62C219.01,80.48,219,82.15,219,83.99z
		 M131.39,68.46c0,20.8,0,41.52,0,62.23c3.23,0,6.37,0,9.62,0c0-1.81-0.02-3.55,0.01-5.29c0.03-1.71,0.75-2.41,2.47-2.42
		c2.09-0.01,4.19,0,6.28,0c2.41,0,2.96,0.54,2.96,2.95c0,1.58,0,3.16,0,4.77c1.37,0,2.57,0,3.83,0c0-3.88,0-7.7,0-11.61
		c-0.49,0-0.9,0-1.31,0c-5.9,0-11.8,0.01-17.7-0.01c-1.46,0-2.33-0.76-2.33-1.94c0-1.2,0.84-1.92,2.32-1.94c1.13-0.01,2.26,0,3.48,0
		c0-1.78-0.01-3.41,0-5.05c0.01-2.11,0.63-2.74,2.7-2.75c2.02-0.01,4.03,0,6.05,0c2.44,0,2.96,0.51,2.96,2.93c0,1.58,0,3.17,0,4.8
		c1.4,0,2.65,0,3.97,0c1.21-7.38,5.37-12.35,12.56-14.88c-4.47-3.11-7.19-7.23-8.35-12.38c-7.52,0-14.94,0-22.36,0
		c-0.46,0-0.91,0.01-1.37-0.02c-1.19-0.09-1.91-0.77-1.96-1.82c-0.05-1.09,0.65-1.93,1.88-2.01c1.36-0.09,2.74-0.04,4.11-0.05
		c1.2,0,2.41,0,3.7,0c0-2.56-0.03-4.95,0.01-7.34c0.02-1.67,0.72-2.35,2.39-2.36c2.28-0.02,4.57-0.02,6.85,0
		c1.79,0.01,2.45,0.69,2.47,2.51c0.02,1.98,0,3.96,0.01,5.94c0,0.4,0.04,0.8,0.06,1.19c1.34,0,2.55,0,3.82,0
		c0.19-6.28,2.7-11.39,7.7-15.46C155.8,68.46,143.64,68.46,131.39,68.46z M195.39,84.16c0.04-8.67-6.94-15.72-15.59-15.74
		c-8.63-0.03-15.62,6.97-15.67,15.67c-0.05,8.54,7,15.59,15.6,15.61C188.35,99.71,195.35,92.77,195.39,84.16z M187.87,103.76
		c0,9.02,0,17.98,0,26.92c3.91,0,7.73,0,11.58,0c0-4.8,0.03-9.52-0.02-14.24c-0.01-1.01-0.21-2.05-0.47-3.03
		C197.57,108.31,192.72,104.09,187.87,103.76z M172.18,103.75c-0.31,0.02-0.58,0.02-0.83,0.06c-5.65,1.01-10.55,6.46-10.74,12.21
		c-0.15,4.68-0.06,9.36-0.07,14.04c0,0.21,0.06,0.43,0.09,0.61c3.9,0,7.72,0,11.55,0C172.18,121.66,172.18,112.73,172.18,103.75z
		 M183.82,130.72c0-5.23,0-10.33,0-15.44c-2.59,0-5.12,0-7.63,0c0,5.19,0,10.29,0,15.44C178.75,130.72,181.25,130.72,183.82,130.72z
		 M183.83,103.59c-2.58,0-5.1,0-7.64,0c0,2.6,0,5.12,0,7.63c2.6,0,5.12,0,7.64,0C183.83,108.63,183.83,106.13,183.83,103.59z
		 M152.63,82.04c0-1.33,0-2.56,0-3.8c-1.29,0-2.5,0-3.72,0c0,1.3,0,2.53,0,3.8C150.17,82.04,151.35,82.04,152.63,82.04z
		 M144.99,115.14c1.28,0,2.48,0,3.74,0c0-1.28,0-2.51,0-3.78c-1.28,0-2.48,0-3.74,0C144.99,112.65,144.99,113.88,144.99,115.14z
		 M215.03,111.39c-1.3,0-2.53,0-3.77,0c0,1.28,0,2.48,0,3.72c1.29,0,2.52,0,3.77,0C215.03,113.83,215.03,112.63,215.03,111.39z
		 M145,126.91c0,1.33,0,2.55,0,3.78c1.29,0,2.5,0,3.72,0c0-1.29,0-2.52,0-3.78C147.45,126.91,146.28,126.91,145,126.91z
		 M211.25,130.7c1.33,0,2.53,0,3.76,0c0-1.3,0-2.53,0-3.75c-1.29,0-2.5,0-3.76,0C211.25,128.21,211.25,129.42,211.25,130.7z
		 M211.27,80.16c0,1.28,0,2.5,0,3.74c1.3,0,2.51,0,3.74,0c0-1.29,0-2.49,0-3.74C213.74,80.16,212.55,80.16,211.27,80.16z"/>
	<path class="st3" d="M185.86,161.98c0,1.74,0,3.33,0,4.92c-0.01,2.24-0.63,2.87-2.83,2.88c-2.09,0-4.18,0.01-6.27,0
		c-1.9-0.01-2.6-0.71-2.62-2.63c-0.02-1.67,0-3.33,0-5.17c-1.67,0-3.25,0-4.83,0c-2.38,0-2.96-0.59-2.96-2.97
		c0-2.05-0.01-4.11,0-6.16c0.01-1.86,0.7-2.56,2.54-2.58c1.7-0.02,3.4,0,5.26,0c0-1.7,0-3.29,0-4.87c0-2.32,0.6-2.93,2.88-2.93
		c2.09,0,4.18-0.02,6.27,0c1.84,0.02,2.54,0.72,2.56,2.57c0.02,1.7,0,3.4,0,5.23c1.76,0,3.38-0.01,5.01,0
		c2.15,0.01,2.78,0.64,2.79,2.79c0.01,2.05,0.01,4.11,0,6.16c-0.01,2.08-0.67,2.75-2.71,2.76
		C189.32,161.98,187.69,161.98,185.86,161.98z M189.7,154.17c-1.15,0-2.24,0-3.33,0c-4.41,0-4.41,0-4.41-4.35c0-1.13,0-2.25,0-3.39
		c-1.38,0-2.58,0-3.91,0c0,1.85,0.03,3.63-0.01,5.4c-0.03,1.6-0.7,2.27-2.3,2.33c-0.87,0.03-1.75,0.01-2.62,0.01
		c-0.93,0-1.86,0-2.78,0c0,1.41,0,2.6,0,3.9c0.46,0,0.83,0,1.21,0c1.33,0,2.66-0.01,3.99,0c1.84,0.02,2.48,0.64,2.51,2.45
		c0.02,1.03,0,2.05,0,3.08c0,0.74,0,1.47,0,2.17c1.42,0,2.62,0,3.91,0c0-1.72-0.01-3.35,0-4.98c0.01-2.14,0.58-2.72,2.7-2.73
		c1.66-0.01,3.32,0,5.04,0C189.7,156.72,189.7,155.52,189.7,154.17z"/>
	<path class="st3" d="M215.1,99.61c1.58,0,3.02,0,4.45,0c1.75,0,3.5-0.03,5.25,0.03c1.16,0.04,1.91,0.8,1.96,1.83
		c0.05,0.98-0.7,1.81-1.81,1.99c-0.34,0.05-0.68,0.05-1.02,0.05c-7.19,0-14.38,0-21.57,0c-0.23,0-0.46,0.01-0.68-0.01
		c-1.35-0.1-2.19-0.89-2.15-2.02c0.04-1.1,0.85-1.81,2.16-1.87c0.52-0.02,1.04,0,1.69,0c0-1.77-0.01-3.4,0-5.03
		c0.01-2.16,0.63-2.78,2.79-2.79c2.09-0.01,4.18-0.01,6.28,0c2,0.01,2.64,0.67,2.65,2.7C215.1,96.16,215.1,97.82,215.1,99.61z
		 M207.37,95.76c0,1.3,0,2.52,0,3.78c1.28,0,2.48,0,3.73,0c0-1.29,0-2.51,0-3.78C209.85,95.76,208.69,95.76,207.37,95.76z"/>
	<path class="st3" d="M146.88,99.61c1.72,0,3.34,0,4.97,0c1.41,0,2.81-0.01,4.22,0c1.59,0.02,2.45,0.69,2.47,1.9
		c0.02,1.24-0.9,1.98-2.52,1.99c-3.12,0.01-6.23,0-9.35,0c-2.93,0-5.85,0.01-8.78,0c-2.04-0.01-2.68-0.64-2.68-2.64
		c-0.01-2.24-0.02-4.48,0-6.73c0.02-1.6,0.68-2.3,2.29-2.33c2.36-0.04,4.71-0.04,7.07,0c1.63,0.03,2.31,0.77,2.32,2.44
		C146.89,95.99,146.88,97.73,146.88,99.61z M139.16,99.54c1.32,0,2.52,0,3.74,0c0-1.3,0-2.52,0-3.76c-1.29,0-2.49,0-3.74,0
		C139.16,97.05,139.16,98.25,139.16,99.54z"/>
</g>
</svg>
