<?xml version="1.0" encoding="utf-8"?>
<!-- Generator: Adobe Illustrator 24.0.1, SVG Export Plug-In . SVG Version: 6.00 Build 0)  -->
<svg version="1.1" id="Layer_1" xmlns="http://www.w3.org/2000/svg" xmlns:xlink="http://www.w3.org/1999/xlink" x="0px" y="0px"
	 viewBox="0 0 360 360" style="enable-background:new 0 0 360 360;" xml:space="preserve">
<style type="text/css">
	.st0{fill:#86D2DB;}
	.st1{fill:#FAC214;}
	.st2{fill:#34419A;}
	.st3{fill:#FFFFFF;}
	.st4{fill:#569ED6;}
	.st5{fill:#BC3C96;}
	.st6{fill:#34BCAD;}
	.st7{fill:#3471B8;}
	.st8{fill:none;stroke:#181818;stroke-miterlimit:10;}
	.st9{fill:#058E80;}
	.st10{fill:#66A042;}
	.st11{fill:#F9F9F9;}
	.st12{fill:#AFB736;}
	.st13{fill:#EF574F;}
	.st14{fill:#BE98C5;}
	.st15{fill:#FAA21B;}
	.st16{fill:#007B69;}
	.st17{fill:#533B97;}
	.st18{fill:#FECF07;}
	.st19{fill:#214184;}
	.st20{fill:#CD6BAA;}
	.st21{fill:#C51E59;}
	.st22{fill:#9C4E9E;}
	.st23{fill:#1B9CD8;}
	.st24{fill:#1F3C72;}
	.st25{fill:#4D4E8C;}
	.st26{fill:#026D60;}
	.st27{fill:#DA312A;}
	.st28{fill:#F36F42;}
	.st29{fill:#898989;}
</style>
<path class="st25" d="M94.82,45.22c-28.87,30.63-38.65,65.76-32.2,104.2c1.95,11.6,6.03,21.03,11.37,29.67
	c6.26,9.59,12.71,19.02,19.47,28.16c43.77,53.45,58.7,59.51,86.32,146.36c0.18,0.57,0.3,0.52,0.47-0.02
	c27.62-86.83,42.55-92.89,86.31-146.34c6.76-9.14,13.2-18.56,19.47-28.16c5.34-8.64,9.42-18.07,11.37-29.67
	c6.45-38.44-3.33-73.56-32.2-104.2C219.59-3.17,140.41-3.17,94.82,45.22"/>
<g>
	<path class="st3" d="M110.52,162.04c0.85-0.54,1.63-1.27,2.56-1.59c13.03-4.61,26.08-9.19,39.15-13.71
		c1.48-0.51,2.08-1.15,2.08-2.81c-0.02-4.21,0.24-8.43,0.34-12.64c0.01-0.6-0.14-1.25-0.36-1.81c-1.27-3.29-2.56-6.56-3.89-9.83
		c-0.16-0.4-0.51-0.97-0.84-1.03c-2.3-0.39-3.63-1.96-4.69-3.8c-2.18-3.77-3.35-7.91-4.15-12.15c-0.44-2.31-0.62-4.66-0.81-7.01
		c-0.07-0.84,0-1.8,0.36-2.53c0.78-1.6,0.71-3.25,0.68-4.91c-0.1-5.86,0.1-11.7,1.7-17.39c3.83-13.59,12.86-21.55,26.52-24.42
		c2.34-0.49,4.72-0.73,7.09-1.09c2.99,0,5.97,0,8.96,0c2.73,0.37,5.47,0.62,8.17,1.12c7.4,1.37,14.01,4.25,18.75,10.44
		c3.62,4.73,5.54,10.22,6.14,16.04c0.59,5.71,0.6,11.48,0.9,17.22c0.04,0.7,0.16,1.44,0.42,2.09c0.9,2.25,0.69,4.54,0.4,6.84
		c-0.61,4.83-1.78,9.53-3.84,13.95c-0.6,1.3-1.37,2.59-2.33,3.63c-0.75,0.82-1.87,1.57-2.93,1.76c-1.26,0.22-1.64,0.75-2,1.87
		c-0.93,2.88-2.1,5.68-3.09,8.54c-0.37,1.08-0.72,2.24-0.73,3.36c-0.04,4.22,0.09,8.43,0.1,12.65c0,0.95,0.27,1.41,1.22,1.73
		c13.65,4.63,27.28,9.3,40.91,13.97c0.26,0.09,0.52,0.17,0.76,0.28c1.19,0.55,1.69,1.65,1.27,2.78c-0.43,1.12-1.53,1.68-2.76,1.27
		c-3.99-1.33-7.96-2.7-11.93-4.06c-9.36-3.2-18.72-6.41-28.08-9.61c-0.47-0.16-0.94-0.29-1.57-0.48c-0.05,0.8-0.12,1.51-0.15,2.22
		c-0.3,9.52-0.61,19.03-0.86,28.55c-0.03,1.32-0.29,2.39-1.4,3.15c-0.54,0-1.09,0-1.63,0c-2.06-1.31-1.09-3.46-1.39-5.39
		c-1.6,1.88-3.09,3.64-4.58,5.39c-0.54,0-1.09,0-1.63,0c-0.77-0.81-1.56-1.6-2.32-2.42c-3-3.26-5.98-6.53-8.98-9.8
		c-1.18-1.29-2.83-1.28-4.01,0.01c-3.77,4.07-7.54,8.14-11.31,12.21c-0.54,0-1.09,0-1.63,0c-1.55-1.84-3.11-3.67-4.79-5.66
		c-0.07,2.13,0.94,4.24-1.18,5.66c-0.54,0-1.09,0-1.63,0c-0.46-0.82-1.26-1.62-1.32-2.47c-0.56-7.5-0.98-15.02-1.45-22.53
		c-0.18-2.93-0.39-5.86-0.59-8.93c-0.52,0.16-0.94,0.28-1.35,0.43c-12.84,4.49-25.67,8.99-38.51,13.48c-2,0.7-2.42,0.59-3.76-0.93
		C110.52,163.12,110.52,162.58,110.52,162.04z M152,98.45c0,0.68-0.04,1.15,0.01,1.62c0.38,3.97,0.6,7.96,1.19,11.89
		c1.07,7.01,3.24,13.69,7.46,19.48c6.08,8.35,14.16,12.24,24.53,10.16c7.05-1.42,11.78-6.05,15.26-12.1
		c3.28-5.69,5-11.92,5.93-18.37c0.52-3.61,0.79-7.25,1.21-11.2c-5.16,4.77-10.9,5.13-16.73,3.13c-6.55-2.25-7.91-8.1-8.54-14.22
		c-0.82,0-1.54,0-2.26,0c-0.7,0-1.4,0-2.07,0c-0.81,8.39-3.75,12.91-9.35,14.58C162.04,105.39,156.12,103.68,152,98.45z
		 M207.15,81.66c-0.43-3.72-1.25-7.45-3.15-10.88c-3.42-6.16-8.67-8.88-15.61-7.79c-5.51,0.86-10.97,0.94-16.48,0.11
		c-2.89-0.43-5.79-0.83-8.62,0.69c-7.33,3.94-9.85,10.63-10.88,18.46c0.73-0.24,1.28-0.43,1.83-0.61c7.31-2.37,14.52-2.1,21.3,1.55
		c2.16,1.16,4.19,1.31,6.41,1.3c0.3,0,0.67-0.02,0.9-0.18c4.7-3.24,9.99-4.4,15.57-4.08C201.32,80.39,204.19,81.15,207.15,81.66z
		 M147.45,87.72c0.28-2.57,0.47-5.11,0.85-7.61c0.78-5.07,2.24-9.94,5.56-13.97c4.4-5.35,9.75-8.77,17.1-7.52
		c6.22,1.05,12.41,1.01,18.62-0.18c2.5-0.48,5.04-0.4,7.47,0.64c5.07,2.18,8.88,5.67,11.28,10.67c1.61,3.34,2.49,6.89,2.93,10.55
		c0.3,2.54,0.47,5.09,0.69,7.6c0.97-0.05,1.86-0.09,2.83-0.14c0.11-6.51-0.08-12.96-1.81-19.28c-2.45-8.96-8.11-14.71-17.08-17.01
		c-8.76-2.25-17.63-2.49-26.5-0.68c-5.88,1.2-11.12,3.76-15.34,8.14c-4.43,4.59-6.77,10.21-7.95,16.38
		c-0.78,4.11-0.94,8.25-0.77,12.42C146.11,87.72,146.77,87.72,147.45,87.72z M200.76,136.8c-10.29,12.18-29.91,13.59-41.94-0.25
		c-0.1,3.19-0.23,6.2-0.25,9.21c0,0.64,0.26,1.45,0.69,1.91c4.04,4.4,8.06,8.82,12.27,13.06c2.16,2.17,4.68,3.97,7.07,5.9
		c0.93,0.75,1.93,0.7,2.86-0.03c1.07-0.83,2.18-1.63,3.17-2.55c5.77-5.4,10.8-11.45,15.68-17.64c0.23-0.3,0.42-0.73,0.43-1.1
		C200.78,142.6,200.76,139.89,200.76,136.8z M185.37,169.63c2.69,2.94,5.63,6.15,8.63,9.43c1.93-2.48,3.75-4.79,5.53-7.13
		c0.25-0.33,0.35-0.83,0.37-1.25c0.19-5.34,0.36-10.68,0.52-16.02c0.01-0.33-0.05-0.66-0.07-0.81
		C195.4,159.07,190.44,164.3,185.37,169.63z M158.75,154.3c0.29,4.43,0.73,8.86,0.8,13.29c0.04,2.48,0.8,4.41,2.41,6.22
		c1.46,1.63,2.72,3.44,4.13,5.26c3.04-3.31,5.94-6.47,8.91-9.7C168.93,164.96,164,159.55,158.75,154.3z M154.94,86.02
		c0.14,2.76,0.14,5.53,0.45,8.26c0.33,2.92,2.02,4.71,4.84,5.08c2.03,0.27,4.15,0.28,6.19,0.04c2.64-0.3,4.58-1.86,5.7-4.31
		c1.07-2.34,1.54-4.83,1.38-7.4c-0.02-0.39-0.37-0.94-0.72-1.09C167,83.98,161.11,83.85,154.94,86.02z M205.42,89.5
		c-0.05-0.01-0.1-0.01-0.15-0.02c0-0.91,0.07-1.82-0.03-2.71c-0.05-0.38-0.41-0.92-0.74-1.03c-5.73-1.86-11.38-1.69-16.89,0.84
		c-0.37,0.17-0.76,0.77-0.78,1.19c-0.14,2.52,0.29,4.96,1.34,7.27c1.02,2.24,2.74,3.68,5.12,4.28c2.46,0.62,4.92,0.55,7.38-0.07
		c2.23-0.57,3.65-2,4.09-4.24C205.09,93.19,205.2,91.33,205.42,89.5z M210.44,113.96c0.4-0.48,0.58-0.63,0.68-0.82
		c3.09-5.57,4.57-11.58,4.67-17.91c0.01-0.81-0.48-1.81-1.07-2.39c-0.46-0.44-1.45-0.52-2.16-0.43c-0.3,0.04-0.66,0.93-0.69,1.45
		c-0.22,3.98-0.29,7.96-0.55,11.94C211.15,108.41,210.76,111,210.44,113.96z M148.3,112.47c0.08-0.04,0.17-0.09,0.25-0.13
		c-0.43-6.71-0.87-13.41-1.32-20.49c-0.77,0.43-1.68,0.64-2.01,1.19c-0.53,0.88-1.03,2.03-0.94,3c0.27,2.82,0.67,5.66,1.35,8.41
		C146.31,107.18,147.39,109.8,148.3,112.47z"/>
	<path class="st3" d="M173.81,118.02c1.62,0.57,3.42,1.12,5.16,1.84c0.92,0.39,1.72,0.5,2.52-0.08c3.35-2.42,6.83-1.26,10.27-0.32
		c1.18,0.32,1.7,1.47,1.4,2.58c-0.3,1.12-1.29,1.75-2.49,1.6c-0.18-0.02-0.35-0.07-0.53-0.13c-2.66-0.88-5.19-1.1-7.72,0.62
		c-1.42,0.97-3.18,0.83-4.66-0.06c-2.74-1.66-5.52-1.66-8.45-0.65c-1.52,0.53-2.73-0.02-3.1-1.25c-0.41-1.34,0.25-2.44,1.9-2.88
		C169.9,118.82,171.71,118.48,173.81,118.02z"/>
	<path class="st3" d="M179.99,111.78c-0.86-0.18-1.91-0.42-2.97-0.62c-1.1-0.21-2.21-0.4-3.33-0.54c-1.36-0.17-2.2-1.04-2.14-2.31
		c0.06-1.2,0.94-2.1,2.26-2.01c1.47,0.1,2.92,0.52,4.4,0.65c1.32,0.12,2.66,0.12,3.98,0c1.56-0.13,3.11-0.56,4.67-0.63
		c1.11-0.05,1.84,0.73,1.98,1.85c0.14,1.13-0.38,2.06-1.46,2.29C185.01,110.97,182.61,111.32,179.99,111.78z"/>
	<path class="st3" d="M180.09,130.19c-0.77,0-1.54,0.05-2.31-0.01c-1.21-0.09-2.05-0.98-2.07-2.11c-0.02-1.19,0.84-2.15,2.12-2.2
		c1.49-0.06,2.99-0.06,4.48,0c1.21,0.05,2.05,0.97,2.07,2.11c0.03,1.18-0.84,2.12-2.12,2.2
		C181.54,130.23,180.81,130.19,180.09,130.19z"/>
	<path class="st3" d="M167.08,91.91c-1.68,1.82-2.91,1.73-4.37-0.44c-0.46,0.17-0.94,0.39-1.45,0.52c-1.1,0.29-2-0.09-2.5-1.09
		c-0.49-0.99-0.32-1.95,0.57-2.68c2.06-1.67,6.94-2.02,9.3-0.67c1.52,0.87,2.08,1.97,1.62,3.16
		C169.81,91.87,168.79,92.26,167.08,91.91z"/>
	<path class="st3" d="M197.62,91.48c-1.6,2.19-2.78,2.27-4.47,0.4c-1.68,0.4-2.68,0.03-3.16-1.17c-0.45-1.12,0.02-2.13,1.4-3
		c2.43-1.52,7.46-1.23,9.65,0.57c0.84,0.69,1.02,1.62,0.6,2.57c-0.45,1.03-1.34,1.45-2.45,1.21
		C198.68,91.94,198.19,91.69,197.62,91.48z"/>
</g>
</svg>
