<?xml version="1.0" encoding="utf-8"?>
<!-- Generator: Adobe Illustrator 24.0.1, SVG Export Plug-In . SVG Version: 6.00 Build 0)  -->
<svg version="1.1" id="Layer_1" xmlns="http://www.w3.org/2000/svg" xmlns:xlink="http://www.w3.org/1999/xlink" x="0px" y="0px"
	 viewBox="0 0 360 360" style="enable-background:new 0 0 360 360;" xml:space="preserve">
<style type="text/css">
	.st0{fill:#86D2DB;}
	.st1{fill:#FAC214;}
	.st2{fill:#34419A;}
	.st3{fill:#FFFFFF;}
	.st4{fill:#569ED6;}
	.st5{fill:#BC3C96;}
	.st6{fill:#34BCAD;}
	.st7{fill:#3471B8;}
	.st8{fill:none;stroke:#181818;stroke-miterlimit:10;}
	.st9{fill:#058E80;}
	.st10{fill:#66A042;}
	.st11{fill:#F9F9F9;}
	.st12{fill:#AFB736;}
	.st13{fill:#EF574F;}
	.st14{fill:#BE98C5;}
	.st15{fill:#FAA21B;}
	.st16{fill:#007B69;}
	.st17{fill:#533B97;}
	.st18{fill:#FECF07;}
	.st19{fill:#214184;}
	.st20{fill:#CD6BAA;}
	.st21{fill:#C51E59;}
	.st22{fill:#9C4E9E;}
	.st23{fill:#1B9CD8;}
	.st24{fill:#1F3C72;}
	.st25{fill:#4D4E8C;}
	.st26{fill:#026D60;}
	.st27{fill:#DA312A;}
	.st28{fill:#F36F42;}
	.st29{fill:#898989;}
</style>
<path class="st23" d="M261.71,152.98c0,9.25,0,18.29,0,27.44c-54.49,0-108.95,0-163.4,0c-0.01-0.07-0.01-0.14-0.02-0.21
	C152.71,171.14,207.12,162.07,261.71,152.98z"/>
<path class="st24" d="M168.58,70.58c0.59,4.19,1.19,8.37,1.8,12.68c8.13,0,16.2,0,24.37,0c0,3.26,0,6.4,0,9.71
	c-7.64,0-15.27,0-22.98,0c0.61,4.25,1.19,8.32,1.8,12.57c0.51,0,0.99,0,1.48,0c9.35,0,18.71,0.01,28.06-0.02
	c0.98,0,1.45,0.25,1.84,1.22c3.62,9.18,7.31,18.33,10.98,27.49c0.15,0.38,0.32,0.75,0.53,1.22c2.7-1.34,5.31-2.64,8.04-3.99
	c1.46,2.92,2.86,5.73,4.34,8.67c-5.85,2.93-11.58,5.79-17.45,8.73c-0.34-0.78-0.67-1.49-0.96-2.21c-3.65-9.08-7.3-18.17-10.95-27.25
	c-0.41-1.01-0.85-2.02-1.16-3.06c-0.26-0.89-0.73-1.11-1.63-1.11c-9.94,0.03-19.88,0.02-29.83,0.02c-0.54,0-1.08,0-1.71,0
	c-0.45-3.11-0.89-6.09-1.32-9.07c-0.9-6.24-1.79-12.47-2.68-18.71c-0.8-5.57-1.61-11.14-2.36-16.72c-0.19-1.4-0.61-2.49-1.72-3.55
	c-3.74-3.54-4.98-7.98-3.46-12.91c1.52-4.94,4.96-8.06,10.13-8.9c6.8-1.11,13.1,3.15,14.56,9.68c1.51,6.75-2.32,13.17-9.06,15.2
	C169.05,70.33,168.87,70.45,168.58,70.58z"/>
<path class="st24" d="M157.42,78.22c0.31,2.03,0.62,3.96,0.91,5.9c0.21,1.41,0.29,2.85,0.59,4.24c0.2,0.9-0.1,1.23-0.85,1.62
	c-7.22,3.77-12.28,9.47-14.97,17.17c-6.36,18.25,5.47,37.82,24.47,40.58c13.62,1.98,26.65-5.09,32.46-17.61
	c0.16-0.34,0.34-0.66,0.65-1.25c0.78,2,1.47,3.77,2.15,5.54c0.8,2.08,1.53,4.19,2.42,6.22c0.45,1.01,0.25,1.66-0.43,2.46
	c-7.43,8.7-16.67,14.16-28.08,15.64c-18,2.34-35.31-7.99-42.65-24.03c-9.88-21.59,0.23-47.16,22.24-56.15
	C156.65,78.44,156.97,78.37,157.42,78.22z"/>
</svg>
