<?xml version="1.0" encoding="utf-8"?>
<!-- Generator: Adobe Illustrator 24.0.1, SVG Export Plug-In . SVG Version: 6.00 Build 0)  -->
<svg version="1.1" id="Layer_1" xmlns="http://www.w3.org/2000/svg" xmlns:xlink="http://www.w3.org/1999/xlink" x="0px" y="0px"
	 viewBox="0 0 360 360" style="enable-background:new 0 0 360 360;" xml:space="preserve">
<style type="text/css">
	.st0{fill:#86D2DB;}
	.st1{fill:#FAC214;}
	.st2{fill:#34419A;}
	.st3{fill:#FFFFFF;}
	.st4{fill:#569ED6;}
	.st5{fill:#BC3C96;}
	.st6{fill:#34BCAD;}
	.st7{fill:#3471B8;}
	.st8{fill:none;stroke:#181818;stroke-miterlimit:10;}
	.st9{fill:#058E80;}
	.st10{fill:#66A042;}
	.st11{fill:#F9F9F9;}
	.st12{fill:#AFB736;}
	.st13{fill:#EF574F;}
	.st14{fill:#BE98C5;}
	.st15{fill:#FAA21B;}
	.st16{fill:#007B69;}
	.st17{fill:#533B97;}
	.st18{fill:#FECF07;}
	.st19{fill:#214184;}
	.st20{fill:#CD6BAA;}
	.st21{fill:#C51E59;}
	.st22{fill:#9C4E9E;}
	.st23{fill:#1B9CD8;}
	.st24{fill:#1F3C72;}
	.st25{fill:#4D4E8C;}
	.st26{fill:#026D60;}
	.st27{fill:#DA312A;}
	.st28{fill:#F36F42;}
	.st29{fill:#898989;}
</style>
<path class="st5" d="M94.82,45.22c-28.87,30.63-38.65,65.76-32.2,104.2c1.95,11.6,6.03,21.03,11.37,29.67
	c6.26,9.59,12.71,19.02,19.47,28.16c43.77,53.45,58.7,59.51,86.32,146.36c0.18,0.57,0.3,0.52,0.47-0.02
	c27.62-86.83,42.55-92.89,86.31-146.34c6.76-9.14,13.2-18.56,19.47-28.16c5.34-8.64,9.42-18.07,11.37-29.67
	c6.45-38.44-3.33-73.56-32.2-104.2C219.59-3.17,140.41-3.17,94.82,45.22"/>
<g>
	<path class="st3" d="M124.71,180.59c-2.34-0.98-3.16-2.78-3.07-5.26c0.14-3.79-0.05-7.59,0.17-11.37
		c0.76-12.85,6.52-23.05,16.85-30.63c5.76-4.23,12.3-6.61,19.43-7.27c0.21-0.02,0.42-0.08,0.82-0.16c-1.08-1.2-2.12-2.24-3.03-3.38
		c-7.3-9.21-9.08-19.42-5.34-30.55c0.37-1.09,0.26-1.72-0.65-2.45c-2.64-2.12-3.88-4.91-3.81-8.33c0.02-0.66-0.31-1.46-0.73-1.98
		c-3.53-4.34-7.13-8.63-10.69-12.95c-2.63-3.18-1.76-6.13,2.15-7.39c13.61-4.38,27.23-8.75,40.84-13.17
		c1.67-0.54,3.23-0.52,4.89,0.02c13.6,4.41,27.22,8.78,40.84,13.16c3.84,1.24,4.71,4.2,2.14,7.32c-3.59,4.35-7.21,8.68-10.78,13.05
		c-0.38,0.47-0.69,1.17-0.67,1.75c0.09,3.67-1.29,6.61-4.16,8.85c-0.69,0.53-0.86,1-0.57,1.87c4.21,12.63,1.67,23.75-7.58,33.34
		c-0.21,0.22-0.41,0.45-0.74,0.81c1.82,0.29,3.52,0.45,5.16,0.85c16.59,4.07,27.07,14.39,31.14,30.99c0.77,3.13,0.78,6.46,0.96,9.7
		c0.15,2.64-0.06,5.29,0.06,7.93c0.11,2.48-0.73,4.27-3.07,5.26C198.43,180.59,161.57,180.59,124.71,180.59z M129.91,172.38
		c15.52,0,31.05,0,46.57,0c0-11.36,0-22.61,0-34.02c-0.4,0.33-0.67,0.53-0.93,0.75c-4.56,3.9-9.11,7.8-13.67,11.68
		c-3.12,2.66-6.09,1.82-7.44-2.07c-1.28-3.7-2.54-7.41-3.8-11.12c-0.15-0.44-0.32-0.88-0.48-1.32
		C136.27,141.82,128.04,155.35,129.91,172.38z M201.7,94.46c-14.47,4.28-28.94,4.26-43.39-0.05c-3.44,8.22-1.36,19.51,7.18,26.31
		c8.58,6.82,20.37,6.83,28.97,0.02C203.03,113.96,205.12,102.66,201.7,94.46z M184.78,138.78c0,11.39,0,22.48,0,33.62
		c15.17,0,30.26,0,45.33,0c1.87-18-7.17-30.74-19.73-35.87c-0.16,0.45-0.33,0.9-0.48,1.35c-1.24,3.67-2.47,7.34-3.72,11
		c-1.26,3.69-4.31,4.52-7.3,1.98c-2.08-1.77-4.15-3.56-6.22-5.33C190.09,143.33,187.53,141.14,184.78,138.78z M215.97,65.06
		c-0.51-0.19-0.91-0.36-1.32-0.5c-11.14-3.58-22.28-7.17-33.43-10.7c-0.69-0.22-1.57-0.22-2.26,0
		c-11.15,3.54-22.29,7.13-33.43,10.71c-0.41,0.13-0.8,0.31-1.3,0.5c2.1,2.53,4.23,4.89,6.1,7.44c1.45,1.99,2.9,3.17,5.34,1.73
		c0.04-0.02,0.09-0.01,0.13-0.03c7.96-2,16.1-2.53,24.25-2.5c9.03,0.04,18.06,0.48,26.79,3.22c0.33,0.1,0.93-0.02,1.13-0.26
		C210.64,71.52,213.27,68.32,215.97,65.06z M154.99,82.64c-0.06,0.25-0.13,0.5-0.19,0.75c1.39,0.81,2.71,1.77,4.17,2.42
		c4.43,1.96,9.12,2.87,13.92,3.33c8.99,0.87,17.85,0.36,26.47-2.56c2.19-0.74,4.31-1.7,5.9-3.72
		C188.49,78.76,171.74,78.74,154.99,82.64z M160.48,141.34c2.88-2.46,5.59-4.79,8.37-7.17c-3.69,0-7.2,0-10.83,0
		C158.87,136.65,159.64,138.88,160.48,141.34z M202.6,134.18c-3.62,0-7.09,0-10.66,0c0.26,0.24,0.49,0.48,0.73,0.7
		c2.46,2.11,4.92,4.21,7.52,6.42C201,138.89,201.76,136.67,202.6,134.18z"/>
	<path class="st3" d="M208.83,160.45c2.07,0,4.14-0.03,6.21,0.01c2.47,0.04,4.16,1.69,4.17,4c0.01,2.31-1.65,4-4.13,4.03
		c-4.1,0.05-8.2,0.05-12.29,0c-2.45-0.03-4.15-1.78-4.12-4.06c0.03-2.28,1.76-3.94,4.21-3.97
		C204.87,160.43,206.85,160.45,208.83,160.45z"/>
</g>
</svg>
