<?xml version="1.0" encoding="utf-8"?>
<!-- Generator: Adobe Illustrator 24.0.1, SVG Export Plug-In . SVG Version: 6.00 Build 0)  -->
<svg version="1.1" id="Layer_1" xmlns="http://www.w3.org/2000/svg" xmlns:xlink="http://www.w3.org/1999/xlink" x="0px" y="0px"
	 viewBox="0 0 360 360" style="enable-background:new 0 0 360 360;" xml:space="preserve">
<style type="text/css">
	.st0{fill:#86D2DB;}
	.st1{fill:#FAC214;}
	.st2{fill:#34419A;}
	.st3{fill:#FFFFFF;}
	.st4{fill:#569ED6;}
	.st5{fill:#BC3C96;}
	.st6{fill:#34BCAD;}
	.st7{fill:#3471B8;}
	.st8{fill:#058E80;}
	.st9{fill:#66A042;}
	.st10{fill:#F9F9F9;}
	.st11{fill:#AFB736;}
	.st12{fill:#EF574F;}
	.st13{fill:#BE98C5;}
	.st14{fill:#FAA21B;}
	.st15{fill:#007B69;}
	.st16{fill:#533B97;}
	.st17{fill:#214184;}
	.st18{fill:#CD6BAA;}
	.st19{fill:#C51E59;}
	.st20{fill:#9C4E9E;}
	.st21{fill:#1B9CD8;}
	.st22{fill:#1F3C72;}
	.st23{fill:#4D4E8C;}
	.st24{fill:#026D60;}
	.st25{fill:#F36F42;}
	.st26{fill:#898989;}
	.st27{fill:#DA312A;}
	.st28{fill:#FECF07;}
</style>
<g>
	<g>
		<g>
			<path class="st28" d="M117.97,172.48c6.17,2.9,12.07,5.58,17.84,8.52c0.74,0.38,1.18,2.1,1.12,3.16
				c-0.45,8.67-0.93,17.34-1.65,25.99c-0.75,9,4.71,16.02,13.3,16.72c8.45,0.69,15.25-5.55,15.78-14.38
				c0.77-12.89,1.58-25.77,2.41-38.65c0.42-6.54-2.68-11.98-8.79-14.94c-9.65-4.68-19.37-9.23-28.99-13.99
				c-1.07-0.53-2.34-2.01-2.37-3.08c-0.2-7.42-0.11-14.85-0.09-22.28c0-0.4,0.13-0.81,0.29-1.75c1.17,1.29,2.12,2.09,2.77,3.09
				c3.99,6.19,9.69,9.39,16.95,10.11c10.79,1.07,21.54,2.64,32.35,3.2c9.87,0.52,15.8-9.42,11.53-18.38
				c-1.86-3.91-4.84-6.2-9.25-6.65c-9.09-0.93-18.15-2.07-27.25-2.9c-2.63-0.24-4.39-1.23-6-3.26c-8-10.13-16.03-20.24-24.26-30.18
				c-2.3-2.78-5.21-5.12-8.11-7.32c-4.49-3.4-9.65-3.82-14.55-1.29c-4.84,2.5-9.51,5.46-13.92,8.68
				c-10.43,7.61-20.67,15.48-30.96,23.27c-3.16,2.39-5.07,5.54-5.37,9.55c-1.03,13.78-2.14,27.56-3.05,41.35
				c-0.51,7.67,4.06,12.77,11.51,13.33c7.33,0.55,12.56-3.65,13.27-11.15c1.03-10.8,1.84-21.62,2.55-32.45
				c0.16-2.41,0.91-4,2.92-5.35c3.75-2.5,7.34-5.24,11.68-8.37c0,2.11,0,3.32,0,4.53c0,11.89-0.54,23.8,0.13,35.65
				c0.91,16.06-1.55,31.51-5.62,46.95c-5.06,19.19-9.45,38.55-14.13,57.83c-1.95,8.05,2.34,15.75,9.9,17.78
				c7.99,2.14,15.64-1.94,17.8-10.21c3.9-14.89,7.35-29.9,10.98-44.87C111.78,198.13,114.82,185.51,117.97,172.48z"/>
			<path class="st28" d="M143.06,33.03c0-13.6-11.27-24.87-24.86-24.85C104.68,8.2,93.33,19.59,93.35,33.13
				c0.02,13.53,11.37,24.85,24.94,24.86C131.87,57.99,143.05,46.72,143.06,33.03z"/>
		</g>
	</g>
	<path class="st17" d="M311.92,134.08c-1.33-4.49-4.97-7.2-9.91-7.21c-19.07-0.03-38.15-0.02-57.22-0.01
		c-7.37,0-11.22,3.83-11.23,11.17c-0.01,14.9,0,29.8,0,44.69c0,1.08,0,2.15,0,3.33c-3.75,0-7.47,0-11.18,0v0.02
		c-11.05,0-22.09-0.01-33.14,0.01c-6.93,0.01-10.86,3.95-10.88,10.9c-0.02,11.61-0.01,23.22-0.01,34.83c0,1.1,0,2.2,0,3.59
		c-1.4,0-2.5,0-3.6,0c-14.87,0-29.74-0.01-44.61,0.01c-6.92,0.01-10.84,3.96-10.86,10.92c-0.02,11.61-0.01,23.22-0.01,34.83
		c0,1.1,0,2.2,0,3.57c-1.42,0-2.52,0-3.63,0c-14.25,0-28.51,0.18-42.76-0.09c-6.04-0.11-10.3,1.85-12.69,7.49
		c0,18.09,0,36.17,0,54.26c3.3,6.04,7.19,8.35,12.06,7.14c5.25-1.31,7.63-5.17,7.63-12.4c0-11.1,0-22.19,0-33.29
		c0-1.08,0-2.16,0-3.37c16.25,0,32.03,0.01,47.82,0c7.37-0.01,11.24-3.84,11.25-11.16c0.02-11.61,0-23.22,0-34.83
		c0-1.08,0-2.15,0-3.33c16.38,0,32.27,0.01,48.16-0.01c6.93-0.01,10.89-3.96,10.9-10.89c0.03-11.4,0.01-22.81,0.01-34.21
		c0-1.31,0-2.61,0-4.22c1.4,0,2.5,0,3.6,0c9.55,0,19.09,0,28.64,0v-0.02c3.84,0,7.68,0,11.52,0c7.72,0,11.44-3.78,11.44-11.59
		c0.01-14.69,0-29.39,0-44.08c0-1.09,0-2.19,0-3.52c1.46,0,2.57,0,3.67,0c14.77,0,29.53,0.06,44.3-0.07
		c2.16-0.02,4.54-0.54,6.42-1.55C311.53,142.88,313.15,138.2,311.92,134.08z"/>
</g>
</svg>
