<?xml version="1.0" encoding="utf-8"?>
<!-- Generator: Adobe Illustrator 24.0.1, SVG Export Plug-In . SVG Version: 6.00 Build 0)  -->
<svg version="1.1" id="Layer_1" xmlns="http://www.w3.org/2000/svg" xmlns:xlink="http://www.w3.org/1999/xlink" x="0px" y="0px"
	 viewBox="0 0 360 360" style="enable-background:new 0 0 360 360;" xml:space="preserve">
<style type="text/css">
	.st0{fill:#86D2DB;}
	.st1{fill:#FAC214;}
	.st2{fill:#34419A;}
	.st3{fill:#FFFFFF;}
	.st4{fill:#569ED6;}
	.st5{fill:#BC3C96;}
	.st6{fill:#34BCAD;}
	.st7{fill:#3471B8;}
	.st8{fill:none;stroke:#181818;stroke-miterlimit:10;}
	.st9{fill:#058E80;}
	.st10{fill:#66A042;}
	.st11{fill:#F9F9F9;}
	.st12{fill:#AFB736;}
	.st13{fill:#EF574F;}
	.st14{fill:#BE98C5;}
	.st15{fill:#FAA21B;}
	.st16{fill:#007B69;}
	.st17{fill:#533B97;}
	.st18{fill:#FECF07;}
	.st19{fill:#214184;}
	.st20{fill:#CD6BAA;}
	.st21{fill:#C51E59;}
	.st22{fill:#9C4E9E;}
	.st23{fill:#1B9CD8;}
	.st24{fill:#1F3C72;}
	.st25{fill:#4D4E8C;}
	.st26{fill:#026D60;}
	.st27{fill:#DA312A;}
	.st28{fill:#F36F42;}
	.st29{fill:#898989;}
</style>
<path class="st29" d="M94.82,45.22c-28.87,30.63-38.65,65.76-32.2,104.2c1.95,11.6,6.03,21.03,11.37,29.67
	c6.26,9.59,12.71,19.02,19.47,28.16c43.77,53.45,58.7,59.51,86.32,146.36c0.18,0.57,0.3,0.52,0.47-0.02
	c27.62-86.83,42.55-92.89,86.31-146.34c6.76-9.14,13.2-18.56,19.47-28.16c5.34-8.64,9.42-18.07,11.37-29.67
	c6.45-38.44-3.33-73.56-32.2-104.2C219.59-3.17,140.41-3.17,94.82,45.22"/>
<g>
	<path class="st3" d="M241.31,102.58c-12.37,0-24.74,0-37.11,0c-0.56,0-1.13,0-1.83,0c0-0.69,0-1.21,0-1.73
		c0-3.77-0.03-7.54,0.01-11.31c0.03-2.77-1.01-5.08-2.86-7.06c-1.99-2.14-4.42-3.63-7.27-4.25c-1.87-0.41-3.8-0.49-5.92-0.74
		c0.21-0.42,0.33-0.87,0.6-1.19c0.6-0.69,1.31-1.28,1.91-1.98c3.15-3.64,4.07-8.07,4.62-12.71c1.04-8.91-6.98-16.57-15.8-14.93
		c-7.35,1.36-11.98,7.98-11.09,15.39c0.67,5.55,2.23,10.56,6.63,14.34c0.26,0.22,0.3,0.7,0.45,1.08c-2.05,0.24-3.95,0.27-5.76,0.7
		c-6.68,1.57-10.25,6.15-10.25,12.95c0,2.13,0,4.25,0,6.38c0,1.63,0,3.26,0,5.04c-0.72,0-1.28,0-1.85,0c-12.47,0-24.93,0-37.4,0
		c-2.07,0-3.01,0.79-3.02,2.64c-0.03,5.27-0.02,10.54,0,15.81c0.01,1.64,0.85,2.48,2.5,2.57c0.81,0.05,1.63,0.01,2.66,0.01
		c0,0.81,0,1.38,0,1.95c0,17.5,0,34.99,0,52.49c0,2.79,0.62,3.41,3.38,3.41c37.4,0,74.79,0,112.19,0c2.75,0,3.37-0.63,3.37-3.43
		c0-17.55,0-35.09,0-52.64c0-0.56,0-1.11,0-1.78c0.76,0,1.28,0,1.81,0c2.68-0.02,3.36-0.69,3.36-3.33c0-4.79,0-9.57,0-14.36
		C244.65,103.28,243.96,102.58,241.31,102.58z M179.94,50.78c4.89-0.05,8.96,3.94,8.9,9.21c-1.54-1.53-2.93-2.77-4.15-4.15
		c-1.64-1.84-2.35-1.98-4.44-0.73c-2.93,1.74-5.9,3.42-9.09,5.26C170.88,55.01,174.91,50.83,179.94,50.78z M171.74,65.13
		c3.39-1.8,6.66-3.53,9.82-5.21c2.11,1.56,4.16,3.05,6.18,4.6c0.25,0.2,0.48,0.71,0.41,1.01c-0.77,3.19-2.3,5.91-5.09,7.8
		c-2.09,1.41-4.16,1.36-6.19-0.06C173.97,71.25,172.46,68.39,171.74,65.13z M182.06,78.97c-0.41,0.98-0.61,1.92-1.16,2.54
		c-0.28,0.32-1.51,0.32-1.79,0c-0.55-0.62-0.75-1.57-1.16-2.54C179.47,78.97,180.54,78.97,182.06,78.97z M164.54,84.97
		c2.53-2.21,5.54-2.83,8.78-2.57c0.37,0.03,0.81,0.43,1.04,0.78c2.87,4.47,8.41,4.45,11.31-0.04c0.22-0.34,0.68-0.72,1.06-0.75
		c2.49-0.17,4.92,0.09,7.12,1.42c2.53,1.52,4.06,3.51,3.92,6.7c-0.17,3.95-0.04,7.91-0.04,12.01c-1.45,0-2.69,0-4.14,0
		c0-2.33,0-4.63,0-6.93c0-0.58,0.03-1.16-0.01-1.74c-0.1-1.5-1.01-2.41-2.36-2.39c-1.34,0.02-2.23,0.94-2.25,2.47
		c-0.03,2.8-0.01,5.6-0.01,8.52c-5.94,0-11.8,0-17.9,0c0-1.7,0-3.47,0-5.23c0-1.16,0.03-2.32-0.02-3.48
		c-0.06-1.4-0.99-2.28-2.29-2.28c-1.29,0.01-2.26,0.88-2.3,2.29c-0.07,2.27-0.03,4.54-0.03,6.81c0,0.62,0,1.23,0,1.92
		c-1.41,0-2.69,0-4.14,0c0-2.49,0-4.94,0-7.39c0-1.74,0.07-3.48-0.02-5.22C162.16,87.82,163.06,86.27,164.54,84.97z M234.78,176.71
		c-36.48,0-72.97,0-109.53,0c0-17.64,0-35.26,0-52.98c36.49,0,72.94,0,109.53,0C234.78,141.42,234.78,159.01,234.78,176.71z
		 M239.92,118.86c-39.9,0-79.82,0-119.89,0c0-3.88,0-7.64,0-11.52c39.96,0,79.88,0,119.89,0
		C239.92,111.14,239.92,114.94,239.92,118.86z"/>
	<path class="st3" d="M179.9,171.73c11.65,0.15,21.44-9.37,21.61-21.03c0.18-12.01-9.28-21.87-21.08-22.01
		c-11.93-0.14-21.73,9.29-21.89,21.05C158.36,161.9,167.75,171.56,179.9,171.73z M180.29,133.32c9.22,0.09,16.7,7.82,16.58,17.13
		c-0.12,9.26-7.71,16.72-16.91,16.62c-9.52-0.1-16.91-7.66-16.79-17.18C163.28,140.62,170.92,133.23,180.29,133.32z"/>
	<path class="st3" d="M171.93,141.63c1.59,0.08,3.22,0.14,4.84,0.26c1.75,0.12,3.34,1.52,3.53,3.16c-2.81,0-5.62,0-8.41,0
		c0,1.15,0,2.2,0,3.36c2.89,0,5.68,0,8.5,0c-0.69,2.03-2.19,3.09-4.56,3.21c-1.36,0.06-2.72,0.01-4.09,0.01c0,1.19,0,2.19,0,2.96
		c4.21,3.19,7.38,7.09,11.17,10.41c0.75-0.78,1.49-1.54,2.23-2.31c-2.55-2.62-5.1-5.24-7.7-7.91c3.26-0.96,5.48-3.05,6.45-6.49
		c1.48,0,2.95,0,4.4,0c0-1.14,0-2.16,0-3.3c-1.53,0-2.99,0-4.35,0c-0.53-1.17-1.01-2.19-1.54-3.35c2.01,0,3.95,0,5.89,0
		c0-1.15,0-2.18,0-3.32c-0.53,0-1,0-1.48,0c-4.08,0-8.16-0.03-12.24,0.02c-3.21,0.04-2.96-0.76-2.79,3.07
		C171.81,141.46,171.87,141.52,171.93,141.63z"/>
</g>
</svg>
