<?xml version="1.0" encoding="utf-8"?>
<!-- Generator: Adobe Illustrator 24.0.1, SVG Export Plug-In . SVG Version: 6.00 Build 0)  -->
<svg version="1.1" id="Layer_1" xmlns="http://www.w3.org/2000/svg" xmlns:xlink="http://www.w3.org/1999/xlink" x="0px" y="0px"
	 viewBox="0 0 360 360" style="enable-background:new 0 0 360 360;" xml:space="preserve">
<style type="text/css">
	.st0{fill:#86D2DB;}
	.st1{fill:#FAC214;}
	.st2{fill:#34419A;}
	.st3{fill:#FFFFFF;}
	.st4{fill:#569ED6;}
	.st5{fill:#BC3C96;}
	.st6{fill:#34BCAD;}
	.st7{fill:#3471B8;}
	.st8{fill:none;stroke:#181818;stroke-miterlimit:10;}
	.st9{fill:#058E80;}
	.st10{fill:#66A042;}
	.st11{fill:#F9F9F9;}
	.st12{fill:#AFB736;}
	.st13{fill:#EF574F;}
	.st14{fill:#BE98C5;}
	.st15{fill:#FAA21B;}
	.st16{fill:#007B69;}
	.st17{fill:#533B97;}
	.st18{fill:#FECF07;}
	.st19{fill:#214184;}
	.st20{fill:#CD6BAA;}
	.st21{fill:#C51E59;}
	.st22{fill:#9C4E9E;}
	.st23{fill:#1B9CD8;}
	.st24{fill:#1F3C72;}
	.st25{fill:#4D4E8C;}
	.st26{fill:#026D60;}
	.st27{fill:#DA312A;}
	.st28{fill:#F36F42;}
	.st29{fill:#898989;}
</style>
<path class="st14" d="M94.82,45.22c-28.87,30.63-38.65,65.76-32.2,104.2c1.95,11.6,6.03,21.03,11.37,29.67
	c6.26,9.59,12.71,19.02,19.47,28.16c43.77,53.45,58.7,59.51,86.32,146.36c0.18,0.57,0.3,0.52,0.47-0.02
	c27.62-86.83,42.55-92.89,86.31-146.34c6.76-9.14,13.2-18.56,19.47-28.16c5.34-8.64,9.42-18.07,11.37-29.67
	c6.45-38.44-3.33-73.56-32.2-104.2C219.59-3.17,140.41-3.17,94.82,45.22"/>
<path class="st3" d="M143.11,169.84c-10.98-6.64-18.45-15.66-22.42-27.52c-0.27-0.8-1.21-1.63-2.03-1.96
	c-3.25-1.29-4.73-3.67-4.79-7.05c-0.04-2.31-0.02-4.63-0.01-6.94c0.06-7.7,4.44-12.17,12.11-12.18c21.24-0.03,42.48-0.01,63.72-0.01
	c1.24,0,2.49,0,4.04,0c0.06-1.4,0.15-2.5,0.15-3.61c0.01-11.78-0.01-23.55,0.01-35.33c0.01-6.47,3.43-9.97,9.85-10.01
	c8.1-0.04,16.19-0.04,24.29,0c6.41,0.03,10.04,3.58,10.05,9.93c0.04,17.25,0.06,34.49-0.01,51.74c-0.03,8.5-5,15.08-12.87,17.42
	c-4.04,1.2-4.87,2.27-4.89,6.69c-0.03,10.3-0.39,20.63,0.09,30.91c0.52,10.86-7.28,16.77-16.45,16.57
	c-19.02-0.42-38.06-0.11-57.1-0.14c-1.78,0-3.58-0.11-5.32-0.44c-6.13-1.18-8.72-5.58-6.36-11.42c1.96-4.85,4.5-9.46,6.78-14.18
	C142.33,171.55,142.67,170.79,143.11,169.84z M128.42,136.06c1.82,15.98,19.24,30.6,36.75,31.29c19.57,0.78,37.92-11.27,41.04-26.96
	c-1.17-0.66-2.68-1.07-3.46-2.05c-1.93-2.44-4.43-2.31-7.08-2.31c-21.1,0.04-42.21,0.02-63.31,0.02
	C131.12,136.06,129.87,136.06,128.42,136.06z M202.87,74.17c-0.13,0.37-0.31,0.67-0.31,0.96c-0.02,18.16-0.09,36.32,0.03,54.48
	c0.03,4.03,2.84,6.55,6.9,6.72c3.14,0.14,6.3,0.05,9.45,0.03c6.89-0.04,10.37-3.57,10.38-10.54c0.01-16.17,0.01-32.34,0-48.5
	c0-1.01-0.09-2.03-0.15-3.15C220.24,74.17,211.56,74.17,202.87,74.17z M143.32,189.19c0.72,0.16,1,0.29,1.29,0.29
	c20.59,0.02,41.18,0.04,61.76,0.01c3.19,0,5.16-2.11,5.21-5.44c0.07-4.52,0.02-9.03,0.02-13.55c0-6.03,0-12.07,0-18.26
	c-3.2,3.71-5.82,7.56-9.21,10.54c-14.15,12.42-30.56,15.79-48.74,11.47c-0.93-0.22-2.65-0.18-2.92,0.33
	C148.15,179.34,145.8,184.22,143.32,189.19z M198.14,122.75c-1.42,0-2.65,0-3.88,0c-21.22,0-42.44,0-63.66,0
	c-8.48,0-8.09-0.86-7.83,8.33c0.01,0.18,0.17,0.36,0.31,0.64c25,0,50.03,0,75.05,0C198.14,128.7,198.14,125.91,198.14,122.75z"/>
</svg>
