<?xml version="1.0" encoding="utf-8"?>
<!-- Generator: Adobe Illustrator 24.0.1, SVG Export Plug-In . SVG Version: 6.00 Build 0)  -->
<svg version="1.1" id="Layer_1" xmlns="http://www.w3.org/2000/svg" xmlns:xlink="http://www.w3.org/1999/xlink" x="0px" y="0px"
	 viewBox="0 0 360 360" style="enable-background:new 0 0 360 360;" xml:space="preserve">
<style type="text/css">
	.st0{fill:#86D2DB;}
	.st1{fill:#FAC214;}
	.st2{fill:#34419A;}
	.st3{fill:#FFFFFF;}
	.st4{fill:#569ED6;}
	.st5{fill:#BC3C96;}
	.st6{fill:#34BCAD;}
	.st7{fill:#3471B8;}
	.st8{fill:none;stroke:#181818;stroke-miterlimit:10;}
	.st9{fill:#058E80;}
	.st10{fill:#66A042;}
	.st11{fill:#F9F9F9;}
	.st12{fill:#AFB736;}
	.st13{fill:#EF574F;}
	.st14{fill:#BE98C5;}
	.st15{fill:#FAA21B;}
	.st16{fill:#007B69;}
	.st17{fill:#533B97;}
	.st18{fill:#FECF07;}
	.st19{fill:#214184;}
	.st20{fill:#CD6BAA;}
	.st21{fill:#C51E59;}
	.st22{fill:#9C4E9E;}
	.st23{fill:#1B9CD8;}
	.st24{fill:#1F3C72;}
	.st25{fill:#4D4E8C;}
	.st26{fill:#026D60;}
	.st27{fill:#DA312A;}
	.st28{fill:#F36F42;}
	.st29{fill:#898989;}
</style>
<path class="st21" d="M94.82,45.22c-28.87,30.63-38.65,65.76-32.2,104.2c1.95,11.6,6.03,21.03,11.37,29.67
	c6.26,9.59,12.71,19.02,19.47,28.16c43.77,53.45,58.7,59.51,86.32,146.36c0.18,0.57,0.3,0.52,0.47-0.02
	c27.62-86.83,42.55-92.89,86.31-146.34c6.76-9.14,13.2-18.56,19.47-28.16c5.34-8.64,9.42-18.07,11.37-29.67
	c6.45-38.44-3.33-73.56-32.2-104.2C219.59-3.17,140.41-3.17,94.82,45.22"/>
<g>
	<path class="st3" d="M152.52,180c-10.91,0-21.54,0-32.41,0c0-1.66-0.06-3.27,0.05-4.88c0.03-0.36,0.62-0.78,1.04-1
		c2.81-1.44,5.62-2.87,8.47-4.22c0.95-0.45,1.28-1.02,1.25-2.06c-0.08-2.15-0.02-4.31-0.02-6.64c-5.39,0-10.68,0-16.08,0
		c0-3.67,0-7.16,0-10.79c1.7,0,3.37,0,5.28,0c0-0.74-0.01-1.34,0-1.95c0.07-4.58-0.17-9.19,0.27-13.73
		c0.79-8.06,7.91-14.11,16.04-14.06c8.13,0.05,15.17,6.21,15.87,14.26c0.39,4.45,0.18,8.95,0.24,13.42c0.01,0.62,0,1.23,0,1.93
		c3.63,0,7.09,0,10.79,0c0-0.57,0-1.13,0-1.68c0-4-0.05-8.01,0.02-12.01c0.15-8.28,6.18-14.82,14.53-15.85
		c7.68-0.94,15.24,4.29,17.22,12.05c0.4,1.56,0.5,3.22,0.53,4.84c0.07,4.16,0.02,8.31,0.02,12.6c3.58,0,7.07,0,10.71,0
		c0.02-0.54,0.07-1.1,0.07-1.66c0.01-3.85-0.06-7.69,0.02-11.54c0.19-9.34,7.32-16.44,16.34-16.37c8.96,0.08,15.93,7.22,16.06,16.5
		c0.05,3.74,0.01,7.48,0.01,11.22c0,0.58,0,1.15,0,1.92c1.78,0,3.49,0,5.29,0c0,3.64,0,7.09,0,10.82c-2.62,0-5.28,0-7.94,0
		c-2.63,0-5.25,0-8.12,0c0,2.64-0.03,5.2,0.04,7.75c0.01,0.3,0.6,0.66,0.98,0.86c2.86,1.46,5.72,2.92,8.61,4.32
		c0.81,0.39,1.21,0.85,1.15,1.79c-0.08,1.31-0.02,2.62-0.02,4.07c-10.8,0-21.51,0-32.41,0c0-1.58-0.08-3.15,0.05-4.7
		c0.03-0.41,0.65-0.88,1.1-1.11c2.85-1.48,5.75-2.86,8.57-4.38c0.5-0.27,0.99-1.06,1.02-1.63c0.12-2.25,0.05-4.51,0.05-6.86
		c-10.82,0-21.49,0-32.36,0c0,2.52-0.04,5.03,0.05,7.53c0.01,0.34,0.61,0.76,1.03,0.98c2.85,1.47,5.71,2.93,8.61,4.31
		c0.85,0.4,1.15,0.9,1.1,1.81c-0.07,1.31-0.02,2.63-0.02,4.07c-10.75,0-21.41,0-32.32,0c0-1.58-0.06-3.19,0.05-4.79
		c0.02-0.36,0.59-0.8,1-1.01c2.85-1.47,5.72-2.92,8.61-4.31c0.81-0.39,1.17-0.84,1.14-1.78c-0.08-2.21-0.02-4.42-0.02-6.77
		c-10.76,0-21.47,0-32.36,0c0,2.48-0.05,4.94,0.05,7.39c0.02,0.39,0.64,0.88,1.1,1.12c2.8,1.45,5.62,2.88,8.46,4.24
		c0.88,0.42,1.27,0.93,1.21,1.92C152.46,177.25,152.52,178.56,152.52,180z"/>
	<path class="st3" d="M233.41,83.89c-0.86,18.43-15.82,32.19-34.1,31.35c-17.78-0.81-31.37-16.08-30.57-34.36
		c0.75-17.2,16.26-31.19,33.66-30.35C220.2,51.4,234.22,66.48,233.41,83.89z M198.48,58.72c-0.05,0.26-0.12,0.46-0.13,0.66
		c-0.4,8.09-0.8,16.19-1.14,24.28c-0.02,0.52,0.35,1.2,0.75,1.57c2.84,2.66,5.73,5.27,8.62,7.89c1.9,1.72,3.8,3.43,5.65,5.11
		c1.45-1.43,2.79-2.74,4.18-4.11c-0.39-0.45-0.76-0.89-1.15-1.31c-3.22-3.55-6.46-7.07-9.64-10.66c-0.44-0.5-0.79-1.25-0.82-1.91
		c-0.29-5.15-0.49-10.3-0.74-15.45c-0.1-2.03-0.24-4.05-0.36-6.07C201.85,58.72,200.18,58.72,198.48,58.72z M184.76,85.51
		c0-1.85,0-3.51,0-5.2c-2.68,0-5.27,0-7.87,0c0,1.8,0,3.5,0,5.2C179.59,85.51,182.14,85.51,184.76,85.51z M217.33,80.26
		c0,1.77,0,3.47,0,5.23c2.68,0,5.27,0,7.88,0c0-1.8,0-3.49,0-5.23C222.54,80.26,219.99,80.26,217.33,80.26z M203.66,107.08
		c0-2.76,0-5.31,0-7.83c-1.82,0-3.52,0-5.17,0c0,2.69,0,5.24,0,7.83C200.26,107.08,201.92,107.08,203.66,107.08z"/>
</g>
</svg>
