<?xml version="1.0" encoding="utf-8"?>
<!-- Generator: Adobe Illustrator 24.0.1, SVG Export Plug-In . SVG Version: 6.00 Build 0)  -->
<svg version="1.1" id="Layer_1" xmlns="http://www.w3.org/2000/svg" xmlns:xlink="http://www.w3.org/1999/xlink" x="0px" y="0px"
	 viewBox="0 0 360 360" style="enable-background:new 0 0 360 360;" xml:space="preserve">
<style type="text/css">
	.st0{fill:#86D2DB;}
	.st1{fill:#FAC214;}
	.st2{fill:#34419A;}
	.st3{fill:#FFFFFF;}
	.st4{fill:#569ED6;}
	.st5{fill:#BC3C96;}
	.st6{fill:#34BCAD;}
	.st7{fill:#3471B8;}
	.st8{fill:none;stroke:#181818;stroke-miterlimit:10;}
	.st9{fill:#058E80;}
	.st10{fill:#66A042;}
	.st11{fill:#F9F9F9;}
	.st12{fill:#AFB736;}
	.st13{fill:#EF574F;}
	.st14{fill:#BE98C5;}
	.st15{fill:#FAA21B;}
	.st16{fill:#007B69;}
	.st17{fill:#533B97;}
	.st18{fill:#FECF07;}
	.st19{fill:#214184;}
	.st20{fill:#CD6BAA;}
	.st21{fill:#C51E59;}
	.st22{fill:#9C4E9E;}
	.st23{fill:#1B9CD8;}
	.st24{fill:#1F3C72;}
	.st25{fill:#4D4E8C;}
	.st26{fill:#026D60;}
	.st27{fill:#DA312A;}
	.st28{fill:#F36F42;}
	.st29{fill:#898989;}
</style>
<path class="st13" d="M94.82,45.22c-28.87,30.63-38.65,65.76-32.2,104.2c1.95,11.6,6.03,21.03,11.37,29.67
	c6.26,9.59,12.71,19.02,19.47,28.16c43.77,53.45,58.7,59.51,86.32,146.36c0.18,0.57,0.3,0.52,0.47-0.02
	c27.62-86.83,42.55-92.89,86.31-146.34c6.76-9.14,13.2-18.56,19.47-28.16c5.34-8.64,9.42-18.07,11.37-29.67
	c6.45-38.44-3.33-73.56-32.2-104.2C219.59-3.17,140.41-3.17,94.82,45.22"/>
<g>
	<g>
		<path class="st3" d="M223.69,118.84c-17.59,0.03-35.18,0.09-52.77,0.14c-3.78,0.01-5.67,1.89-5.67,5.64
			c0.01,3.01,0.02,6.03,0.03,9.04c-11.66,0.03-32.98,0.09-44.19,0.12c0-0.77,0-1.38-0.01-1.99c-0.04-13.85-0.07-27.71-0.12-41.56
			c-0.01-3.25-2.03-5.48-4.92-5.47c-2.9,0.01-4.9,2.23-4.89,5.49c0.07,25.82,0.14,51.63,0.21,77.45c0.01,3.22,2.08,5.46,4.97,5.42
			c2.84-0.04,4.84-2.25,4.84-5.4c0-4.19-0.02-8.38-0.03-12.58c0-0.54,0-1.07,0-1.72c11.35-0.03,32.7-0.09,44.27-0.12
			c0,0.01,0,0.02,0,0.04c24.53-0.07,48.95-0.13,73.58-0.2c0.01,4.91,0.04,9.61,0.03,14.3c0,1.57,0.42,2.94,1.6,3.99
			c1.55,1.38,3.35,1.77,5.26,0.91c1.95-0.87,2.97-2.46,2.96-4.61c-0.01-7.98-0.03-15.95-0.06-23.93
			C248.72,129.53,237.97,118.81,223.69,118.84z"/>
		<path class="st3" d="M170.05,79.71c-3.13,0.01-6.08,0.02-9.03,0.02c-3.78,0-5.7-1.87-5.71-5.6c-0.01-2.91-0.03-5.83-0.02-8.74
			c0.01-3.26,2-5.26,5.24-5.29c3.1-0.03,6.21-0.02,9.47-0.03c-0.01-3.14-0.02-6.14-0.02-9.14c0-3.67,1.9-5.58,5.55-5.6
			c2.96-0.01,5.93-0.04,8.89-0.02c3.12,0.02,5.15,2.05,5.19,5.2c0.03,3.11,0.02,6.22,0.03,9.51c3.05-0.01,6-0.02,8.95-0.02
			c3.95-0.01,5.79,1.84,5.8,5.82c0.01,2.86,0.03,5.72,0.02,8.59c-0.02,3.15-2.03,5.18-5.17,5.22c-3.02,0.04-6.03,0.03-9.05,0.05
			c-0.1,0-0.19,0.05-0.5,0.12c0.01,2.43,0.01,4.91,0.02,7.39c0,0.77,0.02,1.53,0,2.3c-0.09,2.78-2.09,4.84-4.87,4.9
			c-3.27,0.06-6.54,0.07-9.81,0.03c-2.85-0.03-4.9-2.1-4.94-4.97C170.04,86.27,170.06,83.11,170.05,79.71z"/>
		<path class="st3" d="M160.3,109.22c0.01,8.11-6.61,14.72-14.72,14.73c-8.1,0.01-14.73-6.61-14.73-14.72
			c-0.01-8.1,6.61-14.72,14.72-14.73C153.68,94.5,160.29,101.11,160.3,109.22z"/>
	</g>
</g>
</svg>
