<?xml version="1.0" encoding="utf-8"?>
<!-- Generator: Adobe Illustrator 24.0.1, SVG Export Plug-In . SVG Version: 6.00 Build 0)  -->
<svg version="1.1" id="Layer_1" xmlns="http://www.w3.org/2000/svg" xmlns:xlink="http://www.w3.org/1999/xlink" x="0px" y="0px"
	 viewBox="0 0 360 360" style="enable-background:new 0 0 360 360;" xml:space="preserve">
<style type="text/css">
	.st0{fill:#86D2DB;}
	.st1{fill:#FAC214;}
	.st2{fill:#34419A;}
	.st3{fill:#FFFFFF;}
	.st4{fill:#569ED6;}
	.st5{fill:#BC3C96;}
	.st6{fill:#34BCAD;}
	.st7{fill:#3471B8;}
	.st8{fill:none;stroke:#181818;stroke-miterlimit:10;}
	.st9{fill:#058E80;}
	.st10{fill:#66A042;}
	.st11{fill:#F9F9F9;}
	.st12{fill:#AFB736;}
	.st13{fill:#EF574F;}
	.st14{fill:#BE98C5;}
	.st15{fill:#FAA21B;}
	.st16{fill:#007B69;}
	.st17{fill:#533B97;}
	.st18{fill:#FECF07;}
	.st19{fill:#214184;}
	.st20{fill:#CD6BAA;}
	.st21{fill:#C51E59;}
	.st22{fill:#9C4E9E;}
	.st23{fill:#1B9CD8;}
	.st24{fill:#1F3C72;}
	.st25{fill:#4D4E8C;}
	.st26{fill:#026D60;}
	.st27{fill:#DA312A;}
	.st28{fill:#F36F42;}
	.st29{fill:#898989;}
</style>
<path class="st9" d="M94.82,45.22c-28.87,30.63-38.65,65.76-32.2,104.2c1.95,11.6,6.03,21.03,11.37,29.67
	c6.26,9.59,12.71,19.02,19.47,28.16c43.77,53.45,58.7,59.51,86.32,146.36c0.18,0.57,0.3,0.52,0.47-0.02
	c27.62-86.83,42.55-92.89,86.31-146.34c6.76-9.14,13.2-18.56,19.47-28.16c5.34-8.64,9.42-18.07,11.37-29.67
	c6.45-38.44-3.33-73.56-32.2-104.2C219.59-3.17,140.41-3.17,94.82,45.22"/>
<g>
	<path class="st3" d="M98.99,121.16c0.41-3.02,0.72-6.06,1.26-9.05c3.34-18.5,12.1-34.01,26.11-46.49
		c12.25-10.92,26.59-17.59,42.86-19.66c22.63-2.88,43.14,2.66,61.03,16.86c17.02,13.5,27.14,31.21,30.04,52.76
		c5.73,42.64-23,82.19-65.4,90.29c-3.25,0.62-6.55,0.93-9.83,1.38c-3.38,0-6.75,0-10.13,0c-1.98-0.24-3.96-0.46-5.93-0.74
		c-16.06-2.3-30.27-8.72-42.42-19.48c-14.13-12.51-22.95-28.08-26.33-46.68c-0.54-2.99-0.85-6.03-1.26-9.05
		C98.99,127.91,98.99,124.54,98.99,121.16z M104.38,126.2c-0.01,41.62,33.93,75.6,75.56,75.64c41.61,0.04,75.63-33.91,75.68-75.52
		c0.04-41.7-33.94-75.73-75.63-75.72C138.36,50.62,104.39,84.58,104.38,126.2z"/>
	<path class="st3" d="M112.59,126.95c0-1-0.02-2,0-3.01c0.11-5.4,4.06-8.92,9.42-8.41c4.46,0.42,8.92,0.82,13.38,1.24
		c5.14,0.48,10.29,0.96,15.43,1.48c4.41,0.45,7.4,3.44,7.55,7.89c0.28,8.33,3.99,14.54,11,18.94c3.45,2.17,4.79,6.25,3.13,9.96
		c-4.12,9.17-8.32,18.31-12.63,27.4c-2.02,4.26-7,5.79-11.18,3.53c-18.14-9.79-29.68-24.74-34.45-44.78
		c-1.1-4.64-1.42-9.46-2.09-14.19C112.3,126.99,112.44,126.97,112.59,126.95z M120.8,120.88c-1.56-0.05-2.84,1.05-2.79,2.97
		c0.1,3.74,0.03,7.52,0.61,11.19c3.18,20.44,13.94,35.7,31.95,45.84c2.37,1.34,3.75,0.84,4.91-1.66
		c3.93-8.51,7.86-17.02,11.77-25.53c0.94-2.05,0.5-3.05-1.28-4.43c-2.28-1.77-4.64-3.53-6.53-5.67c-4.11-4.65-6.17-10.22-6.38-16.46
		c-0.08-2.49-0.79-3.27-3.27-3.55c-2.36-0.27-4.72-0.46-7.08-0.68C135.51,122.23,128.31,121.57,120.8,120.88z"/>
	<path class="st3" d="M247.41,127.1c-1.26,26.08-12.83,45.9-35.82,58.72c-4.63,2.58-9.51,0.9-11.76-3.92
		c-4.07-8.73-8.11-17.48-12.11-26.25c-1.94-4.24-0.68-8.29,3.28-10.83c6.71-4.29,10.27-10.36,10.58-18.36
		c0.18-4.73,3.03-7.76,7.74-8.22c9.65-0.94,19.31-1.86,28.97-2.72c5.1-0.46,9,3.13,9.11,8.25
		C247.43,124.89,247.41,125.99,247.41,127.1z M242.02,127.13c0-1.05,0.03-2.11-0.01-3.16c-0.07-2.1-1.29-3.24-3.34-3.05
		c-9.55,0.88-19.1,1.77-28.65,2.7c-2.2,0.21-2.96,1.04-3.06,3.25c-0.42,9.73-4.82,17.16-12.94,22.45c-1.83,1.19-2.2,2.34-1.31,4.28
		c3.96,8.61,7.93,17.22,11.91,25.81c1.07,2.3,2.48,2.79,4.71,1.53C230.27,169.09,240.84,150.96,242.02,127.13z"/>
	<path class="st3" d="M220.35,76.4c-0.66,1.57-1.06,3.32-2.01,4.69c-5.55,8.02-11.21,15.96-16.88,23.89
		c-2.55,3.57-6.62,4.6-10.49,2.58c-7.34-3.83-14.59-3.86-21.92,0c-3.84,2.02-7.98,0.99-10.5-2.55
		c-5.67-7.93-11.31-15.89-16.91-23.87c-2.99-4.26-1.99-9.41,2.47-12.03c23.89-14.02,47.83-14.02,71.74-0.04
		C218.68,70.72,220.01,73.23,220.35,76.4z M179.75,64.13c-11.53,0.05-22.43,3.15-32.45,9.34c-2.22,1.37-2.5,2.82-0.97,4.98
		c5.36,7.57,10.72,15.14,16.09,22.71c1.61,2.28,2.5,2.43,5.04,1.18c8.35-4.11,16.73-4.12,25.08,0.01c2.53,1.25,3.42,1.09,5.04-1.19
		c5.3-7.48,10.6-14.97,15.9-22.45c1.77-2.5,1.51-3.83-1.07-5.41C202.46,67.21,191.65,64.17,179.75,64.13z"/>
	<path class="st3" d="M166.48,126.18c0.04-7.4,6.13-13.47,13.51-13.47c7.44,0,13.62,6.24,13.51,13.63
		c-0.11,7.43-6.24,13.47-13.59,13.4C172.51,139.66,166.45,133.55,166.48,126.18z M179.94,118.12c-4.48,0.05-8.15,3.81-8.04,8.24
		c0.11,4.43,3.78,8.02,8.16,7.97c4.48-0.05,8.15-3.82,8.04-8.24C187.99,121.64,184.33,118.07,179.94,118.12z"/>
</g>
</svg>
