<?xml version="1.0" standalone="no"?>
<!DOCTYPE svg PUBLIC "-//W3C//DTD SVG 20010904//EN"
 "http://www.w3.org/TR/2001/REC-SVG-20010904/DTD/svg10.dtd">
<svg version="1.0" xmlns="http://www.w3.org/2000/svg"
 width="260.000000pt" height="260.000000pt" viewBox="0 0 260.000000 260.000000"
 preserveAspectRatio="xMidYMid meet">
<metadata>
Created by potrace 1.14, written by Peter Selinger 2001-2017
</metadata>
<g transform="translate(0.000000,260.000000) scale(0.100000,-0.100000)"
fill="#000000" stroke="none">
<path d="M998 1138 c-3 -7 -1 -24 3 -38 6 -22 7 -20 8 13 1 38 -3 47 -11 25z"/>
<path d="M1118 1138 c-3 -7 -1 -24 3 -38 6 -22 7 -20 8 13 1 38 -3 47 -11 25z"/>
<path d="M1340 1135 c-22 -27 17 -72 41 -48 6 6 2 9 -13 9 -17 -1 -23 5 -23
19 0 14 6 20 22 19 12 0 20 3 17 8 -8 13 -30 9 -44 -7z"/>
<path d="M1462 1120 c0 -19 2 -27 5 -17 2 9 2 25 0 35 -3 9 -5 1 -5 -18z"/>
<path d="M1712 1120 c0 -19 2 -27 5 -17 2 9 2 25 0 35 -3 9 -5 1 -5 -18z"/>
<path d="M941 1113 c1 -18 3 -21 6 -10 2 9 9 15 14 12 5 -3 6 1 3 9 -10 26
-24 18 -23 -11z"/>
<path d="M1025 1119 c-4 -6 -5 -12 -2 -15 2 -3 7 2 10 11 7 17 1 20 -8 4z"/>
<path d="M1055 1120 c3 -5 8 -10 11 -10 2 0 4 5 4 10 0 6 -5 10 -11 10 -5 0
-7 -4 -4 -10z"/>
<path d="M1082 1108 c2 -12 10 -23 18 -25 12 -4 13 -3 1 5 -8 6 -11 17 -8 26
4 9 2 16 -4 16 -6 0 -9 -10 -7 -22z"/>
<path d="M1142 1110 c0 -14 2 -19 5 -12 2 6 2 18 0 25 -3 6 -5 1 -5 -13z"/>
<path d="M1164 1119 c-10 -17 23 -46 37 -32 8 8 6 11 -7 10 -12 -1 -19 4 -18
16 2 20 -2 22 -12 6z"/>
<path d="M1224 1115 c-7 -17 3 -35 19 -35 8 0 7 3 -2 9 -8 5 -11 16 -8 25 4 9
4 16 1 16 -2 0 -7 -7 -10 -15z"/>
<path d="M1257 1110 c3 -11 7 -20 9 -20 2 0 4 9 4 20 0 11 -4 20 -9 20 -5 0
-7 -9 -4 -20z"/>
<path d="M1404 1119 c-3 -6 1 -18 10 -27 19 -20 40 -4 33 24 -4 15 -5 14 -6
-4 -1 -14 -6 -22 -13 -19 -7 2 -12 12 -12 21 2 19 -2 21 -12 5z"/>
<path d="M1511 1113 c-1 -27 16 -40 32 -24 9 9 8 11 -5 6 -12 -5 -18 0 -21 17
-4 22 -4 22 -6 1z"/>
<path d="M1565 1101 c18 -19 28 -22 36 -14 8 8 6 11 -7 10 -12 -1 -19 4 -18
13 1 9 -7 16 -18 16 -16 0 -15 -3 7 -25z"/>
<path d="M1631 1113 c-1 -27 16 -40 32 -24 9 9 8 11 -5 6 -12 -5 -18 0 -21 17
-4 22 -4 22 -6 1z"/>
<path d="M1772 1110 c0 -14 2 -19 5 -12 2 6 2 18 0 25 -3 6 -5 1 -5 -13z"/>
<path d="M1805 1110 l20 -23 -20 7 c-15 5 -17 4 -8 -5 11 -11 33 -5 33 9 0 4
-10 13 -22 21 l-23 14 20 -23z"/>
<path d="M1842 1110 c0 -14 2 -19 5 -12 2 6 2 18 0 25 -3 6 -5 1 -5 -13z"/>
<path d="M1864 1119 c-10 -17 23 -46 37 -32 8 8 6 11 -7 10 -12 -1 -19 4 -18
16 2 20 -2 22 -12 6z"/>
<path d="M1931 1113 c-1 -27 16 -40 32 -24 9 9 8 11 -5 6 -12 -5 -18 0 -21 17
-4 22 -4 22 -6 1z"/>
<path d="M2011 1123 c-1 -6 2 -19 5 -27 6 -15 8 -15 20 1 16 22 18 33 4 33 -5
0 -10 -8 -11 -17 0 -15 -2 -15 -9 2 -5 11 -9 15 -9 8z"/>
<path d="M2084 1119 c-10 -17 23 -46 37 -32 8 8 6 11 -7 10 -12 -1 -19 4 -18
16 2 20 -2 22 -12 6z"/>
<path d="M2056 1105 c-3 -8 -1 -15 4 -15 6 0 10 7 10 15 0 8 -2 15 -4 15 -2 0
-6 -7 -10 -15z"/>
<path d="M975 1100 c-3 -5 -1 -10 4 -10 6 0 11 5 11 10 0 6 -2 10 -4 10 -3 0
-8 -4 -11 -10z"/>
<path d="M2167 1103 c-4 -3 -7 -13 -7 -22 1 -13 3 -13 11 2 11 19 8 33 -4 20z"/>
<path d="M1050 1090 c-9 -6 -10 -10 -3 -10 6 0 15 5 18 10 8 12 4 12 -15 0z"/>
<path d="M1578 1063 c6 -2 18 -2 25 0 6 3 1 5 -13 5 -14 0 -19 -2 -12 -5z"/>
</g>
</svg>
