<svg width="24" height="24" viewBox="0 0 24 24" fill="none" xmlns="http://www.w3.org/2000/svg">
  <path d="M16 19C16 19.5523 15.5523 20 15 20H5C4.44772 20 4 19.5523 4 19V9H16V19Z" fill="#FFF1E6" stroke="#F58220" stroke-width="2" stroke-linecap="round" stroke-linejoin="round"/>
  <path d="M6 5C6 5 7.5 7 10 7C12.5 7 14 5 14 5" stroke="#F58220" stroke-width="2" stroke-linecap="round" stroke-linejoin="round"/>
  <path d="M16 11H18C19.1046 11 20 11.8954 20 13C20 14.1046 19.1046 15 18 15H16" stroke="#F58220" stroke-width="2" stroke-linecap="round" stroke-linejoin="round"/>
  <line x1="10" y1="12" x2="10" y2="16" stroke="#F58220" stroke-width="2" stroke-linecap="round"/>
  <path d="M7 2L7.33333 4" stroke="#F58220" stroke-linecap="round"/>
  <path d="M10 2L10.3333 4" stroke="#F58220" stroke-linecap="round"/>
  <path d="M13 2L13.3333 4" stroke="#F58220" stroke-linecap="round"/>
</svg>
