<svg width="9811" height="9811" viewBox="0 0 9811 9811" fill="none" xmlns="http://www.w3.org/2000/svg">
<g clip-path="url(#clip0_1506_5813)">
<path d="M9805.17 12.3711H5.83594V9798.62H9805.17V12.3711Z" fill="#F9F5EB"/>
<g opacity="0.3">
<path d="M6832.55 6672.57H6832.11V6961.89H6928.58H6930V6672.57H6928.58H6832.55Z" fill="#D5D4D4"/>
<path d="M5602.63 4904.58V4846.91L5514.88 4848.22L5481.52 4899.45L5457.21 4885.93L5452.09 4877.81L5428.49 4728.14L5426.8 4728.41L5426.69 4727.65L5362.48 4737.08L5378.89 4844.18L5382.48 4846.96L5382.76 4848.71C5381.83 4851.71 5380.03 4857.59 5378.51 4861.57L5341.33 4922.73L5316.42 4908.34L5213.08 4848.44L5042.81 4749.4L4961.92 4700.89L4892.37 4659.9L4893.3 4658.37L4890.19 4656.74L4903.05 4635.1L4905.67 4627.74L4820.75 4579.4L4804.18 4606.32L4804.07 4606.27L4803.2 4607.68L4750.11 4577.38L4723.35 4621.58L4680.45 4693.42L4733.81 4723.78L4735.29 4725.85L4733.81 4728.69L4735.94 4729.83L4700.78 4790.17L4784.29 4837.37L4815.95 4783.08L4821.24 4775.45L4824.18 4777.2L4824.35 4776.87L4935.27 4840.97L5057.2 4913.73L5228.78 5014.13L5302.2 5055.5L5301.54 5056.59L5307.05 5059.86L5307.81 5058.61L5330.32 5071.31L5329.4 5072.78L5332.12 5073.71L5305.36 5120.42L5302.09 5119.27L5232.81 5062.26L5230.9 5209.48H5232.81V5210.41L5333.92 5211.61L5333.1 5222.83L5390.39 5223.43V5214.06L5389.13 5177.87L5420.64 5125.54L5423.04 5126.9L5393 5179.67L5394.26 5221.25L5537.77 5222.13L5598.87 5160.32L5598.11 4908.61H5547.25L5497.93 4995.27L5495.91 4994.13L5495.37 4992.93L5545.13 4904.47L5602.63 4904.58Z" fill="#D5D4D4"/>
<path d="M4748.37 4523.2L4798.08 4484.99L4818.62 4512.62L4897.11 4452.83L4877.93 4427.65L4878.74 4427.05L4877.98 4426.02L4880 4424.49L4879.24 4423.51L5060.08 4287.08L5296.8 4108.08L5349.07 4177.8L5347.6 4178.94L5421.35 4274.22H5469.26H5472.8V4293.84H5601.43V4165.21H5476.4C5477.92 4164.28 5479.29 4163.63 5479.29 4163.63H5589.82H5601.6L5601.87 4150.98L5601.43 4107.05L5503.81 4105.14L5440.42 4020.88L5490.02 3980.81L5472.2 3956.18L5481.3 3943.48L5444.02 3894.37L5440.42 3896.66L5421.46 3907.18L5394.15 3872.67L5381.5 3881.5L5350.05 3903.2L5319.91 3862.48L5319.37 3815.93C5320.4 3815.93 5321.33 3815.93 5322.47 3815.88C5321.06 3815.88 5320.08 3814.84 5319.37 3813.1V3812.5L5319.04 3778.38C5320.35 3760.94 5321.93 3742.9 5318.6 3737.28V3735.48L5316.26 3735.54C5316.15 3735.54 5316.1 3735.48 5315.99 3735.48C5292.93 3735.48 5234.56 3735.48 5211.5 3735.48L5211.45 3738.32H5210.57L5207.52 3814.9L5161.25 3815.66L5159.12 3904.72L5190.19 3940.53L5188.28 3942.5L5178.36 3949.75L5143.75 3978.36L5181.36 4025.45L4865.66 4266.15L4799.55 4318.09L4798.78 4317.06L4796.33 4318.91L4751.69 4260.43L4726.51 4279.23L4725.64 4278.09L4720.57 4282.01L4721.39 4283.05L4675.33 4317.39L4717.35 4372.38L4714.46 4374.56L4716.75 4377.61L4666.5 4416.8L4748.37 4523.2Z" fill="#D5D4D4"/>
<path d="M6612.73 4318.91L6562.75 4280.54L6562.91 4280.32L6557.84 4276.4L6557.68 4276.62L6538.11 4261.63L6492.71 4318.91L6490.09 4316.84L6365.22 4221.67L6109.2 4025.89L6144.91 3978.31C6144.91 3978.31 6144.47 3977.98 6143.82 3977.49L6144.25 3976.89L6101.96 3945.11C6101.08 3943.21 6100.54 3941.57 6100.54 3941.57L6128.5 3902.05V3815.88L6127.85 3815.83V3814.46H6107.41L6080.04 3812.67V3736.9L6034.31 3737.61H5970.98L5970.92 3738.59L5968.69 3738.65V3802.47L5968.31 3813.48H5968.69V3863.95L5937.02 3905.16L5894.94 3873.93L5894.89 3873.98L5893.04 3872.57L5881.7 3889.08L5865.89 3907.12L5849.05 3897.04L5845.23 3894.7L5806.64 3945.33L5817.87 3955.85L5797.43 3981.14L5849.81 4021.37L5782.12 4107.32L5684.5 4106.83L5683.79 4165.26L5809.42 4163.9L5849.27 4115.28L5885.19 4144.77L5887.31 4141.93L5915.11 4164.06L5923.78 4156.38L5945.31 4170.66L5994.03 4106.78L6142.56 4220.86L6407.3 4425.25L6407.84 4425.63L6388.98 4450.6L6468.45 4512.9L6488.35 4487.77L6488.4 4487.83L6489.65 4486.24L6540.73 4521.78L6617.47 4419.86L6618.4 4420.57L6622.27 4415.44L6570.43 4376.14L6612.73 4318.91Z" fill="#D5D4D4"/>
<path d="M2706.86 4775.23V5096.11V5102.54H3260.64V4775.23H3254.26H2706.86Z" fill="#D5D4D4"/>
<path d="M5595.38 6697.32H5396.66V6790.19H5595.38V6697.32Z" fill="#D5D4D4"/>
<path d="M3849.51 2917.19C3850 2917.19 3850.44 2917.19 3850.93 2917.19C3850.93 2917.3 3850.93 2917.41 3850.93 2917.52C3851.91 2917.52 3852.78 2917.52 3853.82 2917.52C3853.82 2917.41 3853.82 2917.3 3853.82 2917.19C3854.31 2917.19 3854.75 2917.19 3855.24 2917.19C3855.24 2917.3 3855.24 2917.41 3855.24 2917.52C3856.16 2917.52 3857.09 2917.52 3858.07 2917.52C3858.07 2917.41 3858.07 2917.3 3858.07 2917.19C3858.56 2917.19 3859 2917.19 3859.49 2917.19C3859.49 2917.3 3859.49 2917.41 3859.49 2917.52C3860.47 2917.52 3861.4 2917.52 3862.38 2917.52C3862.38 2917.41 3862.38 2917.3 3862.38 2917.25C3862.98 2917.25 3863.52 2917.25 3864.12 2917.25C3864.12 2916.76 3864.12 2916.27 3864.12 2915.78C3864.12 2915.61 3864.12 2915.45 3864.12 2915.29C3864.12 2915.01 3864.12 2914.8 3864.12 2914.52C3864.12 2914.47 3863.96 2914.3 3863.9 2914.3C3863.03 2914.3 3862.16 2914.3 3861.29 2914.3C3861.29 2914.41 3861.29 2914.52 3861.29 2914.63C3860.8 2914.63 3860.36 2914.63 3859.87 2914.63C3859.87 2914.52 3859.71 2914.3 3859.6 2914.3C3858.73 2914.3 3857.85 2914.3 3856.98 2914.3C3856.98 2914.41 3856.98 2914.52 3856.98 2914.63C3856.49 2914.63 3856.05 2914.63 3855.56 2914.63C3855.56 2914.52 3855.4 2914.3 3855.29 2914.3C3854.42 2914.3 3853.55 2914.3 3852.68 2914.3C3852.68 2914.41 3852.68 2914.52 3852.68 2914.63C3852.18 2914.63 3851.69 2914.63 3851.26 2914.63C3851.26 2914.63 3851.26 2914.63 3851.26 2914.58C3851.26 2914.47 3851.09 2914.3 3850.99 2914.3C3850.11 2914.3 3849.3 2914.3 3848.42 2914.3C3848.42 2914.41 3848.42 2914.52 3848.42 2914.63C3847.82 2914.63 3847.28 2914.63 3846.68 2914.63C3846.68 2915.67 3846.68 2916.59 3846.68 2917.52C3847.66 2917.52 3848.53 2917.52 3849.57 2917.52C3849.51 2917.41 3849.51 2917.3 3849.51 2917.19Z" fill="#D5D4D4"/>
<path d="M3845.26 2916.1C3845.26 2916 3845.26 2915.94 3845.26 2915.83C3845.26 2915.56 3845.26 2915.23 3845.26 2914.96C3845.26 2914.85 3845.1 2914.69 3844.99 2914.69C3844.12 2914.69 3843.3 2914.69 3842.43 2914.69C3842.43 2915.72 3842.43 2916.65 3842.43 2917.52C3843.41 2917.52 3844.34 2917.52 3845.32 2917.52C3845.26 2917.03 3845.26 2916.54 3845.26 2916.1Z" fill="#D5D4D4"/>
<path d="M3871.75 2912.89V2910C3871.15 2910 3870.55 2910 3869.9 2910C3869.9 2910.98 3869.9 2911.91 3869.9 2912.89C3870.5 2912.89 3871.15 2912.89 3871.75 2912.89Z" fill="#D5D4D4"/>
<path d="M3871.75 2917.25V2914.3C3871.15 2914.3 3870.5 2914.3 3869.84 2914.3C3869.84 2915.29 3869.84 2916.21 3869.84 2917.19C3870.39 2917.19 3870.93 2917.19 3871.48 2917.19C3871.64 2917.25 3871.64 2917.25 3871.75 2917.25Z" fill="#D5D4D4"/>
<path d="M3871.75 2905.69C3871.64 2905.69 3871.64 2905.75 3871.53 2905.75C3870.99 2905.75 3870.44 2905.75 3869.9 2905.75C3869.9 2906.73 3869.9 2907.65 3869.9 2908.63C3870.55 2908.63 3871.15 2908.63 3871.81 2908.63V2905.69H3871.75Z" fill="#D5D4D4"/>
<path d="M3865.54 2908.64C3866.41 2908.64 3867.28 2908.64 3868.16 2908.64C3868.26 2908.64 3868.43 2908.42 3868.43 2908.31C3868.43 2907.49 3868.43 2906.62 3868.43 2905.75C3867.45 2905.75 3866.52 2905.75 3865.54 2905.75C3865.54 2906.24 3865.54 2906.67 3865.54 2907.16C3865.54 2907.65 3865.54 2908.14 3865.54 2908.64Z" fill="#D5D4D4"/>
<path d="M3863.85 2912.89C3863.96 2912.89 3864.12 2912.67 3864.12 2912.56C3864.12 2912.18 3864.12 2911.85 3864.12 2911.47C3864.12 2911.09 3864.12 2910.76 3864.12 2910.38C3864.12 2910.27 3863.96 2910.05 3863.85 2910.05C3863.8 2910.05 3863.74 2910.05 3863.63 2910.05C3862.82 2910.05 3862.05 2910.05 3861.23 2910.05C3861.23 2911.04 3861.23 2911.96 3861.23 2912.89C3862.05 2912.89 3862.82 2912.89 3863.63 2912.89C3863.74 2912.89 3863.8 2912.89 3863.85 2912.89Z" fill="#D5D4D4"/>
<path d="M3868.43 2914.63C3868.43 2914.52 3868.26 2914.36 3868.16 2914.3C3867.28 2914.3 3866.41 2914.3 3865.54 2914.3C3865.54 2914.8 3865.54 2915.29 3865.54 2915.72C3865.54 2916.21 3865.54 2916.65 3865.54 2917.14C3866.52 2917.14 3867.45 2917.14 3868.43 2917.14C3868.43 2916.32 3868.43 2915.45 3868.43 2914.63Z" fill="#D5D4D4"/>
<path d="M3868.21 2912.89C3868.26 2912.89 3868.43 2912.67 3868.43 2912.56C3868.43 2912.23 3868.43 2911.85 3868.43 2911.47C3868.43 2911.09 3868.43 2910.76 3868.43 2910.38C3868.43 2910.27 3868.26 2910.05 3868.21 2910.05C3867.99 2910.05 3867.77 2910.05 3867.56 2910.05C3866.9 2910.05 3866.25 2910.05 3865.54 2910.05C3865.54 2911.04 3865.54 2911.96 3865.54 2912.89C3866.25 2912.89 3866.9 2912.89 3867.56 2912.89C3867.77 2912.89 3867.99 2912.89 3868.21 2912.89Z" fill="#D5D4D4"/>
<path d="M3864.12 2908.42C3864.12 2908.14 3864.12 2907.93 3864.12 2907.65C3864.12 2907.49 3864.12 2907.33 3864.12 2907.16C3864.12 2906.67 3864.12 2906.18 3864.12 2905.69C3863.14 2905.69 3862.22 2905.69 3861.29 2905.69C3861.29 2906.62 3861.29 2907.54 3861.29 2908.58C3862.16 2908.58 3863.03 2908.58 3863.91 2908.58C3863.96 2908.58 3864.12 2908.47 3864.12 2908.42Z" fill="#D5D4D4"/>
<path d="M7682.51 7267.94H7644.3V7307.51H7682.51V7267.94Z" fill="#D5D4D4"/>
<path d="M8080.29 7099.52H8035.92V7168.36H8080.29V7099.52Z" fill="#D5D4D4"/>
<path d="M7674.12 7217.95C7674.28 7217.79 7674.28 7217.41 7674.12 7217.25C7674.01 7217.14 7673.9 7217.14 7673.84 7217.25C7673.79 7217.35 7673.79 7217.46 7673.73 7217.63C7673.79 7217.74 7673.79 7217.9 7673.9 7218.01C7673.9 7218.06 7674.01 7218.06 7674.12 7217.95Z" fill="#D5D4D4"/>
<path d="M7460.67 2726.42H7203.57V2600.57H7027.62L7038.96 2586.29H7033.73H7030.78H6971.37H6967.12H6963.2L6951.86 2600.57L6951.81 2609.78H6126.81V2609.56H6079.34V1890.91V1885.73H6072.96L6028.26 1885.78H6021.89V1892.16L6021.78 2609.73H5515.15V1885.62L5456.77 1885.57V2405.6L5457.32 3293.88V3598.19H5457.54V3600.2V3603.42H5485.17V3621.57L5093.77 3620.81L4780.3 3621.62L4697.62 3607.78H4358.92V3835.01H4184.23L4182.87 3335.09L4182.76 3294.81H4258.63L4257.49 2687.29H3936.89H3935.2H3900.91H3897.7H3894.48L3894.7 3254.09H3936.67L3938.03 3859.16V3862.1H3938.19L3940.76 3902.27L3940.81 3921.68L3939.72 4009.54H3939.83H3941.35V4309.21H4183.96V4009.54V4005.12L4199.28 4006.32H4342.08L4362.03 4005.94L4362.14 4009.54L4366.66 4009.38V4278.09H4702.53V4006.32H4704.43V3999.95H4700.02V3997.55H4702.53V3809.34V3724.86V3722.29H4702.91L4702.53 3676.62H4801.56H4809.63H5488.71V3694.66H5492.09V3760.01H5601.7V3883.79H5602.19V4237.04H5601.87V4295.58H5448.87V4659.57H5455.25H5598.54H5601.59L5601.81 4461.06V4703.83H5480.97V4762.53H5599.41V4766.51H5534.66V4831.65H5598.65V4836.28H5602.63V5162.17L5600.89 5162.55L5539.57 5224.96H5391.15H5391.04H4748.96V4923.76H4714.63L4712.01 4919.35L3828.2 4921.31L3594.59 4915.97V4772.62L4290.41 4771.09C4292.81 4771.09 4295.15 4770.55 4297.33 4769.56C4298.2 4769.18 4299.07 4768.58 4299.89 4767.98H4304.53V4763.35C4306.43 4760.68 4307.8 4757.41 4307.8 4754.03C4307.8 4751.47 4307.09 4748.31 4304.53 4745.2V4744.11H4303.54C4301.91 4742.42 4299.73 4740.79 4296.68 4739.37C4294.66 4738.39 4292.26 4737.84 4289.81 4737.84H3925.49V4716.04L3948.6 4662.24L3998.42 4661.26V4406.94H3945.22L3907.89 4310.57L3912.58 4168.97H3824.66V4241.9H3745.08V4182.87L3639.67 4180.41V4433.21L3747.32 4437.84L3751.13 4516.99L3805.31 4517.75L3801.49 4593.02H3875.35V4659.74L3915.41 4660.5L3894.92 4713.81L3895.41 4737.84H3591.43V4744.22H3594.7V4766.24H3594.65V4753.7H3590.88V4644.37H3593.83C3593.88 4647.96 3593.99 4651.01 3594.15 4653.19C3593.28 4652.65 3592.36 4652.16 3591.48 4651.56V4659.03C3607.29 4668.46 3625.71 4674.02 3645.44 4674.02C3703.77 4674.02 3751.18 4626.6 3751.18 4568.28C3751.18 4509.95 3703.77 4462.53 3645.44 4462.53C3626.86 4462.53 3609.8 4468.53 3594.65 4477.09V4469.18L3593.88 3722.24H3591.1L3591.27 3685.01H3591.48V3637.32V3546.08V3542.43H2701.52V3776.09H3538.29L3538.34 3928.98L2928.75 3929.42V4154.63H3538.29V4383.17H3466.12V4530.07H3538.29V4621.96H3530.6V4731.74H3480.18V4671.07H3416.96V4681.81H3387.8L2687.89 4396.53V3864.23H2445.01V5036.53H2350.83V5274.01H2445.01V5675.5H2687.89V5280.88H2816.09V5215.64L3315.9 5415.95L3316.99 5413.22L3358.09 5429.68L3357.06 5432.46L3399.73 5449.58L3421.81 5449.63L3424.97 5773.17V5812.36H3425.35V5875.86H3591.32H3594.54H3616.56V5894.12H3610.62V5964.65H3312.2L3311.65 5777.59H3348.88V5665.25H3231.91V5777.59H3262.6L3262.32 6011.8L3428.46 6011.75V6056.28H3479.53V6218.27H3614.65V6347.99H3699.08V6509.98H3965.99V6490.03H4022.13V6447.79H4066.39V6530.69H4124.98V6526.66L4139.7 6526.77V6530.69H4273.68V6395.96H4279.73V6525.9H4336.41V6522.52H4336.63V6395.96H4454.03L4454.52 6196.57V6193.9V6193.41L4454.42 5945.68H4475.13V5805.22L4527.07 5805.28V5809.58H4533.45V5805.77H4573.13V5809.8H4579.51V5617.89H4645.73V5613.31H4687.59V5617.89H4788.37V5363.78H5044.17H5181.47V5359.37V5310.8H5328.63L5329.34 5404.06L5235.32 5459.22L5265.24 5510.68L4819.33 5771.54L4782.48 5708.59L4694.02 5760.15L4730.87 5823.1L4674.07 5856.13L4744.88 5977.57L4799.38 5946.07L4817.04 5976.04L4907.79 5922.9L4890.13 5892.98L5338.33 5632.11L5384.39 5710.44L5473.4 5658.28L5502.67 5709.29H5598.05V5712.51H5533.95V5781.68H5597.89V5786.75L5496.56 5786.53V5837.66H5598.32L5598.16 5887.15H5491.38V6000.79H5111.37V6093.94H5598.11V6387.72H5477.81L5479.56 6385.44L5479.88 6385.05L5553.57 6288.25L5463.26 6219.08L5291.29 6444.79L4878.74 6130.79L4899.45 6103.15L4816.11 6039.43L4794.64 6067.07L4744.71 6028.64L4659.47 6141.2L4711.46 6181.37L4667.48 6238.71L4748.96 6300.95L4793.49 6242.58L5173.02 6531.18L5133.83 6581.71L5180.59 6616.43L5153.56 6649.84V6744.57L5201.8 6744.19V6823.99H5319.69L5317.95 6693.28L5349.61 6654.2L5392.24 6688.65L5419.87 6652.57L5439.28 6668.05L5483.75 6610.44L5471.05 6601.71L5491.6 6574.08L5440.69 6536.09L5502.67 6454.39L5591.51 6454.49L5598.05 6454.66V6727.46L5609.44 6727.4V6725.93H5672.12V6727.29L5686.57 6727.24V6453.95H5782.33L5844.69 6536.09L5793.24 6574.52L5813.24 6600.41L5800.54 6609.78L5844.74 6667.83L5864.26 6653.39L5893.04 6688.98L5935.93 6655.46L5964.87 6693.99L5964.76 6737.71V6738.09L5964.6 6823.93H6082.88V6744.08H6131.06V6648.97L6104.74 6616.27L6150.36 6581.11L6111.6 6533.2L6491.72 6242.69L6536.47 6300.9L6617.58 6238.65L6571.96 6180L6626.03 6141.25L6540.72 6028.64L6490.36 6066.36L6469.54 6038.02L6386.2 6102.99L6406.15 6129.97L6267.22 6235.38L6146.7 6327.39L5994.14 6444.74L5946.94 6382.82L5946.78 6382.6L5945.09 6380.37L5901.27 6323.52L5815.91 6388.49H5757.97L5757.86 6351.32L5686.57 6351.91V6342.7H5850.09V6338.34V6235.44V6233.31H5686.57V6211.29H5929.94V6142.01H6101.63V6205.13H6292.29V6142.01V6135.75V5898.1H6084.51L6085.49 5967.65H6045.16V5967.6L6032.84 5967.65V5894.72H5892.11V5933.09H5686.02L5686.3 5834.33H5769.53V5773.45H5686.46L5686.62 5709.24H5776.23L5765.55 5728.21L5859.62 5783.37L5908.13 5699.86L5908.02 5699.81L5947.87 5631.35L6396.01 5892.98L6378.35 5922.9L6469.1 5976.04L6486.76 5946.07L6541.27 5977.57L6612.02 5856.13L6555.22 5823.1L6592.07 5760.15L6504.42 5708.53L6467.58 5771.54L6020.42 5513.95L6050.56 5463.53L5957.57 5408.64V5310.8H6394.16V5342.53L6719.72 5521.2H6837.89V5663.24H6838V6163.54H6757.33L6756.89 6218.32H6860.18L6860.95 6433.29H6950.99V6433.73L6918.45 6433.89L6918.61 6515.98L6950.72 6516.19L6950.88 6999.88H7203.62V6993.5H7222.92V6987.89V6921.01H7390.85V6918.12V6753.68V6454.28H7222.86H7217.25V6668.81H7215.67H7203.62V3306.36H7215.67H7307.95V3300.75H7305.44V3230.87H7455.82H7461.43V2726.53L7460.67 2726.42ZM3944.46 3835.78V3835.34H4001.53L3944.46 3835.78ZM4081.49 3922.77H4039.74V3922.55L4081.49 3921.89V3922.77ZM3530.66 5400.68L3403.22 5398.29L3256.38 5339.37L3255.13 5342.53L3235.13 5334.46L3178.6 5311.84L3180.35 5308.84L2816.2 5162.66V5121.78L2683.64 5119.49V4999.9L2684.78 4454.25L2687.95 4453.98L3376.02 4736.37L3417.01 4736.59V4802.49V4822.6H3530.66V5400.68ZM3587.01 4963.82L3586.91 4968.89L3586.85 4963.82H3587.01ZM3538.29 3935.47V3935.85L3478.71 3935.52L3538.29 3935.47ZM3541.12 4631.61H3537.03V4628.34H3541.12V4631.61ZM3541.94 4063.83H2935.13V4063.72H3541.94V4063.83ZM3586.8 5406.35H3588.1V5406.41L3586.8 5406.35ZM4506.36 5752.57L4412.56 5752.46L4412.72 5798.74H4389.5L4389.72 6018.61L4385.9 6018.78L4385.96 6054.15L4385.9 6120.21L4317.82 6120.81L4272.86 6144.09L4005.78 6143.98V6334.15L3990.36 6334.36L3966.1 6334.31L3965.99 6298.5H3802.31V6251.41H3702.46L3702.62 6289.4L3681.25 6289.67L3667.63 6282.31V6218.32H3698.31V6175.32H3707.53V6172.48L3708.13 5894.29H3707.53V5894.23H3639.88V5875.92H3683.65V5698.34H3594.59V5618H4231.49L4527.51 5617.34L4527.62 5729.19L4506.36 5752.57ZM4696.69 5555.59H4695.71L4696.69 5554.66V5555.59ZM4702.53 5549.54H4701.98L4702.53 5548.99V5549.54ZM5598.81 5645.3H5548.61L5497.87 5555.97L5545.02 5529.15L5522.02 5489.26L5544.25 5476.99L5508.88 5414.69L5495.85 5421.56L5479.67 5392.29L5423.31 5424.78L5393.27 5371.96L5391.86 5310.8H5534.66L5598.81 5374.96V5645.3ZM5602.85 5970.16H5600.07V5970.05H5602.85V5970.16ZM5722.98 5968.63H5769.42L5722.98 5968.8V5968.63ZM6462.62 3000.1H6462.78V3191.41H6462.62V3000.1ZM6028.32 1890.25L6073.01 1889.33V1890.91H6028.32V1890.25ZM5548.02 3249.51H5890.8V3041.96H5548.02V2942.48H6309.68V3268.75H5548.02V3249.51ZM5541.58 3314.1L5541.64 3393.57H5541.58V3314.1ZM5684.44 4486.3H5683.08V4347.96L5684.44 4347.91V4486.3ZM5864.97 5425.48L5808.66 5393.05L5791.49 5423.69L5776.77 5415.73L5742 5476.17L5764.24 5489.2L5741.18 5529.15L5788.98 5556.57L5737.59 5645.3H5686.57V5374.96L5749.2 5310.8L5896.8 5310.86L5896.91 5370.27L5864.97 5425.48ZM5748.21 5055.39L5735.13 5063.08L5770.51 5125.43L5792.75 5112.4L5815.75 5153.07L5864.37 5125.16L5896.8 5183.21L5896.47 5221.47H5740.09L5686.57 5163.58V4900.81H5739.06L5790.51 4992.93L5731.97 5026.12L5748.21 5055.39ZM6953.71 4866.37V4138.88H6843.23V4866.97H6897.79L6841.11 4868.11V5009.17L6721.74 5007.26L6665.32 5038.49L6661.18 5040.78L6660.53 5039.69L6662.44 5038.6L6568.25 4875.69L6152.48 5102.87L6149.59 5104.45L6217.02 5221.52H5956.75L5956.86 5142.11L6052.46 5086.13L6024.07 5037.79L6466.87 4779.97L6503.72 4842.93L6592.18 4792.13L6555.33 4728.41L6612.13 4695.38L6541.38 4573.94L6486.87 4605.45L6469.21 4575.47L6378.46 4628.61L6396.12 4658.54L5947.98 4919.4L5901.92 4840.31L5812.86 4892.53L5782.55 4840.15H5686.68V4665.95H5827.41H5830.25V4341.31H5705.86V4299.4H5811.66V4241.62H5683.13V4237.04H5682.21V4232.85H5757.48V4172.62H5682.21V3867.93H5686.62V3681.52H5642.31H5639.53H5601.81V3686.05H5543.38V3624.13H5539.68V3598.19H5541.53V3471.79H5552.21V3594.48H5617.18V3595.57H5620.67V3599.33H6388.76V3601.07H6392.31V3778.98H6457V3781.32H6625.32V3550.55V3547.33V3544.12H6614.74V3477.07H6462.67V3547.28H6462.62V3473.86H6614.74V3271.97H6617.47V3238.07L6843.12 3238.61L6842.09 3283.8L6843.12 3638.96L6843.07 3804.27H6842.09V3810.65H6843.07L6843.01 3963.15L6845.3 4133.27L6954.59 4134.74V4163.84L6955.4 4866.31H6953.71V4866.37Z" fill="#D5D4D4"/>
</g>
<path d="M4682.74 1908.62H4004.14C3965.72 1908.62 3934.54 1877.45 3934.54 1839.02V742.967C3934.54 704.54 3965.72 673.363 4004.14 673.363H4682.79C4721.22 673.363 4752.39 704.54 4752.39 742.967V1839.02C4752.39 1877.45 4721.22 1908.62 4682.74 1908.62Z" stroke="#D5D4D4" stroke-miterlimit="10"/>
<path d="M6892.99 1901.32H5004.76C4945.24 1901.32 4897 1853.08 4897 1793.56V781.121C4897 721.601 4945.24 673.363 5004.76 673.363H6892.99C6952.51 673.363 7000.75 721.601 7000.75 781.121V1793.56C7000.75 1853.08 6952.51 1901.32 6892.99 1901.32Z" stroke="#D5D4D4" stroke-miterlimit="10"/>
<path d="M6056.99 2736.17C6056.93 2736.17 6056.88 2736.16 6056.83 2736.14C6056.79 2736.12 6056.76 2736.09 6056.73 2736.05C6056.71 2736.02 6056.7 2735.98 6056.7 2735.93C6056.7 2735.89 6056.7 2735.86 6056.72 2735.83C6056.73 2735.8 6056.75 2735.77 6056.78 2735.75C6056.8 2735.73 6056.83 2735.72 6056.86 2735.71L6056.86 2735.71C6056.82 2735.7 6056.79 2735.67 6056.76 2735.64C6056.74 2735.6 6056.73 2735.56 6056.73 2735.52C6056.73 2735.48 6056.74 2735.44 6056.76 2735.4C6056.78 2735.37 6056.81 2735.34 6056.85 2735.32C6056.89 2735.3 6056.94 2735.29 6056.99 2735.29C6057.04 2735.29 6057.08 2735.3 6057.12 2735.32C6057.16 2735.34 6057.19 2735.37 6057.21 2735.4C6057.23 2735.44 6057.24 2735.48 6057.24 2735.52C6057.24 2735.56 6057.23 2735.6 6057.21 2735.64C6057.18 2735.68 6057.15 2735.7 6057.11 2735.71L6057.11 2735.71C6057.14 2735.72 6057.17 2735.73 6057.19 2735.75C6057.22 2735.77 6057.24 2735.8 6057.25 2735.83C6057.27 2735.86 6057.28 2735.89 6057.28 2735.93C6057.28 2735.98 6057.26 2736.02 6057.24 2736.05C6057.21 2736.09 6057.18 2736.12 6057.14 2736.14C6057.09 2736.16 6057.04 2736.17 6056.99 2736.17ZM6056.99 2736.08C6057.02 2736.08 6057.06 2736.07 6057.09 2736.06C6057.11 2736.05 6057.14 2736.03 6057.15 2736.01C6057.17 2735.98 6057.17 2735.96 6057.17 2735.93C6057.17 2735.89 6057.17 2735.86 6057.15 2735.84C6057.13 2735.82 6057.11 2735.8 6057.08 2735.78C6057.05 2735.77 6057.02 2735.76 6056.99 2735.76C6056.95 2735.76 6056.92 2735.77 6056.89 2735.78C6056.86 2735.8 6056.84 2735.81 6056.82 2735.84C6056.81 2735.86 6056.8 2735.89 6056.8 2735.92C6056.8 2735.96 6056.8 2735.98 6056.82 2736C6056.83 2736.03 6056.86 2736.05 6056.88 2736.06C6056.91 2736.07 6056.95 2736.08 6056.99 2736.08ZM6056.99 2735.67C6057.02 2735.67 6057.04 2735.67 6057.07 2735.65C6057.09 2735.64 6057.11 2735.62 6057.12 2735.6C6057.14 2735.58 6057.14 2735.55 6057.14 2735.53C6057.14 2735.5 6057.14 2735.47 6057.12 2735.45C6057.11 2735.43 6057.09 2735.41 6057.07 2735.4C6057.05 2735.39 6057.02 2735.38 6056.99 2735.38C6056.95 2735.38 6056.93 2735.39 6056.9 2735.4C6056.88 2735.41 6056.86 2735.43 6056.85 2735.45C6056.83 2735.47 6056.83 2735.5 6056.83 2735.53C6056.83 2735.55 6056.83 2735.58 6056.85 2735.6C6056.86 2735.62 6056.88 2735.64 6056.9 2735.65C6056.93 2735.67 6056.95 2735.67 6056.99 2735.67ZM6057.83 2735.3L6058.05 2735.66L6058.06 2735.66L6058.28 2735.31L6058.4 2735.31L6058.13 2735.73L6058.4 2736.16L6058.28 2736.16L6058.06 2735.81L6058.05 2735.81L6057.83 2736.16L6057.71 2736.16L6057.98 2735.73L6057.71 2735.3L6057.83 2735.3ZM6058.53 2736.16L6058.53 2735.31L6058.82 2735.31C6058.89 2735.31 6058.94 2735.32 6058.99 2735.34C6059.03 2735.36 6059.06 2735.39 6059.08 2735.43C6059.1 2735.47 6059.11 2735.52 6059.11 2735.57C6059.11 2735.62 6059.1 2735.66 6059.08 2735.7C6059.06 2735.74 6059.03 2735.77 6058.99 2735.79C6058.94 2735.81 6058.89 2735.83 6058.82 2735.83L6058.59 2735.83L6058.59 2735.73L6058.82 2735.73C6058.86 2735.73 6058.9 2735.73 6058.93 2735.71C6058.96 2735.7 6058.98 2735.68 6058.99 2735.66C6059 2735.63 6059.01 2735.6 6059.01 2735.57C6059.01 2735.53 6059 2735.5 6058.99 2735.48C6058.98 2735.45 6058.96 2735.43 6058.93 2735.42C6058.9 2735.4 6058.86 2735.4 6058.82 2735.4L6058.64 2735.4L6058.64 2736.16L6058.53 2736.16ZM6058.93 2735.78L6059.14 2736.16L6059.02 2736.16L6058.82 2735.78L6058.93 2735.78ZM6059.46 2736.17C6059.42 2736.17 6059.38 2736.17 6059.35 2736.15C6059.31 2736.14 6059.29 2736.11 6059.27 2736.08C6059.25 2736.05 6059.24 2736.02 6059.24 2735.98C6059.24 2735.94 6059.25 2735.91 6059.26 2735.89C6059.28 2735.87 6059.29 2735.85 6059.32 2735.83C6059.34 2735.82 6059.37 2735.81 6059.4 2735.81C6059.43 2735.8 6059.46 2735.79 6059.49 2735.79C6059.53 2735.78 6059.56 2735.78 6059.58 2735.78C6059.61 2735.78 6059.62 2735.77 6059.64 2735.76C6059.65 2735.76 6059.65 2735.75 6059.65 2735.73L6059.65 2735.73C6059.65 2735.69 6059.64 2735.66 6059.62 2735.63C6059.6 2735.61 6059.56 2735.6 6059.52 2735.6C6059.47 2735.6 6059.43 2735.61 6059.41 2735.63C6059.38 2735.65 6059.36 2735.67 6059.35 2735.69L6059.26 2735.66C6059.27 2735.62 6059.3 2735.59 6059.32 2735.57C6059.35 2735.55 6059.38 2735.53 6059.42 2735.52C6059.45 2735.52 6059.48 2735.51 6059.51 2735.51C6059.53 2735.51 6059.56 2735.51 6059.59 2735.52C6059.61 2735.52 6059.64 2735.53 6059.66 2735.55C6059.69 2735.56 6059.71 2735.59 6059.73 2735.62C6059.74 2735.65 6059.75 2735.69 6059.75 2735.74L6059.75 2736.16L6059.65 2736.16L6059.65 2736.07L6059.65 2736.07C6059.64 2736.09 6059.63 2736.1 6059.61 2736.12C6059.6 2736.13 6059.58 2736.15 6059.55 2736.16C6059.53 2736.17 6059.49 2736.17 6059.46 2736.17ZM6059.47 2736.09C6059.51 2736.09 6059.54 2736.08 6059.57 2736.06C6059.6 2736.05 6059.62 2736.03 6059.63 2736C6059.65 2735.98 6059.65 2735.95 6059.65 2735.93L6059.65 2735.84C6059.65 2735.84 6059.64 2735.85 6059.62 2735.85C6059.61 2735.86 6059.59 2735.86 6059.58 2735.86C6059.56 2735.86 6059.54 2735.87 6059.52 2735.87C6059.51 2735.87 6059.49 2735.87 6059.48 2735.87C6059.46 2735.88 6059.43 2735.88 6059.41 2735.89C6059.39 2735.9 6059.37 2735.91 6059.36 2735.92C6059.34 2735.94 6059.34 2735.96 6059.34 2735.98C6059.34 2736.02 6059.35 2736.04 6059.38 2736.06C6059.4 2736.08 6059.43 2736.09 6059.47 2736.09ZM6059.97 2736.4C6059.95 2736.4 6059.94 2736.4 6059.93 2736.4C6059.91 2736.39 6059.9 2736.39 6059.9 2736.39L6059.92 2736.3C6059.95 2736.31 6059.97 2736.31 6059.99 2736.31C6060 2736.31 6060.02 2736.3 6060.04 2736.28C6060.05 2736.27 6060.06 2736.25 6060.07 2736.21L6060.09 2736.16L6059.86 2735.52L6059.96 2735.52L6060.14 2736.03L6060.15 2736.03L6060.32 2735.52L6060.43 2735.52L6060.16 2736.25C6060.15 2736.29 6060.13 2736.31 6060.11 2736.34C6060.09 2736.36 6060.07 2736.37 6060.05 2736.38C6060.03 2736.39 6060 2736.4 6059.97 2736.4Z" fill="#676767"/>
<path d="M6056.72 2742.23L6056.72 2741.38L6057.01 2741.38C6057.08 2741.38 6057.13 2741.39 6057.17 2741.42C6057.22 2741.44 6057.25 2741.47 6057.27 2741.51C6057.29 2741.55 6057.3 2741.59 6057.3 2741.64C6057.3 2741.69 6057.29 2741.74 6057.27 2741.78C6057.25 2741.82 6057.21 2741.85 6057.17 2741.87C6057.13 2741.89 6057.08 2741.9 6057.01 2741.9L6056.78 2741.9L6056.78 2741.81L6057.01 2741.81C6057.05 2741.81 6057.09 2741.8 6057.12 2741.79C6057.14 2741.78 6057.16 2741.76 6057.18 2741.73C6057.19 2741.71 6057.2 2741.68 6057.2 2741.64C6057.2 2741.61 6057.19 2741.58 6057.18 2741.55C6057.16 2741.53 6057.14 2741.51 6057.12 2741.49C6057.09 2741.48 6057.05 2741.47 6057.01 2741.47L6056.82 2741.47L6056.82 2742.23L6056.72 2742.23ZM6057.12 2741.85L6057.33 2742.24L6057.21 2742.24L6057 2741.85L6057.12 2741.85ZM6057.72 2742.25C6057.66 2742.25 6057.6 2742.24 6057.56 2742.21C6057.51 2742.18 6057.48 2742.14 6057.46 2742.09C6057.43 2742.04 6057.42 2741.99 6057.42 2741.92C6057.42 2741.85 6057.43 2741.8 6057.46 2741.75C6057.48 2741.7 6057.51 2741.66 6057.56 2741.63C6057.6 2741.6 6057.65 2741.59 6057.71 2741.59C6057.74 2741.59 6057.77 2741.59 6057.81 2741.6C6057.84 2741.62 6057.87 2741.63 6057.9 2741.66C6057.92 2741.68 6057.94 2741.72 6057.96 2741.76C6057.97 2741.8 6057.98 2741.85 6057.98 2741.91L6057.98 2741.95L6057.49 2741.95L6057.49 2741.86L6057.88 2741.86C6057.88 2741.83 6057.88 2741.8 6057.86 2741.77C6057.85 2741.74 6057.83 2741.72 6057.8 2741.7C6057.77 2741.68 6057.74 2741.68 6057.71 2741.68C6057.67 2741.68 6057.64 2741.69 6057.61 2741.7C6057.58 2741.72 6057.56 2741.75 6057.54 2741.78C6057.53 2741.81 6057.52 2741.84 6057.52 2741.88L6057.52 2741.94C6057.52 2741.98 6057.53 2742.02 6057.54 2742.06C6057.56 2742.09 6057.58 2742.12 6057.61 2742.13C6057.64 2742.15 6057.68 2742.16 6057.72 2742.16C6057.74 2742.16 6057.77 2742.16 6057.79 2742.15C6057.81 2742.14 6057.83 2742.13 6057.84 2742.12C6057.86 2742.1 6057.87 2742.08 6057.88 2742.06L6057.97 2742.09C6057.96 2742.12 6057.95 2742.15 6057.92 2742.17C6057.9 2742.2 6057.87 2742.22 6057.83 2742.23C6057.8 2742.24 6057.76 2742.25 6057.72 2742.25ZM6058.59 2741.74L6058.5 2741.77C6058.49 2741.75 6058.48 2741.74 6058.47 2741.72C6058.46 2741.71 6058.45 2741.7 6058.43 2741.69C6058.41 2741.68 6058.39 2741.67 6058.36 2741.67C6058.32 2741.67 6058.29 2741.68 6058.26 2741.7C6058.24 2741.72 6058.22 2741.74 6058.22 2741.77C6058.22 2741.79 6058.23 2741.81 6058.25 2741.83C6058.27 2741.84 6058.29 2741.85 6058.33 2741.86L6058.43 2741.88C6058.48 2741.9 6058.53 2741.92 6058.55 2741.95C6058.58 2741.98 6058.6 2742.01 6058.6 2742.06C6058.6 2742.09 6058.59 2742.13 6058.57 2742.16C6058.54 2742.19 6058.51 2742.21 6058.48 2742.22C6058.44 2742.24 6058.4 2742.25 6058.35 2742.25C6058.28 2742.25 6058.23 2742.24 6058.18 2742.21C6058.14 2742.18 6058.12 2742.14 6058.1 2742.08L6058.2 2742.06C6058.21 2742.09 6058.22 2742.12 6058.25 2742.14C6058.27 2742.15 6058.3 2742.16 6058.35 2742.16C6058.39 2742.16 6058.43 2742.15 6058.45 2742.13C6058.48 2742.11 6058.5 2742.09 6058.5 2742.06C6058.5 2742.04 6058.49 2742.02 6058.47 2742.01C6058.46 2741.99 6058.43 2741.98 6058.4 2741.97L6058.29 2741.95C6058.24 2741.93 6058.19 2741.91 6058.16 2741.88C6058.14 2741.85 6058.12 2741.82 6058.12 2741.77C6058.12 2741.74 6058.13 2741.7 6058.15 2741.68C6058.18 2741.65 6058.2 2741.63 6058.24 2741.61C6058.27 2741.6 6058.31 2741.59 6058.36 2741.59C6058.42 2741.59 6058.47 2741.6 6058.51 2741.63C6058.54 2741.66 6058.57 2741.69 6058.59 2741.74ZM6058.74 2742.24L6058.75 2741.6L6058.84 2741.6L6058.84 2742.24L6058.74 2742.24ZM6058.8 2741.49C6058.78 2741.49 6058.76 2741.48 6058.75 2741.47C6058.73 2741.46 6058.73 2741.44 6058.73 2741.42C6058.73 2741.41 6058.73 2741.39 6058.75 2741.38C6058.76 2741.36 6058.78 2741.36 6058.8 2741.36C6058.81 2741.36 6058.83 2741.36 6058.84 2741.38C6058.86 2741.39 6058.87 2741.41 6058.87 2741.42C6058.87 2741.44 6058.86 2741.46 6058.84 2741.47C6058.83 2741.48 6058.81 2741.49 6058.8 2741.49ZM6059.48 2741.74L6059.39 2741.77C6059.38 2741.75 6059.37 2741.74 6059.36 2741.72C6059.35 2741.71 6059.34 2741.7 6059.32 2741.69C6059.3 2741.68 6059.28 2741.67 6059.25 2741.67C6059.21 2741.67 6059.18 2741.68 6059.15 2741.7C6059.13 2741.72 6059.11 2741.74 6059.11 2741.77C6059.11 2741.79 6059.12 2741.81 6059.14 2741.83C6059.16 2741.84 6059.19 2741.85 6059.22 2741.86L6059.32 2741.89C6059.38 2741.9 6059.42 2741.92 6059.45 2741.95C6059.47 2741.98 6059.49 2742.01 6059.49 2742.06C6059.49 2742.1 6059.48 2742.13 6059.46 2742.16C6059.44 2742.19 6059.41 2742.21 6059.37 2742.23C6059.33 2742.24 6059.29 2742.25 6059.24 2742.25C6059.17 2742.25 6059.12 2742.24 6059.08 2742.21C6059.03 2742.18 6059.01 2742.14 6058.99 2742.08L6059.09 2742.06C6059.1 2742.09 6059.11 2742.12 6059.14 2742.14C6059.16 2742.16 6059.2 2742.16 6059.24 2742.16C6059.28 2742.16 6059.32 2742.15 6059.35 2742.13C6059.37 2742.12 6059.39 2742.09 6059.39 2742.06C6059.39 2742.04 6059.38 2742.02 6059.36 2742.01C6059.35 2741.99 6059.32 2741.98 6059.29 2741.97L6059.18 2741.95C6059.13 2741.94 6059.08 2741.91 6059.06 2741.88C6059.03 2741.85 6059.01 2741.82 6059.01 2741.77C6059.02 2741.74 6059.03 2741.71 6059.05 2741.68C6059.07 2741.65 6059.09 2741.63 6059.13 2741.61C6059.16 2741.6 6059.21 2741.59 6059.25 2741.59C6059.31 2741.59 6059.36 2741.6 6059.4 2741.63C6059.44 2741.66 6059.46 2741.7 6059.48 2741.74ZM6059.91 2741.6L6059.91 2741.68L6059.58 2741.68L6059.58 2741.6L6059.91 2741.6ZM6059.68 2741.44L6059.78 2741.44L6059.78 2742.05C6059.78 2742.08 6059.78 2742.1 6059.79 2742.12C6059.8 2742.13 6059.81 2742.14 6059.82 2742.14C6059.83 2742.15 6059.85 2742.15 6059.86 2742.15C6059.87 2742.15 6059.88 2742.15 6059.89 2742.15C6059.9 2742.15 6059.9 2742.15 6059.91 2742.15L6059.93 2742.23C6059.92 2742.24 6059.91 2742.24 6059.9 2742.24C6059.89 2742.24 6059.87 2742.25 6059.85 2742.25C6059.82 2742.25 6059.8 2742.24 6059.77 2742.23C6059.74 2742.22 6059.72 2742.2 6059.7 2742.17C6059.69 2742.15 6059.68 2742.12 6059.68 2742.08L6059.68 2741.44ZM6060.06 2742.24L6060.06 2741.6L6060.16 2741.6L6060.16 2741.7L6060.16 2741.7C6060.18 2741.66 6060.2 2741.64 6060.23 2741.62C6060.26 2741.6 6060.29 2741.59 6060.33 2741.59C6060.34 2741.59 6060.35 2741.59 6060.36 2741.59C6060.37 2741.59 6060.38 2741.59 6060.38 2741.59L6060.38 2741.69C6060.38 2741.69 6060.37 2741.69 6060.36 2741.69C6060.35 2741.68 6060.34 2741.68 6060.32 2741.68C6060.29 2741.68 6060.26 2741.69 6060.24 2741.7C6060.21 2741.72 6060.2 2741.73 6060.18 2741.76C6060.17 2741.78 6060.16 2741.8 6060.16 2741.83L6060.16 2742.24L6060.06 2742.24ZM6060.69 2742.25C6060.65 2742.25 6060.61 2742.25 6060.58 2742.23C6060.54 2742.22 6060.52 2742.19 6060.5 2742.16C6060.48 2742.13 6060.47 2742.1 6060.47 2742.06C6060.47 2742.02 6060.48 2741.99 6060.49 2741.97C6060.5 2741.94 6060.52 2741.93 6060.55 2741.91C6060.57 2741.9 6060.6 2741.89 6060.63 2741.88C6060.66 2741.88 6060.69 2741.87 6060.72 2741.87C6060.76 2741.86 6060.79 2741.86 6060.81 2741.86C6060.84 2741.86 6060.85 2741.85 6060.86 2741.84C6060.88 2741.84 6060.88 2741.83 6060.88 2741.81L6060.88 2741.81C6060.88 2741.77 6060.87 2741.73 6060.85 2741.71C6060.83 2741.69 6060.79 2741.68 6060.75 2741.68C6060.7 2741.68 6060.66 2741.69 6060.64 2741.71C6060.61 2741.73 6060.59 2741.75 6060.58 2741.77L6060.49 2741.74C6060.5 2741.7 6060.53 2741.67 6060.55 2741.65C6060.58 2741.63 6060.61 2741.61 6060.65 2741.6C6060.68 2741.6 6060.71 2741.59 6060.74 2741.59C6060.76 2741.59 6060.79 2741.59 6060.81 2741.6C6060.84 2741.6 6060.87 2741.61 6060.89 2741.63C6060.92 2741.64 6060.94 2741.67 6060.95 2741.7C6060.97 2741.73 6060.98 2741.77 6060.98 2741.82L6060.98 2742.24L6060.88 2742.24L6060.88 2742.15L6060.88 2742.15C6060.87 2742.17 6060.86 2742.18 6060.84 2742.2C6060.83 2742.21 6060.81 2742.23 6060.78 2742.24C6060.75 2742.25 6060.72 2742.25 6060.69 2742.25ZM6060.7 2742.17C6060.74 2742.17 6060.77 2742.16 6060.8 2742.14C6060.83 2742.13 6060.85 2742.11 6060.86 2742.08C6060.87 2742.06 6060.88 2742.03 6060.88 2742.01L6060.88 2741.92C6060.88 2741.92 6060.87 2741.93 6060.85 2741.93C6060.84 2741.94 6060.82 2741.94 6060.81 2741.94C6060.79 2741.94 6060.77 2741.95 6060.75 2741.95C6060.74 2741.95 6060.72 2741.95 6060.71 2741.95C6060.69 2741.96 6060.66 2741.96 6060.64 2741.97C6060.62 2741.98 6060.6 2741.99 6060.59 2742C6060.57 2742.02 6060.57 2742.04 6060.57 2742.06C6060.57 2742.1 6060.58 2742.12 6060.6 2742.14C6060.63 2742.16 6060.66 2742.17 6060.7 2742.17ZM6061.44 2741.6L6061.44 2741.68L6061.11 2741.68L6061.11 2741.6L6061.44 2741.6ZM6061.2 2741.45L6061.3 2741.45L6061.3 2742.06C6061.3 2742.08 6061.3 2742.1 6061.31 2742.12C6061.32 2742.13 6061.33 2742.14 6061.34 2742.15C6061.36 2742.15 6061.37 2742.15 6061.39 2742.15C6061.4 2742.15 6061.4 2742.15 6061.41 2742.15C6061.42 2742.15 6061.42 2742.15 6061.43 2742.15L6061.45 2742.24C6061.44 2742.24 6061.43 2742.24 6061.42 2742.24C6061.41 2742.25 6061.39 2742.25 6061.38 2742.25C6061.35 2742.25 6061.32 2742.24 6061.29 2742.23C6061.27 2742.22 6061.25 2742.2 6061.23 2742.18C6061.21 2742.15 6061.2 2742.12 6061.2 2742.08L6061.2 2741.45ZM6061.58 2742.24L6061.59 2741.6L6061.68 2741.6L6061.68 2742.24L6061.58 2742.24ZM6061.64 2741.49C6061.62 2741.49 6061.6 2741.49 6061.59 2741.47C6061.57 2741.46 6061.57 2741.45 6061.57 2741.43C6061.57 2741.41 6061.57 2741.39 6061.59 2741.38C6061.6 2741.37 6061.62 2741.36 6061.64 2741.36C6061.65 2741.36 6061.67 2741.37 6061.68 2741.38C6061.7 2741.39 6061.71 2741.41 6061.71 2741.43C6061.71 2741.45 6061.7 2741.46 6061.68 2741.47C6061.67 2741.49 6061.65 2741.49 6061.64 2741.49ZM6062.12 2742.25C6062.07 2742.25 6062.01 2742.24 6061.97 2742.21C6061.93 2742.18 6061.89 2742.15 6061.87 2742.1C6061.85 2742.05 6061.83 2741.99 6061.83 2741.92C6061.83 2741.86 6061.85 2741.8 6061.87 2741.75C6061.89 2741.7 6061.93 2741.66 6061.97 2741.63C6062.02 2741.61 6062.07 2741.59 6062.12 2741.59C6062.18 2741.59 6062.23 2741.61 6062.28 2741.63C6062.32 2741.66 6062.35 2741.7 6062.38 2741.75C6062.4 2741.8 6062.41 2741.86 6062.41 2741.92C6062.41 2741.99 6062.4 2742.05 6062.38 2742.1C6062.35 2742.15 6062.32 2742.19 6062.27 2742.21C6062.23 2742.24 6062.18 2742.25 6062.12 2742.25ZM6062.12 2742.17C6062.17 2742.17 6062.2 2742.15 6062.23 2742.13C6062.26 2742.11 6062.28 2742.08 6062.29 2742.04C6062.31 2742.01 6062.31 2741.97 6062.31 2741.92C6062.31 2741.88 6062.31 2741.84 6062.29 2741.8C6062.28 2741.77 6062.26 2741.74 6062.23 2741.72C6062.2 2741.69 6062.17 2741.68 6062.12 2741.68C6062.08 2741.68 6062.04 2741.69 6062.02 2741.71C6061.99 2741.74 6061.97 2741.77 6061.95 2741.8C6061.94 2741.84 6061.93 2741.88 6061.93 2741.92C6061.93 2741.97 6061.94 2742.01 6061.95 2742.04C6061.97 2742.08 6061.99 2742.11 6062.01 2742.13C6062.04 2742.15 6062.08 2742.17 6062.12 2742.17ZM6062.66 2741.86L6062.66 2742.24L6062.56 2742.24L6062.56 2741.6L6062.66 2741.6L6062.66 2741.7L6062.67 2741.7C6062.68 2741.67 6062.7 2741.64 6062.73 2741.62C6062.77 2741.6 6062.8 2741.59 6062.85 2741.59C6062.9 2741.59 6062.93 2741.6 6062.97 2741.62C6063 2741.64 6063.02 2741.66 6063.04 2741.7C6063.06 2741.74 6063.07 2741.78 6063.07 2741.84L6063.07 2742.24L6062.97 2742.24L6062.97 2741.84C6062.97 2741.79 6062.96 2741.75 6062.93 2741.72C6062.91 2741.7 6062.87 2741.68 6062.82 2741.68C6062.79 2741.68 6062.77 2741.69 6062.74 2741.7C6062.72 2741.72 6062.7 2741.74 6062.68 2741.76C6062.67 2741.79 6062.66 2741.82 6062.66 2741.86Z" fill="#676767"/>
<g opacity="0.4">
<path d="M6057.37 8290.13C5969.89 8290.13 5898.7 8218.95 5898.7 8131.47C5898.7 8043.98 5969.89 7972.75 6057.37 7972.75C6144.85 7972.75 6216.03 8043.93 6216.03 8131.47C6216.09 8218.95 6144.9 8290.13 6057.37 8290.13ZM6057.37 7977.32C5972.39 7977.32 5903.23 8046.49 5903.23 8131.47C5903.23 8216.44 5972.39 8285.61 6057.37 8285.61C6142.34 8285.61 6211.51 8216.44 6211.51 8131.47C6211.51 8046.44 6142.4 7977.32 6057.37 7977.32Z" fill="#D2D2D2"/>
<path d="M6488.34 9805.55L6476.29 9803.21L6474.06 9795.25L6486.1 9797.59L6495.21 9789.36L6497.44 9797.32L6488.34 9805.55ZM6484.69 9792.3L6472.64 9789.96L6470.41 9782L6482.45 9784.35L6491.55 9776.12L6493.79 9784.07L6484.69 9792.3ZM6480.98 9779.11L6468.93 9776.77L6466.7 9768.81L6478.74 9771.16L6487.85 9762.93L6490.08 9770.88L6480.98 9779.11ZM6481.2 9774.81L6478.58 9775.57L6476.35 9767.34L6478.96 9766.63L6481.2 9774.81ZM6475.37 9753.5L6472.75 9754.21L6471.93 9751.26L6465.77 9727.88L6468.39 9727.17L6474.55 9750.55L6475.37 9753.5ZM6465.01 9713.98L6462.39 9714.63L6456.18 9690.32L6455.63 9688.25L6458.31 9687.6L6458.8 9689.67L6465.01 9713.98ZM6454.93 9674.36L6452.26 9675.01L6447.08 9654.35L6445.66 9648.57L6448.33 9647.92L6449.75 9653.7L6454.93 9674.36ZM6445.06 9634.73L6442.39 9635.38L6437.43 9615.27L6435.9 9608.89L6438.57 9608.24L6440.1 9614.62L6445.06 9634.73ZM6435.36 9595.05L6432.69 9595.7L6427.24 9573.3L6426.26 9569.21L6428.93 9568.56L6429.91 9572.59L6435.36 9595.05ZM6425.71 9555.31L6423.04 9555.97L6416.66 9529.48L6419.33 9528.82L6425.71 9555.31ZM6416.17 9515.58L6413.5 9516.23L6407.18 9489.74L6409.85 9489.09L6416.17 9515.58ZM6406.69 9475.85L6404.02 9476.5L6397.75 9450.01L6400.42 9449.41L6406.69 9475.85ZM6397.26 9436.11L6394.59 9436.76L6393.77 9433.28L6388.37 9410.28L6391.05 9409.68L6396.44 9432.68L6397.26 9436.11ZM6387.88 9396.32L6385.21 9396.92L6381.89 9382.91L6378.94 9370.43L6381.62 9369.83L6384.56 9382.31L6387.88 9396.32ZM6378.56 9356.53L6375.89 9357.13L6369.84 9331.35L6369.68 9330.59L6372.35 9329.99L6372.51 9330.7L6378.56 9356.53ZM6369.24 9316.74L6366.57 9317.34L6360.41 9290.8L6363.08 9290.2L6369.24 9316.74ZM6359.98 9276.95L6357.31 9277.55L6351.15 9251.01L6353.82 9250.41L6359.98 9276.95ZM6350.71 9237.17L6348.04 9237.77L6345.26 9225.83L6341.88 9211.28L6344.55 9210.68L6347.93 9225.23L6350.71 9237.17ZM6341.5 9197.32L6338.83 9197.92L6332.94 9172.41L6332.72 9171.38L6335.4 9170.78L6335.61 9171.81L6341.5 9197.32ZM6332.34 9157.53L6329.67 9158.13L6323.57 9131.59L6326.24 9130.99L6332.34 9157.53ZM6323.19 9117.69L6320.52 9118.29L6314.41 9091.75L6317.08 9091.15L6323.19 9117.69ZM6314.03 9077.9L6311.36 9078.5L6308.52 9066.13L6305.25 9051.9L6307.92 9051.3L6311.19 9065.53L6314.03 9077.9ZM6304.87 9038.06L6302.2 9038.66L6296.53 9013.86L6296.15 9012.11L6298.82 9011.51L6299.2 9013.26L6304.87 9038.06ZM6295.77 8998.21L6293.1 8998.81L6287.05 8972.27L6289.72 8971.67L6295.77 8998.21ZM6286.72 8958.37L6284.05 8958.97L6278 8932.43L6280.67 8931.83L6286.72 8958.37ZM6277.62 8918.53L6274.95 8919.13L6273.48 8912.69L6268.9 8892.58L6271.57 8891.98L6276.15 8912.09L6277.62 8918.53ZM6268.57 8878.68L6265.9 8879.28L6262.52 8864.46L6259.85 8852.74L6262.52 8852.14L6265.19 8863.86L6268.57 8878.68ZM6259.52 8838.84L6256.85 8839.44L6252.06 8818.18L6250.86 8812.84L6253.53 8812.24L6254.73 8817.58L6259.52 8838.84ZM6250.48 8799L6247.8 8799.59L6242.08 8774.25L6241.81 8773L6244.48 8772.4L6244.75 8773.65L6250.48 8799ZM6241.48 8759.15L6238.81 8759.75L6232.82 8733.15L6235.49 8732.55L6241.48 8759.15ZM6232.49 8719.25L6229.82 8719.85L6224.15 8694.62L6223.82 8693.26L6226.49 8692.65L6226.82 8694.02L6232.49 8719.25ZM6223.5 8679.41L6220.82 8680.01L6216.25 8659.57L6214.88 8653.41L6217.55 8652.81L6218.92 8658.97L6223.5 8679.41ZM6214.56 8639.57L6211.89 8640.17L6209.21 8628.18L6205.94 8613.57L6208.62 8612.97L6211.89 8627.58L6214.56 8639.57ZM6205.56 8599.67L6202.89 8600.27L6197.77 8577.48L6196.9 8573.67L6199.57 8573.07L6200.44 8576.89L6205.56 8599.67ZM6196.62 8559.82L6193.95 8560.43L6193.63 8558.9L6190.57 8545.22L6188.67 8536.77L6188.01 8533.88L6190.68 8533.28L6191.34 8536.17L6193.24 8544.62L6196.3 8558.3L6196.62 8559.82ZM6182.51 8502.76L6194.44 8505.7L6196.24 8513.77L6184.36 8510.77L6174.82 8518.51L6173.02 8510.44L6182.51 8502.76ZM6185.5 8516.17L6197.44 8519.11L6199.24 8527.18L6187.36 8524.18L6177.82 8531.92L6176.02 8523.85L6185.5 8516.17ZM6188.45 8529.57L6200.38 8532.52L6202.18 8540.59L6190.3 8537.59L6180.76 8545.33L6178.96 8537.26L6188.45 8529.57Z" fill="#CED1D2"/>
<path d="M7701.09 5785.55H7691.11L7691.06 5782.88C7686.81 5572.76 7681.74 5341.49 7676.07 5095.45L7676.02 5092.67H7685.99L7686.04 5095.34C7691.71 5342.14 7696.78 5573.46 7701.03 5782.77L7701.09 5785.55Z" fill="#D5D4D4"/>
<path d="M7648 5011.14C7648.05 5011.03 7648.05 5010.86 7648.11 5010.75C7648.16 5010.64 7648.27 5010.64 7648.38 5010.75C7648.54 5010.92 7648.54 5011.3 7648.38 5011.46C7648.33 5011.57 7648.16 5011.57 7648.11 5011.46C7648.11 5011.41 7648.05 5011.24 7648 5011.14Z" fill="white"/>
<path d="M0 5110.44V5101.12L205.976 5073.05C209.574 5072.62 572.635 5030.65 894.6 4996.2C1251.17 4993.36 1280.66 4647.8 1311.84 4281.96C1331.03 4056.96 1350.87 3824.33 1449.08 3663.16C1524.85 3538.83 1605.84 3422.9 1761.95 3370.79C2043.58 3289.08 2305.97 3268.32 2537.45 3250C2832.82 3226.62 3087.9 3206.4 3258.83 3062.01C3444.1 2905.47 3522.8 2616 3514.03 2123.27C3507.27 1744.34 3436.3 1349.67 3367.63 967.966C3344.9 841.567 3229.84 184.339 3200.57 4.74335L3200.08 1.58203H3210.21L3210.59 3.87126C3240.03 184.285 3354.87 840.368 3377.49 966.167C3446.22 1348.25 3517.24 1743.42 3524.06 2123.05C3542.92 3180.29 3143.28 3211.96 2538.32 3259.87C2307.27 3278.18 2045.48 3298.9 1765 3380.27C1612.27 3431.29 1532.48 3545.64 1457.7 3668.33C1360.68 3827.49 1340.95 4058.92 1321.87 4282.78C1290.26 4653.3 1260.39 5003.28 895.199 5006.12C574.489 5040.46 210.718 5082.48 207.176 5082.92L0 5110.44Z" fill="#D2D2D2"/>
<path d="M4682.74 1912.22H4004.14C3965.72 1912.22 3934.54 1881.04 3934.54 1842.62V746.565C3934.54 708.138 3965.72 676.961 4004.14 676.961H4682.79C4721.22 676.961 4752.39 708.138 4752.39 746.565V1842.62C4752.39 1881.04 4721.22 1912.22 4682.74 1912.22Z" stroke="#D5D4D4" stroke-miterlimit="10"/>
<path d="M6892.99 1904.92H5004.76C4945.24 1904.92 4897 1856.68 4897 1797.16V784.718C4897 725.198 4945.24 676.961 5004.76 676.961H6892.99C6952.51 676.961 7000.75 725.198 7000.75 784.718V1797.16C7000.75 1856.68 6952.51 1904.92 6892.99 1904.92Z" stroke="#D5D4D4" stroke-miterlimit="10"/>
<path d="M7717.6 7010.18H7200.78V7016.56H7717.6V7010.18Z" fill="#D5D4D4"/>
<path d="M5463.58 2019.38C5431.15 2019.71 5398.67 2020.03 5366.51 2020.3C4849.69 2025.21 4264.13 2030.82 3703.76 2060.86C3699.35 1988.69 3694 1915.76 3688.83 1845.18L3688.23 1837.06C3670.29 1591.62 3561.83 958.864 3560.74 952.486L3394.44 3.92613L3394.06 1.69141H3383.92L3550.93 954.231C3552.02 960.553 3660.32 1591.73 3678.31 1837.87L3678.91 1846C3683.87 1913.64 3689.48 1990.33 3694 2064.24L3694.44 2071.49L3701.69 2071.1C4262.44 2040.91 4849.09 2035.35 5366.67 2030.39C5398.77 2030.06 5431.31 2029.79 5463.69 2029.46V2019.38H5463.58Z" fill="#D2D2D2"/>
<path d="M5509.2 2028.92C5680.68 2027.23 5854.99 2025.32 6028.59 2022.43V2012.35C5855.26 2015.24 5680.95 2017.2 5509.2 2018.94V2028.92Z" fill="#D2D2D2"/>
<path d="M7628.16 2185.29L7557.63 -0.216128L7557.52 -2.94141L7547.49 -2.61437L7618.13 2185.57L7618.19 2187.04C7532.18 2188.56 7419.3 2195.76 7319.61 2202.14C6976.98 2223.99 6550.53 2251.25 6302.2 2143.81C6214.29 2089.96 6147.68 2014.04 6147.03 2013.27L6145.5 2011.53L6143.16 2011.58C6119.94 2012.02 6096.66 2012.4 6073.39 2012.84V2022.87C6095.96 2022.49 6118.52 2022.1 6141.03 2021.67C6151.5 2033.28 6215.76 2102.66 6297.57 2152.7C6421.19 2206.17 6600.79 2232.17 6846.61 2232.17C6846.66 2232.17 6846.72 2232.17 6846.77 2232.17C7006.25 2232.17 7173.09 2221.54 7320.26 2212.11C7420.77 2205.68 7534.74 2198.43 7621.18 2196.96L7628.49 2196.85L7628.16 2185.29Z" fill="#D3D3D3"/>
<path d="M1154.81 5604.7C1477.1 5769.14 1741.07 5988.74 1996.38 6201.15C2445.12 6574.46 2869.01 6927.11 3548.37 6939.48C3843.02 6944.83 4337.12 7112.16 4815.13 7273.99C5229.32 7414.23 5620.56 7546.73 5816.62 7546.73C5844.52 7546.73 5868.23 7544.01 5887.09 7538.55L5905.3 7533.32L5901.37 7527.6C5876.79 7491.68 5855.21 7458.98 5834.38 7427.36C5704.06 7229.67 5632.22 7120.82 5383.13 7101.47C5309.88 7096.02 5233.51 7084.09 5149.58 7064.96C5027.81 7037.21 4905.28 6997.59 4786.79 6959.27C4609.1 6901.82 4425.42 6842.36 4234.59 6818.97C4171.64 6811.23 4108.14 6804.42 4046.27 6797.77C3669.1 6757.22 3312.9 6718.96 3006.25 6476.13C2936.76 6411.98 2872.22 6351.91 2809.82 6293.81L2809.38 6293.43C2359.98 5875.15 2088.71 5622.68 1582.57 5340.95C1422.32 5251.72 1242.89 5203.75 1034.08 5194.22C847.779 5185.71 654.339 5207.9 467.222 5229.37L467.549 5232.1L466.677 5229.43C391.84 5237.98 314.443 5246.87 238.08 5253.74L2.34374 5276.3L0 5276.47V5286.82L239.116 5263.6C315.86 5256.68 393.421 5247.8 468.475 5239.18C856.936 5194.6 1223.81 5152.52 1577.83 5349.61C2082.88 5630.75 2353.82 5882.95 2802.68 6300.73C2865.14 6358.89 2929.73 6419.01 2999.82 6483.71C3308.98 6728.6 3666.59 6767.03 4045.51 6807.74C4106.94 6814.34 4170.44 6821.15 4233.39 6828.89C4423.29 6852.22 4606.54 6911.47 4783.73 6968.81C4902.45 7007.23 5025.25 7046.91 5147.34 7074.77C5231.77 7094.01 5308.68 7106 5382.37 7111.5C5626.61 7130.42 5697.41 7237.85 5826.04 7432.92C5845.83 7462.9 5866.22 7493.86 5889.22 7527.6L5884.31 7529.02C5729.95 7573.27 5287.2 7423.38 4818.13 7264.5C4339.57 7102.46 3844.77 6934.91 3548.53 6929.51C2872.66 6917.25 2450.08 6565.69 2002.7 6193.52C1747.01 5980.79 1482.61 5760.86 1159.28 5595.87C801.286 5413.22 173.219 5423.96 146.62 5424.45L0 5430.01V5439.49L146.947 5434.42C153.379 5434.26 798.016 5422.7 1154.81 5604.7Z" fill="#D2D2D2"/>
<path d="M6118.09 9532.86C6080.31 9335.22 6033.38 9089.19 6030 9068.31C6010.33 8945.24 5989.94 8817.91 5948.35 8702.03L5947.43 8699.47L5944.76 8698.87C5768.27 8659.46 5641.16 8578.69 5566.93 8458.88C5453.39 8275.53 5504.41 8063.01 5504.95 8060.88L5506.04 8056.52L5501.85 8055C5428.54 8028.18 5355.28 8001.36 5282.02 7974.55L5280.77 7974.06C4848.87 7815.88 4402.25 7652.31 3959.67 7499.42C3738.7 7423.06 3517.35 7409.93 3282.98 7396.03C2975.51 7377.77 2657.58 7358.85 2339 7185.09C2073.17 7040.1 1867.47 6849.28 1668.52 6664.67C1281.97 6306.08 916.947 5967.38 171.583 6005.97L0 6015.07V6024.34L172.02 6015.89C185.918 6015.13 199.981 6014.53 213.88 6014.09C217.096 6013.87 537.643 5995.18 841.239 6102.83C1176.18 6221.59 1412.02 6440.38 1661.71 6672.03C1861.09 6857.02 2067.29 7048.28 2334.15 7193.81C2654.69 7368.66 2973.77 7387.63 3282.32 7405.95C3515.99 7419.84 3736.63 7432.93 3956.29 7508.8C4399.14 7661.8 4846.09 7825.48 5278.48 7983.81C5350.37 8010.14 5422.27 8036.47 5494.21 8062.79C5487.51 8094.57 5451.92 8292.1 5558.37 8464.01C5633.64 8585.61 5762 8667.7 5939.85 8707.92C5980.46 8822.11 6000.63 8947.96 6020.14 9069.84C6023.52 9090.88 6070.61 9337.62 6108.49 9535.86C6135.2 9675.78 6158.31 9796.67 6160.87 9811.22L6161.36 9813.95L6171.17 9812.15L6170.68 9809.48C6168.07 9794.82 6144.9 9673.43 6118.09 9532.86ZM413.861 6012.51C510.445 6018.89 599.943 6032.35 683.609 6051.92C585.281 6029.63 491.477 6018.18 413.861 6012.51Z" fill="#D2D2D2"/>
<path d="M2356.44 6891.25L2357.85 6888.91L2346.08 6882.04L2344.72 6884.38L2356.44 6891.25Z" fill="#CED1D2"/>
<path d="M2416.18 6924.12L2417.43 6921.77L2405.39 6915.39L2404.13 6917.79L2416.18 6924.12Z" fill="#CED1D2"/>
<path d="M2309.56 6863.5L2320.52 6870.21L2332.95 6877.51L2334.36 6875.17L2321.88 6867.86L2310.98 6861.16L2309.56 6863.5Z" fill="#CED1D2"/>
<path d="M2392.14 6911.25L2393.5 6908.85L2369.68 6895.61L2368.32 6897.95L2392.14 6911.25Z" fill="#CED1D2"/>
<path d="M2274.79 6841.97L2276.26 6839.74L2253.32 6825.02L2251.84 6827.26L2274.79 6841.97Z" fill="#CED1D2"/>
<path d="M2183.88 6781.8L2185.46 6779.62L2174.28 6771.83L2172.7 6774.06L2183.88 6781.8Z" fill="#CED1D2"/>
<path d="M2139.29 6750.41L2154.61 6761.47L2161.53 6766.27L2163.11 6764.03L2156.19 6759.24L2140.92 6748.23L2139.29 6750.41Z" fill="#CED1D2"/>
<path d="M2128.28 6742.45L2129.86 6740.27L2118.85 6732.31L2117.21 6734.49L2128.28 6742.45Z" fill="#CED1D2"/>
<path d="M2428.22 6930.49L2439.72 6936.6L2452.47 6942.92L2453.73 6940.52L2440.97 6934.14L2429.47 6928.09L2428.22 6930.49Z" fill="#CED1D2"/>
<path d="M2195.05 6789.59L2197.06 6791.01L2217.67 6804.8L2219.25 6802.57L2198.64 6788.78L2196.63 6787.36L2195.05 6789.59Z" fill="#CED1D2"/>
<path d="M2297.95 6856.36L2299.37 6854.07L2287.76 6846.93L2286.34 6849.22L2297.95 6856.36Z" fill="#CED1D2"/>
<path d="M2229.01 6812.38L2238.82 6818.92L2240.4 6819.9L2241.87 6817.67L2240.34 6816.63L2230.53 6810.14L2229.01 6812.38Z" fill="#CED1D2"/>
<path d="M2551.13 6989.25L2557.02 6991.87L2576.26 6999.88L2577.35 6997.37L2558.11 6989.36L2552.28 6986.8L2551.13 6989.25Z" fill="#CED1D2"/>
<path d="M2794.99 7075.91L2795.81 7073.3L2782.72 7069.48L2781.96 7072.04L2794.99 7075.91Z" fill="#CED1D2"/>
<path d="M2742.77 7060.27L2754.49 7063.98L2768.88 7068.23L2769.7 7065.61L2755.31 7061.36L2743.65 7057.65L2742.77 7060.27Z" fill="#CED1D2"/>
<path d="M2729.8 7056.13L2730.67 7053.51L2717.7 7049.42L2716.83 7051.98L2729.8 7056.13Z" fill="#CED1D2"/>
<path d="M2834.4 7086.76L2835.16 7084.14L2808.89 7076.95L2808.18 7079.57L2834.4 7086.76Z" fill="#CED1D2"/>
<path d="M2476.84 6955.13L2478.1 6952.68L2465.89 6946.62L2464.63 6949.02L2476.84 6955.13Z" fill="#CED1D2"/>
<path d="M2703.91 7047.68L2704.79 7045.12L2679 7036.34L2678.08 7038.91L2703.91 7047.68Z" fill="#CED1D2"/>
<path d="M2860.83 7093.57L2861.54 7090.96L2848.35 7087.58L2847.64 7090.19L2860.83 7093.57Z" fill="#CED1D2"/>
<path d="M2877.89 7097.99L2899.37 7103.16L2900.51 7103.44L2901.16 7100.77L2900.02 7100.55L2878.54 7095.32L2877.89 7097.99Z" fill="#CED1D2"/>
<path d="M1408.59 6118.03L1410.34 6115.91L1400.09 6106.91L1398.34 6109.04L1408.59 6118.03Z" fill="#CED1D2"/>
<path d="M2665.27 7034.27L2666.2 7031.77L2653.39 7027.08L2652.46 7029.64L2665.27 7034.27Z" fill="#CED1D2"/>
<path d="M2106.2 6726.42L2107.84 6724.24L2086.03 6707.95L2084.4 6710.13L2106.2 6726.42Z" fill="#CED1D2"/>
<path d="M2513.79 6972.57L2514.99 6970.12L2490.36 6958.51L2489.16 6960.96L2513.79 6972.57Z" fill="#CED1D2"/>
<path d="M2588.85 7005.11L2596.1 7008.11L2601.5 7010.23L2602.53 7007.67L2597.14 7005.6L2589.94 7002.6L2588.85 7005.11Z" fill="#CED1D2"/>
<path d="M2614.2 7015.14L2635.29 7023.37L2639.65 7024.95L2640.63 7022.44L2636.27 7020.86L2615.23 7012.63L2614.2 7015.14Z" fill="#CED1D2"/>
<path d="M2874.73 7094.34L2874.02 7097.01L2877.89 7097.99L2878.55 7095.32L2874.73 7094.34Z" fill="#CED1D2"/>
<path d="M1557.61 6257.62L1559.46 6255.66L1549.54 6246.29L1547.69 6248.3L1557.61 6257.62Z" fill="#CED1D2"/>
<path d="M1498.2 6201.48L1498.69 6201.97L1508.12 6210.86L1509.97 6208.89L1500.59 6200.01L1500.1 6199.52L1498.2 6201.48Z" fill="#CED1D2"/>
<path d="M1587.47 6285.53L1589.33 6283.51L1569.43 6264.93L1567.52 6266.94L1587.47 6285.53Z" fill="#CED1D2"/>
<path d="M1537.76 6238.93L1539.67 6236.97L1519.88 6218.21L1517.98 6220.18L1537.76 6238.93Z" fill="#CED1D2"/>
<path d="M1667.49 6359.49L1671.85 6363.53L1687.66 6377.81L1689.51 6375.79L1673.71 6361.51L1669.35 6357.48L1667.49 6359.49Z" fill="#CED1D2"/>
<path d="M1657.46 6350.28L1659.31 6348.27L1649.28 6339.05L1647.43 6341.07L1657.46 6350.28Z" fill="#CED1D2"/>
<path d="M1637.4 6331.8L1639.25 6329.84L1619.2 6311.36L1617.34 6313.38L1637.4 6331.8Z" fill="#CED1D2"/>
<path d="M1607.37 6304.11L1609.22 6302.1L1599.3 6292.83L1597.39 6294.79L1607.37 6304.11Z" fill="#CED1D2"/>
<path d="M1488.32 6192.05L1490.23 6190.09L1470.56 6171.29L1468.65 6173.25L1488.32 6192.05Z" fill="#CED1D2"/>
<path d="M1439.17 6141.25L1437.31 6143.21L1439.11 6144.96L1441.02 6142.99L1439.17 6141.25Z" fill="#CED1D2"/>
<path d="M1458.84 6163.82L1460.7 6161.86L1450.88 6152.43L1448.98 6154.39L1458.84 6163.82Z" fill="#CED1D2"/>
<path d="M1439.17 6141.25L1420.53 6124.9L1418.78 6127.02L1437.31 6143.21L1439.17 6141.25Z" fill="#CED1D2"/>
<path d="M2019.43 6660.47L2021.18 6658.35L2010.49 6649.9L2008.75 6652.02L2019.43 6660.47Z" fill="#CED1D2"/>
<path d="M1923.94 6583.51L1928.57 6587.38L1945.03 6600.79L1946.78 6598.72L1930.31 6585.31L1925.74 6581.44L1923.94 6583.51Z" fill="#CED1D2"/>
<path d="M1913.53 6574.79L1915.27 6572.72L1904.81 6564L1903.06 6566.07L1913.53 6574.79Z" fill="#CED1D2"/>
<path d="M1871.72 6539.8L1880 6546.83L1892.59 6557.35L1894.34 6555.28L1881.75 6544.76L1873.52 6537.73L1871.72 6539.8Z" fill="#CED1D2"/>
<path d="M1966.18 6618.01L1967.92 6615.89L1957.35 6607.33L1955.6 6609.4L1966.18 6618.01Z" fill="#CED1D2"/>
<path d="M2051.81 6685.44L2053.5 6683.31L2031.92 6666.69L2030.23 6668.81L2051.81 6685.44Z" fill="#CED1D2"/>
<path d="M1976.75 6626.63L1998.12 6643.52L1999.81 6641.4L1978.44 6624.5L1976.75 6626.63Z" fill="#CED1D2"/>
<path d="M2062.6 6693.77L2067.18 6697.32L2073.45 6702L2075.14 6699.82L2068.87 6695.14L2064.29 6691.59L2062.6 6693.77Z" fill="#CED1D2"/>
<path d="M1768.81 6450.57L1778.9 6459.51L1789.25 6468.56L1791.05 6466.54L1780.69 6457.49L1770.61 6448.55L1768.81 6450.57Z" fill="#CED1D2"/>
<path d="M1707.88 6396.06L1709.68 6394.05L1699.6 6384.95L1697.74 6386.96L1707.88 6396.06Z" fill="#CED1D2"/>
<path d="M1758.62 6441.53L1760.42 6439.51L1750.28 6430.41L1748.43 6432.48L1758.62 6441.53Z" fill="#CED1D2"/>
<path d="M1861.42 6530.91L1863.16 6528.9L1852.81 6520.01L1851.01 6522.08L1861.42 6530.91Z" fill="#CED1D2"/>
<path d="M1717.96 6405.22L1726.14 6412.64L1738.24 6423.43L1740.09 6421.36L1727.99 6410.62L1719.81 6403.21L1717.96 6405.22Z" fill="#CED1D2"/>
<path d="M1820.05 6495.43L1830.13 6504.26L1840.65 6513.25L1842.45 6511.18L1831.93 6502.19L1821.85 6493.41L1820.05 6495.43Z" fill="#CED1D2"/>
<path d="M1809.8 6486.49L1811.6 6484.42L1801.3 6475.48L1799.5 6477.55L1809.8 6486.49Z" fill="#CED1D2"/>
<path d="M2538.71 6983.74L2539.85 6981.24L2527.37 6975.73L2526.28 6978.24L2538.71 6983.74Z" fill="#CED1D2"/>
<path d="M3936.34 7262.92L3936.94 7260.25L3923.64 7257.25L3923.04 7259.92L3936.34 7262.92Z" fill="#CED1D2"/>
<path d="M2913.81 7106.49L2920.79 7108.07L2927.11 7109.49L2927.71 7106.82L2921.39 7105.46L2914.41 7103.82L2913.81 7106.49Z" fill="#CED1D2"/>
<path d="M4147.82 7315.3L4160.3 7318.57L4174.09 7322.39L4174.8 7319.77L4161.01 7315.96L4148.53 7312.63L4147.82 7315.3Z" fill="#CED1D2"/>
<path d="M4200.36 7329.69L4201.07 7327.02L4187.94 7323.42L4187.23 7326.04L4200.36 7329.69Z" fill="#CED1D2"/>
<path d="M4344.26 7371.33L4360.72 7376.24L4370.31 7379.24L4371.07 7376.62L4361.48 7373.68L4345.02 7368.72L4344.26 7371.33Z" fill="#CED1D2"/>
<path d="M4278.96 7351.98L4294.06 7356.34L4305.07 7359.67L4305.89 7357.05L4294.82 7353.73L4279.72 7349.37L4278.96 7351.98Z" fill="#CED1D2"/>
<path d="M4331.18 7367.46L4331.94 7364.85L4318.91 7360.92L4318.15 7363.54L4331.18 7367.46Z" fill="#CED1D2"/>
<path d="M4068.73 7294.7L4069.38 7292.03L4056.19 7288.7L4055.54 7291.37L4068.73 7294.7Z" fill="#CED1D2"/>
<path d="M4002.67 7278.35L4003.27 7275.73L3990.02 7272.57L3989.42 7275.24L4002.67 7278.35Z" fill="#CED1D2"/>
<path d="M4015.91 7281.51L4025.67 7283.85L4042.35 7288.05L4043 7285.38L4026.32 7281.18L4016.51 7278.89L4015.91 7281.51Z" fill="#CED1D2"/>
<path d="M4134.68 7311.81L4135.34 7309.14L4122.15 7305.71L4121.49 7308.32L4134.68 7311.81Z" fill="#CED1D2"/>
<path d="M3949.63 7265.87L3958.03 7267.77L3976.12 7272.08L3976.78 7269.41L3958.63 7265.1L3950.23 7263.2L3949.63 7265.87Z" fill="#CED1D2"/>
<path d="M4396.31 7387.25L4397.13 7384.69L4384.1 7380.65L4383.34 7383.27L4396.31 7387.25Z" fill="#CED1D2"/>
<path d="M4081.98 7298.02L4093.1 7300.8L4108.3 7304.84L4109.01 7302.22L4093.75 7298.19L4082.63 7295.35L4081.98 7298.02Z" fill="#CED1D2"/>
<path d="M4265.88 7348.22L4266.59 7345.6L4253.51 7341.84L4252.8 7344.46L4265.88 7348.22Z" fill="#CED1D2"/>
<path d="M4719.64 7493.97L4720.51 7491.41L4707.65 7486.89L4706.77 7489.5L4719.64 7493.97Z" fill="#CED1D2"/>
<path d="M4732.5 7498.44L4757.25 7507.05L4758.23 7507.38L4759.1 7504.82L4758.17 7504.49L4733.37 7495.88L4732.5 7498.44Z" fill="#CED1D2"/>
<path d="M4668.12 7476.15L4691.45 7484.16L4693.91 7484.98L4694.78 7482.42L4692.38 7481.6L4669 7473.59L4668.12 7476.15Z" fill="#CED1D2"/>
<path d="M4848.05 7539.32L4848.98 7536.76L4836.17 7532.18L4835.24 7534.74L4848.05 7539.32Z" fill="#CED1D2"/>
<path d="M4655.26 7471.79L4656.13 7469.17L4643.27 7464.76L4642.34 7467.37L4655.26 7471.79Z" fill="#CED1D2"/>
<path d="M4796.76 7521.06L4822.43 7530.11L4823.3 7527.55L4797.63 7518.45L4796.76 7521.06Z" fill="#CED1D2"/>
<path d="M4783.89 7516.48L4784.82 7513.92L4771.96 7509.39L4771.03 7511.96L4783.89 7516.48Z" fill="#CED1D2"/>
<path d="M4590.73 7449.93L4591.6 7447.37L4578.68 7443.06L4577.81 7445.62L4590.73 7449.93Z" fill="#CED1D2"/>
<path d="M4474.3 7411.78L4493.44 7417.88L4500.19 7420.12L4501.07 7417.5L4494.25 7415.32L4475.07 7409.21L4474.3 7411.78Z" fill="#CED1D2"/>
<path d="M4526.09 7428.56L4526.96 7426L4513.99 7421.75L4513.17 7424.31L4526.09 7428.56Z" fill="#CED1D2"/>
<path d="M4461.28 7407.69L4462.09 7405.07L4449.12 7400.93L4448.3 7403.55L4461.28 7407.69Z" fill="#CED1D2"/>
<path d="M4539.06 7432.82L4559.56 7439.52L4564.95 7441.32L4565.77 7438.7L4560.43 7436.9L4539.88 7430.2L4539.06 7432.82Z" fill="#CED1D2"/>
<path d="M4409.34 7391.28L4427.16 7396.79L4435.34 7399.4L4436.15 7396.79L4427.98 7394.17L4410.15 7388.66L4409.34 7391.28Z" fill="#CED1D2"/>
<path d="M4603.65 7454.29L4625.56 7461.6L4629.48 7462.96L4630.36 7460.4L4626.43 7459.03L4604.52 7451.68L4603.65 7454.29Z" fill="#CED1D2"/>
<path d="M4213.5 7333.29L4227.29 7337.1L4239.72 7340.7L4240.43 7338.09L4228 7334.49L4214.21 7330.67L4213.5 7333.29Z" fill="#CED1D2"/>
<path d="M3141.98 7146.06L3150.15 7147.15L3169.01 7149.5L3169.39 7146.77L3150.48 7144.43L3142.36 7143.39L3141.98 7146.06Z" fill="#CED1D2"/>
<path d="M3182.58 7151.13L3191.24 7152.17L3196.1 7152.71L3196.42 7149.99L3191.57 7149.44L3182.91 7148.41L3182.58 7151.13Z" fill="#CED1D2"/>
<path d="M3250.22 7158.76L3252.83 7159.03L3263.79 7160.18L3264.06 7157.45L3253.11 7156.31L3250.55 7156.04L3250.22 7158.76Z" fill="#CED1D2"/>
<path d="M3209.94 7151.57L3209.62 7154.29L3211.74 7154.51L3232.29 7156.8L3236.71 7157.29L3236.98 7154.56L3232.56 7154.07L3212.07 7151.78L3209.94 7151.57Z" fill="#CED1D2"/>
<path d="M3277.37 7161.6L3293.99 7163.34L3304.46 7164.43L3304.73 7161.7L3294.26 7160.62L3277.64 7158.93L3277.37 7161.6Z" fill="#CED1D2"/>
<path d="M3345.12 7168.57L3356.02 7169.72L3372.21 7171.41L3372.48 7168.68L3356.29 7166.99L3345.39 7165.9L3345.12 7168.57Z" fill="#CED1D2"/>
<path d="M3318.5 7163.25L3318.23 7165.96L3331.78 7167.35L3332.06 7164.64L3318.5 7163.25Z" fill="#CED1D2"/>
<path d="M2941.01 7109.71L2940.41 7112.38L2942.05 7112.76L2963.2 7117.12L2967.12 7117.88L2967.67 7115.21L2963.74 7114.45L2942.59 7110.09L2941.01 7109.71Z" fill="#CED1D2"/>
<path d="M3007.29 7125.51L3026.09 7128.84L3034.16 7130.2L3034.6 7127.48L3026.58 7126.17L3007.78 7122.84L3007.29 7125.51Z" fill="#CED1D2"/>
<path d="M2980.48 7120.5L2984.29 7121.26L2993.89 7123.06L2994.38 7120.39L2984.78 7118.59L2981.02 7117.83L2980.48 7120.5Z" fill="#CED1D2"/>
<path d="M3385.72 7172.82L3397.66 7174.08L3399.29 7174.24L3399.56 7171.51L3397.98 7171.35L3385.99 7170.1L3385.72 7172.82Z" fill="#CED1D2"/>
<path d="M3128.45 7144.32L3128.84 7141.65L3115.37 7139.79L3114.99 7142.46L3128.45 7144.32Z" fill="#CED1D2"/>
<path d="M3061.03 7134.56L3061.47 7131.84L3048.01 7129.71L3047.57 7132.44L3061.03 7134.56Z" fill="#CED1D2"/>
<path d="M3074.49 7136.63L3088.34 7138.7L3101.47 7140.61L3101.85 7137.89L3088.77 7136.03L3074.93 7133.96L3074.49 7136.63Z" fill="#CED1D2"/>
<path d="M3601.95 7199.7L3602.33 7196.97L3588.81 7195.06L3588.48 7197.73L3601.95 7199.7Z" fill="#CED1D2"/>
<path d="M3749.66 7224.33L3753.58 7225.04L3776.42 7229.45L3776.91 7226.78L3754.07 7222.37L3750.15 7221.66L3749.66 7224.33Z" fill="#CED1D2"/>
<path d="M3736.24 7221.94L3736.73 7219.27L3723.33 7216.87L3722.84 7219.59L3736.24 7221.94Z" fill="#CED1D2"/>
<path d="M3669.2 7210.27L3669.59 7207.6L3656.18 7205.42L3655.74 7208.14L3669.2 7210.27Z" fill="#CED1D2"/>
<path d="M3682.62 7212.45L3684.85 7212.83L3709.43 7217.19L3709.92 7214.52L3685.34 7210.16L3683.05 7209.78L3682.62 7212.45Z" fill="#CED1D2"/>
<path d="M3869.84 7248.31L3870.38 7245.64L3857.08 7242.86L3856.54 7245.53L3869.84 7248.31Z" fill="#CED1D2"/>
<path d="M3816.53 7237.25L3821.98 7238.28L3843.18 7242.75L3843.73 7240.08L3822.53 7235.61L3817.02 7234.58L3816.53 7237.25Z" fill="#CED1D2"/>
<path d="M3803.18 7234.63L3803.67 7231.96L3790.26 7229.4L3789.77 7232.07L3803.18 7234.63Z" fill="#CED1D2"/>
<path d="M3521.01 7188.36L3524.93 7188.85L3534.53 7190.1L3534.85 7187.43L3525.31 7186.12L3521.39 7185.63L3521.01 7188.36Z" fill="#CED1D2"/>
<path d="M3480.78 7180.62L3480.51 7183.34L3482.09 7183.51L3503.45 7186.12L3507.49 7186.61L3507.87 7183.94L3503.78 7183.4L3482.42 7180.83L3480.78 7180.62Z" fill="#CED1D2"/>
<path d="M3615.41 7201.66L3615.84 7201.71L3642.28 7205.97L3642.71 7203.24L3616.28 7198.99L3615.79 7198.93L3615.41 7201.66Z" fill="#CED1D2"/>
<path d="M3453.41 7180.18L3460.83 7181.05L3466.93 7181.76L3467.26 7179.04L3461.15 7178.33L3453.74 7177.51L3453.41 7180.18Z" fill="#CED1D2"/>
<path d="M3413.08 7172.99L3412.81 7175.71L3418.64 7176.31L3439.68 7178.66H3439.9L3440.17 7175.93H3440.01L3418.92 7173.64L3413.08 7172.99Z" fill="#CED1D2"/>
<path d="M3548.04 7191.9L3574.96 7195.83L3575.35 7193.1L3548.37 7189.23L3548.04 7191.9Z" fill="#CED1D2"/>
<path d="M3883.2 7251.09L3890.12 7252.56L3909.79 7256.93L3910.34 7254.25L3890.72 7249.89L3883.74 7248.42L3883.2 7251.09Z" fill="#CED1D2"/>
<path d="M1064.33 5901.32L1065.37 5898.81L1052.89 5893.41L1051.85 5895.92L1064.33 5901.32Z" fill="#CED1D2"/>
<path d="M4950.52 7576.33L4951.45 7573.77L4925.83 7564.5L4924.91 7567.06L4950.52 7576.33Z" fill="#CED1D2"/>
<path d="M5014.51 7599.77L5015.43 7597.2L4989.82 7587.83L4988.89 7590.39L5014.51 7599.77Z" fill="#CED1D2"/>
<path d="M5040.02 7609.19L5041 7606.63L5028.19 7601.89L5027.27 7604.45L5040.02 7609.19Z" fill="#CED1D2"/>
<path d="M4976.14 7585.7L4977.06 7583.14L4964.25 7578.45L4963.33 7581.01L4976.14 7585.7Z" fill="#CED1D2"/>
<path d="M151.195 5705.1L151.086 5707.82L168.419 5708.26L178.339 5708.64L178.393 5705.97L168.473 5705.53L151.195 5705.1Z" fill="#CED1D2"/>
<path d="M5156.28 7648.77L5155.33 7651.33L5168.1 7656.07L5169.05 7653.52L5156.28 7648.77Z" fill="#CED1D2"/>
<path d="M5092.25 7625.68L5091.3 7628.23L5104.08 7632.97L5105.03 7630.41L5092.25 7625.68Z" fill="#CED1D2"/>
<path d="M5181.28 7658.99L5180.34 7661.55L5205.89 7671.03L5206.83 7668.47L5181.28 7658.99Z" fill="#CED1D2"/>
<path d="M5117.63 7634.89L5116.69 7637.45L5142.25 7646.9L5143.19 7644.35L5117.63 7634.89Z" fill="#CED1D2"/>
<path d="M4912.15 7562.43L4913.02 7559.87L4900.27 7555.18L4899.34 7557.74L4912.15 7562.43Z" fill="#CED1D2"/>
<path d="M16.1914 5696.76L5.67188 5708.15L17.0635 5718.67L28.0192 5718.29L16.6275 5707.72L27.1471 5696.32L16.1914 5696.76Z" fill="#CED1D2"/>
<path d="M5219.91 7673.02L5218.96 7675.58L5231.74 7680.32L5232.68 7677.77L5219.91 7673.02Z" fill="#CED1D2"/>
<path d="M83.0701 5707.06L94.4073 5707.01L110.268 5707.06V5704.34L94.4073 5704.28L83.0156 5704.34L83.0701 5707.06Z" fill="#CED1D2"/>
<path d="M137.517 5707.44V5704.72L123.945 5704.5L123.891 5707.23L137.517 5707.44Z" fill="#CED1D2"/>
<path d="M49.9799 5717.42L38.5882 5706.84L49.1078 5695.45L38.1522 5695.89L27.5781 5707.28L39.0243 5717.85L49.9799 5717.42Z" fill="#CED1D2"/>
<path d="M62.0262 5707.39L65.787 5707.28L69.4389 5707.23L69.3844 5704.5L65.7325 5704.55L61.7536 5704.66L60.5 5706.03L62.0262 5707.39Z" fill="#CED1D2"/>
<path d="M71.9487 5716.54L62.0286 5707.39L58.3768 5707.44L55.8695 5707.55L55.7605 5704.83L58.3223 5704.72L61.7561 5704.66L71.0766 5694.58L60.0664 5695.01L49.5469 5706.41L60.9385 5716.98L71.9487 5716.54Z" fill="#CED1D2"/>
<path d="M55.7578 5704.83L55.8668 5707.55L58.3741 5707.44L62.026 5707.39L60.4998 5706.03L61.7534 5704.66L58.3196 5704.72L55.7578 5704.83Z" fill="#CED1D2"/>
<path d="M5078.39 7623.31L5079.32 7620.75L5053.75 7611.32L5052.83 7613.88L5078.39 7623.31Z" fill="#CED1D2"/>
<path d="M5538.37 7793.21L5542.46 7794.68L5551.18 7797.84L5552.1 7795.28L5543.38 7792.12L5539.29 7790.64L5538.37 7793.21Z" fill="#CED1D2"/>
<path d="M5721.18 7857.03L5714.53 7843.02L5704.17 7839.37L5710.82 7853.38L5696.81 7860.08L5707.17 7863.73L5721.18 7857.03Z" fill="#CED1D2"/>
<path d="M5589.6 7811.68L5590.53 7809.12L5564.91 7799.91L5563.98 7802.47L5589.6 7811.68Z" fill="#CED1D2"/>
<path d="M5245.62 7681.96L5244.67 7684.51L5270.22 7694L5271.17 7691.44L5245.62 7681.96Z" fill="#CED1D2"/>
<path d="M5602.46 7816.32L5607.91 7818.28L5615.27 7820.89L5616.2 7818.33L5608.78 7815.72L5603.39 7813.75L5602.46 7816.32Z" fill="#CED1D2"/>
<path d="M1388.09 6100.16L1389.73 6097.97L1368.36 6081.08L1366.73 6083.26L1388.09 6100.16Z" fill="#CED1D2"/>
<path d="M5668.58 7836.97L5667.49 7836.59L5666.62 7839.16L5667.71 7839.54L5669.4 7838.72L5668.58 7836.97Z" fill="#CED1D2"/>
<path d="M5674.3 7839.04L5668.58 7836.97L5669.39 7838.72L5667.7 7839.53L5673.43 7841.61L5674.3 7839.04Z" fill="#CED1D2"/>
<path d="M5665.75 7849.08L5679.76 7842.37L5673.1 7828.36L5662.75 7824.71L5668.58 7836.97L5674.3 7839.05L5673.43 7841.61L5667.71 7839.54L5655.39 7845.42L5665.75 7849.08Z" fill="#CED1D2"/>
<path d="M5700.47 7849.73L5693.82 7835.72L5683.46 7832.02L5690.11 7846.08L5676.1 7852.73L5686.46 7856.43L5700.47 7849.73Z" fill="#CED1D2"/>
<path d="M5346.88 7720.19L5345.94 7722.74L5358.72 7727.47L5359.66 7724.91L5346.88 7720.19Z" fill="#CED1D2"/>
<path d="M5309.27 7706.2L5308.32 7708.76L5333.87 7718.24L5334.82 7715.69L5309.27 7706.2Z" fill="#CED1D2"/>
<path d="M5283.74 7696.75L5282.79 7699.3L5295.56 7704.05L5296.51 7701.49L5283.74 7696.75Z" fill="#CED1D2"/>
<path d="M5373.23 7729.47L5372.28 7732.03L5397.84 7741.48L5398.79 7738.92L5373.23 7729.47Z" fill="#CED1D2"/>
<path d="M5525.56 7788.52L5526.48 7786.01L5500.92 7776.69L5499.99 7779.2L5525.56 7788.52Z" fill="#CED1D2"/>
<path d="M5474.38 7769.88L5477.05 7770.86L5487.18 7774.57L5488.11 7772L5477.97 7768.3L5475.3 7767.32L5474.38 7769.88Z" fill="#CED1D2"/>
<path d="M5410.44 7746.39L5411.64 7746.88L5423.25 7751.13L5424.17 7748.57L5412.62 7744.31L5411.36 7743.88L5410.44 7746.39Z" fill="#CED1D2"/>
<path d="M5437.19 7753.45L5436.25 7756.01L5461.82 7765.43L5462.77 7762.87L5437.19 7753.45Z" fill="#CED1D2"/>
<path d="M5653.75 7834.58L5654.68 7832.02L5629 7822.91L5628.08 7825.48L5653.75 7834.58Z" fill="#CED1D2"/>
<path d="M1039.31 5890.58L1040.35 5888.02L1015.33 5877.23L1014.3 5879.79L1039.31 5890.58Z" fill="#CED1D2"/>
<path d="M4886.53 7553.11L4887.46 7550.55L4861.79 7541.34L4860.86 7543.95L4886.53 7553.11Z" fill="#CED1D2"/>
<path d="M1101.23 5918.82L1102.32 5916.36L1077.74 5904.64L1076.59 5907.15L1101.23 5918.82Z" fill="#CED1D2"/>
<path d="M1113.55 5924.65L1121.72 5928.57L1125.7 5930.64L1126.9 5928.19L1122.98 5926.12L1114.64 5922.2L1113.55 5924.65Z" fill="#CED1D2"/>
<path d="M976.361 5864.69L977.342 5862.13L951.942 5852.21L951.016 5854.77L976.361 5864.69Z" fill="#CED1D2"/>
<path d="M1001.75 5874.61L1002.68 5872.05L990.036 5867.09L989.055 5869.65L1001.75 5874.61Z" fill="#CED1D2"/>
<path d="M886.859 5832.21L892.473 5834L912.531 5841.09L913.404 5838.53L893.345 5831.44L887.622 5829.59L886.859 5832.21Z" fill="#CED1D2"/>
<path d="M821.945 5811.76L834.863 5815.53L847.944 5819.72L848.762 5817.11L835.681 5812.91L822.654 5809.15L821.945 5811.76Z" fill="#CED1D2"/>
<path d="M1137.75 5936.96L1161.9 5949.61L1163.1 5947.16L1139 5934.51L1137.75 5936.96Z" fill="#CED1D2"/>
<path d="M873.886 5828.06L874.649 5825.45L861.677 5821.25L860.914 5823.87L873.886 5828.06Z" fill="#CED1D2"/>
<path d="M191.914 5709.19L200.417 5709.57L205.54 5709.84L205.649 5707.11L200.58 5706.84L192.023 5706.46L191.914 5709.19Z" fill="#CED1D2"/>
<path d="M1334.51 6058.24L1336.04 6055.95L1313.8 6040.2L1312.27 6042.49L1334.51 6058.24Z" fill="#CED1D2"/>
<path d="M1355.99 6074.86L1357.62 6072.68L1346.94 6064.23L1345.3 6066.41L1355.99 6074.86Z" fill="#CED1D2"/>
<path d="M1173.94 5955.93L1177.64 5957.9L1185.77 5962.58L1187.07 5960.18L1178.95 5955.5L1175.19 5953.54L1173.94 5955.93Z" fill="#CED1D2"/>
<path d="M1301.16 6034.58L1302.68 6032.35L1291.57 6024.45L1290.09 6026.73L1301.16 6034.58Z" fill="#CED1D2"/>
<path d="M1221.14 5983.07L1222.45 5980.68L1198.9 5967L1197.59 5969.39L1221.14 5983.07Z" fill="#CED1D2"/>
<path d="M1278.75 6019.21L1280.17 6016.92L1257.22 6002.21L1255.8 6004.55L1278.75 6019.21Z" fill="#CED1D2"/>
<path d="M1244.36 5997.19L1245.78 5994.85L1234.28 5987.55L1232.86 5989.84L1244.36 5997.19Z" fill="#CED1D2"/>
<path d="M938.207 5850.19L939.079 5847.63L926.271 5843.11L925.398 5845.67L938.207 5850.19Z" fill="#CED1D2"/>
<path d="M543.635 5747.01L544.071 5744.34L530.608 5742.05L530.227 5744.78L543.635 5747.01Z" fill="#CED1D2"/>
<path d="M449.504 5732.41L449.831 5729.68L422.796 5726.19L422.469 5728.86L449.504 5732.41Z" fill="#CED1D2"/>
<path d="M489.898 5738.29L504.506 5740.47L516.77 5742.49L517.206 5739.82L504.942 5737.75L490.28 5735.57L489.898 5738.29Z" fill="#CED1D2"/>
<path d="M808.863 5807.95L809.571 5805.33L796.49 5801.57L795.781 5804.19L808.863 5807.95Z" fill="#CED1D2"/>
<path d="M354.828 5721.07L359.352 5721.5L381.917 5724.07L382.19 5721.34L359.625 5718.78L355.101 5718.34L354.828 5721.07Z" fill="#CED1D2"/>
<path d="M395.438 5725.54L405.63 5726.68L408.955 5727.12L409.282 5724.45L405.957 5724.01L395.71 5722.87L395.438 5725.54Z" fill="#CED1D2"/>
<path d="M219.109 5710.55L235.788 5711.42L246.308 5712.13L246.471 5709.41L235.952 5708.7L219.273 5707.82L219.109 5710.55Z" fill="#CED1D2"/>
<path d="M273.509 5713.93L273.673 5711.2L260.046 5710.28L259.883 5713L273.509 5713.93Z" fill="#CED1D2"/>
<path d="M314.222 5717.2L314.385 5714.47L287.241 5712.29L287.023 5715.02L314.222 5717.2Z" fill="#CED1D2"/>
<path d="M341.314 5719.76L341.532 5717.03L327.96 5715.73L327.742 5718.45L341.314 5719.76Z" fill="#CED1D2"/>
<path d="M476.432 5736.28L476.813 5733.61L463.296 5731.59L462.969 5734.32L476.432 5736.28Z" fill="#CED1D2"/>
<path d="M716.857 5783.1L717.456 5780.42L690.967 5774.21L690.367 5776.88L716.857 5783.1Z" fill="#CED1D2"/>
<path d="M663.875 5770.67L665.074 5770.89L677.12 5773.72L677.665 5771.11L665.674 5768.27L664.42 5768L663.875 5770.67Z" fill="#CED1D2"/>
<path d="M583.809 5754.32L584.3 5751.65L557.537 5746.58L557.047 5749.25L583.809 5754.32Z" fill="#CED1D2"/>
<path d="M756.375 5793.34L777.632 5798.9L782.701 5800.37L783.41 5797.76L778.341 5796.29L757.029 5790.73L756.375 5793.34Z" fill="#CED1D2"/>
<path d="M597.219 5756.88L610.191 5759.33L610.573 5759.39L611.118 5756.71L610.736 5756.66L597.709 5754.15L597.219 5756.88Z" fill="#CED1D2"/>
<path d="M743.237 5789.91L743.891 5787.24L730.701 5783.8L730.047 5786.48L743.237 5789.91Z" fill="#CED1D2"/>
<path d="M650.52 5767.84L651.065 5765.17L624.412 5759.55L623.867 5762.22L650.52 5767.84Z" fill="#CED1D2"/>
<path d="M8490.11 7618.46L8468.91 7621.19C8046.22 7675.58 7609.09 7731.78 7180.45 7795C6911.09 7834.74 6729.53 7930.45 6625.48 8087.64C6543.01 8212.24 6510.15 8376.09 6525.03 8588.55C6538.87 8786.13 6592.23 9003.01 6641.12 9190.78L6792.87 9811.44L6793.36 9813.51H6804.37L6650.77 9188.33C6540.4 8764.44 6456.02 8361.7 6633.82 8093.2C6736.23 7938.52 6915.56 7844.17 7181.93 7804.92C7611.16 7741.59 8048.29 7685.39 8471.09 7631L8495.18 7627.89C8924.25 7572.68 9367.93 7515.61 9808.77 7449.82L9811.11 7449.49V7439.41L9808 7439.9C9365.91 7505.8 8920.65 7563.08 8490.11 7618.46Z" fill="#D2D2D2"/>
<path d="M7423.33 7574.48L7450.14 7569.73L7449.65 7567.06L7422.84 7571.8L7423.33 7574.48Z" fill="#CED1D2"/>
<path d="M7501.93 7560.85L7517.24 7558.29L7516.81 7555.56L7501.44 7558.18L7501.93 7560.85Z" fill="#CED1D2"/>
<path d="M7489.94 7560.14L7490.43 7562.81L7501.93 7560.85L7501.44 7558.18L7489.94 7560.14Z" fill="#CED1D2"/>
<path d="M7396.02 7576.6L7396.51 7579.27L7404.64 7577.8L7409.92 7576.87L7409.43 7574.2L7404.2 7575.13L7396.02 7576.6Z" fill="#CED1D2"/>
<path d="M7530.22 7553.33L7530.71 7556L7531.8 7555.84L7544.12 7553.82L7543.68 7551.15L7531.36 7553.17L7530.22 7553.33Z" fill="#CED1D2"/>
<path d="M7329.52 7591.59L7342.93 7589.08L7342.38 7586.41L7329.03 7588.92L7329.52 7591.59Z" fill="#CED1D2"/>
<path d="M7262.1 7601.73L7262.65 7604.4L7264.34 7604.07L7276 7601.78L7275.51 7599.11L7263.79 7601.4L7262.1 7601.73Z" fill="#CED1D2"/>
<path d="M7222.58 7612.36L7249.29 7607.07L7248.75 7604.4L7222.04 7609.69L7222.58 7612.36Z" fill="#CED1D2"/>
<path d="M7288.87 7596.55L7289.41 7599.22L7310.34 7595.19L7316.17 7594.1L7315.63 7591.43L7309.85 7592.52L7288.87 7596.55Z" fill="#CED1D2"/>
<path d="M7355.8 7583.91L7356.29 7586.58L7357.16 7586.41L7383.1 7581.73L7382.61 7579.05L7356.61 7583.74L7355.8 7583.91Z" fill="#CED1D2"/>
<path d="M7741.97 7523.57L7746.06 7523.02L7745.67 7520.3L7741.59 7520.9L7732.21 7522.26L7732.59 7524.93L7741.97 7523.57Z" fill="#CED1D2"/>
<path d="M7557.14 7548.91L7557.58 7551.64L7561.72 7550.93L7584.45 7547.28L7584.01 7544.61L7561.28 7548.26L7557.14 7548.91Z" fill="#CED1D2"/>
<path d="M7802.36 7515.12L7813.53 7513.59L7813.15 7510.87L7801.98 7512.39L7799.63 7512.72L7800.01 7515.45L7802.36 7515.12Z" fill="#CED1D2"/>
<path d="M7832.56 7510.98L7853.98 7508.03L7853.65 7505.36L7832.18 7508.25L7826.62 7509.02L7827 7511.74L7832.56 7510.98Z" fill="#CED1D2"/>
<path d="M7195.88 7617.81L7209.24 7615.08L7208.69 7612.41L7195.34 7615.14L7195.88 7617.81Z" fill="#CED1D2"/>
<path d="M7772.17 7519.32L7786.56 7517.3L7786.18 7514.63L7771.79 7516.65L7759.2 7518.39L7759.58 7521.12L7772.17 7519.32Z" fill="#CED1D2"/>
<path d="M7597.91 7545.15L7611.38 7543.08L7610.94 7540.36L7597.48 7542.48L7597.91 7545.15Z" fill="#CED1D2"/>
<path d="M7624.4 7538.28L7624.83 7540.95L7651.65 7536.87H7651.76L7651.32 7534.14L7651.27 7534.2L7624.4 7538.28Z" fill="#CED1D2"/>
<path d="M7665.22 7534.85L7678.69 7532.83L7678.31 7530.11L7664.79 7532.13L7665.22 7534.85Z" fill="#CED1D2"/>
<path d="M7711.44 7525.26L7691.77 7528.15L7692.15 7530.82L7711.82 7527.93L7719.13 7526.89L7718.75 7524.17L7711.44 7525.26Z" fill="#CED1D2"/>
<path d="M7463.55 7567.44L7476.96 7565.15L7476.53 7562.43L7463.12 7564.77L7463.55 7567.44Z" fill="#CED1D2"/>
<path d="M7155.33 7623.48L7155.93 7626.15L7174.46 7622.22L7182.58 7620.53L7181.98 7617.86L7173.91 7619.55L7155.33 7623.48Z" fill="#CED1D2"/>
<path d="M6693.99 7743.33L6694.86 7745.89L6696.5 7745.35L6720.81 7737.66L6719.94 7735.05L6695.68 7742.79L6693.99 7743.33Z" fill="#CED1D2"/>
<path d="M6759.02 7723.01L6759.83 7725.62L6768.94 7722.84L6785.94 7717.88L6785.12 7715.27L6768.17 7720.23L6759.02 7723.01Z" fill="#CED1D2"/>
<path d="M6798.2 7711.45L6798.97 7714.06L6806.22 7711.94L6812.05 7710.25L6811.34 7707.63L6805.45 7709.32L6798.2 7711.45Z" fill="#CED1D2"/>
<path d="M6824.42 7703.98L6825.18 7706.6L6844.21 7701.2L6851.4 7699.24L6850.69 7696.62L6843.5 7698.58L6824.42 7703.98Z" fill="#CED1D2"/>
<path d="M6668.97 7754.45L6681.89 7750.2L6681.02 7747.59L6668.1 7751.89L6668.97 7754.45Z" fill="#CED1D2"/>
<path d="M6566.39 7790.97L6591.9 7781.43L6590.92 7778.87L6565.41 7788.41L6566.39 7790.97Z" fill="#CED1D2"/>
<path d="M6541 7800.78L6553.7 7795.82L6552.66 7793.32L6539.96 7798.28L6541 7800.78Z" fill="#CED1D2"/>
<path d="M6630.32 7767.64L6656.11 7758.81L6655.18 7756.2L6629.4 7765.08L6630.32 7767.64Z" fill="#CED1D2"/>
<path d="M6604.71 7776.8L6617.52 7772.22L6616.59 7769.66L6603.73 7774.24L6604.71 7776.8Z" fill="#CED1D2"/>
<path d="M6733.78 7733.58L6746.8 7729.6L6745.99 7726.98L6732.96 7730.96L6733.78 7733.58Z" fill="#CED1D2"/>
<path d="M7089.37 7640.53L7115.97 7634.7L7115.37 7632.03L7088.77 7637.86L7089.37 7640.53Z" fill="#CED1D2"/>
<path d="M7062.78 7646.53L7076.08 7643.53L7075.48 7640.86L7062.18 7643.92L7062.78 7646.53Z" fill="#CED1D2"/>
<path d="M7128.67 7629.15L7129.27 7631.82L7130.63 7631.49L7142.57 7628.98L7142.03 7626.31L7130.03 7628.82L7128.67 7629.15Z" fill="#CED1D2"/>
<path d="M7022.33 7653.07L7022.98 7655.74L7045.17 7650.57L7049.47 7649.53L7048.87 7646.91L7044.51 7647.9L7022.33 7653.07Z" fill="#CED1D2"/>
<path d="M6890.86 7688.61L6917.19 7681.74L6916.48 7679.12L6890.16 7685.99L6890.86 7688.61Z" fill="#CED1D2"/>
<path d="M6930.38 7678.36L6943.57 7675.04L6942.92 7672.42L6929.73 7675.75L6930.38 7678.36Z" fill="#CED1D2"/>
<path d="M6864.54 7695.7L6877.67 7692.1L6876.96 7689.48L6863.83 7693.08L6864.54 7695.7Z" fill="#CED1D2"/>
<path d="M6995.84 7659.4L6996.5 7662.01L7003.53 7660.32L7009.74 7658.85L7009.09 7656.18L7002.88 7657.65L6995.84 7659.4Z" fill="#CED1D2"/>
<path d="M6956.11 7669.1L6956.82 7671.71L6962.6 7670.24L6983.25 7665.23L6982.6 7662.61L6961.94 7667.62L6956.11 7669.1Z" fill="#CED1D2"/>
<path d="M8624.11 7403.93L8610.62 7405.81L8610.99 7408.51L8624.49 7406.63L8624.11 7403.93Z" fill="#CED1D2"/>
<path d="M9135.81 7332.94L9108.8 7336.56L9109.16 7339.26L9136.17 7335.64L9135.81 7332.94Z" fill="#CED1D2"/>
<path d="M9095.04 7338.97L9081.54 7340.79L9081.9 7343.49L9095.41 7341.67L9095.04 7338.97Z" fill="#CED1D2"/>
<path d="M9163.61 7329.46L9150.1 7331.26L9150.46 7333.96L9163.97 7332.16L9163.61 7329.46Z" fill="#CED1D2"/>
<path d="M9068.11 7342.72L9041.11 7346.38L9041.48 7349.08L9068.48 7345.42L9068.11 7342.72Z" fill="#CED1D2"/>
<path d="M9028.2 7347.75L9014.7 7349.59L9015.06 7352.29L9028.57 7350.45L9028.2 7347.75Z" fill="#CED1D2"/>
<path d="M9271.5 7318.24L9271.18 7315.52L9266.65 7316.12L9244.14 7319.06L9244.52 7321.73L9267.03 7318.79L9271.5 7318.24Z" fill="#CED1D2"/>
<path d="M9231.01 7323.53L9230.68 7320.8L9227.25 7321.24L9217.16 7322.6L9217.49 7325.27L9227.63 7323.97L9231.01 7323.53Z" fill="#CED1D2"/>
<path d="M9204.03 7327.08L9203.64 7324.35L9187.84 7326.42L9176.61 7327.95L9176.99 7330.62L9188.22 7329.15L9204.03 7327.08Z" fill="#CED1D2"/>
<path d="M8961.04 7359.83L8960.66 7357.16L8950.9 7358.47L8947.14 7359.02L8947.52 7361.69L8951.23 7361.2L8961.04 7359.83Z" fill="#CED1D2"/>
<path d="M8866.09 7369.75L8839.09 7373.49L8839.47 7376.19L8866.46 7372.45L8866.09 7369.75Z" fill="#CED1D2"/>
<path d="M8799.1 7382.23L8798.72 7379.51L8791.64 7380.49L8771.74 7383.27L8772.12 7385.99L8792.02 7383.21L8799.1 7382.23Z" fill="#CED1D2"/>
<path d="M8825.71 7376.09L8812.21 7377.96L8812.59 7380.66L8826.08 7378.79L8825.71 7376.09Z" fill="#CED1D2"/>
<path d="M8758.66 7387.85L8758.28 7385.18L8751.58 7386.11L8744.77 7387.03L8745.15 7389.76L8751.96 7388.78L8758.66 7387.85Z" fill="#CED1D2"/>
<path d="M9001.53 7354.27L9001.15 7351.6L8990.47 7353.07L8974.17 7355.31L8974.5 7357.98L8990.85 7355.74L9001.53 7354.27Z" fill="#CED1D2"/>
<path d="M9297.61 7312.22L9284.09 7313.97L9284.44 7316.67L9297.96 7314.92L9297.61 7312.22Z" fill="#CED1D2"/>
<path d="M8893.48 7366.31L8879.98 7368.18L8880.36 7370.88L8893.86 7369.01L8893.48 7366.31Z" fill="#CED1D2"/>
<path d="M8934.06 7363.54L8933.68 7360.87L8911.17 7363.97L8906.7 7364.57L8907.08 7367.24L8911.55 7366.65L8934.06 7363.54Z" fill="#CED1D2"/>
<path d="M9704.17 7265.7L9703.9 7263.03L9702.54 7263.14L9690.33 7264.56L9690.66 7267.23L9702.86 7265.87L9704.17 7265.7Z" fill="#CED1D2"/>
<path d="M8731.68 7391.61L8731.3 7388.94L8711.41 7391.66L8704.32 7392.7L8704.7 7395.37L8711.79 7394.39L8731.68 7391.61Z" fill="#CED1D2"/>
<path d="M9742.92 7261.45L9736.87 7262.1L9728.37 7272.73L9739.27 7271.53L9749.02 7259.43L9736.92 7249.68L9725.97 7250.88L9736.6 7259.38L9742.65 7258.72L9742.92 7261.45Z" fill="#CED1D2"/>
<path d="M9636 7270.67L9622.46 7272.22L9622.77 7274.93L9636.31 7273.38L9636 7270.67Z" fill="#CED1D2"/>
<path d="M9677.13 7268.75L9676.81 7266.03L9662.53 7267.66L9649.72 7269.13L9650.05 7271.81L9662.85 7270.39L9677.13 7268.75Z" fill="#CED1D2"/>
<path d="M9736.87 7262.11L9742.92 7261.45L9742.65 7258.73L9736.6 7259.38L9738.13 7260.58L9736.87 7262.11Z" fill="#CED1D2"/>
<path d="M9338.71 7306.8L9311.73 7310.29L9312.05 7312.96L9339.09 7309.53L9338.71 7306.8Z" fill="#CED1D2"/>
<path d="M9782.99 7266.74L9792.69 7254.64L9780.59 7244.93L9769.69 7246.08L9781.79 7255.83L9772.03 7267.94L9782.99 7266.74Z" fill="#CED1D2"/>
<path d="M9717.74 7264.23L9736.87 7262.1L9738.13 7260.58L9736.6 7259.38L9717.41 7261.5L9717.74 7264.23Z" fill="#CED1D2"/>
<path d="M9747.83 7248.48L9759.93 7258.23L9750.23 7270.33L9761.13 7269.13L9770.88 7257.03L9758.73 7247.28L9747.83 7248.48Z" fill="#CED1D2"/>
<path d="M9609.44 7276.49L9609.17 7273.77L9582.84 7276.88L9582.08 7276.93L9582.41 7279.66L9583.17 7279.55L9609.44 7276.49Z" fill="#CED1D2"/>
<path d="M9433.66 7297.64L9433.33 7294.92L9424.39 7296.01L9419.81 7296.61L9420.14 7299.28L9424.72 7298.73L9433.66 7297.64Z" fill="#CED1D2"/>
<path d="M9406.63 7300.97L9406.3 7298.3L9384.93 7300.97L9379.27 7301.68L9379.59 7304.4L9385.26 7303.64L9406.63 7300.97Z" fill="#CED1D2"/>
<path d="M6264.49 7920.48L6254.95 7925.93L6250.91 7940.92L6265.9 7944.95L6275.44 7939.5L6260.45 7935.47L6264.49 7920.48Z" fill="#CED1D2"/>
<path d="M9474.21 7292.63L9473.88 7289.9L9463.9 7291.16L9446.84 7293.23L9447.17 7295.95L9464.23 7293.83L9474.21 7292.63Z" fill="#CED1D2"/>
<path d="M9568.92 7278.58L9555.38 7280.18L9555.7 7282.89L9569.24 7281.29L9568.92 7278.58Z" fill="#CED1D2"/>
<path d="M9501.64 7286.53L9488.12 7288.18L9488.45 7290.88L9501.97 7289.23L9501.64 7286.53Z" fill="#CED1D2"/>
<path d="M9542.23 7281.54L9515.17 7284.79L9515.5 7287.49L9542.56 7284.24L9542.23 7281.54Z" fill="#CED1D2"/>
<path d="M9366.3 7303.17L9352.78 7304.89L9353.12 7307.59L9366.64 7305.88L9366.3 7303.17Z" fill="#CED1D2"/>
<path d="M7880.63 7501.77L7867.12 7503.56L7867.5 7506.24L7881.02 7504.44L7880.63 7501.77Z" fill="#CED1D2"/>
<path d="M6439.5 7840.52L6440.59 7843.02L6465.5 7831.91L6464.35 7829.45L6439.5 7840.52Z" fill="#CED1D2"/>
<path d="M7921.36 7496.21L7894.34 7499.77L7894.7 7502.48L7921.72 7498.91L7921.36 7496.21Z" fill="#CED1D2"/>
<path d="M6476.9 7824.11L6477.99 7826.56L6490.52 7821.22L6489.43 7818.77L6476.9 7824.11Z" fill="#CED1D2"/>
<path d="M6528.29 7805.74L6527.31 7803.23L6526.99 7803.34L6502.02 7813.48L6503.11 7816.04L6527.97 7805.85L6528.29 7805.74Z" fill="#CED1D2"/>
<path d="M8016.08 7486.83L8015.7 7484.11L8013.79 7484.38L8002.18 7485.85L8002.56 7488.58L8014.17 7487.05L8016.08 7486.83Z" fill="#CED1D2"/>
<path d="M7989.04 7490.32L7988.71 7487.59L7983.54 7488.25L7961.68 7491.08L7962.01 7493.81L7983.86 7490.97L7989.04 7490.32Z" fill="#CED1D2"/>
<path d="M7948.29 7493.25L7934.78 7495.01L7935.13 7497.71L7948.65 7495.95L7948.29 7493.25Z" fill="#CED1D2"/>
<path d="M6283.51 7909.52L6274.03 7914.97L6269.99 7929.96L6284.98 7934L6294.47 7928.55L6279.48 7924.51L6283.51 7909.52Z" fill="#CED1D2"/>
<path d="M6295.12 7917.04L6300.46 7914.05L6298.55 7913.56L6298.99 7911.76L6293.76 7914.7L6295.12 7917.04Z" fill="#CED1D2"/>
<path d="M6300.46 7914.05L6307 7910.39L6305.64 7908.05L6298.99 7911.76L6298.55 7913.56L6300.46 7914.05Z" fill="#CED1D2"/>
<path d="M8056.57 7481.65L8056.25 7478.93L8044.09 7480.51L8029.21 7482.41L8029.59 7485.08L8044.47 7483.18L8056.57 7481.65Z" fill="#CED1D2"/>
<path d="M6295.12 7917.04L6293.76 7914.7L6298.99 7911.76L6302.59 7898.57L6293.05 7904.02L6289.02 7919.01L6304 7923.04L6313.54 7917.59L6300.46 7914.05L6295.12 7917.04Z" fill="#CED1D2"/>
<path d="M6377.91 7869.73L6379.11 7872.13L6403.59 7860.19L6402.39 7857.8L6377.91 7869.73Z" fill="#CED1D2"/>
<path d="M6320.47 7899.71L6317.52 7901.35L6318.89 7903.75L6321.77 7902.11L6342.81 7890.83L6341.51 7888.43L6320.47 7899.71Z" fill="#CED1D2"/>
<path d="M6414.76 7851.96L6415.9 7854.42L6428.28 7848.69L6427.08 7846.19L6414.76 7851.96Z" fill="#CED1D2"/>
<path d="M6353.6 7882.1L6354.86 7884.5L6367.01 7878.29L6365.76 7875.89L6353.6 7882.1Z" fill="#CED1D2"/>
<path d="M8529.3 7419.79L8528.92 7417.06L8508.42 7419.95L8501.94 7420.82L8502.32 7423.55L8508.81 7422.62L8529.3 7419.79Z" fill="#CED1D2"/>
<path d="M8461.82 7429.11L8461.5 7426.44L8437.24 7429.76L8434.46 7430.09L8434.84 7432.81L8437.62 7432.43L8461.82 7429.11Z" fill="#CED1D2"/>
<path d="M8394.35 7438.27L8393.97 7435.59L8376.96 7437.83L8366.98 7439.14L8367.37 7441.86L8377.34 7440.55L8394.35 7438.27Z" fill="#CED1D2"/>
<path d="M8421 7431.95L8407.48 7433.74L8407.87 7436.47L8421.33 7434.67L8421 7431.95Z" fill="#CED1D2"/>
<path d="M8083.61 7478.22L8083.28 7475.49L8074.4 7476.64L8069.77 7477.24L8070.09 7479.91L8074.78 7479.36L8083.61 7478.22Z" fill="#CED1D2"/>
<path d="M8488.92 7422.82L8475.42 7424.69L8475.8 7427.39L8489.29 7425.52L8488.92 7422.82Z" fill="#CED1D2"/>
<path d="M8556.28 7416.03L8555.9 7413.36L8549.31 7414.23L8542.44 7415.21L8542.82 7417.93L8549.69 7416.95L8556.28 7416.03Z" fill="#CED1D2"/>
<path d="M8690.62 7394.19L8677.12 7396.07L8677.5 7398.77L8691 7396.89L8690.62 7394.19Z" fill="#CED1D2"/>
<path d="M8663.68 7397.86L8636.69 7401.62L8637.06 7404.32L8664.05 7400.56L8663.68 7397.86Z" fill="#CED1D2"/>
<path d="M8596.78 7410.41L8596.4 7407.69L8590.08 7408.56L8569.42 7411.45L8569.8 7414.17L8590.46 7411.29L8596.78 7410.41Z" fill="#CED1D2"/>
<path d="M8151 7467.14L8137.48 7468.85L8137.82 7471.55L8151.34 7469.84L8151 7467.14Z" fill="#CED1D2"/>
<path d="M8218.67 7457.92L8205.15 7459.64L8205.49 7462.35L8219.01 7460.63L8218.67 7457.92Z" fill="#CED1D2"/>
<path d="M8191.7 7464.54L8191.37 7461.81L8165.32 7465.14L8164.34 7465.25L8164.72 7467.97L8165.64 7467.81L8191.7 7464.54Z" fill="#CED1D2"/>
<path d="M8353.84 7443.66L8353.46 7440.94L8346.81 7441.81L8340 7442.74L8340.33 7445.41L8347.14 7444.53L8353.84 7443.66Z" fill="#CED1D2"/>
<path d="M8124.16 7473.1L8123.83 7470.37L8104.7 7472.77L8096.8 7473.8L8097.12 7476.48L8105.08 7475.49L8124.16 7473.1Z" fill="#CED1D2"/>
<path d="M8285.37 7449.6L8271.86 7451.33L8272.21 7454.03L8285.72 7452.3L8285.37 7449.6Z" fill="#CED1D2"/>
<path d="M8326.81 7447.21L8326.49 7444.48L8316.62 7445.79L8299.45 7447.97L8299.83 7450.69L8316.95 7448.46L8326.81 7447.21Z" fill="#CED1D2"/>
<path d="M8259.28 7455.93L8258.96 7453.2L8256.12 7453.58L8231.92 7456.64L8232.25 7459.36L8256.5 7456.26L8259.28 7455.93Z" fill="#CED1D2"/>
<path d="M8033.35 7292.41L7870.38 4.25262L7870.33 1.52734L7860.35 1.74537L8023.49 7298.19L8023.6 7303.75L9808.65 7069.04L9811 7068.72V7058.63L8033.35 7292.41Z" fill="#D2D2D2"/>
<path d="M7711.23 7250.66H7717.66L7717.72 7247.99C7721.53 7033.67 7716.79 6603.08 7702.73 5892.92L7702.67 5890.25H7695.86C7707.85 6494.01 7714.83 7002.88 7711.23 7250.66Z" fill="#D2D2D2"/>
<path d="M7692.75 5893.09C7706.81 6603.35 7711.55 7033.89 7707.74 7247.93L7707.68 7250.71H7711.23C7714.82 7002.88 7707.85 6494.01 7695.91 5890.31H7692.75V5893.09Z" fill="#D2D2D2"/>
<path d="M7677.43 7289.96H7650.12V7320.37H7677.43V7289.96Z" fill="#DBDADA"/>
<path d="M7644.68 7324.29H7682.89V7284.72H7644.68V7324.29ZM7649.58 7289.57H7677.66V7318.73H7677.49V7318.84H7650.18V7318.73H7649.58V7289.57Z" fill="#D2D2D2"/>
<path d="M7650.12 7290.17H7677.48V7318.73H7677.65V7289.57H7649.58V7318.73H7650.12V7290.17Z" fill="#D2D2D2"/>
<path d="M8078.82 7118.27H8037.99V7182.75H8078.82V7118.27Z" fill="#DBDADA"/>
<path d="M8080.72 7116.3H8036.35V7185.14H8080.72V7116.3ZM8078.81 7180.34H8076.19V7180.62H8040.88V7180.34H8039.29V7118.05H8078.76V7180.34H8078.81Z" fill="#D5D4D4"/>
<path d="M8039.35 7180.35H8040.88V7120.83H8076.2V7180.35H8078.81V7118.05H8039.35V7180.35Z" fill="#D5D4D4"/>
<path d="M7674.49 7234.74C7674.65 7234.58 7674.65 7234.2 7674.49 7234.03C7674.38 7233.93 7674.27 7233.93 7674.22 7234.03C7674.16 7234.14 7674.16 7234.25 7674.11 7234.42C7674.16 7234.53 7674.16 7234.69 7674.27 7234.8C7674.33 7234.85 7674.44 7234.85 7674.49 7234.74Z" fill="white"/>
<path d="M2017.68 5428.65C2227.8 5576.52 2465.99 5744.12 2671.32 5938.11C2736.78 5999.97 2794.61 6064.13 2850.53 6126.21C2984.12 6274.46 3110.25 6414.54 3319.06 6502.08C3539.59 6594.52 3781.97 6616.87 4016.46 6638.4C4282.06 6662.82 4556.66 6688.11 4808.21 6813.85C4931.77 6875.66 5093.21 6896.05 5249.43 6915.78C5368.79 6930.87 5492.2 6946.46 5597.61 6980.42C5857.82 7064.25 5982.2 7332.25 6078.35 7576.87L6079.82 7580.53L6083.74 7579.98C6086.03 7579.65 6094.37 7578.62 6108.11 7576.93L6115.58 7576C6691.15 7505.74 7243.08 7425.73 7711.72 7344.63L7715.7 7343.92L7715.86 7339.88C7716.46 7324.46 7717 7297.75 7717.39 7276.28L7717.6 7265.65H7711.01C7710.52 7293.34 7709.92 7317.59 7709.15 7337.76C7241.06 7418.75 6689.96 7498.6 6115.14 7568.81C6099.61 7570.72 6089.3 7571.97 6084.89 7572.51C6037.36 7451.68 5982.8 7324.95 5906.49 7215.72C5819.39 7091.01 5719.21 7011.76 5600.23 6973.44C5494.1 6939.27 5370.32 6923.63 5250.63 6908.47C5095.12 6888.8 4934.28 6868.47 4811.8 6807.26C4559.01 6680.86 4283.7 6655.57 4017.44 6631.04C3783.56 6609.51 3541.71 6587.27 3322.22 6495.21C3114.99 6408.33 2989.3 6268.85 2856.31 6121.14C2800.28 6058.95 2742.39 5994.69 2676.71 5932.6C2471.01 5738.24 2232.6 5570.47 2022.26 5422.49C1814.38 5276.19 1634.89 5149.85 1548.83 5040.35C1464.51 4933.03 1496.34 4632.81 1538.58 4353.31C1546.43 4301.15 1553.13 4250.4 1559.57 4201.29C1610.75 3811.52 1647.7 3529.95 2162.45 3496.42C2241.38 3491.3 2325.64 3487.6 2407.18 3484.05C2601.71 3475.6 2802.84 3466.83 2973.06 3437.4C3275.78 3385.02 3504 3212.34 3615.73 2951.1C3707.08 2737.54 3719.84 2480.71 3708.83 2203.12C4300.98 2179.13 4939.24 2156.35 5556.89 2151.94C5785.98 2150.3 5949.22 2151.88 6028.31 2156.35V2149.16C5950.04 2144.52 5792.25 2143 5556.4 2144.69C4933.08 2149.1 4299.67 2171.94 3708.12 2195.87L3700.87 2196.2L3701.14 2203.44C3710.63 2442.67 3707.03 2718.19 3608.65 2948.26C3497.95 3207.16 3271.64 3378.37 2971.42 3430.26C2801.58 3459.63 2600.73 3468.35 2405.93 3476.8C2324.55 3480.35 2240.39 3484 2161.58 3489.12C1921.7 3504.76 1768.87 3575.46 1680.62 3711.72C1599.74 3836.59 1577.61 4005.13 1551.99 4200.31C1545.56 4249.15 1538.96 4299.62 1531 4352.16C1488.54 4633.25 1456.71 4935.32 1542.72 5044.82C1629.44 5155.41 1809.36 5282.03 2017.68 5428.65Z" fill="#D2D2D2"/>
<path d="M6081.29 2162.95C6087.13 2166.43 6094.7 2173.96 6104.3 2183.49C6128.01 2207.04 6167.69 2246.45 6237.13 2280.4C6393.28 2356.77 6593.37 2379.28 6803.66 2379.28C6963.36 2379.28 7128.95 2366.25 7285.49 2353.99C7398.8 2345.1 7512.06 2336.55 7606.9 2334.09C7618.35 2736.83 7650.51 3885.05 7676.29 4987.97H7683.1L7683.05 4985.19C7657.54 3895.19 7626.09 2767.96 7613.72 2333.87L7613.5 2326.63L7606.25 2326.79C7512.45 2329.19 7400.49 2337.58 7284.45 2346.74C6922.75 2375.14 6512.87 2407.35 6239.9 2273.86C6171.45 2240.4 6132.37 2201.54 6108.98 2178.32C6098.68 2168.07 6091.21 2160.66 6084.62 2156.68C6082.77 2155.59 6079.01 2154.55 6073.5 2153.62V2160.71C6077.26 2161.42 6079.99 2162.13 6081.29 2162.95Z" fill="#D2D2D2"/>
<path d="M7707.36 7278.24C7706.98 7297.37 7706.54 7320.91 7706 7335.58C7238.66 7416.41 6688.32 7496.09 6114.32 7566.19L6110.45 7566.68C6099.01 7568.1 6090.83 7569.08 6086.14 7569.68C6038.83 7449.49 5984.49 7323.42 5908.24 7214.3C5820.76 7089.1 5720.14 7009.52 5600.61 6970.99C5494.21 6936.7 5370.32 6921.06 5250.52 6905.91C5095.23 6886.29 4934.66 6865.96 4812.62 6804.96C4559.39 6678.35 4283.81 6653 4017.28 6628.47C3783.61 6607 3541.99 6584.76 3322.82 6492.87C3116.14 6406.2 2990.66 6266.94 2857.67 6119.28C2801.69 6057.15 2743.75 5992.89 2678.08 5930.8C2472.26 5736.33 2233.8 5568.56 2023.35 5420.41C1815.69 5274.28 1636.31 5148.05 1550.46 5038.82C1466.8 4932.32 1498.58 4632.81 1540.76 4353.85C1548.61 4301.74 1555.32 4251 1561.75 4201.78C1612.76 3813.32 1649.61 3532.61 2162.13 3499.26C2240.72 3494.13 2324.66 3490.48 2405.87 3486.94L2406.96 3486.88C2601.5 3478.44 2802.68 3469.66 2973.06 3440.23C3276.71 3387.68 3505.63 3214.41 3617.75 2952.29C3716.57 2721.24 3720.55 2445.5 3711.17 2205.84C4271.93 2183.11 4870.13 2161.53 5461.51 2155.64C5462.33 2155.64 5463.09 2155.64 5463.91 2155.59V2155.48L5519.99 2155.04H5522.23V2155.1C5533.62 2154.99 5545.07 2154.88 5556.46 2154.77C5782.55 2153.13 5947.32 2154.77 6026.84 2159.07C6027.06 2159.07 6027.28 2159.07 6027.5 2159.13C6027.77 2159.13 6028.04 2159.18 6028.31 2159.18V2156.46C5949.23 2152.04 5785.98 2150.41 5556.9 2152.04C4939.24 2156.46 4300.98 2179.24 3708.83 2203.22C3719.84 2480.82 3707.09 2737.65 3615.73 2951.2C3504 3212.45 3275.78 3385.18 2973.06 3437.5C2802.84 3466.93 2601.66 3475.71 2407.18 3484.16C2325.64 3487.7 2241.38 3491.35 2162.45 3496.53C1647.7 3530.05 1610.69 3811.68 1559.57 4201.4C1553.14 4250.51 1546.43 4301.25 1538.58 4353.41C1496.34 4632.97 1464.56 4933.19 1548.83 5040.46C1634.89 5150.01 1814.43 5276.36 2022.26 5422.59C2232.6 5570.63 2471.01 5738.4 2676.71 5932.71C2742.39 5994.74 2800.33 6059.06 2856.31 6121.25C2989.36 6268.9 3114.99 6408.38 3322.22 6495.32C3541.72 6587.38 3783.56 6609.62 4017.44 6631.15C4283.7 6655.62 4559.01 6680.96 4811.8 6807.36C4934.28 6868.57 5095.07 6888.9 5250.63 6908.58C5370.32 6923.73 5494.1 6939.37 5600.23 6973.55C5719.21 7011.87 5819.34 7091.12 5906.49 7215.83C5982.8 7325.06 6037.36 7451.78 6084.89 7572.62C6089.31 7572.07 6099.61 7570.77 6115.14 7568.91C6689.96 7498.77 7241.06 7418.86 7709.16 7337.86C7709.92 7317.64 7710.57 7293.44 7711.01 7265.75H7707.63L7707.36 7278.24Z" fill="#D2D2D2"/>
<path d="M7285.43 2353.99C7128.89 2366.31 6963.36 2379.28 6803.6 2379.28C6593.37 2379.28 6393.23 2356.71 6237.07 2280.41C6167.58 2246.45 6127.95 2207.04 6104.24 2183.49C6094.65 2173.96 6087.07 2166.43 6081.24 2162.95C6079.93 2162.18 6077.26 2161.42 6073.39 2160.71V2163.49C6076.28 2164.09 6078.35 2164.69 6079.39 2165.29C6080.91 2166.22 6082.6 2167.47 6084.46 2169C6084.62 2169.16 6084.78 2169.27 6084.95 2169.38C6089.63 2173.25 6095.19 2178.81 6101.9 2185.4C6125.72 2209.06 6165.56 2248.63 6235.49 2282.86C6373.83 2350.5 6554.24 2382.06 6803.22 2382.06C6962.98 2382.06 7126.71 2369.19 7285.21 2356.77C7400.06 2347.77 7510.87 2339.43 7603.8 2336.93C7616.23 2773.68 7647.67 3900.04 7673.07 4985.35L7673.13 4988.02H7676.29C7650.51 3885.1 7618.35 2736.89 7606.9 2334.15C7512.01 2336.55 7398.75 2345.1 7285.43 2353.99Z" fill="#D2D2D2"/>
</g>
<path d="M4174.85 3984.57H3938.46V4364.97H4174.85V3984.57Z" fill="#FCE9D0"/>
<path d="M4242 3988.12H4178.72V4068.08H4242V3988.12Z" fill="white"/>
<path d="M4465.09 3902.43H4265.93V4068.08H4465.09V3902.43Z" fill="white"/>
<path d="M4465.09 3901.94H4033.62V3988.11H4465.09V3901.94Z" fill="white"/>
<path d="M4421.92 3673.35H4361.75V3904.94H4421.92V3673.35Z" fill="white"/>
<path d="M4697.94 3673.35H4388.35V3785.52H4697.94V3673.35Z" fill="white"/>
<path d="M4463.13 3870.44H4402.95V3956.61H4463.13V3870.44Z" fill="white"/>
<path opacity="0.8" d="M4035.37 3907.77H3938.46V3988.11H4035.37V3907.77Z" fill="#DBDADA"/>
<path opacity="0.8" d="M4035.37 3315.14H3938.46V3904.72H4035.37V3315.14Z" fill="#DBDADA"/>
<path d="M4078.97 3310.99H4035.7V3904.72H4078.97V3310.99Z" fill="white"/>
<path opacity="0.8" d="M4246.14 3082.07H3938.46V3310.99H4246.14V3082.07Z" fill="#DBDADA"/>
<path opacity="0.8" d="M4262.82 3988.12H4244.12V4068.08H4262.82V3988.12Z" fill="#DBDADA"/>
<path d="M4472.28 3788.08V3782.63H4421.92V3869.89H4464.98V4342.13H4701.37V3788.08H4472.28Z" fill="#FCE9D0"/>
<path d="M4653.3 3733.85H4637.28V3733.74H4419.15V3739.08H4653.3V3733.85Z" fill="#D5D4D4"/>
<path d="M4359.74 4028.18H4298.42V4033.46H4364.21V4028.23H4359.74V4028.18Z" fill="#D5D4D4"/>
<path d="M4360.23 3671.27V3788.08H4360.28V3899.98H4344.81V3899.87H4082.47V3315.14H4251.6V3078.36H3933.02V3310.01V3315.08V3902.38V3989.86V4370.36H4180.31V4070.26H4461.72V4343.87H4701.38V3788.08V3782.63V3671.27H4360.23ZM3938.47 3315.52H3961.14V3315.14H4031.78H4031.83H4033.63V3354.87H4033.52V3902.43H3938.47V3315.52ZM4240.26 4064.97H4180.31V3990.35H4240.26V4064.97ZM4260.87 4064.97H4245.71V3990.35H4260.87V4064.97ZM4695.98 3782.63H4491.37H4461.72H4418.44V3782.74V3788.08V3871.96H4461.72V3936.66H4467.17V3871.96V3869.24V3866.51H4423.89V3788.08H4461.72H4467.17H4467.39H4483.58H4485.92H4491.37H4695.93V4338.48H4467.17V3977.81H4461.72V4065.08H4443.46V4064.97H4266.32V3990.35H4364.26V3985.12H4351.29V3985.01H4266.32H4260.87H4245.71H4240.26H4174.86V3985.06V3985.12H4173.33V3985.01H4078.38V3990.35H4174.86V4064.97V4070.31V4364.97H3938.47V3989.91H4039.19V3984.68H4032.32V3984.57H3938.47V3907.77H4033.25L4033.36 3964.08H4033.52H4038.87V3310.07H4038.16V3309.68H4035.32H4031.78H3938.47V3083.81H4246.15V3309.68H4081.87H4077.24V3315.14V3336.66V3350.84H4077.13V3899.87H4077.07V3905.21H4077.13H4082.47H4360.28H4364.48H4365.63V3788.08V3782.74V3767.59V3766.39V3676.56H4696.04V3782.63H4695.98Z" fill="#D5D4D4"/>
</g>
<defs>
<clipPath id="clip0_1506_5813">
<rect width="9811" height="9811" fill="white"/>
</clipPath>
</defs>
</svg>
